<?xml version="1.0" encoding="UTF-8"?>
<svg id="Layer_1" data-name="Layer 1" xmlns="http://www.w3.org/2000/svg" xmlns:xlink="http://www.w3.org/1999/xlink" viewBox="0 0 1920 1080">
  <defs>
    <style>
      .cls-1 {
        opacity: .9;
      }

      .cls-2 {
        stroke-width: 4.45px;
      }

      .cls-2, .cls-3 {
        fill: none;
        stroke: #8b8332;
        stroke-miterlimit: 10;
      }

      .cls-4, .cls-5, .cls-6 {
        stroke-width: 0px;
      }

      .cls-5 {
        fill: #d0dbdc;
      }

      .cls-6 {
        fill: #8b8332;
      }

      .cls-3 {
        stroke-width: 4.93px;
      }
    </style>
    <symbol id="Anchor_2" data-name="Anchor 2" viewBox="0 0 15 15">
      <g>
        <path class="cls-6" d="M7.5,13c-1.47,0-2.85-.57-3.89-1.61-1.04-1.04-1.61-2.42-1.61-3.89s.57-2.85,1.61-3.89c1.04-1.04,2.42-1.61,3.89-1.61s2.85.57,3.89,1.61c1.04,1.04,1.61,2.42,1.61,3.89s-.57,2.85-1.61,3.89c-1.04,1.04-2.42,1.61-3.89,1.61Z"/>
        <path class="cls-6" d="M7.5,4c.93,0,1.81.36,2.48,1.03s1.02,1.54,1.02,2.47-.36,1.81-1.03,2.47c-.66.66-1.54,1.02-2.47,1.02s-1.81-.36-2.47-1.02c-.66-.66-1.03-1.54-1.03-2.47s.36-1.81,1.03-2.48,1.54-1.02,2.47-1.02M7.5,0c-1.92,0-3.84.73-5.3,2.2-2.93,2.93-2.93,7.68,0,10.61,1.46,1.46,3.38,2.2,5.3,2.2s3.84-.73,5.3-2.2c2.93-2.93,2.93-7.68,0-10.61-1.46-1.46-3.38-2.2-5.3-2.2h0Z"/>
      </g>
    </symbol>
  </defs>
  <g>
    <path class="cls-6" d="M1585.62,682.8v-10.87c0-.32,0-.65.01-1,0-.34.02-.71.04-1.09-.54.53-1.16.98-1.86,1.36-.7.38-1.41.64-2.15.8l-.48-2.23c.34-.05.73-.16,1.18-.34.45-.18.91-.4,1.39-.67.48-.27.92-.56,1.32-.88s.71-.62.94-.92h2.16v15.84h-2.54Z"/>
    <path class="cls-6" d="M1635.14,744.44v-1.87c1.52-1.09,2.8-2.05,3.83-2.88,1.03-.83,1.86-1.6,2.48-2.3.62-.7,1.08-1.37,1.36-2,.28-.63.42-1.28.42-1.93,0-.85-.26-1.54-.79-2.06-.53-.53-1.26-.79-2.21-.79-.99,0-1.78.33-2.36,1-.58.66-.92,1.57-1,2.72l-2.23-1.03c.11-1.01.41-1.88.89-2.62.48-.74,1.13-1.3,1.96-1.7s1.78-.6,2.87-.6c.89,0,1.68.13,2.36.38s1.25.61,1.72,1.07c.46.46.82.99,1.07,1.6.25.61.37,1.26.37,1.95,0,1.01-.25,1.98-.74,2.92-.5.94-1.28,1.89-2.35,2.87-1.07.98-2.48,2.02-4.22,3.14v.05c.19-.03.46-.05.79-.06s.67-.02,1.01-.02c.34,0,.61-.01.82-.01h4.99v2.21h-11.02Z"/>
    <path class="cls-6" d="M1769.26,799.12c-1.49,0-2.78-.33-3.88-1s-1.84-1.6-2.24-2.8l2.5-1.18c.14.58.37,1.07.67,1.49.3.42.7.73,1.2.95s1.11.32,1.85.32c.62,0,1.15-.11,1.58-.34.43-.22.76-.54,1-.94.23-.4.35-.86.35-1.37s-.1-.97-.3-1.32c-.2-.35-.51-.61-.94-.77s-.96-.24-1.62-.24c-.19,0-.39,0-.59.01s-.41.03-.64.06v-2.16c.14.02.28.03.42.04.14,0,.27.01.4.01,1.04,0,1.78-.21,2.23-.62s.67-1.06.67-1.94c0-.75-.23-1.33-.68-1.73-.46-.4-1.11-.6-1.96-.6s-1.56.2-2.05.61-.86,1-1.12,1.76l-2.35-.98c.22-.74.6-1.38,1.13-1.92.53-.54,1.18-.96,1.96-1.26.78-.3,1.63-.44,2.55-.44,1.14,0,2.08.18,2.84.55.76.37,1.33.87,1.7,1.51.38.64.56,1.35.56,2.14,0,.61-.09,1.14-.26,1.6-.18.46-.41.85-.71,1.18-.3.33-.62.58-.96.76-.34.18-.69.3-1.04.36v.05c.46.02.89.11,1.28.28.39.17.74.4,1.06.7.31.3.56.65.73,1.07.18.42.26.87.26,1.37,0,.96-.24,1.8-.72,2.52s-1.14,1.28-1.98,1.68c-.84.4-1.81.6-2.92.6Z"/>
    <path class="cls-6" d="M1540.18,863.01v-3.96h-7.73v-1.75c.03-.08.08-.18.16-.29.07-.11.16-.24.25-.38l6.6-9.46h3.14v9.89h2.69v1.99h-2.69v3.96h-2.42ZM1534.85,857.06h5.33v-5.59c0-.38.01-.78.04-1.19.03-.41.04-.81.06-1.21h-.05c-.18.38-.4.8-.68,1.26-.28.46-.54.85-.78,1.19l-3.74,5.33s-.06.06-.08.1-.05.07-.08.12Z"/>
    <path class="cls-6" d="M1741.72,695.86c-1.41,0-2.56-.3-3.47-.91-.9-.61-1.62-1.49-2.15-2.64l2.4-1.25c.24.77.6,1.4,1.09,1.88s1.21.73,2.17.73c.67,0,1.24-.12,1.71-.37.47-.25.84-.6,1.09-1.06.25-.46.38-1,.38-1.64,0-.67-.12-1.23-.36-1.68-.24-.45-.58-.79-1.03-1.02-.45-.23-1.01-.35-1.68-.35-.46,0-.9.05-1.3.14-.4.1-.76.24-1.08.44-.32.2-.6.46-.84.78l-2.11-.41.96-8.74h9.21v2.21h-7.18l-.58,4.46-.05.26h.05c.37-.4.84-.71,1.43-.94.58-.22,1.28-.34,2.08-.34,1.02,0,1.9.21,2.64.63.74.42,1.31,1.01,1.73,1.76s.62,1.62.62,2.62c0,.86-.14,1.63-.43,2.3-.29.67-.7,1.24-1.22,1.7s-1.14.81-1.84,1.04c-.7.23-1.45.35-2.27.35Z"/>
    <path class="cls-6" d="M1662.18,868.52c.85,0,1.6.12,2.26.35s1.23.6,1.72,1.09c.49.5.89,1.14,1.21,1.94l-2.26,1.08c-.22-.69-.58-1.23-1.07-1.63-.49-.4-1.16-.6-2.03-.6-.62,0-1.18.15-1.66.46s-.89.73-1.22,1.28c-.34.55-.59,1.2-.77,1.94-.18.74-.26,1.55-.26,2.41v.43l.1.05c.18-.64.49-1.16.95-1.55s.97-.68,1.55-.88c.58-.19,1.14-.29,1.7-.29,1.06,0,1.98.2,2.76.61.78.41,1.4.99,1.84,1.74.44.75.66,1.65.66,2.69s-.23,1.97-.7,2.75c-.46.78-1.11,1.38-1.93,1.8-.83.42-1.81.64-2.96.64-1.34,0-2.49-.34-3.43-1.01-.94-.67-1.66-1.62-2.16-2.83-.5-1.22-.74-2.64-.74-4.27,0-1.81.28-3.32.85-4.54.57-1.21,1.34-2.13,2.32-2.75s2.07-.92,3.29-.92ZM1662.01,876.75c-.61,0-1.14.12-1.61.37-.46.25-.83.59-1.09,1.02-.26.43-.4.94-.4,1.51s.14,1.06.42,1.51c.28.45.65.8,1.12,1.07.46.26.98.4,1.56.4.98,0,1.74-.26,2.28-.79.54-.53.82-1.26.82-2.18,0-.59-.12-1.11-.36-1.55-.24-.44-.59-.78-1.04-1.01-.46-.23-1.02-.35-1.69-.35Z"/>
    <path class="cls-6" d="M1700.36,890.95h12.07v2.14c-1.33,1.38-2.4,2.79-3.22,4.24s-1.4,2.95-1.76,4.51c-.36,1.56-.54,3.21-.54,4.96h-2.59c0-1.76.22-3.48.66-5.15.44-1.67,1.11-3.27,2.02-4.8.9-1.53,2.04-2.96,3.42-4.31l.48.65h-10.54v-2.23Z"/>
    <path class="cls-6" d="M1500.99,898.95c1.07,0,2,.17,2.8.52.79.34,1.4.83,1.84,1.45.43.62.65,1.38.65,2.26,0,.82-.2,1.53-.59,2.15-.39.62-.96,1.08-1.72,1.4v.02c.91.34,1.64.84,2.17,1.5s.8,1.48.8,2.46-.24,1.75-.73,2.42-1.18,1.19-2.06,1.56c-.89.37-1.94.55-3.16.55s-2.27-.18-3.16-.55-1.58-.89-2.08-1.56c-.5-.67-.74-1.48-.74-2.42s.26-1.78.79-2.45c.53-.67,1.26-1.18,2.21-1.51v-.02c-.72-.3-1.29-.76-1.7-1.38-.42-.62-.62-1.34-.62-2.17,0-.88.21-1.63.65-2.26.43-.62,1.05-1.11,1.85-1.45s1.74-.52,2.81-.52ZM1500.99,913.08c.71,0,1.3-.1,1.8-.31s.88-.51,1.15-.91c.27-.4.41-.86.41-1.39,0-.56-.14-1.04-.42-1.43-.28-.39-.67-.69-1.16-.9s-1.09-.31-1.78-.31-1.26.1-1.78.31-.91.51-1.19.9c-.28.39-.42.87-.42,1.43,0,.53.13.99.41,1.39.27.4.66.7,1.18.91.51.21,1.11.31,1.8.31ZM1500.99,901.11c-.85,0-1.52.21-2.03.62s-.76.98-.76,1.7.26,1.28.77,1.69,1.18.61,2.02.61,1.5-.2,2-.61c.5-.41.76-.97.76-1.69s-.25-1.29-.74-1.7c-.5-.42-1.17-.62-2.02-.62Z"/>
    <path class="cls-6" d="M1617.7,1014.39c1.36,0,2.51.34,3.44,1.01.94.67,1.64,1.62,2.11,2.83.47,1.22.71,2.65.71,4.3,0,1.82-.25,3.34-.74,4.55s-1.21,2.12-2.14,2.72c-.93.61-2.05.91-3.36.91s-2.5-.29-3.46-.89c-.96-.59-1.68-1.48-2.16-2.66l2.42-1.13c.22.75.6,1.35,1.12,1.8.52.45,1.23.67,2.12.67.74,0,1.35-.14,1.85-.43s.89-.7,1.19-1.25c.3-.54.51-1.2.64-1.97.13-.77.19-1.63.19-2.59v-.26h-.1c-.18.64-.49,1.16-.95,1.56-.46.4-.97.69-1.55.88s-1.15.28-1.73.28c-1.02,0-1.93-.2-2.72-.61-.79-.41-1.41-.98-1.86-1.72-.45-.74-.67-1.61-.67-2.62,0-1.1.23-2.06.68-2.86s1.1-1.42,1.94-1.86c.84-.44,1.84-.66,3.01-.66ZM1617.72,1016.65c-1.01,0-1.78.27-2.32.82-.54.54-.8,1.3-.8,2.28,0,.86.28,1.54.85,2.03s1.32.73,2.27.73c.61,0,1.14-.12,1.61-.37s.83-.59,1.09-1.02c.26-.43.4-.94.4-1.51,0-.61-.13-1.13-.4-1.57-.26-.44-.63-.78-1.09-1.02-.46-.24-1-.36-1.61-.36Z"/>
    <g>
      <path class="cls-6" d="M1399.32,894.92v-10.87c0-.32,0-.65.01-1,0-.34.02-.71.04-1.09-.54.53-1.16.98-1.86,1.36s-1.41.64-2.15.8l-.48-2.23c.34-.05.73-.16,1.18-.34.45-.18.91-.4,1.39-.67.48-.27.92-.56,1.32-.88.4-.31.71-.62.94-.92h2.16v15.84h-2.54Z"/>
      <path class="cls-6" d="M1411.63,895.16c-1.9,0-3.4-.69-4.48-2.08-1.08-1.38-1.62-3.41-1.62-6.08s.54-4.7,1.62-6.08c1.08-1.38,2.57-2.08,4.48-2.08s3.42.69,4.5,2.08c1.08,1.38,1.62,3.41,1.62,6.08s-.54,4.7-1.62,6.08c-1.08,1.38-2.58,2.08-4.5,2.08ZM1411.63,892.97c.77,0,1.41-.22,1.93-.66.52-.44.91-1.1,1.18-1.99.26-.89.4-2,.4-3.32s-.13-2.44-.4-3.32c-.26-.89-.66-1.55-1.18-1.99s-1.16-.66-1.93-.66-1.41.22-1.93.66c-.52.44-.91,1.1-1.16,1.99-.26.89-.38,2-.38,3.32s.13,2.44.38,3.32c.26.89.64,1.55,1.16,1.99.52.44,1.16.66,1.93.66Z"/>
    </g>
    <g>
      <path class="cls-6" d="M1417.8,954.52v-10.87c0-.32,0-.65.01-1s.02-.71.04-1.09c-.54.53-1.16.98-1.86,1.36-.7.38-1.41.64-2.15.8l-.48-2.23c.34-.05.73-.16,1.18-.34.45-.18.91-.4,1.39-.67.48-.27.92-.56,1.32-.88.4-.31.71-.62.94-.92h2.16v15.84h-2.54Z"/>
      <path class="cls-6" d="M1427.45,954.52v-10.87c0-.32,0-.65.01-1s.02-.71.04-1.09c-.54.53-1.16.98-1.86,1.36-.7.38-1.41.64-2.15.8l-.48-2.23c.34-.05.73-.16,1.18-.34s.91-.4,1.39-.67c.48-.27.92-.56,1.32-.88s.71-.62.94-.92h2.16v15.84h-2.54Z"/>
    </g>
    <g>
      <path class="cls-6" d="M1789.61,1004.19v-10.87c0-.32,0-.65.01-1s.02-.71.04-1.09c-.54.53-1.16.98-1.86,1.36-.7.38-1.41.64-2.15.8l-.48-2.23c.34-.05.73-.16,1.18-.34.45-.18.91-.4,1.39-.67.48-.27.92-.56,1.32-.88.4-.31.71-.62.94-.92h2.16v15.84h-2.54Z"/>
      <path class="cls-6" d="M1796.07,1004.19v-1.87c1.52-1.09,2.8-2.05,3.83-2.88,1.03-.83,1.86-1.6,2.48-2.3.62-.7,1.08-1.37,1.36-2s.42-1.28.42-1.93c0-.85-.26-1.54-.79-2.06s-1.26-.79-2.21-.79c-.99,0-1.78.33-2.36,1s-.92,1.57-1,2.72l-2.23-1.03c.11-1.01.41-1.88.89-2.62s1.13-1.3,1.96-1.7c.82-.4,1.78-.6,2.87-.6.9,0,1.68.13,2.36.38s1.25.61,1.72,1.07c.46.46.82.99,1.07,1.6.25.61.37,1.26.37,1.94,0,1.01-.25,1.98-.74,2.92-.5.94-1.28,1.89-2.35,2.87-1.07.98-2.48,2.02-4.22,3.14v.05c.19-.03.46-.05.79-.06l1.01-.02c.34,0,.61-.01.82-.01h4.99v2.21h-11.02Z"/>
    </g>
    <g>
      <path class="cls-6" d="M1252.54,924.11v-10.87c0-.32,0-.65.01-1,0-.34.02-.71.04-1.09-.54.53-1.16.98-1.86,1.36-.7.38-1.41.64-2.15.8l-.48-2.23c.34-.05.73-.16,1.18-.34.45-.18.91-.4,1.39-.67.48-.27.92-.56,1.32-.88.4-.31.71-.62.94-.92h2.16v15.84h-2.54Z"/>
      <path class="cls-6" d="M1264.35,924.35c-1.49,0-2.78-.33-3.88-1s-1.84-1.6-2.24-2.8l2.5-1.18c.14.58.37,1.07.67,1.49.3.42.7.73,1.2.95.5.22,1.11.32,1.85.32.62,0,1.15-.11,1.58-.34.43-.22.76-.54,1-.94.23-.4.35-.86.35-1.37s-.1-.97-.3-1.32c-.2-.35-.51-.61-.94-.77s-.96-.24-1.62-.24c-.19,0-.39,0-.59.01s-.41.03-.64.06v-2.16c.14.02.28.03.42.04.14,0,.27.01.4.01,1.04,0,1.78-.21,2.23-.62.45-.42.67-1.06.67-1.94,0-.75-.23-1.33-.68-1.73s-1.11-.6-1.96-.6-1.56.21-2.05.61c-.49.41-.86,1-1.12,1.76l-2.35-.98c.22-.74.6-1.38,1.13-1.92.53-.54,1.18-.96,1.96-1.26.78-.3,1.63-.44,2.55-.44,1.14,0,2.08.18,2.84.55.76.37,1.33.87,1.7,1.51.38.64.56,1.35.56,2.14,0,.61-.09,1.14-.26,1.6-.18.46-.41.85-.71,1.18-.3.33-.62.58-.96.76-.34.18-.69.3-1.04.36v.05c.46.02.89.11,1.28.28.39.17.74.4,1.06.7.31.3.56.65.73,1.07.18.42.26.87.26,1.37,0,.96-.24,1.8-.72,2.52-.48.72-1.14,1.28-1.98,1.68-.84.4-1.81.6-2.92.6Z"/>
    </g>
    <g>
      <path class="cls-6" d="M1268.89,822.16v-10.87c0-.32,0-.65.01-1,0-.34.02-.71.04-1.09-.54.53-1.16.98-1.86,1.36s-1.41.64-2.15.8l-.48-2.23c.34-.05.73-.16,1.18-.34.45-.18.91-.4,1.39-.67.48-.27.92-.56,1.32-.88.4-.31.71-.62.94-.92h2.16v15.84h-2.54Z"/>
      <path class="cls-6" d="M1282.45,822.16v-3.96h-7.73v-1.75c.03-.08.08-.18.16-.29.07-.11.16-.24.25-.38l6.6-9.46h3.14v9.89h2.69v1.99h-2.69v3.96h-2.42ZM1277.12,816.21h5.33v-5.59c0-.38.01-.78.04-1.19.03-.41.04-.81.06-1.21h-.05c-.18.38-.4.8-.68,1.26-.28.46-.54.85-.78,1.19l-3.74,5.33s-.06.06-.08.1-.05.07-.08.12Z"/>
    </g>
    <g>
      <path class="cls-6" d="M1167.32,906.79v-10.87c0-.32,0-.65.01-1,0-.34.02-.71.04-1.09-.54.53-1.16.98-1.86,1.36-.7.38-1.41.64-2.15.8l-.48-2.23c.34-.05.73-.16,1.18-.34.45-.18.91-.4,1.39-.67s.92-.56,1.32-.88c.4-.31.71-.62.94-.92h2.16v15.84h-2.54Z"/>
      <path class="cls-6" d="M1178.99,907.03c-1.41,0-2.56-.3-3.47-.91-.9-.61-1.62-1.49-2.15-2.64l2.4-1.25c.24.77.6,1.4,1.09,1.88s1.21.73,2.17.73c.67,0,1.24-.12,1.72-.37s.84-.6,1.09-1.06c.25-.46.38-1,.38-1.64,0-.67-.12-1.23-.36-1.68-.24-.45-.58-.79-1.03-1.02s-1.01-.35-1.68-.35c-.46,0-.9.05-1.3.14-.4.1-.76.24-1.08.44-.32.2-.6.46-.84.78l-2.11-.41.96-8.74h9.22v2.21h-7.18l-.58,4.46-.05.26h.05c.37-.4.84-.71,1.43-.94.58-.22,1.28-.34,2.08-.34,1.02,0,1.9.21,2.64.64.74.42,1.31,1.01,1.73,1.76s.62,1.62.62,2.62c0,.86-.14,1.63-.43,2.3-.29.67-.7,1.24-1.22,1.7-.53.46-1.14.81-1.84,1.04-.7.23-1.45.35-2.27.35Z"/>
    </g>
    <g>
      <path class="cls-6" d="M1212.44,958.28v-10.87c0-.32,0-.65.01-1,0-.34.02-.71.04-1.09-.54.53-1.16.98-1.86,1.36s-1.41.64-2.15.8l-.48-2.23c.34-.05.73-.16,1.18-.34.45-.18.91-.4,1.39-.67.48-.27.92-.56,1.32-.88.4-.31.71-.62.94-.92h2.16v15.84h-2.54Z"/>
      <path class="cls-6" d="M1225.11,942.2c.85,0,1.6.12,2.26.35s1.23.6,1.72,1.09.89,1.14,1.21,1.94l-2.26,1.08c-.22-.69-.58-1.23-1.07-1.63-.49-.4-1.16-.6-2.03-.6-.62,0-1.18.15-1.66.46-.48.3-.89.73-1.22,1.28s-.59,1.2-.77,1.94c-.18.74-.26,1.55-.26,2.41v.43l.1.05c.18-.64.49-1.16.95-1.55.46-.39.97-.68,1.55-.88.58-.19,1.14-.29,1.7-.29,1.06,0,1.98.2,2.76.61.78.41,1.4.99,1.84,1.74.44.75.66,1.65.66,2.69s-.23,1.97-.7,2.75-1.11,1.38-1.93,1.8c-.83.42-1.81.64-2.96.64-1.34,0-2.49-.34-3.43-1.01-.95-.67-1.67-1.62-2.16-2.83-.5-1.22-.74-2.64-.74-4.27,0-1.81.28-3.32.85-4.54s1.34-2.13,2.32-2.75c.98-.62,2.07-.92,3.29-.92ZM1224.94,950.43c-.61,0-1.14.12-1.61.37-.46.25-.83.59-1.09,1.02-.26.43-.4.94-.4,1.51s.14,1.06.42,1.51.65.8,1.12,1.07c.46.26.98.4,1.56.4.98,0,1.74-.26,2.28-.79.54-.53.82-1.26.82-2.18,0-.59-.12-1.11-.36-1.55s-.59-.78-1.04-1.01c-.46-.23-1.02-.35-1.69-.35Z"/>
    </g>
    <g>
      <path class="cls-6" d="M1269.79,980.81v-10.87c0-.32,0-.65.01-1,0-.34.02-.71.04-1.09-.54.53-1.16.98-1.86,1.36-.7.38-1.41.64-2.15.8l-.48-2.23c.34-.05.73-.16,1.18-.34.45-.18.91-.4,1.39-.67.48-.27.92-.56,1.32-.88s.71-.62.94-.92h2.16v15.84h-2.54Z"/>
      <path class="cls-6" d="M1275.48,964.97h12.07v2.14c-1.33,1.38-2.4,2.79-3.21,4.24-.82,1.45-1.4,2.95-1.76,4.51s-.54,3.21-.54,4.96h-2.59c0-1.76.22-3.48.66-5.15.44-1.67,1.11-3.27,2.02-4.8.9-1.53,2.04-2.96,3.42-4.31l.48.65h-10.54v-2.23Z"/>
    </g>
    <g>
      <path class="cls-6" d="M1305.04,941.17v-10.87c0-.32,0-.65.01-1,0-.34.02-.71.04-1.09-.54.53-1.16.98-1.86,1.36-.7.38-1.41.64-2.15.8l-.48-2.23c.34-.05.73-.16,1.18-.34.45-.18.91-.4,1.39-.67.48-.27.92-.56,1.32-.88.4-.31.71-.62.94-.92h2.16v15.84h-2.54Z"/>
      <path class="cls-6" d="M1317.26,925.11c1.07,0,2,.17,2.8.52.79.34,1.4.83,1.84,1.45.43.62.65,1.38.65,2.26,0,.82-.2,1.53-.59,2.15-.39.62-.96,1.08-1.71,1.4v.02c.91.34,1.63.84,2.17,1.5.54.66.8,1.48.8,2.46s-.24,1.75-.73,2.42c-.49.67-1.18,1.19-2.06,1.56-.89.37-1.94.55-3.16.55s-2.27-.19-3.16-.55c-.89-.37-1.58-.89-2.08-1.56s-.74-1.48-.74-2.42.26-1.78.79-2.45c.53-.67,1.26-1.18,2.21-1.51v-.02c-.72-.3-1.29-.76-1.7-1.38-.42-.62-.62-1.34-.62-2.17,0-.88.22-1.63.65-2.26.43-.62,1.05-1.11,1.85-1.45.8-.34,1.74-.52,2.81-.52ZM1317.26,939.25c.7,0,1.3-.1,1.8-.31.5-.21.88-.51,1.15-.91s.41-.86.41-1.39c0-.56-.14-1.04-.42-1.43-.28-.39-.67-.69-1.16-.9s-1.09-.31-1.78-.31-1.26.1-1.78.31c-.51.21-.91.51-1.19.9-.28.39-.42.87-.42,1.43,0,.53.14.99.41,1.39.27.4.66.7,1.18.91.51.21,1.11.31,1.8.31ZM1317.26,927.27c-.85,0-1.52.21-2.03.62s-.76.98-.76,1.7.26,1.28.77,1.69c.51.41,1.18.61,2.02.61s1.5-.2,2-.61.76-.97.76-1.69-.25-1.29-.74-1.7-1.17-.62-2.02-.62Z"/>
    </g>
    <g>
      <path class="cls-6" d="M1621.9,838.59v-10.87c0-.32,0-.65.01-1,0-.34.02-.71.04-1.09-.54.53-1.16.98-1.86,1.36-.7.38-1.41.64-2.15.8l-.48-2.23c.34-.05.73-.16,1.18-.34.45-.18.91-.4,1.39-.67.48-.27.92-.56,1.32-.88.4-.31.71-.62.94-.92h2.16v15.84h-2.54Z"/>
      <path class="cls-6" d="M1633.78,822.51c1.36,0,2.51.34,3.44,1.01.94.67,1.64,1.62,2.11,2.83.47,1.22.71,2.65.71,4.3,0,1.82-.25,3.34-.74,4.55-.5,1.21-1.21,2.12-2.14,2.72s-2.05.91-3.36.91-2.5-.3-3.46-.89c-.96-.59-1.68-1.48-2.16-2.66l2.42-1.13c.22.75.6,1.35,1.12,1.8.52.45,1.23.67,2.12.67.74,0,1.35-.14,1.85-.43.5-.29.89-.71,1.19-1.25.3-.54.51-1.2.64-1.97.13-.77.19-1.63.19-2.59v-.26h-.1c-.18.64-.49,1.16-.95,1.56-.46.4-.97.69-1.55.88s-1.15.28-1.73.28c-1.02,0-1.93-.2-2.72-.61-.79-.41-1.41-.98-1.86-1.72s-.67-1.61-.67-2.62c0-1.1.23-2.06.68-2.86.46-.8,1.1-1.42,1.94-1.86s1.84-.66,3.01-.66ZM1633.8,824.77c-1.01,0-1.78.27-2.32.82s-.8,1.3-.8,2.28c0,.86.28,1.54.85,2.03s1.32.73,2.27.73c.61,0,1.14-.12,1.61-.37s.83-.59,1.09-1.02c.26-.43.4-.94.4-1.51,0-.61-.13-1.13-.4-1.57-.26-.44-.63-.78-1.09-1.02s-1-.36-1.61-.36Z"/>
    </g>
    <g>
      <path class="cls-6" d="M1483.24,941.17v-1.87c1.52-1.09,2.8-2.05,3.83-2.88,1.03-.83,1.86-1.6,2.48-2.3.62-.7,1.08-1.37,1.36-2,.28-.63.42-1.28.42-1.93,0-.85-.26-1.54-.79-2.06-.53-.53-1.26-.79-2.21-.79-.99,0-1.78.33-2.36,1s-.92,1.57-1,2.72l-2.23-1.03c.11-1.01.41-1.88.89-2.62.48-.74,1.13-1.3,1.96-1.71.82-.4,1.78-.6,2.87-.6.9,0,1.68.13,2.36.38.68.26,1.25.61,1.71,1.07.46.46.82.99,1.07,1.6.25.61.37,1.26.37,1.94,0,1.01-.25,1.98-.74,2.92-.5.94-1.28,1.89-2.35,2.87-1.07.98-2.48,2.03-4.22,3.14v.05c.19-.03.46-.05.79-.06s.67-.02,1.01-.02c.34,0,.61-.01.82-.01h4.99v2.21h-11.02Z"/>
      <path class="cls-6" d="M1503.19,941.41c-1.9,0-3.4-.69-4.48-2.08-1.08-1.38-1.62-3.41-1.62-6.08s.54-4.7,1.62-6.08,2.57-2.08,4.48-2.08,3.42.69,4.5,2.08,1.62,3.41,1.62,6.08-.54,4.7-1.62,6.08c-1.08,1.38-2.58,2.08-4.5,2.08ZM1503.19,939.22c.77,0,1.41-.22,1.93-.66.52-.44.91-1.1,1.18-1.99.26-.89.4-2,.4-3.32s-.13-2.44-.4-3.32c-.26-.89-.66-1.55-1.18-1.99-.52-.44-1.16-.66-1.93-.66s-1.41.22-1.93.66c-.52.44-.91,1.1-1.16,1.99-.26.89-.38,2-.38,3.32s.13,2.44.38,3.32c.26.89.64,1.55,1.16,1.99.52.44,1.16.66,1.93.66Z"/>
    </g>
    <g>
      <path class="cls-6" d="M1226.82,810.91v-1.87c1.52-1.09,2.8-2.05,3.83-2.88,1.03-.83,1.86-1.6,2.48-2.3.62-.7,1.08-1.37,1.36-2,.28-.63.42-1.28.42-1.93,0-.85-.26-1.54-.79-2.06-.53-.53-1.26-.79-2.21-.79-.99,0-1.78.33-2.36,1s-.92,1.57-1,2.72l-2.23-1.03c.11-1.01.41-1.88.89-2.62.48-.74,1.13-1.3,1.96-1.71.82-.4,1.78-.6,2.87-.6.9,0,1.68.13,2.36.38.68.26,1.25.61,1.71,1.07.46.46.82.99,1.07,1.6.25.61.37,1.26.37,1.94,0,1.01-.25,1.98-.74,2.92-.5.94-1.28,1.89-2.35,2.87-1.07.98-2.48,2.03-4.22,3.14v.05c.19-.03.46-.05.79-.06s.67-.02,1.01-.02c.34,0,.61-.01.82-.01h4.99v2.21h-11.02Z"/>
      <path class="cls-6" d="M1244.1,810.91v-10.87c0-.32,0-.65.01-1,0-.34.02-.71.04-1.09-.54.53-1.16.98-1.86,1.36-.7.38-1.41.64-2.15.8l-.48-2.23c.34-.05.73-.16,1.18-.34.45-.18.91-.4,1.39-.67.48-.27.92-.56,1.32-.88s.71-.62.94-.92h2.16v15.84h-2.54Z"/>
    </g>
    <g>
      <path class="cls-6" d="M1394.4,807.09v-1.87c1.52-1.09,2.8-2.05,3.83-2.88,1.03-.83,1.86-1.6,2.48-2.3s1.08-1.37,1.36-2c.28-.63.42-1.28.42-1.93,0-.85-.26-1.54-.79-2.06s-1.26-.79-2.21-.79c-.99,0-1.78.33-2.36,1-.58.66-.92,1.57-1,2.72l-2.23-1.03c.11-1.01.41-1.88.89-2.62.48-.74,1.13-1.3,1.96-1.7.82-.4,1.78-.6,2.87-.6.89,0,1.68.13,2.36.38s1.25.61,1.72,1.07.82.99,1.07,1.6c.25.61.37,1.26.37,1.94,0,1.01-.25,1.98-.74,2.92s-1.28,1.89-2.35,2.87c-1.07.98-2.48,2.02-4.22,3.14v.05c.19-.03.46-.05.79-.06.34,0,.67-.02,1.01-.02.34,0,.61-.01.82-.01h4.99v2.21h-11.02Z"/>
      <path class="cls-6" d="M1408.48,807.09v-1.87c1.52-1.09,2.8-2.05,3.83-2.88,1.03-.83,1.86-1.6,2.48-2.3s1.08-1.37,1.36-2c.28-.63.42-1.28.42-1.93,0-.85-.26-1.54-.79-2.06s-1.26-.79-2.21-.79c-.99,0-1.78.33-2.36,1-.58.66-.92,1.57-1,2.72l-2.23-1.03c.11-1.01.41-1.88.89-2.62.48-.74,1.13-1.3,1.96-1.7.82-.4,1.78-.6,2.87-.6.89,0,1.68.13,2.36.38s1.25.61,1.72,1.07.82.99,1.07,1.6c.25.61.37,1.26.37,1.94,0,1.01-.25,1.98-.74,2.92s-1.28,1.89-2.35,2.87c-1.07.98-2.48,2.02-4.22,3.14v.05c.19-.03.46-.05.79-.06.34,0,.67-.02,1.01-.02.34,0,.61-.01.82-.01h4.99v2.21h-11.02Z"/>
    </g>
    <g>
      <path class="cls-6" d="M1462.64,854.8v-1.87c1.52-1.09,2.8-2.05,3.83-2.88,1.03-.83,1.86-1.6,2.48-2.3.62-.7,1.08-1.37,1.36-2,.28-.63.42-1.28.42-1.93,0-.85-.26-1.54-.79-2.06-.53-.53-1.26-.79-2.21-.79-.99,0-1.78.33-2.36,1-.58.66-.92,1.57-1,2.72l-2.23-1.03c.11-1.01.41-1.88.89-2.62.48-.74,1.13-1.3,1.96-1.7.82-.4,1.78-.6,2.87-.6.9,0,1.68.13,2.36.38s1.25.61,1.72,1.07c.46.46.82.99,1.07,1.6.25.61.37,1.26.37,1.94,0,1.01-.25,1.98-.74,2.92s-1.28,1.89-2.35,2.87-2.48,2.02-4.22,3.14v.05c.19-.03.46-.05.79-.06.34,0,.67-.02,1.01-.02s.61-.01.82-.01h4.99v2.21h-11.02Z"/>
      <path class="cls-6" d="M1482.08,855.04c-1.49,0-2.78-.33-3.88-1s-1.84-1.6-2.24-2.8l2.5-1.18c.14.58.37,1.07.67,1.49.3.42.7.73,1.2.95s1.11.32,1.85.32c.62,0,1.15-.11,1.58-.34.43-.22.76-.54,1-.94.23-.4.35-.86.35-1.37s-.1-.97-.3-1.32c-.2-.35-.51-.61-.94-.77s-.96-.24-1.62-.24c-.19,0-.39,0-.59.01-.2,0-.41.03-.64.06v-2.16c.14.02.28.03.42.04.14,0,.27.01.4.01,1.04,0,1.78-.21,2.23-.62.45-.42.67-1.06.67-1.94,0-.75-.23-1.33-.68-1.73-.46-.4-1.11-.6-1.96-.6s-1.56.2-2.05.61c-.49.41-.86,1-1.12,1.76l-2.35-.98c.22-.74.6-1.38,1.13-1.92.53-.54,1.18-.96,1.96-1.26.78-.3,1.63-.44,2.55-.44,1.14,0,2.08.18,2.84.55.76.37,1.33.87,1.7,1.51.38.64.56,1.35.56,2.14,0,.61-.09,1.14-.26,1.6-.18.46-.41.85-.71,1.18-.3.33-.62.58-.96.76-.34.18-.69.3-1.04.36v.05c.46.02.89.11,1.28.28.39.17.74.4,1.06.7s.56.65.73,1.07c.18.42.26.87.26,1.37,0,.96-.24,1.8-.72,2.52-.48.72-1.14,1.28-1.98,1.68-.84.4-1.81.6-2.92.6Z"/>
    </g>
    <g>
      <path class="cls-6" d="M1477.2,768.58v-1.87c1.52-1.09,2.79-2.05,3.83-2.88s1.86-1.6,2.48-2.3,1.08-1.37,1.36-2c.28-.63.42-1.28.42-1.93,0-.85-.26-1.54-.79-2.06-.53-.53-1.26-.79-2.21-.79-.99,0-1.78.33-2.37,1s-.92,1.57-1,2.72l-2.23-1.03c.11-1.01.41-1.88.89-2.62.48-.74,1.13-1.3,1.96-1.7.82-.4,1.78-.6,2.87-.6.9,0,1.68.13,2.36.38.68.26,1.25.61,1.72,1.07.46.46.82.99,1.07,1.6s.37,1.26.37,1.94c0,1.01-.25,1.98-.74,2.92-.5.94-1.28,1.89-2.35,2.87-1.07.98-2.48,2.02-4.22,3.14v.05c.19-.03.46-.05.79-.06l1.01-.02c.34,0,.61-.01.82-.01h4.99v2.21h-11.02Z"/>
      <path class="cls-6" d="M1497.79,768.58v-3.96h-7.73v-1.75c.03-.08.08-.18.16-.29.07-.11.16-.24.25-.38l6.6-9.46h3.14v9.89h2.69v1.99h-2.69v3.96h-2.42ZM1492.46,762.63h5.33v-5.59c0-.38.01-.78.04-1.19.02-.41.04-.81.06-1.21h-.05c-.18.38-.4.8-.68,1.26-.28.46-.54.85-.78,1.19l-3.74,5.33s-.06.06-.08.1c-.02.03-.05.07-.08.12Z"/>
    </g>
    <g>
      <path class="cls-6" d="M1509.54,702.39v-1.87c1.52-1.09,2.8-2.05,3.83-2.88,1.03-.83,1.86-1.6,2.48-2.3s1.08-1.37,1.36-2c.28-.63.42-1.28.42-1.93,0-.85-.26-1.54-.79-2.06s-1.26-.79-2.21-.79c-.99,0-1.78.33-2.36,1-.58.66-.92,1.57-1,2.72l-2.23-1.03c.11-1.01.41-1.88.89-2.62.48-.74,1.13-1.3,1.96-1.7.82-.4,1.78-.6,2.87-.6.89,0,1.68.13,2.36.38s1.25.61,1.72,1.07.82.99,1.07,1.6c.25.61.37,1.26.37,1.94,0,1.01-.25,1.98-.74,2.92s-1.28,1.89-2.35,2.87c-1.07.98-2.48,2.02-4.22,3.14v.05c.19-.03.46-.05.79-.06.34,0,.67-.02,1.01-.02.34,0,.61-.01.82-.01h4.99v2.21h-11.02Z"/>
      <path class="cls-6" d="M1528.84,702.63c-1.41,0-2.56-.3-3.47-.91s-1.62-1.49-2.15-2.64l2.4-1.25c.24.77.6,1.4,1.09,1.88.49.49,1.21.73,2.17.73.67,0,1.24-.12,1.72-.37.47-.25.84-.6,1.09-1.06s.38-1,.38-1.64-.12-1.23-.36-1.68c-.24-.45-.58-.79-1.03-1.02-.45-.23-1.01-.35-1.68-.35-.46,0-.9.05-1.3.14-.4.1-.76.24-1.08.44-.32.2-.6.46-.84.78l-2.11-.41.96-8.74h9.22v2.21h-7.18l-.58,4.46-.05.26h.05c.37-.4.84-.71,1.43-.94s1.28-.34,2.08-.34c1.02,0,1.9.21,2.64.64s1.31,1.01,1.73,1.76.62,1.62.62,2.62c0,.86-.14,1.63-.43,2.3s-.7,1.24-1.22,1.71c-.53.46-1.14.81-1.84,1.04-.7.23-1.45.35-2.27.35Z"/>
    </g>
    <g>
      <path class="cls-6" d="M1514.26,784.74v-1.87c1.52-1.09,2.79-2.05,3.83-2.88s1.86-1.6,2.48-2.3,1.08-1.37,1.36-2c.28-.63.42-1.28.42-1.93,0-.85-.26-1.54-.79-2.06-.53-.53-1.26-.79-2.21-.79-.99,0-1.78.33-2.37,1s-.92,1.57-1,2.72l-2.23-1.03c.11-1.01.41-1.88.89-2.62.48-.74,1.13-1.3,1.96-1.7.82-.4,1.78-.6,2.87-.6.9,0,1.68.13,2.36.38.68.26,1.25.61,1.72,1.07.46.46.82.99,1.07,1.6s.37,1.26.37,1.94c0,1.01-.25,1.98-.74,2.92-.5.94-1.28,1.89-2.35,2.87-1.07.98-2.48,2.02-4.22,3.14v.05c.19-.03.46-.05.79-.06l1.01-.02c.34,0,.61-.01.82-.01h4.99v2.21h-11.02Z"/>
      <path class="cls-6" d="M1534.56,768.66c.85,0,1.6.12,2.26.35s1.23.6,1.72,1.09c.49.5.89,1.14,1.21,1.94l-2.26,1.08c-.22-.69-.58-1.23-1.07-1.63-.49-.4-1.16-.6-2.03-.6-.62,0-1.18.15-1.66.46-.48.3-.89.73-1.22,1.28-.34.55-.59,1.2-.77,1.94-.18.74-.26,1.55-.26,2.41v.43l.1.05c.18-.64.49-1.16.95-1.55.46-.39.97-.68,1.55-.88.58-.19,1.14-.29,1.7-.29,1.06,0,1.98.2,2.76.61.78.41,1.4.99,1.84,1.74.44.75.66,1.65.66,2.69s-.23,1.97-.7,2.75-1.11,1.38-1.93,1.8c-.83.42-1.81.64-2.96.64-1.34,0-2.49-.34-3.43-1.01-.95-.67-1.67-1.62-2.16-2.83-.5-1.22-.74-2.64-.74-4.27,0-1.81.28-3.32.85-4.54.57-1.21,1.34-2.13,2.32-2.75.98-.62,2.07-.92,3.29-.92ZM1534.39,776.89c-.61,0-1.14.12-1.61.37-.46.25-.83.59-1.09,1.02-.26.43-.4.94-.4,1.51s.14,1.06.42,1.51c.28.45.65.8,1.12,1.07s.98.4,1.56.4c.98,0,1.74-.26,2.28-.79.54-.53.82-1.26.82-2.18,0-.59-.12-1.11-.36-1.55-.24-.44-.59-.78-1.04-1.01-.46-.23-1.02-.35-1.69-.35Z"/>
    </g>
    <g>
      <path class="cls-6" d="M1336.53,898.57v-1.87c1.52-1.09,2.79-2.05,3.83-2.88s1.86-1.6,2.48-2.3,1.08-1.37,1.36-2c.28-.63.42-1.28.42-1.93,0-.85-.26-1.54-.79-2.06-.53-.53-1.26-.79-2.21-.79-.99,0-1.78.33-2.37,1-.58.66-.92,1.57-1,2.72l-2.23-1.03c.11-1.01.41-1.88.89-2.62.48-.74,1.13-1.3,1.96-1.7.82-.4,1.78-.6,2.87-.6.9,0,1.68.13,2.36.38.68.26,1.25.61,1.72,1.07s.82.99,1.07,1.6c.25.61.37,1.26.37,1.94,0,1.01-.25,1.98-.74,2.92-.5.94-1.28,1.89-2.35,2.87s-2.48,2.02-4.22,3.14v.05c.19-.03.46-.05.79-.06.34,0,.67-.02,1.01-.02s.61-.01.82-.01h4.99v2.21h-11.02Z"/>
      <path class="cls-6" d="M1349.4,882.73h12.07v2.14c-1.33,1.38-2.4,2.79-3.22,4.24-.82,1.45-1.4,2.95-1.76,4.51s-.54,3.21-.54,4.96h-2.59c0-1.76.22-3.48.66-5.15.44-1.67,1.11-3.27,2.02-4.8.9-1.53,2.04-2.96,3.42-4.31l.48.65h-10.54v-2.23Z"/>
    </g>
    <path class="cls-4" d="M1446.37,944.74s0-.03,0-.04c-.03,0-.06,0-.08,0l.08.04Z"/>
    <path class="cls-4" d="M1357.15,948.83h0s.05.05.07.08l-.07-.08Z"/>
    <path class="cls-4" d="M1378.46,958.9l.07.07s0,0,.01-.01c0,0-.09-.05-.09-.06Z"/>
    <path class="cls-4" d="M1385.42,956.95s0,.01,0,.02c0,0,0-.01,0-.02h-.01Z"/>
  </g>
  <path class="cls-4" d="M1446.37,944.74s0-.03,0-.04c-.03,0-.06,0-.08,0l.08.04Z"/>
  <path class="cls-4" d="M1357.15,948.83h0s.05.05.07.08l-.07-.08Z"/>
  <path class="cls-4" d="M1005.94,947.71s0,0,0-.01c-.02-.02-.05-.03-.07-.05l.07.06Z"/>
  <path class="cls-4" d="M1378.46,958.9l.07.07s0,0,.01-.01c0,0-.09-.05-.09-.06Z"/>
  <path class="cls-4" d="M1374.38,955.92s-.04.03-.06.05c0,.01,0,.02,0,.04l.06-.08Z"/>
  <path class="cls-4" d="M1385.42,956.95s0,.01,0,.02c0,0,0-.01,0-.02h-.01Z"/>
  <g>
    <use width="15" height="15" transform="translate(1342.87 857.13) rotate(8.87) scale(1.31)" xlink:href="#Anchor_2"/>
    <use width="15" height="15" transform="translate(1521.59 743.29) rotate(8.87) scale(1.31)" xlink:href="#Anchor_2"/>
    <use width="15" height="15" transform="translate(1516.53 660.94) rotate(8.87) scale(1.31)" xlink:href="#Anchor_2"/>
    <use width="15" height="15" transform="translate(1484.36 727.14) rotate(8.87) scale(1.31)" xlink:href="#Anchor_2"/>
    <use width="15" height="15" transform="translate(1469.67 813.35) rotate(8.87) scale(1.31)" xlink:href="#Anchor_2"/>
    <use width="15" height="15" transform="translate(1401.44 765.65) rotate(8.87) scale(1.31)" xlink:href="#Anchor_2"/>
    <use width="15" height="15" transform="translate(1231.65 769.46) rotate(8.87) scale(1.31)" xlink:href="#Anchor_2"/>
    <use width="15" height="15" transform="translate(1490.78 899.72) rotate(8.87) scale(1.31)" xlink:href="#Anchor_2"/>
    <use width="15" height="15" transform="translate(1623.89 797.15) rotate(8.87) scale(1.31)" xlink:href="#Anchor_2"/>
    <use width="15" height="15" transform="translate(1307.06 899.72) rotate(8.87) scale(1.31)" xlink:href="#Anchor_2"/>
    <use width="15" height="15" transform="translate(1270.95 939.36) rotate(8.87) scale(1.31)" xlink:href="#Anchor_2"/>
    <use width="15" height="15" transform="translate(1214.36 916.84) rotate(8.87) scale(1.31)" xlink:href="#Anchor_2"/>
    <use width="15" height="15" transform="translate(1168.9 865.34) rotate(8.87) scale(1.31)" xlink:href="#Anchor_2"/>
    <use width="15" height="15" transform="translate(1270.95 780.72) rotate(8.87) scale(1.31)" xlink:href="#Anchor_2"/>
    <use width="15" height="15" transform="translate(1254.16 882.67) rotate(8.87) scale(1.31)" xlink:href="#Anchor_2"/>
    <use width="15" height="15" transform="translate(1791.24 962.74) rotate(8.87) scale(1.31)" xlink:href="#Anchor_2"/>
    <use width="15" height="15" transform="translate(1417.22 913.07) rotate(8.87) scale(1.31)" xlink:href="#Anchor_2"/>
    <use width="15" height="15" transform="translate(1401.44 853.47) rotate(8.87) scale(1.31)" xlink:href="#Anchor_2"/>
    <use width="15" height="15" transform="translate(1612.63 989.03) rotate(8.87) scale(1.31)" xlink:href="#Anchor_2"/>
    <use width="15" height="15" transform="translate(1495.62 873.56) rotate(8.87) scale(1.31)" xlink:href="#Anchor_2"/>
    <use width="15" height="15" transform="translate(1700.65 865.34) rotate(8.87) scale(1.31)" xlink:href="#Anchor_2"/>
    <use width="15" height="15" transform="translate(1656.26 843.15) rotate(8.87) scale(1.31)" xlink:href="#Anchor_2"/>
    <use width="15" height="15" transform="translate(1736.46 654.17) rotate(8.87) scale(1.31)" xlink:href="#Anchor_2"/>
    <use width="15" height="15" transform="translate(1533.5 821.57) rotate(8.87) scale(1.31)" xlink:href="#Anchor_2"/>
    <use width="15" height="15" transform="translate(1763.9 757.43) rotate(8.87) scale(1.31)" xlink:href="#Anchor_2"/>
    <use width="15" height="15" transform="translate(1635.15 702.99) rotate(8.87) scale(1.31)" xlink:href="#Anchor_2"/>
    <use width="15" height="15" transform="translate(1580.21 641.35) rotate(8.87) scale(1.31)" xlink:href="#Anchor_2"/>
    <polyline class="cls-3" points="1529.81 754.55 1541.71 832.82 1644.76 714.25 1587.28 652.61 1524.74 672.2 1632.11 808.4 1744.67 665.43 1772.12 768.69 1664.47 854.41 1503.83 884.81 1620.85 1000.29 1708.87 875.01 1799.46 974 1499 910.98 1425.43 924.33 1351.09 868.38 1315.28 910.98 1279.16 950.62 1262.38 893.92 1279.16 791.97 1239.87 780.72 1177.11 876.6 1222.57 928.09 1409.66 776.9 1492.58 738.39 1477.89 821.7 1409.66 864.73"/>
  </g>
  <g class="cls-1">
    <g>
      <g>
        <path class="cls-5" d="M1577.54,999.12c-4.82,0-10.04-.55-14.94-1.7-8.27-1.93-16.48-6.08-24.02-11.01-7.11-4.64-12.37-11.6-17.74-18.18-3.46-4.23-7.24-10.44-8.24-18.35-11.66-5.5-18.8-13.36-22.37-20.85-.45-.95-.16-3.59-.59-4.55-1.57,1.02-1.25,6.31-2.83,7.3-7.62,4.78-15.08,7.68-21.66,10.59-7.88,3.5-15.99,6.7-24,8.31-8.64,1.87-17.53-.25-25.19-.45-9.67-.25-18.85-1.63-26.84-5.14-10.08-4.42-16.57-13.44-22.18-25.63-2.09-4.56-4.15-8.82-5.69-13.2-1.04-2.97-3.31-5.27-4.34-7.74-1.13-2.72-.03-7.55.16-13.31.18-5.69,1.78-9.35,3.06-11.97,3.34-6.8,5.53-22.44,16.91-29.57,2.6-5.96,8.56-11.65,14.74-14.33,3.27-1.42,7.22-.82,9.63-1.36.84-.19.75-1.5,1.28-1.67.59-.45,5.14,2.99,6.01,2.1,3.04-3.12,6.54-6.4,12.89-8.99,4.84-1.97,8.37-3.52,11.67-3.75.65-.05,1.13-2.18,1.77-2.24,1.66-.17,2.75.11,4.83-.75-3.78-6.56-8.06-14.22-8.37-21.91-.12-3,.02-6.02.17-8.43.11-1.66.92-3,.89-4.24-.08-3.1-2.1-6.26-3.1-10.38-.33-1.35,5-4.04,4.69-5.38-1.8-7.9-3.85-16.19-.78-26.07,3.06-9.87,9.35-17.03,19.27-22.33,7.94-4.24,16.43-7.39,25.64-7.05,5.63.21,10.48,4.08,14.09,7.22,10.04-2.84,19.63-.47,28.05,7.39,3.95,3.69,8.01,6.88,10.2,10.84,12.18,5.85,21.57,19.2,21.54,33.04,0,3.34-2.42,6.33-2.59,9.01-.37,5.85-3.25,10.15-2.13,13.62.66,2.05,4.21.02,4.74,1.95,6.14-2.62,12.68-2.61,19.25-4.56,7.24-2.15,15.1-1.75,22.22-2.89,1.09-1.12.91-5.88,2.85-7.12,11.07-7.16,24.45-2.83,29.76-.52.71.31.75.79,1.45,1.06.66-.2,2.02,3.45,2.75,3.19,2.85-1,5.85-3.72,10.17-4.16,12.65-1.27,22.12,6.29,28.2,10.21,3.32,2.14,7.13,5.47,10.75,11.29.76,1.23,2.9,1.6,3.37,2.62,1.03.4,2.66.4,3.93,1.05,14.39,7.35,21.08,20.16,17.66,34.04-2.66,10.78-11.96,17.78-18.32,22.81-7.73,6.11-14.94,14.76-22.47,16.22-8.01,1.55-17.12-2.34-26.85-3.48-8.1-.95-16.79.53-23.27-.92-3.51-.78-2.86-.88-6.46-.81,1.56,1.67,4.57-1.13,5.98.49,5.34,6.11,10.55,11.96,14.42,18.07,4.04,6.38,3.65,15.59,6.39,22.64,3.13,8.04,9.53,14.94,10.35,22.38,1.12,10.09-1.77,20-5,28.13-3.88,9.78-11.48,20.91-16.71,25.46-5.87,5.1-13.4,7.47-26.6,9.63-2.2.36-4.02,2.86-5.17,3.12-4.23.94-8.92,1.21-13.27,1.21ZM1546.17,945.21c.22.33.47.56,1.15,1.39,3.17,3.88,6.39,7.51,10.57,10.24,4.21,2.75,8.07,6.24,12.47,7.27,4.44,1.04,9.12,1.56,13.12.68,2.05-.45,4.16-2.82,7.05-3.29,2.68-.44,8.52.61,11.72-.14,1.86-3.65.45-11.89,1.91-15.59,1.2-3.02,2.32-5.33,1.81-9.95-.5-4.56-2.19-8.75-4.27-14.08-2.49-6.41-2.61-12.66-4.63-15.86-2.94-4.64-6.85-8.86-11.05-13.67-3.63-4.15-6.77-9.63-11.88-14.49-4.79-4.56-10.34-8.81-14.9-12.89-.73-.65-1.17-.75-2.23-1.65-1.16,5.11-5.63,8.47-7.99,12.9-4.35,8.18-10.16,14.69-18.21,19.3-5.2,2.97-7.48,8.74-13.1,9.47,1.85,3.14,3.92,2.46,5.12,5.12.45,1-.5,2.58-.03,3.57,2.23,4.69,2.8,3.4,5.47,4.33.24.08-1.65,5.57-1.4,5.65,2.66.9,6.17,2.16,10.24,6.89,5.45,6.34,6.21,11.68,6.23,15.16,0,.11,2.83-.46,2.83-.35ZM1599.87,961.58s0-.06,0-.06c0,0,0,.06,0,.06ZM1603.97,958.11l-1.55,1.49c0-.75,1.55-1.49,1.55-1.49ZM1390.36,886.71c1.24,3.05,2.35,5.2,3.4,8.18,1.34,3.82,2.05,7.53,3.49,10.67,2.69,5.86,3.66,8.43,5.24,9.13,4,1.76,8.97,3.23,14.29,3.37,5.04.13,10.54-2.45,16.63-3.77.13-.03.57,2.11.71,2.08,5.63-1.13,9.44-7.37,15.09-9.88,5.09-2.26,10.47-4.05,16.72-7.97,4.67-2.93,8.23-5.85,13.16-9.19-1.37-1.28-.29-.79-1.54-2.26-5.32-6.22-9.96-13.79-12.39-22.18-2.44-8.42-1.61-17.74-.53-26.69-1,.58-3.23.75-4.28,1.31-4.98,2.68-12.37,7.67-21.7,8.64-.99.1-2.24-2.89-3.24-2.82-.76.05-2.36.67-2.99.75-.62.53,1.6,5.48.84,6.25-2.65,2.72-7.15,7.14-12.37,9.77-1.23.62-2.25-2.68-3.42-2.26,2.15,4.92,9.97,9.48,5.67,12.71-9.49,7.15-14.14-2.96-25.83-.83-.92.17-1.71,4.55-6.94,15ZM1387.89,886.94s0-.06,0-.06c0,0,0,.06,0,.06ZM1388.02,882.56s0-.06,0-.06c0,0,0,.06,0,.06ZM1512.97,823.27c-1.61,0-2.43.2-3.68.79-3.07,1.44-5.48,2.98-7.55,6.29-2.15,3.45-5.1,7.07-5.67,11.63-.57,4.57-.65,9.6.56,13.78,1.1,3.8,4.67,6.46,6.9,9.06,1.32,1.55,2.51,5.35,5.01,5.85,2.48.5,3.57-5,4.87-5.74,2.61-1.5,4.47-2.01,5.88-4.66,1.65-3.11,1.78-5.92,2.08-10.23.05-.69,3.11-1.18,3.12-1.89-.64,0-1.59,1.39-1.66.75-.73-6.71,1.59-6.87,1.25-13.61-.06-1.22-.42-1.58-1.1-2.6-3.69-5.57-6.53-3.91-9.34-9.96-.7-1.5,2.4,1.91,4.06,1.98-.33-.11-.13-4.06-.46-4.14-1.32-.34-3.06,2.7-4.27,2.7ZM1432.71,846.24l-1.55,1.49c0-.75,1.55-1.49,1.55-1.49ZM1433.54,845.88s-1.55,1.5-1.55,1.49c0-.75,1.55-1.49,1.55-1.49ZM1569.18,820.81c25.98,7.11,26.24,5.79,52.53,11.64,6.04,1.34,12.66,3.39,19.07,4.15,6.26.74,11.55,2.32,16.14,1.43,1.22-.24,5.93-1.68,10.27-5.11,1.32-1.04,1.06-2.28,1.87-3.13-2.79-1.05-5.33-4.34-8.95-8.08-3.25-3.35-8.96-4.67-9.89-6.84-.02-.05,1.64.47,1.62.42-.56-.4-1.51-.32-2.01-.65-1.63-1.05-4.29-6.37-5.97-6.59-.55.11-1.74,1.13-2.76,1.49-3.99,1.4-9.55,1.79-16.33,1.14-4.64-.44-8.59-1.45-11.66-2.76-.43.35-.49,1.9-.98,2.24-4.79,3.29-10.57,1.19-13.51,1.65-.11.02-.05.38-.16.4-5.77.92-10.48,7.25-16.42,9.02-4.2,1.25-8.88-2-12.85-.42ZM1460.76,801.38c4.63,8.75,3.56,9.19,9.22,17.31,1.14-2.57.32-4.68,1.77-7.01,5.43-8.72,14.12-14.4,22.96-18.56,6.86-3.23,15.06-4.25,22.96-3.59-.83-6.02-2.03-12.34-1.72-17.25.15-2.42,2.48-4.64,2.48-6.96,0-1.3-2.13.87-2.47-.05-3.71-.54-5.61.59-8.54-1.75-3.99-3.19-3.38-5.26-5.56-9.88-1.29-2.75-.12-7.38-1.66-9.23-1.66.96-3.71,2.67-6.44,3.5-6.31,1.9-12.96-.42-18.4-3.91-1.86-1.19-3.79-2.21-5.14-3.88-.91.31-1.58,1.89-2.38,2.32-1.24.66-5.89.6-6.49,2.54-.73,2.33.29,7.16,1.14,10.92.27,1.19,5.56,1.2,5.85,2.39,1.31,5.37,2.93,12.16,3.1,18.82.07,2.74-1.6,5.45-1.74,7.67-.11,1.76,1.22,3.16,1.28,4.44.1,2.56-4.34,6.85-3,8.84,1.41,1.61,8.94,1.74,10.18,2.75-2.84-2.33-12.5-3.71-19.42-.05-.66.35,2.02.62,2.02.62Z"/>
        <path class="cls-2" d="M1577.54,999.12c-4.82,0-10.04-.55-14.94-1.7-8.27-1.93-16.48-6.08-24.02-11.01-7.11-4.64-12.37-11.6-17.74-18.18-3.46-4.23-7.24-10.44-8.24-18.35-11.66-5.5-18.8-13.36-22.37-20.85-.45-.95-.16-3.59-.59-4.55-1.57,1.02-1.25,6.31-2.83,7.3-7.62,4.78-15.08,7.68-21.66,10.59-7.88,3.5-15.99,6.7-24,8.31-8.64,1.87-17.53-.25-25.19-.45-9.67-.25-18.85-1.63-26.84-5.14-10.08-4.42-16.57-13.44-22.18-25.63-2.09-4.56-4.15-8.82-5.69-13.2-1.04-2.97-3.31-5.27-4.34-7.74-1.13-2.72-.03-7.55.16-13.31.18-5.69,1.78-9.35,3.06-11.97,3.34-6.8,5.53-22.44,16.91-29.57,2.6-5.96,8.56-11.65,14.74-14.33,3.27-1.42,7.22-.82,9.63-1.36.84-.19.75-1.5,1.28-1.67.59-.45,5.14,2.99,6.01,2.1,3.04-3.12,6.54-6.4,12.89-8.99,4.84-1.97,8.37-3.52,11.67-3.75.65-.05,1.13-2.18,1.77-2.24,1.66-.17,2.75.11,4.83-.75-3.78-6.56-8.06-14.22-8.37-21.91-.12-3,.02-6.02.17-8.43.11-1.66.92-3,.89-4.24-.08-3.1-2.1-6.26-3.1-10.38-.33-1.35,5-4.04,4.69-5.38-1.8-7.9-3.85-16.19-.78-26.07,3.06-9.87,9.35-17.03,19.27-22.33,7.94-4.24,16.43-7.39,25.64-7.05,5.63.21,10.48,4.08,14.09,7.22,10.04-2.84,19.63-.47,28.05,7.39,3.95,3.69,8.01,6.88,10.2,10.84,12.18,5.85,21.57,19.2,21.54,33.04,0,3.34-2.42,6.33-2.59,9.01-.37,5.85-3.25,10.15-2.13,13.62.66,2.05,4.21.02,4.74,1.95,6.14-2.62,12.68-2.61,19.25-4.56,7.24-2.15,15.1-1.75,22.22-2.89,1.09-1.12.91-5.88,2.85-7.12,11.07-7.16,24.45-2.83,29.76-.52.71.31.75.79,1.45,1.06.66-.2,2.02,3.45,2.75,3.19,2.85-1,5.85-3.72,10.17-4.16,12.65-1.27,22.12,6.29,28.2,10.21,3.32,2.14,7.13,5.47,10.75,11.29.76,1.23,2.9,1.6,3.37,2.62,1.03.4,2.66.4,3.93,1.05,14.39,7.35,21.08,20.16,17.66,34.04-2.66,10.78-11.96,17.78-18.32,22.81-7.73,6.11-14.94,14.76-22.47,16.22-8.01,1.55-17.12-2.34-26.85-3.48-8.1-.95-16.79.53-23.27-.92-3.51-.78-2.86-.88-6.46-.81,1.56,1.67,4.57-1.13,5.98.49,5.34,6.11,10.55,11.96,14.42,18.07,4.04,6.38,3.65,15.59,6.39,22.64,3.13,8.04,9.53,14.94,10.35,22.38,1.12,10.09-1.77,20-5,28.13-3.88,9.78-11.48,20.91-16.71,25.46-5.87,5.1-13.4,7.47-26.6,9.63-2.2.36-4.02,2.86-5.17,3.12-4.23.94-8.92,1.21-13.27,1.21ZM1546.17,945.21c.22.33.47.56,1.15,1.39,3.17,3.88,6.39,7.51,10.57,10.24,4.21,2.75,8.07,6.24,12.47,7.27,4.44,1.04,9.12,1.56,13.12.68,2.05-.45,4.16-2.82,7.05-3.29,2.68-.44,8.52.61,11.72-.14,1.86-3.65.45-11.89,1.91-15.59,1.2-3.02,2.32-5.33,1.81-9.95-.5-4.56-2.19-8.75-4.27-14.08-2.49-6.41-2.61-12.66-4.63-15.86-2.94-4.64-6.85-8.86-11.05-13.67-3.63-4.15-6.77-9.63-11.88-14.49-4.79-4.56-10.34-8.81-14.9-12.89-.73-.65-1.17-.75-2.23-1.65-1.16,5.11-5.63,8.47-7.99,12.9-4.35,8.18-10.16,14.69-18.21,19.3-5.2,2.97-7.48,8.74-13.1,9.47,1.85,3.14,3.92,2.46,5.12,5.12.45,1-.5,2.58-.03,3.57,2.23,4.69,2.8,3.4,5.47,4.33.24.08-1.65,5.57-1.4,5.65,2.66.9,6.17,2.16,10.24,6.89,5.45,6.34,6.21,11.68,6.23,15.16,0,.11,2.83-.46,2.83-.35ZM1599.87,961.58s0-.06,0-.06c0,0,0,.06,0,.06ZM1603.97,958.11l-1.55,1.49c0-.75,1.55-1.49,1.55-1.49ZM1390.36,886.71c1.24,3.05,2.35,5.2,3.4,8.18,1.34,3.82,2.05,7.53,3.49,10.67,2.69,5.86,3.66,8.43,5.24,9.13,4,1.76,8.97,3.23,14.29,3.37,5.04.13,10.54-2.45,16.63-3.77.13-.03.57,2.11.71,2.08,5.63-1.13,9.44-7.37,15.09-9.88,5.09-2.26,10.47-4.05,16.72-7.97,4.67-2.93,8.23-5.85,13.16-9.19-1.37-1.28-.29-.79-1.54-2.26-5.32-6.22-9.96-13.79-12.39-22.18-2.44-8.42-1.61-17.74-.53-26.69-1,.58-3.23.75-4.28,1.31-4.98,2.68-12.37,7.67-21.7,8.64-.99.1-2.24-2.89-3.24-2.82-.76.05-2.36.67-2.99.75-.62.53,1.6,5.48.84,6.25-2.65,2.72-7.15,7.14-12.37,9.77-1.23.62-2.25-2.68-3.42-2.26,2.15,4.92,9.97,9.48,5.67,12.71-9.49,7.15-14.14-2.96-25.83-.83-.92.17-1.71,4.55-6.94,15ZM1387.89,886.94s0-.06,0-.06c0,0,0,.06,0,.06ZM1388.02,882.56s0-.06,0-.06c0,0,0,.06,0,.06ZM1512.97,823.27c-1.61,0-2.43.2-3.68.79-3.07,1.44-5.48,2.98-7.55,6.29-2.15,3.45-5.1,7.07-5.67,11.63-.57,4.57-.65,9.6.56,13.78,1.1,3.8,4.67,6.46,6.9,9.06,1.32,1.55,2.51,5.35,5.01,5.85,2.48.5,3.57-5,4.87-5.74,2.61-1.5,4.47-2.01,5.88-4.66,1.65-3.11,1.78-5.92,2.08-10.23.05-.69,3.11-1.18,3.12-1.89-.64,0-1.59,1.39-1.66.75-.73-6.71,1.59-6.87,1.25-13.61-.06-1.22-.42-1.58-1.1-2.6-3.69-5.57-6.53-3.91-9.34-9.96-.7-1.5,2.4,1.91,4.06,1.98-.33-.11-.13-4.06-.46-4.14-1.32-.34-3.06,2.7-4.27,2.7ZM1432.71,846.24l-1.55,1.49c0-.75,1.55-1.49,1.55-1.49ZM1433.54,845.88s-1.55,1.5-1.55,1.49c0-.75,1.55-1.49,1.55-1.49ZM1569.18,820.81c25.98,7.11,26.24,5.79,52.53,11.64,6.04,1.34,12.66,3.39,19.07,4.15,6.26.74,11.55,2.32,16.14,1.43,1.22-.24,5.93-1.68,10.27-5.11,1.32-1.04,1.06-2.28,1.87-3.13-2.79-1.05-5.33-4.34-8.95-8.08-3.25-3.35-8.96-4.67-9.89-6.84-.02-.05,1.64.47,1.62.42-.56-.4-1.51-.32-2.01-.65-1.63-1.05-4.29-6.37-5.97-6.59-.55.11-1.74,1.13-2.76,1.49-3.99,1.4-9.55,1.79-16.33,1.14-4.64-.44-8.59-1.45-11.66-2.76-.43.35-.49,1.9-.98,2.24-4.79,3.29-10.57,1.19-13.51,1.65-.11.02-.05.38-.16.4-5.77.92-10.48,7.25-16.42,9.02-4.2,1.25-8.88-2-12.85-.42ZM1460.76,801.38c4.63,8.75,3.56,9.19,9.22,17.31,1.14-2.57.32-4.68,1.77-7.01,5.43-8.72,14.12-14.4,22.96-18.56,6.86-3.23,15.06-4.25,22.96-3.59-.83-6.02-2.03-12.34-1.72-17.25.15-2.42,2.48-4.64,2.48-6.96,0-1.3-2.13.87-2.47-.05-3.71-.54-5.61.59-8.54-1.75-3.99-3.19-3.38-5.26-5.56-9.88-1.29-2.75-.12-7.38-1.66-9.23-1.66.96-3.71,2.67-6.44,3.5-6.31,1.9-12.96-.42-18.4-3.91-1.86-1.19-3.79-2.21-5.14-3.88-.91.31-1.58,1.89-2.38,2.32-1.24.66-5.89.6-6.49,2.54-.73,2.33.29,7.16,1.14,10.92.27,1.19,5.56,1.2,5.85,2.39,1.31,5.37,2.93,12.16,3.1,18.82.07,2.74-1.6,5.45-1.74,7.67-.11,1.76,1.22,3.16,1.28,4.44.1,2.56-4.34,6.85-3,8.84,1.41,1.61,8.94,1.74,10.18,2.75-2.84-2.33-12.5-3.71-19.42-.05-.66.35,2.02.62,2.02.62Z"/>
      </g>
      <g>
        <path class="cls-5" d="M1309.3,968.84c-12.87,0-23.73-5.89-33.5-15.31-9.56-9.22-17.26-20.38-18.36-33.26,14.97-7.33,16.77-1.59,33.41-.64.41,4.76,3.59,7.17,7.29,10.73,2.08,2.01,5.71,4.29,11.49,4.12.27,0-.8.69-.61.66.33-.59.48-1.07.75-1.62,2.3-4.57,4.98-9.78,4.54-13.45-.19-1.61,2.72-5.07,1.67-7.7-.13-.32-.86-.03-.99-.36-.98-2.45-2.24-4.81-3.25-7.26-1.23-2.98-2.73-5.95-3.95-9.05-1.06-2.69-2.54-3.21-3.38-5.54-3.42,2.54-7.24,2.8-11,4.78-6.96,3.67-13.15,8.75-20.59,10.15-.76,2.01-4.04.86-5.44,2.83-5.86,8.26-13.54,12.11-17.43,13.21-7.49,2.11-15.01,5.69-22.75,6.64-7.74.95-15.87-2.03-23.64-2.28-9.93-.31-18.8-3.59-26.64-7.31-12.62-5.99-22.43-13.83-24.46-25.95-1.65-9.82.09-19.19,2.15-25.49,2.56-7.85,9.12-15.53,14.13-23.76,6.92-11.38,14.33-20.29,25.13-23.73,10.11-3.23,19.72.69,27.51,1.54,1.74.19,4.9.14,5.32-1.56-2.02-6.35-2.53-13.24-2.59-19.78-.1-10.27-1.46-21.44,3.39-30.59,5.16-9.71,15.65-14.54,24.7-19.75,7.36-4.24,13.22-6.53,20.26-5.57,13.03,1.77,19.68,11.51,22.64,15.34,4.4,5.68,9.29,10.96,12.76,17.31,2.77,5.08,5.5,10.2,7.62,15.6.32-.22.32-1.36.63-1.58,7.2-4.91,14.73-9.67,22.35-13.85,7.64-4.19,15.18-5.84,21.84-7.42,10.63-2.52,20.47-2.34,29.03,1.56,8.55,3.9,14.52,11.52,19.59,21.18,6.03,11.48,7.73,25.47,2.31,37.71-3.99,9.02-9.6,17.75-18.38,22.96-2.47,13.36-14.88,23.51-29.04,29.18-8.45,3.38-16.24,5.67-24.04,6.24.73,1.8,1.99,2.58,2.72,4.35,1.05,2.55,1.38,5.4,2.4,7.95.12.31-1.92,1.13-1.8,1.44,1.65,4.11,6.94,8.28,7.64,14.29,1.59,13.59-3.53,26.68-7.48,34.55-1.47,2.92-6.37,5.09-9.96,8.8-5.85,6.04-13.46,8.9-22.82,9.13-.4,0-.77.54-1.17.54ZM1309.96,937.81s-2.22-.85-2.22-.85c0,.42,2.22.85,2.22.85ZM1209.19,850.11c-1.9,0-4.29-1.1-5.68-.66-1.09.35-3.16,3.86-7.12,10.36-3.23,5.32-7.77,11.37-9.74,17.4-.93,2.85.24,7.48.54,9.23.26,1.53,2.98,1.54,3.88,1.97,3.74,1.77,8.21,2.79,13.58,2.96,6.07.19,11.95-.11,18.01-.85,5.99-.73,11.56-2.13,17.35-3.76,0-.19,2.6,1.61,2.6,1.44,0-.23-.78-.23-.78-.46-.01-11.13,1.07-21.36,3.83-30.91.19-.66-.41-2.24-.2-2.89-13.62-1.82-13.94.88-27.6-.61-3.03-.33-5.94-3.22-8.66-3.22ZM1279.41,857.48c-1.06,2.33-3.98,5.06-4.75,7.72-.06.21,1.99.39,1.93.61.47-.23,1.71,1.61,2.18,1.37,3.4-1.79,4.81-5.16,7.76-7.73-1.02-4.11-3.14-2.6-7.12-1.96ZM1337.39,816.4c-1.71,3.51-1.5,4.25-1.54,8.16-.11,9.79.66,19.78-3.3,29.14-.11.25-1.23,1.8-1.34,2.05.82-.06,1.98-2.72,2.77-2.78,1.14-.08,1.09-.87,2.23-.95,5.64-.39,10.53-.68,14.82-2.39,3.96-1.59,5.26-3.16,5.27-4.77,0-.18-.29-.16-.29-.34-.02-2.42,3.64-6.96,7.56-12.41,3.36-4.68,6.7-6.64,8.61-7.45.08-.03-.03-.28.05-.31,3.77-1.62,7.13-5.12,8.59-8.4,1.3-2.93-.83-5.89-2.13-8.36-1.07-2.03-1.13-5.75-3.2-6.69-2.06-.94-4.72,2.15-6.95,2.68-3.67.87-9.36-1.1-14.28,1.59-5.73,3.14-11.38,7.61-16.85,11.24ZM1288.11,845.88c2.38,3.51,2.28,4.21,5.52,6.96.2-.26,2-1.58,2.19-1.85-.24.06,1.08-.45,1.02-.69-1.02-4.31-2.4-3.85-4.16-7.92-1.72,1-3.08,2.21-4.57,3.5ZM1268.5,774.97c-.12.06-1.86-1.1-2-1.02-3.62,2.08-5.01,7.62-7.23,11.79-2.23,4.19-5.62,8.77-5.57,13.43.05,4.83,3.86,9.44,6.18,14.24,1.46,3.03,1.7,4.68,3.91,7.35,6.25-6.02,13.75-10.68,21.88-13.76-.2-.58-1.35,1.05-1.56.47-1.83-5.14-4.23-9.78-6.84-14.57-2.62-4.8-2.24-11.62-5.55-15.91-.93-1.21-2.7-1.49-3.21-2.02Z"/>
        <path class="cls-2" d="M1309.3,968.84c-12.87,0-23.73-5.89-33.5-15.31-9.56-9.22-17.26-20.38-18.36-33.26,14.97-7.33,16.77-1.59,33.41-.64.41,4.76,3.59,7.17,7.29,10.73,2.08,2.01,5.71,4.29,11.49,4.12.27,0-.8.69-.61.66.33-.59.48-1.07.75-1.62,2.3-4.57,4.98-9.78,4.54-13.45-.19-1.61,2.72-5.07,1.67-7.7-.13-.32-.86-.03-.99-.36-.98-2.45-2.24-4.81-3.25-7.26-1.23-2.98-2.73-5.95-3.95-9.05-1.06-2.69-2.54-3.21-3.38-5.54-3.42,2.54-7.24,2.8-11,4.78-6.96,3.67-13.15,8.75-20.59,10.15-.76,2.01-4.04.86-5.44,2.83-5.86,8.26-13.54,12.11-17.43,13.21-7.49,2.11-15.01,5.69-22.75,6.64-7.74.95-15.87-2.03-23.64-2.28-9.93-.31-18.8-3.59-26.64-7.31-12.62-5.99-22.43-13.83-24.46-25.95-1.65-9.82.09-19.19,2.15-25.49,2.56-7.85,9.12-15.53,14.13-23.76,6.92-11.38,14.33-20.29,25.13-23.73,10.11-3.23,19.72.69,27.51,1.54,1.74.19,4.9.14,5.32-1.56-2.02-6.35-2.53-13.24-2.59-19.78-.1-10.27-1.46-21.44,3.39-30.59,5.16-9.71,15.65-14.54,24.7-19.75,7.36-4.24,13.22-6.53,20.26-5.57,13.03,1.77,19.68,11.51,22.64,15.34,4.4,5.68,9.29,10.96,12.76,17.31,2.77,5.08,5.5,10.2,7.62,15.6.32-.22.32-1.36.63-1.58,7.2-4.91,14.73-9.67,22.35-13.85,7.64-4.19,15.18-5.84,21.84-7.42,10.63-2.52,20.47-2.34,29.03,1.56,8.55,3.9,14.52,11.52,19.59,21.18,6.03,11.48,7.73,25.47,2.31,37.71-3.99,9.02-9.6,17.75-18.38,22.96-2.47,13.36-14.88,23.51-29.04,29.18-8.45,3.38-16.24,5.67-24.04,6.24.73,1.8,1.99,2.58,2.72,4.35,1.05,2.55,1.38,5.4,2.4,7.95.12.31-1.92,1.13-1.8,1.44,1.65,4.11,6.94,8.28,7.64,14.29,1.59,13.59-3.53,26.68-7.48,34.55-1.47,2.92-6.37,5.09-9.96,8.8-5.85,6.04-13.46,8.9-22.82,9.13-.4,0-.77.54-1.17.54ZM1309.96,937.81s-2.22-.85-2.22-.85c0,.42,2.22.85,2.22.85ZM1209.19,850.11c-1.9,0-4.29-1.1-5.68-.66-1.09.35-3.16,3.86-7.12,10.36-3.23,5.32-7.77,11.37-9.74,17.4-.93,2.85.24,7.48.54,9.23.26,1.53,2.98,1.54,3.88,1.97,3.74,1.77,8.21,2.79,13.58,2.96,6.07.19,11.95-.11,18.01-.85,5.99-.73,11.56-2.13,17.35-3.76,0-.19,2.6,1.61,2.6,1.44,0-.23-.78-.23-.78-.46-.01-11.13,1.07-21.36,3.83-30.91.19-.66-.41-2.24-.2-2.89-13.62-1.82-13.94.88-27.6-.61-3.03-.33-5.94-3.22-8.66-3.22ZM1279.41,857.48c-1.06,2.33-3.98,5.06-4.75,7.72-.06.21,1.99.39,1.93.61.47-.23,1.71,1.61,2.18,1.37,3.4-1.79,4.81-5.16,7.76-7.73-1.02-4.11-3.14-2.6-7.12-1.96ZM1337.39,816.4c-1.71,3.51-1.5,4.25-1.54,8.16-.11,9.79.66,19.78-3.3,29.14-.11.25-1.23,1.8-1.34,2.05.82-.06,1.98-2.72,2.77-2.78,1.14-.08,1.09-.87,2.23-.95,5.64-.39,10.53-.68,14.82-2.39,3.96-1.59,5.26-3.16,5.27-4.77,0-.18-.29-.16-.29-.34-.02-2.42,3.64-6.96,7.56-12.41,3.36-4.68,6.7-6.64,8.61-7.45.08-.03-.03-.28.05-.31,3.77-1.62,7.13-5.12,8.59-8.4,1.3-2.93-.83-5.89-2.13-8.36-1.07-2.03-1.13-5.75-3.2-6.69-2.06-.94-4.72,2.15-6.95,2.68-3.67.87-9.36-1.1-14.28,1.59-5.73,3.14-11.38,7.61-16.85,11.24ZM1288.11,845.88c2.38,3.51,2.28,4.21,5.52,6.96.2-.26,2-1.58,2.19-1.85-.24.06,1.08-.45,1.02-.69-1.02-4.31-2.4-3.85-4.16-7.92-1.72,1-3.08,2.21-4.57,3.5ZM1268.5,774.97c-.12.06-1.86-1.1-2-1.02-3.62,2.08-5.01,7.62-7.23,11.79-2.23,4.19-5.62,8.77-5.57,13.43.05,4.83,3.86,9.44,6.18,14.24,1.46,3.03,1.7,4.68,3.91,7.35,6.25-6.02,13.75-10.68,21.88-13.76-.2-.58-1.35,1.05-1.56.47-1.83-5.14-4.23-9.78-6.84-14.57-2.62-4.8-2.24-11.62-5.55-15.91-.93-1.21-2.7-1.49-3.21-2.02Z"/>
      </g>
      <g>
        <path class="cls-5" d="M1754.03,1051.77c-2.13,0-4.28-.9-6.45-1.19-9.53-1.27-17.68-7-25.34-13.07-.86-.68-3.8,1.19-4.64.47-1.04-.88-2.72-.97-3.33-1.31-.15-.05,1.08-3.17.92-3.22-1.62-.54-3.91-1.5-6.76-3.46-5.82-3.99-7-9.53-8.41-13.96-.65-.16-3.88,1.65-4.56,1.41-7.46-2.68-9.31-10.65-10.49-12.66-.58-.99-2.45-1.02-2.93-1.99-3.22,2.53-6.76,4.43-9.89,6.56-.35.24-.45.09-.8.33-3.88,2.65-9.09,7.29-10.74,9.88-.07.1-2.19-1.25-2.26-1.15-1.74,2.73-4.54,8.21-12.96,10.22-5.27,1.26-9.15,2.16-11.4,1.51-.62.09-1.31,1.71-2.07,1.86-2.54.5-5.98-.22-9.66-.22-.06,0-.11-2.58-.17-2.58-7.14-.04-13.99,2.24-18.97-.55-3.22.42-6.59-.19-9.79-1.31-9.82-3.45-15.41-17.76-13.56-28,16.54-2.06,16.4,5.64,33.07,5.65,1.06-5.89-2.36-8.44-8.01-10.42-5.65-1.98-11.42-.36-14.27,4.9,4.52-8.34-.2-14.82,9.05-16.93s8.46,4.86,16.15,10.43c1.56,1.13,5.1,4.04,6.66,4.3.54-.03,1.3-1.46,2.27-1.66,2.66-.53,6.57.73,10.74.89,5.13-5.94,12.42-9.38,17.92-13.15.36-.24.03-.72.39-.97,4.88-3.33,10.54-6.42,12.94-9.38.53-.66-1.5-1.89-1.44-2.03-.02-.22-.54.16-.93-.73,0,0,3.97-1.99,3.97-2,0,0-1.3,3.25-1.3,3.25,9.76-4.3,9.26-5.52,18.63-10.61-2.4-.72-4.5-2.57-7.06-3.6-15.39-6.21-25.11-14.66-29.52-26.47-6.07-16.25-1.55-36.69,13.38-48.31,7.46-5.81,17.69-7.85,28.41-9.55,0-.5,1.75-1.51,1.75-2-.04-8.73,1.25-16.77,4.21-25.07,2.92-8.19,6.38-15.68,11.86-22.46,5.59-6.93,10.19-15.32,17.63-19.8,7.89-4.74,17.53-5.84,26.36-7.14,9.04-1.33,17.54,1.31,26.45,3.75,2.09.57,7.09-1.2,10.85,1.75,3.63,2.85,6.47,6.18,7.8,8.78,3.14,6.14,1.95,13.7,2.91,20.54.07.47,3.09.54,3.15,1.02.04.31-.95.79-.9,1.11.4.48,1.88.34,2.36.86,2.39,2.65,6.74,6.32,8.86,11.6,5,12.5.61,29.1-11.64,40.79.52,2.86-.36,5.17-1.14,9.44-2.26,12.46-14.21,17.15-18.69,19.82-3.83,2.28-7.72,5.76-10.52,8.6,2.03,2.69,5.97,5.77,7.78,8.71,4.1,6.62,9.35,13.21,12.9,22.18,2.49,6.28,5.04,12.53,7.35,19.21.46,1.33-2.07,2.2-1.61,3.53,1.53,4.43,4.79,10.37,4.49,17.52-.18,4.3.16,8.53-.59,11.22-2.77,10.04-8.64,27.44-22.75,37.52-7.05,5.03-16.51,7.34-25.66,7.34ZM1715.25,1033.83s-.04.8-.04.8c0-.4.04-.8.04-.8ZM1729.49,1003.69c4.75,2.12,7.72,5.59,10.38,7.83.6.5-.14,2.69.46,3.17,2.97,2.35,8.21,1.12,11.81,1.6,2.18.29,3.76-.36,6.04-1.98,4.14-2.96,8.98-8.7,11.13-16.53.28-1,1.02-2.92,1.06-3.49,0-.92-.03-4.51-.61-6.16-.46-1.34-3.77-.2-4.23-1.54-2.18-6.31-1.7-13.22-3.91-18.79-2.81-7.1-7.16-12.02-10.2-16.93-2.75-4.45-5.64-8.79-9.17-12.49-1.34,2.52-3.36,4.94-5.17,7.23-7.85,9.92-18.75,17-30.62,18.11-1,.09-4.07.06-5.07.09,1.38,2.1,2.71,4.84,3.62,7.79.88,2.85,3.52,4.92,4.08,7.28.51,2.18,2.29,3.45,2.81,5.11.21.04-.94.56-.73.6,12.83,2.81,16.95,13.88,18.31,19.1ZM1666.63,970.27l-.04.8c0-.4.04-.8.04-.8ZM1693.32,906.7c-3.46.79-6.8,1.32-9.46,3.39-3.45,2.69-7.11,7.86-6.29,10.06.95,2.53,7.52,3.63,13.51,6.04,5.32,2.15,8.8,1.9,12,1.59,2.81-.26,6.88.87,9.08-1.91,2.2-2.78,3.75-6.97,3.36-9.77-.39-2.8-2.27-7.47-5.14-9.54-1.87-1.35-5.28.82-7.28.53-3.15.65-6.52.35-9.79-.39ZM1724.75,878.27c1.52.86,2.31,2.13,3.75,3.16,8.61,6.21,13.86,16.89,16.61,26.52,5.31-5.78,11.33-14.65,20.69-20.24.28-.16-1.11,1-.89.86-.73-3.97,1.86-9.61,4.6-15.95,2.24-5.21,5.74-7.83,7.9-9.74.13-.12.83.67.96.56,1.56-1.38.03-4.89.68-5.85-.17-.19,1.86-1.03,1.71-1.2-2.5-2.77-7.27-5.43-9.35-11.04-1.25-3.37-1.22-6.49-1.5-8.71-.04-.33.09-.69.05-1.02-.3-2.1-1.52-3.69-2.27-5.66-3.48-.63-7.05-3.13-10.52-2.61-4.46.66-9.56,2.51-13.66,4.97-4.09,2.46-6.65,7.47-9.78,11.35-3.12,3.86-4.16,8.66-5.83,13.32-1.66,4.65-3.79,8.97-3.77,13.82,0,.66-2.57,1.38-2.55,2.05.04,1.7,3.27,3.27,3.16,5.4ZM1781.42,858.84s0,.76,0,.76c0,0,0-.76,0-.76Z"/>
        <path class="cls-2" d="M1754.03,1051.77c-2.13,0-4.28-.9-6.45-1.19-9.53-1.27-17.68-7-25.34-13.07-.86-.68-3.8,1.19-4.64.47-1.04-.88-2.72-.97-3.33-1.31-.15-.05,1.08-3.17.92-3.22-1.62-.54-3.91-1.5-6.76-3.46-5.82-3.99-7-9.53-8.41-13.96-.65-.16-3.88,1.65-4.56,1.41-7.46-2.68-9.31-10.65-10.49-12.66-.58-.99-2.45-1.02-2.93-1.99-3.22,2.53-6.76,4.43-9.89,6.56-.35.24-.45.09-.8.33-3.88,2.65-9.09,7.29-10.74,9.88-.07.1-2.19-1.25-2.26-1.15-1.74,2.73-4.54,8.21-12.96,10.22-5.27,1.26-9.15,2.16-11.4,1.51-.62.09-1.31,1.71-2.07,1.86-2.54.5-5.98-.22-9.66-.22-.06,0-.11-2.58-.17-2.58-7.14-.04-13.99,2.24-18.97-.55-3.22.42-6.59-.19-9.79-1.31-9.82-3.45-15.41-17.76-13.56-28,16.54-2.06,16.4,5.64,33.07,5.65,1.06-5.89-2.36-8.44-8.01-10.42-5.65-1.98-11.42-.36-14.27,4.9,4.52-8.34-.2-14.82,9.05-16.93s8.46,4.86,16.15,10.43c1.56,1.13,5.1,4.04,6.66,4.3.54-.03,1.3-1.46,2.27-1.66,2.66-.53,6.57.73,10.74.89,5.13-5.94,12.42-9.38,17.92-13.15.36-.24.03-.72.39-.97,4.88-3.33,10.54-6.42,12.94-9.38.53-.66-1.5-1.89-1.44-2.03-.02-.22-.54.16-.93-.73,0,0,3.97-1.99,3.97-2,0,0-1.3,3.25-1.3,3.25,9.76-4.3,9.26-5.52,18.63-10.61-2.4-.72-4.5-2.57-7.06-3.6-15.39-6.21-25.11-14.66-29.52-26.47-6.07-16.25-1.55-36.69,13.38-48.31,7.46-5.81,17.69-7.85,28.41-9.55,0-.5,1.75-1.51,1.75-2-.04-8.73,1.25-16.77,4.21-25.07,2.92-8.19,6.38-15.68,11.86-22.46,5.59-6.93,10.19-15.32,17.63-19.8,7.89-4.74,17.53-5.84,26.36-7.14,9.04-1.33,17.54,1.31,26.45,3.75,2.09.57,7.09-1.2,10.85,1.75,3.63,2.85,6.47,6.18,7.8,8.78,3.14,6.14,1.95,13.7,2.91,20.54.07.47,3.09.54,3.15,1.02.04.31-.95.79-.9,1.11.4.48,1.88.34,2.36.86,2.39,2.65,6.74,6.32,8.86,11.6,5,12.5.61,29.1-11.64,40.79.52,2.86-.36,5.17-1.14,9.44-2.26,12.46-14.21,17.15-18.69,19.82-3.83,2.28-7.72,5.76-10.52,8.6,2.03,2.69,5.97,5.77,7.78,8.71,4.1,6.62,9.35,13.21,12.9,22.18,2.49,6.28,5.04,12.53,7.35,19.21.46,1.33-2.07,2.2-1.61,3.53,1.53,4.43,4.79,10.37,4.49,17.52-.18,4.3.16,8.53-.59,11.22-2.77,10.04-8.64,27.44-22.75,37.52-7.05,5.03-16.51,7.34-25.66,7.34ZM1715.25,1033.83s-.04.8-.04.8c0-.4.04-.8.04-.8ZM1729.49,1003.69c4.75,2.12,7.72,5.59,10.38,7.83.6.5-.14,2.69.46,3.17,2.97,2.35,8.21,1.12,11.81,1.6,2.18.29,3.76-.36,6.04-1.98,4.14-2.96,8.98-8.7,11.13-16.53.28-1,1.02-2.92,1.06-3.49,0-.92-.03-4.51-.61-6.16-.46-1.34-3.77-.2-4.23-1.54-2.18-6.31-1.7-13.22-3.91-18.79-2.81-7.1-7.16-12.02-10.2-16.93-2.75-4.45-5.64-8.79-9.17-12.49-1.34,2.52-3.36,4.94-5.17,7.23-7.85,9.92-18.75,17-30.62,18.11-1,.09-4.07.06-5.07.09,1.38,2.1,2.71,4.84,3.62,7.79.88,2.85,3.52,4.92,4.08,7.28.51,2.18,2.29,3.45,2.81,5.11.21.04-.94.56-.73.6,12.83,2.81,16.95,13.88,18.31,19.1ZM1666.63,970.27l-.04.8c0-.4.04-.8.04-.8ZM1693.32,906.7c-3.46.79-6.8,1.32-9.46,3.39-3.45,2.69-7.11,7.86-6.29,10.06.95,2.53,7.52,3.63,13.51,6.04,5.32,2.15,8.8,1.9,12,1.59,2.81-.26,6.88.87,9.08-1.91,2.2-2.78,3.75-6.97,3.36-9.77-.39-2.8-2.27-7.47-5.14-9.54-1.87-1.35-5.28.82-7.28.53-3.15.65-6.52.35-9.79-.39ZM1724.75,878.27c1.52.86,2.31,2.13,3.75,3.16,8.61,6.21,13.86,16.89,16.61,26.52,5.31-5.78,11.33-14.65,20.69-20.24.28-.16-1.11,1-.89.86-.73-3.97,1.86-9.61,4.6-15.95,2.24-5.21,5.74-7.83,7.9-9.74.13-.12.83.67.96.56,1.56-1.38.03-4.89.68-5.85-.17-.19,1.86-1.03,1.71-1.2-2.5-2.77-7.27-5.43-9.35-11.04-1.25-3.37-1.22-6.49-1.5-8.71-.04-.33.09-.69.05-1.02-.3-2.1-1.52-3.69-2.27-5.66-3.48-.63-7.05-3.13-10.52-2.61-4.46.66-9.56,2.51-13.66,4.97-4.09,2.46-6.65,7.47-9.78,11.35-3.12,3.86-4.16,8.66-5.83,13.32-1.66,4.65-3.79,8.97-3.77,13.82,0,.66-2.57,1.38-2.55,2.05.04,1.7,3.27,3.27,3.16,5.4ZM1781.42,858.84s0,.76,0,.76c0,0,0-.76,0-.76Z"/>
      </g>
      <g>
        <path class="cls-5" d="M1691.77,792.49c-.16,0-.31,2.18-.46,2.18-8.2-.03-16.61-1.72-25.32-3.13-7.92-1.28-16.09-2.87-24.35-5.28-7.64-2.23-16.26-2.81-24.06-5.97-3.35-1.36-2.52-4.71-6.13-4.65-1.43.02,1.01,1.05-.29,1.63-10.61,1.74-25.12,4.48-39.81-2.57-10.19-4.89-17.66-13.51-20.01-24.67-2.02-9.58-2.47-20.31,3.55-27.34.27-.31,2.17.76,2.44.46-12,6.26-10.59,9.42-24.09,10.5-5.43-10.28-8.21-21.04-8.98-27.9-.76-6.81-2.23-20.41.75-31.68.74-2.82,4.94-4.16,5.78-6.29.6-1.53-1.53-4.13-1.39-5,.08-.49,1.14-1.38,1.18-2.32.05-1.09-1.08-2.28-.99-3.36.91-10.89,5.87-23.09,14.04-30.97,8.97-8.66,22.43-14.03,33.99-13.13,15.85,1.23,27.98,13.38,35.87,20.11,4.66,3.97,8.21,9.94,12.71,15.91,4.82,6.39,7.24,13.06,9.06,17.73,2.9,7.44,7.33,14.57,9.46,22.66.34,1.3.69.81,1,2.12,1.57-1.3,1.75-2.56,3.42-4.03,2.62-2.31,7.05-2.68,9.95-4.94,10.25-7.99,21.12-13.96,31.03-17.96,6.49-2.63,16.27-7.73,26.53-9.18,12.64-1.79,24.87.88,34.44,6.23,7.19,4.02,13.42,10.97,17.94,18.61,3.77,6.37,3.85,14.56,5.1,22.29,1.01,6.25.84,12.51.33,20.08-.41,6.01,2.2,12.02,1.27,18.31-.88,6.01-1.92,14.81-6.26,22.5-4.95,8.78-14.51,14.92-26.48,20.46-8.01,3.71-16.23,8.31-25.19,10.09-8.17,1.62-17.15-1.49-26.03-1.49ZM1649.33,756.03c6.74,1.94,15.42,2.59,21.8,3.63,7,1.13,13.82,2.69,20.28,2.71,6.82.02,13.55-.87,19.7-2.09,6.37-1.26,11.66-5.35,17.28-7.95,5.33-2.46,9.81-3.29,11.18-5.73,1.3-2.3,3.33-6.6,3.89-10.4.82-5.57,1.44-10.73,1.77-15.53.34-5.01-.45-9.54-1.05-13.26-.59-3.66-4.77-5.79-6.44-8.61-1.55-2.62-1.47-5.73-3.56-6.89-3.1-1.73-7.54-4.33-12.87-3.57-6.64.94-13.24,6.65-18.11,8.62-7.82,3.16-16.1,7.4-22.97,12.75-2.1,1.64-6.51.96-8.86,3.02-3.12,2.75-4.45,7.86-8.01,10.52-2.17,1.62-7.41,4.24-13.82,6.69,3.49,7.73,2.05,17.68-.19,26.1ZM1605.64,748.12c2.59,1.07-1.02,3.13,1.75,3.51,5.88.82,6.08-.77,11.61-2.93.59-.78,1.31-4.18.74-5.39-1.56-3.26-7.44-3.97-12.74-4.12-6.19-.16-13.57,0-22.86,4.82-.29.15-2.14,1.15-2.39,1.28.41.58,1.99,2.3,2.48,2.53,4.83,2.32,12.5,1.76,21.41.3ZM1574.42,646.48c-1.97,0-4.22,3.26-6.2,5.17-2.39,2.31-4.95,5.36-5.19,8.27-.05.65.19,1.34.16,1.99-.08,1.78,2.09,4.28,1.68,6.75-.71,4.32-4.13,7.51-5.27,10.42-.56,1.42-2.4,2.47-2.65,3.43-.88,3.36-1.43,10.77-.44,19.66.86,7.74,3.79,14.38,5.25,17.75,2.23-1.61,4-5.85,6.25-7.02,9.14-4.75,24.12-8.98,40-8.53,2.08.06,5.91,1.48,7.93,1.78-.52-2.33-3.7-5.74-4.31-8.05-1.8-6.86-4.56-13.16-7-19.41-1.75-4.49-.46-9.38-2.24-11.74-2.29-3.03-7.96-4.04-11.64-7.17-4.88-4.16-10.87-10.62-15.92-11.01-.13-.01-.27-2.29-.4-2.29Z"/>
        <path class="cls-2" d="M1691.77,792.49c-.16,0-.31,2.18-.46,2.18-8.2-.03-16.61-1.72-25.32-3.13-7.92-1.28-16.09-2.87-24.35-5.28-7.64-2.23-16.26-2.81-24.06-5.97-3.35-1.36-2.52-4.71-6.13-4.65-1.43.02,1.01,1.05-.29,1.63-10.61,1.74-25.12,4.48-39.81-2.57-10.19-4.89-17.66-13.51-20.01-24.67-2.02-9.58-2.47-20.31,3.55-27.34.27-.31,2.17.76,2.44.46-12,6.26-10.59,9.42-24.09,10.5-5.43-10.28-8.21-21.04-8.98-27.9-.76-6.81-2.23-20.41.75-31.68.74-2.82,4.94-4.16,5.78-6.29.6-1.53-1.53-4.13-1.39-5,.08-.49,1.14-1.38,1.18-2.32.05-1.09-1.08-2.28-.99-3.36.91-10.89,5.87-23.09,14.04-30.97,8.97-8.66,22.43-14.03,33.99-13.13,15.85,1.23,27.98,13.38,35.87,20.11,4.66,3.97,8.21,9.94,12.71,15.91,4.82,6.39,7.24,13.06,9.06,17.73,2.9,7.44,7.33,14.57,9.46,22.66.34,1.3.69.81,1,2.12,1.57-1.3,1.75-2.56,3.42-4.03,2.62-2.31,7.05-2.68,9.95-4.94,10.25-7.99,21.12-13.96,31.03-17.96,6.49-2.63,16.27-7.73,26.53-9.18,12.64-1.79,24.87.88,34.44,6.23,7.19,4.02,13.42,10.97,17.94,18.61,3.77,6.37,3.85,14.56,5.1,22.29,1.01,6.25.84,12.51.33,20.08-.41,6.01,2.2,12.02,1.27,18.31-.88,6.01-1.92,14.81-6.26,22.5-4.95,8.78-14.51,14.92-26.48,20.46-8.01,3.71-16.23,8.31-25.19,10.09-8.17,1.62-17.15-1.49-26.03-1.49ZM1649.33,756.03c6.74,1.94,15.42,2.59,21.8,3.63,7,1.13,13.82,2.69,20.28,2.71,6.82.02,13.55-.87,19.7-2.09,6.37-1.26,11.66-5.35,17.28-7.95,5.33-2.46,9.81-3.29,11.18-5.73,1.3-2.3,3.33-6.6,3.89-10.4.82-5.57,1.44-10.73,1.77-15.53.34-5.01-.45-9.54-1.05-13.26-.59-3.66-4.77-5.79-6.44-8.61-1.55-2.62-1.47-5.73-3.56-6.89-3.1-1.73-7.54-4.33-12.87-3.57-6.64.94-13.24,6.65-18.11,8.62-7.82,3.16-16.1,7.4-22.97,12.75-2.1,1.64-6.51.96-8.86,3.02-3.12,2.75-4.45,7.86-8.01,10.52-2.17,1.62-7.41,4.24-13.82,6.69,3.49,7.73,2.05,17.68-.19,26.1ZM1605.64,748.12c2.59,1.07-1.02,3.13,1.75,3.51,5.88.82,6.08-.77,11.61-2.93.59-.78,1.31-4.18.74-5.39-1.56-3.26-7.44-3.97-12.74-4.12-6.19-.16-13.57,0-22.86,4.82-.29.15-2.14,1.15-2.39,1.28.41.58,1.99,2.3,2.48,2.53,4.83,2.32,12.5,1.76,21.41.3ZM1574.42,646.48c-1.97,0-4.22,3.26-6.2,5.17-2.39,2.31-4.95,5.36-5.19,8.27-.05.65.19,1.34.16,1.99-.08,1.78,2.09,4.28,1.68,6.75-.71,4.32-4.13,7.51-5.27,10.42-.56,1.42-2.4,2.47-2.65,3.43-.88,3.36-1.43,10.77-.44,19.66.86,7.74,3.79,14.38,5.25,17.75,2.23-1.61,4-5.85,6.25-7.02,9.14-4.75,24.12-8.98,40-8.53,2.08.06,5.91,1.48,7.93,1.78-.52-2.33-3.7-5.74-4.31-8.05-1.8-6.86-4.56-13.16-7-19.41-1.75-4.49-.46-9.38-2.24-11.74-2.29-3.03-7.96-4.04-11.64-7.17-4.88-4.16-10.87-10.62-15.92-11.01-.13-.01-.27-2.29-.4-2.29Z"/>
      </g>
    </g>
  </g>
</svg>