<?xml version="1.0" encoding="UTF-8"?>
<svg id="Layer_1" data-name="Layer 1" xmlns="http://www.w3.org/2000/svg" xmlns:xlink="http://www.w3.org/1999/xlink" viewBox="0 0 1920 1080">
  <defs>
    <style>
      .cls-1 {
        opacity: .9;
      }

      .cls-2 {
        stroke-width: 4.45px;
      }

      .cls-2, .cls-3 {
        fill: none;
        stroke: #8b8332;
        stroke-miterlimit: 10;
      }

      .cls-4, .cls-5, .cls-6 {
        stroke-width: 0px;
      }

      .cls-5 {
        fill: #d0dbdc;
      }

      .cls-6 {
        fill: #8b8332;
      }

      .cls-3 {
        stroke-width: 4.93px;
      }
    </style>
    <symbol id="Anchor_2" data-name="Anchor 2" viewBox="0 0 15 15">
      <g>
        <path class="cls-6" d="M7.5,13c-1.47,0-2.85-.57-3.89-1.61-1.04-1.04-1.61-2.42-1.61-3.89s.57-2.85,1.61-3.89c1.04-1.04,2.42-1.61,3.89-1.61s2.85.57,3.89,1.61c1.04,1.04,1.61,2.42,1.61,3.89s-.57,2.85-1.61,3.89c-1.04,1.04-2.42,1.61-3.89,1.61Z"/>
        <path class="cls-6" d="M7.5,4c.93,0,1.81.36,2.48,1.03s1.02,1.54,1.02,2.47-.36,1.81-1.03,2.47c-.66.66-1.54,1.02-2.47,1.02s-1.81-.36-2.47-1.02c-.66-.66-1.03-1.54-1.03-2.47s.36-1.81,1.03-2.48,1.54-1.02,2.47-1.02M7.5,0c-1.92,0-3.84.73-5.3,2.2-2.93,2.93-2.93,7.68,0,10.61,1.46,1.46,3.38,2.2,5.3,2.2s3.84-.73,5.3-2.2c2.93-2.93,2.93-7.68,0-10.61-1.46-1.46-3.38-2.2-5.3-2.2h0Z"/>
      </g>
    </symbol>
  </defs>
  <path class="cls-4" d="M1005.94,947.71s0,0,0-.01c-.02-.02-.05-.03-.07-.05l.07.06Z"/>
  <g>
    <path class="cls-6" d="M1585.62,682.8v-10.87c0-.32,0-.65.01-1,0-.34.02-.71.04-1.09-.54.53-1.16.98-1.86,1.36-.7.38-1.41.64-2.15.8l-.48-2.23c.34-.05.73-.16,1.18-.34.45-.18.91-.4,1.39-.67s.92-.56,1.32-.88.71-.62.94-.92h2.16v15.84h-2.54Z"/>
    <path class="cls-6" d="M1635.14,744.44v-1.87c1.52-1.09,2.8-2.05,3.83-2.88,1.03-.83,1.86-1.6,2.48-2.3.62-.7,1.08-1.37,1.36-2,.28-.63.42-1.28.42-1.93,0-.85-.26-1.54-.79-2.06-.53-.53-1.26-.79-2.21-.79-.99,0-1.78.33-2.36,1-.58.66-.92,1.57-1,2.72l-2.23-1.03c.11-1.01.41-1.88.89-2.62s1.13-1.3,1.96-1.7c.82-.4,1.78-.6,2.87-.6.9,0,1.68.13,2.36.38.68.26,1.25.61,1.72,1.07.46.46.82.99,1.07,1.6.25.61.37,1.26.37,1.95,0,1.01-.25,1.98-.74,2.92-.5.94-1.28,1.89-2.35,2.87-1.07.98-2.48,2.02-4.22,3.14v.05c.19-.03.46-.05.79-.06s.67-.02,1.01-.02c.34,0,.61-.01.82-.01h4.99v2.21h-11.02Z"/>
    <path class="cls-6" d="M1769.26,799.12c-1.49,0-2.78-.33-3.88-1-1.1-.66-1.84-1.6-2.24-2.8l2.5-1.18c.14.58.37,1.07.67,1.49.3.42.7.73,1.2.95s1.11.32,1.85.32c.62,0,1.15-.11,1.58-.34.43-.22.76-.54,1-.94.23-.4.35-.86.35-1.37s-.1-.97-.3-1.32-.51-.61-.94-.77-.96-.24-1.62-.24c-.19,0-.39,0-.59.01s-.41.03-.64.06v-2.16c.14.02.28.03.42.04.14,0,.27.01.4.01,1.04,0,1.78-.21,2.23-.62.45-.42.67-1.06.67-1.94,0-.75-.23-1.33-.68-1.73-.46-.4-1.11-.6-1.96-.6s-1.56.2-2.05.61c-.49.41-.86,1-1.12,1.76l-2.35-.98c.22-.74.6-1.38,1.13-1.92.53-.54,1.18-.96,1.96-1.26.78-.3,1.63-.44,2.56-.44,1.14,0,2.08.18,2.84.55.76.37,1.33.87,1.7,1.51.38.64.56,1.35.56,2.14,0,.61-.09,1.14-.26,1.6-.18.46-.41.85-.71,1.18-.3.33-.62.58-.96.76-.34.18-.69.3-1.04.36v.05c.46.02.89.11,1.28.28.39.17.74.4,1.06.7.31.3.56.65.73,1.07s.26.87.26,1.37c0,.96-.24,1.8-.72,2.52s-1.14,1.28-1.98,1.68c-.84.4-1.81.6-2.92.6Z"/>
    <path class="cls-6" d="M1540.18,863.01v-3.96h-7.73v-1.75c.03-.08.08-.18.16-.29.07-.11.16-.24.25-.38l6.6-9.46h3.14v9.89h2.69v1.99h-2.69v3.96h-2.42ZM1534.85,857.06h5.33v-5.59c0-.38.01-.78.04-1.19.02-.41.04-.81.06-1.21h-.05c-.18.38-.4.8-.68,1.26-.28.46-.54.85-.78,1.19l-3.74,5.33s-.06.06-.08.1-.05.07-.08.12Z"/>
    <path class="cls-6" d="M1741.72,695.86c-1.41,0-2.56-.3-3.47-.91-.9-.61-1.62-1.49-2.15-2.64l2.4-1.25c.24.77.6,1.4,1.09,1.88.49.49,1.21.73,2.17.73.67,0,1.24-.12,1.72-.37.47-.25.84-.6,1.09-1.06.26-.46.38-1,.38-1.64,0-.67-.12-1.23-.36-1.68-.24-.45-.58-.79-1.03-1.02-.45-.23-1.01-.35-1.68-.35-.46,0-.9.05-1.3.14-.4.1-.76.24-1.08.44-.32.2-.6.46-.84.78l-2.11-.41.96-8.74h9.22v2.21h-7.18l-.58,4.46-.05.26h.05c.37-.4.84-.71,1.43-.94.58-.22,1.28-.34,2.08-.34,1.02,0,1.9.21,2.64.63.74.42,1.31,1.01,1.73,1.76s.62,1.62.62,2.62c0,.86-.14,1.63-.43,2.3-.29.67-.7,1.24-1.22,1.7-.53.46-1.14.81-1.84,1.04-.7.23-1.45.35-2.27.35Z"/>
    <path class="cls-6" d="M1662.18,868.52c.85,0,1.6.12,2.26.35s1.23.6,1.72,1.09c.49.5.89,1.14,1.21,1.94l-2.26,1.08c-.22-.69-.58-1.23-1.07-1.63-.49-.4-1.16-.6-2.03-.6-.62,0-1.18.15-1.66.46s-.89.73-1.22,1.28c-.34.55-.59,1.2-.77,1.94-.18.74-.26,1.55-.26,2.41v.43l.1.05c.18-.64.49-1.16.95-1.55s.97-.68,1.55-.88c.58-.19,1.14-.29,1.7-.29,1.06,0,1.98.2,2.76.61.78.41,1.4.99,1.84,1.74.44.75.66,1.65.66,2.69s-.23,1.97-.7,2.75c-.46.78-1.11,1.38-1.93,1.8-.82.42-1.81.64-2.96.64-1.34,0-2.49-.34-3.43-1.01-.94-.67-1.66-1.62-2.16-2.83-.5-1.22-.74-2.64-.74-4.27,0-1.81.28-3.32.85-4.54.57-1.21,1.34-2.13,2.32-2.75s2.07-.92,3.29-.92ZM1662.01,876.75c-.61,0-1.14.12-1.61.37-.46.25-.83.59-1.09,1.02-.26.43-.4.94-.4,1.51s.14,1.06.42,1.51c.28.45.65.8,1.12,1.07.46.26.98.4,1.56.4.98,0,1.74-.26,2.28-.79.54-.53.82-1.26.82-2.18,0-.59-.12-1.11-.36-1.55-.24-.44-.59-.78-1.04-1.01-.46-.23-1.02-.35-1.69-.35Z"/>
    <path class="cls-6" d="M1700.36,890.95h12.07v2.14c-1.33,1.38-2.4,2.79-3.22,4.24s-1.4,2.95-1.76,4.51-.54,3.21-.54,4.96h-2.59c0-1.76.22-3.48.66-5.15.44-1.67,1.11-3.27,2.02-4.8.9-1.53,2.04-2.96,3.42-4.31l.48.65h-10.54v-2.23Z"/>
    <path class="cls-6" d="M1500.99,898.95c1.07,0,2,.17,2.8.52s1.4.83,1.84,1.45c.43.62.65,1.38.65,2.26,0,.82-.2,1.53-.59,2.15-.39.62-.96,1.08-1.72,1.4v.02c.91.34,1.64.84,2.17,1.5s.8,1.48.8,2.46-.24,1.75-.73,2.42c-.49.67-1.18,1.19-2.06,1.56-.89.37-1.94.55-3.16.55s-2.27-.18-3.16-.55c-.89-.37-1.58-.89-2.08-1.56-.5-.67-.74-1.48-.74-2.42s.26-1.78.79-2.45c.53-.67,1.26-1.18,2.21-1.51v-.02c-.72-.3-1.29-.76-1.7-1.38-.42-.62-.62-1.34-.62-2.17,0-.88.22-1.63.65-2.26.43-.62,1.05-1.11,1.85-1.45.8-.34,1.74-.52,2.81-.52ZM1500.99,913.08c.7,0,1.3-.1,1.8-.31.5-.21.88-.51,1.15-.91.27-.4.41-.86.41-1.39,0-.56-.14-1.04-.42-1.43-.28-.39-.67-.69-1.16-.9s-1.09-.31-1.78-.31-1.26.1-1.78.31c-.51.21-.91.51-1.19.9-.28.39-.42.87-.42,1.43,0,.53.14.99.41,1.39.27.4.66.7,1.18.91.51.21,1.11.31,1.8.31ZM1500.99,901.11c-.85,0-1.52.21-2.03.62s-.76.98-.76,1.7.26,1.28.77,1.69,1.18.61,2.02.61,1.5-.2,2-.61c.5-.41.76-.97.76-1.69s-.25-1.29-.74-1.7c-.5-.42-1.17-.62-2.02-.62Z"/>
    <path class="cls-6" d="M1617.7,1014.39c1.36,0,2.51.34,3.44,1.01.94.67,1.64,1.62,2.11,2.83.47,1.22.71,2.65.71,4.3,0,1.82-.25,3.34-.74,4.55-.5,1.21-1.21,2.12-2.14,2.72-.93.61-2.05.91-3.36.91s-2.5-.29-3.46-.89c-.96-.59-1.68-1.48-2.16-2.66l2.42-1.13c.22.75.6,1.35,1.12,1.8s1.23.67,2.12.67c.74,0,1.35-.14,1.85-.43.5-.29.89-.7,1.19-1.25.3-.54.51-1.2.64-1.97.13-.77.19-1.63.19-2.59v-.26h-.1c-.18.64-.49,1.16-.95,1.56-.46.4-.97.69-1.55.88-.58.18-1.15.28-1.73.28-1.02,0-1.93-.2-2.72-.61s-1.41-.98-1.86-1.72c-.45-.74-.67-1.61-.67-2.62,0-1.1.23-2.06.68-2.86s1.1-1.42,1.94-1.86c.84-.44,1.84-.66,3.01-.66ZM1617.72,1016.65c-1.01,0-1.78.27-2.32.82-.54.54-.8,1.3-.8,2.28,0,.86.28,1.54.85,2.03s1.32.73,2.27.73c.61,0,1.14-.12,1.61-.37s.83-.59,1.09-1.02c.26-.43.4-.94.4-1.51,0-.61-.13-1.13-.4-1.57-.26-.44-.63-.78-1.09-1.02-.46-.24-1-.36-1.61-.36Z"/>
    <g>
      <path class="cls-6" d="M1399.32,894.92v-10.87c0-.32,0-.65.01-1,0-.34.02-.71.04-1.09-.54.53-1.16.98-1.86,1.36-.7.38-1.41.64-2.15.8l-.48-2.23c.34-.05.73-.16,1.18-.34.45-.18.91-.4,1.39-.67.48-.27.92-.56,1.32-.88.4-.31.71-.62.94-.92h2.16v15.84h-2.54Z"/>
      <path class="cls-6" d="M1411.63,895.16c-1.9,0-3.4-.69-4.48-2.08-1.08-1.38-1.62-3.41-1.62-6.08s.54-4.7,1.62-6.08c1.08-1.38,2.57-2.08,4.48-2.08s3.42.69,4.5,2.08c1.08,1.38,1.62,3.41,1.62,6.08s-.54,4.7-1.62,6.08c-1.08,1.38-2.58,2.08-4.5,2.08ZM1411.63,892.97c.77,0,1.41-.22,1.93-.66.52-.44.91-1.1,1.18-1.99.26-.89.4-2,.4-3.32s-.13-2.44-.4-3.32c-.26-.89-.66-1.55-1.18-1.99s-1.16-.66-1.93-.66-1.41.22-1.93.66c-.52.44-.91,1.1-1.16,1.99-.26.89-.38,2-.38,3.32s.13,2.44.38,3.32c.26.89.64,1.55,1.16,1.99.52.44,1.16.66,1.93.66Z"/>
    </g>
    <g>
      <path class="cls-6" d="M1417.8,954.52v-10.87c0-.32,0-.65.01-1,0-.34.02-.71.04-1.09-.54.53-1.16.98-1.86,1.36-.7.38-1.41.64-2.15.8l-.48-2.23c.34-.05.73-.16,1.18-.34.45-.18.91-.4,1.39-.67.48-.27.92-.56,1.32-.88s.71-.62.94-.92h2.16v15.84h-2.54Z"/>
      <path class="cls-6" d="M1427.45,954.52v-10.87c0-.32,0-.65.01-1,0-.34.02-.71.04-1.09-.54.53-1.16.98-1.86,1.36-.7.38-1.41.64-2.15.8l-.48-2.23c.34-.05.73-.16,1.18-.34.45-.18.91-.4,1.39-.67.48-.27.92-.56,1.32-.88s.71-.62.94-.92h2.16v15.84h-2.54Z"/>
    </g>
    <g>
      <path class="cls-6" d="M1789.61,1004.19v-10.87c0-.32,0-.65.01-1,0-.34.02-.71.04-1.09-.54.53-1.16.98-1.86,1.36-.7.38-1.41.64-2.15.8l-.48-2.23c.34-.05.73-.16,1.18-.34.45-.18.91-.4,1.39-.67.48-.27.92-.56,1.32-.88.4-.31.71-.62.94-.92h2.16v15.84h-2.54Z"/>
      <path class="cls-6" d="M1796.07,1004.19v-1.87c1.52-1.09,2.8-2.05,3.83-2.88,1.03-.83,1.86-1.6,2.48-2.3s1.08-1.37,1.36-2c.28-.63.42-1.28.42-1.93,0-.85-.26-1.54-.79-2.06s-1.26-.79-2.21-.79c-.99,0-1.78.33-2.36,1s-.92,1.57-1,2.72l-2.23-1.03c.11-1.01.41-1.88.89-2.62s1.13-1.3,1.96-1.7c.82-.4,1.78-.6,2.87-.6.9,0,1.68.13,2.36.38.68.26,1.25.61,1.72,1.07.46.46.82.99,1.07,1.6.25.61.37,1.26.37,1.94,0,1.01-.25,1.98-.74,2.92-.5.94-1.28,1.89-2.35,2.87-1.07.98-2.48,2.02-4.22,3.14v.05c.19-.03.46-.05.79-.06.34,0,.67-.02,1.01-.02.34,0,.61-.01.82-.01h4.99v2.21h-11.02Z"/>
    </g>
    <g>
      <path class="cls-6" d="M1252.54,924.11v-10.87c0-.32,0-.65.01-1,0-.34.02-.71.04-1.09-.54.53-1.16.98-1.86,1.36-.7.38-1.41.64-2.15.8l-.48-2.23c.34-.05.73-.16,1.18-.34.45-.18.91-.4,1.39-.67.48-.27.92-.56,1.32-.88.4-.31.71-.62.94-.92h2.16v15.84h-2.54Z"/>
      <path class="cls-6" d="M1264.35,924.35c-1.49,0-2.78-.33-3.88-1-1.1-.66-1.84-1.6-2.24-2.8l2.5-1.18c.14.58.37,1.07.67,1.49.3.42.7.73,1.2.95.5.22,1.11.32,1.85.32.62,0,1.15-.11,1.58-.34.43-.22.76-.54,1-.94s.35-.86.35-1.37-.1-.97-.3-1.32c-.2-.35-.51-.61-.94-.77s-.96-.24-1.62-.24c-.19,0-.39,0-.59.01s-.41.03-.64.06v-2.16c.14.02.28.03.42.04.14,0,.27.01.4.01,1.04,0,1.78-.21,2.23-.62.45-.42.67-1.06.67-1.94,0-.75-.23-1.33-.68-1.73-.46-.4-1.11-.6-1.96-.6s-1.56.21-2.05.61c-.49.41-.86,1-1.12,1.76l-2.35-.98c.22-.74.6-1.38,1.13-1.92s1.18-.96,1.96-1.26c.78-.3,1.63-.44,2.56-.44,1.14,0,2.08.18,2.84.55.76.37,1.33.87,1.7,1.51.38.64.56,1.35.56,2.14,0,.61-.09,1.14-.26,1.6-.18.46-.41.85-.71,1.18-.3.33-.62.58-.96.76-.34.18-.69.3-1.04.36v.05c.46.02.89.11,1.28.28.39.17.74.4,1.06.7.31.3.56.65.73,1.07.18.42.26.87.26,1.37,0,.96-.24,1.8-.72,2.52-.48.72-1.14,1.28-1.98,1.68-.84.4-1.81.6-2.92.6Z"/>
    </g>
    <g>
      <path class="cls-6" d="M1268.89,822.16v-10.87c0-.32,0-.65.01-1,0-.34.02-.71.04-1.09-.54.53-1.16.98-1.86,1.36-.7.38-1.41.64-2.15.8l-.48-2.23c.34-.05.73-.16,1.18-.34.45-.18.91-.4,1.39-.67.48-.27.92-.56,1.32-.88.4-.31.71-.62.94-.92h2.16v15.84h-2.54Z"/>
      <path class="cls-6" d="M1282.45,822.16v-3.96h-7.73v-1.75c.03-.08.08-.18.16-.29.07-.11.16-.24.25-.38l6.6-9.46h3.14v9.89h2.69v1.99h-2.69v3.96h-2.42ZM1277.12,816.21h5.33v-5.59c0-.38.01-.78.04-1.19.02-.41.04-.81.06-1.21h-.05c-.18.38-.4.8-.68,1.26-.28.46-.54.85-.78,1.19l-3.74,5.33s-.06.06-.08.1-.05.07-.08.12Z"/>
    </g>
    <g>
      <path class="cls-6" d="M1167.32,906.79v-10.87c0-.32,0-.65.01-1,0-.34.02-.71.04-1.09-.54.53-1.16.98-1.86,1.36-.7.38-1.41.64-2.15.8l-.48-2.23c.34-.05.73-.16,1.18-.34.45-.18.91-.4,1.39-.67s.92-.56,1.32-.88.71-.62.94-.92h2.16v15.84h-2.54Z"/>
      <path class="cls-6" d="M1178.99,907.03c-1.41,0-2.56-.3-3.47-.91s-1.62-1.49-2.15-2.64l2.4-1.25c.24.77.6,1.4,1.09,1.88.49.49,1.21.73,2.17.73.67,0,1.24-.12,1.72-.37.47-.25.84-.6,1.09-1.06.26-.46.38-1,.38-1.64,0-.67-.12-1.23-.36-1.68-.24-.45-.58-.79-1.03-1.02s-1.01-.35-1.68-.35c-.46,0-.9.05-1.3.14s-.76.24-1.08.44c-.32.2-.6.46-.84.78l-2.11-.41.96-8.74h9.22v2.21h-7.18l-.58,4.46-.05.26h.05c.37-.4.84-.71,1.43-.94.58-.22,1.28-.34,2.08-.34,1.02,0,1.9.21,2.64.64.74.42,1.31,1.01,1.73,1.76s.62,1.62.62,2.62c0,.86-.14,1.63-.43,2.3-.29.67-.7,1.24-1.22,1.7-.53.46-1.14.81-1.84,1.04-.7.23-1.45.35-2.27.35Z"/>
    </g>
    <g>
      <path class="cls-6" d="M1212.44,958.28v-10.87c0-.32,0-.65.01-1,0-.34.02-.71.04-1.09-.54.53-1.16.98-1.86,1.36-.7.38-1.41.64-2.15.8l-.48-2.23c.34-.05.73-.16,1.18-.34.45-.18.91-.4,1.39-.67.48-.27.92-.56,1.32-.88.4-.31.71-.62.94-.92h2.16v15.84h-2.54Z"/>
      <path class="cls-6" d="M1225.11,942.2c.85,0,1.6.12,2.26.35s1.23.6,1.72,1.09c.49.5.89,1.14,1.21,1.94l-2.26,1.08c-.22-.69-.58-1.23-1.07-1.63-.49-.4-1.16-.6-2.03-.6-.62,0-1.18.15-1.66.46-.48.3-.89.73-1.22,1.28s-.59,1.2-.77,1.94c-.18.74-.26,1.55-.26,2.41v.43l.1.05c.18-.64.49-1.16.95-1.55s.97-.68,1.55-.88c.58-.19,1.14-.29,1.7-.29,1.06,0,1.98.2,2.76.61.78.41,1.4.99,1.84,1.74.44.75.66,1.65.66,2.69s-.23,1.97-.7,2.75c-.46.78-1.11,1.38-1.93,1.8-.82.42-1.81.64-2.96.64-1.34,0-2.49-.34-3.43-1.01-.94-.67-1.66-1.62-2.16-2.83-.5-1.22-.74-2.64-.74-4.27,0-1.81.28-3.32.85-4.54.57-1.22,1.34-2.13,2.32-2.75.98-.62,2.07-.92,3.29-.92ZM1224.94,950.43c-.61,0-1.14.12-1.61.37-.46.25-.83.59-1.09,1.02-.26.43-.4.94-.4,1.51s.14,1.06.42,1.51.65.8,1.12,1.07c.46.26.98.4,1.56.4.98,0,1.74-.26,2.28-.79.54-.53.82-1.26.82-2.18,0-.59-.12-1.11-.36-1.55-.24-.44-.59-.78-1.04-1.01-.46-.23-1.02-.35-1.69-.35Z"/>
    </g>
    <g>
      <path class="cls-6" d="M1269.79,980.81v-10.87c0-.32,0-.65.01-1,0-.34.02-.71.04-1.09-.54.53-1.16.98-1.86,1.36-.7.38-1.41.64-2.15.8l-.48-2.23c.34-.05.73-.16,1.18-.34.45-.18.91-.4,1.39-.67.48-.27.92-.56,1.32-.88s.71-.62.94-.92h2.16v15.84h-2.54Z"/>
      <path class="cls-6" d="M1275.48,964.97h12.07v2.14c-1.33,1.38-2.4,2.79-3.22,4.24s-1.4,2.95-1.76,4.51-.54,3.21-.54,4.96h-2.59c0-1.76.22-3.48.66-5.15.44-1.67,1.11-3.27,2.02-4.8.9-1.53,2.04-2.96,3.42-4.31l.48.65h-10.54v-2.23Z"/>
    </g>
    <g>
      <path class="cls-6" d="M1305.04,941.17v-10.87c0-.32,0-.65.01-1,0-.34.02-.71.04-1.09-.54.53-1.16.98-1.86,1.36-.7.38-1.41.64-2.15.8l-.48-2.23c.34-.05.73-.16,1.18-.34.45-.18.91-.4,1.39-.67.48-.27.92-.56,1.32-.88.4-.31.71-.62.94-.92h2.16v15.84h-2.54Z"/>
      <path class="cls-6" d="M1317.26,925.11c1.07,0,2,.17,2.8.52.79.34,1.4.83,1.84,1.45.43.62.65,1.38.65,2.26,0,.82-.2,1.53-.59,2.15s-.96,1.08-1.72,1.4v.02c.91.34,1.64.84,2.17,1.5s.8,1.48.8,2.46-.24,1.75-.73,2.42c-.49.67-1.18,1.19-2.06,1.56-.89.37-1.94.55-3.16.55s-2.27-.19-3.16-.55c-.89-.37-1.58-.89-2.08-1.56-.5-.67-.74-1.48-.74-2.42s.26-1.78.79-2.45c.53-.67,1.26-1.18,2.21-1.51v-.02c-.72-.3-1.29-.76-1.7-1.38-.42-.62-.62-1.34-.62-2.17,0-.88.22-1.63.65-2.26.43-.62,1.05-1.11,1.85-1.45.8-.34,1.74-.52,2.81-.52ZM1317.26,939.25c.7,0,1.3-.1,1.8-.31.5-.21.88-.51,1.15-.91.27-.4.41-.86.41-1.39,0-.56-.14-1.04-.42-1.43-.28-.39-.67-.69-1.16-.9s-1.09-.31-1.78-.31-1.26.1-1.78.31c-.51.21-.91.51-1.19.9-.28.39-.42.87-.42,1.43,0,.53.14.99.41,1.39s.66.7,1.18.91c.51.21,1.11.31,1.8.31ZM1317.26,927.27c-.85,0-1.52.21-2.03.62s-.76.98-.76,1.7.26,1.28.77,1.69,1.18.61,2.02.61,1.5-.2,2-.61c.5-.41.76-.97.76-1.69s-.25-1.29-.74-1.7c-.5-.42-1.17-.62-2.02-.62Z"/>
    </g>
    <g>
      <path class="cls-6" d="M1621.9,838.59v-10.87c0-.32,0-.65.01-1,0-.34.02-.71.04-1.09-.54.53-1.16.98-1.86,1.36-.7.38-1.41.64-2.15.8l-.48-2.23c.34-.05.73-.16,1.18-.34.45-.18.91-.4,1.39-.67.48-.27.92-.56,1.32-.88s.71-.62.94-.92h2.16v15.84h-2.54Z"/>
      <path class="cls-6" d="M1633.78,822.51c1.36,0,2.51.34,3.44,1.01.94.67,1.64,1.62,2.11,2.83.47,1.22.71,2.65.71,4.3,0,1.82-.25,3.34-.74,4.55-.5,1.21-1.21,2.12-2.14,2.72s-2.05.91-3.36.91-2.5-.3-3.46-.89-1.68-1.48-2.16-2.66l2.42-1.13c.22.75.6,1.35,1.12,1.8.52.45,1.23.67,2.12.67.74,0,1.35-.14,1.85-.43.5-.29.89-.71,1.19-1.25.3-.54.51-1.2.64-1.97.13-.77.19-1.63.19-2.59v-.26h-.1c-.18.64-.49,1.16-.95,1.56-.46.4-.97.69-1.55.88-.58.18-1.15.28-1.73.28-1.02,0-1.93-.2-2.72-.61s-1.41-.98-1.86-1.72c-.45-.74-.67-1.61-.67-2.62,0-1.1.23-2.06.68-2.86.46-.8,1.1-1.42,1.94-1.86.84-.44,1.84-.66,3.01-.66ZM1633.8,824.77c-1.01,0-1.78.27-2.32.82-.54.54-.8,1.3-.8,2.28,0,.86.28,1.54.85,2.03s1.32.73,2.27.73c.61,0,1.14-.12,1.61-.37s.83-.59,1.09-1.02c.26-.43.4-.94.4-1.51,0-.61-.13-1.13-.4-1.57-.26-.44-.63-.78-1.09-1.02s-1-.36-1.61-.36Z"/>
    </g>
    <g>
      <path class="cls-6" d="M1483.24,941.17v-1.87c1.52-1.09,2.8-2.05,3.83-2.88,1.03-.83,1.86-1.6,2.48-2.3.62-.7,1.08-1.37,1.36-2,.28-.63.42-1.28.42-1.93,0-.85-.26-1.54-.79-2.06-.53-.53-1.26-.79-2.21-.79-.99,0-1.78.33-2.36,1s-.92,1.57-1,2.72l-2.23-1.03c.11-1.01.41-1.88.89-2.62.48-.74,1.13-1.3,1.96-1.71.82-.4,1.78-.6,2.87-.6.9,0,1.68.13,2.36.38.68.26,1.25.61,1.72,1.07s.82.99,1.07,1.6c.25.61.37,1.26.37,1.94,0,1.01-.25,1.98-.74,2.92-.5.94-1.28,1.89-2.35,2.87-1.07.98-2.48,2.03-4.22,3.14v.05c.19-.03.46-.05.79-.06s.67-.02,1.01-.02c.34,0,.61-.01.82-.01h4.99v2.21h-11.02Z"/>
      <path class="cls-6" d="M1503.19,941.41c-1.9,0-3.4-.69-4.48-2.08-1.08-1.38-1.62-3.41-1.62-6.08s.54-4.7,1.62-6.08,2.57-2.08,4.48-2.08,3.42.69,4.5,2.08,1.62,3.41,1.62,6.08-.54,4.7-1.62,6.08c-1.08,1.38-2.58,2.08-4.5,2.08ZM1503.19,939.22c.77,0,1.41-.22,1.93-.66.52-.44.91-1.1,1.18-1.99.26-.89.4-2,.4-3.32s-.13-2.44-.4-3.32c-.26-.89-.66-1.55-1.18-1.99-.52-.44-1.16-.66-1.93-.66s-1.41.22-1.93.66c-.52.44-.91,1.1-1.16,1.99-.26.89-.38,2-.38,3.32s.13,2.44.38,3.32c.26.89.64,1.55,1.16,1.99.52.44,1.16.66,1.93.66Z"/>
    </g>
    <g>
      <path class="cls-6" d="M1226.82,810.91v-1.87c1.52-1.09,2.8-2.05,3.83-2.88,1.03-.83,1.86-1.6,2.48-2.3.62-.7,1.08-1.37,1.36-2,.28-.63.42-1.28.42-1.93,0-.85-.26-1.54-.79-2.06-.53-.53-1.26-.79-2.21-.79-.99,0-1.78.33-2.36,1s-.92,1.57-1,2.72l-2.23-1.03c.11-1.01.41-1.88.89-2.62.48-.74,1.13-1.3,1.96-1.71.82-.4,1.78-.6,2.87-.6.9,0,1.68.13,2.36.38.68.26,1.25.61,1.72,1.07s.82.99,1.07,1.6c.25.61.37,1.26.37,1.94,0,1.01-.25,1.98-.74,2.92-.5.94-1.28,1.89-2.35,2.87-1.07.98-2.48,2.03-4.22,3.14v.05c.19-.03.46-.05.79-.06s.67-.02,1.01-.02c.34,0,.61-.01.82-.01h4.99v2.21h-11.02Z"/>
      <path class="cls-6" d="M1244.1,810.91v-10.87c0-.32,0-.65.01-1,0-.34.02-.71.04-1.09-.54.53-1.16.98-1.86,1.36-.7.38-1.41.64-2.15.8l-.48-2.23c.34-.05.73-.16,1.18-.34.45-.18.91-.4,1.39-.67s.92-.56,1.32-.88.71-.62.94-.92h2.16v15.84h-2.54Z"/>
    </g>
    <g>
      <path class="cls-6" d="M1394.4,807.09v-1.87c1.52-1.09,2.8-2.05,3.83-2.88,1.03-.83,1.86-1.6,2.48-2.3s1.08-1.37,1.36-2c.28-.63.42-1.28.42-1.93,0-.85-.26-1.54-.79-2.06-.53-.53-1.26-.79-2.21-.79-.99,0-1.78.33-2.36,1-.58.66-.92,1.57-1,2.72l-2.23-1.03c.11-1.01.41-1.88.89-2.62.48-.74,1.13-1.3,1.96-1.7.82-.4,1.78-.6,2.87-.6.9,0,1.68.13,2.36.38.68.26,1.25.61,1.72,1.07s.82.99,1.07,1.6c.25.61.37,1.26.37,1.94,0,1.01-.25,1.98-.74,2.92-.5.94-1.28,1.89-2.35,2.87-1.07.98-2.48,2.02-4.22,3.14v.05c.19-.03.46-.05.79-.06.34,0,.67-.02,1.01-.02.34,0,.61-.01.82-.01h4.99v2.21h-11.02Z"/>
      <path class="cls-6" d="M1408.48,807.09v-1.87c1.52-1.09,2.8-2.05,3.83-2.88,1.03-.83,1.86-1.6,2.48-2.3s1.08-1.37,1.36-2c.28-.63.42-1.28.42-1.93,0-.85-.26-1.54-.79-2.06-.53-.53-1.26-.79-2.21-.79-.99,0-1.78.33-2.36,1-.58.66-.92,1.57-1,2.72l-2.23-1.03c.11-1.01.41-1.88.89-2.62.48-.74,1.13-1.3,1.96-1.7.82-.4,1.78-.6,2.87-.6.9,0,1.68.13,2.36.38.68.26,1.25.61,1.72,1.07s.82.99,1.07,1.6c.25.61.37,1.26.37,1.94,0,1.01-.25,1.98-.74,2.92-.5.94-1.28,1.89-2.35,2.87-1.07.98-2.48,2.02-4.22,3.14v.05c.19-.03.46-.05.79-.06.34,0,.67-.02,1.01-.02.34,0,.61-.01.82-.01h4.99v2.21h-11.02Z"/>
    </g>
    <g>
      <path class="cls-6" d="M1462.64,854.8v-1.87c1.52-1.09,2.8-2.05,3.83-2.88,1.03-.83,1.86-1.6,2.48-2.3s1.08-1.37,1.36-2c.28-.63.42-1.28.42-1.93,0-.85-.26-1.54-.79-2.06-.53-.53-1.26-.79-2.21-.79-.99,0-1.78.33-2.36,1-.58.66-.92,1.57-1,2.72l-2.23-1.03c.11-1.01.41-1.88.89-2.62.48-.74,1.13-1.3,1.96-1.7.82-.4,1.78-.6,2.87-.6.9,0,1.68.13,2.36.38.68.26,1.25.61,1.72,1.07s.82.99,1.07,1.6c.25.61.37,1.26.37,1.94,0,1.01-.25,1.98-.74,2.92-.5.94-1.28,1.89-2.35,2.87-1.07.98-2.48,2.02-4.22,3.14v.05c.19-.03.46-.05.79-.06.34,0,.67-.02,1.01-.02.34,0,.61-.01.82-.01h4.99v2.21h-11.02Z"/>
      <path class="cls-6" d="M1482.08,855.04c-1.49,0-2.78-.33-3.88-1-1.1-.66-1.84-1.6-2.24-2.8l2.5-1.18c.14.58.37,1.07.67,1.49.3.42.7.73,1.2.95s1.11.32,1.85.32c.62,0,1.15-.11,1.58-.34s.76-.54,1-.94c.23-.4.35-.86.35-1.37s-.1-.97-.3-1.32c-.2-.35-.51-.61-.94-.77s-.96-.24-1.62-.24c-.19,0-.39,0-.59.01-.2,0-.41.03-.64.06v-2.16c.14.02.28.03.42.04.14,0,.27.01.4.01,1.04,0,1.78-.21,2.23-.62.45-.42.67-1.06.67-1.94,0-.75-.23-1.33-.68-1.73-.46-.4-1.11-.6-1.96-.6s-1.56.2-2.05.61c-.49.41-.86,1-1.12,1.76l-2.35-.98c.22-.74.6-1.38,1.13-1.92.53-.54,1.18-.96,1.96-1.26.78-.3,1.63-.44,2.56-.44,1.14,0,2.08.18,2.84.55.76.37,1.33.87,1.7,1.51.38.64.56,1.35.56,2.14,0,.61-.09,1.14-.26,1.6-.18.46-.41.85-.71,1.18-.3.33-.62.58-.96.76-.34.18-.69.3-1.04.36v.05c.46.02.89.11,1.28.28.39.17.74.4,1.06.7s.56.65.73,1.07c.18.42.26.87.26,1.37,0,.96-.24,1.8-.72,2.52-.48.72-1.14,1.28-1.98,1.68-.84.4-1.81.6-2.92.6Z"/>
    </g>
    <g>
      <path class="cls-6" d="M1477.19,768.58v-1.87c1.52-1.09,2.8-2.05,3.83-2.88,1.03-.83,1.86-1.6,2.48-2.3s1.08-1.37,1.36-2c.28-.63.42-1.28.42-1.93,0-.85-.26-1.54-.79-2.06s-1.26-.79-2.21-.79c-.99,0-1.78.33-2.36,1s-.92,1.57-1,2.72l-2.23-1.03c.11-1.01.41-1.88.89-2.62s1.13-1.3,1.96-1.7c.82-.4,1.78-.6,2.87-.6.9,0,1.68.13,2.36.38.68.26,1.25.61,1.72,1.07.46.46.82.99,1.07,1.6.25.61.37,1.26.37,1.94,0,1.01-.25,1.98-.74,2.92-.5.94-1.28,1.89-2.35,2.87-1.07.98-2.48,2.02-4.22,3.14v.05c.19-.03.46-.05.79-.06.34,0,.67-.02,1.01-.02.34,0,.61-.01.82-.01h4.99v2.21h-11.02Z"/>
      <path class="cls-6" d="M1497.79,768.58v-3.96h-7.73v-1.75c.03-.08.08-.18.16-.29.07-.11.16-.24.25-.38l6.6-9.46h3.14v9.89h2.69v1.99h-2.69v3.96h-2.42ZM1492.46,762.63h5.33v-5.59c0-.38.01-.78.04-1.19.02-.41.04-.81.06-1.21h-.05c-.18.38-.4.8-.68,1.26-.28.46-.54.85-.78,1.19l-3.74,5.33s-.06.06-.08.1-.05.07-.08.12Z"/>
    </g>
    <g>
      <path class="cls-6" d="M1509.54,702.39v-1.87c1.52-1.09,2.8-2.05,3.83-2.88,1.03-.83,1.86-1.6,2.48-2.3s1.08-1.37,1.36-2c.28-.63.42-1.28.42-1.93,0-.85-.26-1.54-.79-2.06-.53-.53-1.26-.79-2.21-.79-.99,0-1.78.33-2.36,1-.58.66-.92,1.57-1,2.72l-2.23-1.03c.11-1.01.41-1.88.89-2.62.48-.74,1.13-1.3,1.96-1.7.82-.4,1.78-.6,2.87-.6.9,0,1.68.13,2.36.38.68.26,1.25.61,1.72,1.07s.82.99,1.07,1.6c.25.61.37,1.26.37,1.94,0,1.01-.25,1.98-.74,2.92-.5.94-1.28,1.89-2.35,2.87-1.07.98-2.48,2.02-4.22,3.14v.05c.19-.03.46-.05.79-.06.34,0,.67-.02,1.01-.02.34,0,.61-.01.82-.01h4.99v2.21h-11.02Z"/>
      <path class="cls-6" d="M1528.84,702.63c-1.41,0-2.56-.3-3.47-.91s-1.62-1.49-2.15-2.64l2.4-1.25c.24.77.6,1.4,1.09,1.88.49.49,1.21.73,2.17.73.67,0,1.24-.12,1.72-.37.47-.25.84-.6,1.09-1.06.26-.46.38-1,.38-1.64s-.12-1.23-.36-1.68c-.24-.45-.58-.79-1.03-1.02s-1.01-.35-1.68-.35c-.46,0-.9.05-1.3.14-.4.1-.76.24-1.08.44-.32.2-.6.46-.84.78l-2.11-.41.96-8.74h9.22v2.21h-7.18l-.58,4.46-.05.26h.05c.37-.4.84-.71,1.43-.94.58-.22,1.28-.34,2.08-.34,1.02,0,1.9.21,2.64.64s1.31,1.01,1.73,1.76.62,1.62.62,2.62c0,.86-.14,1.63-.43,2.3-.29.67-.7,1.24-1.22,1.71-.53.46-1.14.81-1.84,1.04-.7.23-1.45.35-2.27.35Z"/>
    </g>
    <g>
      <path class="cls-6" d="M1514.26,784.74v-1.87c1.52-1.09,2.8-2.05,3.83-2.88,1.03-.83,1.86-1.6,2.48-2.3s1.08-1.37,1.36-2c.28-.63.42-1.28.42-1.93,0-.85-.26-1.54-.79-2.06s-1.26-.79-2.21-.79c-.99,0-1.78.33-2.36,1s-.92,1.57-1,2.72l-2.23-1.03c.11-1.01.41-1.88.89-2.62s1.13-1.3,1.96-1.7c.82-.4,1.78-.6,2.87-.6.9,0,1.68.13,2.36.38.68.26,1.25.61,1.72,1.07.46.46.82.99,1.07,1.6.25.61.37,1.26.37,1.94,0,1.01-.25,1.98-.74,2.92-.5.94-1.28,1.89-2.35,2.87-1.07.98-2.48,2.02-4.22,3.14v.05c.19-.03.46-.05.79-.06.34,0,.67-.02,1.01-.02.34,0,.61-.01.82-.01h4.99v2.21h-11.02Z"/>
      <path class="cls-6" d="M1534.56,768.66c.85,0,1.6.12,2.26.35s1.23.6,1.72,1.09c.49.5.89,1.14,1.21,1.94l-2.26,1.08c-.22-.69-.58-1.23-1.07-1.63-.49-.4-1.16-.6-2.03-.6-.62,0-1.18.15-1.66.46s-.89.73-1.22,1.28c-.34.55-.59,1.2-.77,1.94-.18.74-.26,1.55-.26,2.41v.43l.1.05c.18-.64.49-1.16.95-1.55s.97-.68,1.55-.88c.58-.19,1.14-.29,1.7-.29,1.06,0,1.98.2,2.76.61.78.41,1.4.99,1.84,1.74.44.75.66,1.65.66,2.69s-.23,1.97-.7,2.75c-.46.78-1.11,1.38-1.93,1.8-.82.42-1.81.64-2.96.64-1.34,0-2.49-.34-3.43-1.01-.94-.67-1.66-1.62-2.16-2.83-.5-1.22-.74-2.64-.74-4.27,0-1.81.28-3.32.85-4.54.57-1.21,1.34-2.13,2.32-2.75s2.07-.92,3.29-.92ZM1534.39,776.89c-.61,0-1.14.12-1.61.37-.46.25-.83.59-1.09,1.02-.26.43-.4.94-.4,1.51s.14,1.06.42,1.51c.28.45.65.8,1.12,1.07.46.26.98.4,1.56.4.98,0,1.74-.26,2.28-.79.54-.53.82-1.26.82-2.18,0-.59-.12-1.11-.36-1.55-.24-.44-.59-.78-1.04-1.01-.46-.23-1.02-.35-1.69-.35Z"/>
    </g>
    <g>
      <path class="cls-6" d="M1336.53,898.57v-1.87c1.52-1.09,2.8-2.05,3.83-2.88,1.03-.83,1.86-1.6,2.48-2.3s1.08-1.37,1.36-2c.28-.63.42-1.28.42-1.93,0-.85-.26-1.54-.79-2.06-.53-.53-1.26-.79-2.21-.79-.99,0-1.78.33-2.36,1-.58.66-.92,1.57-1,2.72l-2.23-1.03c.11-1.01.41-1.88.89-2.62.48-.74,1.13-1.3,1.96-1.7.82-.4,1.78-.6,2.87-.6.9,0,1.68.13,2.36.38.68.26,1.25.61,1.72,1.07s.82.99,1.07,1.6c.25.61.37,1.26.37,1.94,0,1.01-.25,1.98-.74,2.92-.5.94-1.28,1.89-2.35,2.87-1.07.98-2.48,2.02-4.22,3.14v.05c.19-.03.46-.05.79-.06.34,0,.67-.02,1.01-.02.34,0,.61-.01.82-.01h4.99v2.21h-11.02Z"/>
      <path class="cls-6" d="M1349.4,882.73h12.07v2.14c-1.33,1.38-2.4,2.79-3.22,4.24s-1.4,2.95-1.76,4.51-.54,3.21-.54,4.96h-2.59c0-1.76.22-3.48.66-5.15.44-1.67,1.11-3.27,2.02-4.8.9-1.53,2.04-2.96,3.42-4.31l.48.65h-10.54v-2.23Z"/>
    </g>
    <path class="cls-4" d="M1446.37,944.74s0-.03,0-.04c-.03,0-.06,0-.08,0l.08.04Z"/>
    <path class="cls-4" d="M1357.15,948.83h0s.05.05.07.08l-.07-.08Z"/>
    <path class="cls-4" d="M1378.46,958.9l.07.07s0,0,.01-.01c0,0-.09-.05-.09-.06Z"/>
    <path class="cls-4" d="M1385.42,956.95s0,.01,0,.02c0,0,0-.01,0-.02h-.01Z"/>
  </g>
  <g>
    <use width="15" height="15" transform="translate(1342.87 857.13) rotate(8.87) scale(1.31)" xlink:href="#Anchor_2"/>
    <use width="15" height="15" transform="translate(1521.59 743.29) rotate(8.87) scale(1.31)" xlink:href="#Anchor_2"/>
    <use width="15" height="15" transform="translate(1516.53 660.94) rotate(8.87) scale(1.31)" xlink:href="#Anchor_2"/>
    <use width="15" height="15" transform="translate(1484.36 727.14) rotate(8.87) scale(1.31)" xlink:href="#Anchor_2"/>
    <use width="15" height="15" transform="translate(1469.67 813.35) rotate(8.87) scale(1.31)" xlink:href="#Anchor_2"/>
    <use width="15" height="15" transform="translate(1401.44 765.65) rotate(8.87) scale(1.31)" xlink:href="#Anchor_2"/>
    <use width="15" height="15" transform="translate(1231.65 769.46) rotate(8.87) scale(1.31)" xlink:href="#Anchor_2"/>
    <use width="15" height="15" transform="translate(1490.78 899.72) rotate(8.87) scale(1.31)" xlink:href="#Anchor_2"/>
    <use width="15" height="15" transform="translate(1623.89 797.15) rotate(8.87) scale(1.31)" xlink:href="#Anchor_2"/>
    <use width="15" height="15" transform="translate(1307.06 899.72) rotate(8.87) scale(1.31)" xlink:href="#Anchor_2"/>
    <use width="15" height="15" transform="translate(1270.95 939.36) rotate(8.87) scale(1.31)" xlink:href="#Anchor_2"/>
    <use width="15" height="15" transform="translate(1214.36 916.84) rotate(8.87) scale(1.31)" xlink:href="#Anchor_2"/>
    <use width="15" height="15" transform="translate(1168.9 865.34) rotate(8.87) scale(1.31)" xlink:href="#Anchor_2"/>
    <use width="15" height="15" transform="translate(1270.95 780.72) rotate(8.87) scale(1.31)" xlink:href="#Anchor_2"/>
    <use width="15" height="15" transform="translate(1254.16 882.67) rotate(8.87) scale(1.31)" xlink:href="#Anchor_2"/>
    <use width="15" height="15" transform="translate(1791.24 962.74) rotate(8.87) scale(1.31)" xlink:href="#Anchor_2"/>
    <use width="15" height="15" transform="translate(1417.22 913.07) rotate(8.87) scale(1.31)" xlink:href="#Anchor_2"/>
    <use width="15" height="15" transform="translate(1401.44 853.47) rotate(8.87) scale(1.31)" xlink:href="#Anchor_2"/>
    <use width="15" height="15" transform="translate(1612.63 989.03) rotate(8.87) scale(1.31)" xlink:href="#Anchor_2"/>
    <use width="15" height="15" transform="translate(1495.62 873.56) rotate(8.87) scale(1.31)" xlink:href="#Anchor_2"/>
    <use width="15" height="15" transform="translate(1700.65 865.34) rotate(8.87) scale(1.31)" xlink:href="#Anchor_2"/>
    <use width="15" height="15" transform="translate(1656.26 843.15) rotate(8.87) scale(1.31)" xlink:href="#Anchor_2"/>
    <use width="15" height="15" transform="translate(1736.46 654.17) rotate(8.87) scale(1.31)" xlink:href="#Anchor_2"/>
    <use width="15" height="15" transform="translate(1533.5 821.57) rotate(8.87) scale(1.31)" xlink:href="#Anchor_2"/>
    <use width="15" height="15" transform="translate(1763.9 757.43) rotate(8.87) scale(1.31)" xlink:href="#Anchor_2"/>
    <use width="15" height="15" transform="translate(1635.15 702.99) rotate(8.87) scale(1.31)" xlink:href="#Anchor_2"/>
    <use width="15" height="15" transform="translate(1580.21 641.35) rotate(8.87) scale(1.31)" xlink:href="#Anchor_2"/>
  </g>
  <polyline class="cls-3" points="1529.81 754.55 1541.71 832.82 1644.76 714.25 1587.28 652.61 1524.74 672.2 1632.11 808.4 1744.67 665.43 1772.12 768.69 1664.47 854.41 1503.83 884.81 1620.85 1000.29 1708.87 875.01 1799.46 974 1499 910.98 1425.43 924.33 1351.09 868.38 1315.28 910.98 1279.16 950.62 1262.38 893.92 1279.16 791.97 1239.87 780.72 1177.11 876.6 1222.57 928.09 1409.66 776.9 1492.58 738.39 1477.89 821.7 1409.66 864.73"/>
  <g class="cls-1">
    <g>
      <path class="cls-5" d="M1677.72,1016.74c-3.54,0-7.2,7.21-10.71,7.06-7.15-.3-14.2-4.03-21.29-4.94-7.11-.91-13.67-4.67-20.65-6.19-10.4-2.27-18.22-7.03-26.63-10.33-10.06-3.95-20.21-5.07-28.06-10.76-5.67-4.11-14.67-5.51-20.74-11.69-5.05-5.14-3.92-15.93-8.51-21.11-4.33-4.89-14.06-5.08-18.48-9.55-3.64-3.69-4.76-10.47-7.98-12.99-.6,1.62-2.19,4.96-2.9,6.56-3.89,8.84-10.85,15.34-17.4,22.66-6.56,7.32-12.85,13.91-21.21,18.75-8.77,5.08-16.88,12.02-26.52,13.72-10.74,1.89-23.05,1.24-32.87-1.86-12.96-4.09-25.52-12.28-31.1-23.17-5.1-9.95-3.45-23.29-.61-35.95,1.76-7.85,6.39-15.48,11.52-25.23,3.47-6.59,3.1-15.56,6.92-21.95,3.83-6.4,13.57-9.18,17.74-15.35.68-1-1.11-4.33-.42-5.33-5.14,1.23-9.27,4.43-13.52,6.11-5.25,2.08-7.77,7.02-11.95,9.92-4.17,2.89-9.36,4.43-13.83,9.16-4.28,4.53-8.16,9.53-12.35,14.69-.6.74-.14,1.11-.74,1.85-4,4.94-9.96,8.61-14.4,13.55-6.37,7.08-12.69,14.25-19.73,19.85-7.69,6.12-18.36,6.74-26.55,10.85-9,4.52-16.73,10.41-26.07,12.36-9.86,2.06-19.59,1.67-29.66.63-10.42-1.08-22.5,2.31-31.58-1.93-9.9-4.62-20.87-11.22-27.84-18.99-5.66-6.31-7.81-16.79-11.38-24.97-3.21-7.37-2.17-16.46-3.49-24.93-1.22-7.79-6.08-15.84-5.63-24.02.49-9,1.86-18.9,4.55-27.8,2.6-8.6,8.48-16.55,12.95-24.48,4.47-7.91,14.03-11.82,20.04-18.5,6.22-6.91,7.26-19.77,14.69-24.84,7.88-5.39,17.62-9.56,26.3-12.51,9.13-3.1,19.92,2.15,29.38,1.95,7.14-.15,13.93,1.52,22.93,2.91,6.34.98,13.45-3.04,19.5-1.82,1.28.26.23,5.53,1.51,5.78,6.31,1.26,13.16,4.12,19.4,4.86,6.56.78,12.55-6.6,17.29-7.18,5.06-.62,9.33-.91,13.27-3.18.77-.44-.08-3.68.84-4.26,3.47-2.19,9.44-3.07,15.07-4.59,8.88-2.4,16.74,4.72,22.81,5.95.34.07,1.52-5.75,1.86-5.68,6.24,1.26,11.56,9.74,17.91,10.53,6.33.79,13.7-9.07,20.08-8.77,6.39.3,12.74,8.87,19.11,8.69.67-.02,4.73-2.46,5.4-2.49-.12-1.44-6.6-4.04-6.67-5.48-.42-7.6,3.49-15.42,4.09-23.07.6-7.61-3.06-16.16-1.45-23.62,1.61-7.49,3.66-15.51,6.25-22.68,2.62-7.25,7.82-13.9,11.37-20.64,3.84-7.29,11.29-11.98,16-17.85,5.59-6.95,9.63-14.98,16.13-19.51,7.8-5.44,18.03-2.79,26.77-4.52,9.61-1.9,19.21-7.41,28.88-4.04,8.7,3.03,16.22,9.64,23.11,16.27,6.88,6.63,10.8,15.07,14.16,23.64,3.74,9.54,10.27,19.57,8.73,29.24-.46,2.87-5.35,6.85-6.21,9.69,2.14-2.34,4.84-6.47,6.93-8.82,1.09-1.22,5.94.88,7.03-.35,4.2-4.76,4.04-13.73,8.67-18.48,7.22-7.42,12.69-15,19.51-19.6,8.45-5.7,20.32-4.28,29.55-6.44,11.21-2.63,21.14-4.48,31.21-1.4,9.93,3.04,22.43,5.55,30,13.83,6.55,7.17,3.56,20.66,7,30.22,2.95,8.22,6.57,15.49,7.38,25.55.6,7.43,8.68,15.5,8.18,25.5-.45,8.89-10.24,15.59-11.51,22.6-1.68,9.26-1.98,17.07-5.29,24.35-4.09,8.99-10.64,14.1-17.31,20.29-9.1,8.44-16.85,16.14-26.24,20.56-6.32,2.97-11.43,8.22-17.74,11.05-7.21,3.23-15,2.6-20.97,4.92-3.63,1.41-6.28,4.48-9.69,5.65,6.61,1.24,13.52,2.98,20.44,4.77,10.66,2.76,19.14,7.22,27.2,11.32,7.68,3.91,13.46,9.95,20.06,15.82,6.38,5.67,16.28,8.36,21.23,15.5,4.88,7.04,3.01,17.6,6.17,25.56,3.21,8.08,8.03,15.09,9.23,23.53,1.24,8.75,1.41,17.18.42,25.75-.78,6.69.1,17.89-6.8,25.92-7.51,8.74-18.91,12.55-28.06,14.56-6.98,1.53-14.56.64-21.68,1.57-7.08.92-14.37-.71-21.53-.4-3.63.16-7.17-1.81-10.82-1.81ZM1522.2,908.71c1.67,1.02,8.14-3.32,9.8-2.16,5.76,4.04,9.7,11.54,15.86,17.79,5.06,5.13,7.87,12.21,12.48,17.42,4.51,5.11,7.19,11.68,11.62,16.2,4.75,4.84,12.02,6.12,16.17,9.12,5.65,4.09,14.2,3.16,21.75,6.12,6.74,2.65,12.01,12.5,20.65,14.38,6.04,1.32,13.54-4.66,19.7-3.87,6.15.79,12.01,5.84,18.21,6.1,6.19.26,12.59-1.21,18.8-1.48,6.21-.27,12.82,1.51,18.96.71,6.16-.8,12.35-3.03,18.39-4.35,6.63-1.46,6.49-5.61,6.96-6.15.18-.21.53-.41,1.14-5.59.67-5.73-1.1-10.85-1.94-16.77-.83-5.84.83-11.97-1.41-17.6-2.22-5.59-3.76-11.69-7.19-16.64-3.45-4.97-10.72-6.12-15.13-10.05-4.47-3.97-5.48-12.77-10.62-15.38-5.88-2.99-13.94-3.53-22.23-5.67-7.94-2.06-16.67-1.77-24.73-3.25-24.42-4.48-27.83,4.15-50.44-6.11-5.64-2.56,4.5-9.67,2.12-15.39-7.35-.1-13.28.65-21.26-.61-7.9-1.25-16.57-2.55-25.69-5.06-1.02-.28-1.25-2.79-2.25-3.07-.05.35,1.22.41,1.16.76-1.35,8.08-8.58,14.26-11.7,21.78-2.92,7.02-4.84,17.81-15.09,24.07-.42.25-3.65,4.51-4.08,4.75ZM1459.07,862.47c-2.46,3.05.84,10.65-1.51,13.76-4.12,5.45-10.66,9.23-14.51,14.93-3.83,5.67-9.78,10.23-13.3,16.11-3.52,5.88-9.08,10.98-12.27,17.04-3.67,6.98-2.72,14.9-3.81,19.74-1.1,4.91,3.56,7.5,5.03,10.36,1.8,3.51,1.35,11.32,4.33,12.26,4.73,1.49,11.54-5.12,17.01-6.09,5.79-1.02,12.89,1.11,18.26-2,5.31-3.08,9.54-8.4,13.75-13.1,4.21-4.7,9.83-9.13,12.31-14.75,2.5-5.68,3.07-12.58,3.44-18.45.27-4.19-1.28-3.83-3.04-7.64-6.03-3.54-11.14-8.13-14.96-13.95-4.51-6.89-9.43-15.34-10.91-24.69,0,0,.18-3.51.18-3.52ZM1279.21,792.59c-.52,0-.97,7.29-1.48,7.3-6.05.13-12.32-1.88-18.23.13-5.81,1.97-13.05,2.76-18.42,6.44-5.24,3.59-12.46,6.81-16.91,11.76-4.39,4.87-5.6,13.13-8.88,18.93-3.28,5.8-1.35,13.65-3.24,19.9-1.92,6.36-10.91,11.57-11.26,17.92-.32,5.86,7.09,11.47,7.95,16.96.89,5.67-1.95,12.15.13,16.92,2.13,4.9,6.31,8.79,9.58,12.43,3.95,4.41,8.08,10.26,13.88,12.97,5.71,2.67,13.04,3.49,19.75,4.18,6.64.68,13.05-3.37,19.54-4.73,6.51-1.36,12.55-3.59,18.98-6.81,6.14-3.08,10.81-8.12,16.7-12.81,5.6-4.46,12.95-7.03,18.09-12.75,3.86-4.3,8.73-7.86,12.63-12.69.61-.75-3.06-3.72-2.45-4.47,4.61-5.68,14.25-6.82,19.33-12.2,6.08-6.43,10.24-13.07,16.33-17.3,6.21-4.31,12.37-9.66,19.91-12.66,6.56-2.6,13.06-7.9,20.91-9.63,6.27-1.38,13.82-.3,21.66-1.27,6.89-.85,13.81-1.65,20.25-2.21,4.15-.37,3.45,1.49,6.9-.85.51-5.22,2.31-7.98,3.23-12.72,1.05-5.44,1.97-9.51,3.57-14.42-6.93.18-12.84-4.83-19.77-5.16-7.22-.34-14.59,2.04-21.76,1.15-7.19-.89-14.17-2.95-21.24-4.38-.35-.07-1.65,6.33-2.01,6.26-2.65-.54-4.18-.24-5.44.09-.79.21-3.26-2.48-4.76-1.54-1.1.69-4.18-1.54-5.51-.77-7.79,4.49-15.43,11.63-24.89,12.78-7.42.91-16.3,1.21-25.54.11-7.45-.88-14.7-4.59-21.66-5.98-1.3-.26-.22-5.67-1.51-5.93-5.95-1.19-13.14,6.57-18.74,5.71-6.34-.98-10.86-10.66-15.6-10.66ZM1504.28,792.61c-.89,1.49,2.61,8.4,1.84,10.03-2.78,5.81-7.78,11.39-9.26,19.02-1.32,6.85-4.71,14.49-4.97,22.75-.13,4.1-2.49,11.13-1.62,16.62.73,4.59,6.03,8.21,7.9,11.06,1.36,2.08,6.15-.09,8.59.79,1.59.57,4.35,7.78,5.04,7.36.81-.5-2.25-7.08.04-12.6,2.15-5.17,8.02-9.32,8.95-14.91.93-5.58-.21-11.61-.57-17.2-.09-1.51-.8-6.22-2.12-5.48-8.17,4.59-12.06,23.38-11.7,14.02.86-22.55,5.78-21.25,12.32-42.85-1.65-5.24-3.63-8.83-6.02-13.73-.04-.08,4.38,1.77,4.34,1.7-2.13,2.01-6.03,1.55-7.83,4.06-.32,1.68,1.98,3.02.39,2.39-3.05-1.19-3.93-3.66-5.32-3.01ZM1554.32,825.49c1.73.51,8.5-2.98,10.14-2.53,7.92,2.17,14.23,6.76,20.89,7.82,7.52,1.19,14.55,4.31,21.23,4.21,5.71-.08,12.55,1.63,18.62.6,5.78-.98,11.17-6.21,17.46-8.07,5.69-1.69,9.92-8.32,16.33-10.82,5.45-2.12,14.47,2.74,21.17-.26,6.05-2.71,9.11-12.07,15.28-14.97,7.56-3.56,17.81-3.47,23.12-8.4,3.46-3.21,5.38-8.46,7.66-13.47,2.13-4.68,6.14-10.01,7.3-16.44,1.01-5.58.6-12.33.97-19.76.43-8.51-3.36-15.17-3.84-21.12-.57-7.08-1.75-12.6-3.69-18-1.96-5.44-5.72-8.54-9.32-12.48-3.61-3.94-4.98-8.6-9.28-9.92-4.37-1.34-9.35-2.86-14.74-1.6-5.33,1.25-8.53,7.78-13.65,11.24-4.88,3.29-13.97,2.29-19.55,8.03-4.06,4.17-6.35,10.18-10.47,14.84-1.11,1.26-.83,3.75-1.94,5-4.82,5.42-7.48,13.08-12.46,18.34-4.98,5.27-11.84,8.99-16.98,14.1-5.13,5.1-10.37,10.36-15.68,15.32-5.31,4.95-10.42,10.38-15.87,15.15-5.45,4.78-12.6,7.81-18.2,12.41-4.15,3.42-7.38,6.8-11.62,10.13,1.41,6.48-3.36,14.06-2.86,20.65ZM1516.08,755.49c2.37,0,5.14-6.9,7.02-6.46,7.02,1.68,11.47,8.86,15.02,13.07,2.3-4.2,7.3-7.15,9.85-11.17,3.95-6.22,9.93-10.58,14.48-16.34,2.21-2.8,1.45-7.92,3.66-10.59,1.97-2.38.02-7.71,1.85-10,4.42-5.53,14.04-5.41,16.26-9.37,2.52-4.5-2.5-11.31-1.85-15.34.62-3.87,4.48-8.22,2.89-12.3-1.62-4.13-5.79-7.72-9.23-11.04-3.45-3.32-6.9-8.17-11.09-9.63-4.13-1.44-9.46-.77-13.3-.02-4.18.83-6.83,6.03-10.82,8.82-3.91,2.73-7.23,6.03-10.83,10.5-3.38,4.2-4.8,9.51-7.64,14.91-2.84,5.4-8.14,9.51-10.23,15.32-2.08,5.77-5.28,11.35-6.58,17.39-1.3,6.03,2.48,12.69,2,18.83-.32,4.01-5.3,10.48-5.27,14.5,4.69-2.2,10.07-1.1,13.83-1.1Z"/>
      <path class="cls-2" d="M1677.72,1016.74c-3.54,0-7.2,7.21-10.71,7.06-7.15-.3-14.2-4.03-21.29-4.94-7.11-.91-13.67-4.67-20.65-6.19-10.4-2.27-18.22-7.03-26.63-10.33-10.06-3.95-20.21-5.07-28.06-10.76-5.67-4.11-14.67-5.51-20.74-11.69-5.05-5.14-3.92-15.93-8.51-21.11-4.33-4.89-14.06-5.08-18.48-9.55-3.64-3.69-4.76-10.47-7.98-12.99-.6,1.62-2.19,4.96-2.9,6.56-3.89,8.84-10.85,15.34-17.4,22.66-6.56,7.32-12.85,13.91-21.21,18.75-8.77,5.08-16.88,12.02-26.52,13.72-10.74,1.89-23.05,1.24-32.87-1.86-12.96-4.09-25.52-12.28-31.1-23.17-5.1-9.95-3.45-23.29-.61-35.95,1.76-7.85,6.39-15.48,11.52-25.23,3.47-6.59,3.1-15.56,6.92-21.95,3.83-6.4,13.57-9.18,17.74-15.35.68-1-1.11-4.33-.42-5.33-5.14,1.23-9.27,4.43-13.52,6.11-5.25,2.08-7.77,7.02-11.95,9.92-4.17,2.89-9.36,4.43-13.83,9.16-4.28,4.53-8.16,9.53-12.35,14.69-.6.74-.14,1.11-.74,1.85-4,4.94-9.96,8.61-14.4,13.55-6.37,7.08-12.69,14.25-19.73,19.85-7.69,6.12-18.36,6.74-26.55,10.85-9,4.52-16.73,10.41-26.07,12.36-9.86,2.06-19.59,1.67-29.66.63-10.42-1.08-22.5,2.31-31.58-1.93-9.9-4.62-20.87-11.22-27.84-18.99-5.66-6.31-7.81-16.79-11.38-24.97-3.21-7.37-2.17-16.46-3.49-24.93-1.22-7.79-6.08-15.84-5.63-24.02.49-9,1.86-18.9,4.55-27.8,2.6-8.6,8.48-16.55,12.95-24.48,4.47-7.91,14.03-11.82,20.04-18.5,6.22-6.91,7.26-19.77,14.69-24.84,7.88-5.39,17.62-9.56,26.3-12.51,9.13-3.1,19.92,2.15,29.38,1.95,7.14-.15,13.93,1.52,22.93,2.91,6.34.98,13.45-3.04,19.5-1.82,1.28.26.23,5.53,1.51,5.78,6.31,1.26,13.16,4.12,19.4,4.86,6.56.78,12.55-6.6,17.29-7.18,5.06-.62,9.33-.91,13.27-3.18.77-.44-.08-3.68.84-4.26,3.47-2.19,9.44-3.07,15.07-4.59,8.88-2.4,16.74,4.72,22.81,5.95.34.07,1.52-5.75,1.86-5.68,6.24,1.26,11.56,9.74,17.91,10.53,6.33.79,13.7-9.07,20.08-8.77,6.39.3,12.74,8.87,19.11,8.69.67-.02,4.73-2.46,5.4-2.49-.12-1.44-6.6-4.04-6.67-5.48-.42-7.6,3.49-15.42,4.09-23.07.6-7.61-3.06-16.16-1.45-23.62,1.61-7.49,3.66-15.51,6.25-22.68,2.62-7.25,7.82-13.9,11.37-20.64,3.84-7.29,11.29-11.98,16-17.85,5.59-6.95,9.63-14.98,16.13-19.51,7.8-5.44,18.03-2.79,26.77-4.52,9.61-1.9,19.21-7.41,28.88-4.04,8.7,3.03,16.22,9.64,23.11,16.27,6.88,6.63,10.8,15.07,14.16,23.64,3.74,9.54,10.27,19.57,8.73,29.24-.46,2.87-5.35,6.85-6.21,9.69,2.14-2.34,4.84-6.47,6.93-8.82,1.09-1.22,5.94.88,7.03-.35,4.2-4.76,4.04-13.73,8.67-18.48,7.22-7.42,12.69-15,19.51-19.6,8.45-5.7,20.32-4.28,29.55-6.44,11.21-2.63,21.14-4.48,31.21-1.4,9.93,3.04,22.43,5.55,30,13.83,6.55,7.17,3.56,20.66,7,30.22,2.95,8.22,6.57,15.49,7.38,25.55.6,7.43,8.68,15.5,8.18,25.5-.45,8.89-10.24,15.59-11.51,22.6-1.68,9.26-1.98,17.07-5.29,24.35-4.09,8.99-10.64,14.1-17.31,20.29-9.1,8.44-16.85,16.14-26.24,20.56-6.32,2.97-11.43,8.22-17.74,11.05-7.21,3.23-15,2.6-20.97,4.92-3.63,1.41-6.28,4.48-9.69,5.65,6.61,1.24,13.52,2.98,20.44,4.77,10.66,2.76,19.14,7.22,27.2,11.32,7.68,3.91,13.46,9.95,20.06,15.82,6.38,5.67,16.28,8.36,21.23,15.5,4.88,7.04,3.01,17.6,6.17,25.56,3.21,8.08,8.03,15.09,9.23,23.53,1.24,8.75,1.41,17.18.42,25.75-.78,6.69.1,17.89-6.8,25.92-7.51,8.74-18.91,12.55-28.06,14.56-6.98,1.53-14.56.64-21.68,1.57-7.08.92-14.37-.71-21.53-.4-3.63.16-7.17-1.81-10.82-1.81ZM1522.2,908.71c1.67,1.02,8.14-3.32,9.8-2.16,5.76,4.04,9.7,11.54,15.86,17.79,5.06,5.13,7.87,12.21,12.48,17.42,4.51,5.11,7.19,11.68,11.62,16.2,4.75,4.84,12.02,6.12,16.17,9.12,5.65,4.09,14.2,3.16,21.75,6.12,6.74,2.65,12.01,12.5,20.65,14.38,6.04,1.32,13.54-4.66,19.7-3.87,6.15.79,12.01,5.84,18.21,6.1,6.19.26,12.59-1.21,18.8-1.48,6.21-.27,12.82,1.51,18.96.71,6.16-.8,12.35-3.03,18.39-4.35,6.63-1.46,6.49-5.61,6.96-6.15.18-.21.53-.41,1.14-5.59.67-5.73-1.1-10.85-1.94-16.77-.83-5.84.83-11.97-1.41-17.6-2.22-5.59-3.76-11.69-7.19-16.64-3.45-4.97-10.72-6.12-15.13-10.05-4.47-3.97-5.48-12.77-10.62-15.38-5.88-2.99-13.94-3.53-22.23-5.67-7.94-2.06-16.67-1.77-24.73-3.25-24.42-4.48-27.83,4.15-50.44-6.11-5.64-2.56,4.5-9.67,2.12-15.39-7.35-.1-13.28.65-21.26-.61-7.9-1.25-16.57-2.55-25.69-5.06-1.02-.28-1.25-2.79-2.25-3.07-.05.35,1.22.41,1.16.76-1.35,8.08-8.58,14.26-11.7,21.78-2.92,7.02-4.84,17.81-15.09,24.07-.42.25-3.65,4.51-4.08,4.75ZM1459.07,862.47c-2.46,3.05.84,10.65-1.51,13.76-4.12,5.45-10.66,9.23-14.51,14.93-3.83,5.67-9.78,10.23-13.3,16.11-3.52,5.88-9.08,10.98-12.27,17.04-3.67,6.98-2.72,14.9-3.81,19.74-1.1,4.91,3.56,7.5,5.03,10.36,1.8,3.51,1.35,11.32,4.33,12.26,4.73,1.49,11.54-5.12,17.01-6.09,5.79-1.02,12.89,1.11,18.26-2,5.31-3.08,9.54-8.4,13.75-13.1,4.21-4.7,9.83-9.13,12.31-14.75,2.5-5.68,3.07-12.58,3.44-18.45.27-4.19-1.28-3.83-3.04-7.64-6.03-3.54-11.14-8.13-14.96-13.95-4.51-6.89-9.43-15.34-10.91-24.69,0,0,.18-3.51.18-3.52ZM1279.21,792.59c-.52,0-.97,7.29-1.48,7.3-6.05.13-12.32-1.88-18.23.13-5.81,1.97-13.05,2.76-18.42,6.44-5.24,3.59-12.46,6.81-16.91,11.76-4.39,4.87-5.6,13.13-8.88,18.93-3.28,5.8-1.35,13.65-3.24,19.9-1.92,6.36-10.91,11.57-11.26,17.92-.32,5.86,7.09,11.47,7.95,16.96.89,5.67-1.95,12.15.13,16.92,2.13,4.9,6.31,8.79,9.58,12.43,3.95,4.41,8.08,10.26,13.88,12.97,5.71,2.67,13.04,3.49,19.75,4.18,6.64.68,13.05-3.37,19.54-4.73,6.51-1.36,12.55-3.59,18.98-6.81,6.14-3.08,10.81-8.12,16.7-12.81,5.6-4.46,12.95-7.03,18.09-12.75,3.86-4.3,8.73-7.86,12.63-12.69.61-.75-3.06-3.72-2.45-4.47,4.61-5.68,14.25-6.82,19.33-12.2,6.08-6.43,10.24-13.07,16.33-17.3,6.21-4.31,12.37-9.66,19.91-12.66,6.56-2.6,13.06-7.9,20.91-9.63,6.27-1.38,13.82-.3,21.66-1.27,6.89-.85,13.81-1.65,20.25-2.21,4.15-.37,3.45,1.49,6.9-.85.51-5.22,2.31-7.98,3.23-12.72,1.05-5.44,1.97-9.51,3.57-14.42-6.93.18-12.84-4.83-19.77-5.16-7.22-.34-14.59,2.04-21.76,1.15-7.19-.89-14.17-2.95-21.24-4.38-.35-.07-1.65,6.33-2.01,6.26-2.65-.54-4.18-.24-5.44.09-.79.21-3.26-2.48-4.76-1.54-1.1.69-4.18-1.54-5.51-.77-7.79,4.49-15.43,11.63-24.89,12.78-7.42.91-16.3,1.21-25.54.11-7.45-.88-14.7-4.59-21.66-5.98-1.3-.26-.22-5.67-1.51-5.93-5.95-1.19-13.14,6.57-18.74,5.71-6.34-.98-10.86-10.66-15.6-10.66ZM1504.28,792.61c-.89,1.49,2.61,8.4,1.84,10.03-2.78,5.81-7.78,11.39-9.26,19.02-1.32,6.85-4.71,14.49-4.97,22.75-.13,4.1-2.49,11.13-1.62,16.62.73,4.59,6.03,8.21,7.9,11.06,1.36,2.08,6.15-.09,8.59.79,1.59.57,4.35,7.78,5.04,7.36.81-.5-2.25-7.08.04-12.6,2.15-5.17,8.02-9.32,8.95-14.91.93-5.58-.21-11.61-.57-17.2-.09-1.51-.8-6.22-2.12-5.48-8.17,4.59-12.06,23.38-11.7,14.02.86-22.55,5.78-21.25,12.32-42.85-1.65-5.24-3.63-8.83-6.02-13.73-.04-.08,4.38,1.77,4.34,1.7-2.13,2.01-6.03,1.55-7.83,4.06-.32,1.68,1.98,3.02.39,2.39-3.05-1.19-3.93-3.66-5.32-3.01ZM1554.32,825.49c1.73.51,8.5-2.98,10.14-2.53,7.92,2.17,14.23,6.76,20.89,7.82,7.52,1.19,14.55,4.31,21.23,4.21,5.71-.08,12.55,1.63,18.62.6,5.78-.98,11.17-6.21,17.46-8.07,5.69-1.69,9.92-8.32,16.33-10.82,5.45-2.12,14.47,2.74,21.17-.26,6.05-2.71,9.11-12.07,15.28-14.97,7.56-3.56,17.81-3.47,23.12-8.4,3.46-3.21,5.38-8.46,7.66-13.47,2.13-4.68,6.14-10.01,7.3-16.44,1.01-5.58.6-12.33.97-19.76.43-8.51-3.36-15.17-3.84-21.12-.57-7.08-1.75-12.6-3.69-18-1.96-5.44-5.72-8.54-9.32-12.48-3.61-3.94-4.98-8.6-9.28-9.92-4.37-1.34-9.35-2.86-14.74-1.6-5.33,1.25-8.53,7.78-13.65,11.24-4.88,3.29-13.97,2.29-19.55,8.03-4.06,4.17-6.35,10.18-10.47,14.84-1.11,1.26-.83,3.75-1.94,5-4.82,5.42-7.48,13.08-12.46,18.34-4.98,5.27-11.84,8.99-16.98,14.1-5.13,5.1-10.37,10.36-15.68,15.32-5.31,4.95-10.42,10.38-15.87,15.15-5.45,4.78-12.6,7.81-18.2,12.41-4.15,3.42-7.38,6.8-11.62,10.13,1.41,6.48-3.36,14.06-2.86,20.65ZM1516.08,755.49c2.37,0,5.14-6.9,7.02-6.46,7.02,1.68,11.47,8.86,15.02,13.07,2.3-4.2,7.3-7.15,9.85-11.17,3.95-6.22,9.93-10.58,14.48-16.34,2.21-2.8,1.45-7.92,3.66-10.59,1.97-2.38.02-7.71,1.85-10,4.42-5.53,14.04-5.41,16.26-9.37,2.52-4.5-2.5-11.31-1.85-15.34.62-3.87,4.48-8.22,2.89-12.3-1.62-4.13-5.79-7.72-9.23-11.04-3.45-3.32-6.9-8.17-11.09-9.63-4.13-1.44-9.46-.77-13.3-.02-4.18.83-6.83,6.03-10.82,8.82-3.91,2.73-7.23,6.03-10.83,10.5-3.38,4.2-4.8,9.51-7.64,14.91-2.84,5.4-8.14,9.51-10.23,15.32-2.08,5.77-5.28,11.35-6.58,17.39-1.3,6.03,2.48,12.69,2,18.83-.32,4.01-5.3,10.48-5.27,14.5,4.69-2.2,10.07-1.1,13.83-1.1Z"/>
    </g>
  </g>
</svg>