<?xml version="1.0" encoding="utf-8"?>
<!-- Generator: Adobe Illustrator 28.1.0, SVG Export Plug-In . SVG Version: 6.00 Build 0)  -->
<svg version="1.1" id="Layer_1" xmlns="http://www.w3.org/2000/svg" xmlns:xlink="http://www.w3.org/1999/xlink" x="0px" y="0px"
	 viewBox="0 0 1920 1080" style="enable-background:new 0 0 1920 1080;" xml:space="preserve">
<style type="text/css">
	.st0{opacity:0.9;}
	.st1{fill:#BFB3FF;}
	.st2{fill:none;stroke:#8B8332;stroke-width:3;stroke-miterlimit:10;}
	.st3{fill:#BFB3FF;stroke:#8B8332;stroke-width:5;stroke-miterlimit:10;}
	.st4{fill:none;stroke:#8B8332;stroke-width:3.0861;stroke-miterlimit:10;}
	.st5{fill:#8B8332;}
</style>
<path d="M842.28,830.54c0,0.01,0,0.01,0,0.02c0,0,0.01,0,0.01,0.01L842.28,830.54z"/>
<path d="M866.96,853.61c0.01,0.02,0.02,0.03,0.02,0.05c0.02-0.02,0.05-0.03,0.07-0.05C867.06,853.61,866.96,853.61,866.96,853.61z"
	/>
<path d="M807.39,882c0,0.04,0,0.07,0,0.11c0.01,0.01,0.01,0.02,0.02,0.03C807.4,882.13,807.39,882,807.39,882z"/>
<path d="M820.54,874.22c-0.03,0-0.05,0-0.08-0.01c0,0.02,0,0.04,0,0.07L820.54,874.22z"/>
<path d="M891.04,862.37c-0.03,0-0.05,0-0.08,0c0,0.02,0,0.04,0,0.07L891.04,862.37z"/>
<path d="M818.09,875.4c0.02,0.02,0.04,0.04,0.06,0.06c0.01,0,0.01,0,0.02,0L818.09,875.4z"/>
<path d="M889.23,867.09c-0.02,0.02-0.03,0.04-0.05,0.06c0,0.01,0,0.02,0,0.03L889.23,867.09z"/>
<path d="M713.3,877.17c0,0.02,0,0.03,0,0.05c0.01,0.01,0.01,0.02,0.02,0.03L713.3,877.17z"/>
<path d="M706.8,904.4c-0.02,0.03-0.04,0.05-0.07,0.08c0,0,0,0.01,0,0.01L706.8,904.4z"/>
<path d="M713.92,874.23c-0.02,0-0.05,0-0.07,0c0,0.02,0,0.05,0.01,0.07L713.92,874.23z"/>
<path d="M1363.74,943.56c-0.02-0.01-0.05-0.02-0.07-0.03c-0.01,0-0.02,0-0.02,0L1363.74,943.56z"/>
<path d="M1494.05,937.58c-0.02,0.01-0.04,0.02-0.06,0.03c0,0-0.01,0.01-0.01,0.01L1494.05,937.58z"/>
<path d="M1416.85,858.48c0.02-0.01,0.05-0.02,0.07-0.03c0-0.01-0.01-0.02-0.01-0.03C1416.9,858.41,1416.85,858.48,1416.85,858.48z"
	/>
<path d="M1446.37,944.74c0-0.01,0-0.03,0-0.04c-0.03,0-0.06,0-0.08,0L1446.37,944.74z"/>
<path d="M1357.15,948.83C1357.15,948.83,1357.15,948.83,1357.15,948.83c0.02,0.03,0.05,0.05,0.07,0.08L1357.15,948.83z"/>
<path d="M994.68,842.87c0-0.01,0-0.01,0-0.02c-0.02-0.01-0.04-0.02-0.05-0.03C994.62,842.82,994.68,842.87,994.68,842.87z"/>
<path d="M984.01,883.18c0-0.01,0-0.02,0-0.03c-0.02-0.02-0.04-0.04-0.06-0.06L984.01,883.18z"/>
<path d="M1005.94,947.71c0,0,0-0.01,0-0.01c-0.02-0.02-0.05-0.03-0.07-0.05L1005.94,947.71z"/>
<path d="M1036.57,832.53c0,0,0,0.01,0.01,0.01c0.06,0.01,0.13,0.01,0.19,0.02C1036.77,832.56,1036.57,832.53,1036.57,832.53z"/>
<path d="M1447.94,890.05c0.01-0.02,0.02-0.04,0.03-0.05l0,0L1447.94,890.05z"/>
<path d="M1378.46,958.9c0.02,0.02,0.05,0.05,0.07,0.07c0,0,0.01-0.01,0.01-0.01C1378.54,958.96,1378.46,958.9,1378.46,958.9z"/>
<path d="M1374.38,955.92c-0.02,0.02-0.04,0.03-0.06,0.05c0,0.01,0,0.02,0,0.04L1374.38,955.92z"/>
<path d="M1433.63,873.67c-0.01-0.01-0.02-0.02-0.03-0.03c-0.01-0.01-0.03-0.02-0.04-0.02L1433.63,873.67z"/>
<path d="M1385.42,956.95c0,0.01,0,0.01,0.01,0.02c0-0.01,0-0.01,0.01-0.02L1385.42,956.95z"/>
<g class="st0">
	<g>
		<path class="st1" d="M1077.35,341.49c-17.05-10.39-30.49-28.06-35.87-49.35c-10.92-16.09-23.94-33.54-40.26-47.26
			c-26.65-22.41-66.08-13.34-52.32-45.32c13.76-31.98,34.06,4.91,68.65,8.85c20.12,2.29,32.72,18.21,38.56,27.44
			c19.16-13.24,16.88-52.16,32.17-34.59c20.95,24.07-3.42,32.35-6.4,64.12c-0.31,3.29-1.42,7.07-1,10.47
			c3.3,4.98,8.1,9.17,11.25,14.04c4.81,7.43,8.72,14.83,13.44,21.77C1102.22,332.36,1096.22,333.43,1077.35,341.49z"/>
		<path class="st2" d="M1077.35,341.49c-17.05-10.39-30.49-28.06-35.87-49.35c-10.92-16.09-23.94-33.54-40.26-47.26
			c-26.65-22.41-66.08-13.34-52.32-45.32c13.76-31.98,34.06,4.91,68.65,8.85c20.12,2.29,32.72,18.21,38.56,27.44
			c19.16-13.24,16.88-52.16,32.17-34.59c20.95,24.07-3.42,32.35-6.4,64.12c-0.31,3.29-1.42,7.07-1,10.47
			c3.3,4.98,8.1,9.17,11.25,14.04c4.81,7.43,8.72,14.83,13.44,21.77C1102.22,332.36,1096.22,333.43,1077.35,341.49z"/>
	</g>
	<g>
		<path class="st1" d="M818.33,963.94c-14.45,0-25.73-10.11-38.13-13.11c-29.06-7.03-74.68,0.12-106.37-23.14
			c-8.76-6.43-12.49-13.21-19.43-20.83c-5.45,5.29-15.1-7.53-23.79-3.69c-11.56,5.11-19.19,25.96-30.22,25.46
			c-22.63-1.03-47.63-3.59-69.39-9.54c-21.8-5.95-37.74-29.55-57.78-39.97c-20.04-10.42-33.85-27.6-51.24-42.03
			c-17.35-14.4-48.41-15.79-62.24-33.72c-17.32-22.45-35.86-50.09-52.2-84.75c-10.81-22.94,1.95-55.71-6.7-79.52
			c-8.66-23.83-23.32-45-29.77-69.51c-6.45-24.51-26.28-46.44-30.49-71.43c-4.2-24.99,0.62-42.02-1.3-67.3
			c-22.72,20.11-41.57-1.88-58.89-6.32c-18.28-4.69-59.68,7.93-75.99-14.74c-11.01-15.31,4.02-46.34,6.88-70.08
			c-11.15,4.2-33.17,9.5-46.54,2.31c-3.56-1.92-6.66,1.13-9.29-1.94c-2.64-3.07-1.08-4.98-2.43-8.8
			c-9.65-27.18,11.87-51.81,20.27-62.05c13.18-16.08,6.19-21.81,19.37-37.89c5.02-6.12,22.8-1.27,38.25-3.44
			c9.12-1.28,11.66-0.86,20.53,4.77c3.83,2.43,16.62-15.02,19.67-11.64c5.48-0.6,3.22,22.06,7.88,23.75
			c4.59,1.66,0.79-1.63,4.26,1.81c3.46,3.43,0.14-0.33,1.84,4.24c3.52,9.52,9.38,17.55-14.26,36.31
			c-3.02,7.13-5.97,14.57-11.68,19.63c-4.3,3.8,5.16,18.38,0.91,20.76c-2.36,7.14-21.43,6.83-22.73,14.37
			c-1.84,10.62-5.58,34.39,0.99,43.52c6.84,9.51,31.3,12.96,47.71,17.17c8.38,2.15,39.63,3.73,61.61-52.59
			c0.12-8.76-12.96-20.66-12.56-29.41c0.29-6.48,6.91-3.8,10.57-9.16c3.66-5.36,1.27-4.89,7.19-7.53
			c8.88-3.95,13.28,1.83,20.45,8.23c9.78,8.73,12.33,16.49,9.26,26.25c-1.48,4.7-5.06,10.67-7.05,16.2
			c-0.1,23.46,15.46,46.52,17.45,69.88c1.99,23.37-2.16,47.08,1.89,70.17c4.05,23.1-3.83,49.31,2.24,71.96
			c6.07,22.64,16.97,44.7,25.03,66.73c8.05,22.01,27.82,39.37,37.83,60.59c15.01,31.84,34.28,50.97,49.7,70.96
			c11.8,15.31,17.23,35.67,32.43,48.25c14.96,12.38,32.97,19.91,50.39,28.97c17.43,9.07,32.79,23.62,51.52,28.76
			c19.03,5.23,39.46,4.71,58.76,5.59c5.9,0.27,13.97,5.15,17.59,3.55c2.95-1.31,2.03-11.81,5.1-14.84c1.45-1.43,11.72-2.55,13.14-4
			c-6.01-13.11-21.62-24.49-22.55-38.45c-1.02-15.29,10.86-34.93,19.49-53.16c8.07-17.04,17.99-32.57,35.98-38.86
			c18.54-6.48,38.12-6.33,49.41,6.11c15.86,17.46,14.95,49.62,6.39,68.15c-10.6,22.97-31.44,41.23-46.96,60.93
			c5.71,6.81,17.09,13.58,24.73,19.19c25.67,18.84,54.07,42.23,79.32,48.33c13.7,3.31,34.34,1.19,47.47-1.92
			c9.94-2.35,29.68-15.98,30.37-23.01c2.08-21.25-7.51-42.55-1.98-61.38c5.89-20.06,21.13-35.54,29.34-53.76
			c8.5-18.85,17.44-36.7,26.63-54.6c11.52-22.45,12.82-49.07,22.38-71.79c9.36-22.27,8.72-46.38,13.66-71.84
			c2.19-11.25,9.99-21.72,11.97-33.03c3.45-19.68,1.22-41.2,5.71-60.86c4.49-19.65,30.7-32.7,38.18-51.36
			c7.4-18.46-3.03-47.67,9.19-64.22c17.76-24.05,16.83-32.99,46.44-37.04c21.32-2.92,12.59,17.29,14.16,38.75
			c1.35-1.19-1.54,7.95-0.14,6.68c6.71-6.13,9.67-13.39,19.56-17.72c12.76-5.59,22.58-15.29,36.61-9.55
			c11.83,4.84,26.36,16.64,32.45,40.57c3.41,13.39,16.38,33.23,11.06,56.06c-2.64,11.3-17.35,19.73-20.95,30.7
			c0.51-0.36-4.19-8.24-3.68-8.6c20.74-14.68,41.67-26.77,60.24-45.52c22.56-22.78,46.16-47.15,76.17-65.59
			c28.27-17.37,58.88-31.05,87.73-45.13c25.07-12.24,45.97-33.11,70.08-47.29c10.63-6.25,23.21-9.45,33.6-16.06
			c19.55-12.44,42.76-21.12,64.47-31.69c16.53-8.05,35.67-9.98,52.22-16.34c27.53-10.58,45.27-33.24,67.42-49.08
			c6.46-4.62,11.84-9.93,18.66-15.5c24.05-19.61,68.51-38.31,104.4-36.75c12.94,16.54-11.73,27.78-9.14,48.62
			c7.09,0.31,7.45-6.02,9.18-7.85c-3.99,4.25-7.68,33.08-14.17,43.49c-6.35,10.18-18.68,9.06-20.73,11.71
			c-6.66,8.61-19.09,11.57-26.06,19.32c-8.93,9.92-5.6,29.04-12.41,39.03c-10.96,16.08-22.91,23.36-33.41,41
			c32.56-9.88,57.22-20.65,88.93-33.93c5.2-4.46,15.41-1.14,15.29-7.99c-0.04-2.34-4.42-4.37-1.35-10.22
			c3.06-5.82-0.34-19.37,6.55-21.91c11.93-4.41,26.29,5.73,38.24,11.86c11.95,6.13,22.61,13.52,26,25.78
			c2.41,8.72,19.77,14.73,15.9,22.91c-3.87,8.18-24.66-13.03-32.94-9.36c-8.2,3.64-22.68,15.77-31.21,19.48
			c-3.42,13.26,0.89,16.76,1.14,30.45c0.48,25.93,3.68,45.95,11.82,69.41c-13.58,16.02-8.12,14.96-28.12,8.56
			c-10.33-29.76-24.71-49.34-25.23-77.2c-0.1-5.31,14.82-6.53,9.52-6.93c-22.03,8.94-48.09,2.5-71,10.07
			c-23.07,7.62-40.53,35.62-63.66,40.52c-23.53,4.99-39.86,22.58-53.84,3.01c-13.98-19.57,19.94-22.16,32.28-42.8
			c4.49-7.51-2.19-21.62,2.51-29.61c14.67-24.92,48.7-38.59,64.72-62.09c8.41-12.33,10.84-27.49,20.31-38.01
			c2.89-3.21,1.05-12.53,3.78-15.64c-5.03,4.05-13.58,4.7-18.86,8.48c-26.51,18.96-51.66,36.75-80.44,47.82
			c-16.44,6.32-31.6,13.11-46.51,20.37c-19.56,9.52-31.57,30.99-50.98,43.34c-10.69,6.8-24.63,9.79-35.89,16.41
			c-25.51,15.01-51.57,30.58-77.36,43.17c-27.95,13.64-67.99,7.78-94.53,24.09c-25.72,15.81-44.14,43.01-65.92,64.99
			c-19.02,19.21-26.54,54.29-50.27,71.08c-6.33,4.48-27.17-12.41-33.46-8.33c-18.31,11.92-29.63,39.04-40.29,54.61
			c-20.73-3.31-25.06-9.27-36.42-26.92c10.02-16.21,21.98-33.97,29.2-51.48c7.22-17.51,6.23-37.41,10.56-55.97
			c2.9-12.43,16.6-23.12,15.26-31c-1.59-9.34-13.06-10.61-17.17-12.29c-5.88-2.41-8.81-4.52-21.72,7.28
			c-5.83,5.33-6.32,21.15-14.71,25.89c-7.95,4.5-16.74,3.73-25.63,1.97c-11.43,20.04-32.42,34.17-38.38,57.57
			c-5.61,22.04,10.6,49.42,6.44,73.17c-2.01,11.5-8.1,22.85-10.36,34.49c-5.38,27.69-31.25,47.48-41.07,71.22
			c-10.51,25.39-22.85,48.12-34.82,71.43c-13.01,25.34-14.33,55.54-24.41,81.36c-9.87,25.29-15.98,51.27-18.86,80.64
			c-2.45,24.96-27.18,44.78-54.8,51.32C832.09,964.65,825.35,963.94,818.33,963.94z M690.53,767.46c-0.62,0.13-7.94-8.4-8.97-8.04
			c-12.57,4.4-9.72,41.4-8.52,59.5c0.1,1.46-15.82-1.49-15.62-0.03c8.13-12.15,32.16-15.12,38.34-28.51
			C698.8,783.8,691.4,770.74,690.53,767.46z M124.33,268.06c-8.17,9.06-17.58,5.45-22.76,16.49c-2.58,5.5,8.61-5.26,13.02-9.45
			C116.43,270.98,122.5,271.81,124.33,268.06z"/>
		<path class="st2" d="M818.33,963.94c-14.45,0-25.73-10.11-38.13-13.11c-29.06-7.03-74.68,0.12-106.37-23.14
			c-8.76-6.43-12.49-13.21-19.43-20.83c-5.45,5.29-15.1-7.53-23.79-3.69c-11.56,5.11-19.19,25.96-30.22,25.46
			c-22.63-1.03-47.63-3.59-69.39-9.54c-21.8-5.95-37.74-29.55-57.78-39.97c-20.04-10.42-33.85-27.6-51.24-42.03
			c-17.35-14.4-48.41-15.79-62.24-33.72c-17.32-22.45-35.86-50.09-52.2-84.75c-10.81-22.94,1.95-55.71-6.7-79.52
			c-8.66-23.83-23.32-45-29.77-69.51c-6.45-24.51-26.28-46.44-30.49-71.43c-4.2-24.99,0.62-42.02-1.3-67.3
			c-22.72,20.11-41.57-1.88-58.89-6.32c-18.28-4.69-59.68,7.93-75.99-14.74c-11.01-15.31,4.02-46.34,6.88-70.08
			c-11.15,4.2-33.17,9.5-46.54,2.31c-3.56-1.92-6.66,1.13-9.29-1.94c-2.64-3.07-1.08-4.98-2.43-8.8
			c-9.65-27.18,11.87-51.81,20.27-62.05c13.18-16.08,6.19-21.81,19.37-37.89c5.02-6.12,22.8-1.27,38.25-3.44
			c9.12-1.28,11.66-0.86,20.53,4.77c3.83,2.43,16.62-15.02,19.67-11.64c5.48-0.6,3.22,22.06,7.88,23.75
			c4.59,1.66,0.79-1.63,4.26,1.81c3.46,3.43,0.14-0.33,1.84,4.24c3.52,9.52,9.38,17.55-14.26,36.31
			c-3.02,7.13-5.97,14.57-11.68,19.63c-4.3,3.8,5.16,18.38,0.91,20.76c-2.36,7.14-21.43,6.83-22.73,14.37
			c-1.84,10.62-5.58,34.39,0.99,43.52c6.84,9.51,31.3,12.96,47.71,17.17c8.38,2.15,39.63,3.73,61.61-52.59
			c0.12-8.76-12.96-20.66-12.56-29.41c0.29-6.48,6.91-3.8,10.57-9.16c3.66-5.36,1.27-4.89,7.19-7.53
			c8.88-3.95,13.28,1.83,20.45,8.23c9.78,8.73,12.33,16.49,9.26,26.25c-1.48,4.7-5.06,10.67-7.05,16.2
			c-0.1,23.46,15.46,46.52,17.45,69.88c1.99,23.37-2.16,47.08,1.89,70.17c4.05,23.1-3.83,49.31,2.24,71.96
			c6.07,22.64,16.97,44.7,25.03,66.73c8.05,22.01,27.82,39.37,37.83,60.59c15.01,31.84,34.28,50.97,49.7,70.96
			c11.8,15.31,17.23,35.67,32.43,48.25c14.96,12.38,32.97,19.91,50.39,28.97c17.43,9.07,32.79,23.62,51.52,28.76
			c19.03,5.23,39.46,4.71,58.76,5.59c5.9,0.27,13.97,5.15,17.59,3.55c2.95-1.31,2.03-11.81,5.1-14.84c1.45-1.43,11.72-2.55,13.14-4
			c-6.01-13.11-21.62-24.49-22.55-38.45c-1.02-15.29,10.86-34.93,19.49-53.16c8.07-17.04,17.99-32.57,35.98-38.86
			c18.54-6.48,38.12-6.33,49.41,6.11c15.86,17.46,14.95,49.62,6.39,68.15c-10.6,22.97-31.44,41.23-46.96,60.93
			c5.71,6.81,17.09,13.58,24.73,19.19c25.67,18.84,54.07,42.23,79.32,48.33c13.7,3.31,34.34,1.19,47.47-1.92
			c9.94-2.35,29.68-15.98,30.37-23.01c2.08-21.25-7.51-42.55-1.98-61.38c5.89-20.06,21.13-35.54,29.34-53.76
			c8.5-18.85,17.44-36.7,26.63-54.6c11.52-22.45,12.82-49.07,22.38-71.79c9.36-22.27,8.72-46.38,13.66-71.84
			c2.19-11.25,9.99-21.72,11.97-33.03c3.45-19.68,1.22-41.2,5.71-60.86c4.49-19.65,30.7-32.7,38.18-51.36
			c7.4-18.46-3.03-47.67,9.19-64.22c17.76-24.05,16.83-32.99,46.44-37.04c21.32-2.92,12.59,17.29,14.16,38.75
			c1.35-1.19-1.54,7.95-0.14,6.68c6.71-6.13,9.67-13.39,19.56-17.72c12.76-5.59,22.58-15.29,36.61-9.55
			c11.83,4.84,26.36,16.64,32.45,40.57c3.41,13.39,16.38,33.23,11.06,56.06c-2.64,11.3-17.35,19.73-20.95,30.7
			c0.51-0.36-4.19-8.24-3.68-8.6c20.74-14.68,41.67-26.77,60.24-45.52c22.56-22.78,46.16-47.15,76.17-65.59
			c28.27-17.37,58.88-31.05,87.73-45.13c25.07-12.24,45.97-33.11,70.08-47.29c10.63-6.25,23.21-9.45,33.6-16.06
			c19.55-12.44,42.76-21.12,64.47-31.69c16.53-8.05,35.67-9.98,52.22-16.34c27.53-10.58,45.27-33.24,67.42-49.08
			c6.46-4.62,11.84-9.93,18.66-15.5c24.05-19.61,68.51-38.31,104.4-36.75c12.94,16.54-11.73,27.78-9.14,48.62
			c7.09,0.31,7.45-6.02,9.18-7.85c-3.99,4.25-7.68,33.08-14.17,43.49c-6.35,10.18-18.68,9.06-20.73,11.71
			c-6.66,8.61-19.09,11.57-26.06,19.32c-8.93,9.92-5.6,29.04-12.41,39.03c-10.96,16.08-22.91,23.36-33.41,41
			c32.56-9.88,57.22-20.65,88.93-33.93c5.2-4.46,15.41-1.14,15.29-7.99c-0.04-2.34-4.42-4.37-1.35-10.22
			c3.06-5.82-0.34-19.37,6.55-21.91c11.93-4.41,26.29,5.73,38.24,11.86c11.95,6.13,22.61,13.52,26,25.78
			c2.41,8.72,19.77,14.73,15.9,22.91c-3.87,8.18-24.66-13.03-32.94-9.36c-8.2,3.64-22.68,15.77-31.21,19.48
			c-3.42,13.26,0.89,16.76,1.14,30.45c0.48,25.93,3.68,45.95,11.82,69.41c-13.58,16.02-8.12,14.96-28.12,8.56
			c-10.33-29.76-24.71-49.34-25.23-77.2c-0.1-5.31,14.82-6.53,9.52-6.93c-22.03,8.94-48.09,2.5-71,10.07
			c-23.07,7.62-40.53,35.62-63.66,40.52c-23.53,4.99-39.86,22.58-53.84,3.01c-13.98-19.57,19.94-22.16,32.28-42.8
			c4.49-7.51-2.19-21.62,2.51-29.61c14.67-24.92,48.7-38.59,64.72-62.09c8.41-12.33,10.84-27.49,20.31-38.01
			c2.89-3.21,1.05-12.53,3.78-15.64c-5.03,4.05-13.58,4.7-18.86,8.48c-26.51,18.96-51.66,36.75-80.44,47.82
			c-16.44,6.32-31.6,13.11-46.51,20.37c-19.56,9.52-31.57,30.99-50.98,43.34c-10.69,6.8-24.63,9.79-35.89,16.41
			c-25.51,15.01-51.57,30.58-77.36,43.17c-27.95,13.64-67.99,7.78-94.53,24.09c-25.72,15.81-44.14,43.01-65.92,64.99
			c-19.02,19.21-26.54,54.29-50.27,71.08c-6.33,4.48-27.17-12.41-33.46-8.33c-18.31,11.92-29.63,39.04-40.29,54.61
			c-20.73-3.31-25.06-9.27-36.42-26.92c10.02-16.21,21.98-33.97,29.2-51.48c7.22-17.51,6.23-37.41,10.56-55.97
			c2.9-12.43,16.6-23.12,15.26-31c-1.59-9.34-13.06-10.61-17.17-12.29c-5.88-2.41-8.81-4.52-21.72,7.28
			c-5.83,5.33-6.32,21.15-14.71,25.89c-7.95,4.5-16.74,3.73-25.63,1.97c-11.43,20.04-32.42,34.17-38.38,57.57
			c-5.61,22.04,10.6,49.42,6.44,73.17c-2.01,11.5-8.1,22.85-10.36,34.49c-5.38,27.69-31.25,47.48-41.07,71.22
			c-10.51,25.39-22.85,48.12-34.82,71.43c-13.01,25.34-14.33,55.54-24.41,81.36c-9.87,25.29-15.98,51.27-18.86,80.64
			c-2.45,24.96-27.18,44.78-54.8,51.32C832.09,964.65,825.35,963.94,818.33,963.94z M690.53,767.46c-0.62,0.13-7.94-8.4-8.97-8.04
			c-12.57,4.4-9.72,41.4-8.52,59.5c0.1,1.46-15.82-1.49-15.62-0.03c8.13-12.15,32.16-15.12,38.34-28.51
			C698.8,783.8,691.4,770.74,690.53,767.46z M124.33,268.06c-8.17,9.06-17.58,5.45-22.76,16.49c-2.58,5.5,8.61-5.26,13.02-9.45
			C116.43,270.98,122.5,271.81,124.33,268.06z"/>
	</g>
</g>
</svg>
