<?xml version="1.0" encoding="UTF-8"?>
<svg id="Layer_1" data-name="Layer 1" xmlns="http://www.w3.org/2000/svg" xmlns:xlink="http://www.w3.org/1999/xlink" viewBox="0 0 1920 1080">
  <defs>
    <style>
      .cls-1 {
        stroke-width: 3.69px;
      }

      .cls-1, .cls-2 {
        fill: none;
        stroke: #8b8332;
        stroke-miterlimit: 10;
      }

      .cls-2 {
        stroke-width: 3.67px;
      }

      .cls-3 {
        opacity: .9;
      }

      .cls-4, .cls-5, .cls-6 {
        stroke-width: 0px;
      }

      .cls-5 {
        fill: #d0dbdc;
      }

      .cls-6 {
        fill: #8b8332;
      }
    </style>
    <symbol id="Anchor_2" data-name="Anchor 2" viewBox="0 0 15 15">
      <g>
        <path class="cls-6" d="M7.5,13c-1.47,0-2.85-.57-3.89-1.61-1.04-1.04-1.61-2.42-1.61-3.89s.57-2.85,1.61-3.89c1.04-1.04,2.42-1.61,3.89-1.61s2.85.57,3.89,1.61c1.04,1.04,1.61,2.42,1.61,3.89s-.57,2.85-1.61,3.89c-1.04,1.04-2.42,1.61-3.89,1.61Z"/>
        <path class="cls-6" d="M7.5,4c.93,0,1.81.36,2.48,1.03s1.02,1.54,1.02,2.47-.36,1.81-1.03,2.47c-.66.66-1.54,1.02-2.47,1.02s-1.81-.36-2.47-1.02c-.66-.66-1.03-1.54-1.03-2.47s.36-1.81,1.03-2.48,1.54-1.02,2.47-1.02M7.5,0c-1.92,0-3.84.73-5.3,2.2-2.93,2.93-2.93,7.68,0,10.61,1.46,1.46,3.38,2.2,5.3,2.2s3.84-.73,5.3-2.2c2.93-2.93,2.93-7.68,0-10.61-1.46-1.46-3.38-2.2-5.3-2.2h0Z"/>
      </g>
    </symbol>
  </defs>
  <path class="cls-4" d="M1005.94,947.71s0,0,0-.01c-.02-.02-.05-.03-.07-.05l.07.06Z"/>
  <g>
    <path class="cls-6" d="M1387.89,875.98v-10.87c0-.32,0-.65.01-1,0-.34.02-.71.04-1.09-.54.53-1.16.98-1.86,1.36s-1.41.64-2.15.8l-.48-2.23c.34-.05.73-.16,1.18-.34.45-.18.91-.4,1.39-.67.48-.27.92-.56,1.32-.88.4-.31.71-.62.94-.92h2.16v15.84h-2.54Z"/>
    <path class="cls-6" d="M1388.07,881.08v-1.87c1.52-1.09,2.8-2.05,3.83-2.88,1.03-.83,1.86-1.6,2.48-2.3.62-.7,1.08-1.37,1.36-2,.28-.63.42-1.28.42-1.93,0-.85-.26-1.54-.79-2.06-.53-.53-1.26-.79-2.21-.79-.99,0-1.78.33-2.36,1s-.92,1.57-1,2.72l-2.23-1.03c.11-1.01.41-1.88.89-2.62.48-.74,1.13-1.3,1.96-1.71.82-.4,1.78-.6,2.87-.6.9,0,1.68.13,2.36.38s1.25.61,1.72,1.07c.46.46.82.99,1.07,1.6.25.61.37,1.26.37,1.94,0,1.01-.25,1.98-.74,2.92s-1.28,1.89-2.35,2.87c-1.07.98-2.48,2.03-4.22,3.14v.05c.19-.03.46-.05.79-.06l1.01-.02c.34,0,.61-.01.82-.01h4.99v2.21h-11.02Z"/>
    <path class="cls-6" d="M1386.71,880.91c-1.49,0-2.78-.33-3.88-1s-1.84-1.6-2.24-2.8l2.5-1.18c.14.58.37,1.07.67,1.49.3.42.7.73,1.2.95s1.11.32,1.85.32c.62,0,1.15-.11,1.58-.34.43-.22.76-.54,1-.94.23-.4.35-.86.35-1.37s-.1-.97-.3-1.32c-.2-.35-.51-.61-.94-.77s-.96-.24-1.62-.24c-.19,0-.39,0-.59.01-.2,0-.41.03-.64.06v-2.16c.14.02.28.03.42.04.14,0,.27.01.4.01,1.04,0,1.78-.21,2.23-.62.45-.42.67-1.06.67-1.94,0-.75-.23-1.33-.68-1.73-.46-.4-1.11-.6-1.96-.6s-1.56.2-2.05.61c-.49.41-.86,1-1.12,1.76l-2.35-.98c.22-.74.6-1.38,1.13-1.92.53-.54,1.18-.96,1.96-1.26.78-.3,1.63-.44,2.55-.44,1.14,0,2.08.18,2.84.55.76.37,1.33.87,1.7,1.51.38.64.56,1.35.56,2.14,0,.61-.09,1.14-.26,1.6-.18.46-.41.85-.71,1.18-.3.33-.62.58-.96.76-.34.18-.69.3-1.04.36v.05c.46.02.89.11,1.28.28.39.17.74.4,1.06.7s.56.65.73,1.07c.18.42.26.87.26,1.37,0,.96-.24,1.8-.72,2.52-.48.72-1.14,1.28-1.98,1.68-.84.4-1.81.6-2.92.6Z"/>
    <path class="cls-6" d="M1696.95,971.26v-3.96h-7.73v-1.75c.03-.08.08-.18.16-.29s.16-.24.25-.38l6.6-9.46h3.14v9.89h2.69v1.99h-2.69v3.96h-2.42ZM1691.62,965.3h5.33v-5.59c0-.38.01-.78.04-1.19.03-.41.04-.81.06-1.21h-.05c-.18.38-.4.8-.68,1.26-.28.46-.54.85-.78,1.19l-3.74,5.33s-.06.06-.08.1c-.02.03-.05.07-.08.12Z"/>
    <path class="cls-6" d="M1760.29,938.01c-1.41,0-2.56-.3-3.47-.91s-1.62-1.49-2.15-2.64l2.4-1.25c.24.77.6,1.4,1.09,1.88s1.21.73,2.17.73c.67,0,1.24-.12,1.72-.37.47-.25.84-.6,1.09-1.06s.38-1,.38-1.64c0-.67-.12-1.23-.36-1.68-.24-.45-.58-.79-1.03-1.02-.45-.23-1.01-.35-1.68-.35-.46,0-.9.05-1.3.14s-.76.24-1.08.44c-.32.2-.6.46-.84.78l-2.11-.41.96-8.74h9.22v2.21h-7.18l-.58,4.46-.05.26h.05c.37-.4.84-.71,1.43-.94s1.28-.34,2.08-.34c1.02,0,1.9.21,2.64.64.74.42,1.31,1.01,1.73,1.76s.62,1.62.62,2.62c0,.86-.14,1.63-.43,2.3s-.7,1.24-1.22,1.7c-.53.46-1.14.81-1.84,1.04-.7.23-1.45.35-2.27.35Z"/>
    <path class="cls-6" d="M1783.54,882.86c.85,0,1.6.12,2.26.35s1.23.6,1.72,1.09.89,1.14,1.21,1.94l-2.26,1.08c-.22-.69-.58-1.23-1.07-1.63-.49-.4-1.16-.6-2.03-.6-.62,0-1.18.15-1.66.46-.48.3-.89.73-1.22,1.28s-.59,1.2-.77,1.94c-.18.74-.26,1.55-.26,2.41v.43l.1.05c.18-.64.49-1.16.95-1.55.46-.39.97-.68,1.55-.88.58-.19,1.14-.29,1.7-.29,1.06,0,1.98.2,2.76.61.78.41,1.4.99,1.84,1.74.44.75.66,1.65.66,2.69s-.23,1.97-.7,2.75-1.11,1.38-1.93,1.8c-.83.42-1.81.64-2.96.64-1.34,0-2.49-.34-3.43-1.01-.95-.67-1.67-1.62-2.16-2.83-.5-1.22-.74-2.64-.74-4.27,0-1.81.28-3.32.85-4.54s1.34-2.13,2.32-2.75c.98-.62,2.07-.92,3.29-.92ZM1783.37,891.09c-.61,0-1.14.12-1.61.37-.46.25-.83.59-1.09,1.02-.26.43-.4.94-.4,1.51s.14,1.06.42,1.51.65.8,1.12,1.07c.46.26.98.4,1.56.4.98,0,1.74-.26,2.28-.79.54-.53.82-1.26.82-2.18,0-.59-.12-1.11-.36-1.55s-.59-.78-1.04-1.01c-.46-.23-1.02-.35-1.69-.35Z"/>
    <path class="cls-6" d="M1798.87,807.21h12.07v2.13c-1.33,1.38-2.4,2.79-3.22,4.24-.82,1.45-1.4,2.95-1.76,4.51-.36,1.56-.54,3.21-.54,4.96h-2.59c0-1.76.22-3.48.66-5.15.44-1.67,1.11-3.27,2.02-4.8.9-1.53,2.04-2.96,3.42-4.31l.48.65h-10.54v-2.23Z"/>
    <path class="cls-6" d="M1741.57,771.05c1.07,0,2,.17,2.8.52.79.34,1.4.83,1.84,1.45.43.62.65,1.38.65,2.26,0,.82-.2,1.53-.59,2.15-.39.62-.96,1.08-1.71,1.4v.02c.91.34,1.63.84,2.17,1.5.54.66.8,1.48.8,2.46s-.24,1.75-.73,2.42c-.49.67-1.18,1.19-2.06,1.56-.89.37-1.94.55-3.16.55s-2.27-.19-3.16-.55c-.89-.37-1.58-.89-2.08-1.56s-.74-1.48-.74-2.42.26-1.78.79-2.45c.53-.67,1.26-1.18,2.21-1.51v-.02c-.72-.3-1.29-.76-1.7-1.38-.42-.62-.62-1.34-.62-2.17,0-.88.22-1.63.65-2.26.43-.62,1.05-1.11,1.85-1.45.8-.34,1.74-.52,2.81-.52ZM1741.57,785.19c.7,0,1.3-.1,1.8-.31.5-.21.88-.51,1.15-.91s.41-.86.41-1.39c0-.56-.14-1.04-.42-1.43-.28-.39-.67-.69-1.16-.9s-1.09-.31-1.78-.31-1.26.1-1.78.31c-.51.21-.91.51-1.19.9-.28.39-.42.87-.42,1.43,0,.53.14.99.41,1.39.27.4.66.7,1.18.91.51.21,1.11.31,1.8.31ZM1741.57,773.21c-.85,0-1.52.21-2.03.62s-.76.98-.76,1.7.26,1.28.77,1.69c.51.41,1.18.61,2.02.61s1.5-.2,2-.61.76-.97.76-1.69-.25-1.29-.74-1.7-1.17-.62-2.02-.62Z"/>
    <path class="cls-6" d="M1756.93,642.35c1.36,0,2.51.34,3.44,1.01s1.64,1.62,2.11,2.83c.47,1.22.71,2.65.71,4.3,0,1.82-.25,3.34-.74,4.55-.5,1.21-1.21,2.12-2.14,2.72s-2.05.91-3.36.91-2.5-.3-3.46-.89c-.96-.59-1.68-1.48-2.16-2.66l2.42-1.13c.22.75.6,1.35,1.12,1.8.52.45,1.23.67,2.12.67.74,0,1.35-.14,1.85-.43.5-.29.89-.7,1.19-1.25.3-.54.51-1.2.64-1.97.13-.77.19-1.63.19-2.59v-.26h-.1c-.18.64-.49,1.16-.95,1.56-.46.4-.97.69-1.55.88-.58.18-1.15.28-1.73.28-1.03,0-1.93-.2-2.72-.61-.79-.41-1.41-.98-1.86-1.72-.45-.74-.67-1.61-.67-2.62,0-1.1.23-2.06.68-2.86.46-.8,1.1-1.42,1.94-1.86s1.84-.66,3.01-.66ZM1756.95,644.61c-1.01,0-1.78.27-2.32.82-.54.54-.8,1.3-.8,2.28,0,.87.28,1.54.85,2.03.57.49,1.32.73,2.27.73.61,0,1.14-.12,1.61-.37.46-.25.83-.59,1.09-1.02.26-.43.4-.94.4-1.51,0-.61-.13-1.13-.4-1.57-.26-.44-.63-.78-1.09-1.02-.46-.24-1-.36-1.61-.36Z"/>
    <g>
      <path class="cls-6" d="M1582.83,742.87v-10.87c0-.32,0-.65.01-1,0-.34.02-.71.04-1.09-.54.53-1.16.98-1.86,1.36-.7.38-1.41.64-2.15.8l-.48-2.23c.34-.05.73-.16,1.18-.34.45-.18.91-.4,1.39-.67.48-.27.92-.56,1.32-.88.4-.31.71-.62.94-.92h2.16v15.84h-2.54Z"/>
      <path class="cls-6" d="M1595.14,743.11c-1.9,0-3.4-.69-4.48-2.08-1.08-1.38-1.62-3.41-1.62-6.08s.54-4.7,1.62-6.08c1.08-1.38,2.57-2.08,4.48-2.08s3.42.69,4.5,2.08c1.08,1.38,1.62,3.41,1.62,6.08s-.54,4.7-1.62,6.08c-1.08,1.38-2.58,2.08-4.5,2.08ZM1595.14,740.92c.77,0,1.41-.22,1.93-.66.52-.44.91-1.1,1.18-1.99s.4-2,.4-3.32-.13-2.44-.4-3.32c-.26-.89-.66-1.55-1.18-1.99-.52-.44-1.16-.66-1.93-.66s-1.41.22-1.93.66c-.52.44-.91,1.1-1.16,1.99-.26.89-.38,2-.38,3.32s.13,2.44.38,3.32.64,1.55,1.16,1.99c.52.44,1.16.66,1.93.66Z"/>
    </g>
    <g>
      <path class="cls-6" d="M1666.52,745v-10.87c0-.32,0-.65.01-1,0-.34.02-.71.04-1.09-.54.53-1.16.98-1.86,1.36-.7.38-1.41.64-2.15.8l-.48-2.23c.34-.05.73-.16,1.18-.34.45-.18.91-.4,1.39-.67.48-.27.92-.56,1.32-.88.4-.31.71-.62.94-.92h2.16v15.84h-2.54Z"/>
      <path class="cls-6" d="M1676.17,745v-10.87c0-.32,0-.65.01-1,0-.34.02-.71.04-1.09-.54.53-1.16.98-1.86,1.36-.7.38-1.41.64-2.15.8l-.48-2.23c.34-.05.73-.16,1.18-.34.45-.18.91-.4,1.39-.67.48-.27.92-.56,1.32-.88.4-.31.71-.62.94-.92h2.16v15.84h-2.54Z"/>
    </g>
    <g>
      <path class="cls-6" d="M1542.95,679.3v-10.87c0-.32,0-.65.01-1,0-.34.02-.71.04-1.09-.54.53-1.16.98-1.86,1.36-.7.38-1.41.64-2.15.8l-.48-2.23c.34-.05.73-.16,1.18-.34.45-.18.91-.4,1.39-.67.48-.27.92-.56,1.32-.88.4-.31.71-.62.94-.92h2.16v15.84h-2.54Z"/>
      <path class="cls-6" d="M1549.41,679.3v-1.87c1.52-1.09,2.8-2.05,3.83-2.88,1.03-.83,1.86-1.6,2.48-2.3.62-.7,1.08-1.37,1.36-2,.28-.63.42-1.28.42-1.93,0-.85-.26-1.54-.79-2.06-.53-.53-1.26-.79-2.21-.79-.99,0-1.78.33-2.36,1-.58.66-.92,1.57-1,2.72l-2.23-1.03c.11-1.01.41-1.88.89-2.62s1.13-1.3,1.96-1.7c.82-.4,1.78-.6,2.87-.6.9,0,1.68.13,2.36.38s1.25.61,1.72,1.07c.46.46.82.99,1.07,1.6.25.61.37,1.26.37,1.95,0,1.01-.25,1.98-.74,2.92-.5.94-1.28,1.89-2.35,2.87-1.07.98-2.48,2.02-4.22,3.14v.05c.19-.03.46-.05.79-.06s.67-.02,1.01-.02c.34,0,.61-.01.82-.01h4.99v2.21h-11.02Z"/>
    </g>
    <g>
      <path class="cls-6" d="M1450.83,818.74v-10.87c0-.32,0-.65.01-1s.02-.71.04-1.09c-.54.53-1.16.98-1.86,1.36-.7.38-1.41.64-2.15.8l-.48-2.23c.34-.05.73-.16,1.18-.34s.91-.4,1.39-.67c.48-.27.92-.56,1.32-.88.4-.31.71-.62.94-.92h2.16v15.84h-2.54Z"/>
      <path class="cls-6" d="M1462.63,818.98c-1.49,0-2.78-.33-3.88-1s-1.84-1.6-2.24-2.79l2.5-1.18c.14.58.37,1.07.67,1.49.3.42.7.73,1.2.95.5.21,1.11.32,1.85.32.62,0,1.15-.11,1.58-.34.43-.22.76-.54,1-.94.23-.4.35-.86.35-1.37s-.1-.97-.3-1.32c-.2-.35-.51-.61-.94-.77s-.96-.24-1.62-.24c-.19,0-.39,0-.59.01-.2,0-.41.03-.63.06v-2.16c.14.02.28.03.42.04.13,0,.27.01.4.01,1.04,0,1.78-.21,2.23-.62.45-.42.67-1.06.67-1.94,0-.75-.23-1.33-.68-1.73-.46-.4-1.11-.6-1.96-.6s-1.56.2-2.05.61-.86,1-1.12,1.76l-2.35-.98c.22-.74.6-1.38,1.13-1.92s1.18-.96,1.96-1.26c.78-.29,1.63-.44,2.56-.44,1.14,0,2.08.18,2.84.55.76.37,1.33.87,1.71,1.51.38.64.56,1.35.56,2.14,0,.61-.09,1.14-.26,1.6s-.41.85-.71,1.18c-.3.33-.62.58-.96.76s-.69.3-1.04.36v.05c.46.02.89.11,1.28.28s.74.4,1.06.7c.31.3.55.65.73,1.07s.26.87.26,1.37c0,.96-.24,1.8-.72,2.52-.48.72-1.14,1.28-1.98,1.68-.84.4-1.81.6-2.92.6Z"/>
    </g>
    <g>
      <path class="cls-6" d="M1498.28,804.8v-10.87c0-.32,0-.65.01-1,0-.34.02-.71.04-1.09-.54.53-1.16.98-1.86,1.36-.7.38-1.41.64-2.15.8l-.48-2.23c.34-.05.73-.16,1.18-.34.45-.18.91-.4,1.39-.67s.92-.56,1.32-.88c.4-.31.71-.62.94-.92h2.16v15.84h-2.54Z"/>
      <path class="cls-6" d="M1511.84,804.8v-3.96h-7.73v-1.75c.03-.08.08-.18.16-.29.07-.11.16-.24.25-.38l6.6-9.46h3.14v9.89h2.69v1.99h-2.69v3.96h-2.42ZM1506.51,798.85h5.33v-5.59c0-.38.01-.78.04-1.19s.04-.81.06-1.21h-.05c-.18.38-.4.8-.68,1.26-.28.46-.54.85-.78,1.19l-3.74,5.33s-.06.06-.08.1c-.02.03-.05.07-.08.12Z"/>
    </g>
    <g>
      <path class="cls-6" d="M1539.11,757.42v-10.87c0-.32,0-.65.01-1,0-.34.02-.71.04-1.09-.54.53-1.16.98-1.86,1.36-.7.38-1.41.64-2.15.8l-.48-2.23c.34-.05.73-.16,1.18-.34.45-.18.91-.4,1.39-.67.48-.27.92-.56,1.32-.88.4-.31.71-.62.94-.92h2.16v15.84h-2.54Z"/>
      <path class="cls-6" d="M1550.78,757.66c-1.41,0-2.56-.3-3.47-.91-.9-.61-1.62-1.49-2.15-2.64l2.4-1.25c.24.77.6,1.4,1.09,1.88s1.21.73,2.17.73c.67,0,1.24-.12,1.72-.37s.84-.6,1.09-1.06c.25-.46.38-1,.38-1.64s-.12-1.23-.36-1.68-.58-.79-1.03-1.02c-.45-.23-1.01-.35-1.68-.35-.46,0-.9.05-1.3.14-.4.1-.76.24-1.08.44s-.6.46-.84.78l-2.11-.41.96-8.74h9.22v2.21h-7.18l-.58,4.46-.05.26h.05c.37-.4.84-.71,1.43-.94.58-.22,1.28-.34,2.08-.34,1.02,0,1.9.21,2.64.64.74.42,1.31,1.01,1.73,1.76s.62,1.62.62,2.62c0,.87-.14,1.63-.43,2.3-.29.67-.7,1.24-1.22,1.7-.53.46-1.14.81-1.84,1.04-.7.23-1.45.35-2.27.35Z"/>
    </g>
    <g>
      <path class="cls-6" d="M1358.92,840.25v-10.87c0-.32,0-.65.01-1s.02-.71.04-1.09c-.54.53-1.16.98-1.86,1.36-.7.38-1.41.64-2.15.8l-.48-2.23c.34-.05.73-.16,1.18-.34.45-.18.91-.4,1.39-.67.48-.27.92-.56,1.32-.88.4-.31.71-.62.94-.92h2.16v15.84h-2.54Z"/>
      <path class="cls-6" d="M1371.59,824.17c.85,0,1.6.12,2.26.35.66.23,1.23.6,1.72,1.09.49.5.89,1.14,1.21,1.94l-2.26,1.08c-.22-.69-.58-1.23-1.07-1.63-.49-.4-1.16-.6-2.03-.6-.62,0-1.18.15-1.66.46-.48.3-.89.73-1.22,1.28-.34.55-.59,1.2-.77,1.94s-.26,1.55-.26,2.41v.43l.1.05c.18-.64.49-1.16.95-1.55.46-.39.97-.68,1.55-.88.58-.19,1.14-.29,1.7-.29,1.06,0,1.98.2,2.76.61.78.41,1.39.99,1.84,1.74.44.75.66,1.65.66,2.69s-.23,1.97-.7,2.75c-.46.78-1.11,1.38-1.93,1.8s-1.81.64-2.96.64c-1.34,0-2.49-.34-3.43-1.01s-1.67-1.62-2.16-2.83c-.5-1.21-.74-2.64-.74-4.27,0-1.81.28-3.32.85-4.54.57-1.22,1.34-2.13,2.32-2.75.98-.62,2.07-.92,3.29-.92ZM1371.43,832.4c-.61,0-1.14.12-1.61.37-.46.25-.83.59-1.09,1.02-.26.43-.4.94-.4,1.51s.14,1.06.42,1.51c.28.45.65.8,1.12,1.07.46.26.98.4,1.56.4.98,0,1.74-.26,2.28-.79.54-.53.82-1.26.82-2.18,0-.59-.12-1.11-.36-1.55-.24-.44-.59-.78-1.04-1.01-.46-.23-1.02-.35-1.69-.35Z"/>
    </g>
    <g>
      <path class="cls-6" d="M1395.44,841.79v-10.87c0-.32,0-.65.01-1,0-.34.02-.71.04-1.09-.54.53-1.16.98-1.86,1.36-.7.38-1.41.64-2.15.8l-.48-2.23c.34-.05.73-.16,1.18-.34.45-.18.91-.4,1.39-.67.48-.27.92-.56,1.32-.88.4-.31.71-.62.94-.92h2.16v15.84h-2.54Z"/>
      <path class="cls-6" d="M1401.13,825.95h12.07v2.13c-1.33,1.38-2.4,2.79-3.22,4.24-.82,1.45-1.4,2.95-1.76,4.51-.36,1.56-.54,3.21-.54,4.96h-2.59c0-1.76.22-3.48.66-5.15.44-1.67,1.11-3.27,2.02-4.8.9-1.53,2.04-2.96,3.42-4.31l.48.65h-10.54v-2.23Z"/>
    </g>
    <g>
      <path class="cls-6" d="M1361.46,861.78v-10.87c0-.32,0-.65.01-1,0-.34.02-.71.04-1.09-.54.53-1.16.98-1.86,1.36s-1.41.64-2.15.8l-.48-2.23c.34-.05.73-.16,1.18-.34.45-.18.91-.4,1.39-.67.48-.27.92-.56,1.32-.88.4-.31.71-.62.94-.92h2.16v15.84h-2.54Z"/>
      <path class="cls-6" d="M1373.68,845.72c1.07,0,2,.17,2.79.52.79.34,1.4.83,1.84,1.45.43.62.65,1.38.65,2.26,0,.82-.2,1.53-.59,2.15s-.96,1.08-1.72,1.4v.02c.91.34,1.64.84,2.17,1.5s.8,1.48.8,2.46-.24,1.75-.73,2.42c-.49.67-1.18,1.19-2.06,1.56-.89.37-1.94.55-3.16.55s-2.27-.19-3.16-.55c-.89-.37-1.58-.89-2.08-1.56s-.74-1.48-.74-2.42.26-1.78.79-2.45,1.26-1.18,2.21-1.51v-.02c-.72-.3-1.29-.76-1.7-1.38-.42-.62-.62-1.34-.62-2.17,0-.88.22-1.63.65-2.26.43-.62,1.05-1.11,1.85-1.45.8-.34,1.74-.52,2.81-.52ZM1373.68,859.86c.7,0,1.3-.1,1.8-.31.5-.21.88-.51,1.15-.91.27-.4.41-.86.41-1.39,0-.56-.14-1.04-.42-1.43-.28-.39-.67-.69-1.16-.9s-1.09-.31-1.78-.31-1.26.1-1.78.31c-.51.21-.91.51-1.19.9-.28.39-.42.87-.42,1.43,0,.53.14.99.41,1.39s.66.7,1.18.91,1.11.31,1.8.31ZM1373.68,847.88c-.85,0-1.52.21-2.03.62s-.76.98-.76,1.7.26,1.28.77,1.69,1.18.61,2.02.61,1.5-.2,2-.61.76-.97.76-1.69-.25-1.29-.74-1.7-1.17-.62-2.02-.62Z"/>
    </g>
    <g>
      <path class="cls-6" d="M1326.82,893.28v-10.87c0-.32,0-.65.01-1s.02-.71.04-1.09c-.54.53-1.16.98-1.86,1.36-.7.38-1.41.64-2.15.8l-.48-2.23c.34-.05.73-.16,1.18-.34s.91-.4,1.39-.67c.48-.27.92-.56,1.32-.88s.71-.62.94-.92h2.16v15.84h-2.54Z"/>
      <path class="cls-6" d="M1338.7,877.2c1.36,0,2.51.34,3.44,1.01.94.67,1.64,1.62,2.11,2.83.47,1.22.71,2.65.71,4.3,0,1.82-.25,3.34-.74,4.55-.5,1.21-1.21,2.12-2.14,2.72s-2.05.91-3.36.91-2.5-.3-3.46-.89-1.68-1.48-2.16-2.66l2.42-1.13c.22.75.6,1.35,1.12,1.8.52.45,1.23.67,2.12.67.74,0,1.35-.14,1.85-.43.5-.29.89-.71,1.19-1.25.3-.54.51-1.2.64-1.97.13-.77.19-1.63.19-2.59v-.26h-.1c-.18.64-.49,1.16-.95,1.56-.46.4-.97.69-1.55.88-.58.18-1.15.28-1.73.28-1.03,0-1.93-.2-2.72-.61s-1.41-.98-1.86-1.72c-.45-.74-.67-1.61-.67-2.62,0-1.1.23-2.06.68-2.86.46-.8,1.1-1.42,1.94-1.86s1.84-.66,3.01-.66ZM1338.72,879.46c-1.01,0-1.78.27-2.32.82-.54.54-.8,1.3-.8,2.28,0,.86.28,1.54.85,2.03.57.49,1.32.73,2.27.73.61,0,1.14-.12,1.61-.37.46-.25.83-.59,1.09-1.02s.4-.94.4-1.51c0-.61-.13-1.13-.4-1.57-.26-.44-.63-.78-1.09-1.02-.46-.24-1-.36-1.61-.36Z"/>
    </g>
    <g>
      <path class="cls-6" d="M1290.69,909.9v-1.87c1.52-1.09,2.79-2.05,3.83-2.88s1.86-1.6,2.48-2.3c.62-.7,1.08-1.37,1.36-2,.28-.63.42-1.28.42-1.93,0-.85-.26-1.54-.79-2.06s-1.26-.79-2.21-.79c-.99,0-1.78.33-2.37,1-.58.66-.92,1.57-1,2.72l-2.23-1.03c.11-1.01.41-1.88.89-2.62.48-.74,1.13-1.3,1.96-1.7.82-.4,1.78-.6,2.87-.6.9,0,1.68.13,2.36.38.68.26,1.25.61,1.72,1.07.46.46.82.99,1.07,1.6.25.61.37,1.26.37,1.95,0,1.01-.25,1.98-.74,2.92-.5.94-1.28,1.89-2.35,2.87-1.07.98-2.48,2.02-4.22,3.14v.05c.19-.03.46-.05.79-.06s.67-.02,1.01-.02c.34,0,.61-.01.82-.01h4.99v2.21h-11.02Z"/>
      <path class="cls-6" d="M1310.63,910.14c-1.9,0-3.4-.69-4.48-2.08-1.08-1.38-1.62-3.41-1.62-6.08s.54-4.7,1.62-6.08c1.08-1.38,2.57-2.08,4.48-2.08s3.42.69,4.5,2.08c1.08,1.38,1.62,3.41,1.62,6.08s-.54,4.7-1.62,6.08c-1.08,1.38-2.58,2.08-4.5,2.08ZM1310.63,907.95c.77,0,1.41-.22,1.93-.66s.91-1.1,1.18-1.99c.26-.89.4-2,.4-3.32s-.13-2.44-.4-3.32c-.26-.89-.66-1.55-1.18-1.99s-1.16-.66-1.93-.66-1.41.22-1.93.66c-.52.44-.91,1.1-1.16,1.99-.26.89-.38,2-.38,3.32s.13,2.44.38,3.32.64,1.55,1.16,1.99c.52.44,1.16.66,1.93.66Z"/>
    </g>
    <g>
      <path class="cls-6" d="M1329.37,935.35v-1.87c1.52-1.09,2.8-2.05,3.83-2.88,1.03-.83,1.86-1.6,2.48-2.3.62-.7,1.08-1.37,1.36-2,.28-.63.42-1.28.42-1.93,0-.85-.26-1.54-.79-2.06-.53-.53-1.26-.79-2.21-.79-.99,0-1.78.33-2.36,1-.58.66-.92,1.57-1,2.72l-2.23-1.03c.11-1.01.41-1.88.89-2.62s1.13-1.3,1.96-1.7,1.78-.6,2.87-.6c.9,0,1.68.13,2.36.38.68.26,1.25.61,1.71,1.07.46.46.82.99,1.07,1.6.25.61.37,1.26.37,1.95,0,1.01-.25,1.98-.74,2.92-.5.94-1.28,1.89-2.35,2.87-1.07.98-2.48,2.02-4.22,3.14v.05c.19-.03.46-.05.79-.06s.67-.02,1.01-.02c.34,0,.61-.01.82-.01h4.99v2.21h-11.02Z"/>
      <path class="cls-6" d="M1346.65,935.35v-10.87c0-.32,0-.65.01-1,0-.34.02-.71.04-1.09-.54.53-1.16.98-1.86,1.36s-1.41.64-2.15.8l-.48-2.23c.34-.05.73-.16,1.18-.34.45-.18.91-.4,1.39-.67.48-.27.92-.56,1.32-.88.4-.31.71-.62.94-.92h2.16v15.84h-2.54Z"/>
    </g>
    <g>
      <path class="cls-6" d="M1330.19,935.46v-1.87c1.52-1.09,2.79-2.05,3.83-2.88s1.86-1.6,2.48-2.3c.62-.7,1.08-1.37,1.36-2,.28-.63.42-1.28.42-1.93,0-.85-.26-1.54-.79-2.06s-1.26-.79-2.21-.79c-.99,0-1.78.33-2.37,1-.58.66-.92,1.57-1,2.72l-2.23-1.03c.11-1.01.41-1.88.89-2.62.48-.74,1.13-1.3,1.96-1.7.82-.4,1.78-.6,2.87-.6.9,0,1.68.13,2.36.38.68.26,1.25.61,1.72,1.07.46.46.82.99,1.07,1.6.25.61.37,1.26.37,1.95,0,1.01-.25,1.98-.74,2.92-.5.94-1.28,1.89-2.35,2.87-1.07.98-2.48,2.02-4.22,3.14v.05c.19-.03.46-.05.79-.06s.67-.02,1.01-.02c.34,0,.61-.01.82-.01h4.99v2.21h-11.02Z"/>
      <path class="cls-6" d="M1344.28,935.46v-1.87c1.52-1.09,2.79-2.05,3.83-2.88s1.86-1.6,2.48-2.3c.62-.7,1.08-1.37,1.36-2,.28-.63.42-1.28.42-1.93,0-.85-.26-1.54-.79-2.06s-1.26-.79-2.21-.79c-.99,0-1.78.33-2.37,1-.58.66-.92,1.57-1,2.72l-2.23-1.03c.11-1.01.41-1.88.89-2.62.48-.74,1.13-1.3,1.96-1.7.82-.4,1.78-.6,2.87-.6.9,0,1.68.13,2.36.38.68.26,1.25.61,1.72,1.07.46.46.82.99,1.07,1.6.25.61.37,1.26.37,1.95,0,1.01-.25,1.98-.74,2.92-.5.94-1.28,1.89-2.35,2.87-1.07.98-2.48,2.02-4.22,3.14v.05c.19-.03.46-.05.79-.06s.67-.02,1.01-.02c.34,0,.61-.01.82-.01h4.99v2.21h-11.02Z"/>
    </g>
    <g>
      <path class="cls-6" d="M1326.57,946.23v-1.87c1.52-1.09,2.79-2.05,3.83-2.88s1.86-1.6,2.48-2.3c.62-.7,1.08-1.37,1.36-2,.28-.63.42-1.28.42-1.93,0-.85-.26-1.54-.79-2.06s-1.26-.79-2.21-.79c-.99,0-1.78.33-2.37,1-.58.66-.92,1.57-1,2.72l-2.23-1.03c.11-1.01.41-1.88.89-2.62.48-.74,1.13-1.3,1.96-1.7.82-.4,1.78-.6,2.87-.6.9,0,1.68.13,2.36.38.68.26,1.25.61,1.72,1.07.46.46.82.99,1.07,1.6.25.61.37,1.26.37,1.95,0,1.01-.25,1.98-.74,2.92-.5.94-1.28,1.89-2.35,2.87-1.07.98-2.48,2.02-4.22,3.14v.05c.19-.03.46-.05.79-.06s.67-.02,1.01-.02c.34,0,.61-.01.82-.01h4.99v2.21h-11.02Z"/>
      <path class="cls-6" d="M1346.01,946.47c-1.49,0-2.78-.33-3.88-1-1.1-.66-1.84-1.6-2.24-2.8l2.5-1.18c.14.58.37,1.07.67,1.49s.7.73,1.2.95c.5.22,1.11.32,1.85.32.62,0,1.15-.11,1.58-.34.43-.22.76-.54,1-.94s.35-.86.35-1.37-.1-.97-.3-1.32c-.2-.35-.51-.61-.94-.77s-.96-.24-1.62-.24c-.19,0-.39,0-.59.01-.2,0-.41.03-.64.06v-2.16c.14.02.28.03.42.04.14,0,.27.01.4.01,1.04,0,1.78-.21,2.23-.62.45-.42.67-1.06.67-1.94,0-.75-.23-1.33-.68-1.73-.46-.4-1.11-.6-1.96-.6s-1.56.21-2.05.61c-.49.41-.86,1-1.12,1.76l-2.35-.98c.22-.74.6-1.38,1.13-1.92s1.18-.96,1.96-1.26c.78-.3,1.63-.44,2.56-.44,1.14,0,2.08.18,2.84.55.76.37,1.33.87,1.7,1.51.38.64.56,1.35.56,2.14,0,.61-.09,1.14-.26,1.6-.18.46-.41.85-.71,1.18-.3.33-.62.58-.96.76-.34.18-.69.3-1.04.36v.05c.46.02.89.11,1.29.28.39.17.74.4,1.05.7.31.3.56.65.73,1.07.18.42.26.87.26,1.37,0,.96-.24,1.8-.72,2.52-.48.72-1.14,1.28-1.98,1.68s-1.81.6-2.92.6Z"/>
    </g>
    <g>
      <path class="cls-6" d="M1360.11,949.48v-1.87c1.52-1.09,2.8-2.05,3.83-2.88,1.03-.83,1.86-1.6,2.48-2.3.62-.7,1.08-1.37,1.36-2,.28-.63.42-1.28.42-1.93,0-.85-.26-1.54-.79-2.06-.53-.53-1.26-.79-2.21-.79-.99,0-1.78.33-2.36,1s-.92,1.57-1,2.72l-2.23-1.03c.11-1.01.41-1.88.89-2.62.48-.74,1.13-1.3,1.96-1.71.82-.4,1.78-.6,2.87-.6.9,0,1.68.13,2.36.38s1.25.61,1.72,1.07c.46.46.82.99,1.07,1.6.25.61.37,1.26.37,1.94,0,1.01-.25,1.98-.74,2.92s-1.28,1.89-2.35,2.87c-1.07.98-2.48,2.03-4.22,3.14v.05c.19-.03.46-.05.79-.06l1.01-.02c.34,0,.61-.01.82-.01h4.99v2.21h-11.02Z"/>
      <path class="cls-6" d="M1380.7,949.48v-3.96h-7.73v-1.75c.03-.08.08-.18.16-.29.07-.11.16-.24.25-.38l6.6-9.46h3.14v9.89h2.69v1.99h-2.69v3.96h-2.42ZM1375.37,943.53h5.33v-5.59c0-.38.01-.78.04-1.19.02-.41.04-.81.06-1.21h-.05c-.18.38-.4.8-.68,1.26-.28.46-.54.85-.78,1.19l-3.74,5.33s-.06.06-.08.1c-.02.03-.05.07-.08.12Z"/>
    </g>
    <g>
      <path class="cls-6" d="M1379.82,926.76v-1.87c1.52-1.09,2.8-2.05,3.83-2.88,1.03-.83,1.86-1.6,2.48-2.3.62-.7,1.08-1.37,1.36-2,.28-.63.42-1.28.42-1.93,0-.85-.26-1.54-.79-2.06-.53-.53-1.26-.79-2.21-.79-.99,0-1.78.33-2.36,1s-.92,1.57-1,2.72l-2.23-1.03c.11-1.01.41-1.88.89-2.62.48-.74,1.13-1.3,1.96-1.71.82-.4,1.78-.6,2.87-.6.9,0,1.68.13,2.36.38s1.25.61,1.72,1.07c.46.46.82.99,1.07,1.6.25.61.37,1.26.37,1.94,0,1.01-.25,1.98-.74,2.92s-1.28,1.89-2.35,2.87c-1.07.98-2.48,2.03-4.22,3.14v.05c.19-.03.46-.05.79-.06l1.01-.02c.34,0,.61-.01.82-.01h4.99v2.21h-11.02Z"/>
      <path class="cls-6" d="M1399.11,927c-1.41,0-2.56-.3-3.47-.91-.9-.61-1.62-1.49-2.15-2.64l2.4-1.25c.24.77.6,1.4,1.09,1.88.49.49,1.21.73,2.17.73.67,0,1.24-.12,1.72-.37.47-.25.84-.6,1.09-1.06s.38-1,.38-1.64c0-.67-.12-1.23-.36-1.68-.24-.45-.58-.79-1.03-1.02s-1.01-.35-1.68-.35c-.46,0-.9.05-1.3.14-.4.1-.76.24-1.08.44-.32.2-.6.46-.84.78l-2.11-.41.96-8.74h9.22v2.21h-7.18l-.58,4.46-.05.26h.05c.37-.4.84-.71,1.43-.94s1.28-.34,2.08-.34c1.02,0,1.9.21,2.64.64.74.42,1.31,1.01,1.73,1.76s.62,1.62.62,2.62c0,.86-.14,1.63-.43,2.3-.29.67-.7,1.24-1.22,1.7-.53.46-1.14.81-1.84,1.04-.7.23-1.45.35-2.27.35Z"/>
    </g>
    <g>
      <path class="cls-6" d="M1393.07,913.49v-1.87c1.52-1.09,2.8-2.05,3.83-2.88,1.03-.83,1.86-1.6,2.48-2.3.62-.7,1.08-1.37,1.36-2,.28-.63.42-1.28.42-1.93,0-.85-.26-1.54-.79-2.06-.53-.53-1.26-.79-2.21-.79-.99,0-1.78.33-2.36,1-.58.66-.92,1.57-1,2.72l-2.23-1.03c.11-1.01.41-1.88.89-2.62.48-.74,1.13-1.3,1.96-1.7.82-.4,1.78-.6,2.87-.6.9,0,1.68.13,2.36.38.68.26,1.25.61,1.71,1.07.46.46.82.99,1.07,1.6.25.61.37,1.26.37,1.94,0,1.01-.25,1.98-.74,2.92-.5.94-1.28,1.89-2.35,2.87-1.07.98-2.48,2.02-4.22,3.14v.05c.19-.03.46-.05.79-.06.34,0,.67-.02,1.01-.02.34,0,.61-.01.82-.01h4.99v2.21h-11.02Z"/>
      <path class="cls-6" d="M1413.37,897.41c.85,0,1.6.12,2.26.35.66.23,1.23.6,1.72,1.09s.89,1.14,1.21,1.94l-2.26,1.08c-.22-.69-.58-1.23-1.07-1.63-.49-.4-1.16-.6-2.03-.6-.62,0-1.18.15-1.66.46-.48.3-.89.73-1.22,1.28-.34.55-.59,1.2-.77,1.94-.18.74-.26,1.55-.26,2.41v.43l.1.05c.18-.64.49-1.16.95-1.55.46-.39.97-.68,1.55-.88.58-.19,1.14-.29,1.7-.29,1.06,0,1.98.2,2.76.61.78.41,1.4.99,1.84,1.74.44.75.66,1.65.66,2.69s-.23,1.97-.7,2.75c-.46.78-1.11,1.38-1.93,1.8-.83.42-1.81.64-2.96.64-1.34,0-2.49-.34-3.43-1.01-.94-.67-1.66-1.62-2.16-2.83-.5-1.21-.74-2.64-.74-4.27,0-1.81.28-3.32.85-4.54s1.34-2.13,2.32-2.75c.98-.62,2.07-.92,3.29-.92ZM1413.2,905.64c-.61,0-1.14.12-1.61.37-.46.25-.83.59-1.09,1.02s-.4.94-.4,1.51.14,1.06.42,1.51c.28.45.65.8,1.12,1.07.46.26.98.4,1.56.4.98,0,1.74-.26,2.28-.79.54-.53.82-1.26.82-2.18,0-.59-.12-1.11-.36-1.55-.24-.44-.59-.78-1.04-1.01-.46-.23-1.02-.35-1.69-.35Z"/>
    </g>
    <g>
      <path class="cls-6" d="M1434.85,908.38v-1.87c1.52-1.09,2.8-2.05,3.83-2.88,1.03-.83,1.86-1.6,2.48-2.3s1.08-1.37,1.36-2c.28-.63.42-1.28.42-1.93,0-.85-.26-1.54-.79-2.06-.53-.53-1.26-.79-2.21-.79-.99,0-1.78.33-2.36,1s-.92,1.57-1,2.72l-2.23-1.03c.11-1.01.41-1.88.89-2.62.48-.74,1.13-1.3,1.96-1.7s1.78-.6,2.87-.6c.89,0,1.68.13,2.36.38s1.25.61,1.72,1.07c.46.46.82.99,1.07,1.6.25.61.37,1.26.37,1.94,0,1.01-.25,1.98-.74,2.92-.5.94-1.28,1.89-2.35,2.87-1.07.98-2.48,2.02-4.22,3.14v.05c.19-.03.46-.05.79-.06.34,0,.67-.02,1.01-.02.34,0,.61-.01.82-.01h4.99v2.21h-11.02Z"/>
      <path class="cls-6" d="M1447.72,892.54h12.07v2.14c-1.33,1.38-2.4,2.79-3.21,4.24-.82,1.45-1.4,2.95-1.76,4.51-.36,1.56-.54,3.21-.54,4.96h-2.59c0-1.76.22-3.48.66-5.15.44-1.67,1.11-3.27,2.02-4.8s2.04-2.96,3.42-4.31l.48.65h-10.54v-2.23Z"/>
    </g>
    <g>
      <path class="cls-6" d="M1413.43,911.71v-1.87c1.52-1.09,2.79-2.05,3.83-2.88s1.86-1.6,2.48-2.3c.62-.7,1.08-1.37,1.36-2,.28-.63.42-1.28.42-1.93,0-.85-.26-1.54-.79-2.06-.53-.53-1.26-.79-2.21-.79-.99,0-1.78.33-2.37,1s-.92,1.57-1,2.72l-2.23-1.03c.11-1.01.41-1.88.89-2.62.48-.74,1.13-1.3,1.96-1.71.82-.4,1.78-.6,2.87-.6.9,0,1.68.13,2.36.38.68.26,1.25.61,1.72,1.07s.82.99,1.07,1.6c.25.61.37,1.26.37,1.94,0,1.01-.25,1.98-.74,2.92-.5.94-1.28,1.89-2.35,2.87-1.07.98-2.48,2.03-4.22,3.14v.05c.19-.03.46-.05.79-.06l1.01-.02c.34,0,.61-.01.82-.01h4.99v2.21h-11.02Z"/>
      <path class="cls-6" d="M1433.28,895.65c1.07,0,2,.17,2.79.52.79.34,1.4.83,1.84,1.45.43.62.65,1.38.65,2.26,0,.82-.2,1.53-.59,2.15-.39.62-.96,1.08-1.72,1.4v.02c.91.34,1.64.84,2.17,1.5s.8,1.48.8,2.46-.24,1.75-.73,2.42c-.49.67-1.18,1.19-2.06,1.56-.89.37-1.94.55-3.16.55s-2.27-.18-3.16-.55c-.89-.37-1.58-.89-2.08-1.56s-.74-1.48-.74-2.42.26-1.78.79-2.45,1.26-1.18,2.21-1.51v-.02c-.72-.3-1.29-.76-1.7-1.38-.42-.62-.62-1.34-.62-2.17,0-.88.22-1.63.65-2.26s1.05-1.11,1.85-1.45c.8-.34,1.74-.52,2.81-.52ZM1433.28,909.79c.7,0,1.3-.1,1.8-.31.5-.21.88-.51,1.15-.91.27-.4.41-.86.41-1.39,0-.56-.14-1.04-.42-1.43s-.67-.69-1.16-.9c-.5-.21-1.09-.31-1.78-.31s-1.26.1-1.78.31c-.51.21-.91.51-1.19.9-.28.39-.42.87-.42,1.43,0,.53.14.99.41,1.39.27.4.66.71,1.18.91.51.21,1.11.31,1.8.31ZM1433.28,897.81c-.85,0-1.52.21-2.03.62s-.76.98-.76,1.7.26,1.28.77,1.69,1.18.61,2.02.61,1.5-.2,2-.61.76-.97.76-1.69-.25-1.29-.74-1.7-1.17-.62-2.02-.62Z"/>
    </g>
    <g>
      <path class="cls-6" d="M1571.68,968.03v-1.87c1.52-1.09,2.8-2.05,3.83-2.88,1.03-.83,1.86-1.6,2.48-2.3s1.08-1.37,1.36-2c.28-.63.42-1.28.42-1.93,0-.85-.26-1.54-.79-2.06s-1.26-.79-2.21-.79c-.99,0-1.78.33-2.36,1-.58.66-.92,1.57-1,2.72l-2.23-1.03c.11-1.01.41-1.88.89-2.62.48-.74,1.13-1.3,1.96-1.7.82-.4,1.78-.6,2.87-.6.89,0,1.68.13,2.36.38s1.25.61,1.72,1.07.82.99,1.07,1.6c.25.61.37,1.26.37,1.94,0,1.01-.25,1.98-.74,2.92s-1.28,1.89-2.35,2.87c-1.07.98-2.48,2.02-4.22,3.14v.05c.19-.03.46-.05.79-.06.34,0,.67-.02,1.01-.02.34,0,.61-.01.82-.01h4.99v2.21h-11.02Z"/>
      <path class="cls-6" d="M1591.19,951.95c1.36,0,2.51.34,3.44,1.01.94.67,1.64,1.62,2.11,2.83.47,1.22.71,2.65.71,4.3,0,1.82-.25,3.34-.74,4.55-.5,1.21-1.21,2.12-2.14,2.72s-2.05.91-3.36.91-2.5-.3-3.46-.89-1.68-1.48-2.16-2.66l2.42-1.13c.22.75.6,1.35,1.12,1.8.52.45,1.23.67,2.12.67.74,0,1.35-.14,1.85-.43.5-.29.89-.71,1.19-1.25.3-.54.51-1.2.64-1.97.13-.77.19-1.63.19-2.59v-.26h-.1c-.18.64-.49,1.16-.95,1.56-.46.4-.97.69-1.55.88-.58.18-1.15.28-1.73.28-1.03,0-1.93-.2-2.72-.61s-1.41-.98-1.86-1.72c-.45-.74-.67-1.61-.67-2.62,0-1.1.23-2.06.68-2.86.46-.8,1.1-1.42,1.94-1.86s1.84-.66,3.01-.66ZM1591.22,954.21c-1.01,0-1.78.27-2.32.82-.54.54-.8,1.3-.8,2.28,0,.86.28,1.54.85,2.03.57.49,1.32.73,2.27.73.61,0,1.14-.12,1.61-.37.46-.25.83-.59,1.09-1.02s.4-.94.4-1.51c0-.61-.13-1.13-.4-1.57-.26-.44-.63-.78-1.09-1.02-.46-.24-1-.36-1.61-.36Z"/>
    </g>
    <g>
      <path class="cls-6" d="M1529.9,965.81c-1.49,0-2.78-.33-3.88-1-1.1-.66-1.84-1.6-2.24-2.8l2.5-1.18c.14.58.37,1.07.67,1.49.3.42.7.73,1.2.95s1.11.32,1.85.32c.62,0,1.15-.11,1.58-.34.43-.22.76-.54,1-.94.23-.4.35-.86.35-1.37s-.1-.97-.3-1.32c-.2-.35-.51-.61-.94-.77s-.96-.24-1.62-.24c-.19,0-.39,0-.59.01s-.41.03-.64.06v-2.16c.14.02.28.03.42.04s.27.01.4.01c1.04,0,1.78-.21,2.23-.62.45-.42.67-1.06.67-1.94,0-.75-.23-1.33-.68-1.73-.46-.4-1.11-.6-1.96-.6s-1.56.2-2.05.61c-.49.41-.86,1-1.12,1.76l-2.35-.98c.22-.74.6-1.38,1.13-1.92.53-.54,1.18-.96,1.96-1.26.78-.3,1.63-.44,2.56-.44,1.14,0,2.08.18,2.84.55s1.33.87,1.7,1.51.56,1.35.56,2.14c0,.61-.09,1.14-.26,1.6-.18.46-.41.85-.71,1.18s-.62.58-.96.76c-.34.18-.69.3-1.04.36v.05c.46.02.89.11,1.28.28.39.17.74.4,1.06.7.31.3.56.65.73,1.07.18.42.26.87.26,1.37,0,.96-.24,1.8-.72,2.52s-1.14,1.28-1.98,1.68c-.84.4-1.81.6-2.92.6Z"/>
      <path class="cls-6" d="M1544.47,965.81c-1.9,0-3.4-.69-4.48-2.08-1.08-1.38-1.62-3.41-1.62-6.08s.54-4.7,1.62-6.08,2.57-2.08,4.48-2.08,3.42.69,4.5,2.08,1.62,3.41,1.62,6.08-.54,4.7-1.62,6.08c-1.08,1.38-2.58,2.08-4.5,2.08ZM1544.47,963.62c.77,0,1.41-.22,1.93-.66.52-.44.91-1.1,1.18-1.99.26-.89.4-2,.4-3.32s-.13-2.44-.4-3.32c-.26-.89-.66-1.55-1.18-1.99-.52-.44-1.16-.66-1.93-.66s-1.41.22-1.93.66c-.52.44-.91,1.1-1.16,1.99-.26.89-.38,2-.38,3.32s.13,2.44.38,3.32c.26.89.64,1.55,1.16,1.99.52.44,1.16.66,1.93.66Z"/>
    </g>
    <g>
      <path class="cls-6" d="M1485.11,928.77c-1.49,0-2.78-.33-3.88-1-1.1-.66-1.84-1.6-2.24-2.8l2.5-1.18c.14.58.37,1.07.67,1.49.3.42.7.73,1.2.95s1.11.32,1.85.32c.62,0,1.15-.11,1.58-.34s.76-.54,1-.94c.23-.4.35-.86.35-1.37s-.1-.97-.3-1.32c-.2-.35-.51-.61-.94-.77s-.96-.24-1.62-.24c-.19,0-.39,0-.59.01-.2,0-.41.03-.64.06v-2.16c.14.02.28.03.42.04.14,0,.27.01.4.01,1.04,0,1.78-.21,2.23-.62.45-.42.67-1.06.67-1.94,0-.75-.23-1.33-.68-1.73-.46-.4-1.11-.6-1.96-.6s-1.56.2-2.05.61c-.49.41-.86,1-1.12,1.76l-2.35-.98c.22-.74.6-1.38,1.13-1.92.53-.54,1.18-.96,1.96-1.26.78-.3,1.63-.44,2.56-.44,1.14,0,2.08.18,2.84.55.76.37,1.33.87,1.7,1.51.38.64.56,1.35.56,2.14,0,.61-.09,1.14-.26,1.6-.18.46-.41.85-.71,1.18-.3.33-.62.58-.96.76-.34.18-.69.3-1.04.36v.05c.46.02.89.11,1.29.28.39.17.74.4,1.05.7.31.3.56.65.73,1.07.18.42.26.87.26,1.37,0,.96-.24,1.8-.72,2.52-.48.72-1.14,1.28-1.98,1.68-.84.4-1.81.6-2.92.6Z"/>
      <path class="cls-6" d="M1497.01,928.53v-10.87c0-.32,0-.65.01-1s.02-.71.04-1.09c-.54.53-1.16.98-1.86,1.36-.7.38-1.41.64-2.15.8l-.48-2.23c.34-.05.73-.16,1.18-.34s.91-.4,1.39-.67c.48-.27.92-.56,1.32-.88s.71-.62.94-.92h2.16v15.84h-2.54Z"/>
    </g>
    <g>
      <path class="cls-6" d="M1504.69,869.08c-1.49,0-2.78-.33-3.88-1-1.1-.66-1.84-1.6-2.24-2.8l2.5-1.18c.14.58.37,1.07.67,1.49.3.42.7.73,1.2.95s1.11.32,1.85.32c.62,0,1.15-.11,1.58-.34.43-.22.76-.54,1-.94.23-.4.35-.86.35-1.37s-.1-.97-.3-1.32c-.2-.35-.51-.61-.94-.77s-.96-.24-1.62-.24c-.19,0-.39,0-.59.01s-.41.03-.64.06v-2.16c.14.02.28.03.42.04s.27.01.4.01c1.04,0,1.78-.21,2.23-.62.45-.42.67-1.06.67-1.94,0-.75-.23-1.33-.68-1.73-.46-.4-1.11-.6-1.96-.6s-1.56.2-2.05.61c-.49.41-.86,1-1.12,1.76l-2.35-.98c.22-.74.6-1.38,1.13-1.92.53-.54,1.18-.96,1.96-1.26.78-.3,1.63-.44,2.56-.44,1.14,0,2.08.18,2.84.55s1.33.87,1.7,1.51.56,1.35.56,2.14c0,.61-.09,1.14-.26,1.6-.18.46-.41.85-.71,1.18s-.62.58-.96.76c-.34.18-.69.3-1.04.36v.05c.46.02.89.11,1.28.28.39.17.74.4,1.06.7.31.3.56.65.73,1.07.18.42.26.87.26,1.37,0,.96-.24,1.8-.72,2.52s-1.14,1.28-1.98,1.68c-.84.4-1.81.6-2.92.6Z"/>
      <path class="cls-6" d="M1513.4,868.84v-1.87c1.52-1.09,2.79-2.05,3.83-2.88s1.86-1.6,2.48-2.3c.62-.7,1.08-1.37,1.36-2,.28-.63.42-1.28.42-1.93,0-.85-.26-1.54-.79-2.06-.53-.53-1.26-.79-2.21-.79-.99,0-1.78.33-2.37,1s-.92,1.57-1,2.72l-2.23-1.03c.11-1.01.41-1.88.89-2.62.48-.74,1.13-1.3,1.96-1.71.82-.4,1.78-.6,2.87-.6.9,0,1.68.13,2.36.38.68.26,1.25.61,1.72,1.07s.82.99,1.07,1.6c.25.61.37,1.26.37,1.94,0,1.01-.25,1.98-.74,2.92-.5.94-1.28,1.89-2.35,2.87-1.07.98-2.48,2.03-4.22,3.14v.05c.19-.03.46-.05.79-.06l1.01-.02c.34,0,.61-.01.82-.01h4.99v2.21h-11.02Z"/>
    </g>
    <g>
      <path class="cls-6" d="M1555.29,821.7c-1.49,0-2.78-.33-3.88-1-1.1-.66-1.84-1.6-2.24-2.79l2.5-1.18c.14.58.37,1.07.67,1.49.3.42.7.73,1.2.95.5.21,1.11.32,1.85.32.62,0,1.15-.11,1.58-.34.43-.22.76-.54,1-.94.23-.4.35-.86.35-1.37s-.1-.97-.3-1.32c-.2-.35-.51-.61-.94-.77s-.96-.24-1.62-.24c-.19,0-.39,0-.59.01-.2,0-.41.03-.64.06v-2.16c.14.02.28.03.42.04.14,0,.27.01.4.01,1.04,0,1.78-.21,2.23-.62.45-.42.67-1.06.67-1.94,0-.75-.23-1.33-.68-1.73-.46-.4-1.11-.6-1.96-.6s-1.56.2-2.05.61c-.49.41-.86,1-1.12,1.76l-2.35-.98c.22-.74.6-1.38,1.13-1.92.53-.54,1.18-.96,1.96-1.26.78-.29,1.63-.44,2.56-.44,1.14,0,2.08.18,2.84.55.76.37,1.33.87,1.7,1.51.38.64.56,1.35.56,2.14,0,.61-.09,1.14-.26,1.6s-.41.85-.71,1.18-.62.58-.96.76-.69.3-1.04.36v.05c.46.02.89.11,1.28.28.39.17.74.4,1.06.7.31.3.56.65.73,1.07.18.42.26.87.26,1.37,0,.96-.24,1.8-.72,2.52-.48.72-1.14,1.28-1.98,1.68-.84.4-1.81.6-2.92.6Z"/>
      <path class="cls-6" d="M1569.36,821.7c-1.49,0-2.78-.33-3.88-1-1.1-.66-1.84-1.6-2.24-2.79l2.5-1.18c.14.58.37,1.07.67,1.49.3.42.7.73,1.2.95.5.21,1.11.32,1.85.32.62,0,1.15-.11,1.58-.34.43-.22.76-.54,1-.94.23-.4.35-.86.35-1.37s-.1-.97-.3-1.32c-.2-.35-.51-.61-.94-.77s-.96-.24-1.62-.24c-.19,0-.39,0-.59.01-.2,0-.41.03-.64.06v-2.16c.14.02.28.03.42.04.14,0,.27.01.4.01,1.04,0,1.78-.21,2.23-.62.45-.42.67-1.06.67-1.94,0-.75-.23-1.33-.68-1.73-.46-.4-1.11-.6-1.96-.6s-1.56.2-2.05.61c-.49.41-.86,1-1.12,1.76l-2.35-.98c.22-.74.6-1.38,1.13-1.92s1.18-.96,1.96-1.26c.78-.29,1.63-.44,2.56-.44,1.14,0,2.08.18,2.84.55.76.37,1.33.87,1.7,1.51.38.64.56,1.35.56,2.14,0,.61-.09,1.14-.26,1.6-.18.46-.41.85-.71,1.18-.3.33-.62.58-.96.76-.34.18-.69.3-1.04.36v.05c.46.02.89.11,1.29.28.39.17.74.4,1.05.7.31.3.56.65.73,1.07s.26.87.26,1.37c0,.96-.24,1.8-.72,2.52-.48.72-1.14,1.28-1.98,1.68-.84.4-1.81.6-2.92.6Z"/>
    </g>
    <g>
      <path class="cls-6" d="M1632.89,859.46c-1.49,0-2.78-.33-3.88-1-1.1-.66-1.84-1.6-2.24-2.8l2.5-1.18c.14.58.37,1.07.67,1.49s.7.73,1.2.95c.5.22,1.11.32,1.85.32.62,0,1.15-.11,1.58-.34.43-.22.76-.54,1-.94s.35-.86.35-1.37-.1-.97-.3-1.32c-.2-.35-.51-.61-.94-.77s-.96-.24-1.62-.24c-.19,0-.39,0-.59.01-.2,0-.41.03-.64.06v-2.16c.14.02.28.03.42.04.14,0,.27.01.4.01,1.04,0,1.78-.21,2.23-.62.45-.42.67-1.06.67-1.94,0-.75-.23-1.33-.68-1.73-.46-.4-1.11-.6-1.96-.6s-1.56.21-2.05.61c-.49.41-.86,1-1.12,1.76l-2.35-.98c.22-.74.6-1.38,1.13-1.92s1.18-.96,1.96-1.26c.78-.3,1.63-.44,2.56-.44,1.14,0,2.08.18,2.84.55.76.37,1.33.87,1.7,1.51.38.64.56,1.35.56,2.14,0,.61-.09,1.14-.26,1.6-.18.46-.41.85-.71,1.18-.3.33-.62.58-.96.76-.34.18-.69.3-1.04.36v.05c.46.02.89.11,1.29.28.39.17.74.4,1.05.7.31.3.56.65.73,1.07.18.42.26.87.26,1.37,0,.96-.24,1.8-.72,2.52-.48.72-1.14,1.28-1.98,1.68s-1.81.6-2.92.6Z"/>
      <path class="cls-6" d="M1648.71,859.22v-3.96h-7.73v-1.75c.03-.08.08-.18.16-.29.07-.11.16-.24.25-.38l6.6-9.46h3.14v9.89h2.69v1.99h-2.69v3.96h-2.42ZM1643.38,853.27h5.33v-5.59c0-.38.01-.78.04-1.19.02-.41.04-.81.06-1.21h-.05c-.18.38-.4.8-.68,1.26-.28.46-.54.85-.78,1.19l-3.74,5.33s-.06.06-.08.1c-.02.03-.05.07-.08.12Z"/>
    </g>
    <g>
      <path class="cls-6" d="M1549.36,931.42c-1.49,0-2.78-.33-3.88-1s-1.84-1.6-2.24-2.8l2.5-1.18c.14.58.37,1.07.67,1.49.3.42.7.73,1.2.95.5.22,1.11.32,1.85.32.62,0,1.15-.11,1.58-.34.43-.22.76-.54,1-.94s.35-.86.35-1.37-.1-.97-.3-1.32c-.2-.35-.51-.61-.94-.77s-.96-.24-1.62-.24c-.19,0-.39,0-.59.01-.2,0-.41.03-.63.06v-2.16c.14.02.28.03.42.04.13,0,.27.01.4.01,1.04,0,1.78-.21,2.23-.62.45-.42.67-1.06.67-1.94,0-.75-.23-1.33-.68-1.73-.46-.4-1.11-.6-1.96-.6s-1.56.21-2.05.61c-.49.41-.86,1-1.12,1.76l-2.35-.98c.22-.74.6-1.38,1.13-1.92s1.18-.96,1.96-1.26c.78-.3,1.63-.44,2.56-.44,1.14,0,2.08.18,2.84.55.76.37,1.33.87,1.71,1.51.38.64.56,1.35.56,2.14,0,.61-.09,1.14-.26,1.6s-.41.85-.71,1.18c-.3.33-.62.58-.96.76-.34.18-.69.3-1.04.36v.05c.46.02.89.11,1.28.28s.74.4,1.06.7c.31.3.55.65.73,1.07.18.42.26.87.26,1.37,0,.96-.24,1.8-.72,2.52-.48.72-1.14,1.28-1.98,1.68-.84.4-1.81.6-2.92.6Z"/>
      <path class="cls-6" d="M1563.28,931.42c-1.41,0-2.56-.3-3.47-.91-.9-.61-1.62-1.49-2.15-2.64l2.4-1.25c.24.77.6,1.4,1.09,1.88.49.49,1.21.73,2.17.73.67,0,1.24-.12,1.72-.37s.84-.6,1.09-1.06c.25-.46.38-1,.38-1.64,0-.67-.12-1.23-.36-1.68s-.58-.79-1.03-1.02c-.45-.23-1.01-.35-1.68-.35-.46,0-.9.05-1.3.14-.4.1-.76.24-1.08.44-.32.2-.6.46-.84.78l-2.11-.41.96-8.74h9.22v2.21h-7.18l-.58,4.46-.05.26h.05c.37-.4.84-.71,1.43-.94.58-.22,1.28-.34,2.08-.34,1.02,0,1.9.21,2.64.63.74.42,1.31,1.01,1.73,1.76s.62,1.62.62,2.62c0,.86-.14,1.63-.43,2.3-.29.67-.7,1.24-1.22,1.7-.53.46-1.14.81-1.84,1.04s-1.45.35-2.27.35Z"/>
    </g>
    <g>
      <path class="cls-6" d="M1637.34,943.43c-1.49,0-2.78-.33-3.88-1s-1.84-1.6-2.24-2.8l2.5-1.18c.14.58.37,1.07.67,1.49.3.42.7.73,1.2.95.5.22,1.11.32,1.85.32.62,0,1.15-.11,1.58-.34.43-.22.76-.54,1-.94s.35-.86.35-1.37-.1-.97-.3-1.32c-.2-.35-.51-.61-.94-.77s-.96-.24-1.62-.24c-.19,0-.39,0-.59.01-.2,0-.41.03-.63.06v-2.16c.14.02.28.03.42.04.13,0,.27.01.4.01,1.04,0,1.78-.21,2.23-.62.45-.42.67-1.06.67-1.94,0-.75-.23-1.33-.68-1.73-.46-.4-1.11-.6-1.96-.6s-1.56.21-2.05.61c-.49.41-.86,1-1.12,1.76l-2.35-.98c.22-.74.6-1.38,1.13-1.92s1.18-.96,1.96-1.26c.78-.3,1.63-.44,2.56-.44,1.14,0,2.08.18,2.84.55.76.37,1.33.87,1.71,1.51.38.64.56,1.35.56,2.14,0,.61-.09,1.14-.26,1.6s-.41.85-.71,1.18c-.3.33-.62.58-.96.76-.34.18-.69.3-1.04.36v.05c.46.02.89.11,1.28.28s.74.4,1.06.7c.31.3.55.65.73,1.07.18.42.26.87.26,1.37,0,.96-.24,1.8-.72,2.52-.48.72-1.14,1.28-1.98,1.68-.84.4-1.81.6-2.92.6Z"/>
      <path class="cls-6" d="M1652.27,927.11c.85,0,1.6.12,2.26.35s1.23.6,1.72,1.09.89,1.14,1.21,1.94l-2.26,1.08c-.22-.69-.58-1.23-1.07-1.63-.49-.4-1.16-.6-2.03-.6-.62,0-1.18.15-1.66.46-.48.3-.89.73-1.22,1.28s-.59,1.2-.77,1.94c-.18.74-.26,1.55-.26,2.41v.43l.1.05c.18-.64.49-1.16.95-1.55s.97-.68,1.55-.88c.58-.19,1.14-.29,1.7-.29,1.06,0,1.98.2,2.76.61.78.41,1.4.99,1.84,1.74.44.75.66,1.65.66,2.69s-.23,1.97-.7,2.75c-.46.78-1.11,1.38-1.93,1.8-.83.42-1.81.64-2.96.64-1.34,0-2.49-.34-3.43-1.01-.94-.67-1.66-1.62-2.16-2.83s-.74-2.64-.74-4.27c0-1.81.28-3.32.85-4.54s1.34-2.13,2.32-2.75c.98-.62,2.07-.92,3.29-.92ZM1652.1,935.34c-.61,0-1.14.12-1.61.37-.46.25-.83.59-1.09,1.02-.26.43-.4.94-.4,1.51s.14,1.06.42,1.51c.28.45.65.8,1.12,1.07.46.26.98.4,1.56.4.98,0,1.74-.26,2.28-.79.54-.53.82-1.26.82-2.18,0-.59-.12-1.11-.36-1.55-.24-.44-.59-.78-1.04-1.01-.46-.23-1.02-.35-1.69-.35Z"/>
    </g>
    <g>
      <path class="cls-6" d="M1641.6,955.49c-1.49,0-2.78-.33-3.88-1-1.1-.66-1.84-1.6-2.24-2.8l2.5-1.18c.14.58.37,1.07.67,1.49.3.42.7.73,1.2.95s1.11.32,1.85.32c.62,0,1.15-.11,1.58-.34.43-.22.76-.54,1-.94.23-.4.35-.86.35-1.37s-.1-.97-.3-1.32c-.2-.35-.51-.61-.94-.77s-.96-.24-1.62-.24c-.19,0-.39,0-.59.01-.2,0-.41.03-.64.06v-2.16c.14.02.28.03.42.04.14,0,.27.01.4.01,1.04,0,1.78-.21,2.23-.62.45-.42.67-1.06.67-1.94,0-.75-.23-1.33-.68-1.73-.46-.4-1.11-.6-1.96-.6s-1.56.2-2.05.61c-.49.41-.86,1-1.12,1.76l-2.35-.98c.22-.74.6-1.38,1.13-1.92.53-.54,1.18-.96,1.96-1.26.78-.3,1.63-.44,2.56-.44,1.14,0,2.08.18,2.84.55s1.33.87,1.7,1.51c.38.64.56,1.35.56,2.14,0,.61-.09,1.14-.26,1.6-.18.46-.41.85-.71,1.18s-.62.58-.96.76-.69.3-1.04.36v.05c.46.02.89.11,1.28.28.39.17.74.4,1.06.7s.56.65.73,1.07c.18.42.26.87.26,1.37,0,.96-.24,1.8-.72,2.52-.48.72-1.14,1.28-1.98,1.68-.84.4-1.81.6-2.92.6Z"/>
      <path class="cls-6" d="M1648.68,939.41h12.07v2.14c-1.33,1.38-2.4,2.79-3.22,4.24s-1.4,2.95-1.76,4.51c-.36,1.56-.54,3.21-.54,4.96h-2.59c0-1.76.22-3.48.66-5.15.44-1.67,1.11-3.27,2.02-4.8.9-1.53,2.04-2.96,3.42-4.31l.48.65h-10.54v-2.23Z"/>
    </g>
    <g>
      <path class="cls-6" d="M1429.38,870.3c-1.49,0-2.78-.33-3.88-1-1.1-.66-1.84-1.6-2.24-2.79l2.5-1.18c.14.58.37,1.07.67,1.49.3.42.7.73,1.2.95.5.21,1.11.32,1.85.32.62,0,1.15-.11,1.58-.34.43-.22.76-.54,1-.94.23-.4.35-.86.35-1.37s-.1-.97-.3-1.32c-.2-.35-.51-.61-.94-.77s-.96-.24-1.62-.24c-.19,0-.39,0-.59.01-.2,0-.41.03-.64.06v-2.16c.14.02.28.03.42.04.14,0,.27.01.4.01,1.04,0,1.78-.21,2.23-.62.45-.42.67-1.06.67-1.94,0-.75-.23-1.33-.68-1.73-.46-.4-1.11-.6-1.96-.6s-1.56.2-2.05.61c-.49.41-.86,1-1.12,1.76l-2.35-.98c.22-.74.6-1.38,1.13-1.92.53-.54,1.18-.96,1.96-1.26.78-.29,1.63-.44,2.56-.44,1.14,0,2.08.18,2.84.55.76.37,1.33.87,1.7,1.51.38.64.56,1.35.56,2.14,0,.61-.09,1.14-.26,1.6s-.41.85-.71,1.18-.62.58-.96.76-.69.3-1.04.36v.05c.46.02.89.11,1.28.28.39.17.74.4,1.06.7.31.3.56.65.73,1.07.18.42.26.87.26,1.37,0,.96-.24,1.8-.72,2.52-.48.72-1.14,1.28-1.98,1.68-.84.4-1.81.6-2.92.6Z"/>
      <path class="cls-6" d="M1443.86,854c1.07,0,2,.17,2.79.52.79.34,1.4.83,1.84,1.45.43.62.65,1.38.65,2.26,0,.82-.2,1.53-.59,2.15-.39.62-.96,1.08-1.72,1.4v.02c.91.34,1.64.84,2.17,1.5s.8,1.48.8,2.46-.24,1.75-.73,2.42c-.49.67-1.18,1.19-2.06,1.56-.89.37-1.94.55-3.16.55s-2.27-.18-3.16-.55c-.89-.37-1.58-.89-2.08-1.56s-.74-1.48-.74-2.42.26-1.78.79-2.45c.53-.67,1.26-1.18,2.21-1.51v-.02c-.72-.3-1.29-.76-1.7-1.38-.42-.62-.62-1.34-.62-2.17,0-.88.22-1.63.65-2.26.43-.62,1.05-1.11,1.85-1.45.8-.34,1.74-.52,2.81-.52ZM1443.86,868.14c.7,0,1.3-.1,1.8-.31.5-.21.88-.51,1.15-.91.27-.4.41-.86.41-1.39,0-.56-.14-1.04-.42-1.43-.28-.39-.67-.69-1.16-.9s-1.09-.31-1.78-.31-1.26.1-1.78.31c-.51.21-.91.51-1.19.9-.28.39-.42.87-.42,1.43,0,.53.14.99.41,1.39.27.4.66.7,1.18.91s1.11.31,1.8.31ZM1443.86,856.16c-.85,0-1.52.21-2.03.62s-.76.98-.76,1.7.26,1.28.77,1.69,1.18.61,2.02.61,1.5-.2,2-.61.76-.97.76-1.69-.25-1.29-.74-1.7-1.17-.62-2.02-.62Z"/>
    </g>
    <g>
      <path class="cls-6" d="M1460.03,856.84c-1.49,0-2.78-.33-3.88-1s-1.84-1.6-2.24-2.79l2.5-1.18c.14.58.37,1.07.67,1.49.3.42.7.73,1.2.95.5.21,1.11.32,1.85.32.62,0,1.15-.11,1.58-.34.43-.22.76-.54,1-.94.23-.4.35-.86.35-1.37s-.1-.97-.3-1.32c-.2-.35-.51-.61-.94-.77s-.96-.24-1.62-.24c-.19,0-.39,0-.59.01-.2,0-.41.03-.64.06v-2.16c.14.02.28.03.42.04.14,0,.27.01.4.01,1.04,0,1.78-.21,2.23-.62s.67-1.06.67-1.94c0-.75-.23-1.33-.68-1.73s-1.11-.6-1.96-.6-1.56.2-2.05.61-.86,1-1.12,1.76l-2.35-.98c.22-.74.6-1.38,1.13-1.92.53-.54,1.18-.96,1.96-1.26.78-.29,1.63-.44,2.55-.44,1.14,0,2.08.18,2.84.55.76.37,1.33.87,1.7,1.51.38.64.56,1.35.56,2.14,0,.61-.09,1.14-.26,1.6-.18.46-.41.85-.71,1.18-.3.33-.62.58-.96.76-.34.18-.69.3-1.04.36v.05c.46.02.89.11,1.28.28.39.17.74.4,1.06.7.31.3.56.65.73,1.07.18.42.26.87.26,1.37,0,.96-.24,1.8-.72,2.52-.48.72-1.14,1.28-1.98,1.68-.84.4-1.81.6-2.92.6Z"/>
      <path class="cls-6" d="M1474.16,840.52c1.36,0,2.51.34,3.44,1.01.94.67,1.64,1.62,2.11,2.83.47,1.22.71,2.65.71,4.3,0,1.82-.25,3.34-.74,4.55-.5,1.21-1.21,2.12-2.14,2.72-.93.61-2.05.91-3.36.91s-2.5-.29-3.46-.89c-.96-.59-1.68-1.48-2.16-2.66l2.42-1.13c.22.75.6,1.35,1.12,1.8s1.23.67,2.12.67c.74,0,1.35-.14,1.85-.43s.89-.7,1.19-1.25.51-1.2.64-1.97c.13-.77.19-1.63.19-2.59v-.26h-.1c-.18.64-.49,1.16-.95,1.56-.46.4-.97.69-1.55.88-.58.18-1.15.28-1.73.28-1.03,0-1.93-.2-2.72-.61s-1.41-.98-1.86-1.72c-.45-.74-.67-1.61-.67-2.62,0-1.1.23-2.06.68-2.86.46-.8,1.1-1.42,1.94-1.86.84-.44,1.84-.66,3.01-.66ZM1474.19,842.78c-1.01,0-1.78.27-2.32.82-.54.54-.8,1.3-.8,2.28,0,.86.28,1.54.85,2.03.57.49,1.32.73,2.27.73.61,0,1.14-.12,1.61-.37.46-.25.83-.59,1.09-1.02s.4-.94.4-1.51c0-.61-.13-1.13-.4-1.57s-.63-.78-1.09-1.02c-.46-.24-1-.36-1.61-.36Z"/>
    </g>
    <g>
      <path class="cls-6" d="M1714.86,875.09v-3.96h-7.73v-1.75c.03-.08.08-.18.16-.29s.16-.24.25-.38l6.6-9.46h3.14v9.89h2.69v1.99h-2.69v3.96h-2.42ZM1709.54,869.14h5.33v-5.59c0-.38.01-.78.04-1.19.02-.41.04-.81.06-1.21h-.05c-.18.38-.4.8-.68,1.26-.28.46-.54.85-.78,1.19l-3.74,5.33s-.06.06-.08.1c-.02.03-.05.07-.08.12Z"/>
      <path class="cls-6" d="M1728.54,875.33c-1.9,0-3.4-.69-4.48-2.08s-1.62-3.41-1.62-6.08.54-4.7,1.62-6.08,2.57-2.08,4.48-2.08,3.42.69,4.5,2.08,1.62,3.41,1.62,6.08-.54,4.7-1.62,6.08-2.58,2.08-4.5,2.08ZM1728.54,873.15c.77,0,1.41-.22,1.93-.66.52-.44.91-1.1,1.18-1.99.26-.89.4-2,.4-3.32s-.13-2.44-.4-3.32-.66-1.55-1.18-1.99c-.52-.44-1.16-.66-1.93-.66s-1.41.22-1.93.66c-.52.44-.91,1.1-1.16,1.99s-.38,2-.38,3.32.13,2.44.38,3.32c.26.89.64,1.55,1.16,1.99.52.44,1.16.66,1.93.66Z"/>
    </g>
  </g>
  <path class="cls-4" d="M1711.09,832.13s0-.04-.01-.05c.04,0,.07-.02.11-.03l-.09.08Z"/>
  <use width="15" height="15" transform="translate(1460.18 835.53) rotate(-14.26) scale(1.32 -1.32)" xlink:href="#Anchor_2"/>
  <use width="15" height="15" transform="translate(1429.56 848.99) rotate(-14.26) scale(1.32 -1.32)" xlink:href="#Anchor_2"/>
  <use width="15" height="15" transform="translate(1640.49 934.18) rotate(-14.26) scale(1.32 -1.32)" xlink:href="#Anchor_2"/>
  <use width="15" height="15" transform="translate(1637.42 922.12) rotate(-14.26) scale(1.32 -1.32)" xlink:href="#Anchor_2"/>
  <use width="15" height="15" transform="translate(1549.09 910.11) rotate(-14.26) scale(1.32 -1.32)" xlink:href="#Anchor_2"/>
  <use width="15" height="15" transform="translate(1633.1 838.15) rotate(-14.26) scale(1.32 -1.32)" xlink:href="#Anchor_2"/>
  <use width="15" height="15" transform="translate(1555.08 800.39) rotate(-14.26) scale(1.32 -1.32)" xlink:href="#Anchor_2"/>
  <use width="15" height="15" transform="translate(1504.49 847.77) rotate(-14.26) scale(1.32 -1.32)" xlink:href="#Anchor_2"/>
  <use width="15" height="15" transform="translate(1482.68 907.46) rotate(-14.26) scale(1.32 -1.32)" xlink:href="#Anchor_2"/>
  <use width="15" height="15" transform="translate(1530.19 944.5) rotate(-14.26) scale(1.32 -1.32)" xlink:href="#Anchor_2"/>
  <use width="15" height="15" transform="translate(1577.2 946.96) rotate(-14.26) scale(1.32 -1.32)" xlink:href="#Anchor_2"/>
  <use width="15" height="15" transform="translate(1418.97 890.64) rotate(-14.26) scale(1.32 -1.32)" xlink:href="#Anchor_2"/>
  <use width="15" height="15" transform="translate(1439.3 887.31) rotate(-14.26) scale(1.32 -1.32)" xlink:href="#Anchor_2"/>
  <use width="15" height="15" transform="translate(1398.51 892.42) rotate(-14.26) scale(1.32 -1.32)" xlink:href="#Anchor_2"/>
  <use width="15" height="15" transform="translate(1384.92 905.69) rotate(-14.26) scale(1.32 -1.32)" xlink:href="#Anchor_2"/>
  <use width="15" height="15" transform="translate(1365.39 928.41) rotate(-14.26) scale(1.32 -1.32)" xlink:href="#Anchor_2"/>
  <use width="15" height="15" transform="translate(1331.71 925.16) rotate(-14.26) scale(1.32 -1.32)" xlink:href="#Anchor_2"/>
  <use width="15" height="15" transform="translate(1335.35 914.39) rotate(-14.26) scale(1.32 -1.32)" xlink:href="#Anchor_2"/>
  <use width="15" height="15" transform="translate(1332.31 914.28) rotate(-14.26) scale(1.32 -1.32)" xlink:href="#Anchor_2"/>
  <use width="15" height="15" transform="translate(1296.34 888.83) rotate(-14.26) scale(1.32 -1.32)" xlink:href="#Anchor_2"/>
  <use width="15" height="15" transform="translate(1326.92 872.21) rotate(-14.26) scale(1.32 -1.32)" xlink:href="#Anchor_2"/>
  <use width="15" height="15" transform="translate(1361.6 840.71) rotate(-14.26) scale(1.32 -1.32)" xlink:href="#Anchor_2"/>
  <use width="15" height="15" transform="translate(1394.71 820.72) rotate(-14.26) scale(1.32 -1.32)" xlink:href="#Anchor_2"/>
  <use width="15" height="15" transform="translate(1358.96 819.18) rotate(-14.26) scale(1.32 -1.32)" xlink:href="#Anchor_2"/>
  <use width="15" height="15" transform="translate(1538.8 736.35) rotate(-14.26) scale(1.32 -1.32)" xlink:href="#Anchor_2"/>
  <use width="15" height="15" transform="translate(1498.44 783.73) rotate(-14.26) scale(1.32 -1.32)" xlink:href="#Anchor_2"/>
  <use width="15" height="15" transform="translate(1450.56 797.67) rotate(-14.26) scale(1.32 -1.32)" xlink:href="#Anchor_2"/>
  <use width="15" height="15" transform="translate(1542.7 658.23) rotate(-14.26) scale(1.32 -1.32)" xlink:href="#Anchor_2"/>
  <use width="15" height="15" transform="translate(1664.05 723.93) rotate(-14.26) scale(1.32 -1.32)" xlink:href="#Anchor_2"/>
  <use width="15" height="15" transform="translate(1583.06 721.8) rotate(-14.26) scale(1.32 -1.32)" xlink:href="#Anchor_2"/>
  <use width="15" height="15" transform="translate(1749.98 637.36) rotate(-14.26) scale(1.32 -1.32)" xlink:href="#Anchor_2"/>
  <use width="15" height="15" transform="translate(1734.31 766.04) rotate(-14.26) scale(1.32 -1.32)" xlink:href="#Anchor_2"/>
  <use width="15" height="15" transform="translate(1797.27 801.98) rotate(-14.26) scale(1.32 -1.32)" xlink:href="#Anchor_2"/>
  <use width="15" height="15" transform="translate(1775.72 877.87) rotate(-14.26) scale(1.32 -1.32)" xlink:href="#Anchor_2"/>
  <use width="15" height="15" transform="translate(1753.14 916.7) rotate(-14.26) scale(1.32 -1.32)" xlink:href="#Anchor_2"/>
  <use width="15" height="15" transform="translate(1688.38 950.19) rotate(-14.26) scale(1.32 -1.32)" xlink:href="#Anchor_2"/>
  <use width="15" height="15" transform="translate(1379.46 859.6) rotate(-14.26) scale(1.32 -1.32)" xlink:href="#Anchor_2"/>
  <use width="15" height="15" transform="translate(1386.19 860.01) rotate(-14.26) scale(1.32 -1.32)" xlink:href="#Anchor_2"/>
  <use width="15" height="15" transform="translate(1380.59 854.91) rotate(-14.26) scale(1.32 -1.32)" xlink:href="#Anchor_2"/>
  <polyline class="cls-1" points="1366.13 807.13 1401.88 808.67 1393.36 847.97 1386.63 847.55 1387.76 842.86 1368.77 828.66 1334.09 860.16 1303.51 876.78 1339.48 902.23 1342.52 902.34 1338.88 913.11 1372.56 916.37 1392.09 893.64 1405.69 880.37 1426.14 878.59 1446.37 875.29 1467.35 823.48 1436.73 836.94 1644.56 910.08 1584.37 934.92 1537.36 932.45 1489.85 895.41 1511.66 835.72 1556.36 897.85 1640.04 826.26 1457.74 785.61 1505.52 771.75 1562.25 788.34 1545.97 724.3 1549.87 646.18 1752.84 627.14 1590.24 709.75 1671.22 711.88 1741.48 753.99 1804.44 789.93 1786.22 850.22 1782.89 865.82 1760.31 904.65 1695.55 938.14 1647.66 922.13"/>
  <g class="cls-3">
    <g>
      <g>
        <path class="cls-5" d="M1430.34,981.93c-3.45,0-6.22-2.58-8.2-3.03-.43-.1-1.19.15-1.51.09-3.14-.17-5.61-1.27-7.8-2.25-5.13-.16-12.85-.77-16.58-8.7-3.17-6.72-3.27-13.38-3.23-18.1.01-1.24-.38-2.52-.46-3.16-.6-4.95,1.36-9.41,1.78-12.95,0-.03-.72-.76-.72-.79-.4.18-.71.65-1.11.83-2.73,1.21-5.03,2.94-7.31,4.13-6.1,3.18-11.51,5.52-16.67,7.06-.4.21-1.31.05-1.89.4-3.7,2.26-9.97,6.13-18.57,5.82-.45,0-2.12-.58-3.18-.43-5.66.84-13.96,2.37-22.03-2.48-9.69-5.83-13.64-15.82-15.17-22.14-.33-1.36-.46-2.71-.73-3.46-2.77-7.93.93-15.12,1.96-19.82.22-1-.84-2.36-.73-3.1-.17-.66.41-2.02.16-2.79-1.55-4.72-3.46-11.24-.97-19.41,2.05-6.75,5.79-11.17,8.81-14.63.99-1.13,1.49-3.2,1.89-3.88.51-.87,1.57-1.43,2.06-2.3,2.64-4.66,4.77-10.52,9.46-15.46,4.92-5.18,10.51-7.75,14.71-10.17.91-.52,1.54-1.38,2.34-1.86.46-.53.75-1.95,1.3-2.7,2.67-3.63,7.18-8.99,14.01-12.1,4.31-1.96,8.13-2.45,11.87-2.29-1.56-3.15-3.7-5.74-5.22-9.36-.43-1.03-.6-2.29-1.18-3.51-2.42-5.11-5.19-11.82-5.12-19.83.07-8.15,5.25-13.89,7.6-18.11.66-1.18-.86-3.42-.55-4.18.18-.64.41-2.11.56-3.26.67-5.23,2.49-13.28,8.6-19.61,7.78-8.07,18.33-6.38,23.85-6.28.88.01,2.14-.93,2.69-.96,6.24-1.45,15.97-4.53,27.13,2.31,6.99,4.29,10.77,10.37,14.21,15.98.1.16-.17.42-.06.59.32.21.27.97.57,1.16,3.67,2.4,8.48,6.32,12.3,12.81.83,1.4,1.7,2.86,2.6,4.32,1.07,1.73,3.16,3.2,4.3,5.14,1.33-2.71,2.51-6.03,4.81-8.55,6.15-6.72,15.87-16.79,28.97-18.7,11.38-1.66,19.46,6.07,23.12,9.81.42.43.83,1.02,1.23,1.41,4.78,2.43,9.54,6.66,14.6,13.41.48.64,2.11.37,2.59.97,2.87,3.61,7.38,9.45,8.75,17.5.1.59-1.57,2.35-1.23,3.45,1.33,4.38,5.12,10.76,3.36,18.28-1.56,6.69-4.73,12.59-7.48,17.03-.36.58-.85,1.07-1.19,1.64-4.22,6.97-11.85,8.47-15.78,10.14-.08.04.39,1.13.3,1.16-.04.09.39.26.35.35-1.61,4.02-5.23,10.05-12.23,14.32-.28.17-1.12,1.13-1.39,1.29.8,1.03,2.35,2.63,2.85,3.08,5.47,3.92,9.49,7.99,11.78,11.59.86,1.36,1.9,2.48,2.52,3.16.47.51.22,2.76,1.24,3.59,3.79,3.08,10.19,6.92,12.97,15.11.25.72,1.39,1.14,1.64,1.87,2.21,6.27,4.59,14.48,3.18,23.38-1.89,11.96-11.54,17.52-17.23,21.72-.46.34.06,1.99-.39,2.33-10.66,7.99-22.32,7.64-30.44,7.06-.38-.03-.63-.82-1.02-.84-.52.17-1.6-.71-2.17-.5-4.19,1.54-10.77,4.5-18.75,2.22-7.16-2.04-14.24-4.1-18.55-6.36-2.28-1.19-4.55-2.27-6.21-3.79-.16.29.8-.12.65.16-.51.91-1.82,1.82-2.11,2.48-.59,6.54-1.98,12.31-3.69,17.81.28,3.68.26,13.06-8.55,19.4-4.31,3.1-8.37,5.52-12.29,5.52ZM1427.04,953.34l1.02.9c0-.45-1.02-.9-1.02-.9ZM1454.93,938.59l1.02.9c0-.45-1.02-.9-1.02-.9ZM1428.18,920.15c0,.16-1.79-.04-1.79.11,0-.01,1.56.2,1.57.18.07-.12.61-.61.68-.73-.08-.02-.38.46-.46.44ZM1340.69,912.36c.61,1.92-.8,4.22-.39,5.92.02.06,1.09.49,1.1.56,1.98-.28,4.17-.15,6.46-.18.43-.25.64-1.96,1.07-2.22,2.26-1.38,5.42-3.43,9.38-4.6,4.84-1.43,7.61-2.8,10.91-4.52,3.24-1.69,7.08-1.8,10.18-3.16,1.96-.87,3.93-1.5,5.7-2.35,2.99-1.43,6.42-2.94,10.16-4.03-.38-.4-1.17-1.03-1.51-1.38-3.97-4.06-12.87-12.83-10.92-25.26,1.02-6.48,3.89-13.45,6.15-20.1.63-1.84,1.53-3.21,2.26-4.8-5.89,1.64-11.38.05-15.33-.5,0,0-.35.35-.36.35-.14.19.99,1.3.87,1.47-2.31,3.14-5.91,7.59-10.93,10.73-1.43.9-3.93-.22-5.23.53-2.93,1.69-4.53,4.15-6.13,5.83-1.88,1.98-4.39,4.42-6.33,7.84-.56.99-1.5,1.75-2.08,2.74-1.99,3.41-4.08,6.08-5.99,8.27-.46.53-.32,1.86-.83,2.47.1.31-.42.88-.33,1.15,1.15,3.52,3.75,8.13,3.48,13.78-.17,3.48-1.41,6.45-1.95,8.89-.19.86.7,1.84.59,2.55ZM1347.12,917.1l1.02.9c0-.45-1.02-.9-1.02-.9ZM1349.31,918.58s0,.12,0,.12c0,0,0-.12,0-.12ZM1486.33,913.93l1.02.9c0-.45-1.02-.9-1.02-.9ZM1479.67,909.9c2.98,1.52,5.15,4.52,7.81,5.44.31-.11,1.11-.64,1.39-.74,3.53-1.3,8.1-2.64,13.97-2.27.88.06,1.85-1.33,2.71-1.26,2.71.2,6.43.48,7.11-.02.53-.39.82-1.12,1.35-1.51.83-.61,2.96-.53,3.81-1.21-.4-1.6-1.01-4.17-1.59-5.81-.18-.51-.7-1.02-.88-1.53-.53-.49-1.89-.77-2.58-1.33-1.78-1.44-4.44-2.88-6.58-5.22-2.61-2.85-4-6.21-5.48-8.55-.74-1.17-1.75-2.66-2.24-3.17-1.95-1.4-3.17-3.64-4.6-5.17-.36.59-1.26,1.49-1.61,2.06-.09.14,1.26.93,1.18,1.08-.31.55-.97,2.15-1.37,3.4-1.6,5.05-5.75,11.47-12.74,17.05-1.57,1.25-2.3,3.31-3.93,4.29.92,1.14.9,2.67,1.63,3.68.48.67,2.23.28,2.65.8ZM1339.74,912.14s0,1.92,0,1.92c0,0,0-1.92,0-1.92ZM1308.45,899.29l1.02.9c0-.45-1.02-.9-1.02-.9ZM1337.88,886.57l1.02.9c0-.45-1.02-.9-1.02-.9ZM1426.2,882.25c.19.1-.43,1.86.21,2.08,2.46.87,4.64,1.49,6.5,2.39.64.31,1.56,1.16,2.24,1.46.3-.12.44-1.47.78-1.63,4.55-7.28,1.27-11.34,9.06-14.95,4.46-2.07,3.03,4.46,6.93,7.45,2.6-1.05,4.97-.99,6.7-2.06.31-.83,1.05-2.21,1.33-3.11,1.01-3.18,1.93-7.14,4.34-11.07.09-.15-.47-.49-.38-.63,1.38-2.25,2.04-3.22,2.76-4.65-8.26-8.2-16.24-4.26-17.16-15.86-.66-8.37,8.21-2.53,16.01-5.64-.24-.86.18-1.6-.04-2.41-.32-1.18-1.37-2.95-1.75-4.08-3.77,2.11-7.16,4.71-10.32,5.62-.18.05-.13-.2-.31-.15-.42.33-2.28-.99-2.72-.62-3.63,3.05-8.35,8.72-16.45,9.42-1.89.16-3.88-.85-5.63-1.04-.16.55-1.38,1.55-1.53,2.09-1.28,4.5-2.91,8.07-4.59,11.34-.99,1.92-1.05,4.19-1.53,5.58-1.2,3.51-3.09,7.23-3.94,10.58.12.13,1.19.17,1.3.29,1.96,2,3.94,4.85,5.9,8.06.1.17.46-.05.56.11.4.65,1.43.97,1.72,1.38ZM1338.4,883.13l1.02.9c0-.45-1.02-.9-1.02-.9ZM1498.75,881.68s0,1.92,0,1.92c0,0,0-1.92,0-1.92ZM1498.58,881.55l1.02.9c0-.45-1.02-.9-1.02-.9ZM1457.98,876.46s0,1.92,0,1.92c0,0,0-1.92,0-1.92ZM1377.45,843.32l1.02.9c0-.45-1.02-.9-1.02-.9ZM1453.04,832.87l1.02.9c0-.45-1.02-.9-1.02-.9ZM1487.97,804.93c1.13,1.38.79,3.73,2.14,5.73,3.01,4.44,4.79,8.71,5.9,12.69.35-.03,2.15.2,2.48.17,1.31-3.13,2.09-7.97,5.76-11.42,3.69-3.46,7.8-5.37,10.75-6.62.2-.08-.16-.22.05-.31,1.04-1.68,3.69-3.26,4.36-4.77-.18-.69-.26-1.89-.46-2.55-.55-1.81-1.51-3.93-1.97-6.38-.38-.59-1.83-1.41-2.49-2.24-.68-.85-1.83-1.38-2.5-2.28-.95-1.26-1.02-2.23-3.69-3.54-2.84-1.4-5.02-3.12-6.91-4.89-1.91,1.79-4.39,3.39-5.7,4.81-.55.91-1.26,3.93-1.82,5.77-1.01,3.35-.74,7.82-2.73,11.66-.97,1.87-2.22,2.82-3.17,4.17ZM1415.71,805.75c4.79,0,8.73,3.32,12.18,4.5.44.15,1.62-.13,2.13.04,2.82-2.37,6.64-5.16,12.05-6.76.72-.21,1.01-1.8,1.69-2,.69-.2,1.08-.05,1.79-.26-.63-1.21-1.99-2.42-2.91-3.89-1.34-2.14-1.61-5.31-2.99-7.98-1.38-2.66-2.92-5.58-4.74-8.52-.93-1.51-2.13-2.86-2.99-4.31-.58-.5-2.37-.92-3.28-1.52-3.18-2.08-7.7-4.45-10.57-9.05-.51-.81-.45-1.93-.9-2.68-.94-1.53-2.03-3.24-2.76-4.22-.65.14-1.42-.46-2.07-.31-.12.03-.07.25-.18.28-3.02.7-4.93,2.01-7.46,2.02-.4,2.89-.89,5.75-2.26,9.18-1.1,2.77-4.41,4.16-5.56,6.22-.51.92-.05,2.78-.43,3.61.38,1.16.44,3.54,1.11,4.97.68,1.43,1.02,3.19,1.75,4.91,2.4,5.73,5.49,11.3,7.46,14.96.42.78,1.73,1.14,2.09,1.91,3.19.31,3.23.59,6.43.54.14,0,.26-1.63.4-1.63ZM1445.37,802.93l-.07.09c3.24,2.5,3.49,2.18,6.73,4.69,0,0,.8-1.39.8-1.4-3.74-1.77-4.22-.88-7.46-3.38ZM1519.13,800.27l1.02.9c0-.45-1.02-.9-1.02-.9ZM1516.74,790.92l1.02.9c0-.45-1.02-.9-1.02-.9ZM1396.06,779.77l1.02.9c0-.45-1.02-.9-1.02-.9ZM1505.16,774.54s0,0,0,0ZM1404.61,754.12l1.02.9c0-.45-1.02-.9-1.02-.9Z"/>
        <path class="cls-2" d="M1430.34,981.93c-3.45,0-6.22-2.58-8.2-3.03-.43-.1-1.19.15-1.51.09-3.14-.17-5.61-1.27-7.8-2.25-5.13-.16-12.85-.77-16.58-8.7-3.17-6.72-3.27-13.38-3.23-18.1.01-1.24-.38-2.52-.46-3.16-.6-4.95,1.36-9.41,1.78-12.95,0-.03-.72-.76-.72-.79-.4.18-.71.65-1.11.83-2.73,1.21-5.03,2.94-7.31,4.13-6.1,3.18-11.51,5.52-16.67,7.06-.4.21-1.31.05-1.89.4-3.7,2.26-9.97,6.13-18.57,5.82-.45,0-2.12-.58-3.18-.43-5.66.84-13.96,2.37-22.03-2.48-9.69-5.83-13.64-15.82-15.17-22.14-.33-1.36-.46-2.71-.73-3.46-2.77-7.93.93-15.12,1.96-19.82.22-1-.84-2.36-.73-3.1-.17-.66.41-2.02.16-2.79-1.55-4.72-3.46-11.24-.97-19.41,2.05-6.75,5.79-11.17,8.81-14.63.99-1.13,1.49-3.2,1.89-3.88.51-.87,1.57-1.43,2.06-2.3,2.64-4.66,4.77-10.52,9.46-15.46,4.92-5.18,10.51-7.75,14.71-10.17.91-.52,1.54-1.38,2.34-1.86.46-.53.75-1.95,1.3-2.7,2.67-3.63,7.18-8.99,14.01-12.1,4.31-1.96,8.13-2.45,11.87-2.29-1.56-3.15-3.7-5.74-5.22-9.36-.43-1.03-.6-2.29-1.18-3.51-2.42-5.11-5.19-11.82-5.12-19.83.07-8.15,5.25-13.89,7.6-18.11.66-1.18-.86-3.42-.55-4.18.18-.64.41-2.11.56-3.26.67-5.23,2.49-13.28,8.6-19.61,7.78-8.07,18.33-6.38,23.85-6.28.88.01,2.14-.93,2.69-.96,6.24-1.45,15.97-4.53,27.13,2.31,6.99,4.29,10.77,10.37,14.21,15.98.1.16-.17.42-.06.59.32.21.27.97.57,1.16,3.67,2.4,8.48,6.32,12.3,12.81.83,1.4,1.7,2.86,2.6,4.32,1.07,1.73,3.16,3.2,4.3,5.14,1.33-2.71,2.51-6.03,4.81-8.55,6.15-6.72,15.87-16.79,28.97-18.7,11.38-1.66,19.46,6.07,23.12,9.81.42.43.83,1.02,1.23,1.41,4.78,2.43,9.54,6.66,14.6,13.41.48.64,2.11.37,2.59.97,2.87,3.61,7.38,9.45,8.75,17.5.1.59-1.57,2.35-1.23,3.45,1.33,4.38,5.12,10.76,3.36,18.28-1.56,6.69-4.73,12.59-7.48,17.03-.36.58-.85,1.07-1.19,1.64-4.22,6.97-11.85,8.47-15.78,10.14-.08.04.39,1.13.3,1.16-.04.09.39.26.35.35-1.61,4.02-5.23,10.05-12.23,14.32-.28.17-1.12,1.13-1.39,1.29.8,1.03,2.35,2.63,2.85,3.08,5.47,3.92,9.49,7.99,11.78,11.59.86,1.36,1.9,2.48,2.52,3.16.47.51.22,2.76,1.24,3.59,3.79,3.08,10.19,6.92,12.97,15.11.25.72,1.39,1.14,1.64,1.87,2.21,6.27,4.59,14.48,3.18,23.38-1.89,11.96-11.54,17.52-17.23,21.72-.46.34.06,1.99-.39,2.33-10.66,7.99-22.32,7.64-30.44,7.06-.38-.03-.63-.82-1.02-.84-.52.17-1.6-.71-2.17-.5-4.19,1.54-10.77,4.5-18.75,2.22-7.16-2.04-14.24-4.1-18.55-6.36-2.28-1.19-4.55-2.27-6.21-3.79-.16.29.8-.12.65.16-.51.91-1.82,1.82-2.11,2.48-.59,6.54-1.98,12.31-3.69,17.81.28,3.68.26,13.06-8.55,19.4-4.31,3.1-8.37,5.52-12.29,5.52ZM1427.04,953.34l1.02.9c0-.45-1.02-.9-1.02-.9ZM1454.93,938.59l1.02.9c0-.45-1.02-.9-1.02-.9ZM1428.18,920.15c0,.16-1.79-.04-1.79.11,0-.01,1.56.2,1.57.18.07-.12.61-.61.68-.73-.08-.02-.38.46-.46.44ZM1340.69,912.36c.61,1.92-.8,4.22-.39,5.92.02.06,1.09.49,1.1.56,1.98-.28,4.17-.15,6.46-.18.43-.25.64-1.96,1.07-2.22,2.26-1.38,5.42-3.43,9.38-4.6,4.84-1.43,7.61-2.8,10.91-4.52,3.24-1.69,7.08-1.8,10.18-3.16,1.96-.87,3.93-1.5,5.7-2.35,2.99-1.43,6.42-2.94,10.16-4.03-.38-.4-1.17-1.03-1.51-1.38-3.97-4.06-12.87-12.83-10.92-25.26,1.02-6.48,3.89-13.45,6.15-20.1.63-1.84,1.53-3.21,2.26-4.8-5.89,1.64-11.38.05-15.33-.5,0,0-.35.35-.36.35-.14.19.99,1.3.87,1.47-2.31,3.14-5.91,7.59-10.93,10.73-1.43.9-3.93-.22-5.23.53-2.93,1.69-4.53,4.15-6.13,5.83-1.88,1.98-4.39,4.42-6.33,7.84-.56.99-1.5,1.75-2.08,2.74-1.99,3.41-4.08,6.08-5.99,8.27-.46.53-.32,1.86-.83,2.47.1.31-.42.88-.33,1.15,1.15,3.52,3.75,8.13,3.48,13.78-.17,3.48-1.41,6.45-1.95,8.89-.19.86.7,1.84.59,2.55ZM1347.12,917.1l1.02.9c0-.45-1.02-.9-1.02-.9ZM1349.31,918.58s0,.12,0,.12c0,0,0-.12,0-.12ZM1486.33,913.93l1.02.9c0-.45-1.02-.9-1.02-.9ZM1479.67,909.9c2.98,1.52,5.15,4.52,7.81,5.44.31-.11,1.11-.64,1.39-.74,3.53-1.3,8.1-2.64,13.97-2.27.88.06,1.85-1.33,2.71-1.26,2.71.2,6.43.48,7.11-.02.53-.39.82-1.12,1.35-1.51.83-.61,2.96-.53,3.81-1.21-.4-1.6-1.01-4.17-1.59-5.81-.18-.51-.7-1.02-.88-1.53-.53-.49-1.89-.77-2.58-1.33-1.78-1.44-4.44-2.88-6.58-5.22-2.61-2.85-4-6.21-5.48-8.55-.74-1.17-1.75-2.66-2.24-3.17-1.95-1.4-3.17-3.64-4.6-5.17-.36.59-1.26,1.49-1.61,2.06-.09.14,1.26.93,1.18,1.08-.31.55-.97,2.15-1.37,3.4-1.6,5.05-5.75,11.47-12.74,17.05-1.57,1.25-2.3,3.31-3.93,4.29.92,1.14.9,2.67,1.63,3.68.48.67,2.23.28,2.65.8ZM1339.74,912.14s0,1.92,0,1.92c0,0,0-1.92,0-1.92ZM1308.45,899.29l1.02.9c0-.45-1.02-.9-1.02-.9ZM1337.88,886.57l1.02.9c0-.45-1.02-.9-1.02-.9ZM1426.2,882.25c.19.1-.43,1.86.21,2.08,2.46.87,4.64,1.49,6.5,2.39.64.31,1.56,1.16,2.24,1.46.3-.12.44-1.47.78-1.63,4.55-7.28,1.27-11.34,9.06-14.95,4.46-2.07,3.03,4.46,6.93,7.45,2.6-1.05,4.97-.99,6.7-2.06.31-.83,1.05-2.21,1.33-3.11,1.01-3.18,1.93-7.14,4.34-11.07.09-.15-.47-.49-.38-.63,1.38-2.25,2.04-3.22,2.76-4.65-8.26-8.2-16.24-4.26-17.16-15.86-.66-8.37,8.21-2.53,16.01-5.64-.24-.86.18-1.6-.04-2.41-.32-1.18-1.37-2.95-1.75-4.08-3.77,2.11-7.16,4.71-10.32,5.62-.18.05-.13-.2-.31-.15-.42.33-2.28-.99-2.72-.62-3.63,3.05-8.35,8.72-16.45,9.42-1.89.16-3.88-.85-5.63-1.04-.16.55-1.38,1.55-1.53,2.09-1.28,4.5-2.91,8.07-4.59,11.34-.99,1.92-1.05,4.19-1.53,5.58-1.2,3.51-3.09,7.23-3.94,10.58.12.13,1.19.17,1.3.29,1.96,2,3.94,4.85,5.9,8.06.1.17.46-.05.56.11.4.65,1.43.97,1.72,1.38ZM1338.4,883.13l1.02.9c0-.45-1.02-.9-1.02-.9ZM1498.75,881.68s0,1.92,0,1.92c0,0,0-1.92,0-1.92ZM1498.58,881.55l1.02.9c0-.45-1.02-.9-1.02-.9ZM1457.98,876.46s0,1.92,0,1.92c0,0,0-1.92,0-1.92ZM1377.45,843.32l1.02.9c0-.45-1.02-.9-1.02-.9ZM1453.04,832.87l1.02.9c0-.45-1.02-.9-1.02-.9ZM1487.97,804.93c1.13,1.38.79,3.73,2.14,5.73,3.01,4.44,4.79,8.71,5.9,12.69.35-.03,2.15.2,2.48.17,1.31-3.13,2.09-7.97,5.76-11.42,3.69-3.46,7.8-5.37,10.75-6.62.2-.08-.16-.22.05-.31,1.04-1.68,3.69-3.26,4.36-4.77-.18-.69-.26-1.89-.46-2.55-.55-1.81-1.51-3.93-1.97-6.38-.38-.59-1.83-1.41-2.49-2.24-.68-.85-1.83-1.38-2.5-2.28-.95-1.26-1.02-2.23-3.69-3.54-2.84-1.4-5.02-3.12-6.91-4.89-1.91,1.79-4.39,3.39-5.7,4.81-.55.91-1.26,3.93-1.82,5.77-1.01,3.35-.74,7.82-2.73,11.66-.97,1.87-2.22,2.82-3.17,4.17ZM1415.71,805.75c4.79,0,8.73,3.32,12.18,4.5.44.15,1.62-.13,2.13.04,2.82-2.37,6.64-5.16,12.05-6.76.72-.21,1.01-1.8,1.69-2,.69-.2,1.08-.05,1.79-.26-.63-1.21-1.99-2.42-2.91-3.89-1.34-2.14-1.61-5.31-2.99-7.98-1.38-2.66-2.92-5.58-4.74-8.52-.93-1.51-2.13-2.86-2.99-4.31-.58-.5-2.37-.92-3.28-1.52-3.18-2.08-7.7-4.45-10.57-9.05-.51-.81-.45-1.93-.9-2.68-.94-1.53-2.03-3.24-2.76-4.22-.65.14-1.42-.46-2.07-.31-.12.03-.07.25-.18.28-3.02.7-4.93,2.01-7.46,2.02-.4,2.89-.89,5.75-2.26,9.18-1.1,2.77-4.41,4.16-5.56,6.22-.51.92-.05,2.78-.43,3.61.38,1.16.44,3.54,1.11,4.97.68,1.43,1.02,3.19,1.75,4.91,2.4,5.73,5.49,11.3,7.46,14.96.42.78,1.73,1.14,2.09,1.91,3.19.31,3.23.59,6.43.54.14,0,.26-1.63.4-1.63ZM1445.37,802.93l-.07.09c3.24,2.5,3.49,2.18,6.73,4.69,0,0,.8-1.39.8-1.4-3.74-1.77-4.22-.88-7.46-3.38ZM1519.13,800.27l1.02.9c0-.45-1.02-.9-1.02-.9ZM1516.74,790.92l1.02.9c0-.45-1.02-.9-1.02-.9ZM1396.06,779.77l1.02.9c0-.45-1.02-.9-1.02-.9ZM1505.16,774.54s0,0,0,0ZM1404.61,754.12l1.02.9c0-.45-1.02-.9-1.02-.9Z"/>
      </g>
      <g>
        <path class="cls-5" d="M1696.96,980.74c-1.27,0-2.37-2.56-3.75-2.72-9.14-1.07-16.15-3.27-23.95-9.03-.55-.37-3.7.9-4.98.35-5.11-2.18-13.58-5.75-18.46-13.42-.83-1.31-.34-3.89-1.51-5.51-3.32-4.59-7.03-9.67-9.32-16.07-2.85-7.95-1.7-15.49-.4-20.53.12-.45-.1-1.64.03-2.16-3.79,3.96-8.26,5.6-11.52,7.23-.05.03.09,1.34.04,1.37,0,.47-.05.99-.05,1.39-.07,6.56,1.22,18.86-8.37,25.39-10,6.81-26.08,8.04-35.6,5.95-8.66-1.9-15.3-8.67-19.84-13.73-1.36-1.52-.69-4.78-1.92-5.97-.4-.39-1.15.39-1.56,0-5.48-5.28-13.66-12.57-15.35-23.41-1.02-6.53-2.18-16.67.14-25.77,1.67-6.56,7.09-10.94,9.92-14.53.89-1.13,2.94-2.57,3.26-3.23,3.34-6.86,7.3-11.38,11.2-13.87-.51-5.34-2.1-14.1,2.73-21.45,1.38-2.11,2.97-2.46,4.36-4.38-3.46-2.63-3.41-7.36-5.45-9.88-.62-.77-2.06-2.12-2.62-2.71-6.15-3.01-11.44-6.83-16.41-9.91-6.26-3.88-12.98-6.35-17.92-10.53-.54-.41-2.07-1.99-3.36-2.6-4.39-2.07-11.44-3.9-15.97-9.62-6.64-8.37-3.54-18.75-2.61-24.6.03-.19-1.09-.47-1.05-.68-.05-.04-.46.91-.51.87-4.14-3.49-8.62-10.57-9.85-20.6-.79-6.51-.5-12.6.3-18.27.23-1.63.92-3.15,1.09-4.61,1-8.71,3.5-15.6,6.75-19.51.72-.87,1.8-1.85,2.12-2.4.44-.97,1.89-1.37,2.26-2.26,1.91-4.63,5.07-9.97,11.33-15.26.09-.23.17-1.01.24-1.2,1.73-4.6,4.83-11.81,14.15-15.29,4.79-1.79,8.73-4.98,12.08-5.1.96-.03,2.41,1.71,2.92,1.63,8.83-2.24,15.91,2.77,19.93,4.95,4-1.45,10.9-4.88,18.74-1.95,1.47.55,4.01-.23,6.32.34,6.86,1.69,16.06,3.81,22.99,10.11.76.69.4,1.09,1.16,1.78,5.24,4.75,11.02,10.1,15.85,16.16-.07-2.65-1.8-5.44-.87-8.41,2.7-8.62,11.37-12.08,15.9-14.94.05-.03.3-.09.35-.12,0-.03-.59-.41-.59-.44,0-4.14.33-10.33,3.67-16.59.11-.21.25-.14.36-.35,2.81-5.25,6.16-10.25,10.36-15.59,4.01-5.1,8.25-8.08,11.99-10.43,1.04-.66,1.7-1.81,2.52-2.39.37-.53.49-1.69.88-2.33,2.6-4.23,7.83-9.76,16.4-12.77,9.41-3.31,16.82-.21,21.68,2.06.38.18,1.06.39,1.5.59.42-.12.74-1.48,1.13-1.59,4.71-1.36,13.98-3.84,22.91.83,8.78,4.6,12.72,12.67,15.09,17.83.36.78.43,1.7.77,2.38.65.45,1.59.89,2.3,1.34,4.94,3.15,14.41,8.52,16.77,18.63,2.28,9.78-4.37,17.76-7.56,22.94-.44.72-2.41,1.71-2.82,2.43-.24,5.63.97,10.75.02,15.06-.26,1.18-.93,2.28-1.18,3.5-.9,4.5-2.19,8.53-3.42,12.03-.58,1.64.03,3.27-.43,4.76.18.74-1.71,1.77-1.49,2.51,1.31,4.53,2.18,10.17.61,17.22,0,.04,1.76,1.49,1.75,1.53,4.89-.67,10.95-2.75,17.17.05,6.47,2.9,8.67,10.57,10.99,14.33,4.18,0,10.09-.06,15.79,3.35,4.74,2.83,9.45,4.91,11.7,7.67.6.74.7,2.04,1.1,2.44,6.43,4.54,8.35,11.64,10.04,15.88.24.61,1.53.72,1.76,1.25.16.23-.54.68-.33.87,3.5,3.23,7.23,6.49,10.65,11.86.69.38,1.36,1.06,2.05,1.41,5.54,2.84,15.05,7.5,17.45,18.44,1.67,7.62-.35,14.36-1.96,19.17-.3.91-2.69,1.79-2.89,2.56-.02.12,1.88.35,1.9.47.52,4.31.17,9.99-2.01,16.75-3.81,11.83-11.76,18.87-18.13,22.26-.79.42-1.41.27-2.12.67-.08.35.38-.06.31.24-1.33,5.73-4.92,15.37-14.14,20.26-7.17,3.8-17.33,6.11-31.16,4.89-9.85-.87-14.27-10.35-18.15-14.86-.56-.65-2.83-.02-3.41-.64-.79-.13-.98,1-1.85.9,0,.46.8-.96.84-.66.74,5.43-3.11,10.41-3.65,14.44-.24,1.84,2.93,3.82,2.92,5.01-.07,5.92-4.4,11.25-5.23,16.22-.13.77,1.62,1.84,1.5,2.6-.08.64,1.02,2.49,1.1,3.78.25,4.16.88,10.4-1.07,16.31-2.34,7.07-7.93,12.09-11.24,15.1-.66.6-1.04,1.38-1.47,1.85-3.85,6.66-10.75,9.67-14.58,11.93-.98.58-1.33,2.25-1.73,2.61-4.56,4.24-11.56,5.85-19.81,9.14-.82.33-1.47,1.04-2.22,1.36-4.13,1.76-9.12,5.71-16.27,5.71ZM1750.42,948.02s0,2.51,0,2.51c0,0,0-2.51,0-2.51ZM1674.82,935.68c.88.46,1.17,3.25,2.23,3.7,3.08,1.31,6.9,2.24,10.49,4.89,3.14,2.32,6.09,1.01,9.43,1.4.62-.06,1.79-1,3.13-1.57.98-.42,2.74.92,3.81.49,2.48-.99,4.19-2.2,7.72-5.48,2.99-2.78,5.52-5.25,7.97-6.7.67-.4,2.56-.02,3.11-.38,2.42-3.94,5.75-6.27,8.1-8.41.38-.35.3-1.74.73-2.15-.02-.81-.03-1.95-.07-2.7-.19-3.12-2.5-7.24-1.82-11.43.13-.8.12-1.65.25-2.47.69-4.16,1.21-7.83,1.26-11.2.04-3.18,3.1-6,3.45-8.6.26-1.94-.46-4.68-.6-5.67-.49-3.6-1-7.04-.93-10.02,0-.3.25.55.25.21-4.65-2.17-10.22-6.79-13.79-13.77-2.72-5.32-2-10.2-1.34-13.95-1.05.95-2.9,2.63-4.21,3.44-8.01,4.91-16.31,4.47-22.1,3.31-2.37,3.99-5.45,8.83-11.41,12.41-4.33,2.6-9.85,1-13.33,1.96-.66.18-1.91.79-2.64,1.02-.13.43-1.2,1.44-1.31,1.81-.65,2.17.78,5.45-.5,8.21-.29,4.33-2.16,7.94-3.06,11.08-.24.83.89,1.89.66,2.8.38.49-.85,1.54-.51,1.96,2.61,3.29,7.19,7.27,8.88,13.33,2.03,7.31,1.12,14.47-.14,19.35-.19.74-3.27,1.87-3.45,2.66,1.02,1.87,3.48,4.35,5.05,6.52,1.15,1.58,3.55,2.23,4.69,3.95ZM1675.15,936.66s0,2.51,0,2.51c0,0,0-2.51,0-2.51ZM1673.84,935.17l1.91.6c0-.3-1.91-.6-1.91-.6ZM1666.38,925.3l1.91.6c0-.3-1.91-.6-1.91-.6ZM1731.05,922.1s1.91.6,1.91.6c0-.3-1.91-.6-1.91-.6ZM1589.34,919.2l1.91.6c0-.3-1.91-.6-1.91-.6ZM1588.72,918.42c.6.03,2.81.8,3.44.78.13-5.57-.08-11.96,4.41-17.99,4.03-5.4,7.87-9.88,11.8-11.84.2-.1-.38.24-.15.12,0-.4,1.79-.21,1.79-.55,0-4.54-.07-10.52,3.16-16.61,3.22-6.07,7.53-10.11,12.24-12.4-.39-1.84.6-3.59.51-5.69-.04-1,.41-2,.37-2.98-.01-.31-1.25-.94-1.26-1.24-3.24-2.06-6.12-4.43-8.63-6.71-.4-.32-3.04.67-4.08.13-1.94-1-3.71-2-6.28-3.9-1.4,2.05-1.4,3.35-2.79,5.26-1.07,1.46-4.34,1.43-5.31,2.82.05.57,1.11,1.51,1.15,2.01.51,5.34,1.74,13.9-3.11,21.28-3.37,5.12-7.96,8.68-11.32,10.82-.59.38-2.39-.4-2.96,0-1.76,3.22-4.43,5.4-6.17,7.6-.77.97-.31,3.28-.78,4.04-.53,2.59.55,5.86,1.13,9.96.88,1.31,2.69,3.16,4.26,4.67.43.42-1.69,2.62-1.26,3.04,2.08,2.01,3.95,3.86,5.56,5.66.87.97,3.39.84,4.27,1.74ZM1595.24,917.43l1.91.6c0-.3-1.91-.6-1.91-.6ZM1658.87,888.97l1.91.6c0-.3-1.91-.6-1.91-.6ZM1611.76,888.26l1.91.6c0-.3-1.91-.6-1.91-.6ZM1658.19,886.06l1.91.6c0-.3-1.91-.6-1.91-.6ZM1665.96,862.73l1.91.6c0-.3-1.91-.6-1.91-.6ZM1801.72,859.48l1.91.6c0-.3-1.91-.6-1.91-.6ZM1798.06,854.86c2.03.1,5.25,1.52,6.52,1.47,1.23-5.14,2.37-11.93,8.6-16.71,3.27-2.51,5.24-6.29,8.14-7.84,1.07-.57,1.91-1.2,2.94-1.82-.06-.61,1.47-.49,1.39-1.07-.08-.69-.09-.69-.17-1.38-.66-5.68-.12-10.51,1.16-14.47-4.34-2.29-8.35-6.17-11.7-11.99-1.16-2.02-2.09-3.64-5.27-6.57-.7-.64-1.4.11-2.09-.53-4.65-4.33-6.62-9.48-8.02-13-.19-.48-1.97.3-2.17-.18-2.96-2.39-5.39-5.12-7.04-7.15-.17-.21-.39-.31-.58-.55-.02,0,1.35-2.06,1.33-2.06-3.84.02-9.75,1.12-15.54-1.88-5.36-2.78-9.03-6.73-11.18-10.13-.71.39-.17,1.35-.83,1.71-1.29.79-4.31,1.9-5.08,2.79.83-.96,3.78-5.29,2.85-10.53,0,0-.93.94-.93.94-1.82.32-1.6-1.55-1.96.26,2.13,6.89.56,13.87-.29,18.73-.16.92-3.42,1.98-3.54,2.91.19.49.7,1.53.88,1.97,2.07,5.05,5.61,13.02.25,22.56-4.69,8.35-11.41,11.9-16.47,13.21-.22.06-.83-.54-1.08-.48-3.4,4.1-5.93,9.13-10.36,12.91-.33.72-2.17.77-2.49,1.58-1.44,3.57-2.36,8.97-6.2,13.12.26,2.15-.25,3.14,1.25,4.99,12.67-10.72,12.93-10.28,25.64-20.95,1.94,1.65,1.45,2.33,2.35,3.22,1.03,1.02,1.43,2.06,3.92,3.84.82.59,3.24-1.03,4.07-.42,3.65,2.65,7.2,5.44,10.94,7.63.77.21,2.12,1.5,3.4,1.64,3.46.39,7.36,1.82,11.87,3.59,6.66,2.61,10.77,7.08,13.91,10.72.25.29,1.25-.45,1.55-.11ZM1766.66,839.36s1.91.59,1.91.59c0-.3-1.91-.59-1.91-.59ZM1642.52,823.55c-3.32,0-9.66,2.68-11.81,7.36,4.6,4.75,6.67,4.68,13.24,5.47,6.2.75,6.03-3.78,12.15-4.99.04.17.17.03.21.2.79-.23,1.8,1.45,2.51,1.25.88-.24,2.21-.65,3.08-.93.39-.61.26-1.98.61-2.58,2.4-4.05,6.81-9.08,13.6-12.78,7.17-3.91,14.75-2.45,20.17-1.41,1.74-4.21,3.91-10.41,8.82-14.44,3.47-2.84,6.46-6.36,9.89-10.59,2.64-3.26,4.21-6.58,7.32-7.93-.49-1.91-1.33-2.97-1.34-5.17-.02-3.44.41-6.88.92-9.79-.22-.06,1.62-.74,1.42-.8-2.14-.58-4.75-.17-7.12-1.01-.65.17-1.1.96-1.68,1.13-4.49,1.31-11.18,3.55-18.09,1.9-5.66-1.35-9.57-5.64-13.09-7.83-1.06-.66-2.64-2.39-3.51-2.8-.97.21-2.98,2.96-4.49,3.64-1.96.88-3.89,2.93-6.45,3.83-4.22,1.48-8.58,1.6-11.7,1.89-.72.07-2.61-2.64-3.29-2.56-2.37,1.96-4.69,3.68-6.86,5.11-1.28.84-3.81,2.11-4.86,2.96-.18.88,1.6,3.25,1.47,4.16-.63,4.16-2.16,9.1-4.89,14.24-2.76,5.19-5.35,8.79-8.68,11.6.11,1.85,2.03-.79,1.78,1.05-.58,4.22-1.38,3.84-3.6,7.47.08.4,1.05.24,1.12.57.01.07-2.49,1.47-2.48,1.54.09.04.92-.1,1-.06,2.8,1.45,6.11,3.63,9.63,6.84,2.57,2.34,6.47,1.62,7.35,1.93-.53-.19-1.62,1.51-2.37,1.51ZM1693.65,817.96l1.91.6c0-.3-1.91-.6-1.91-.6ZM1828.58,807.13l1.91.6c0-.3-1.91-.6-1.91-.6ZM1540.73,761.1c.07.04-1.26,1.71-1.19,1.74,3.27,1.54,7.31,2.72,11.07,5.89,4.6,3.88,9.96,5.04,14.15,7.64,4.71,2.92,9.58,5.62,14.43,7.94,6.07,2.9,8.93,9.28,11.75,12.77.23.28.73.77,1,1.1.49-.09,1.06-1,1.47-1.08.16-.03,1.35.63,1.52.6.15-.86.83-1.68,1.05-2.54,2.17-8.4,6.98-13.46,11.33-17.14.81-.68,2.07-1.76,2.73-2.4.21-.92-1.57-2.97-1.4-4.07.77-5.07,2.03-12.85,6.83-18.91,2.15-2.72,4.22-4.47,6.62-6.31-.86-2.31.75-4.18-.13-6-2.77-5.72-4.07-11.19-4.29-15.46-.05-1.01-.66-2.12-.76-2.98-.82-1.29-1.97-2.27-2.81-3.62-2.17-3.51-3.03-8.05-5.36-11.1-3.11-4.09-7.75-9.3-12.24-13.36-.74-.67-1.89.68-2.67.06-1.24-.82-5.42-.66-7.95-1.28-2.02-.5-3.53-1.3-5.62-1.92-2.72,1-6.84-.68-11.67-.72-6.35-.08-10.71-2.45-14.02-4.24-.08-.04-.99-.71-1.07-.75-1.38.18-2.15,2.39-3.36,2.44-1.56,3.73-4.56,7.69-9.29,10.96-.35.61.25,2.87-.24,4.04-.47,1.15-2.65,1.76-3.29,3.19-1.97,4.39-3.7,8.25-5.89,10.87-.57.68-.46,1.71-.94,2.35-.18,1.45-3.25,2.24-3.45,3.62-.34,2.42-.11,5.34-.24,7.47.25.21.54,1.48.76,1.66,3.25,2.74,9.81,4.88,12.42,10.87,2.9,6.64,1.51,13.74.73,18.68ZM1798.08,778.15l1.91.6c0-.3-1.91-.6-1.91-.6ZM1610.02,774.34l1.91.6c0-.3-1.91-.6-1.91-.6ZM1643.91,772.28s0,2.5,0,2.51c0,0,0-2.51,0-2.51ZM1789.82,769.72s0,2.51,0,2.51c0,0,0-2.51,0-2.51ZM1728.55,768.34l1.91.6c0-.3-1.91-.6-1.91-.6ZM1653.92,765.45s1.91.6,1.91.6c0-.3-1.91-.6-1.91-.6ZM1717.49,764.29l1.91.6c0-.3-1.91-.6-1.91-.6ZM1713.62,764.74s0-2.5,0-2.5c0,0,0,2.5,0,2.5ZM1679.32,758.13l1.91.6c0-.3-1.91-.6-1.91-.6ZM1659.64,753.8s1.91.6,1.91.6c0-.3-1.91-.6-1.91-.6ZM1819.48,753.11s1.91.6,1.91.6c0-.3-1.91-.6-1.91-.6ZM1679.99,724.92c1.01,0,1.87,2.54,2.93,2.64,7.62.71,12.9,3.51,17.13,6.13.78.48,2.74-1.09,3.58-.62.54-.15.46-.57.93-.71,4-1.16,10.2-1,16.34-.15,1.69-6.17,5.64-10.86,8.36-14.1.27-.33-.12-1.12.2-1.5-.12-.43,1.09-1.06.98-1.42-1.39-4.78-2.81-10.67-.85-18.12.85-3.23.89-6.4,1.81-9,.99-2.8,1.89-5.28,2.33-7.45.29-1.43-1.46-3.27-1.15-4.66.84-3.8,1.31-6.47,1.33-9.43.04-5.99,2.28-10.68,4.58-14.64-3.18-2.12-4.15-5.53-6.81-9.51-1.73-2.58-3.74-4.5-4.73-6.66-2.67.71-5.86,1.99-9.51,1.93-4.31-.1-7.68-.93-10.74-2.23-1.71,2.6-4.49,4-7.65,6.45-2.17,1.68-4.62,2.35-6.45,3.5-1.39.88-2.33,3.59-2.77,4.16-2.27,2.89-3.12,6.73-5.29,10.78-.02.61-.19.67-.19,1.34,0,3.68-2.97,8.14-5.12,13.51-2.76,6.87-7.99,10.77-12.08,13.4.98,4.07,1.47,9.52.1,15.45-1.35,5.87-2.25,10.64-4.78,13.85,1.64,2.72,2.96,6.41,3.96,10.57,3.76-1.42,8.38-3.52,13.58-3.52ZM1528.89,718.29l1.91.6c0-.3-1.91-.6-1.91-.6ZM1730.3,718.13l1.91.6c0-.3-1.91-.6-1.91-.6ZM1731.08,714.43l1.91.6c0-.3-1.91-.6-1.91-.6ZM1593.86,693.66s-1.16-1.62-1.16-1.62c-.18.24,1.16,1.62,1.16,1.62ZM1667.45,684.41l1.91.6c0-.3-1.91-.6-1.91-.6ZM1768.99,666.18v2.51-2.51ZM1745.81,654.67l1.91.6c0-.3-1.91-.6-1.91-.6ZM1549.37,654.33s-.01,1.31-.02,1.31c0,0,.01-1.31.02-1.31ZM1725.19,631.13l1.91.6c0-.3-1.91-.6-1.91-.6ZM1700.82,631.09l1.91.6c0-.3-1.91-.6-1.91-.6Z"/>
        <path class="cls-2" d="M1696.96,980.74c-1.27,0-2.37-2.56-3.75-2.72-9.14-1.07-16.15-3.27-23.95-9.03-.55-.37-3.7.9-4.98.35-5.11-2.18-13.58-5.75-18.46-13.42-.83-1.31-.34-3.89-1.51-5.51-3.32-4.59-7.03-9.67-9.32-16.07-2.85-7.95-1.7-15.49-.4-20.53.12-.45-.1-1.64.03-2.16-3.79,3.96-8.26,5.6-11.52,7.23-.05.03.09,1.34.04,1.37,0,.47-.05.99-.05,1.39-.07,6.56,1.22,18.86-8.37,25.39-10,6.81-26.08,8.04-35.6,5.95-8.66-1.9-15.3-8.67-19.84-13.73-1.36-1.52-.69-4.78-1.92-5.97-.4-.39-1.15.39-1.56,0-5.48-5.28-13.66-12.57-15.35-23.41-1.02-6.53-2.18-16.67.14-25.77,1.67-6.56,7.09-10.94,9.92-14.53.89-1.13,2.94-2.57,3.26-3.23,3.34-6.86,7.3-11.38,11.2-13.87-.51-5.34-2.1-14.1,2.73-21.45,1.38-2.11,2.97-2.46,4.36-4.38-3.46-2.63-3.41-7.36-5.45-9.88-.62-.77-2.06-2.12-2.62-2.71-6.15-3.01-11.44-6.83-16.41-9.91-6.26-3.88-12.98-6.35-17.92-10.53-.54-.41-2.07-1.99-3.36-2.6-4.39-2.07-11.44-3.9-15.97-9.62-6.64-8.37-3.54-18.75-2.61-24.6.03-.19-1.09-.47-1.05-.68-.05-.04-.46.91-.51.87-4.14-3.49-8.62-10.57-9.85-20.6-.79-6.51-.5-12.6.3-18.27.23-1.63.92-3.15,1.09-4.61,1-8.71,3.5-15.6,6.75-19.51.72-.87,1.8-1.85,2.12-2.4.44-.97,1.89-1.37,2.26-2.26,1.91-4.63,5.07-9.97,11.33-15.26.09-.23.17-1.01.24-1.2,1.73-4.6,4.83-11.81,14.15-15.29,4.79-1.79,8.73-4.98,12.08-5.1.96-.03,2.41,1.71,2.92,1.63,8.83-2.24,15.91,2.77,19.93,4.95,4-1.45,10.9-4.88,18.74-1.95,1.47.55,4.01-.23,6.32.34,6.86,1.69,16.06,3.81,22.99,10.11.76.69.4,1.09,1.16,1.78,5.24,4.75,11.02,10.1,15.85,16.16-.07-2.65-1.8-5.44-.87-8.41,2.7-8.62,11.37-12.08,15.9-14.94.05-.03.3-.09.35-.12,0-.03-.59-.41-.59-.44,0-4.14.33-10.33,3.67-16.59.11-.21.25-.14.36-.35,2.81-5.25,6.16-10.25,10.36-15.59,4.01-5.1,8.25-8.08,11.99-10.43,1.04-.66,1.7-1.81,2.52-2.39.37-.53.49-1.69.88-2.33,2.6-4.23,7.83-9.76,16.4-12.77,9.41-3.31,16.82-.21,21.68,2.06.38.18,1.06.39,1.5.59.42-.12.74-1.48,1.13-1.59,4.71-1.36,13.98-3.84,22.91.83,8.78,4.6,12.72,12.67,15.09,17.83.36.78.43,1.7.77,2.38.65.45,1.59.89,2.3,1.34,4.94,3.15,14.41,8.52,16.77,18.63,2.28,9.78-4.37,17.76-7.56,22.94-.44.72-2.41,1.71-2.82,2.43-.24,5.63.97,10.75.02,15.06-.26,1.18-.93,2.28-1.18,3.5-.9,4.5-2.19,8.53-3.42,12.03-.58,1.64.03,3.27-.43,4.76.18.74-1.71,1.77-1.49,2.51,1.31,4.53,2.18,10.17.61,17.22,0,.04,1.76,1.49,1.75,1.53,4.89-.67,10.95-2.75,17.17.05,6.47,2.9,8.67,10.57,10.99,14.33,4.18,0,10.09-.06,15.79,3.35,4.74,2.83,9.45,4.91,11.7,7.67.6.74.7,2.04,1.1,2.44,6.43,4.54,8.35,11.64,10.04,15.88.24.61,1.53.72,1.76,1.25.16.23-.54.68-.33.87,3.5,3.23,7.23,6.49,10.65,11.86.69.38,1.36,1.06,2.05,1.41,5.54,2.84,15.05,7.5,17.45,18.44,1.67,7.62-.35,14.36-1.96,19.17-.3.91-2.69,1.79-2.89,2.56-.02.12,1.88.35,1.9.47.52,4.31.17,9.99-2.01,16.75-3.81,11.83-11.76,18.87-18.13,22.26-.79.42-1.41.27-2.12.67-.08.35.38-.06.31.24-1.33,5.73-4.92,15.37-14.14,20.26-7.17,3.8-17.33,6.11-31.16,4.89-9.85-.87-14.27-10.35-18.15-14.86-.56-.65-2.83-.02-3.41-.64-.79-.13-.98,1-1.85.9,0,.46.8-.96.84-.66.74,5.43-3.11,10.41-3.65,14.44-.24,1.84,2.93,3.82,2.92,5.01-.07,5.92-4.4,11.25-5.23,16.22-.13.77,1.62,1.84,1.5,2.6-.08.64,1.02,2.49,1.1,3.78.25,4.16.88,10.4-1.07,16.31-2.34,7.07-7.93,12.09-11.24,15.1-.66.6-1.04,1.38-1.47,1.85-3.85,6.66-10.75,9.67-14.58,11.93-.98.58-1.33,2.25-1.73,2.61-4.56,4.24-11.56,5.85-19.81,9.14-.82.33-1.47,1.04-2.22,1.36-4.13,1.76-9.12,5.71-16.27,5.71ZM1750.42,948.02s0,2.51,0,2.51c0,0,0-2.51,0-2.51ZM1674.82,935.68c.88.46,1.17,3.25,2.23,3.7,3.08,1.31,6.9,2.24,10.49,4.89,3.14,2.32,6.09,1.01,9.43,1.4.62-.06,1.79-1,3.13-1.57.98-.42,2.74.92,3.81.49,2.48-.99,4.19-2.2,7.72-5.48,2.99-2.78,5.52-5.25,7.97-6.7.67-.4,2.56-.02,3.11-.38,2.42-3.94,5.75-6.27,8.1-8.41.38-.35.3-1.74.73-2.15-.02-.81-.03-1.95-.07-2.7-.19-3.12-2.5-7.24-1.82-11.43.13-.8.12-1.65.25-2.47.69-4.16,1.21-7.83,1.26-11.2.04-3.18,3.1-6,3.45-8.6.26-1.94-.46-4.68-.6-5.67-.49-3.6-1-7.04-.93-10.02,0-.3.25.55.25.21-4.65-2.17-10.22-6.79-13.79-13.77-2.72-5.32-2-10.2-1.34-13.95-1.05.95-2.9,2.63-4.21,3.44-8.01,4.91-16.31,4.47-22.1,3.31-2.37,3.99-5.45,8.83-11.41,12.41-4.33,2.6-9.85,1-13.33,1.96-.66.18-1.91.79-2.64,1.02-.13.43-1.2,1.44-1.31,1.81-.65,2.17.78,5.45-.5,8.21-.29,4.33-2.16,7.94-3.06,11.08-.24.83.89,1.89.66,2.8.38.49-.85,1.54-.51,1.96,2.61,3.29,7.19,7.27,8.88,13.33,2.03,7.31,1.12,14.47-.14,19.35-.19.74-3.27,1.87-3.45,2.66,1.02,1.87,3.48,4.35,5.05,6.52,1.15,1.58,3.55,2.23,4.69,3.95ZM1675.15,936.66s0,2.51,0,2.51c0,0,0-2.51,0-2.51ZM1673.84,935.17l1.91.6c0-.3-1.91-.6-1.91-.6ZM1666.38,925.3l1.91.6c0-.3-1.91-.6-1.91-.6ZM1731.05,922.1s1.91.6,1.91.6c0-.3-1.91-.6-1.91-.6ZM1589.34,919.2l1.91.6c0-.3-1.91-.6-1.91-.6ZM1588.72,918.42c.6.03,2.81.8,3.44.78.13-5.57-.08-11.96,4.41-17.99,4.03-5.4,7.87-9.88,11.8-11.84.2-.1-.38.24-.15.12,0-.4,1.79-.21,1.79-.55,0-4.54-.07-10.52,3.16-16.61,3.22-6.07,7.53-10.11,12.24-12.4-.39-1.84.6-3.59.51-5.69-.04-1,.41-2,.37-2.98-.01-.31-1.25-.94-1.26-1.24-3.24-2.06-6.12-4.43-8.63-6.71-.4-.32-3.04.67-4.08.13-1.94-1-3.71-2-6.28-3.9-1.4,2.05-1.4,3.35-2.79,5.26-1.07,1.46-4.34,1.43-5.31,2.82.05.57,1.11,1.51,1.15,2.01.51,5.34,1.74,13.9-3.11,21.28-3.37,5.12-7.96,8.68-11.32,10.82-.59.38-2.39-.4-2.96,0-1.76,3.22-4.43,5.4-6.17,7.6-.77.97-.31,3.28-.78,4.04-.53,2.59.55,5.86,1.13,9.96.88,1.31,2.69,3.16,4.26,4.67.43.42-1.69,2.62-1.26,3.04,2.08,2.01,3.95,3.86,5.56,5.66.87.97,3.39.84,4.27,1.74ZM1595.24,917.43l1.91.6c0-.3-1.91-.6-1.91-.6ZM1658.87,888.97l1.91.6c0-.3-1.91-.6-1.91-.6ZM1611.76,888.26l1.91.6c0-.3-1.91-.6-1.91-.6ZM1658.19,886.06l1.91.6c0-.3-1.91-.6-1.91-.6ZM1665.96,862.73l1.91.6c0-.3-1.91-.6-1.91-.6ZM1801.72,859.48l1.91.6c0-.3-1.91-.6-1.91-.6ZM1798.06,854.86c2.03.1,5.25,1.52,6.52,1.47,1.23-5.14,2.37-11.93,8.6-16.71,3.27-2.51,5.24-6.29,8.14-7.84,1.07-.57,1.91-1.2,2.94-1.82-.06-.61,1.47-.49,1.39-1.07-.08-.69-.09-.69-.17-1.38-.66-5.68-.12-10.51,1.16-14.47-4.34-2.29-8.35-6.17-11.7-11.99-1.16-2.02-2.09-3.64-5.27-6.57-.7-.64-1.4.11-2.09-.53-4.65-4.33-6.62-9.48-8.02-13-.19-.48-1.97.3-2.17-.18-2.96-2.39-5.39-5.12-7.04-7.15-.17-.21-.39-.31-.58-.55-.02,0,1.35-2.06,1.33-2.06-3.84.02-9.75,1.12-15.54-1.88-5.36-2.78-9.03-6.73-11.18-10.13-.71.39-.17,1.35-.83,1.71-1.29.79-4.31,1.9-5.08,2.79.83-.96,3.78-5.29,2.85-10.53,0,0-.93.94-.93.94-1.82.32-1.6-1.55-1.96.26,2.13,6.89.56,13.87-.29,18.73-.16.92-3.42,1.98-3.54,2.91.19.49.7,1.53.88,1.97,2.07,5.05,5.61,13.02.25,22.56-4.69,8.35-11.41,11.9-16.47,13.21-.22.06-.83-.54-1.08-.48-3.4,4.1-5.93,9.13-10.36,12.91-.33.72-2.17.77-2.49,1.58-1.44,3.57-2.36,8.97-6.2,13.12.26,2.15-.25,3.14,1.25,4.99,12.67-10.72,12.93-10.28,25.64-20.95,1.94,1.65,1.45,2.33,2.35,3.22,1.03,1.02,1.43,2.06,3.92,3.84.82.59,3.24-1.03,4.07-.42,3.65,2.65,7.2,5.44,10.94,7.63.77.21,2.12,1.5,3.4,1.64,3.46.39,7.36,1.82,11.87,3.59,6.66,2.61,10.77,7.08,13.91,10.72.25.29,1.25-.45,1.55-.11ZM1766.66,839.36s1.91.59,1.91.59c0-.3-1.91-.59-1.91-.59ZM1642.52,823.55c-3.32,0-9.66,2.68-11.81,7.36,4.6,4.75,6.67,4.68,13.24,5.47,6.2.75,6.03-3.78,12.15-4.99.04.17.17.03.21.2.79-.23,1.8,1.45,2.51,1.25.88-.24,2.21-.65,3.08-.93.39-.61.26-1.98.61-2.58,2.4-4.05,6.81-9.08,13.6-12.78,7.17-3.91,14.75-2.45,20.17-1.41,1.74-4.21,3.91-10.41,8.82-14.44,3.47-2.84,6.46-6.36,9.89-10.59,2.64-3.26,4.21-6.58,7.32-7.93-.49-1.91-1.33-2.97-1.34-5.17-.02-3.44.41-6.88.92-9.79-.22-.06,1.62-.74,1.42-.8-2.14-.58-4.75-.17-7.12-1.01-.65.17-1.1.96-1.68,1.13-4.49,1.31-11.18,3.55-18.09,1.9-5.66-1.35-9.57-5.64-13.09-7.83-1.06-.66-2.64-2.39-3.51-2.8-.97.21-2.98,2.96-4.49,3.64-1.96.88-3.89,2.93-6.45,3.83-4.22,1.48-8.58,1.6-11.7,1.89-.72.07-2.61-2.64-3.29-2.56-2.37,1.96-4.69,3.68-6.86,5.11-1.28.84-3.81,2.11-4.86,2.96-.18.88,1.6,3.25,1.47,4.16-.63,4.16-2.16,9.1-4.89,14.24-2.76,5.19-5.35,8.79-8.68,11.6.11,1.85,2.03-.79,1.78,1.05-.58,4.22-1.38,3.84-3.6,7.47.08.4,1.05.24,1.12.57.01.07-2.49,1.47-2.48,1.54.09.04.92-.1,1-.06,2.8,1.45,6.11,3.63,9.63,6.84,2.57,2.34,6.47,1.62,7.35,1.93-.53-.19-1.62,1.51-2.37,1.51ZM1693.65,817.96l1.91.6c0-.3-1.91-.6-1.91-.6ZM1828.58,807.13l1.91.6c0-.3-1.91-.6-1.91-.6ZM1540.73,761.1c.07.04-1.26,1.71-1.19,1.74,3.27,1.54,7.31,2.72,11.07,5.89,4.6,3.88,9.96,5.04,14.15,7.64,4.71,2.92,9.58,5.62,14.43,7.94,6.07,2.9,8.93,9.28,11.75,12.77.23.28.73.77,1,1.1.49-.09,1.06-1,1.47-1.08.16-.03,1.35.63,1.52.6.15-.86.83-1.68,1.05-2.54,2.17-8.4,6.98-13.46,11.33-17.14.81-.68,2.07-1.76,2.73-2.4.21-.92-1.57-2.97-1.4-4.07.77-5.07,2.03-12.85,6.83-18.91,2.15-2.72,4.22-4.47,6.62-6.31-.86-2.31.75-4.18-.13-6-2.77-5.72-4.07-11.19-4.29-15.46-.05-1.01-.66-2.12-.76-2.98-.82-1.29-1.97-2.27-2.81-3.62-2.17-3.51-3.03-8.05-5.36-11.1-3.11-4.09-7.75-9.3-12.24-13.36-.74-.67-1.89.68-2.67.06-1.24-.82-5.42-.66-7.95-1.28-2.02-.5-3.53-1.3-5.62-1.92-2.72,1-6.84-.68-11.67-.72-6.35-.08-10.71-2.45-14.02-4.24-.08-.04-.99-.71-1.07-.75-1.38.18-2.15,2.39-3.36,2.44-1.56,3.73-4.56,7.69-9.29,10.96-.35.61.25,2.87-.24,4.04-.47,1.15-2.65,1.76-3.29,3.19-1.97,4.39-3.7,8.25-5.89,10.87-.57.68-.46,1.71-.94,2.35-.18,1.45-3.25,2.24-3.45,3.62-.34,2.42-.11,5.34-.24,7.47.25.21.54,1.48.76,1.66,3.25,2.74,9.81,4.88,12.42,10.87,2.9,6.64,1.51,13.74.73,18.68ZM1798.08,778.15l1.91.6c0-.3-1.91-.6-1.91-.6ZM1610.02,774.34l1.91.6c0-.3-1.91-.6-1.91-.6ZM1643.91,772.28s0,2.5,0,2.51c0,0,0-2.51,0-2.51ZM1789.82,769.72s0,2.51,0,2.51c0,0,0-2.51,0-2.51ZM1728.55,768.34l1.91.6c0-.3-1.91-.6-1.91-.6ZM1653.92,765.45s1.91.6,1.91.6c0-.3-1.91-.6-1.91-.6ZM1717.49,764.29l1.91.6c0-.3-1.91-.6-1.91-.6ZM1713.62,764.74s0-2.5,0-2.5c0,0,0,2.5,0,2.5ZM1679.32,758.13l1.91.6c0-.3-1.91-.6-1.91-.6ZM1659.64,753.8s1.91.6,1.91.6c0-.3-1.91-.6-1.91-.6ZM1819.48,753.11s1.91.6,1.91.6c0-.3-1.91-.6-1.91-.6ZM1679.99,724.92c1.01,0,1.87,2.54,2.93,2.64,7.62.71,12.9,3.51,17.13,6.13.78.48,2.74-1.09,3.58-.62.54-.15.46-.57.93-.71,4-1.16,10.2-1,16.34-.15,1.69-6.17,5.64-10.86,8.36-14.1.27-.33-.12-1.12.2-1.5-.12-.43,1.09-1.06.98-1.42-1.39-4.78-2.81-10.67-.85-18.12.85-3.23.89-6.4,1.81-9,.99-2.8,1.89-5.28,2.33-7.45.29-1.43-1.46-3.27-1.15-4.66.84-3.8,1.31-6.47,1.33-9.43.04-5.99,2.28-10.68,4.58-14.64-3.18-2.12-4.15-5.53-6.81-9.51-1.73-2.58-3.74-4.5-4.73-6.66-2.67.71-5.86,1.99-9.51,1.93-4.31-.1-7.68-.93-10.74-2.23-1.71,2.6-4.49,4-7.65,6.45-2.17,1.68-4.62,2.35-6.45,3.5-1.39.88-2.33,3.59-2.77,4.16-2.27,2.89-3.12,6.73-5.29,10.78-.02.61-.19.67-.19,1.34,0,3.68-2.97,8.14-5.12,13.51-2.76,6.87-7.99,10.77-12.08,13.4.98,4.07,1.47,9.52.1,15.45-1.35,5.87-2.25,10.64-4.78,13.85,1.64,2.72,2.96,6.41,3.96,10.57,3.76-1.42,8.38-3.52,13.58-3.52ZM1528.89,718.29l1.91.6c0-.3-1.91-.6-1.91-.6ZM1730.3,718.13l1.91.6c0-.3-1.91-.6-1.91-.6ZM1731.08,714.43l1.91.6c0-.3-1.91-.6-1.91-.6ZM1593.86,693.66s-1.16-1.62-1.16-1.62c-.18.24,1.16,1.62,1.16,1.62ZM1667.45,684.41l1.91.6c0-.3-1.91-.6-1.91-.6ZM1768.99,666.18v2.51-2.51ZM1745.81,654.67l1.91.6c0-.3-1.91-.6-1.91-.6ZM1549.37,654.33s-.01,1.31-.02,1.31c0,0,.01-1.31.02-1.31ZM1725.19,631.13l1.91.6c0-.3-1.91-.6-1.91-.6ZM1700.82,631.09l1.91.6c0-.3-1.91-.6-1.91-.6Z"/>
      </g>
    </g>
  </g>
</svg>