<?xml version="1.0" encoding="UTF-8"?>
<svg id="Layer_1" data-name="Layer 1" xmlns="http://www.w3.org/2000/svg" xmlns:xlink="http://www.w3.org/1999/xlink" viewBox="0 0 1920 1080">
  <defs>
    <style>
      .cls-1 {
        stroke-width: 3.69px;
      }

      .cls-1, .cls-2 {
        fill: none;
        stroke: #8b8332;
        stroke-miterlimit: 10;
      }

      .cls-2 {
        stroke-width: 3.67px;
      }

      .cls-3 {
        opacity: .9;
      }

      .cls-4, .cls-5, .cls-6 {
        stroke-width: 0px;
      }

      .cls-5 {
        fill: #d0dbdc;
      }

      .cls-6 {
        fill: #8b8332;
      }
    </style>
    <symbol id="Anchor_2" data-name="Anchor 2" viewBox="0 0 15 15">
      <g>
        <path class="cls-6" d="M7.5,13c-1.47,0-2.85-.57-3.89-1.61-1.04-1.04-1.61-2.42-1.61-3.89s.57-2.85,1.61-3.89c1.04-1.04,2.42-1.61,3.89-1.61s2.85.57,3.89,1.61c1.04,1.04,1.61,2.42,1.61,3.89s-.57,2.85-1.61,3.89c-1.04,1.04-2.42,1.61-3.89,1.61Z"/>
        <path class="cls-6" d="M7.5,4c.93,0,1.81.36,2.48,1.03s1.02,1.54,1.02,2.47-.36,1.81-1.03,2.47c-.66.66-1.54,1.02-2.47,1.02s-1.81-.36-2.47-1.02c-.66-.66-1.03-1.54-1.03-2.47s.36-1.81,1.03-2.48,1.54-1.02,2.47-1.02M7.5,0c-1.92,0-3.84.73-5.3,2.2-2.93,2.93-2.93,7.68,0,10.61,1.46,1.46,3.38,2.2,5.3,2.2s3.84-.73,5.3-2.2c2.93-2.93,2.93-7.68,0-10.61-1.46-1.46-3.38-2.2-5.3-2.2h0Z"/>
      </g>
    </symbol>
  </defs>
  <g>
    <path class="cls-6" d="M1387.89,875.98v-10.87c0-.32,0-.65.01-1,0-.34.02-.71.04-1.09-.54.53-1.16.98-1.86,1.36-.7.38-1.41.64-2.15.8l-.48-2.23c.34-.05.73-.16,1.18-.34.45-.18.91-.4,1.39-.67s.92-.56,1.32-.88.71-.62.94-.92h2.16v15.84h-2.54Z"/>
    <path class="cls-6" d="M1388.07,881.08v-1.87c1.52-1.09,2.8-2.05,3.83-2.88,1.03-.83,1.86-1.6,2.48-2.3.62-.7,1.08-1.37,1.36-2,.28-.63.42-1.28.42-1.93,0-.85-.26-1.54-.79-2.06-.53-.53-1.26-.79-2.21-.79-.99,0-1.78.33-2.36,1s-.92,1.57-1,2.72l-2.23-1.03c.11-1.01.41-1.88.89-2.62.48-.74,1.13-1.3,1.96-1.71.82-.4,1.78-.6,2.87-.6.9,0,1.68.13,2.36.38.68.26,1.25.61,1.72,1.07s.82.99,1.07,1.6c.25.61.37,1.26.37,1.94,0,1.01-.25,1.98-.74,2.92-.5.94-1.28,1.89-2.35,2.87-1.07.98-2.48,2.03-4.22,3.14v.05c.19-.03.46-.05.79-.06s.67-.02,1.01-.02c.34,0,.61-.01.82-.01h4.99v2.21h-11.02Z"/>
    <path class="cls-6" d="M1386.71,880.91c-1.49,0-2.78-.33-3.88-1-1.1-.66-1.84-1.6-2.24-2.8l2.5-1.18c.14.58.37,1.07.67,1.49.3.42.7.73,1.2.95s1.11.32,1.85.32c.62,0,1.15-.11,1.58-.34s.76-.54,1-.94c.23-.4.35-.86.35-1.37s-.1-.97-.3-1.32c-.2-.35-.51-.61-.94-.77s-.96-.24-1.62-.24c-.19,0-.39,0-.59.01-.2,0-.41.03-.64.06v-2.16c.14.02.28.03.42.04.14,0,.27.01.4.01,1.04,0,1.78-.21,2.23-.62.45-.42.67-1.06.67-1.94,0-.75-.23-1.33-.68-1.73-.46-.4-1.11-.6-1.96-.6s-1.56.2-2.05.61c-.49.41-.86,1-1.12,1.76l-2.35-.98c.22-.74.6-1.38,1.13-1.92.53-.54,1.18-.96,1.96-1.26.78-.3,1.63-.44,2.56-.44,1.14,0,2.08.18,2.84.55.76.37,1.33.87,1.7,1.51.38.64.56,1.35.56,2.14,0,.61-.09,1.14-.26,1.6-.18.46-.41.85-.71,1.18-.3.33-.62.58-.96.76-.34.18-.69.3-1.04.36v.05c.46.02.89.11,1.28.28.39.17.74.4,1.06.7s.56.65.73,1.07c.18.42.26.87.26,1.37,0,.96-.24,1.8-.72,2.52-.48.72-1.14,1.28-1.98,1.68-.84.4-1.81.6-2.92.6Z"/>
    <path class="cls-6" d="M1696.95,971.26v-3.96h-7.73v-1.75c.03-.08.08-.18.16-.29.07-.11.16-.24.25-.38l6.6-9.46h3.14v9.89h2.69v1.99h-2.69v3.96h-2.42ZM1691.62,965.3h5.33v-5.59c0-.38.01-.78.04-1.19.02-.41.04-.81.06-1.21h-.05c-.18.38-.4.8-.68,1.26-.28.46-.54.85-.78,1.19l-3.74,5.33s-.06.06-.08.1c-.02.03-.05.07-.08.12Z"/>
    <path class="cls-6" d="M1760.29,938.01c-1.41,0-2.56-.3-3.47-.91s-1.62-1.49-2.15-2.64l2.4-1.25c.24.77.6,1.4,1.09,1.88.49.49,1.21.73,2.17.73.67,0,1.24-.12,1.72-.37.47-.25.84-.6,1.09-1.06.26-.46.38-1,.38-1.64,0-.67-.12-1.23-.36-1.68-.24-.45-.58-.79-1.03-1.02s-1.01-.35-1.68-.35c-.46,0-.9.05-1.3.14s-.76.24-1.08.44c-.32.2-.6.46-.84.78l-2.11-.41.96-8.74h9.22v2.21h-7.18l-.58,4.46-.05.26h.05c.37-.4.84-.71,1.43-.94.58-.22,1.28-.34,2.08-.34,1.02,0,1.9.21,2.64.64.74.42,1.31,1.01,1.73,1.76s.62,1.62.62,2.62c0,.86-.14,1.63-.43,2.3-.29.67-.7,1.24-1.22,1.7-.53.46-1.14.81-1.84,1.04-.7.23-1.45.35-2.27.35Z"/>
    <path class="cls-6" d="M1783.54,882.86c.85,0,1.6.12,2.26.35.66.23,1.23.6,1.72,1.09.49.5.89,1.14,1.21,1.95l-2.26,1.08c-.22-.69-.58-1.23-1.07-1.63-.49-.4-1.16-.6-2.03-.6-.62,0-1.18.15-1.66.46-.48.3-.89.73-1.22,1.29-.34.55-.59,1.2-.77,1.94-.18.74-.26,1.55-.26,2.41v.43l.1.05c.18-.64.49-1.16.95-1.55.46-.39.97-.68,1.55-.88.58-.19,1.14-.29,1.7-.29,1.06,0,1.98.21,2.76.61.78.41,1.4.99,1.84,1.74.44.75.66,1.65.66,2.69s-.23,1.97-.7,2.75c-.46.78-1.11,1.38-1.93,1.8-.82.42-1.81.64-2.96.64-1.34,0-2.49-.34-3.43-1.01-.94-.67-1.66-1.62-2.16-2.83-.5-1.22-.74-2.64-.74-4.27,0-1.81.28-3.32.85-4.54.57-1.21,1.34-2.13,2.32-2.75.98-.62,2.07-.92,3.29-.92ZM1783.37,891.09c-.61,0-1.14.12-1.61.37-.46.25-.83.59-1.09,1.02-.26.43-.4.94-.4,1.51s.14,1.06.42,1.51c.28.45.65.8,1.12,1.07.46.26.98.4,1.56.4.98,0,1.74-.26,2.28-.79.54-.53.82-1.26.82-2.18,0-.59-.12-1.11-.36-1.55-.24-.44-.59-.78-1.04-1.01s-1.02-.35-1.69-.35Z"/>
    <path class="cls-6" d="M1798.87,807.21h12.07v2.14c-1.33,1.38-2.4,2.79-3.22,4.24s-1.4,2.95-1.76,4.51-.54,3.21-.54,4.96h-2.59c0-1.76.22-3.48.66-5.15.44-1.67,1.11-3.27,2.02-4.8.9-1.53,2.04-2.96,3.42-4.31l.48.65h-10.54v-2.23Z"/>
    <path class="cls-6" d="M1741.57,771.05c1.07,0,2,.17,2.8.52.79.34,1.4.83,1.84,1.45.43.62.65,1.38.65,2.26,0,.82-.2,1.53-.59,2.15-.39.62-.96,1.08-1.72,1.4v.02c.91.34,1.64.84,2.17,1.5s.8,1.48.8,2.46-.24,1.75-.73,2.42c-.49.67-1.18,1.19-2.06,1.56-.89.37-1.94.55-3.16.55s-2.27-.18-3.16-.55c-.89-.37-1.58-.89-2.08-1.56-.5-.67-.74-1.48-.74-2.42s.26-1.78.79-2.45c.53-.67,1.26-1.18,2.21-1.51v-.02c-.72-.3-1.29-.76-1.7-1.38-.42-.62-.62-1.34-.62-2.17,0-.88.22-1.63.65-2.26.43-.62,1.05-1.11,1.85-1.45.8-.34,1.74-.52,2.81-.52ZM1741.57,785.19c.7,0,1.3-.1,1.8-.31.5-.21.88-.51,1.15-.91.27-.4.41-.86.41-1.39,0-.56-.14-1.04-.42-1.43s-.67-.69-1.16-.9c-.5-.21-1.09-.31-1.78-.31s-1.26.1-1.78.31c-.51.21-.91.51-1.19.9-.28.39-.42.87-.42,1.43,0,.53.14.99.41,1.39.27.4.66.71,1.18.91.51.21,1.11.31,1.8.31ZM1741.57,773.21c-.85,0-1.52.21-2.03.62s-.76.98-.76,1.7.26,1.28.77,1.69,1.18.61,2.02.61,1.5-.2,2-.61c.5-.41.76-.97.76-1.69s-.25-1.29-.74-1.7c-.5-.42-1.17-.62-2.02-.62Z"/>
    <path class="cls-6" d="M1756.93,642.35c1.36,0,2.51.34,3.44,1.01s1.64,1.62,2.11,2.83c.47,1.22.71,2.65.71,4.3,0,1.82-.25,3.34-.74,4.55-.5,1.21-1.21,2.12-2.14,2.72s-2.05.91-3.36.91-2.5-.3-3.46-.89c-.96-.59-1.68-1.48-2.16-2.66l2.42-1.13c.22.75.6,1.35,1.12,1.8.52.45,1.23.67,2.12.67.74,0,1.35-.14,1.85-.43.5-.29.89-.7,1.19-1.25.3-.54.51-1.2.64-1.97.13-.77.19-1.63.19-2.59v-.26h-.1c-.18.64-.49,1.16-.95,1.56-.46.4-.97.69-1.55.88-.58.18-1.15.28-1.73.28-1.02,0-1.93-.2-2.72-.61-.79-.41-1.41-.98-1.86-1.72-.45-.74-.67-1.61-.67-2.62,0-1.1.23-2.06.68-2.86.46-.8,1.1-1.42,1.94-1.86.84-.44,1.84-.66,3.01-.66ZM1756.95,644.61c-1.01,0-1.78.27-2.32.82-.54.54-.8,1.3-.8,2.28,0,.87.28,1.54.85,2.03.57.49,1.32.73,2.27.73.61,0,1.14-.12,1.61-.37s.83-.59,1.09-1.02c.26-.43.4-.94.4-1.51,0-.61-.13-1.13-.4-1.57-.26-.44-.63-.78-1.09-1.02-.46-.24-1-.36-1.61-.36Z"/>
    <g>
      <path class="cls-6" d="M1582.83,742.87v-10.87c0-.32,0-.65.01-1,0-.34.02-.71.04-1.09-.54.53-1.16.98-1.86,1.36-.7.38-1.41.64-2.15.8l-.48-2.23c.34-.05.73-.16,1.18-.34.45-.18.91-.4,1.39-.67s.92-.56,1.32-.88.71-.62.94-.92h2.16v15.84h-2.54Z"/>
      <path class="cls-6" d="M1595.14,743.11c-1.9,0-3.4-.69-4.48-2.08-1.08-1.38-1.62-3.41-1.62-6.08s.54-4.7,1.62-6.08,2.57-2.08,4.48-2.08,3.42.69,4.5,2.08,1.62,3.41,1.62,6.08-.54,4.7-1.62,6.08c-1.08,1.38-2.58,2.08-4.5,2.08ZM1595.14,740.92c.77,0,1.41-.22,1.93-.66.52-.44.91-1.1,1.18-1.99.26-.89.4-2,.4-3.32s-.13-2.44-.4-3.32c-.26-.89-.66-1.55-1.18-1.99-.52-.44-1.16-.66-1.93-.66s-1.41.22-1.93.66c-.52.44-.91,1.1-1.16,1.99-.26.89-.38,2-.38,3.32s.13,2.44.38,3.32c.26.89.64,1.55,1.16,1.99.52.44,1.16.66,1.93.66Z"/>
    </g>
    <g>
      <path class="cls-6" d="M1666.52,745v-10.87c0-.32,0-.65.01-1,0-.34.02-.71.04-1.09-.54.53-1.16.98-1.86,1.36-.7.38-1.41.64-2.15.8l-.48-2.23c.34-.05.73-.16,1.18-.34.45-.18.91-.4,1.39-.67s.92-.56,1.32-.88.71-.62.94-.92h2.16v15.84h-2.54Z"/>
      <path class="cls-6" d="M1676.17,745v-10.87c0-.32,0-.65.01-1,0-.34.02-.71.04-1.09-.54.53-1.16.98-1.86,1.36-.7.38-1.41.64-2.15.8l-.48-2.23c.34-.05.73-.16,1.18-.34.45-.18.91-.4,1.39-.67s.92-.56,1.32-.88.71-.62.94-.92h2.16v15.84h-2.54Z"/>
    </g>
    <g>
      <path class="cls-6" d="M1542.95,679.3v-10.87c0-.32,0-.65.01-1,0-.34.02-.71.04-1.09-.54.53-1.16.98-1.86,1.36-.7.38-1.41.64-2.15.8l-.48-2.23c.34-.05.73-.16,1.18-.34.45-.18.91-.4,1.39-.67s.92-.56,1.32-.88.71-.62.94-.92h2.16v15.84h-2.54Z"/>
      <path class="cls-6" d="M1549.41,679.3v-1.87c1.52-1.09,2.8-2.05,3.83-2.88,1.03-.83,1.86-1.6,2.48-2.3.62-.7,1.08-1.37,1.36-2,.28-.63.42-1.28.42-1.93,0-.85-.26-1.54-.79-2.06-.53-.53-1.26-.79-2.21-.79-.99,0-1.78.33-2.36,1s-.92,1.57-1,2.72l-2.23-1.03c.11-1.01.41-1.88.89-2.62.48-.74,1.13-1.3,1.96-1.71.82-.4,1.78-.6,2.87-.6.9,0,1.68.13,2.36.38.68.26,1.25.61,1.72,1.07s.82.99,1.07,1.6c.25.61.37,1.26.37,1.94,0,1.01-.25,1.98-.74,2.92-.5.94-1.28,1.89-2.35,2.87-1.07.98-2.48,2.03-4.22,3.14v.05c.19-.03.46-.05.79-.06s.67-.02,1.01-.02c.34,0,.61-.01.82-.01h4.99v2.21h-11.02Z"/>
    </g>
    <g>
      <path class="cls-6" d="M1450.83,818.74v-10.87c0-.32,0-.65.01-1,0-.34.02-.71.04-1.09-.54.53-1.16.98-1.86,1.36-.7.38-1.41.64-2.15.8l-.48-2.23c.34-.05.73-.16,1.18-.34.45-.18.91-.4,1.39-.67s.92-.56,1.32-.88.71-.62.94-.92h2.16v15.84h-2.54Z"/>
      <path class="cls-6" d="M1462.63,818.98c-1.49,0-2.78-.33-3.88-1-1.1-.66-1.84-1.6-2.24-2.8l2.5-1.18c.14.58.37,1.07.67,1.49.3.42.7.73,1.2.95s1.11.32,1.85.32c.62,0,1.15-.11,1.58-.34.43-.22.76-.54,1-.94.23-.4.35-.86.35-1.37s-.1-.97-.3-1.32-.51-.61-.94-.77-.96-.24-1.62-.24c-.19,0-.39,0-.59.01s-.41.03-.64.06v-2.16c.14.02.28.03.42.04.14,0,.27.01.4.01,1.04,0,1.78-.21,2.23-.62.45-.42.67-1.06.67-1.94,0-.75-.23-1.33-.68-1.73-.46-.4-1.11-.6-1.96-.6s-1.56.2-2.05.61c-.49.41-.86,1-1.12,1.76l-2.35-.98c.22-.74.6-1.38,1.13-1.92.53-.54,1.18-.96,1.96-1.26.78-.3,1.63-.44,2.56-.44,1.14,0,2.08.18,2.84.55.76.37,1.33.87,1.7,1.51.38.64.56,1.35.56,2.14,0,.61-.09,1.14-.26,1.6-.18.46-.41.85-.71,1.18-.3.33-.62.58-.96.76-.34.18-.69.3-1.04.36v.05c.46.02.89.11,1.28.28.39.17.74.4,1.06.7.31.3.56.65.73,1.07s.26.87.26,1.37c0,.96-.24,1.8-.72,2.52s-1.14,1.28-1.98,1.68c-.84.4-1.81.6-2.92.6Z"/>
    </g>
    <g>
      <path class="cls-6" d="M1498.28,804.8v-10.87c0-.32,0-.65.01-1,0-.34.02-.71.04-1.09-.54.53-1.16.98-1.86,1.36-.7.38-1.41.64-2.15.8l-.48-2.23c.34-.05.73-.16,1.18-.34.45-.18.91-.4,1.39-.67s.92-.56,1.32-.88.71-.62.94-.92h2.16v15.84h-2.54Z"/>
      <path class="cls-6" d="M1511.84,804.8v-3.96h-7.73v-1.75c.03-.08.08-.18.16-.29.07-.11.16-.24.25-.38l6.6-9.46h3.14v9.89h2.69v1.99h-2.69v3.96h-2.42ZM1506.51,798.85h5.33v-5.59c0-.38.01-.78.04-1.19.02-.41.04-.81.06-1.21h-.05c-.18.38-.4.8-.68,1.26-.28.46-.54.85-.78,1.19l-3.74,5.33s-.06.06-.08.1c-.02.03-.05.07-.08.12Z"/>
    </g>
    <g>
      <path class="cls-6" d="M1539.11,757.42v-10.87c0-.32,0-.65.01-1,0-.34.02-.71.04-1.09-.54.53-1.16.98-1.86,1.36-.7.38-1.41.64-2.15.8l-.48-2.23c.34-.05.73-.16,1.18-.34.45-.18.91-.4,1.39-.67s.92-.56,1.32-.88.71-.62.94-.92h2.16v15.84h-2.54Z"/>
      <path class="cls-6" d="M1550.78,757.66c-1.41,0-2.56-.3-3.47-.91s-1.62-1.49-2.15-2.64l2.4-1.25c.24.77.6,1.4,1.09,1.88.49.49,1.21.73,2.17.73.67,0,1.24-.12,1.72-.37.47-.25.84-.6,1.09-1.06.26-.46.38-1,.38-1.64,0-.67-.12-1.23-.36-1.68-.24-.45-.58-.79-1.03-1.02s-1.01-.35-1.68-.35c-.46,0-.9.05-1.3.14s-.76.24-1.08.44c-.32.2-.6.46-.84.78l-2.11-.41.96-8.74h9.22v2.21h-7.18l-.58,4.46-.05.26h.05c.37-.4.84-.71,1.43-.94.58-.22,1.28-.34,2.08-.34,1.02,0,1.9.21,2.64.64.74.42,1.31,1.01,1.73,1.76s.62,1.62.62,2.62c0,.86-.14,1.63-.43,2.3-.29.67-.7,1.24-1.22,1.7-.53.46-1.14.81-1.84,1.04-.7.23-1.45.35-2.27.35Z"/>
    </g>
    <g>
      <path class="cls-6" d="M1358.92,840.25v-10.87c0-.32,0-.65.01-1,0-.34.02-.71.04-1.09-.54.53-1.16.98-1.86,1.36-.7.38-1.41.64-2.15.8l-.48-2.23c.34-.05.73-.16,1.18-.34.45-.18.91-.4,1.39-.67.48-.27.92-.56,1.32-.88s.71-.62.94-.92h2.16v15.84h-2.54Z"/>
      <path class="cls-6" d="M1371.59,824.17c.85,0,1.6.12,2.26.35.66.23,1.23.6,1.72,1.09.49.5.89,1.14,1.21,1.94l-2.26,1.08c-.22-.69-.58-1.23-1.07-1.63-.49-.4-1.16-.6-2.03-.6-.62,0-1.18.15-1.66.46-.48.3-.89.73-1.22,1.28-.34.55-.59,1.2-.77,1.94-.18.74-.26,1.55-.26,2.41v.43l.1.05c.18-.64.49-1.16.95-1.55.46-.39.97-.68,1.55-.88.58-.19,1.14-.29,1.7-.29,1.06,0,1.98.2,2.76.61.78.41,1.4.99,1.84,1.74.44.75.66,1.65.66,2.69s-.23,1.97-.7,2.75c-.46.78-1.11,1.38-1.93,1.8-.82.42-1.81.64-2.96.64-1.34,0-2.49-.34-3.43-1.01-.94-.67-1.66-1.62-2.16-2.83-.5-1.21-.74-2.64-.74-4.27,0-1.81.28-3.32.85-4.54.57-1.22,1.34-2.13,2.32-2.75.98-.62,2.07-.92,3.29-.92ZM1371.43,832.4c-.61,0-1.14.12-1.61.37-.46.25-.83.59-1.09,1.02-.26.43-.4.94-.4,1.51s.14,1.06.42,1.51c.28.45.65.8,1.12,1.07.46.26.98.4,1.56.4.98,0,1.74-.26,2.28-.79s.82-1.26.82-2.18c0-.59-.12-1.11-.36-1.55-.24-.44-.59-.78-1.04-1.01s-1.02-.35-1.69-.35Z"/>
    </g>
    <g>
      <path class="cls-6" d="M1395.44,841.79v-10.87c0-.32,0-.65.01-1,0-.34.02-.71.04-1.09-.54.53-1.16.98-1.86,1.36-.7.38-1.41.64-2.15.8l-.48-2.23c.34-.05.73-.16,1.18-.34.45-.18.91-.4,1.39-.67s.92-.56,1.32-.88.71-.62.94-.92h2.16v15.84h-2.54Z"/>
      <path class="cls-6" d="M1401.13,825.95h12.07v2.14c-1.33,1.38-2.4,2.79-3.22,4.24s-1.4,2.95-1.76,4.51-.54,3.21-.54,4.96h-2.59c0-1.76.22-3.48.66-5.15.44-1.67,1.11-3.27,2.02-4.8.9-1.53,2.04-2.96,3.42-4.31l.48.65h-10.54v-2.23Z"/>
    </g>
    <g>
      <path class="cls-6" d="M1361.47,861.78v-10.87c0-.32,0-.65.01-1,0-.34.02-.71.04-1.09-.54.53-1.16.98-1.86,1.36-.7.38-1.41.64-2.15.8l-.48-2.23c.34-.05.73-.16,1.18-.34.45-.18.91-.4,1.39-.67s.92-.56,1.32-.88.71-.62.94-.92h2.16v15.84h-2.54Z"/>
      <path class="cls-6" d="M1373.68,845.72c1.07,0,2,.17,2.8.52.79.34,1.4.83,1.84,1.45.43.62.65,1.38.65,2.26,0,.82-.2,1.53-.59,2.15-.39.62-.96,1.08-1.72,1.4v.02c.91.34,1.64.84,2.17,1.5s.8,1.48.8,2.46-.24,1.75-.73,2.42c-.49.67-1.18,1.19-2.06,1.56-.89.37-1.94.55-3.16.55s-2.27-.18-3.16-.55c-.89-.37-1.58-.89-2.08-1.56-.5-.67-.74-1.48-.74-2.42s.26-1.78.79-2.45c.53-.67,1.26-1.18,2.21-1.51v-.02c-.72-.3-1.29-.76-1.7-1.38-.42-.62-.62-1.34-.62-2.17,0-.88.22-1.63.65-2.26.43-.62,1.05-1.11,1.85-1.45.8-.34,1.74-.52,2.81-.52ZM1373.68,859.86c.7,0,1.3-.1,1.8-.31.5-.21.88-.51,1.15-.91.27-.4.41-.86.41-1.39,0-.56-.14-1.04-.42-1.43s-.67-.69-1.16-.9c-.5-.21-1.09-.31-1.78-.31s-1.26.1-1.78.31c-.51.21-.91.51-1.19.9-.28.39-.42.87-.42,1.43,0,.53.14.99.41,1.39.27.4.66.71,1.18.91.51.21,1.11.31,1.8.31ZM1373.68,847.88c-.85,0-1.52.21-2.03.62s-.76.98-.76,1.7.26,1.28.77,1.69,1.18.61,2.02.61,1.5-.2,2-.61c.5-.41.76-.97.76-1.69s-.25-1.29-.74-1.7c-.5-.42-1.17-.62-2.02-.62Z"/>
    </g>
    <g>
      <path class="cls-6" d="M1326.82,893.28v-10.87c0-.32,0-.65.01-1,0-.34.02-.71.04-1.09-.54.53-1.16.98-1.86,1.36-.7.38-1.41.64-2.15.8l-.48-2.23c.34-.05.73-.16,1.18-.34.45-.18.91-.4,1.39-.67.48-.27.92-.56,1.32-.88s.71-.62.94-.92h2.16v15.84h-2.54Z"/>
      <path class="cls-6" d="M1338.7,877.2c1.36,0,2.51.34,3.44,1.01.94.67,1.64,1.62,2.11,2.83.47,1.22.71,2.65.71,4.3,0,1.82-.25,3.34-.74,4.55-.5,1.21-1.21,2.12-2.14,2.72s-2.05.91-3.36.91-2.5-.3-3.46-.89-1.68-1.48-2.16-2.66l2.42-1.13c.22.75.6,1.35,1.12,1.8.52.45,1.23.67,2.12.67.74,0,1.35-.14,1.85-.43.5-.29.89-.71,1.19-1.25.3-.54.51-1.2.64-1.97.13-.77.19-1.63.19-2.59v-.26h-.1c-.18.64-.49,1.16-.95,1.56-.46.4-.97.69-1.55.88-.58.18-1.15.28-1.73.28-1.02,0-1.93-.2-2.72-.61s-1.41-.98-1.86-1.72c-.45-.74-.67-1.61-.67-2.62,0-1.1.23-2.06.68-2.86.46-.8,1.1-1.42,1.94-1.86.84-.44,1.84-.66,3.01-.66ZM1338.72,879.46c-1.01,0-1.78.27-2.32.82-.54.54-.8,1.3-.8,2.28,0,.86.28,1.54.85,2.03s1.32.73,2.27.73c.61,0,1.14-.12,1.61-.37s.83-.59,1.09-1.02c.26-.43.4-.94.4-1.51,0-.61-.13-1.13-.4-1.57-.26-.44-.63-.78-1.09-1.02s-1-.36-1.61-.36Z"/>
    </g>
    <g>
      <path class="cls-6" d="M1290.69,909.9v-1.87c1.52-1.09,2.8-2.05,3.83-2.88,1.03-.83,1.86-1.6,2.48-2.3.62-.7,1.08-1.37,1.36-2,.28-.63.42-1.28.42-1.93,0-.85-.26-1.54-.79-2.06-.53-.53-1.26-.79-2.21-.79-.99,0-1.78.33-2.36,1s-.92,1.57-1,2.72l-2.23-1.03c.11-1.01.41-1.88.89-2.62.48-.74,1.13-1.3,1.96-1.71.82-.4,1.78-.6,2.87-.6.9,0,1.68.13,2.36.38.68.26,1.25.61,1.72,1.07s.82.99,1.07,1.6c.25.61.37,1.26.37,1.94,0,1.01-.25,1.98-.74,2.92-.5.94-1.28,1.89-2.35,2.87-1.07.98-2.48,2.03-4.22,3.14v.05c.19-.03.46-.05.79-.06s.67-.02,1.01-.02c.34,0,.61-.01.82-.01h4.99v2.21h-11.02Z"/>
      <path class="cls-6" d="M1310.63,910.14c-1.9,0-3.4-.69-4.48-2.08-1.08-1.38-1.62-3.41-1.62-6.08s.54-4.7,1.62-6.08,2.57-2.08,4.48-2.08,3.42.69,4.5,2.08,1.62,3.41,1.62,6.08-.54,4.7-1.62,6.08c-1.08,1.38-2.58,2.08-4.5,2.08ZM1310.63,907.96c.77,0,1.41-.22,1.93-.66.52-.44.91-1.1,1.18-1.99.26-.89.4-2,.4-3.32s-.13-2.44-.4-3.32c-.26-.89-.66-1.55-1.18-1.99-.52-.44-1.16-.66-1.93-.66s-1.41.22-1.93.66c-.52.44-.91,1.1-1.16,1.99-.26.89-.38,2-.38,3.32s.13,2.44.38,3.32c.26.89.64,1.55,1.16,1.99.52.44,1.16.66,1.93.66Z"/>
    </g>
    <g>
      <path class="cls-6" d="M1329.37,935.35v-1.87c1.52-1.09,2.8-2.05,3.83-2.88,1.03-.83,1.86-1.6,2.48-2.3.62-.7,1.08-1.37,1.36-2,.28-.63.42-1.28.42-1.93,0-.85-.26-1.54-.79-2.06-.53-.53-1.26-.79-2.21-.79-.99,0-1.78.33-2.36,1s-.92,1.57-1,2.72l-2.23-1.03c.11-1.01.41-1.88.89-2.62.48-.74,1.13-1.3,1.96-1.71.82-.4,1.78-.6,2.87-.6.9,0,1.68.13,2.36.38.68.26,1.25.61,1.72,1.07s.82.99,1.07,1.6c.25.61.37,1.26.37,1.94,0,1.01-.25,1.98-.74,2.92-.5.94-1.28,1.89-2.35,2.87-1.07.98-2.48,2.03-4.22,3.14v.05c.19-.03.46-.05.79-.06s.67-.02,1.01-.02c.34,0,.61-.01.82-.01h4.99v2.21h-11.02Z"/>
      <path class="cls-6" d="M1346.65,935.35v-10.87c0-.32,0-.65.01-1,0-.34.02-.71.04-1.09-.54.53-1.16.98-1.86,1.36-.7.38-1.41.64-2.15.8l-.48-2.23c.34-.05.73-.16,1.18-.34.45-.18.91-.4,1.39-.67s.92-.56,1.32-.88.71-.62.94-.92h2.16v15.84h-2.54Z"/>
    </g>
    <g>
      <path class="cls-6" d="M1330.19,935.46v-1.87c1.52-1.09,2.8-2.05,3.83-2.88,1.03-.83,1.86-1.6,2.48-2.3.62-.7,1.08-1.37,1.36-2,.28-.63.42-1.28.42-1.93,0-.85-.26-1.54-.79-2.06-.53-.53-1.26-.79-2.21-.79-.99,0-1.78.33-2.36,1s-.92,1.57-1,2.72l-2.23-1.03c.11-1.01.41-1.88.89-2.62.48-.74,1.13-1.3,1.96-1.71.82-.4,1.78-.6,2.87-.6.9,0,1.68.13,2.36.38.68.26,1.25.61,1.72,1.07s.82.99,1.07,1.6c.25.61.37,1.26.37,1.94,0,1.01-.25,1.98-.74,2.92-.5.94-1.28,1.89-2.35,2.87-1.07.98-2.48,2.03-4.22,3.14v.05c.19-.03.46-.05.79-.06s.67-.02,1.01-.02c.34,0,.61-.01.82-.01h4.99v2.21h-11.02Z"/>
      <path class="cls-6" d="M1344.28,935.46v-1.87c1.52-1.09,2.8-2.05,3.83-2.88,1.03-.83,1.86-1.6,2.48-2.3.62-.7,1.08-1.37,1.36-2,.28-.63.42-1.28.42-1.93,0-.85-.26-1.54-.79-2.06-.53-.53-1.26-.79-2.21-.79-.99,0-1.78.33-2.36,1s-.92,1.57-1,2.72l-2.23-1.03c.11-1.01.41-1.88.89-2.62.48-.74,1.13-1.3,1.96-1.71.82-.4,1.78-.6,2.87-.6.9,0,1.68.13,2.36.38.68.26,1.25.61,1.72,1.07s.82.99,1.07,1.6c.25.61.37,1.26.37,1.94,0,1.01-.25,1.98-.74,2.92-.5.94-1.28,1.89-2.35,2.87-1.07.98-2.48,2.03-4.22,3.14v.05c.19-.03.46-.05.79-.06s.67-.02,1.01-.02c.34,0,.61-.01.82-.01h4.99v2.21h-11.02Z"/>
    </g>
    <g>
      <path class="cls-6" d="M1326.57,946.23v-1.87c1.52-1.09,2.8-2.05,3.83-2.88,1.03-.83,1.86-1.6,2.48-2.3.62-.7,1.08-1.37,1.36-2,.28-.63.42-1.28.42-1.93,0-.85-.26-1.54-.79-2.06-.53-.53-1.26-.79-2.21-.79-.99,0-1.78.33-2.36,1s-.92,1.57-1,2.72l-2.23-1.03c.11-1.01.41-1.88.89-2.62.48-.74,1.13-1.3,1.96-1.71.82-.4,1.78-.6,2.87-.6.9,0,1.68.13,2.36.38.68.26,1.25.61,1.72,1.07s.82.99,1.07,1.6c.25.61.37,1.26.37,1.94,0,1.01-.25,1.98-.74,2.92-.5.94-1.28,1.89-2.35,2.87-1.07.98-2.48,2.03-4.22,3.14v.05c.19-.03.46-.05.79-.06s.67-.02,1.01-.02c.34,0,.61-.01.82-.01h4.99v2.21h-11.02Z"/>
      <path class="cls-6" d="M1346.01,946.47c-1.49,0-2.78-.33-3.88-1-1.1-.66-1.84-1.6-2.24-2.8l2.5-1.18c.14.58.37,1.07.67,1.49.3.42.7.73,1.2.95s1.11.32,1.85.32c.62,0,1.15-.11,1.58-.34.43-.22.76-.54,1-.94.23-.4.35-.86.35-1.37s-.1-.97-.3-1.32-.51-.61-.94-.77-.96-.24-1.62-.24c-.19,0-.39,0-.59.01s-.41.03-.64.06v-2.16c.14.02.28.03.42.04.14,0,.27.01.4.01,1.04,0,1.78-.21,2.23-.62.45-.42.67-1.06.67-1.94,0-.75-.23-1.33-.68-1.73-.46-.4-1.11-.6-1.96-.6s-1.56.2-2.05.61c-.49.41-.86,1-1.12,1.76l-2.35-.98c.22-.74.6-1.38,1.13-1.92.53-.54,1.18-.96,1.96-1.26.78-.3,1.63-.44,2.56-.44,1.14,0,2.08.18,2.84.55.76.37,1.33.87,1.7,1.51.38.64.56,1.35.56,2.14,0,.61-.09,1.14-.26,1.6-.18.46-.41.85-.71,1.18-.3.33-.62.58-.96.76-.34.18-.69.3-1.04.36v.05c.46.02.89.11,1.28.28.39.17.74.4,1.06.7.31.3.56.65.73,1.07s.26.87.26,1.37c0,.96-.24,1.8-.72,2.52s-1.14,1.28-1.98,1.68c-.84.4-1.81.6-2.92.6Z"/>
    </g>
    <g>
      <path class="cls-6" d="M1360.11,949.48v-1.87c1.52-1.09,2.8-2.05,3.83-2.88,1.03-.83,1.86-1.6,2.48-2.3.62-.7,1.08-1.37,1.36-2,.28-.63.42-1.28.42-1.93,0-.85-.26-1.54-.79-2.06-.53-.53-1.26-.79-2.21-.79-.99,0-1.78.33-2.36,1s-.92,1.57-1,2.72l-2.23-1.03c.11-1.01.41-1.88.89-2.62.48-.74,1.13-1.3,1.96-1.71.82-.4,1.78-.6,2.87-.6.9,0,1.68.13,2.36.38.68.26,1.25.61,1.72,1.07s.82.99,1.07,1.6c.25.61.37,1.26.37,1.94,0,1.01-.25,1.98-.74,2.92-.5.94-1.28,1.89-2.35,2.87-1.07.98-2.48,2.03-4.22,3.14v.05c.19-.03.46-.05.79-.06s.67-.02,1.01-.02c.34,0,.61-.01.82-.01h4.99v2.21h-11.02Z"/>
      <path class="cls-6" d="M1380.7,949.48v-3.96h-7.73v-1.75c.03-.08.08-.18.16-.29.07-.11.16-.24.25-.38l6.6-9.46h3.14v9.89h2.69v1.99h-2.69v3.96h-2.42ZM1375.37,943.53h5.33v-5.59c0-.38.01-.78.04-1.19.02-.41.04-.81.06-1.21h-.05c-.18.38-.4.8-.68,1.26-.28.46-.54.85-.78,1.19l-3.74,5.33s-.06.06-.08.1c-.02.03-.05.07-.08.12Z"/>
    </g>
    <g>
      <path class="cls-6" d="M1379.82,926.76v-1.87c1.52-1.09,2.8-2.05,3.83-2.88,1.03-.83,1.86-1.6,2.48-2.3.62-.7,1.08-1.37,1.36-2,.28-.63.42-1.28.42-1.93,0-.85-.26-1.54-.79-2.06-.53-.53-1.26-.79-2.21-.79-.99,0-1.78.33-2.36,1s-.92,1.57-1,2.72l-2.23-1.03c.11-1.01.41-1.88.89-2.62.48-.74,1.13-1.3,1.96-1.71.82-.4,1.78-.6,2.87-.6.9,0,1.68.13,2.36.38.68.26,1.25.61,1.72,1.07s.82.99,1.07,1.6c.25.61.37,1.26.37,1.94,0,1.01-.25,1.98-.74,2.92-.5.94-1.28,1.89-2.35,2.87-1.07.98-2.48,2.03-4.22,3.14v.05c.19-.03.46-.05.79-.06s.67-.02,1.01-.02c.34,0,.61-.01.82-.01h4.99v2.21h-11.02Z"/>
      <path class="cls-6" d="M1399.11,927c-1.41,0-2.56-.3-3.47-.91s-1.62-1.49-2.15-2.64l2.4-1.25c.24.77.6,1.4,1.09,1.88.49.49,1.21.73,2.17.73.67,0,1.24-.12,1.72-.37.47-.25.84-.6,1.09-1.06.26-.46.38-1,.38-1.64,0-.67-.12-1.23-.36-1.68-.24-.45-.58-.79-1.03-1.02s-1.01-.35-1.68-.35c-.46,0-.9.05-1.3.14s-.76.24-1.08.44c-.32.2-.6.46-.84.78l-2.11-.41.96-8.74h9.22v2.21h-7.18l-.58,4.46-.05.26h.05c.37-.4.84-.71,1.43-.94.58-.22,1.28-.34,2.08-.34,1.02,0,1.9.21,2.64.64.74.42,1.31,1.01,1.73,1.76s.62,1.62.62,2.62c0,.86-.14,1.63-.43,2.3-.29.67-.7,1.24-1.22,1.7-.53.46-1.14.81-1.84,1.04-.7.23-1.45.35-2.27.35Z"/>
    </g>
    <g>
      <path class="cls-6" d="M1393.07,913.49v-1.87c1.52-1.09,2.8-2.05,3.83-2.88,1.03-.83,1.86-1.6,2.48-2.3s1.08-1.37,1.36-2c.28-.63.42-1.28.42-1.93,0-.85-.26-1.54-.79-2.06-.53-.53-1.26-.79-2.21-.79-.99,0-1.78.33-2.36,1-.58.66-.92,1.57-1,2.72l-2.23-1.03c.11-1.01.41-1.88.89-2.62.48-.74,1.13-1.3,1.96-1.7.82-.4,1.78-.6,2.87-.6.9,0,1.68.13,2.36.38.68.26,1.25.61,1.72,1.07s.82.99,1.07,1.6c.25.61.37,1.26.37,1.94,0,1.01-.25,1.98-.74,2.92-.5.94-1.28,1.89-2.35,2.87-1.07.98-2.48,2.02-4.22,3.14v.05c.19-.03.46-.05.79-.06.34,0,.67-.02,1.01-.02.34,0,.61-.01.82-.01h4.99v2.21h-11.02Z"/>
      <path class="cls-6" d="M1413.37,897.41c.85,0,1.6.12,2.26.35.66.23,1.23.6,1.72,1.09.49.5.89,1.14,1.21,1.94l-2.26,1.08c-.22-.69-.58-1.23-1.07-1.63-.49-.4-1.16-.6-2.03-.6-.62,0-1.18.15-1.66.46-.48.3-.89.73-1.22,1.28-.34.55-.59,1.2-.77,1.94-.18.74-.26,1.55-.26,2.41v.43l.1.05c.18-.64.49-1.16.95-1.55.46-.39.97-.68,1.55-.88.58-.19,1.14-.29,1.7-.29,1.06,0,1.98.2,2.76.61.78.41,1.4.99,1.84,1.74.44.75.66,1.65.66,2.69s-.23,1.97-.7,2.75c-.46.78-1.11,1.38-1.93,1.8-.82.42-1.81.64-2.96.64-1.34,0-2.49-.34-3.43-1.01-.94-.67-1.66-1.62-2.16-2.83-.5-1.21-.74-2.64-.74-4.27,0-1.81.28-3.32.85-4.54.57-1.22,1.34-2.13,2.32-2.75.98-.62,2.07-.92,3.29-.92ZM1413.2,905.64c-.61,0-1.14.12-1.61.37-.46.25-.83.59-1.09,1.02-.26.43-.4.94-.4,1.51s.14,1.06.42,1.51c.28.45.65.8,1.12,1.07.46.26.98.4,1.56.4.98,0,1.74-.26,2.28-.79s.82-1.26.82-2.18c0-.59-.12-1.11-.36-1.55-.24-.44-.59-.78-1.04-1.01s-1.02-.35-1.69-.35Z"/>
    </g>
    <g>
      <path class="cls-6" d="M1434.85,908.38v-1.87c1.52-1.09,2.8-2.05,3.83-2.88,1.03-.83,1.86-1.6,2.48-2.3.62-.7,1.08-1.37,1.36-2,.28-.63.42-1.28.42-1.93,0-.85-.26-1.54-.79-2.06-.53-.53-1.26-.79-2.21-.79-.99,0-1.78.33-2.36,1s-.92,1.57-1,2.72l-2.23-1.03c.11-1.01.41-1.88.89-2.62.48-.74,1.13-1.3,1.96-1.71.82-.4,1.78-.6,2.87-.6.9,0,1.68.13,2.36.38.68.26,1.25.61,1.72,1.07s.82.99,1.07,1.6c.25.61.37,1.26.37,1.94,0,1.01-.25,1.98-.74,2.92-.5.94-1.28,1.89-2.35,2.87-1.07.98-2.48,2.03-4.22,3.14v.05c.19-.03.46-.05.79-.06s.67-.02,1.01-.02c.34,0,.61-.01.82-.01h4.99v2.21h-11.02Z"/>
      <path class="cls-6" d="M1447.72,892.54h12.07v2.14c-1.33,1.38-2.4,2.79-3.22,4.24s-1.4,2.95-1.76,4.51-.54,3.21-.54,4.96h-2.59c0-1.76.22-3.48.66-5.15.44-1.67,1.11-3.27,2.02-4.8.9-1.53,2.04-2.96,3.42-4.31l.48.65h-10.54v-2.23Z"/>
    </g>
    <g>
      <path class="cls-6" d="M1413.43,911.71v-1.87c1.52-1.09,2.8-2.05,3.83-2.88,1.03-.83,1.86-1.6,2.48-2.3.62-.7,1.08-1.37,1.36-2,.28-.63.42-1.28.42-1.93,0-.85-.26-1.54-.79-2.06-.53-.53-1.26-.79-2.21-.79-.99,0-1.78.33-2.36,1s-.92,1.57-1,2.72l-2.23-1.03c.11-1.01.41-1.88.89-2.62.48-.74,1.13-1.3,1.96-1.71.82-.4,1.78-.6,2.87-.6.9,0,1.68.13,2.36.38.68.26,1.25.61,1.72,1.07s.82.99,1.07,1.6c.25.61.37,1.26.37,1.94,0,1.01-.25,1.98-.74,2.92-.5.94-1.28,1.89-2.35,2.87-1.07.98-2.48,2.03-4.22,3.14v.05c.19-.03.46-.05.79-.06s.67-.02,1.01-.02c.34,0,.61-.01.82-.01h4.99v2.21h-11.02Z"/>
      <path class="cls-6" d="M1433.28,895.65c1.07,0,2,.17,2.8.52.79.34,1.4.83,1.84,1.45.43.62.65,1.38.65,2.26,0,.82-.2,1.53-.59,2.15-.39.62-.96,1.08-1.72,1.4v.02c.91.34,1.64.84,2.17,1.5s.8,1.48.8,2.46-.24,1.75-.73,2.42c-.49.67-1.18,1.19-2.06,1.56-.89.37-1.94.55-3.16.55s-2.27-.18-3.16-.55c-.89-.37-1.58-.89-2.08-1.56-.5-.67-.74-1.48-.74-2.42s.26-1.78.79-2.45c.53-.67,1.26-1.18,2.21-1.51v-.02c-.72-.3-1.29-.76-1.7-1.38-.42-.62-.62-1.34-.62-2.17,0-.88.22-1.63.65-2.26.43-.62,1.05-1.11,1.85-1.45.8-.34,1.74-.52,2.81-.52ZM1433.28,909.79c.7,0,1.3-.1,1.8-.31.5-.21.88-.51,1.15-.91.27-.4.41-.86.41-1.39,0-.56-.14-1.04-.42-1.43s-.67-.69-1.16-.9c-.5-.21-1.09-.31-1.78-.31s-1.26.1-1.78.31c-.51.21-.91.51-1.19.9-.28.39-.42.87-.42,1.43,0,.53.14.99.41,1.39.27.4.66.71,1.18.91.51.21,1.11.31,1.8.31ZM1433.28,897.81c-.85,0-1.52.21-2.03.62s-.76.98-.76,1.7.26,1.28.77,1.69,1.18.61,2.02.61,1.5-.2,2-.61c.5-.41.76-.97.76-1.69s-.25-1.29-.74-1.7c-.5-.42-1.17-.62-2.02-.62Z"/>
    </g>
    <g>
      <path class="cls-6" d="M1571.68,968.03v-1.87c1.52-1.09,2.8-2.05,3.83-2.88,1.03-.83,1.86-1.6,2.48-2.3s1.08-1.37,1.36-2c.28-.63.42-1.28.42-1.93,0-.85-.26-1.54-.79-2.06-.53-.53-1.26-.79-2.21-.79-.99,0-1.78.33-2.36,1-.58.66-.92,1.57-1,2.72l-2.23-1.03c.11-1.01.41-1.88.89-2.62.48-.74,1.13-1.3,1.96-1.7.82-.4,1.78-.6,2.87-.6.9,0,1.68.13,2.36.38.68.26,1.25.61,1.72,1.07s.82.99,1.07,1.6c.25.61.37,1.26.37,1.94,0,1.01-.25,1.98-.74,2.92-.5.94-1.28,1.89-2.35,2.87-1.07.98-2.48,2.02-4.22,3.14v.05c.19-.03.46-.05.79-.06.34,0,.67-.02,1.01-.02.34,0,.61-.01.82-.01h4.99v2.21h-11.02Z"/>
      <path class="cls-6" d="M1591.19,951.95c1.36,0,2.51.34,3.44,1.01.94.67,1.64,1.62,2.11,2.83.47,1.22.71,2.65.71,4.3,0,1.82-.25,3.34-.74,4.55-.5,1.21-1.21,2.12-2.14,2.72s-2.05.91-3.36.91-2.5-.3-3.46-.89-1.68-1.48-2.16-2.66l2.42-1.13c.22.75.6,1.35,1.12,1.8.52.45,1.23.67,2.12.67.74,0,1.35-.14,1.85-.43.5-.29.89-.71,1.19-1.25.3-.54.51-1.2.64-1.97.13-.77.19-1.63.19-2.59v-.26h-.1c-.18.64-.49,1.16-.95,1.56-.46.4-.97.69-1.55.88-.58.18-1.15.28-1.73.28-1.02,0-1.93-.2-2.72-.61s-1.41-.98-1.86-1.72c-.45-.74-.67-1.61-.67-2.62,0-1.1.23-2.06.68-2.86.46-.8,1.1-1.42,1.94-1.86.84-.44,1.84-.66,3.01-.66ZM1591.22,954.21c-1.01,0-1.78.27-2.32.82-.54.54-.8,1.3-.8,2.28,0,.86.28,1.54.85,2.03s1.32.73,2.27.73c.61,0,1.14-.12,1.61-.37s.83-.59,1.09-1.02c.26-.43.4-.94.4-1.51,0-.61-.13-1.13-.4-1.57-.26-.44-.63-.78-1.09-1.02s-1-.36-1.61-.36Z"/>
    </g>
    <g>
      <path class="cls-6" d="M1529.9,965.81c-1.49,0-2.78-.33-3.88-1-1.1-.66-1.84-1.6-2.24-2.8l2.5-1.18c.14.58.37,1.07.67,1.49.3.42.7.73,1.2.95s1.11.32,1.85.32c.62,0,1.15-.11,1.58-.34.43-.22.76-.54,1-.94.23-.4.35-.86.35-1.37s-.1-.97-.3-1.32-.51-.61-.94-.77-.96-.24-1.62-.24c-.19,0-.39,0-.59.01s-.41.03-.64.06v-2.16c.14.02.28.03.42.04.14,0,.27.01.4.01,1.04,0,1.78-.21,2.23-.62.45-.42.67-1.06.67-1.94,0-.75-.23-1.33-.68-1.73-.46-.4-1.11-.6-1.96-.6s-1.56.2-2.05.61c-.49.41-.86,1-1.12,1.76l-2.35-.98c.22-.74.6-1.38,1.13-1.92.53-.54,1.18-.96,1.96-1.26.78-.3,1.63-.44,2.56-.44,1.14,0,2.08.18,2.84.55.76.37,1.33.87,1.7,1.51.38.64.56,1.35.56,2.14,0,.61-.09,1.14-.26,1.6-.18.46-.41.85-.71,1.18-.3.33-.62.58-.96.76-.34.18-.69.3-1.04.36v.05c.46.02.89.11,1.28.28.39.17.74.4,1.06.7.31.3.56.65.73,1.07s.26.87.26,1.37c0,.96-.24,1.8-.72,2.52s-1.14,1.28-1.98,1.68c-.84.4-1.81.6-2.92.6Z"/>
      <path class="cls-6" d="M1544.47,965.81c-1.9,0-3.4-.69-4.48-2.08-1.08-1.38-1.62-3.41-1.62-6.08s.54-4.7,1.62-6.08,2.57-2.08,4.48-2.08,3.42.69,4.5,2.08,1.62,3.41,1.62,6.08-.54,4.7-1.62,6.08c-1.08,1.38-2.58,2.08-4.5,2.08ZM1544.47,963.62c.77,0,1.41-.22,1.93-.66.52-.44.91-1.1,1.18-1.99.26-.89.4-2,.4-3.32s-.13-2.44-.4-3.32c-.26-.89-.66-1.55-1.18-1.99-.52-.44-1.16-.66-1.93-.66s-1.41.22-1.93.66c-.52.44-.91,1.1-1.16,1.99-.26.89-.38,2-.38,3.32s.13,2.44.38,3.32c.26.89.64,1.55,1.16,1.99.52.44,1.16.66,1.93.66Z"/>
    </g>
    <g>
      <path class="cls-6" d="M1485.11,928.77c-1.49,0-2.78-.33-3.88-1-1.1-.66-1.84-1.6-2.24-2.8l2.5-1.18c.14.58.37,1.07.67,1.49.3.42.7.73,1.2.95s1.11.32,1.85.32c.62,0,1.15-.11,1.58-.34s.76-.54,1-.94c.23-.4.35-.86.35-1.37s-.1-.97-.3-1.32c-.2-.35-.51-.61-.94-.77s-.96-.24-1.62-.24c-.19,0-.39,0-.59.01-.2,0-.41.03-.64.06v-2.16c.14.02.28.03.42.04.14,0,.27.01.4.01,1.04,0,1.78-.21,2.23-.62.45-.42.67-1.06.67-1.94,0-.75-.23-1.33-.68-1.73-.46-.4-1.11-.6-1.96-.6s-1.56.2-2.05.61c-.49.41-.86,1-1.12,1.76l-2.35-.98c.22-.74.6-1.38,1.13-1.92.53-.54,1.18-.96,1.96-1.26.78-.3,1.63-.44,2.56-.44,1.14,0,2.08.18,2.84.55.76.37,1.33.87,1.7,1.51.38.64.56,1.35.56,2.14,0,.61-.09,1.14-.26,1.6-.18.46-.41.85-.71,1.18-.3.33-.62.58-.96.76-.34.18-.69.3-1.04.36v.05c.46.02.89.11,1.28.28.39.17.74.4,1.06.7s.56.65.73,1.07c.18.42.26.87.26,1.37,0,.96-.24,1.8-.72,2.52-.48.72-1.14,1.28-1.98,1.68-.84.4-1.81.6-2.92.6Z"/>
      <path class="cls-6" d="M1497.01,928.53v-10.87c0-.32,0-.65.01-1,0-.34.02-.71.04-1.09-.54.53-1.16.98-1.86,1.36-.7.38-1.41.64-2.15.8l-.48-2.23c.34-.05.73-.16,1.18-.34.45-.18.91-.4,1.39-.67.48-.27.92-.56,1.32-.88s.71-.62.94-.92h2.16v15.84h-2.54Z"/>
    </g>
    <g>
      <path class="cls-6" d="M1504.69,869.08c-1.49,0-2.78-.33-3.88-1-1.1-.66-1.84-1.6-2.24-2.8l2.5-1.18c.14.58.37,1.07.67,1.49.3.42.7.73,1.2.95s1.11.32,1.85.32c.62,0,1.15-.11,1.58-.34.43-.22.76-.54,1-.94.23-.4.35-.86.35-1.37s-.1-.97-.3-1.32-.51-.61-.94-.77-.96-.24-1.62-.24c-.19,0-.39,0-.59.01s-.41.03-.64.06v-2.16c.14.02.28.03.42.04.14,0,.27.01.4.01,1.04,0,1.78-.21,2.23-.62.45-.42.67-1.06.67-1.94,0-.75-.23-1.33-.68-1.73-.46-.4-1.11-.6-1.96-.6s-1.56.2-2.05.61c-.49.41-.86,1-1.12,1.76l-2.35-.98c.22-.74.6-1.38,1.13-1.92.53-.54,1.18-.96,1.96-1.26.78-.3,1.63-.44,2.56-.44,1.14,0,2.08.18,2.84.55.76.37,1.33.87,1.7,1.51.38.64.56,1.35.56,2.14,0,.61-.09,1.14-.26,1.6-.18.46-.41.85-.71,1.18-.3.33-.62.58-.96.76-.34.18-.69.3-1.04.36v.05c.46.02.89.11,1.28.28.39.17.74.4,1.06.7.31.3.56.65.73,1.07s.26.87.26,1.37c0,.96-.24,1.8-.72,2.52s-1.14,1.28-1.98,1.68c-.84.4-1.81.6-2.92.6Z"/>
      <path class="cls-6" d="M1513.4,868.84v-1.87c1.52-1.09,2.8-2.05,3.83-2.88,1.03-.83,1.86-1.6,2.48-2.3.62-.7,1.08-1.37,1.36-2,.28-.63.42-1.28.42-1.93,0-.85-.26-1.54-.79-2.06-.53-.53-1.26-.79-2.21-.79-.99,0-1.78.33-2.36,1s-.92,1.57-1,2.72l-2.23-1.03c.11-1.01.41-1.88.89-2.62.48-.74,1.13-1.3,1.96-1.71.82-.4,1.78-.6,2.87-.6.9,0,1.68.13,2.36.38.68.26,1.25.61,1.72,1.07s.82.99,1.07,1.6c.25.61.37,1.26.37,1.94,0,1.01-.25,1.98-.74,2.92-.5.94-1.28,1.89-2.35,2.87-1.07.98-2.48,2.03-4.22,3.14v.05c.19-.03.46-.05.79-.06s.67-.02,1.01-.02c.34,0,.61-.01.82-.01h4.99v2.21h-11.02Z"/>
    </g>
    <g>
      <path class="cls-6" d="M1555.3,821.7c-1.49,0-2.78-.33-3.88-1-1.1-.66-1.84-1.6-2.24-2.8l2.5-1.18c.14.58.37,1.07.67,1.49.3.42.7.73,1.2.95s1.11.32,1.85.32c.62,0,1.15-.11,1.58-.34.43-.22.76-.54,1-.94.23-.4.35-.86.35-1.37s-.1-.97-.3-1.32-.51-.61-.94-.77-.96-.24-1.62-.24c-.19,0-.39,0-.59.01s-.41.03-.64.06v-2.16c.14.02.28.03.42.04.14,0,.27.01.4.01,1.04,0,1.78-.21,2.23-.62.45-.42.67-1.06.67-1.94,0-.75-.23-1.33-.68-1.73-.46-.4-1.11-.6-1.96-.6s-1.56.2-2.05.61c-.49.41-.86,1-1.12,1.76l-2.35-.98c.22-.74.6-1.38,1.13-1.92.53-.54,1.18-.96,1.96-1.26.78-.3,1.63-.44,2.56-.44,1.14,0,2.08.18,2.84.55.76.37,1.33.87,1.7,1.51.38.64.56,1.35.56,2.14,0,.61-.09,1.14-.26,1.6-.18.46-.41.85-.71,1.18-.3.33-.62.58-.96.76-.34.18-.69.3-1.04.36v.05c.46.02.89.11,1.28.28.39.17.74.4,1.06.7.31.3.56.65.73,1.07s.26.87.26,1.37c0,.96-.24,1.8-.72,2.52s-1.14,1.28-1.98,1.68c-.84.4-1.81.6-2.92.6Z"/>
      <path class="cls-6" d="M1569.36,821.7c-1.49,0-2.78-.33-3.88-1-1.1-.66-1.84-1.6-2.24-2.8l2.5-1.18c.14.58.37,1.07.67,1.49.3.42.7.73,1.2.95s1.11.32,1.85.32c.62,0,1.15-.11,1.58-.34.43-.22.76-.54,1-.94.23-.4.35-.86.35-1.37s-.1-.97-.3-1.32-.51-.61-.94-.77-.96-.24-1.62-.24c-.19,0-.39,0-.59.01s-.41.03-.64.06v-2.16c.14.02.28.03.42.04.14,0,.27.01.4.01,1.04,0,1.78-.21,2.23-.62.45-.42.67-1.06.67-1.94,0-.75-.23-1.33-.68-1.73-.46-.4-1.11-.6-1.96-.6s-1.56.2-2.05.61c-.49.41-.86,1-1.12,1.76l-2.35-.98c.22-.74.6-1.38,1.13-1.92.53-.54,1.18-.96,1.96-1.26.78-.3,1.63-.44,2.56-.44,1.14,0,2.08.18,2.84.55.76.37,1.33.87,1.7,1.51.38.64.56,1.35.56,2.14,0,.61-.09,1.14-.26,1.6-.18.46-.41.85-.71,1.18-.3.33-.62.58-.96.76-.34.18-.69.3-1.04.36v.05c.46.02.89.11,1.28.28.39.17.74.4,1.06.7.31.3.56.65.73,1.07s.26.87.26,1.37c0,.96-.24,1.8-.72,2.52s-1.14,1.28-1.98,1.68c-.84.4-1.81.6-2.92.6Z"/>
    </g>
    <g>
      <path class="cls-6" d="M1632.89,859.46c-1.49,0-2.78-.33-3.88-1-1.1-.66-1.84-1.6-2.24-2.8l2.5-1.18c.14.58.37,1.07.67,1.49.3.42.7.73,1.2.95s1.11.32,1.85.32c.62,0,1.15-.11,1.58-.34.43-.22.76-.54,1-.94.23-.4.35-.86.35-1.37s-.1-.97-.3-1.32-.51-.61-.94-.77-.96-.24-1.62-.24c-.19,0-.39,0-.59.01s-.41.03-.64.06v-2.16c.14.02.28.03.42.04.14,0,.27.01.4.01,1.04,0,1.78-.21,2.23-.62.45-.42.67-1.06.67-1.94,0-.75-.23-1.33-.68-1.73-.46-.4-1.11-.6-1.96-.6s-1.56.2-2.05.61c-.49.41-.86,1-1.12,1.76l-2.35-.98c.22-.74.6-1.38,1.13-1.92.53-.54,1.18-.96,1.96-1.26.78-.3,1.63-.44,2.56-.44,1.14,0,2.08.18,2.84.55.76.37,1.33.87,1.7,1.51.38.64.56,1.35.56,2.14,0,.61-.09,1.14-.26,1.6-.18.46-.41.85-.71,1.18-.3.33-.62.58-.96.76-.34.18-.69.3-1.04.36v.05c.46.02.89.11,1.28.28.39.17.74.4,1.06.7.31.3.56.65.73,1.07s.26.87.26,1.37c0,.96-.24,1.8-.72,2.52s-1.14,1.28-1.98,1.68c-.84.4-1.81.6-2.92.6Z"/>
      <path class="cls-6" d="M1648.7,859.22v-3.96h-7.73v-1.75c.03-.08.08-.18.16-.29.07-.11.16-.24.25-.38l6.6-9.46h3.14v9.89h2.69v1.99h-2.69v3.96h-2.42ZM1643.38,853.27h5.33v-5.59c0-.38.01-.78.04-1.19.02-.41.04-.81.06-1.21h-.05c-.18.38-.4.8-.68,1.26-.28.46-.54.85-.78,1.19l-3.74,5.33s-.06.06-.08.1c-.02.03-.05.07-.08.12Z"/>
    </g>
    <g>
      <path class="cls-6" d="M1549.36,931.42c-1.49,0-2.78-.33-3.88-1-1.1-.66-1.84-1.6-2.24-2.8l2.5-1.18c.14.58.37,1.07.67,1.49.3.42.7.73,1.2.95s1.11.32,1.85.32c.62,0,1.15-.11,1.58-.34.43-.22.76-.54,1-.94.23-.4.35-.86.35-1.37s-.1-.97-.3-1.32-.51-.61-.94-.77-.96-.24-1.62-.24c-.19,0-.39,0-.59.01s-.41.03-.64.06v-2.16c.14.02.28.03.42.04.14,0,.27.01.4.01,1.04,0,1.78-.21,2.23-.62.45-.42.67-1.06.67-1.94,0-.75-.23-1.33-.68-1.73-.46-.4-1.11-.6-1.96-.6s-1.56.2-2.05.61c-.49.41-.86,1-1.12,1.76l-2.35-.98c.22-.74.6-1.38,1.13-1.92.53-.54,1.18-.96,1.96-1.26.78-.3,1.63-.44,2.56-.44,1.14,0,2.08.18,2.84.55.76.37,1.33.87,1.7,1.51.38.64.56,1.35.56,2.14,0,.61-.09,1.14-.26,1.6-.18.46-.41.85-.71,1.18-.3.33-.62.58-.96.76-.34.18-.69.3-1.04.36v.05c.46.02.89.11,1.28.28.39.17.74.4,1.06.7.31.3.56.65.73,1.07s.26.87.26,1.37c0,.96-.24,1.8-.72,2.52s-1.14,1.28-1.98,1.68c-.84.4-1.81.6-2.92.6Z"/>
      <path class="cls-6" d="M1563.28,931.42c-1.41,0-2.56-.3-3.47-.91s-1.62-1.49-2.15-2.64l2.4-1.25c.24.77.6,1.4,1.09,1.88.49.49,1.21.73,2.17.73.67,0,1.24-.12,1.72-.37.47-.25.84-.6,1.09-1.06.26-.46.38-1,.38-1.64,0-.67-.12-1.23-.36-1.68-.24-.45-.58-.79-1.03-1.02s-1.01-.35-1.68-.35c-.46,0-.9.05-1.3.14s-.76.24-1.08.44c-.32.2-.6.46-.84.78l-2.11-.41.96-8.74h9.22v2.21h-7.18l-.58,4.46-.05.26h.05c.37-.4.84-.71,1.43-.94.58-.22,1.28-.34,2.08-.34,1.02,0,1.9.21,2.64.64.74.42,1.31,1.01,1.73,1.76s.62,1.62.62,2.62c0,.86-.14,1.63-.43,2.3-.29.67-.7,1.24-1.22,1.7-.53.46-1.14.81-1.84,1.04-.7.23-1.45.35-2.27.35Z"/>
    </g>
    <g>
      <path class="cls-6" d="M1637.34,943.43c-1.49,0-2.78-.33-3.88-1-1.1-.66-1.84-1.6-2.24-2.8l2.5-1.18c.14.58.37,1.07.67,1.49.3.42.7.73,1.2.95s1.11.32,1.85.32c.62,0,1.15-.11,1.58-.34.43-.22.76-.54,1-.94.23-.4.35-.86.35-1.37s-.1-.97-.3-1.32-.51-.61-.94-.77-.96-.24-1.62-.24c-.19,0-.39,0-.59.01s-.41.03-.64.06v-2.16c.14.02.28.03.42.04.14,0,.27.01.4.01,1.04,0,1.78-.21,2.23-.62.45-.42.67-1.06.67-1.94,0-.75-.23-1.33-.68-1.73-.46-.4-1.11-.6-1.96-.6s-1.56.2-2.05.61c-.49.41-.86,1-1.12,1.76l-2.35-.98c.22-.74.6-1.38,1.13-1.92.53-.54,1.18-.96,1.96-1.26.78-.3,1.63-.44,2.56-.44,1.14,0,2.08.18,2.84.55.76.37,1.33.87,1.7,1.51.38.64.56,1.35.56,2.14,0,.61-.09,1.14-.26,1.6-.18.46-.41.85-.71,1.18-.3.33-.62.58-.96.76-.34.18-.69.3-1.04.36v.05c.46.02.89.11,1.28.28.39.17.74.4,1.06.7.31.3.56.65.73,1.07s.26.87.26,1.37c0,.96-.24,1.8-.72,2.52s-1.14,1.28-1.98,1.68c-.84.4-1.81.6-2.92.6Z"/>
      <path class="cls-6" d="M1652.27,927.11c.85,0,1.6.12,2.26.35.66.23,1.23.6,1.72,1.09.49.5.89,1.14,1.21,1.95l-2.26,1.08c-.22-.69-.58-1.23-1.07-1.63-.49-.4-1.16-.6-2.03-.6-.62,0-1.18.15-1.66.46-.48.3-.89.73-1.22,1.29-.34.55-.59,1.2-.77,1.94-.18.74-.26,1.55-.26,2.41v.43l.1.05c.18-.64.49-1.16.95-1.55.46-.39.97-.68,1.55-.88.58-.19,1.14-.29,1.7-.29,1.06,0,1.98.21,2.76.61.78.41,1.4.99,1.84,1.74.44.75.66,1.65.66,2.69s-.23,1.97-.7,2.75c-.46.78-1.11,1.38-1.93,1.8-.82.42-1.81.64-2.96.64-1.34,0-2.49-.34-3.43-1.01-.94-.67-1.66-1.62-2.16-2.83-.5-1.22-.74-2.64-.74-4.27,0-1.81.28-3.32.85-4.54.57-1.21,1.34-2.13,2.32-2.75.98-.62,2.07-.92,3.29-.92ZM1652.1,935.34c-.61,0-1.14.12-1.61.37-.46.25-.83.59-1.09,1.02-.26.43-.4.94-.4,1.51s.14,1.06.42,1.51c.28.45.65.8,1.12,1.07.46.26.98.4,1.56.4.98,0,1.74-.26,2.28-.79.54-.53.82-1.26.82-2.18,0-.59-.12-1.11-.36-1.55-.24-.44-.59-.78-1.04-1.01s-1.02-.35-1.69-.35Z"/>
    </g>
    <g>
      <path class="cls-6" d="M1641.6,955.49c-1.49,0-2.78-.33-3.88-1-1.1-.66-1.84-1.6-2.24-2.8l2.5-1.18c.14.58.37,1.07.67,1.49.3.42.7.73,1.2.95s1.11.32,1.85.32c.62,0,1.15-.11,1.58-.34s.76-.54,1-.94c.23-.4.35-.86.35-1.37s-.1-.97-.3-1.32c-.2-.35-.51-.61-.94-.77s-.96-.24-1.62-.24c-.19,0-.39,0-.59.01-.2,0-.41.03-.64.06v-2.16c.14.02.28.03.42.04.14,0,.27.01.4.01,1.04,0,1.78-.21,2.23-.62.45-.42.67-1.06.67-1.94,0-.75-.23-1.33-.68-1.73-.46-.4-1.11-.6-1.96-.6s-1.56.2-2.05.61c-.49.41-.86,1-1.12,1.76l-2.35-.98c.22-.74.6-1.38,1.13-1.92.53-.54,1.18-.96,1.96-1.26.78-.3,1.63-.44,2.56-.44,1.14,0,2.08.18,2.84.55.76.37,1.33.87,1.7,1.51.38.64.56,1.35.56,2.14,0,.61-.09,1.14-.26,1.6-.18.46-.41.85-.71,1.18-.3.33-.62.58-.96.76-.34.18-.69.3-1.04.36v.05c.46.02.89.11,1.28.28.39.17.74.4,1.06.7s.56.65.73,1.07c.18.42.26.87.26,1.37,0,.96-.24,1.8-.72,2.52-.48.72-1.14,1.28-1.98,1.68-.84.4-1.81.6-2.92.6Z"/>
      <path class="cls-6" d="M1648.68,939.41h12.07v2.14c-1.33,1.38-2.4,2.79-3.22,4.24s-1.4,2.95-1.76,4.51-.54,3.21-.54,4.96h-2.59c0-1.76.22-3.48.66-5.15.44-1.67,1.11-3.27,2.02-4.8.9-1.53,2.04-2.96,3.42-4.31l.48.65h-10.54v-2.23Z"/>
    </g>
    <g>
      <path class="cls-6" d="M1429.39,870.3c-1.49,0-2.78-.33-3.88-1-1.1-.66-1.84-1.6-2.24-2.8l2.5-1.18c.14.58.37,1.07.67,1.49.3.42.7.73,1.2.95s1.11.32,1.85.32c.62,0,1.15-.11,1.58-.34.43-.22.76-.54,1-.94.23-.4.35-.86.35-1.37s-.1-.97-.3-1.32-.51-.61-.94-.77-.96-.24-1.62-.24c-.19,0-.39,0-.59.01s-.41.03-.64.06v-2.16c.14.02.28.03.42.04.14,0,.27.01.4.01,1.04,0,1.78-.21,2.23-.62.45-.42.67-1.06.67-1.94,0-.75-.23-1.33-.68-1.73-.46-.4-1.11-.6-1.96-.6s-1.56.2-2.05.61c-.49.41-.86,1-1.12,1.76l-2.35-.98c.22-.74.6-1.38,1.13-1.92.53-.54,1.18-.96,1.96-1.26.78-.3,1.63-.44,2.56-.44,1.14,0,2.08.18,2.84.55.76.37,1.33.87,1.7,1.51.38.64.56,1.35.56,2.14,0,.61-.09,1.14-.26,1.6-.18.46-.41.85-.71,1.18-.3.33-.62.58-.96.76-.34.18-.69.3-1.04.36v.05c.46.02.89.11,1.28.28.39.17.74.4,1.06.7.31.3.56.65.73,1.07s.26.87.26,1.37c0,.96-.24,1.8-.72,2.52s-1.14,1.28-1.98,1.68c-.84.4-1.81.6-2.92.6Z"/>
      <path class="cls-6" d="M1443.86,854c1.07,0,2,.17,2.8.52.79.34,1.4.83,1.84,1.45.43.62.65,1.38.65,2.26,0,.82-.2,1.53-.59,2.15-.39.62-.96,1.08-1.72,1.4v.02c.91.34,1.64.84,2.17,1.5s.8,1.48.8,2.46-.24,1.75-.73,2.42c-.49.67-1.18,1.19-2.06,1.56-.89.37-1.94.55-3.16.55s-2.27-.18-3.16-.55c-.89-.37-1.58-.89-2.08-1.56-.5-.67-.74-1.48-.74-2.42s.26-1.78.79-2.45c.53-.67,1.26-1.18,2.21-1.51v-.02c-.72-.3-1.29-.76-1.7-1.38-.42-.62-.62-1.34-.62-2.17,0-.88.22-1.63.65-2.26.43-.62,1.05-1.11,1.85-1.45.8-.34,1.74-.52,2.81-.52ZM1443.86,868.14c.7,0,1.3-.1,1.8-.31.5-.21.88-.51,1.15-.91.27-.4.41-.86.41-1.39,0-.56-.14-1.04-.42-1.43s-.67-.69-1.16-.9c-.5-.21-1.09-.31-1.78-.31s-1.26.1-1.78.31c-.51.21-.91.51-1.19.9-.28.39-.42.87-.42,1.43,0,.53.14.99.41,1.39.27.4.66.71,1.18.91.51.21,1.11.31,1.8.31ZM1443.86,856.16c-.85,0-1.52.21-2.03.62s-.76.98-.76,1.7.26,1.28.77,1.69,1.18.61,2.02.61,1.5-.2,2-.61c.5-.41.76-.97.76-1.69s-.25-1.29-.74-1.7c-.5-.42-1.17-.62-2.02-.62Z"/>
    </g>
    <g>
      <path class="cls-6" d="M1460.03,856.84c-1.49,0-2.78-.33-3.88-1-1.1-.66-1.84-1.6-2.24-2.8l2.5-1.18c.14.58.37,1.07.67,1.49.3.42.7.73,1.2.95s1.11.32,1.85.32c.62,0,1.15-.11,1.58-.34.43-.22.76-.54,1-.94.23-.4.35-.86.35-1.37s-.1-.97-.3-1.32-.51-.61-.94-.77-.96-.24-1.62-.24c-.19,0-.39,0-.59.01s-.41.03-.64.06v-2.16c.14.02.28.03.42.04.14,0,.27.01.4.01,1.04,0,1.78-.21,2.23-.62.45-.42.67-1.06.67-1.94,0-.75-.23-1.33-.68-1.73-.46-.4-1.11-.6-1.96-.6s-1.56.2-2.05.61c-.49.41-.86,1-1.12,1.76l-2.35-.98c.22-.74.6-1.38,1.13-1.92.53-.54,1.18-.96,1.96-1.26.78-.3,1.63-.44,2.56-.44,1.14,0,2.08.18,2.84.55.76.37,1.33.87,1.7,1.51.38.64.56,1.35.56,2.14,0,.61-.09,1.14-.26,1.6-.18.46-.41.85-.71,1.18-.3.33-.62.58-.96.76-.34.18-.69.3-1.04.36v.05c.46.02.89.11,1.28.28.39.17.74.4,1.06.7.31.3.56.65.73,1.07s.26.87.26,1.37c0,.96-.24,1.8-.72,2.52s-1.14,1.28-1.98,1.68c-.84.4-1.81.6-2.92.6Z"/>
      <path class="cls-6" d="M1474.16,840.52c1.36,0,2.51.34,3.44,1.01s1.64,1.62,2.11,2.83c.47,1.22.71,2.65.71,4.3,0,1.82-.25,3.34-.74,4.55-.5,1.21-1.21,2.12-2.14,2.72s-2.05.91-3.36.91-2.5-.3-3.46-.89c-.96-.59-1.68-1.48-2.16-2.66l2.42-1.13c.22.75.6,1.35,1.12,1.8.52.45,1.23.67,2.12.67.74,0,1.35-.14,1.85-.43.5-.29.89-.7,1.19-1.25.3-.54.51-1.2.64-1.97.13-.77.19-1.63.19-2.59v-.26h-.1c-.18.64-.49,1.16-.95,1.56-.46.4-.97.69-1.55.88-.58.18-1.15.28-1.73.28-1.02,0-1.93-.2-2.72-.61-.79-.41-1.41-.98-1.86-1.72-.45-.74-.67-1.61-.67-2.62,0-1.1.23-2.06.68-2.86.46-.8,1.1-1.42,1.94-1.86.84-.44,1.84-.66,3.01-.66ZM1474.19,842.78c-1.01,0-1.78.27-2.32.82-.54.54-.8,1.3-.8,2.28,0,.87.28,1.54.85,2.03.57.49,1.32.73,2.27.73.61,0,1.14-.12,1.61-.37s.83-.59,1.09-1.02c.26-.43.4-.94.4-1.51,0-.61-.13-1.13-.4-1.57-.26-.44-.63-.78-1.09-1.02-.46-.24-1-.36-1.61-.36Z"/>
    </g>
    <g>
      <path class="cls-6" d="M1714.86,875.09v-3.96h-7.73v-1.75c.03-.08.08-.18.16-.29.07-.11.16-.24.25-.38l6.6-9.46h3.14v9.89h2.69v1.99h-2.69v3.96h-2.42ZM1709.53,869.14h5.33v-5.59c0-.38.01-.78.04-1.19.02-.41.04-.81.06-1.21h-.05c-.18.38-.4.8-.68,1.26-.28.46-.54.85-.78,1.19l-3.74,5.33s-.06.06-.08.1c-.02.03-.05.07-.08.12Z"/>
      <path class="cls-6" d="M1728.54,875.33c-1.9,0-3.4-.69-4.48-2.08s-1.62-3.41-1.62-6.08.54-4.7,1.62-6.08,2.57-2.08,4.48-2.08,3.42.69,4.5,2.08,1.62,3.41,1.62,6.08-.54,4.7-1.62,6.08-2.58,2.08-4.5,2.08ZM1728.54,873.15c.77,0,1.41-.22,1.93-.66.52-.44.91-1.1,1.18-1.99.26-.89.4-2,.4-3.32s-.13-2.44-.4-3.32-.66-1.55-1.18-1.99c-.52-.44-1.16-.66-1.93-.66s-1.41.22-1.93.66c-.52.44-.91,1.1-1.16,1.99s-.38,2-.38,3.32.13,2.44.38,3.32c.26.89.64,1.55,1.16,1.99.52.44,1.16.66,1.93.66Z"/>
    </g>
  </g>
  <path class="cls-4" d="M1711.09,832.13s0-.04-.01-.05c.04,0,.07-.02.11-.03l-.09.08Z"/>
  <path class="cls-4" d="M1849.56,900.8h0s-.03.06-.05.09l.05-.09Z"/>
  <path class="cls-4" d="M1005.94,947.71s0,0,0-.01c-.02-.02-.05-.03-.07-.05l.07.06Z"/>
  <path class="cls-4" d="M1831.39,915.81l-.05.08s-.01,0-.02,0c0,0,.07-.07.07-.08Z"/>
  <path class="cls-4" d="M1834.61,911.92s.05.02.07.03c0,.01,0,.02,0,.03l-.08-.07Z"/>
  <path class="cls-4" d="M1824.16,915.64s0,.01,0,.02c0,0,0,0-.01-.01h.01Z"/>
  <g>
    <g>
      <use width="15" height="15" transform="translate(1460.18 835.53) rotate(-14.26) scale(1.32 -1.32)" xlink:href="#Anchor_2"/>
      <use width="15" height="15" transform="translate(1429.56 848.99) rotate(-14.26) scale(1.32 -1.32)" xlink:href="#Anchor_2"/>
      <use width="15" height="15" transform="translate(1640.49 934.18) rotate(-14.26) scale(1.32 -1.32)" xlink:href="#Anchor_2"/>
      <use width="15" height="15" transform="translate(1637.42 922.12) rotate(-14.26) scale(1.32 -1.32)" xlink:href="#Anchor_2"/>
      <use width="15" height="15" transform="translate(1549.09 910.11) rotate(-14.26) scale(1.32 -1.32)" xlink:href="#Anchor_2"/>
      <use width="15" height="15" transform="translate(1633.1 838.15) rotate(-14.26) scale(1.32 -1.32)" xlink:href="#Anchor_2"/>
      <use width="15" height="15" transform="translate(1555.08 800.39) rotate(-14.26) scale(1.32 -1.32)" xlink:href="#Anchor_2"/>
      <use width="15" height="15" transform="translate(1504.49 847.77) rotate(-14.26) scale(1.32 -1.32)" xlink:href="#Anchor_2"/>
      <use width="15" height="15" transform="translate(1482.68 907.46) rotate(-14.26) scale(1.32 -1.32)" xlink:href="#Anchor_2"/>
      <use width="15" height="15" transform="translate(1530.19 944.5) rotate(-14.26) scale(1.32 -1.32)" xlink:href="#Anchor_2"/>
      <use width="15" height="15" transform="translate(1577.2 946.96) rotate(-14.26) scale(1.32 -1.32)" xlink:href="#Anchor_2"/>
      <use width="15" height="15" transform="translate(1418.97 890.64) rotate(-14.26) scale(1.32 -1.32)" xlink:href="#Anchor_2"/>
      <use width="15" height="15" transform="translate(1439.3 887.31) rotate(-14.26) scale(1.32 -1.32)" xlink:href="#Anchor_2"/>
      <use width="15" height="15" transform="translate(1398.51 892.42) rotate(-14.26) scale(1.32 -1.32)" xlink:href="#Anchor_2"/>
      <use width="15" height="15" transform="translate(1384.92 905.69) rotate(-14.26) scale(1.32 -1.32)" xlink:href="#Anchor_2"/>
      <use width="15" height="15" transform="translate(1365.39 928.41) rotate(-14.26) scale(1.32 -1.32)" xlink:href="#Anchor_2"/>
      <use width="15" height="15" transform="translate(1331.71 925.16) rotate(-14.26) scale(1.32 -1.32)" xlink:href="#Anchor_2"/>
      <use width="15" height="15" transform="translate(1335.35 914.39) rotate(-14.26) scale(1.32 -1.32)" xlink:href="#Anchor_2"/>
      <use width="15" height="15" transform="translate(1332.31 914.28) rotate(-14.26) scale(1.32 -1.32)" xlink:href="#Anchor_2"/>
      <use width="15" height="15" transform="translate(1296.34 888.83) rotate(-14.26) scale(1.32 -1.32)" xlink:href="#Anchor_2"/>
      <use width="15" height="15" transform="translate(1326.92 872.21) rotate(-14.26) scale(1.32 -1.32)" xlink:href="#Anchor_2"/>
      <use width="15" height="15" transform="translate(1361.6 840.71) rotate(-14.26) scale(1.32 -1.32)" xlink:href="#Anchor_2"/>
      <use width="15" height="15" transform="translate(1394.71 820.72) rotate(-14.26) scale(1.32 -1.32)" xlink:href="#Anchor_2"/>
      <use width="15" height="15" transform="translate(1358.96 819.18) rotate(-14.26) scale(1.32 -1.32)" xlink:href="#Anchor_2"/>
      <use width="15" height="15" transform="translate(1538.8 736.35) rotate(-14.26) scale(1.32 -1.32)" xlink:href="#Anchor_2"/>
      <use width="15" height="15" transform="translate(1498.44 783.73) rotate(-14.26) scale(1.32 -1.32)" xlink:href="#Anchor_2"/>
      <use width="15" height="15" transform="translate(1450.56 797.67) rotate(-14.26) scale(1.32 -1.32)" xlink:href="#Anchor_2"/>
      <use width="15" height="15" transform="translate(1542.7 658.23) rotate(-14.26) scale(1.32 -1.32)" xlink:href="#Anchor_2"/>
      <use width="15" height="15" transform="translate(1664.05 723.93) rotate(-14.26) scale(1.32 -1.32)" xlink:href="#Anchor_2"/>
      <use width="15" height="15" transform="translate(1583.06 721.8) rotate(-14.26) scale(1.32 -1.32)" xlink:href="#Anchor_2"/>
      <use width="15" height="15" transform="translate(1749.98 637.36) rotate(-14.26) scale(1.32 -1.32)" xlink:href="#Anchor_2"/>
      <use width="15" height="15" transform="translate(1734.31 766.04) rotate(-14.26) scale(1.32 -1.32)" xlink:href="#Anchor_2"/>
      <use width="15" height="15" transform="translate(1797.27 801.98) rotate(-14.26) scale(1.32 -1.32)" xlink:href="#Anchor_2"/>
      <use width="15" height="15" transform="translate(1775.72 877.87) rotate(-14.26) scale(1.32 -1.32)" xlink:href="#Anchor_2"/>
      <use width="15" height="15" transform="translate(1753.14 916.7) rotate(-14.26) scale(1.32 -1.32)" xlink:href="#Anchor_2"/>
      <use width="15" height="15" transform="translate(1688.38 950.19) rotate(-14.26) scale(1.32 -1.32)" xlink:href="#Anchor_2"/>
      <use width="15" height="15" transform="translate(1379.46 859.6) rotate(-14.26) scale(1.32 -1.32)" xlink:href="#Anchor_2"/>
      <use width="15" height="15" transform="translate(1386.19 860.01) rotate(-14.26) scale(1.32 -1.32)" xlink:href="#Anchor_2"/>
      <use width="15" height="15" transform="translate(1380.59 854.91) rotate(-14.26) scale(1.32 -1.32)" xlink:href="#Anchor_2"/>
    </g>
    <polyline class="cls-1" points="1366.13 807.13 1401.88 808.67 1393.36 847.97 1386.63 847.55 1387.76 842.86 1368.77 828.66 1334.09 860.16 1303.51 876.78 1339.48 902.23 1342.52 902.34 1338.88 913.11 1372.56 916.37 1392.09 893.64 1405.69 880.37 1426.14 878.59 1446.37 875.29 1467.35 823.48 1436.73 836.94 1644.56 910.08 1584.37 934.92 1537.36 932.45 1489.85 895.41 1511.66 835.72 1556.36 897.85 1640.04 826.26 1457.74 785.61 1505.52 771.75 1562.25 788.34 1545.97 724.3 1549.87 646.18 1752.84 627.14 1590.24 709.75 1671.22 711.88 1741.48 753.99 1804.44 789.93 1786.22 850.22 1782.89 865.82 1760.31 904.65 1695.55 938.14 1647.66 922.13"/>
  </g>
  <g class="cls-3">
    <g>
      <path class="cls-5" d="M1512.95,1015.45c-4.07,0-7.45-1.43-11.62-3.01-1.27-.48-3.85-.36-5.9-.9-5.36-1.42-11.58-1.86-17.07-5.28-6.22-3.88-12.55-7.59-15.68-11.64-.85-1.1,1.38-5.8.88-6.3-5.61-4.97-10.62-10.76-9.12-18.77.7-3.7,5-5.99,6.2-8.88.44-1.06,1.8-3.03,2.02-3.75.73-5.75,1.17-10.23,2.88-13.52.6-1.15-1.17-3.02-.85-3.86-.01-.93,3.42-2.83,3.24-4.12-.48-3.29-4.98-6.89-4.53-10.97.03-.7-.87-2.31-1.15-3.79-.68-3.64-.77-8.47-.27-13.56-1.15.88.07,3.16-1.31,3.9-5.15,2.78-10.75,3.33-14.66,4.72-1.39.49-3.16-.26-4.27.17-8.34,3.3-15.28,4.19-20.41,2.06-3.1,3.17-7.38,6.11-13.8,7.95-1.53.44-2.97,1.59-4.62,2.02-3.41.89-7.55-.53-11.06.78-6.91,2.57-14.28,2.55-20.6,4.43-6.58,1.97-11.9,4.94-16.64,4.75-1.49-.06-2.2,1.07-3.39,1.08-.8.5-1.32.69-2.13,1.26-5.24,3.67-15.44,9.2-26.32,6.59-12.19-2.93-15.23-15.76-17.59-21.85-.38-.98-2.59-1.33-2.98-2.18-5.57-4.76-10.41-9.71-14.06-18.75-.36-.58-.97-1.88-1.67-2.73-3.55-4.3-6.77-11.7-6.25-22.09.5-10.02,4.62-16.5,8.34-20.44.61-.65,3.25-.91,3.77-1.53.09-.82.04-2.84.08-3.75.26-5.52-.22-13.04,5.8-20.15.34-.67,1.46-2.37,1.85-3.38,1.9-4.84,2.01-13.36,8.38-18,1.08-.79,3.67-.06,5.03-1.14,4.11-3.26,9.28-5.56,14.61-8.05,10.1-4.73,18.88-1.69,24.6,1.31,0,0,.09.31.1.32,3.29-2.46,7.66-7.54,14.06-8.72,8.81-1.62,15.23,5.86,19.54,8.32.41.23,1.96-.5,2.42-.24,3.63-.15,6.96-1,9.69-.69.33.04.51-.11.83-.07.08-.1,2.02,1.81,2.1,1.72,3.68-4.51,7.29-13.42,16.49-14.58.6-.36,1.4-.65,2.14-1.16,2.97-2.04,6.71-6.6,12.11-8.07,8.01-2.17,16.24,1.42,21.02,3.12.71.25.96-.23,1.7,0,6.05-1.21,11.18,4.23,15.17,4.98,1.22.23,3.21-3.34,3.86-3.34,1.96-.27,3.06,1.12,4.82.77-2.24-1-5.38-.71-7.46-2.61-7.39-6.75-5.68-17.83-6.25-23.8-.08-.86-3.11-.9-3.22-1.73-.62-.67.78-2.85.08-3.52-3.65-3.5-8.55-8.19-10.98-15.78-2.8-8.74-1.06-16.53.77-21.57.31-.86-.08-1.78.12-2.5-.43-6.39,1.98-11.78,2.97-15.64.46-1.77-.76-3.42-.61-4.74.19-1.66,4.6-3.02,4.69-4.82.21-4.44-.33-9.15,1.47-15.15,2.1-6.97,4.67-12.03,7.37-17.68.27-.57-.71-1.03-.44-1.6.7-1.47.46-3.6,1.14-5.65,1.21-3.61,1.74-8.61,4.48-13.18.11-.8,3.01-1.29,3.08-2.22.38-5.15-1.29-13.63,4.09-20.28,6.64-8.21,16.47-9.69,22.55-9.4.92-2.11,2.26-2.82,3.95-5.08,4.67-6.26,12.04-10.23,19.5-9.41.69.06,2.58-1.38,3.99-1.45,7.11-.33,15.56,3.46,23.46,9.46,4.65,3.53,8.14,7.15,10.85,10.78,1.27,1.7,3.41,2.95,4.35,3.88,8.11,8.16,5.85,18.41,4.7,25.6-.06.34,3.13.9,3.07,1.3.06.05-2.72.72-2.66.77,1.04.9,3.61-.11,4.8,1.02.54-.04.36,3.67.82,3.64,7.35-.53,17.35-2.39,24.17,7.9,4.55,6.87,8.73,13.08,8.45,18.04-.04.62-3.74,1.73-3.76,2.36,2.19,5.68,3.73,10.4,3.04,14.63,3.95,2.02,8.02,6.32,11.07,11.91,3.91-2.45,9.69-3.47,12.86-4.13.95-5.09-.05-15.44,6.56-20.62,4.02-3.14,10.78-.61,14.16-2.04,1.61-.68,2.43-3.79,3.19-4.32,4.62-3.22,9.11-5.94,12.66-6.93,1.11-.31,3.25.76,3.84.48,3.05-1.97,6.95-1.84,9.65-3.21,1.12-.57,1.08-3.23,2.1-3.78.12-.33.47-.38.56-.66,1.69-4.9,3.07-14.09,10.38-18.74,7.42-4.72,16.55-2.39,21.8-1.68.12.02.03.35.17.37.41-.44,1.13-.55,1.47-.93,3.46-3.82,8.77-7.24,16.31-10,1.12-.41,2.16-2.3,3.67-2.98,6.59-2.98,15.16-7.21,25.77-4.66,6.55,1.58,10.17,6.48,12.72,13.35.61,1.65,1.95,4.25,2.28,5.8,4.36.85,11.47.64,15.69,5.98,4.08,5.17,2.44,11.96,3.38,15.68.03.12,3.38-1.33,3.41-1.21.17.08-1.31,2.61-1.16,2.68,5.43,2.4,13.36,5.44,16.21,15.76,2.82,10.22.45,18.7-2.84,23.53-.33.48-2.34.14-2.69.67-.85,7.39-6.18,11.91-8.54,14.72.45,3.88,4.23,13.18-1.02,20.72-2,2.87-5,5.74-8.03,8.22.12.03-.64-2.01-.52-1.98,3.11.68,7.04-.13,10.14,1.04,11.55,4.35,11.49,15.57,11.9,19.12.83,7.17-2.57,12.79-4.48,18.13-.46,1.29-.77,3.23-.95,3.95-2.19,8.86-7.46,13.74-11.52,17.52-.75.7-1.82,2.05-2.25,2.51-.38.64.3,3.2-.18,4.26-2.35,5.16-5.9,13.06-13.83,17.38-.98.53-2.75.96-4.27,1.97-4.42,2.91-9.54,7.42-15.89,9.09-11.09,2.91-21.03-3.48-26.2-7.83-.42-.35.41-3.79-.09-4.2-2.13.15-4.39-.81-6.27-.75-2.26.07-4.46,1.5-6.2,1.71-1.79.22-5.09,1.34-7.06,2,1.63.12,5.35-.2,7.1.41,10.64,3.71,10.68,16.04,12.44,22.19.02.05,2.23.04,2.25.09,3.6,1.29,9.62,1.8,14.02,6.09.48.33,1.35.81,2.1,1.23,4.16,2.35,11.59,6.05,15.17,13.21,4.83,9.67,1.1,20.67-1.93,25.76.07.1-2.55-.88-2.49-.79,4.27,5.9,10.56,15.6,4.42,27.71-1.81,3.57-6.24,16.91-14.36,23.97-6.15,5.34-14.57,9.07-23.39,12.58-.18.07-.42-.55-.6-.47-6.31,2.51-12.92,3.52-18.37,3.84-2.02.12-4.2-1.8-5.57-1.61-7.09,1-13.6,2.33-18.15.85-1.26-.41-2.69-.26-3.45-.37-4.97-.07-9.23-3.46-13.08-4.28-2.24-.48-4.48.45-6.09.34-.94-.07-1.62-3.82-2.56-3.88-5.9-.41-12.76,1.61-19.55-.03-9.52-2.3-14.01-9.22-17.46-13.35-.59-.7-1.54-1.48-2.06-2.05-.83-.16-1.98-1.92-2.82-2.05-5.43-.83-12.84-.93-19.15-7.38-3.47-3.54-7.53-5.56-8.96-8.62-1.28.06-1.63.31-2.66.39-3.86.27-8.04.51-11.87.01-5.04-.65-4.62-4.36-9.67-4.91-1.8,0-4.36,3.77-6.63,3.31-1.26-.25-2.32-2.79-3.87-2.98-4.32-.54-9.34-1.21-15.24-3.94-.78-.36-1.66-1.06-2.72-1.45-4.64-1.7-14.34-3.13-19.05-13.56-.4-.59-1.86-1.28-2.56-2.13-1.41-1.69-2.14-4.83-3.75-7.34-2.14,2.17-5.35,3.09-8.84,4.43-3.14,1.2-5.72,3.06-8.58,3.08-.17.29-2.22-.7-2.39-.41-.72,1.22,1.7,6.54,1.14,9.13-.54,2.5-3.36,4.61-4.14,7.25.08.9,2.27,2.56,2.49,3.72.71,3.81,2.65,8.89,2.13,14.2.04.63-.07,1.56.08,2.57.68,4.69,1.51,11.86-.52,18.72-1.15,3.89-6.29,5.52-7.58,8.01-.47.9,3.04,3.44,2.81,4.03-.51,3.99-6.15,6.71-7.39,9.74.31.4,1.79,1.98,2.1,2.37,1.4,1.82,5.17,3.26,6.32,3.97,1.23.77,4.24,4.79,6.7,5.44,2.81.74,5.82.81,8.65,1.87.89.16,2.35-1.52,3.96-1.79,1.36-4.7,2.99-11.43,8.11-16.06,5.46-4.93,11.68-6.39,17.63-5.92-.21-4.51,3.03-6.64,6.03-11.28,4.98-7.7,12.37-10.48,17.93-12.15.19-.06-.75-1.11-.53-1.17,1.57-3.5,6.76-6.96,7.1-8.77,0,.01-2.45-.55-2.4.5,16.67-.37,17.32-6.43,33.75-3.64.4,7.5-2.69,18.81-7.68,29.72-.32.69-1.1.33-1.42,1.02-3.67,8.05-8.9,12.33-14.7,14.2,1.18,6.43.46,14.28-5.49,21.54-7.4,9.04-19.04,8.2-26.84,6.96-1.66,5.69-5.47,13.61-15.57,16.09-.59.15-.97-1.39-1.56-1.24-4.39,1.1-10.26,2.63-17.03,2.63ZM1511.99,985.01l-2.51-1.49c0,.74,2.51,1.49,2.51,1.49ZM1523.91,983.03s-2.85-.82-2.88-.81c.18.73,2.83.82,2.88.81ZM1483.98,966.64s0,1.03.01,1.03c0,0,0-1.03-.01-1.03ZM1492.98,962.69l-2.51-1.49c0,.74,2.51,1.49,2.51,1.49ZM1459.96,955.43s0,4,0,4c0,0,0-4,0-4ZM1565.09,942.02s-2.41,1.66-2.42,1.67c.68.32,2.41-1.65,2.42-1.67ZM1628.19,939.7l-2.51-1.49c0,.74,2.51,1.49,2.51,1.49ZM1568.53,937.51l-2.51-1.49c0,.74,2.51,1.49,2.51,1.49ZM1706.74,930.31s-2.51-1.49-2.51-1.49c0,.74,2.51,1.49,2.51,1.49ZM1655.75,921.91c3.79.78,8.37,2.16,12.92,2.48,1,.07,2.04-.65,3.04-.58,3.88.29,7.39-.12,10.48.54,2.58.55,5.17-1.69,6.85-1.68,5.37.05,9.23,6.12,12.95,7.33,1.15.37,3.53-2.46,4.4-2.27,2.44-.31,5.03,2.67,7.38,2.54,2.55-.15,7.66,0,9.01-.52.18-.07-.47-1.77-.29-1.84,3.43-1.36,10.07-6.6,12.45-8.67,1.2-1.04,6.14-1.37,8.21-4.66-.03-.04-3.38-.09-3.4-.13-3.5-4.84-8.72-11.85-9.07-19.57-.21-4.47,1.83-8.55,3.36-11.8-1.36-.92-2.37-.41-3.71-1.67-.55-.23-.5-1.56-1.24-1.82-2.29-.81-4.58-2.99-7.58-4.72-3.87-2.22-7.28-2.08-9.07-5.35-4.18,2.17-9.05,2.56-14.75,1.26-6.87-1.57-12.69-5.75-15.68-8.6-.26-.25,1.1-2.3.81-2.57-6.85-1.74-11.27-7.07-14.4-10.23-6.57,2.43-16.02,7.98-25.03,6.27-2.05-1.53,1.58-2.68-.63-3.96-2.07,3.85-1.92,6.19-4.12,8.77-.98,1.15-3.06,2.01-3.42,2.7-3.29,7.04-10.85,9.57-14.75,12.22-.77.52-.53,2.73-1.12,3.19-1.69,2.7-3.56,4.95-5.42,6.84-.16.8-.59.99-.84,1.8.44.19-.63,2.58-.19,2.8,8.17,4.07,12.37,9.5,14.43,13.92.08.16-.41,2.22-.33,2.41.56.09,1.71.06,2.2.13,5.1.78,11.52.98,17.53,5.95,3,2.48,4.74,5.13,6.49,7.22.52.62,2.03,1.75,2.52,2.28ZM1498.4,929.77s0,1.03,0,1.03c0,0,0-1.03,0-1.03ZM1302.46,923.05l-2.51-1.49c0,.74,2.51,1.49,2.51,1.49ZM1311.81,880.56c2.14,2.62,3.94,7.09,5.68,11.46.96,2.4,2.47,3.29,6.75,6.89,3.75,3.15,7.01,6.25,8.7,9.95,3.58-2.22,7.87-7.05,12.97-7.53,3.69-.34,7.08,4.45,9.97,4.56,2.62.1,4.9-3.25,6.17-3.63,5.79-1.73,12.97-.65,18.92-2.87,5.07-1.88,9.55-2.44,13.56-3.49.93-.24,1.56-2.31,2.45-2.55.5-.48-.42-3.08.07-3.6,3-3.15,9.28-4.74,16.31-6.63,8.09-2.18,15.17-2.94,19.74-.96.27.12-.27-.41.04-.27.48-.17.55.55,1.03.38,3.04-1.08,5.45-2.26,8.18-3.65.53-.6,1.99-.5,2.61-1.34,2.64-3.56,7.06-7.44,13.01-10.66,5.72-3.1,10.93-7.04,15.2-7.5,1.26-.14,2.78.75,3.51.56,1.94-.92,3.4-2.12,5.27-2.49.82-1.01,2.8.16,3.73-.78,6.49-6.54,14.87-5.29,20.26-5.89.77-.09,1.15-3.41,1.93-3.53,1.45-.73,5.48-1.49,7.25-1.92,3.5,5.94,1.17,7.03,5.11,12.69,1.68-2.41.78-3.29,2.38-4.92-1.16-3.81-.49-9.13.57-15.5,1.13-6.75,2.94-11.88,5.9-15.18-1.39-3.05-3.15-6.71-3.61-11.24-.34.11.33.53-.01.64-3.3,1.12-7.62-.29-12.32-.17-2.34.06-4.48,2.58-7.42,3.24-2.55.58-5.66-.63-9.11-.17-1.63.22-3.8.96-6.19,1.47-3.37.72-7.33,2.18-12.24,2.84-5.56.75-9.94-.5-13.5-1.17-1-.19-2.27,2.76-2.98,2.69-7.9,2-15.13-2.62-19.88-4.31-.4-.14-1.3-1.81-1.77-1.97-.37.25-.46,2.69-.79,2.92-2.99,2.05-7.33,4.6-12.88,6.03-.33.39.61,1.99.33,2.33-3.87,4.74-11.07,8.82-21.05,9.61-4.24.33-7.8,1.21-10.86.86-1.93-.22-3.97.78-5.01.9-7.63.88-13.83-2.1-18.08-4.51-2.88,2.17-7.4,2.24-12.57,3.78-9.06,2.69-16.42,1.54-22.12-1.45-1.15.87-1.83,1.47-2.91,2.32-1.07.85-.79,2.85-1.89,3.69-.32.74-1.26.7-1.56,1.45-1.28,3.25-2.27,7.79-5.03,11.48-.07.78-4.32.63-4.36,1.4-.19,3.99,3.36,10.14.92,15.61-2.07,4.65-7.92,7.47-10.38,10.1ZM1625.77,905.39s-2.51-1.49-2.51-1.49c0,.74,2.51,1.49,2.51,1.49ZM1742.71,888.92l-2.51-1.49c0,.74,2.51,1.49,2.51,1.49ZM1435.05,886.47s-2.51-1.49-2.51-1.49c0,.74,2.51,1.49,2.51,1.49ZM1553.49,880.5c.07.02.56,1.66.62,1.68,1.45.53,3.4.39,5.44,1.34,1.18.54,3.83-.2,6.37.12,1.23.15,2.84-2.45,4.27-2.22.18-.08,1.1,4.32,1.3,4.24,1.04-.43.27-3.62,1.25-3.86,1.21-2.89,5.65-5.38,8.11-8.84-.93-4.9-.99-10.23,1.95-16.38,4.65-9.73,12.65-12.75,19.2-14.42.57-4.11-.55-11.11,2.67-16.47,1.83-3.05,5.51-1.84,6.55-3.23.27-.36-2.56-3.24-1.42-4.96.04-.05-.68,1.86-.69,1.8-.71-2.27-1.32-5.07-2.8-7.91-.03-.05.1.63.06.59-.66-.54-1.47-2.47-2.85-3.2-1.63-.87-2.81-2.99-4.78-4.22-5.65-3.54-11.79-6.92-14.59-11.3-.35-.54,1.11-.99.7-1.62-2.14.06-1.38-.79-3.05-.61-.02,6.01-2.83,12.39-7.69,18.25-3.1,3.74-8.91,4.9-12.63,6.22,1.22,3.94,4.91,9.76,3.59,14.7-1.68,6.28-4.93,11.97-7.62,14.92,0,.03.24-2.14.25-2.12,1.15,3.79,1.84,9.73,1.07,15.88-.81,6.47-6.46,10.67-9.59,14.11,1.5,1.84,2.97,5.05,4.32,7.49ZM1443.1,882s-2.51-1.49-2.51-1.49c0,.74,2.51,1.49,2.51,1.49ZM1310.49,878.59l-2.51-1.49c0,.74,2.51,1.49,2.51,1.49ZM1546.62,870.22l-2.51-1.49c0,.74,2.51,1.49,2.51,1.49ZM1754.53,857.28s0,1.03,0,1.03c0,0,0-1.03,0-1.03ZM1754.14,856.92l-2.51-1.49c0,.74,2.51,1.49,2.51,1.49ZM1324.06,852.93l-2.51-1.49c0,.74,2.51,1.49,2.51,1.49ZM1509.19,849.35s0,1.02,0,1.02c0,0,0-1.02,0-1.02ZM1600.8,846.89l-2.51-1.49c0,.74,2.51,1.49,2.51,1.49ZM1605.45,841.84s-2.51-1.49-2.51-1.49c0,.74,2.51,1.49,2.51,1.49ZM1330.92,839.71l-2.51-1.49c0,.74,2.51,1.49,2.51,1.49ZM1297.56,833.53s-2.51-1.48-2.51-1.48c0,0,2.51,1.48,2.51,1.48ZM1616.17,821.69c2.13,12.79,12,9.23,24.49,12.7.94-3.69,1.28-11.09-.09-13.28-12.26-6.43-26.23-10.35-24.4.58ZM1639.53,821.37c1.22,1.22,5.38,4.52,6.23,5.74.56-1.66-.18-3.4-.89-5-.87-1.94-4.03-1.51-5.33-.74ZM1615.89,778.56c.83.48,1.54,2.08,2.49,2.59,5.4,2.9,12.46,5.46,17.23,14.63.08.16,1.1-.37,1.18-.21,3.6,6.92,10.68,14.66,10.53,25.36,2.54-1.14,5.39-.55,7.68-1.81,4.77-2.63,7.42-8.05,11.31-9.2,7.06-2.09,14.63,1.99,19.29,3.16,3.35-5,8.34-11.21,17.91-13.1.92-.18,2.45-2.61,4.15-3.21,4.01-1.4,8.51-5.58,14.61-6.32,3.22-.39,6.47,3.26,9.36,3.17,2.62-.08,4.76-4.13,6.89-4.43,9.7-1.39,18.65,4.31,23.67,8.52.73-.47-.74-.25-.16-.63,1.42-.93,2.44-1.99,3.93-2.88.44-.85,1.78-.87,2.18-1.76,1.41-3.11,4.11-5.94,6.68-9.22,1.86-2.38,1.55-6.74,3.39-8.46.96-.9,2.72-1.11,3.38-1.89.16-.57.9,2.01,1.08,1.45-6.19-1.72-11.97-6.96-15.44-14.1-.98-2.01.22-4.96-.66-7.26-.7-1.82-4.77-3.51-5.55-4.91-7.08-7.04-17.16-4.91-16.03-14.83,1.19-10.36,9.89-7.24,18.56-13.02.56-.38,1.73.02,2.4-.41,1.76-1.16,6.92-2.03,9.3-3.89-.28-2.96-2.31-7.79-.96-12.34,1.64-5.51,4.81-9.45,6.74-11.76.45-3.01,1.84-5.11,3.05-7.47-3.45-2.07-4.45-6.29-6.78-10.72-1.71-3.24-4.53-5.58-5.2-8.13-3.48-.55-6.65-3.2-10.67-6.35-3.55-2.78-5.53-5.78-6.81-9.17-1.25.55-4.61,1.21-5.98,1.72-.69.56-2.68,2.11-3.6,3.13-2.4,2.64-3.26,8.38-7.38,11.11-6.35,4.21-14.28,2.3-19.49,1.73-1.72,4.61-5.29,9.09-11.33,12.9-2.96,1.87-4.73,5.24-7.31,6.56-2.2,1.12-4.47,1.87-6.1,2.93-4.46,2.89-8.53,5.86-11.89,6.8-1.1.31-4.14-2.55-4.75-2.29-3.52,2.41-6.26,4.96-9.13,6.18-.44.19-.47,1.53-.99,1.76,0,.01.41-.24.41-.22-.88,4.92-4.32,10.6-10.46,16.23-5.41,4.97-10.22,8.65-14.5,9.5-.45.09-.87-.17-1.37-.06-3.31,2.85-6.07,5.91-9.47,6.97-.61,1.64-1.4,1.51-2.14,2.86-.2,3.71-.4,8.55-2.63,12.57-1.08,1.95-7.56,6.51-8.99,10.34-1.14,3.07.29,8.25-.64,10.45-3.15.3-3.03-2.31-6.17-1.98,1.52,2,4.94,1.58,6.01,3.25.72,1.13-1.5,5.3-.85,6.15ZM1462.1,820.06s0,1.02,0,1.02c0,0,0-1.02,0-1.02ZM1441.86,816.6s-2.51-1.49-2.51-1.49c0,.74,2.51,1.49,2.51,1.49ZM1769.2,795.98s0,1.03-.01,1.03c0,0,0-1.03.01-1.03ZM1534.23,776.31c-1.95,7.68-4.27,8.61-3.1,16.46,3.91-3.3,12.65-4.52,16.54-5.51.04-7.51-.41-18.62,9.86-24.32,7.93-4.4,18.01-8.23,27.34-8.36.9-3.75,5.39-4.64,6.75-8.35.7-1.92-1.59-5.75-1.28-6.96.38-4.06,4.73-6.93,6.19-9.88,0-2.63.84-5.87,1.64-8.9-.44-.89-2.76-2.42-3.19-3.39,0,0-1.53,1.82-1.53,1.81-4.7-2.32-9.9-8.51-13.56-17.07-2.9-6.78-5.34-12.81-4.46-17.1.11-.53-.22-.26-.12-.85-.87-2.42.56-3.89.4-6.14-6.71.12-15.65-1.26-21.12-8.14-.76-.96-1.03-2.96-2.52-4.26-2.06-1.79-3.47-4.74-5.79-7.4-7.07-8.11-8.6-18.35-7.51-25.17.08-.51,1.29.05,1.39-.54-.99-1.23-2.33-1.74-3.2-2.89-.83-1.11.01-4.03-.92-5.14-1.35,0-3.24-2.09-4.47-2.04-.01,0,1.09,2.65,1.07,2.65-1.75,3.76-4.04,9.68-8.77,12.94-5.06,3.49-11.91,4.3-16.5,4.3,0,0,1.08-1.96,1.08-1.96-.45,4.26-3.52,8.55-6.61,13.36-.92,1.43.16,4.45-.74,7.13-.9,2.7-1.92,5.87-3.49,9.18-.28.58-.63.41-.91.99-2.4,5.03-6.81,7.78-8.17,12.31-.6,1.99,1.21,4.69,1.04,8.13-.1,2.16-2.08,4.37-2.39,7.12-.41,3.64-.89,6.49-1.53,8.97-.63,2.43-.48,4.57-.39,5.53.63,6.66-1.66,11.57-3.15,15.67-.07.2,2.82.25,2.74.48.43.43-.93,2.04-.55,2.4,2.49,2.39,4.24,6.01,6.77,10.11,3.16,5.12,5.83,9.44,6.28,13.8,5.11-.04,11.87.59,17.75,5.74.06.05.87-1.5.9-1.47.34.14.09,3.86.79,4.05,1.92.54,4.8-.03,7.89,1.32,6.35,2.77,10.35,6.86,12.78,10.56.58.88,1.55,2.03,1.94,2.44-.3-.32-3.36-1.19-5.18-1.59ZM1786.67,764l-2.51-1.49c0,.74,2.51,1.49,2.51,1.49ZM1497.9,762.11l-2.51-1.49c0,.74,2.51,1.49,2.51,1.49ZM1761.61,748.4s0,1.02,0,1.02c0,0,0-1.02,0-1.02ZM1591.31,741.46s0,1.03,0,1.04c0,0,0-1.03,0-1.04ZM1591.41,740.67s0,1.02,0,1.02c0,0,0-1.02,0-1.02ZM1481.92,729.51l-2.51-1.49c0,.74,2.51,1.49,2.51,1.49ZM1453.42,715.98l-2.51-1.49c0,.74,2.51,1.49,2.51,1.49ZM1677.84,697.87l-2.51-1.49c0,.74,2.51,1.49,2.51,1.49ZM1578.64,687.17s0,1.03,0,1.04c0,0,0-1.03,0-1.04ZM1576.34,667.57s-2.51-1.49-2.51-1.49c0,.74,2.51,1.49,2.51,1.49ZM1675.41,663.76s0,1.02,0,1.02c0,0,0-1.02,0-1.02ZM1770.81,663.17s-2.51-1.48-2.51-1.48c0,.74,2.51,1.49,2.51,1.48ZM1508.02,634.59l-2.51-1.49c0,.74,2.51,1.49,2.51,1.49Z"/>
      <path class="cls-2" d="M1512.95,1015.45c-4.07,0-7.45-1.43-11.62-3.01-1.27-.48-3.85-.36-5.9-.9-5.36-1.42-11.58-1.86-17.07-5.28-6.22-3.88-12.55-7.59-15.68-11.64-.85-1.1,1.38-5.8.88-6.3-5.61-4.97-10.62-10.76-9.12-18.77.7-3.7,5-5.99,6.2-8.88.44-1.06,1.8-3.03,2.02-3.75.73-5.75,1.17-10.23,2.88-13.52.6-1.15-1.17-3.02-.85-3.86-.01-.93,3.42-2.83,3.24-4.12-.48-3.29-4.98-6.89-4.53-10.97.03-.7-.87-2.31-1.15-3.79-.68-3.64-.77-8.47-.27-13.56-1.15.88.07,3.16-1.31,3.9-5.15,2.78-10.75,3.33-14.66,4.72-1.39.49-3.16-.26-4.27.17-8.34,3.3-15.28,4.19-20.41,2.06-3.1,3.17-7.38,6.11-13.8,7.95-1.53.44-2.97,1.59-4.62,2.02-3.41.89-7.55-.53-11.06.78-6.91,2.57-14.28,2.55-20.6,4.43-6.58,1.97-11.9,4.94-16.64,4.75-1.49-.06-2.2,1.07-3.39,1.08-.8.5-1.32.69-2.13,1.26-5.24,3.67-15.44,9.2-26.32,6.59-12.19-2.93-15.23-15.76-17.59-21.85-.38-.98-2.59-1.33-2.98-2.18-5.57-4.76-10.41-9.71-14.06-18.75-.36-.58-.97-1.88-1.67-2.73-3.55-4.3-6.77-11.7-6.25-22.09.5-10.02,4.62-16.5,8.34-20.44.61-.65,3.25-.91,3.77-1.53.09-.82.04-2.84.08-3.75.26-5.52-.22-13.04,5.8-20.15.34-.67,1.46-2.37,1.85-3.38,1.9-4.84,2.01-13.36,8.38-18,1.08-.79,3.67-.06,5.03-1.14,4.11-3.26,9.28-5.56,14.61-8.05,10.1-4.73,18.88-1.69,24.6,1.31,0,0,.09.31.1.32,3.29-2.46,7.66-7.54,14.06-8.72,8.81-1.62,15.23,5.86,19.54,8.32.41.23,1.96-.5,2.42-.24,3.63-.15,6.96-1,9.69-.69.33.04.51-.11.83-.07.08-.1,2.02,1.81,2.1,1.72,3.68-4.51,7.29-13.42,16.49-14.58.6-.36,1.4-.65,2.14-1.16,2.97-2.04,6.71-6.6,12.11-8.07,8.01-2.17,16.24,1.42,21.02,3.12.71.25.96-.23,1.7,0,6.05-1.21,11.18,4.23,15.17,4.98,1.22.23,3.21-3.34,3.86-3.34,1.96-.27,3.06,1.12,4.82.77-2.24-1-5.38-.71-7.46-2.61-7.39-6.75-5.68-17.83-6.25-23.8-.08-.86-3.11-.9-3.22-1.73-.62-.67.78-2.85.08-3.52-3.65-3.5-8.55-8.19-10.98-15.78-2.8-8.74-1.06-16.53.77-21.57.31-.86-.08-1.78.12-2.5-.43-6.39,1.98-11.78,2.97-15.64.46-1.77-.76-3.42-.61-4.74.19-1.66,4.6-3.02,4.69-4.82.21-4.44-.33-9.15,1.47-15.15,2.1-6.97,4.67-12.03,7.37-17.68.27-.57-.71-1.03-.44-1.6.7-1.47.46-3.6,1.14-5.65,1.21-3.61,1.74-8.61,4.48-13.18.11-.8,3.01-1.29,3.08-2.22.38-5.15-1.29-13.63,4.09-20.28,6.64-8.21,16.47-9.69,22.55-9.4.92-2.11,2.26-2.82,3.95-5.08,4.67-6.26,12.04-10.23,19.5-9.41.69.06,2.58-1.38,3.99-1.45,7.11-.33,15.56,3.46,23.46,9.46,4.65,3.53,8.14,7.15,10.85,10.78,1.27,1.7,3.41,2.95,4.35,3.88,8.11,8.16,5.85,18.41,4.7,25.6-.06.34,3.13.9,3.07,1.3.06.05-2.72.72-2.66.77,1.04.9,3.61-.11,4.8,1.02.54-.04.36,3.67.82,3.64,7.35-.53,17.35-2.39,24.17,7.9,4.55,6.87,8.73,13.08,8.45,18.04-.04.62-3.74,1.73-3.76,2.36,2.19,5.68,3.73,10.4,3.04,14.63,3.95,2.02,8.02,6.32,11.07,11.91,3.91-2.45,9.69-3.47,12.86-4.13.95-5.09-.05-15.44,6.56-20.62,4.02-3.14,10.78-.61,14.16-2.04,1.61-.68,2.43-3.79,3.19-4.32,4.62-3.22,9.11-5.94,12.66-6.93,1.11-.31,3.25.76,3.84.48,3.05-1.97,6.95-1.84,9.65-3.21,1.12-.57,1.08-3.23,2.1-3.78.12-.33.47-.38.56-.66,1.69-4.9,3.07-14.09,10.38-18.74,7.42-4.72,16.55-2.39,21.8-1.68.12.02.03.35.17.37.41-.44,1.13-.55,1.47-.93,3.46-3.82,8.77-7.24,16.31-10,1.12-.41,2.16-2.3,3.67-2.98,6.59-2.98,15.16-7.21,25.77-4.66,6.55,1.58,10.17,6.48,12.72,13.35.61,1.65,1.95,4.25,2.28,5.8,4.36.85,11.47.64,15.69,5.98,4.08,5.17,2.44,11.96,3.38,15.68.03.12,3.38-1.33,3.41-1.21.17.08-1.31,2.61-1.16,2.68,5.43,2.4,13.36,5.44,16.21,15.76,2.82,10.22.45,18.7-2.84,23.53-.33.48-2.34.14-2.69.67-.85,7.39-6.18,11.91-8.54,14.72.45,3.88,4.23,13.18-1.02,20.72-2,2.87-5,5.74-8.03,8.22.12.03-.64-2.01-.52-1.98,3.11.68,7.04-.13,10.14,1.04,11.55,4.35,11.49,15.57,11.9,19.12.83,7.17-2.57,12.79-4.48,18.13-.46,1.29-.77,3.23-.95,3.95-2.19,8.86-7.46,13.74-11.52,17.52-.75.7-1.82,2.05-2.25,2.51-.38.64.3,3.2-.18,4.26-2.35,5.16-5.9,13.06-13.83,17.38-.98.53-2.75.96-4.27,1.97-4.42,2.91-9.54,7.42-15.89,9.09-11.09,2.91-21.03-3.48-26.2-7.83-.42-.35.41-3.79-.09-4.2-2.13.15-4.39-.81-6.27-.75-2.26.07-4.46,1.5-6.2,1.71-1.79.22-5.09,1.34-7.06,2,1.63.12,5.35-.2,7.1.41,10.64,3.71,10.68,16.04,12.44,22.19.02.05,2.23.04,2.25.09,3.6,1.29,9.62,1.8,14.02,6.09.48.33,1.35.81,2.1,1.23,4.16,2.35,11.59,6.05,15.17,13.21,4.83,9.67,1.1,20.67-1.93,25.76.07.1-2.55-.88-2.49-.79,4.27,5.9,10.56,15.6,4.42,27.71-1.81,3.57-6.24,16.91-14.36,23.97-6.15,5.34-14.57,9.07-23.39,12.58-.18.07-.42-.55-.6-.47-6.31,2.51-12.92,3.52-18.37,3.84-2.02.12-4.2-1.8-5.57-1.61-7.09,1-13.6,2.33-18.15.85-1.26-.41-2.69-.26-3.45-.37-4.97-.07-9.23-3.46-13.08-4.28-2.24-.48-4.48.45-6.09.34-.94-.07-1.62-3.82-2.56-3.88-5.9-.41-12.76,1.61-19.55-.03-9.52-2.3-14.01-9.22-17.46-13.35-.59-.7-1.54-1.48-2.06-2.05-.83-.16-1.98-1.92-2.82-2.05-5.43-.83-12.84-.93-19.15-7.38-3.47-3.54-7.53-5.56-8.96-8.62-1.28.06-1.63.31-2.66.39-3.86.27-8.04.51-11.87.01-5.04-.65-4.62-4.36-9.67-4.91-1.8,0-4.36,3.77-6.63,3.31-1.26-.25-2.32-2.79-3.87-2.98-4.32-.54-9.34-1.21-15.24-3.94-.78-.36-1.66-1.06-2.72-1.45-4.64-1.7-14.34-3.13-19.05-13.56-.4-.59-1.86-1.28-2.56-2.13-1.41-1.69-2.14-4.83-3.75-7.34-2.14,2.17-5.35,3.09-8.84,4.43-3.14,1.2-5.72,3.06-8.58,3.08-.17.29-2.22-.7-2.39-.41-.72,1.22,1.7,6.54,1.14,9.13-.54,2.5-3.36,4.61-4.14,7.25.08.9,2.27,2.56,2.49,3.72.71,3.81,2.65,8.89,2.13,14.2.04.63-.07,1.56.08,2.57.68,4.69,1.51,11.86-.52,18.72-1.15,3.89-6.29,5.52-7.58,8.01-.47.9,3.04,3.44,2.81,4.03-.51,3.99-6.15,6.71-7.39,9.74.31.4,1.79,1.98,2.1,2.37,1.4,1.82,5.17,3.26,6.32,3.97,1.23.77,4.24,4.79,6.7,5.44,2.81.74,5.82.81,8.65,1.87.89.16,2.35-1.52,3.96-1.79,1.36-4.7,2.99-11.43,8.11-16.06,5.46-4.93,11.68-6.39,17.63-5.92-.21-4.51,3.03-6.64,6.03-11.28,4.98-7.7,12.37-10.48,17.93-12.15.19-.06-.75-1.11-.53-1.17,1.57-3.5,6.76-6.96,7.1-8.77,0,.01-2.45-.55-2.4.5,16.67-.37,17.32-6.43,33.75-3.64.4,7.5-2.69,18.81-7.68,29.72-.32.69-1.1.33-1.42,1.02-3.67,8.05-8.9,12.33-14.7,14.2,1.18,6.43.46,14.28-5.49,21.54-7.4,9.04-19.04,8.2-26.84,6.96-1.66,5.69-5.47,13.61-15.57,16.09-.59.15-.97-1.39-1.56-1.24-4.39,1.1-10.26,2.63-17.03,2.63ZM1511.99,985.01l-2.51-1.49c0,.74,2.51,1.49,2.51,1.49ZM1523.91,983.03s-2.85-.82-2.88-.81c.18.73,2.83.82,2.88.81ZM1483.98,966.64s0,1.03.01,1.03c0,0,0-1.03-.01-1.03ZM1492.98,962.69l-2.51-1.49c0,.74,2.51,1.49,2.51,1.49ZM1459.96,955.43s0,4,0,4c0,0,0-4,0-4ZM1565.09,942.02s-2.41,1.66-2.42,1.67c.68.32,2.41-1.65,2.42-1.67ZM1628.19,939.7l-2.51-1.49c0,.74,2.51,1.49,2.51,1.49ZM1568.53,937.51l-2.51-1.49c0,.74,2.51,1.49,2.51,1.49ZM1706.74,930.31s-2.51-1.49-2.51-1.49c0,.74,2.51,1.49,2.51,1.49ZM1655.75,921.91c3.79.78,8.37,2.16,12.92,2.48,1,.07,2.04-.65,3.04-.58,3.88.29,7.39-.12,10.48.54,2.58.55,5.17-1.69,6.85-1.68,5.37.05,9.23,6.12,12.95,7.33,1.15.37,3.53-2.46,4.4-2.27,2.44-.31,5.03,2.67,7.38,2.54,2.55-.15,7.66,0,9.01-.52.18-.07-.47-1.77-.29-1.84,3.43-1.36,10.07-6.6,12.45-8.67,1.2-1.04,6.14-1.37,8.21-4.66-.03-.04-3.38-.09-3.4-.13-3.5-4.84-8.72-11.85-9.07-19.57-.21-4.47,1.83-8.55,3.36-11.8-1.36-.92-2.37-.41-3.71-1.67-.55-.23-.5-1.56-1.24-1.82-2.29-.81-4.58-2.99-7.58-4.72-3.87-2.22-7.28-2.08-9.07-5.35-4.18,2.17-9.05,2.56-14.75,1.26-6.87-1.57-12.69-5.75-15.68-8.6-.26-.25,1.1-2.3.81-2.57-6.85-1.74-11.27-7.07-14.4-10.23-6.57,2.43-16.02,7.98-25.03,6.27-2.05-1.53,1.58-2.68-.63-3.96-2.07,3.85-1.92,6.19-4.12,8.77-.98,1.15-3.06,2.01-3.42,2.7-3.29,7.04-10.85,9.57-14.75,12.22-.77.52-.53,2.73-1.12,3.19-1.69,2.7-3.56,4.95-5.42,6.84-.16.8-.59.99-.84,1.8.44.19-.63,2.58-.19,2.8,8.17,4.07,12.37,9.5,14.43,13.92.08.16-.41,2.22-.33,2.41.56.09,1.71.06,2.2.13,5.1.78,11.52.98,17.53,5.95,3,2.48,4.74,5.13,6.49,7.22.52.62,2.03,1.75,2.52,2.28ZM1498.4,929.77s0,1.03,0,1.03c0,0,0-1.03,0-1.03ZM1302.46,923.05l-2.51-1.49c0,.74,2.51,1.49,2.51,1.49ZM1311.81,880.56c2.14,2.62,3.94,7.09,5.68,11.46.96,2.4,2.47,3.29,6.75,6.89,3.75,3.15,7.01,6.25,8.7,9.95,3.58-2.22,7.87-7.05,12.97-7.53,3.69-.34,7.08,4.45,9.97,4.56,2.62.1,4.9-3.25,6.17-3.63,5.79-1.73,12.97-.65,18.92-2.87,5.07-1.88,9.55-2.44,13.56-3.49.93-.24,1.56-2.31,2.45-2.55.5-.48-.42-3.08.07-3.6,3-3.15,9.28-4.74,16.31-6.63,8.09-2.18,15.17-2.94,19.74-.96.27.12-.27-.41.04-.27.48-.17.55.55,1.03.38,3.04-1.08,5.45-2.26,8.18-3.65.53-.6,1.99-.5,2.61-1.34,2.64-3.56,7.06-7.44,13.01-10.66,5.72-3.1,10.93-7.04,15.2-7.5,1.26-.14,2.78.75,3.51.56,1.94-.92,3.4-2.12,5.27-2.49.82-1.01,2.8.16,3.73-.78,6.49-6.54,14.87-5.29,20.26-5.89.77-.09,1.15-3.41,1.93-3.53,1.45-.73,5.48-1.49,7.25-1.92,3.5,5.94,1.17,7.03,5.11,12.69,1.68-2.41.78-3.29,2.38-4.92-1.16-3.81-.49-9.13.57-15.5,1.13-6.75,2.94-11.88,5.9-15.18-1.39-3.05-3.15-6.71-3.61-11.24-.34.11.33.53-.01.64-3.3,1.12-7.62-.29-12.32-.17-2.34.06-4.48,2.58-7.42,3.24-2.55.58-5.66-.63-9.11-.17-1.63.22-3.8.96-6.19,1.47-3.37.72-7.33,2.18-12.24,2.84-5.56.75-9.94-.5-13.5-1.17-1-.19-2.27,2.76-2.98,2.69-7.9,2-15.13-2.62-19.88-4.31-.4-.14-1.3-1.81-1.77-1.97-.37.25-.46,2.69-.79,2.92-2.99,2.05-7.33,4.6-12.88,6.03-.33.39.61,1.99.33,2.33-3.87,4.74-11.07,8.82-21.05,9.61-4.24.33-7.8,1.21-10.86.86-1.93-.22-3.97.78-5.01.9-7.63.88-13.83-2.1-18.08-4.51-2.88,2.17-7.4,2.24-12.57,3.78-9.06,2.69-16.42,1.54-22.12-1.45-1.15.87-1.83,1.47-2.91,2.32-1.07.85-.79,2.85-1.89,3.69-.32.74-1.26.7-1.56,1.45-1.28,3.25-2.27,7.79-5.03,11.48-.07.78-4.32.63-4.36,1.4-.19,3.99,3.36,10.14.92,15.61-2.07,4.65-7.92,7.47-10.38,10.1ZM1625.77,905.39s-2.51-1.49-2.51-1.49c0,.74,2.51,1.49,2.51,1.49ZM1742.71,888.92l-2.51-1.49c0,.74,2.51,1.49,2.51,1.49ZM1435.05,886.47s-2.51-1.49-2.51-1.49c0,.74,2.51,1.49,2.51,1.49ZM1553.49,880.5c.07.02.56,1.66.62,1.68,1.45.53,3.4.39,5.44,1.34,1.18.54,3.83-.2,6.37.12,1.23.15,2.84-2.45,4.27-2.22.18-.08,1.1,4.32,1.3,4.24,1.04-.43.27-3.62,1.25-3.86,1.21-2.89,5.65-5.38,8.11-8.84-.93-4.9-.99-10.23,1.95-16.38,4.65-9.73,12.65-12.75,19.2-14.42.57-4.11-.55-11.11,2.67-16.47,1.83-3.05,5.51-1.84,6.55-3.23.27-.36-2.56-3.24-1.42-4.96.04-.05-.68,1.86-.69,1.8-.71-2.27-1.32-5.07-2.8-7.91-.03-.05.1.63.06.59-.66-.54-1.47-2.47-2.85-3.2-1.63-.87-2.81-2.99-4.78-4.22-5.65-3.54-11.79-6.92-14.59-11.3-.35-.54,1.11-.99.7-1.62-2.14.06-1.38-.79-3.05-.61-.02,6.01-2.83,12.39-7.69,18.25-3.1,3.74-8.91,4.9-12.63,6.22,1.22,3.94,4.91,9.76,3.59,14.7-1.68,6.28-4.93,11.97-7.62,14.92,0,.03.24-2.14.25-2.12,1.15,3.79,1.84,9.73,1.07,15.88-.81,6.47-6.46,10.67-9.59,14.11,1.5,1.84,2.97,5.05,4.32,7.49ZM1443.1,882s-2.51-1.49-2.51-1.49c0,.74,2.51,1.49,2.51,1.49ZM1310.49,878.59l-2.51-1.49c0,.74,2.51,1.49,2.51,1.49ZM1546.62,870.22l-2.51-1.49c0,.74,2.51,1.49,2.51,1.49ZM1754.53,857.28s0,1.03,0,1.03c0,0,0-1.03,0-1.03ZM1754.14,856.92l-2.51-1.49c0,.74,2.51,1.49,2.51,1.49ZM1324.06,852.93l-2.51-1.49c0,.74,2.51,1.49,2.51,1.49ZM1509.19,849.35s0,1.02,0,1.02c0,0,0-1.02,0-1.02ZM1600.8,846.89l-2.51-1.49c0,.74,2.51,1.49,2.51,1.49ZM1605.45,841.84s-2.51-1.49-2.51-1.49c0,.74,2.51,1.49,2.51,1.49ZM1330.92,839.71l-2.51-1.49c0,.74,2.51,1.49,2.51,1.49ZM1297.56,833.53s-2.51-1.48-2.51-1.48c0,0,2.51,1.48,2.51,1.48ZM1616.17,821.69c2.13,12.79,12,9.23,24.49,12.7.94-3.69,1.28-11.09-.09-13.28-12.26-6.43-26.23-10.35-24.4.58ZM1639.53,821.37c1.22,1.22,5.38,4.52,6.23,5.74.56-1.66-.18-3.4-.89-5-.87-1.94-4.03-1.51-5.33-.74ZM1615.89,778.56c.83.48,1.54,2.08,2.49,2.59,5.4,2.9,12.46,5.46,17.23,14.63.08.16,1.1-.37,1.18-.21,3.6,6.92,10.68,14.66,10.53,25.36,2.54-1.14,5.39-.55,7.68-1.81,4.77-2.63,7.42-8.05,11.31-9.2,7.06-2.09,14.63,1.99,19.29,3.16,3.35-5,8.34-11.21,17.91-13.1.92-.18,2.45-2.61,4.15-3.21,4.01-1.4,8.51-5.58,14.61-6.32,3.22-.39,6.47,3.26,9.36,3.17,2.62-.08,4.76-4.13,6.89-4.43,9.7-1.39,18.65,4.31,23.67,8.52.73-.47-.74-.25-.16-.63,1.42-.93,2.44-1.99,3.93-2.88.44-.85,1.78-.87,2.18-1.76,1.41-3.11,4.11-5.94,6.68-9.22,1.86-2.38,1.55-6.74,3.39-8.46.96-.9,2.72-1.11,3.38-1.89.16-.57.9,2.01,1.08,1.45-6.19-1.72-11.97-6.96-15.44-14.1-.98-2.01.22-4.96-.66-7.26-.7-1.82-4.77-3.51-5.55-4.91-7.08-7.04-17.16-4.91-16.03-14.83,1.19-10.36,9.89-7.24,18.56-13.02.56-.38,1.73.02,2.4-.41,1.76-1.16,6.92-2.03,9.3-3.89-.28-2.96-2.31-7.79-.96-12.34,1.64-5.51,4.81-9.45,6.74-11.76.45-3.01,1.84-5.11,3.05-7.47-3.45-2.07-4.45-6.29-6.78-10.72-1.71-3.24-4.53-5.58-5.2-8.13-3.48-.55-6.65-3.2-10.67-6.35-3.55-2.78-5.53-5.78-6.81-9.17-1.25.55-4.61,1.21-5.98,1.72-.69.56-2.68,2.11-3.6,3.13-2.4,2.64-3.26,8.38-7.38,11.11-6.35,4.21-14.28,2.3-19.49,1.73-1.72,4.61-5.29,9.09-11.33,12.9-2.96,1.87-4.73,5.24-7.31,6.56-2.2,1.12-4.47,1.87-6.1,2.93-4.46,2.89-8.53,5.86-11.89,6.8-1.1.31-4.14-2.55-4.75-2.29-3.52,2.41-6.26,4.96-9.13,6.18-.44.19-.47,1.53-.99,1.76,0,.01.41-.24.41-.22-.88,4.92-4.32,10.6-10.46,16.23-5.41,4.97-10.22,8.65-14.5,9.5-.45.09-.87-.17-1.37-.06-3.31,2.85-6.07,5.91-9.47,6.97-.61,1.64-1.4,1.51-2.14,2.86-.2,3.71-.4,8.55-2.63,12.57-1.08,1.95-7.56,6.51-8.99,10.34-1.14,3.07.29,8.25-.64,10.45-3.15.3-3.03-2.31-6.17-1.98,1.52,2,4.94,1.58,6.01,3.25.72,1.13-1.5,5.3-.85,6.15ZM1462.1,820.06s0,1.02,0,1.02c0,0,0-1.02,0-1.02ZM1441.86,816.6s-2.51-1.49-2.51-1.49c0,.74,2.51,1.49,2.51,1.49ZM1769.2,795.98s0,1.03-.01,1.03c0,0,0-1.03.01-1.03ZM1534.23,776.31c-1.95,7.68-4.27,8.61-3.1,16.46,3.91-3.3,12.65-4.52,16.54-5.51.04-7.51-.41-18.62,9.86-24.32,7.93-4.4,18.01-8.23,27.34-8.36.9-3.75,5.39-4.64,6.75-8.35.7-1.92-1.59-5.75-1.28-6.96.38-4.06,4.73-6.93,6.19-9.88,0-2.63.84-5.87,1.64-8.9-.44-.89-2.76-2.42-3.19-3.39,0,0-1.53,1.82-1.53,1.81-4.7-2.32-9.9-8.51-13.56-17.07-2.9-6.78-5.34-12.81-4.46-17.1.11-.53-.22-.26-.12-.85-.87-2.42.56-3.89.4-6.14-6.71.12-15.65-1.26-21.12-8.14-.76-.96-1.03-2.96-2.52-4.26-2.06-1.79-3.47-4.74-5.79-7.4-7.07-8.11-8.6-18.35-7.51-25.17.08-.51,1.29.05,1.39-.54-.99-1.23-2.33-1.74-3.2-2.89-.83-1.11.01-4.03-.92-5.14-1.35,0-3.24-2.09-4.47-2.04-.01,0,1.09,2.65,1.07,2.65-1.75,3.76-4.04,9.68-8.77,12.94-5.06,3.49-11.91,4.3-16.5,4.3,0,0,1.08-1.96,1.08-1.96-.45,4.26-3.52,8.55-6.61,13.36-.92,1.43.16,4.45-.74,7.13-.9,2.7-1.92,5.87-3.49,9.18-.28.58-.63.41-.91.99-2.4,5.03-6.81,7.78-8.17,12.31-.6,1.99,1.21,4.69,1.04,8.13-.1,2.16-2.08,4.37-2.39,7.12-.41,3.64-.89,6.49-1.53,8.97-.63,2.43-.48,4.57-.39,5.53.63,6.66-1.66,11.57-3.15,15.67-.07.2,2.82.25,2.74.48.43.43-.93,2.04-.55,2.4,2.49,2.39,4.24,6.01,6.77,10.11,3.16,5.12,5.83,9.44,6.28,13.8,5.11-.04,11.87.59,17.75,5.74.06.05.87-1.5.9-1.47.34.14.09,3.86.79,4.05,1.92.54,4.8-.03,7.89,1.32,6.35,2.77,10.35,6.86,12.78,10.56.58.88,1.55,2.03,1.94,2.44-.3-.32-3.36-1.19-5.18-1.59ZM1786.67,764l-2.51-1.49c0,.74,2.51,1.49,2.51,1.49ZM1497.9,762.11l-2.51-1.49c0,.74,2.51,1.49,2.51,1.49ZM1761.61,748.4s0,1.02,0,1.02c0,0,0-1.02,0-1.02ZM1591.31,741.46s0,1.03,0,1.04c0,0,0-1.03,0-1.04ZM1591.41,740.67s0,1.02,0,1.02c0,0,0-1.02,0-1.02ZM1481.92,729.51l-2.51-1.49c0,.74,2.51,1.49,2.51,1.49ZM1453.42,715.98l-2.51-1.49c0,.74,2.51,1.49,2.51,1.49ZM1677.84,697.87l-2.51-1.49c0,.74,2.51,1.49,2.51,1.49ZM1578.64,687.17s0,1.03,0,1.04c0,0,0-1.03,0-1.04ZM1576.34,667.57s-2.51-1.49-2.51-1.49c0,.74,2.51,1.49,2.51,1.49ZM1675.41,663.76s0,1.02,0,1.02c0,0,0-1.02,0-1.02ZM1770.81,663.17s-2.51-1.48-2.51-1.48c0,.74,2.51,1.49,2.51,1.48ZM1508.02,634.59l-2.51-1.49c0,.74,2.51,1.49,2.51,1.49Z"/>
    </g>
  </g>
</svg>