<?xml version="1.0" encoding="utf-8"?>
<!-- Generator: Adobe Illustrator 28.1.0, SVG Export Plug-In . SVG Version: 6.00 Build 0)  -->
<svg version="1.1" id="Layer_1" xmlns="http://www.w3.org/2000/svg" xmlns:xlink="http://www.w3.org/1999/xlink" x="0px" y="0px"
	 viewBox="0 0 1920 1080" style="enable-background:new 0 0 1920 1080;" xml:space="preserve">
<style type="text/css">
	.Dot{fill:none;}
	.dot_x0020_label{fill:none;}
	.st0{opacity:0.9;}
	.st1{fill:#BFB326;}
	.st2{fill:none;stroke:#8B8332;stroke-width:3;stroke-miterlimit:10;}
	.st3{fill:none;stroke:#8B8332;stroke-width:3.0861;stroke-miterlimit:10;}
	.st4{fill:#8B8332;}
</style>
<g>
	<path class="st4" d="M51.69,491.03c-1.2,0-2.26-0.25-3.17-0.74c-0.91-0.5-1.62-1.21-2.12-2.15c-0.5-0.94-0.76-2.05-0.76-3.35
		s0.25-2.41,0.76-3.35c0.5-0.94,1.2-1.65,2.1-2.15c0.9-0.5,1.91-0.74,3.05-0.74c1.17,0,2.16,0.24,2.98,0.72
		c0.82,0.48,1.44,1.14,1.87,1.97s0.65,1.78,0.65,2.83c0,0.29-0.01,0.56-0.02,0.82c-0.02,0.26-0.04,0.48-0.07,0.67H47.3v-1.97h8.52
		l-1.27,0.38c0-1.09-0.27-1.92-0.82-2.51c-0.54-0.58-1.29-0.88-2.23-0.88c-0.69,0-1.29,0.16-1.8,0.48s-0.9,0.8-1.18,1.43
		c-0.27,0.63-0.41,1.4-0.41,2.32c0,0.9,0.14,1.66,0.43,2.28s0.7,1.1,1.22,1.42c0.53,0.32,1.15,0.48,1.87,0.48
		c0.8,0,1.45-0.15,1.94-0.46c0.5-0.3,0.89-0.73,1.18-1.27l2.04,0.96c-0.29,0.58-0.68,1.08-1.16,1.5c-0.49,0.42-1.07,0.75-1.74,0.97
		S52.49,491.03,51.69,491.03z"/>
</g>
<g>
	<path class="st4" d="M985.29,853.06c-1.88,0-3.56-0.43-5.05-1.29c-1.49-0.86-2.67-2.04-3.53-3.53c-0.86-1.49-1.29-3.18-1.29-5.05
		c0-1.87,0.43-3.56,1.29-5.05c0.86-1.5,2.04-2.67,3.53-3.53s3.18-1.29,5.05-1.29c1.87,0,3.56,0.43,5.05,1.29
		c1.5,0.86,2.67,2.04,3.54,3.53s1.29,3.18,1.29,5.05c0,1.88-0.43,3.56-1.29,5.05c-0.86,1.5-2.04,2.67-3.54,3.53
		C988.85,852.63,987.17,853.06,985.29,853.06z"/>
</g>
<g>
	<path class="st4" d="M1154.62,836.79c-1.88,0-3.56-0.43-5.05-1.29c-1.5-0.86-2.67-2.04-3.54-3.53c-0.86-1.49-1.29-3.18-1.29-5.05
		c0-1.87,0.43-3.56,1.29-5.05s2.04-2.67,3.54-3.53c1.49-0.86,3.18-1.29,5.05-1.29s3.56,0.43,5.05,1.29
		c1.49,0.86,2.67,2.04,3.53,3.53s1.29,3.18,1.29,5.05c0,1.88-0.43,3.56-1.29,5.05c-0.86,1.5-2.04,2.67-3.53,3.53
		C1158.18,836.36,1156.49,836.79,1154.62,836.79z"/>
</g>
<g>
	<path class="st4" d="M1227.51,811.59c-1.88,0-3.56-0.43-5.05-1.29c-1.5-0.86-2.67-2.04-3.53-3.53c-0.86-1.49-1.29-3.18-1.29-5.05
		c0-1.87,0.43-3.56,1.29-5.05c0.86-1.5,2.04-2.67,3.53-3.53c1.49-0.86,3.18-1.29,5.05-1.29c1.87,0,3.56,0.43,5.05,1.29
		s2.67,2.04,3.53,3.53s1.29,3.18,1.29,5.05c0,1.88-0.43,3.56-1.29,5.05c-0.86,1.5-2.04,2.67-3.53,3.53
		C1231.07,811.16,1229.38,811.59,1227.51,811.59z"/>
</g>
<g>
	<path class="st4" d="M1874.1,954.65c-1.88,0-3.56-0.43-5.05-1.29c-1.5-0.86-2.67-2.04-3.54-3.53c-0.86-1.49-1.29-3.18-1.29-5.05
		c0-1.87,0.43-3.56,1.29-5.05s2.04-2.67,3.54-3.53c1.49-0.86,3.18-1.29,5.05-1.29s3.56,0.43,5.05,1.29
		c1.49,0.86,2.67,2.04,3.53,3.53s1.29,3.18,1.29,5.05c0,1.88-0.43,3.56-1.29,5.05c-0.86,1.5-2.04,2.67-3.53,3.53
		C1877.66,954.22,1875.97,954.65,1874.1,954.65z"/>
</g>
<g>
	<path class="st4" d="M1734.46,751.15c-1.88,0-3.56-0.43-5.05-1.29c-1.5-0.86-2.67-2.04-3.53-3.53c-0.86-1.49-1.29-3.18-1.29-5.05
		c0-1.87,0.43-3.56,1.29-5.05c0.86-1.5,2.04-2.67,3.53-3.53c1.49-0.86,3.18-1.29,5.05-1.29c1.87,0,3.56,0.43,5.05,1.29
		s2.67,2.04,3.53,3.53s1.29,3.18,1.29,5.05c0,1.88-0.43,3.56-1.29,5.05c-0.86,1.5-2.04,2.67-3.53,3.53
		C1738.02,750.72,1736.34,751.15,1734.46,751.15z"/>
</g>
<g>
	<path class="st4" d="M1455.67,854.64c-1.88,0-3.56-0.43-5.05-1.29c-1.49-0.86-2.67-2.04-3.53-3.53c-0.86-1.49-1.29-3.18-1.29-5.05
		c0-1.87,0.43-3.56,1.29-5.05c0.86-1.5,2.04-2.67,3.53-3.53s3.18-1.29,5.05-1.29c1.87,0,3.56,0.43,5.05,1.29
		c1.5,0.86,2.67,2.04,3.54,3.53s1.29,3.18,1.29,5.05c0,1.88-0.43,3.56-1.29,5.05c-0.86,1.5-2.04,2.67-3.54,3.53
		C1459.23,854.21,1457.54,854.64,1455.67,854.64z"/>
</g>
<g>
	<path class="st4" d="M1434.94,689.38c-1.88,0-3.56-0.43-5.05-1.29c-1.5-0.86-2.67-2.04-3.53-3.53c-0.86-1.49-1.29-3.18-1.29-5.05
		c0-1.87,0.43-3.56,1.29-5.05c0.86-1.5,2.04-2.67,3.53-3.53c1.49-0.86,3.18-1.29,5.05-1.29c1.87,0,3.56,0.43,5.05,1.29
		s2.67,2.04,3.53,3.53s1.29,3.18,1.29,5.05c0,1.88-0.43,3.56-1.29,5.05c-0.86,1.5-2.04,2.67-3.53,3.53
		C1438.5,688.95,1436.82,689.38,1434.94,689.38z"/>
</g>
<g>
	<path class="st4" d="M1465.4,649.55c-1.88,0-3.56-0.43-5.05-1.29c-1.49-0.86-2.67-2.04-3.53-3.53c-0.86-1.49-1.29-3.18-1.29-5.05
		c0-1.87,0.43-3.56,1.29-5.05c0.86-1.5,2.04-2.67,3.53-3.53s3.18-1.29,5.05-1.29c1.87,0,3.56,0.43,5.05,1.29
		c1.5,0.86,2.67,2.04,3.54,3.53s1.29,3.18,1.29,5.05c0,1.88-0.43,3.56-1.29,5.05c-0.86,1.5-2.04,2.67-3.54,3.53
		C1468.96,649.12,1467.28,649.55,1465.4,649.55z"/>
</g>
<g>
	<path class="st4" d="M1322.69,600.32c-1.88,0-3.56-0.43-5.05-1.29c-1.5-0.86-2.67-2.04-3.54-3.53c-0.86-1.49-1.29-3.18-1.29-5.05
		c0-1.87,0.43-3.56,1.29-5.05s2.04-2.67,3.54-3.53c1.49-0.86,3.18-1.29,5.05-1.29s3.56,0.43,5.05,1.29
		c1.49,0.86,2.67,2.04,3.53,3.53s1.29,3.18,1.29,5.05c0,1.88-0.43,3.56-1.29,5.05c-0.86,1.5-2.04,2.67-3.53,3.53
		C1326.24,599.89,1324.56,600.32,1322.69,600.32z"/>
</g>
<g>
	<path class="st4" d="M1292.92,537.96c-1.88,0-3.56-0.43-5.05-1.29c-1.5-0.86-2.67-2.04-3.53-3.53c-0.86-1.49-1.29-3.18-1.29-5.05
		c0-1.87,0.43-3.56,1.29-5.05c0.86-1.5,2.04-2.67,3.53-3.53c1.49-0.86,3.18-1.29,5.05-1.29c1.87,0,3.56,0.43,5.05,1.29
		s2.67,2.04,3.53,3.53s1.29,3.18,1.29,5.05c0,1.88-0.43,3.56-1.29,5.05c-0.86,1.5-2.04,2.67-3.53,3.53
		C1296.48,537.53,1294.79,537.96,1292.92,537.96z"/>
</g>
<g>
	<path class="st4" d="M1235.1,438.11c-1.88,0-3.56-0.43-5.05-1.29c-1.49-0.86-2.67-2.04-3.53-3.53c-0.86-1.49-1.29-3.18-1.29-5.05
		c0-1.87,0.43-3.56,1.29-5.05c0.86-1.5,2.04-2.67,3.53-3.53s3.18-1.29,5.05-1.29c1.87,0,3.56,0.43,5.05,1.29
		c1.5,0.86,2.67,2.04,3.54,3.53s1.29,3.18,1.29,5.05c0,1.88-0.43,3.56-1.29,5.05c-0.86,1.5-2.04,2.67-3.54,3.53
		C1238.66,437.68,1236.97,438.11,1235.1,438.11z"/>
</g>
<g>
	<path class="st4" d="M1133.52,409.22c-1.88,0-3.56-0.43-5.05-1.29c-1.49-0.86-2.67-2.04-3.53-3.53c-0.86-1.49-1.29-3.18-1.29-5.05
		c0-1.87,0.43-3.56,1.29-5.05c0.86-1.5,2.04-2.67,3.53-3.53s3.18-1.29,5.05-1.29c1.87,0,3.56,0.43,5.05,1.29
		c1.5,0.86,2.67,2.04,3.54,3.53s1.29,3.18,1.29,5.05c0,1.88-0.43,3.56-1.29,5.05c-0.86,1.5-2.04,2.67-3.54,3.53
		C1137.08,408.79,1135.39,409.22,1133.52,409.22z"/>
</g>
<g>
	<path class="st4" d="M1081.56,412.34c-1.88,0-3.56-0.43-5.05-1.29c-1.49-0.86-2.67-2.04-3.53-3.53c-0.86-1.49-1.29-3.18-1.29-5.05
		c0-1.87,0.43-3.56,1.29-5.05c0.86-1.5,2.04-2.67,3.53-3.53s3.18-1.29,5.05-1.29c1.87,0,3.56,0.43,5.05,1.29
		c1.5,0.86,2.67,2.04,3.54,3.53s1.29,3.18,1.29,5.05c0,1.88-0.43,3.56-1.29,5.05c-0.86,1.5-2.04,2.67-3.54,3.53
		C1085.12,411.91,1083.43,412.34,1081.56,412.34z"/>
</g>
<g>
	<path class="st4" d="M944.72,357.75c-1.88,0-3.56-0.43-5.05-1.29c-1.5-0.86-2.67-2.04-3.53-3.53c-0.86-1.49-1.29-3.18-1.29-5.05
		c0-1.87,0.43-3.56,1.29-5.05c0.86-1.5,2.04-2.67,3.53-3.53c1.49-0.86,3.18-1.29,5.05-1.29c1.87,0,3.56,0.43,5.05,1.29
		s2.67,2.04,3.53,3.53s1.29,3.18,1.29,5.05c0,1.88-0.43,3.56-1.29,5.05c-0.86,1.5-2.04,2.67-3.53,3.53
		C948.28,357.32,946.59,357.75,944.72,357.75z"/>
</g>
<g>
	<path class="st4" d="M1093.55,333.2c-1.88,0-3.56-0.43-5.05-1.29c-1.5-0.86-2.67-2.04-3.53-3.53c-0.86-1.49-1.29-3.18-1.29-5.05
		c0-1.87,0.43-3.56,1.29-5.05c0.86-1.5,2.04-2.67,3.53-3.53c1.49-0.86,3.18-1.29,5.05-1.29c1.87,0,3.56,0.43,5.05,1.29
		s2.67,2.04,3.53,3.53s1.29,3.18,1.29,5.05c0,1.88-0.43,3.56-1.29,5.05c-0.86,1.5-2.04,2.67-3.53,3.53
		C1097.1,332.77,1095.42,333.2,1093.55,333.2z"/>
</g>
<g>
	<path class="st4" d="M1029.76,240.55c-1.88,0-3.56-0.43-5.05-1.29c-1.49-0.86-2.67-2.04-3.53-3.53c-0.86-1.49-1.29-3.18-1.29-5.05
		c0-1.87,0.43-3.56,1.29-5.05c0.86-1.5,2.04-2.67,3.53-3.53s3.18-1.29,5.05-1.29c1.87,0,3.56,0.43,5.05,1.29
		c1.5,0.86,2.67,2.04,3.54,3.53s1.29,3.18,1.29,5.05c0,1.88-0.43,3.56-1.29,5.05c-0.86,1.5-2.04,2.67-3.54,3.53
		C1033.32,240.12,1031.64,240.55,1029.76,240.55z"/>
</g>
<g>
	<path class="st4" d="M1757.87,204.92c-1.88,0-3.56-0.43-5.05-1.29c-1.5-0.86-2.67-2.04-3.53-3.53c-0.86-1.49-1.29-3.18-1.29-5.05
		c0-1.87,0.43-3.56,1.29-5.05c0.86-1.5,2.04-2.67,3.53-3.53c1.49-0.86,3.18-1.29,5.05-1.29c1.87,0,3.56,0.43,5.05,1.29
		s2.67,2.04,3.53,3.53s1.29,3.18,1.29,5.05c0,1.88-0.43,3.56-1.29,5.05c-0.86,1.5-2.04,2.67-3.53,3.53
		C1761.43,204.49,1759.74,204.92,1757.87,204.92z"/>
</g>
<g>
	<path class="st4" d="M1828.96,279.16c-1.88,0-3.56-0.43-5.05-1.29c-1.5-0.86-2.67-2.04-3.53-3.53c-0.86-1.49-1.29-3.18-1.29-5.05
		c0-1.87,0.43-3.56,1.29-5.05c0.86-1.5,2.04-2.67,3.53-3.53c1.49-0.86,3.18-1.29,5.05-1.29c1.87,0,3.56,0.43,5.05,1.29
		s2.67,2.04,3.53,3.53s1.29,3.18,1.29,5.05c0,1.88-0.43,3.56-1.29,5.05c-0.86,1.5-2.04,2.67-3.53,3.53
		C1832.52,278.73,1830.83,279.16,1828.96,279.16z"/>
</g>
<g>
	<path class="st4" d="M1810.25,371.33c-1.88,0-3.56-0.43-5.05-1.29c-1.5-0.86-2.67-2.04-3.53-3.53c-0.86-1.49-1.29-3.18-1.29-5.05
		c0-1.87,0.43-3.56,1.29-5.05c0.86-1.5,2.04-2.67,3.53-3.53c1.49-0.86,3.18-1.29,5.05-1.29c1.87,0,3.56,0.43,5.05,1.29
		s2.67,2.04,3.53,3.53s1.29,3.18,1.29,5.05c0,1.88-0.43,3.56-1.29,5.05c-0.86,1.5-2.04,2.67-3.53,3.53
		C1813.81,370.9,1812.13,371.33,1810.25,371.33z"/>
</g>
<g>
	<path class="st4" d="M1637.12,340.54c-1.88,0-3.56-0.43-5.05-1.29c-1.5-0.86-2.67-2.04-3.53-3.53c-0.86-1.49-1.29-3.18-1.29-5.05
		c0-1.87,0.43-3.56,1.29-5.05c0.86-1.5,2.04-2.67,3.53-3.53c1.49-0.86,3.18-1.29,5.05-1.29c1.87,0,3.56,0.43,5.05,1.29
		s2.67,2.04,3.53,3.53s1.29,3.18,1.29,5.05c0,1.88-0.43,3.56-1.29,5.05c-0.86,1.5-2.04,2.67-3.53,3.53
		C1640.68,340.11,1638.99,340.54,1637.12,340.54z"/>
</g>
<g>
	<path class="st4" d="M1632.92,415.61c-1.88,0-3.56-0.43-5.05-1.29c-1.5-0.86-2.67-2.04-3.54-3.53c-0.86-1.49-1.29-3.18-1.29-5.05
		c0-1.87,0.43-3.56,1.29-5.05s2.04-2.67,3.54-3.53c1.49-0.86,3.18-1.29,5.05-1.29s3.56,0.43,5.05,1.29
		c1.49,0.86,2.67,2.04,3.53,3.53s1.29,3.18,1.29,5.05c0,1.88-0.43,3.56-1.29,5.05c-0.86,1.5-2.04,2.67-3.53,3.53
		C1636.48,415.18,1634.79,415.61,1632.92,415.61z"/>
</g>
<g>
	<path class="st4" d="M1663.7,528.91c-1.88,0-3.56-0.43-5.05-1.29c-1.5-0.86-2.67-2.04-3.53-3.53c-0.86-1.49-1.29-3.18-1.29-5.05
		c0-1.87,0.43-3.56,1.29-5.05c0.86-1.5,2.04-2.67,3.53-3.53c1.49-0.86,3.18-1.29,5.05-1.29c1.87,0,3.56,0.43,5.05,1.29
		s2.67,2.04,3.53,3.53s1.29,3.18,1.29,5.05c0,1.88-0.43,3.56-1.29,5.05c-0.86,1.5-2.04,2.67-3.53,3.53
		C1667.26,528.48,1665.57,528.91,1663.7,528.91z"/>
</g>
<g>
	<path class="st4" d="M1869.31,547.27c-1.88,0-3.56-0.43-5.05-1.29c-1.5-0.86-2.67-2.04-3.54-3.53c-0.86-1.49-1.29-3.18-1.29-5.05
		c0-1.87,0.43-3.56,1.29-5.05s2.04-2.67,3.54-3.53c1.49-0.86,3.18-1.29,5.05-1.29s3.56,0.43,5.05,1.29
		c1.49,0.86,2.67,2.04,3.53,3.53s1.29,3.18,1.29,5.05c0,1.88-0.43,3.56-1.29,5.05c-0.86,1.5-2.04,2.67-3.53,3.53
		C1872.87,546.84,1871.19,547.27,1869.31,547.27z"/>
</g>
<g>
	<path class="st4" d="M680.55,396.77c-1.88,0-3.56-0.43-5.05-1.29c-1.5-0.86-2.67-2.04-3.53-3.53c-0.86-1.49-1.29-3.18-1.29-5.05
		c0-1.87,0.43-3.56,1.29-5.05c0.86-1.5,2.04-2.67,3.53-3.53c1.49-0.86,3.18-1.29,5.05-1.29c1.87,0,3.56,0.43,5.05,1.29
		s2.67,2.04,3.53,3.53s1.29,3.18,1.29,5.05c0,1.88-0.43,3.56-1.29,5.05c-0.86,1.5-2.04,2.67-3.53,3.53
		C684.11,396.33,682.43,396.77,680.55,396.77z"/>
</g>
<g>
	<path class="st4" d="M766.36,434.87c-1.88,0-3.56-0.43-5.05-1.29c-1.5-0.86-2.67-2.04-3.53-3.53c-0.86-1.49-1.29-3.18-1.29-5.05
		c0-1.87,0.43-3.56,1.29-5.05c0.86-1.5,2.04-2.67,3.53-3.53c1.49-0.86,3.18-1.29,5.05-1.29c1.87,0,3.56,0.43,5.05,1.29
		s2.67,2.04,3.53,3.53s1.29,3.18,1.29,5.05c0,1.88-0.43,3.56-1.29,5.05c-0.86,1.5-2.04,2.67-3.53,3.53
		C769.92,434.44,768.23,434.87,766.36,434.87z"/>
</g>
<g>
	<path class="st4" d="M769.6,509.3c-1.88,0-3.56-0.43-5.05-1.29c-1.5-0.86-2.67-2.04-3.53-3.53c-0.86-1.49-1.29-3.18-1.29-5.05
		c0-1.87,0.43-3.56,1.29-5.05c0.86-1.5,2.04-2.67,3.53-3.53c1.49-0.86,3.18-1.29,5.05-1.29c1.87,0,3.56,0.43,5.05,1.29
		s2.67,2.04,3.53,3.53s1.29,3.18,1.29,5.05c0,1.88-0.43,3.56-1.29,5.05c-0.86,1.5-2.04,2.67-3.53,3.53
		C773.16,508.87,771.48,509.3,769.6,509.3z"/>
</g>
<g>
	<path class="st4" d="M260.17,374.96c-1.88,0-3.56-0.43-5.05-1.29c-1.5-0.86-2.67-2.04-3.53-3.53c-0.86-1.49-1.29-3.18-1.29-5.05
		c0-1.87,0.43-3.56,1.29-5.05c0.86-1.5,2.04-2.67,3.53-3.53c1.49-0.86,3.18-1.29,5.05-1.29c1.87,0,3.56,0.43,5.05,1.29
		s2.67,2.04,3.53,3.53s1.29,3.18,1.29,5.05c0,1.88-0.43,3.56-1.29,5.05c-0.86,1.5-2.04,2.67-3.53,3.53
		C263.73,374.53,262.05,374.96,260.17,374.96z"/>
</g>
<g>
	<path class="st4" d="M1502.06,290.43c-1.88,0-3.56-0.43-5.05-1.29c-1.49-0.86-2.67-2.04-3.53-3.53c-0.86-1.49-1.29-3.18-1.29-5.05
		c0-1.87,0.43-3.56,1.29-5.05c0.86-1.5,2.04-2.67,3.53-3.53s3.18-1.29,5.05-1.29c1.87,0,3.56,0.43,5.05,1.29
		c1.5,0.86,2.67,2.04,3.54,3.53s1.29,3.18,1.29,5.05c0,1.88-0.43,3.56-1.29,5.05c-0.86,1.5-2.04,2.67-3.54,3.53
		C1505.62,290,1503.93,290.43,1502.06,290.43z"/>
</g>
<g>
	<path class="st4" d="M220.69,452.61c-1.88,0-3.56-0.43-5.05-1.29c-1.5-0.86-2.67-2.04-3.53-3.53c-0.86-1.49-1.29-3.18-1.29-5.05
		c0-1.87,0.43-3.56,1.29-5.05c0.86-1.5,2.04-2.67,3.53-3.53c1.49-0.86,3.18-1.29,5.05-1.29c1.87,0,3.56,0.43,5.05,1.29
		s2.67,2.04,3.53,3.53s1.29,3.18,1.29,5.05c0,1.88-0.43,3.56-1.29,5.05c-0.86,1.5-2.04,2.67-3.53,3.53
		C224.25,452.18,222.56,452.61,220.69,452.61z"/>
</g>
<g>
	<path class="st4" d="M1110.34,563.2c-1.88,0-3.56-0.43-5.05-1.29c-1.5-0.86-2.67-2.04-3.54-3.53c-0.86-1.49-1.29-3.18-1.29-5.05
		c0-1.87,0.43-3.56,1.29-5.05s2.04-2.67,3.54-3.53c1.49-0.86,3.18-1.29,5.05-1.29s3.56,0.43,5.05,1.29
		c1.49,0.86,2.67,2.04,3.53,3.53s1.29,3.18,1.29,5.05c0,1.88-0.43,3.56-1.29,5.05c-0.86,1.5-2.04,2.67-3.53,3.53
		C1113.9,562.77,1112.21,563.2,1110.34,563.2z"/>
</g>
<g>
	<path class="st4" d="M1026.65,573.82c-1.88,0-3.56-0.43-5.05-1.29c-1.49-0.86-2.67-2.04-3.53-3.53c-0.86-1.49-1.29-3.18-1.29-5.05
		c0-1.87,0.43-3.56,1.29-5.05c0.86-1.5,2.04-2.67,3.53-3.53s3.18-1.29,5.05-1.29c1.87,0,3.56,0.43,5.05,1.29
		c1.5,0.86,2.67,2.04,3.54,3.53s1.29,3.18,1.29,5.05c0,1.88-0.43,3.56-1.29,5.05c-0.86,1.5-2.04,2.67-3.54,3.53
		C1030.21,573.39,1028.53,573.82,1026.65,573.82z"/>
</g>
<g>
	<path class="st4" d="M875.73,572.4c-1.88,0-3.56-0.43-5.05-1.29c-1.5-0.86-2.67-2.04-3.53-3.53c-0.86-1.49-1.29-3.18-1.29-5.05
		c0-1.87,0.43-3.56,1.29-5.05c0.86-1.5,2.04-2.67,3.53-3.53c1.49-0.86,3.18-1.29,5.05-1.29c1.87,0,3.56,0.43,5.05,1.29
		s2.67,2.04,3.53,3.53s1.29,3.18,1.29,5.05c0,1.88-0.43,3.56-1.29,5.05c-0.86,1.5-2.04,2.67-3.53,3.53
		C879.29,571.96,877.61,572.4,875.73,572.4z"/>
</g>
<g>
	<path class="st4" d="M885.59,675.31c-1.88,0-3.56-0.43-5.05-1.29c-1.5-0.86-2.67-2.04-3.53-3.53c-0.86-1.49-1.29-3.18-1.29-5.05
		c0-1.87,0.43-3.56,1.29-5.05c0.86-1.5,2.04-2.67,3.53-3.53c1.49-0.86,3.18-1.29,5.05-1.29c1.87,0,3.56,0.43,5.05,1.29
		s2.67,2.04,3.53,3.53s1.29,3.18,1.29,5.05c0,1.88-0.43,3.56-1.29,5.05c-0.86,1.5-2.04,2.67-3.53,3.53
		C889.15,674.88,887.46,675.31,885.59,675.31z"/>
</g>
<g>
	<path class="st4" d="M936.27,815.75c-1.88,0-3.56-0.43-5.05-1.29c-1.5-0.86-2.67-2.04-3.53-3.53c-0.86-1.49-1.29-3.18-1.29-5.05
		c0-1.87,0.43-3.56,1.29-5.05c0.86-1.5,2.04-2.67,3.53-3.53c1.49-0.86,3.18-1.29,5.05-1.29c1.87,0,3.56,0.43,5.05,1.29
		s2.67,2.04,3.53,3.53s1.29,3.18,1.29,5.05c0,1.88-0.43,3.56-1.29,5.05c-0.86,1.5-2.04,2.67-3.53,3.53
		C939.83,815.32,938.15,815.75,936.27,815.75z"/>
</g>
<g>
	<path class="st4" d="M829.47,944.21c-1.88,0-3.56-0.43-5.05-1.29c-1.5-0.86-2.67-2.04-3.53-3.53c-0.86-1.49-1.29-3.18-1.29-5.05
		c0-1.87,0.43-3.56,1.29-5.05c0.86-1.5,2.04-2.67,3.53-3.53c1.49-0.86,3.18-1.29,5.05-1.29c1.87,0,3.56,0.43,5.05,1.29
		s2.67,2.04,3.53,3.53s1.29,3.18,1.29,5.05c0,1.88-0.43,3.56-1.29,5.05c-0.86,1.5-2.04,2.67-3.53,3.53
		C833.03,943.78,831.34,944.21,829.47,944.21z"/>
</g>
<g>
	<path class="st4" d="M891.03,743.2c-1.88,0-3.56-0.43-5.05-1.29c-1.5-0.86-2.67-2.04-3.53-3.53c-0.86-1.49-1.29-3.18-1.29-5.05
		c0-1.87,0.43-3.56,1.29-5.05c0.86-1.5,2.04-2.67,3.53-3.53c1.49-0.86,3.18-1.29,5.05-1.29c1.87,0,3.56,0.43,5.05,1.29
		s2.67,2.04,3.53,3.53s1.29,3.18,1.29,5.05c0,1.88-0.43,3.56-1.29,5.05c-0.86,1.5-2.04,2.67-3.53,3.53
		C894.59,742.77,892.9,743.2,891.03,743.2z"/>
</g>
<g>
	<path class="st4" d="M700.18,768.85c-1.88,0-3.56-0.43-5.05-1.29c-1.5-0.86-2.67-2.04-3.53-3.53c-0.86-1.49-1.29-3.18-1.29-5.05
		c0-1.87,0.43-3.56,1.29-5.05c0.86-1.5,2.04-2.67,3.53-3.53c1.49-0.86,3.18-1.29,5.05-1.29c1.87,0,3.56,0.43,5.05,1.29
		s2.67,2.04,3.53,3.53s1.29,3.18,1.29,5.05c0,1.88-0.43,3.56-1.29,5.05c-0.86,1.5-2.04,2.67-3.53,3.53
		C703.74,768.42,702.06,768.85,700.18,768.85z"/>
</g>
<g>
	<path class="st4" d="M633.48,787.99c-1.88,0-3.56-0.43-5.05-1.29c-1.5-0.86-2.67-2.04-3.53-3.53c-0.86-1.49-1.29-3.18-1.29-5.05
		c0-1.87,0.43-3.56,1.29-5.05c0.86-1.5,2.04-2.67,3.53-3.53c1.49-0.86,3.18-1.29,5.05-1.29c1.87,0,3.56,0.43,5.05,1.29
		s2.67,2.04,3.53,3.53s1.29,3.18,1.29,5.05c0,1.88-0.43,3.56-1.29,5.05c-0.86,1.5-2.04,2.67-3.53,3.53
		C637.04,787.56,635.36,787.99,633.48,787.99z"/>
</g>
<g>
	<path class="st4" d="M661.39,862.25c-1.88,0-3.56-0.43-5.05-1.29c-1.5-0.86-2.67-2.04-3.53-3.53c-0.86-1.49-1.29-3.18-1.29-5.05
		c0-1.87,0.43-3.56,1.29-5.05c0.86-1.5,2.04-2.67,3.53-3.53c1.49-0.86,3.18-1.29,5.05-1.29c1.87,0,3.56,0.43,5.05,1.29
		s2.67,2.04,3.53,3.53s1.29,3.18,1.29,5.05c0,1.88-0.43,3.56-1.29,5.05c-0.86,1.5-2.04,2.67-3.53,3.53
		C664.95,861.82,663.26,862.25,661.39,862.25z"/>
</g>
<g>
	<path class="st4" d="M317.92,493.45c-1.88,0-3.56-0.43-5.05-1.29c-1.5-0.86-2.67-2.04-3.53-3.53c-0.86-1.49-1.29-3.18-1.29-5.05
		c0-1.87,0.43-3.56,1.29-5.05c0.86-1.5,2.04-2.67,3.53-3.53c1.49-0.86,3.18-1.29,5.05-1.29c1.87,0,3.56,0.43,5.05,1.29
		s2.67,2.04,3.53,3.53s1.29,3.18,1.29,5.05c0,1.88-0.43,3.56-1.29,5.05c-0.86,1.5-2.04,2.67-3.53,3.53
		C321.48,493.02,319.8,493.45,317.92,493.45z"/>
</g>
<g>
	<path class="st4" d="M51.35,469.11c-1.88,0-3.56-0.43-5.05-1.29c-1.5-0.86-2.67-2.04-3.53-3.53c-0.86-1.49-1.29-3.18-1.29-5.05
		c0-1.87,0.43-3.56,1.29-5.05c0.86-1.5,2.04-2.67,3.53-3.53c1.49-0.86,3.18-1.29,5.05-1.29c1.87,0,3.56,0.43,5.05,1.29
		s2.67,2.04,3.53,3.53s1.29,3.18,1.29,5.05c0,1.88-0.43,3.56-1.29,5.05c-0.86,1.5-2.04,2.67-3.53,3.53
		C54.91,468.68,53.22,469.11,51.35,469.11z"/>
</g>
<g>
	<path class="st4" d="M53.68,307.6c-1.88,0-3.56-0.43-5.05-1.29c-1.5-0.86-2.67-2.04-3.53-3.53c-0.86-1.49-1.29-3.18-1.29-5.05
		c0-1.87,0.43-3.56,1.29-5.05c0.86-1.5,2.04-2.67,3.53-3.53c1.49-0.86,3.18-1.29,5.05-1.29c1.87,0,3.56,0.43,5.05,1.29
		s2.67,2.04,3.53,3.53s1.29,3.18,1.29,5.05c0,1.88-0.43,3.56-1.29,5.05c-0.86,1.5-2.04,2.67-3.53,3.53
		C57.24,307.17,55.56,307.6,53.68,307.6z"/>
</g>
<g>
	<path class="st4" d="M125.76,319.55c-1.88,0-3.56-0.43-5.05-1.29c-1.5-0.86-2.67-2.04-3.53-3.53c-0.86-1.49-1.29-3.18-1.29-5.05
		c0-1.87,0.43-3.56,1.29-5.05c0.86-1.5,2.04-2.67,3.53-3.53c1.49-0.86,3.18-1.29,5.05-1.29c1.87,0,3.56,0.43,5.05,1.29
		s2.67,2.04,3.53,3.53s1.29,3.18,1.29,5.05c0,1.88-0.43,3.56-1.29,5.05c-0.86,1.5-2.04,2.67-3.53,3.53
		C129.32,319.12,127.64,319.55,125.76,319.55z"/>
</g>
<g>
	<path class="st4" d="M406.71,216.76c-1.88,0-3.56-0.43-5.05-1.29c-1.5-0.86-2.67-2.04-3.53-3.53c-0.86-1.49-1.29-3.18-1.29-5.05
		c0-1.87,0.43-3.56,1.29-5.05c0.86-1.5,2.04-2.67,3.53-3.53c1.49-0.86,3.18-1.29,5.05-1.29c1.87,0,3.56,0.43,5.05,1.29
		s2.67,2.04,3.53,3.53s1.29,3.18,1.29,5.05c0,1.88-0.43,3.56-1.29,5.05c-0.86,1.5-2.04,2.67-3.53,3.53
		C410.27,216.33,408.59,216.76,406.71,216.76z"/>
</g>
<g>
	<path class="st4" d="M592.39,579.57c-1.88,0-3.56-0.43-5.05-1.29c-1.5-0.86-2.67-2.04-3.53-3.53c-0.86-1.49-1.29-3.18-1.29-5.05
		c0-1.87,0.43-3.56,1.29-5.05c0.86-1.5,2.04-2.67,3.53-3.53c1.49-0.86,3.18-1.29,5.05-1.29c1.87,0,3.56,0.43,5.05,1.29
		s2.67,2.04,3.53,3.53s1.29,3.18,1.29,5.05c0,1.88-0.43,3.56-1.29,5.05c-0.86,1.5-2.04,2.67-3.53,3.53
		C595.95,579.14,594.26,579.57,592.39,579.57z"/>
</g>
<g>
	<path class="st4" d="M579.82,414.31c-1.88,0-3.56-0.43-5.05-1.29c-1.5-0.86-2.67-2.04-3.53-3.53c-0.86-1.49-1.29-3.18-1.29-5.05
		c0-1.87,0.43-3.56,1.29-5.05c0.86-1.5,2.04-2.67,3.53-3.53c1.49-0.86,3.18-1.29,5.05-1.29c1.87,0,3.56,0.43,5.05,1.29
		s2.67,2.04,3.53,3.53s1.29,3.18,1.29,5.05c0,1.88-0.43,3.56-1.29,5.05c-0.86,1.5-2.04,2.67-3.53,3.53
		C583.37,413.88,581.69,414.31,579.82,414.31z"/>
</g>
<g>
	<path class="st4" d="M520.73,342.52c-1.88,0-3.56-0.43-5.05-1.29c-1.5-0.86-2.67-2.04-3.53-3.53c-0.86-1.49-1.29-3.18-1.29-5.05
		c0-1.87,0.43-3.56,1.29-5.05c0.86-1.5,2.04-2.67,3.53-3.53c1.49-0.86,3.18-1.29,5.05-1.29c1.87,0,3.56,0.43,5.05,1.29
		s2.67,2.04,3.53,3.53s1.29,3.18,1.29,5.05c0,1.88-0.43,3.56-1.29,5.05c-0.86,1.5-2.04,2.67-3.53,3.53
		C524.29,342.09,522.61,342.52,520.73,342.52z"/>
</g>
<g>
	<path class="st4" d="M173.4,255.88c-1.88,0-3.56-0.43-5.05-1.29c-1.5-0.86-2.67-2.04-3.53-3.53c-0.86-1.49-1.29-3.18-1.29-5.05
		c0-1.87,0.43-3.56,1.29-5.05c0.86-1.5,2.04-2.67,3.53-3.53c1.49-0.86,3.18-1.29,5.05-1.29c1.87,0,3.56,0.43,5.05,1.29
		s2.67,2.04,3.53,3.53s1.29,3.18,1.29,5.05c0,1.88-0.43,3.56-1.29,5.05c-0.86,1.5-2.04,2.67-3.53,3.53
		C176.96,255.45,175.28,255.88,173.4,255.88z"/>
</g>
<g>
	<path class="st4" d="M96.5,261.21c-1.88,0-3.56-0.43-5.05-1.29c-1.5-0.86-2.67-2.04-3.53-3.53c-0.86-1.49-1.29-3.18-1.29-5.05
		c0-1.87,0.43-3.56,1.29-5.05c0.86-1.5,2.04-2.67,3.53-3.53c1.49-0.86,3.18-1.29,5.05-1.29c1.87,0,3.56,0.43,5.05,1.29
		s2.67,2.04,3.53,3.53s1.29,3.18,1.29,5.05c0,1.88-0.43,3.56-1.29,5.05c-0.86,1.5-2.04,2.67-3.53,3.53
		C100.06,260.78,98.37,261.21,96.5,261.21z"/>
</g>
<g>
	<path class="st4" d="M763.67,240.55c-1.88,0-3.56-0.43-5.05-1.29c-1.5-0.86-2.67-2.04-3.53-3.53c-0.86-1.49-1.29-3.18-1.29-5.05
		c0-1.87,0.43-3.56,1.29-5.05c0.86-1.5,2.04-2.67,3.53-3.53c1.49-0.86,3.18-1.29,5.05-1.29c1.87,0,3.56,0.43,5.05,1.29
		s2.67,2.04,3.53,3.53s1.29,3.18,1.29,5.05c0,1.88-0.43,3.56-1.29,5.05c-0.86,1.5-2.04,2.67-3.53,3.53
		C767.23,240.12,765.54,240.55,763.67,240.55z"/>
</g>
<g>
	<path class="st4" d="M834.77,264.18c-1.88,0-3.56-0.43-5.05-1.29c-1.5-0.86-2.67-2.04-3.53-3.53c-0.86-1.49-1.29-3.18-1.29-5.05
		c0-1.87,0.43-3.56,1.29-5.05c0.86-1.5,2.04-2.67,3.53-3.53c1.49-0.86,3.18-1.29,5.05-1.29c1.87,0,3.56,0.43,5.05,1.29
		s2.67,2.04,3.53,3.53s1.29,3.18,1.29,5.05c0,1.88-0.43,3.56-1.29,5.05c-0.86,1.5-2.04,2.67-3.53,3.53
		C838.32,263.75,836.64,264.18,834.77,264.18z"/>
</g>
<g>
	<path class="st4" d="M508.96,502.24c-1.88,0-3.56-0.43-5.05-1.29c-1.5-0.86-2.67-2.04-3.53-3.53c-0.86-1.49-1.29-3.18-1.29-5.05
		c0-1.87,0.43-3.56,1.29-5.05c0.86-1.5,2.04-2.67,3.53-3.53c1.49-0.86,3.18-1.29,5.05-1.29c1.87,0,3.56,0.43,5.05,1.29
		s2.67,2.04,3.53,3.53s1.29,3.18,1.29,5.05c0,1.88-0.43,3.56-1.29,5.05c-0.86,1.5-2.04,2.67-3.53,3.53
		C512.52,501.81,510.83,502.24,508.96,502.24z"/>
</g>
<g>
	<path class="st4" d="M522.49,917.81c-1.88,0-3.56-0.43-5.05-1.29c-1.5-0.86-2.67-2.04-3.53-3.53c-0.86-1.49-1.29-3.18-1.29-5.05
		c0-1.87,0.43-3.56,1.29-5.05c0.86-1.5,2.04-2.67,3.53-3.53c1.49-0.86,3.18-1.29,5.05-1.29c1.87,0,3.56,0.43,5.05,1.29
		s2.67,2.04,3.53,3.53s1.29,3.18,1.29,5.05c0,1.88-0.43,3.56-1.29,5.05c-0.86,1.5-2.04,2.67-3.53,3.53
		C526.05,917.38,524.36,917.81,522.49,917.81z"/>
</g>
<g>
	<path class="st4" d="M1418.12,366.71c-1.88,0-3.56-0.43-5.05-1.29c-1.5-0.86-2.67-2.04-3.54-3.53c-0.86-1.49-1.29-3.18-1.29-5.05
		c0-1.87,0.43-3.56,1.29-5.05s2.04-2.67,3.54-3.53c1.49-0.86,3.18-1.29,5.05-1.29s3.56,0.43,5.05,1.29
		c1.49,0.86,2.67,2.04,3.53,3.53s1.29,3.18,1.29,5.05c0,1.88-0.43,3.56-1.29,5.05c-0.86,1.5-2.04,2.67-3.53,3.53
		C1421.68,366.28,1419.99,366.71,1418.12,366.71z"/>
</g>
<g>
	<path class="st4" d="M855.37,920.54c-1.88,0-3.56-0.43-5.05-1.29c-1.5-0.86-2.67-2.04-3.53-3.53c-0.86-1.49-1.29-3.18-1.29-5.05
		c0-1.87,0.43-3.56,1.29-5.05c0.86-1.5,2.04-2.67,3.53-3.53c1.49-0.86,3.18-1.29,5.05-1.29c1.87,0,3.56,0.43,5.05,1.29
		s2.67,2.04,3.53,3.53s1.29,3.18,1.29,5.05c0,1.88-0.43,3.56-1.29,5.05c-0.86,1.5-2.04,2.67-3.53,3.53
		C858.93,920.11,857.25,920.54,855.37,920.54z"/>
</g>
<g>
	<path class="st4" d="M591.52,894.2c-1.88,0-3.56-0.43-5.05-1.29c-1.5-0.86-2.67-2.04-3.53-3.53c-0.86-1.49-1.29-3.18-1.29-5.05
		c0-1.87,0.43-3.56,1.29-5.05c0.86-1.5,2.04-2.67,3.53-3.53c1.49-0.86,3.18-1.29,5.05-1.29c1.87,0,3.56,0.43,5.05,1.29
		s2.67,2.04,3.53,3.53s1.29,3.18,1.29,5.05c0,1.88-0.43,3.56-1.29,5.05c-0.86,1.5-2.04,2.67-3.53,3.53
		C595.08,893.77,593.39,894.2,591.52,894.2z"/>
</g>
<g>
	<path class="st4" d="M949.89,665.63c-1.88,0-3.56-0.43-5.05-1.29c-1.5-0.86-2.67-2.04-3.53-3.53c-0.86-1.49-1.29-3.18-1.29-5.05
		c0-1.87,0.43-3.56,1.29-5.05c0.86-1.5,2.04-2.67,3.53-3.53c1.49-0.86,3.18-1.29,5.05-1.29c1.87,0,3.56,0.43,5.05,1.29
		s2.67,2.04,3.53,3.53s1.29,3.18,1.29,5.05c0,1.88-0.43,3.56-1.29,5.05c-0.86,1.5-2.04,2.67-3.53,3.53
		C953.45,665.2,951.76,665.63,949.89,665.63z"/>
</g>
<g>
	<path class="st4" d="M950.23,687.55c-1.2,0-2.26-0.25-3.17-0.74c-0.91-0.5-1.62-1.21-2.12-2.15s-0.76-2.05-0.76-3.35
		s0.25-2.41,0.76-3.35s1.2-1.65,2.1-2.15c0.9-0.5,1.91-0.74,3.05-0.74c1.17,0,2.16,0.24,2.98,0.72s1.44,1.14,1.87,1.97
		s0.65,1.78,0.65,2.83c0,0.29-0.01,0.56-0.02,0.82c-0.02,0.26-0.04,0.48-0.07,0.67h-9.65v-1.97h8.52l-1.27,0.38
		c0-1.09-0.27-1.92-0.82-2.51c-0.54-0.58-1.29-0.88-2.23-0.88c-0.69,0-1.29,0.16-1.8,0.48c-0.51,0.32-0.9,0.8-1.18,1.43
		c-0.27,0.63-0.41,1.4-0.41,2.32c0,0.9,0.14,1.66,0.43,2.28s0.7,1.1,1.22,1.42c0.53,0.32,1.15,0.48,1.87,0.48
		c0.8,0,1.45-0.15,1.94-0.46c0.5-0.3,0.89-0.73,1.18-1.27l2.04,0.96c-0.29,0.58-0.68,1.08-1.16,1.5c-0.49,0.42-1.07,0.75-1.74,0.97
		C951.76,687.44,951.03,687.55,950.23,687.55z"/>
</g>
<g>
	<path class="st4" d="M591.85,916.12c-1.2,0-2.26-0.25-3.17-0.74c-0.91-0.5-1.62-1.21-2.12-2.15s-0.76-2.05-0.76-3.35
		s0.25-2.41,0.76-3.35s1.2-1.65,2.1-2.15c0.9-0.5,1.91-0.74,3.05-0.74c1.17,0,2.16,0.24,2.98,0.72s1.44,1.14,1.87,1.97
		s0.65,1.78,0.65,2.83c0,0.29-0.01,0.56-0.02,0.82c-0.02,0.26-0.04,0.48-0.07,0.67h-9.65v-1.97h8.52l-1.27,0.38
		c0-1.09-0.27-1.92-0.82-2.51c-0.54-0.58-1.29-0.88-2.23-0.88c-0.69,0-1.29,0.16-1.8,0.48c-0.51,0.32-0.9,0.8-1.18,1.43
		c-0.27,0.63-0.41,1.4-0.41,2.32c0,0.9,0.14,1.66,0.43,2.28s0.7,1.1,1.22,1.42c0.53,0.32,1.15,0.48,1.87,0.48
		c0.8,0,1.45-0.15,1.94-0.46c0.5-0.3,0.89-0.73,1.18-1.27l2.04,0.96c-0.29,0.58-0.68,1.08-1.16,1.5c-0.49,0.42-1.07,0.75-1.74,0.97
		C593.39,916.01,592.65,916.12,591.85,916.12z"/>
</g>
<g>
	<path class="st4" d="M857.69,934.52c0-0.8-0.22-1.42-0.66-1.86c-0.44-0.44-1.04-0.66-1.81-0.66c-0.72,0-1.34,0.17-1.85,0.5
		s-0.89,0.88-1.13,1.63l-2.16-0.91c0.3-0.98,0.9-1.76,1.79-2.35c0.89-0.59,2.04-0.89,3.44-0.89c0.96,0,1.81,0.16,2.54,0.47
		c0.74,0.31,1.32,0.78,1.74,1.4s0.64,1.42,0.64,2.4v5.35c0,0.59,0.3,0.89,0.89,0.89c0.29,0,0.57-0.04,0.84-0.12l-0.14,1.78
		c-0.37,0.18-0.83,0.26-1.39,0.26c-0.51,0-0.97-0.09-1.38-0.28c-0.41-0.18-0.73-0.46-0.96-0.84c-0.23-0.38-0.35-0.84-0.35-1.4v-0.17
		l0.53-0.02c-0.14,0.62-0.44,1.14-0.89,1.55c-0.45,0.41-0.97,0.71-1.56,0.91c-0.59,0.2-1.19,0.3-1.8,0.3
		c-0.75,0-1.43-0.12-2.03-0.36c-0.6-0.24-1.07-0.6-1.42-1.09c-0.34-0.49-0.52-1.09-0.52-1.81c0-0.9,0.29-1.63,0.88-2.21
		s1.41-0.97,2.48-1.18l4.66-0.91l-0.02,1.8l-3.38,0.7c-0.67,0.13-1.18,0.31-1.51,0.55c-0.34,0.24-0.5,0.59-0.5,1.06
		c0,0.45,0.17,0.8,0.52,1.07c0.34,0.26,0.8,0.4,1.38,0.4c0.4,0,0.79-0.05,1.16-0.14c0.38-0.1,0.72-0.25,1.02-0.47
		c0.3-0.22,0.54-0.5,0.71-0.84c0.17-0.34,0.25-0.76,0.25-1.24V934.52z"/>
</g>
<g>
	<path class="st4" d="M1418.45,388.64c-1.2,0-2.26-0.25-3.17-0.74s-1.62-1.21-2.12-2.15c-0.5-0.94-0.76-2.05-0.76-3.35
		s0.25-2.41,0.76-3.35c0.5-0.94,1.2-1.65,2.1-2.15c0.9-0.5,1.91-0.74,3.05-0.74c1.17,0,2.16,0.24,2.98,0.72
		c0.82,0.48,1.44,1.14,1.87,1.97c0.43,0.83,0.65,1.78,0.65,2.83c0,0.29-0.01,0.56-0.02,0.82s-0.04,0.48-0.07,0.67h-9.65v-1.97h8.52
		l-1.27,0.38c0-1.09-0.27-1.92-0.82-2.51s-1.29-0.88-2.23-0.88c-0.69,0-1.29,0.16-1.8,0.48c-0.51,0.32-0.9,0.8-1.18,1.43
		s-0.41,1.4-0.41,2.32c0,0.9,0.14,1.66,0.43,2.28s0.7,1.1,1.22,1.42c0.53,0.32,1.15,0.48,1.87,0.48c0.8,0,1.45-0.15,1.94-0.46
		c0.5-0.3,0.89-0.73,1.18-1.27l2.04,0.96c-0.29,0.58-0.68,1.08-1.16,1.5s-1.07,0.75-1.74,0.97
		C1419.99,388.52,1419.25,388.64,1418.45,388.64z"/>
</g>
<g>
	<path class="st4" d="M524.81,931.79c0-0.8-0.22-1.42-0.66-1.86c-0.44-0.44-1.04-0.66-1.81-0.66c-0.72,0-1.34,0.17-1.85,0.5
		s-0.89,0.88-1.13,1.63l-2.16-0.91c0.3-0.98,0.9-1.76,1.79-2.35c0.89-0.59,2.04-0.89,3.44-0.89c0.96,0,1.81,0.16,2.54,0.47
		c0.74,0.31,1.32,0.78,1.74,1.4s0.64,1.42,0.64,2.4v5.35c0,0.59,0.3,0.89,0.89,0.89c0.29,0,0.57-0.04,0.84-0.12l-0.14,1.78
		c-0.37,0.18-0.83,0.26-1.39,0.26c-0.51,0-0.97-0.09-1.38-0.28c-0.41-0.18-0.73-0.46-0.96-0.84c-0.23-0.38-0.35-0.84-0.35-1.4V937
		l0.53-0.02c-0.14,0.62-0.44,1.14-0.89,1.55c-0.45,0.41-0.97,0.71-1.56,0.91c-0.59,0.2-1.19,0.3-1.8,0.3
		c-0.75,0-1.43-0.12-2.03-0.36c-0.6-0.24-1.07-0.6-1.42-1.09c-0.34-0.49-0.52-1.09-0.52-1.81c0-0.9,0.29-1.63,0.88-2.21
		s1.41-0.97,2.48-1.18l4.66-0.91l-0.02,1.8l-3.38,0.7c-0.67,0.13-1.18,0.31-1.51,0.55c-0.34,0.24-0.5,0.59-0.5,1.06
		c0,0.45,0.17,0.8,0.52,1.07c0.34,0.26,0.8,0.4,1.38,0.4c0.4,0,0.79-0.05,1.16-0.14c0.38-0.1,0.72-0.25,1.02-0.47
		c0.3-0.22,0.54-0.5,0.71-0.84c0.17-0.34,0.25-0.76,0.25-1.24V931.79z"/>
</g>
<g>
	<path class="st4" d="M511.27,516.22c0-0.8-0.22-1.42-0.66-1.86c-0.44-0.44-1.04-0.66-1.81-0.66c-0.72,0-1.34,0.17-1.85,0.5
		s-0.89,0.88-1.13,1.63l-2.16-0.91c0.3-0.98,0.9-1.76,1.79-2.35c0.89-0.59,2.04-0.89,3.44-0.89c0.96,0,1.81,0.16,2.54,0.47
		c0.74,0.31,1.32,0.78,1.74,1.4s0.64,1.42,0.64,2.4v5.35c0,0.59,0.3,0.89,0.89,0.89c0.29,0,0.57-0.04,0.84-0.12l-0.14,1.78
		c-0.37,0.18-0.83,0.26-1.39,0.26c-0.51,0-0.97-0.09-1.38-0.28c-0.41-0.18-0.73-0.46-0.96-0.84c-0.23-0.38-0.35-0.84-0.35-1.4v-0.17
		l0.53-0.02c-0.14,0.62-0.44,1.14-0.89,1.55c-0.45,0.41-0.97,0.71-1.56,0.91c-0.59,0.2-1.19,0.3-1.8,0.3
		c-0.75,0-1.43-0.12-2.03-0.36c-0.6-0.24-1.07-0.6-1.42-1.09c-0.34-0.49-0.52-1.09-0.52-1.81c0-0.9,0.29-1.63,0.88-2.21
		s1.41-0.97,2.48-1.18l4.66-0.91l-0.02,1.8l-3.38,0.7c-0.67,0.13-1.18,0.31-1.51,0.55c-0.34,0.24-0.5,0.59-0.5,1.06
		c0,0.45,0.17,0.8,0.52,1.07c0.34,0.26,0.8,0.4,1.38,0.4c0.4,0,0.79-0.05,1.16-0.14c0.38-0.1,0.72-0.25,1.02-0.47
		c0.3-0.22,0.54-0.5,0.71-0.84c0.17-0.34,0.25-0.76,0.25-1.24V516.22z"/>
</g>
<g>
	<path class="st4" d="M835.1,286.1c-1.2,0-2.26-0.25-3.17-0.74s-1.62-1.21-2.12-2.15c-0.5-0.94-0.76-2.05-0.76-3.35
		s0.25-2.41,0.76-3.35c0.5-0.94,1.2-1.65,2.1-2.15c0.9-0.5,1.91-0.74,3.05-0.74c1.17,0,2.16,0.24,2.98,0.72
		c0.82,0.48,1.44,1.14,1.87,1.97s0.65,1.78,0.65,2.83c0,0.29-0.01,0.56-0.02,0.82c-0.02,0.26-0.04,0.48-0.07,0.67h-9.65v-1.97h8.52
		l-1.27,0.38c0-1.09-0.27-1.92-0.82-2.51s-1.29-0.88-2.23-0.88c-0.69,0-1.29,0.16-1.8,0.48c-0.51,0.32-0.9,0.8-1.18,1.43
		c-0.27,0.63-0.41,1.4-0.41,2.32c0,0.9,0.14,1.66,0.43,2.28s0.7,1.1,1.22,1.42s1.15,0.48,1.87,0.48c0.8,0,1.45-0.15,1.94-0.46
		c0.5-0.3,0.89-0.73,1.18-1.27l2.04,0.96c-0.29,0.58-0.68,1.08-1.16,1.5c-0.49,0.42-1.07,0.75-1.74,0.97
		C836.64,285.99,835.9,286.1,835.1,286.1z"/>
</g>
<g>
	<path class="st4" d="M765.99,254.52c0-0.8-0.22-1.42-0.66-1.86c-0.44-0.44-1.04-0.66-1.81-0.66c-0.72,0-1.34,0.17-1.85,0.5
		c-0.51,0.34-0.89,0.88-1.13,1.63l-2.16-0.91c0.3-0.98,0.9-1.76,1.79-2.35c0.89-0.59,2.04-0.89,3.44-0.89
		c0.96,0,1.81,0.16,2.54,0.47c0.74,0.31,1.32,0.78,1.74,1.4s0.64,1.42,0.64,2.4v5.35c0,0.59,0.3,0.89,0.89,0.89
		c0.29,0,0.57-0.04,0.84-0.12l-0.14,1.78c-0.37,0.18-0.83,0.26-1.39,0.26c-0.51,0-0.97-0.09-1.38-0.28
		c-0.41-0.18-0.73-0.46-0.96-0.84c-0.23-0.38-0.35-0.84-0.35-1.4v-0.17l0.53-0.02c-0.14,0.62-0.44,1.14-0.89,1.55
		c-0.45,0.41-0.97,0.71-1.56,0.91c-0.59,0.2-1.19,0.3-1.8,0.3c-0.75,0-1.43-0.12-2.03-0.36s-1.07-0.6-1.42-1.09
		c-0.34-0.49-0.52-1.09-0.52-1.81c0-0.9,0.29-1.63,0.88-2.21s1.41-0.97,2.48-1.18l4.66-0.91l-0.02,1.8l-3.38,0.7
		c-0.67,0.13-1.18,0.31-1.51,0.55s-0.5,0.59-0.5,1.06c0,0.45,0.17,0.8,0.52,1.07c0.34,0.26,0.8,0.4,1.38,0.4
		c0.4,0,0.79-0.05,1.16-0.14c0.38-0.1,0.72-0.25,1.02-0.47c0.3-0.22,0.54-0.5,0.71-0.84c0.17-0.34,0.25-0.76,0.25-1.24V254.52z"/>
</g>
<g>
	<path class="st4" d="M98.82,275.19c0-0.8-0.22-1.42-0.66-1.86c-0.44-0.44-1.04-0.66-1.81-0.66c-0.72,0-1.34,0.17-1.85,0.5
		c-0.51,0.34-0.89,0.88-1.13,1.63l-2.16-0.91c0.3-0.98,0.9-1.76,1.79-2.35c0.89-0.59,2.04-0.89,3.44-0.89
		c0.96,0,1.81,0.16,2.54,0.47c0.74,0.31,1.32,0.78,1.74,1.4s0.64,1.42,0.64,2.4v5.35c0,0.59,0.3,0.89,0.89,0.89
		c0.29,0,0.57-0.04,0.84-0.12l-0.14,1.78c-0.37,0.18-0.83,0.26-1.39,0.26c-0.51,0-0.97-0.09-1.38-0.28
		c-0.41-0.18-0.73-0.46-0.96-0.84c-0.23-0.38-0.35-0.84-0.35-1.4v-0.17l0.53-0.02c-0.14,0.62-0.44,1.14-0.89,1.55
		c-0.45,0.41-0.97,0.71-1.56,0.91c-0.59,0.2-1.19,0.3-1.8,0.3c-0.75,0-1.43-0.12-2.03-0.36s-1.07-0.6-1.42-1.09
		c-0.34-0.49-0.52-1.09-0.52-1.81c0-0.9,0.29-1.63,0.88-2.21s1.41-0.97,2.48-1.18l4.66-0.91l-0.02,1.8l-3.38,0.7
		c-0.67,0.13-1.18,0.31-1.51,0.55s-0.5,0.59-0.5,1.06c0,0.45,0.17,0.8,0.52,1.07c0.34,0.26,0.8,0.4,1.38,0.4
		c0.4,0,0.79-0.05,1.16-0.14c0.38-0.1,0.72-0.25,1.02-0.47c0.3-0.22,0.54-0.5,0.71-0.84c0.17-0.34,0.25-0.76,0.25-1.24V275.19z"/>
</g>
<g>
	<path class="st4" d="M175.72,269.86c0-0.8-0.22-1.42-0.66-1.86c-0.44-0.44-1.04-0.66-1.81-0.66c-0.72,0-1.34,0.17-1.85,0.5
		c-0.51,0.34-0.89,0.88-1.13,1.63l-2.16-0.91c0.3-0.98,0.9-1.76,1.79-2.35c0.89-0.59,2.04-0.89,3.44-0.89
		c0.96,0,1.81,0.16,2.54,0.47c0.74,0.31,1.32,0.78,1.74,1.4s0.64,1.42,0.64,2.4v5.35c0,0.59,0.3,0.89,0.89,0.89
		c0.29,0,0.57-0.04,0.84-0.12l-0.14,1.78c-0.37,0.18-0.83,0.26-1.39,0.26c-0.51,0-0.97-0.09-1.38-0.28
		c-0.41-0.18-0.73-0.46-0.96-0.84c-0.23-0.38-0.35-0.84-0.35-1.4v-0.17l0.53-0.02c-0.14,0.62-0.44,1.14-0.89,1.55
		c-0.45,0.41-0.97,0.71-1.56,0.91c-0.59,0.2-1.19,0.3-1.8,0.3c-0.75,0-1.43-0.12-2.03-0.36s-1.07-0.6-1.42-1.09
		c-0.34-0.49-0.52-1.09-0.52-1.81c0-0.9,0.29-1.63,0.88-2.21s1.41-0.97,2.48-1.18l4.66-0.91l-0.02,1.8l-3.38,0.7
		c-0.67,0.13-1.18,0.31-1.51,0.55s-0.5,0.59-0.5,1.06c0,0.45,0.17,0.8,0.52,1.07c0.34,0.26,0.8,0.4,1.38,0.4
		c0.4,0,0.79-0.05,1.16-0.14c0.38-0.1,0.72-0.25,1.02-0.47c0.3-0.22,0.54-0.5,0.71-0.84c0.17-0.34,0.25-0.76,0.25-1.24V269.86z"/>
</g>
<g>
	<path class="st4" d="M523.05,356.5c0-0.8-0.22-1.42-0.66-1.86c-0.44-0.44-1.04-0.66-1.81-0.66c-0.72,0-1.34,0.17-1.85,0.5
		c-0.51,0.34-0.89,0.88-1.13,1.63l-2.16-0.91c0.3-0.98,0.9-1.76,1.79-2.35c0.89-0.59,2.04-0.89,3.44-0.89
		c0.96,0,1.81,0.16,2.54,0.47c0.74,0.31,1.32,0.78,1.74,1.4s0.64,1.42,0.64,2.4v5.35c0,0.59,0.3,0.89,0.89,0.89
		c0.29,0,0.57-0.04,0.84-0.12l-0.14,1.78c-0.37,0.18-0.83,0.26-1.39,0.26c-0.51,0-0.97-0.09-1.38-0.28
		c-0.41-0.18-0.73-0.46-0.96-0.84c-0.23-0.38-0.35-0.84-0.35-1.4v-0.17l0.53-0.02c-0.14,0.62-0.44,1.14-0.89,1.55
		c-0.45,0.41-0.97,0.71-1.56,0.91c-0.59,0.2-1.19,0.3-1.8,0.3c-0.75,0-1.43-0.12-2.03-0.36c-0.6-0.24-1.07-0.6-1.42-1.09
		c-0.34-0.49-0.52-1.09-0.52-1.81c0-0.9,0.29-1.63,0.88-2.21s1.41-0.97,2.48-1.18l4.66-0.91l-0.02,1.8l-3.38,0.7
		c-0.67,0.13-1.18,0.31-1.51,0.55c-0.34,0.24-0.5,0.59-0.5,1.06c0,0.45,0.17,0.8,0.52,1.07s0.8,0.4,1.38,0.4
		c0.4,0,0.79-0.05,1.16-0.14c0.38-0.1,0.72-0.25,1.02-0.47c0.3-0.22,0.54-0.5,0.71-0.84c0.17-0.34,0.25-0.76,0.25-1.24V356.5z"/>
</g>
<g>
	<path class="st4" d="M580.15,436.23c-1.2,0-2.26-0.25-3.17-0.74c-0.91-0.5-1.62-1.21-2.12-2.15s-0.76-2.05-0.76-3.35
		s0.25-2.41,0.76-3.35s1.2-1.65,2.1-2.15c0.9-0.5,1.91-0.74,3.05-0.74c1.17,0,2.16,0.24,2.98,0.72s1.44,1.14,1.87,1.97
		s0.65,1.78,0.65,2.83c0,0.29-0.01,0.56-0.02,0.82c-0.02,0.26-0.04,0.48-0.07,0.67h-9.65v-1.97h8.52l-1.27,0.38
		c0-1.09-0.27-1.92-0.82-2.51c-0.54-0.58-1.29-0.88-2.23-0.88c-0.69,0-1.29,0.16-1.8,0.48c-0.51,0.32-0.9,0.8-1.18,1.43
		c-0.27,0.63-0.41,1.4-0.41,2.32c0,0.9,0.14,1.66,0.43,2.28s0.7,1.1,1.22,1.42c0.53,0.32,1.15,0.48,1.87,0.48
		c0.8,0,1.45-0.15,1.94-0.46c0.5-0.3,0.89-0.73,1.18-1.27l2.04,0.96c-0.29,0.58-0.68,1.08-1.16,1.5c-0.49,0.42-1.07,0.75-1.74,0.97
		C581.69,436.12,580.95,436.23,580.15,436.23z"/>
</g>
<g>
	<path class="st4" d="M594.71,593.54c0-0.8-0.22-1.42-0.66-1.86c-0.44-0.44-1.04-0.66-1.81-0.66c-0.72,0-1.34,0.17-1.85,0.5
		s-0.89,0.88-1.13,1.63l-2.16-0.91c0.3-0.98,0.9-1.76,1.79-2.35c0.89-0.59,2.04-0.89,3.44-0.89c0.96,0,1.81,0.16,2.54,0.47
		c0.74,0.31,1.32,0.78,1.74,1.4s0.64,1.42,0.64,2.4v5.35c0,0.59,0.3,0.89,0.89,0.89c0.29,0,0.57-0.04,0.84-0.12l-0.14,1.78
		c-0.37,0.18-0.83,0.26-1.39,0.26c-0.51,0-0.97-0.09-1.38-0.28c-0.41-0.18-0.73-0.46-0.96-0.84c-0.23-0.38-0.35-0.84-0.35-1.4v-0.17
		l0.53-0.02c-0.14,0.62-0.44,1.14-0.89,1.55c-0.45,0.41-0.97,0.71-1.56,0.91c-0.59,0.2-1.19,0.3-1.8,0.3
		c-0.75,0-1.43-0.12-2.03-0.36c-0.6-0.24-1.07-0.6-1.42-1.09c-0.34-0.49-0.52-1.09-0.52-1.81c0-0.9,0.29-1.63,0.88-2.21
		s1.41-0.97,2.48-1.18l4.66-0.91l-0.02,1.8l-3.38,0.7c-0.67,0.13-1.18,0.31-1.51,0.55c-0.34,0.24-0.5,0.59-0.5,1.06
		c0,0.45,0.17,0.8,0.52,1.07c0.34,0.26,0.8,0.4,1.38,0.4c0.4,0,0.79-0.05,1.16-0.14c0.38-0.1,0.72-0.25,1.02-0.47
		c0.3-0.22,0.54-0.5,0.71-0.84c0.17-0.34,0.25-0.76,0.25-1.24V593.54z"/>
</g>
<g>
	<path class="st4" d="M407.05,238.68c-1.2,0-2.26-0.25-3.17-0.74s-1.62-1.21-2.12-2.15c-0.5-0.94-0.76-2.05-0.76-3.35
		s0.25-2.41,0.76-3.35c0.5-0.94,1.2-1.65,2.1-2.15c0.9-0.5,1.91-0.74,3.05-0.74c1.17,0,2.16,0.24,2.98,0.72
		c0.82,0.48,1.44,1.14,1.87,1.97s0.65,1.78,0.65,2.83c0,0.29-0.01,0.56-0.02,0.82c-0.02,0.26-0.04,0.48-0.07,0.67h-9.65v-1.97h8.52
		l-1.27,0.38c0-1.09-0.27-1.92-0.82-2.51s-1.29-0.88-2.23-0.88c-0.69,0-1.29,0.16-1.8,0.48c-0.51,0.32-0.9,0.8-1.18,1.43
		c-0.27,0.63-0.41,1.4-0.41,2.32c0,0.9,0.14,1.66,0.43,2.28s0.7,1.1,1.22,1.42s1.15,0.48,1.87,0.48c0.8,0,1.45-0.15,1.94-0.46
		c0.5-0.3,0.89-0.73,1.18-1.27l2.04,0.96c-0.29,0.58-0.68,1.08-1.16,1.5c-0.49,0.42-1.07,0.75-1.74,0.97
		C408.58,238.57,407.85,238.68,407.05,238.68z"/>
</g>
<g>
	<path class="st4" d="M128.08,333.53c0-0.8-0.22-1.42-0.66-1.86c-0.44-0.44-1.04-0.66-1.81-0.66c-0.72,0-1.34,0.17-1.85,0.5
		c-0.51,0.34-0.89,0.88-1.13,1.63l-2.16-0.91c0.3-0.98,0.9-1.76,1.79-2.35c0.89-0.59,2.04-0.89,3.44-0.89
		c0.96,0,1.81,0.16,2.54,0.47c0.74,0.31,1.32,0.78,1.74,1.4s0.64,1.42,0.64,2.4v5.35c0,0.59,0.3,0.89,0.89,0.89
		c0.29,0,0.57-0.04,0.84-0.12l-0.14,1.78c-0.37,0.18-0.83,0.26-1.39,0.26c-0.51,0-0.97-0.09-1.38-0.28
		c-0.41-0.18-0.73-0.46-0.96-0.84c-0.23-0.38-0.35-0.84-0.35-1.4v-0.17l0.53-0.02c-0.14,0.62-0.44,1.14-0.89,1.55
		c-0.45,0.41-0.97,0.71-1.56,0.91c-0.59,0.2-1.19,0.3-1.8,0.3c-0.75,0-1.43-0.12-2.03-0.36c-0.6-0.24-1.07-0.6-1.42-1.09
		c-0.34-0.49-0.52-1.09-0.52-1.81c0-0.9,0.29-1.63,0.88-2.21s1.41-0.97,2.48-1.18l4.66-0.91l-0.02,1.8l-3.38,0.7
		c-0.67,0.13-1.18,0.31-1.51,0.55c-0.34,0.24-0.5,0.59-0.5,1.06c0,0.45,0.17,0.8,0.52,1.07s0.8,0.4,1.38,0.4
		c0.4,0,0.79-0.05,1.16-0.14c0.38-0.1,0.72-0.25,1.02-0.47c0.3-0.22,0.54-0.5,0.71-0.84c0.17-0.34,0.25-0.76,0.25-1.24V333.53z"/>
</g>
<g>
	<path class="st4" d="M54.02,329.52c-1.2,0-2.26-0.25-3.17-0.74s-1.62-1.21-2.12-2.15c-0.5-0.94-0.76-2.05-0.76-3.35
		s0.25-2.41,0.76-3.35c0.5-0.94,1.2-1.65,2.1-2.15c0.9-0.5,1.91-0.74,3.05-0.74c1.17,0,2.16,0.24,2.98,0.72
		c0.82,0.48,1.44,1.14,1.87,1.97s0.65,1.78,0.65,2.83c0,0.29-0.01,0.56-0.02,0.82c-0.02,0.26-0.04,0.48-0.07,0.67h-9.65v-1.97h8.52
		l-1.27,0.38c0-1.09-0.27-1.92-0.82-2.51s-1.29-0.88-2.23-0.88c-0.69,0-1.29,0.16-1.8,0.48c-0.51,0.32-0.9,0.8-1.18,1.43
		c-0.27,0.63-0.41,1.4-0.41,2.32c0,0.9,0.14,1.66,0.43,2.28s0.7,1.1,1.22,1.42s1.15,0.48,1.87,0.48c0.8,0,1.45-0.15,1.94-0.46
		c0.5-0.3,0.89-0.73,1.18-1.27l2.04,0.96c-0.29,0.58-0.68,1.08-1.16,1.5c-0.49,0.42-1.07,0.75-1.74,0.97
		C55.55,329.41,54.82,329.52,54.02,329.52z"/>
</g>
<g>
	<path class="st4" d="M320.24,507.43c0-0.8-0.22-1.42-0.66-1.86c-0.44-0.44-1.04-0.66-1.81-0.66c-0.72,0-1.34,0.17-1.85,0.5
		s-0.89,0.88-1.13,1.63l-2.16-0.91c0.3-0.98,0.9-1.76,1.79-2.35c0.89-0.59,2.04-0.89,3.44-0.89c0.96,0,1.81,0.16,2.54,0.47
		c0.74,0.31,1.32,0.78,1.74,1.4s0.64,1.42,0.64,2.4v5.35c0,0.59,0.3,0.89,0.89,0.89c0.29,0,0.57-0.04,0.84-0.12l-0.14,1.78
		c-0.37,0.18-0.83,0.26-1.39,0.26c-0.51,0-0.97-0.09-1.38-0.28c-0.41-0.18-0.73-0.46-0.96-0.84c-0.23-0.38-0.35-0.84-0.35-1.4v-0.17
		l0.53-0.02c-0.14,0.62-0.44,1.14-0.89,1.55c-0.45,0.41-0.97,0.71-1.56,0.91c-0.59,0.2-1.19,0.3-1.8,0.3
		c-0.75,0-1.43-0.12-2.03-0.36c-0.6-0.24-1.07-0.6-1.42-1.09c-0.34-0.49-0.52-1.09-0.52-1.81c0-0.9,0.29-1.63,0.88-2.21
		s1.41-0.97,2.48-1.18l4.66-0.91l-0.02,1.8l-3.38,0.7c-0.67,0.13-1.18,0.31-1.51,0.55c-0.34,0.24-0.5,0.59-0.5,1.06
		c0,0.45,0.17,0.8,0.52,1.07c0.34,0.26,0.8,0.4,1.38,0.4c0.4,0,0.79-0.05,1.16-0.14c0.38-0.1,0.72-0.25,1.02-0.47
		c0.3-0.22,0.54-0.5,0.71-0.84c0.17-0.34,0.25-0.76,0.25-1.24V507.43z"/>
</g>
<g>
	<path class="st4" d="M663.7,876.23c0-0.8-0.22-1.42-0.66-1.86c-0.44-0.44-1.04-0.66-1.81-0.66c-0.72,0-1.34,0.17-1.85,0.5
		c-0.51,0.34-0.89,0.88-1.13,1.63l-2.16-0.91c0.3-0.98,0.9-1.76,1.79-2.35c0.89-0.59,2.04-0.89,3.44-0.89
		c0.96,0,1.81,0.16,2.54,0.47c0.74,0.31,1.32,0.78,1.74,1.4s0.64,1.42,0.64,2.4v5.35c0,0.59,0.3,0.89,0.89,0.89
		c0.29,0,0.57-0.04,0.84-0.12l-0.14,1.78c-0.37,0.18-0.83,0.26-1.39,0.26c-0.51,0-0.97-0.09-1.38-0.28
		c-0.41-0.18-0.73-0.46-0.96-0.84c-0.23-0.38-0.35-0.84-0.35-1.4v-0.17l0.53-0.02c-0.14,0.62-0.44,1.14-0.89,1.55
		c-0.45,0.41-0.97,0.71-1.56,0.91c-0.59,0.2-1.19,0.3-1.8,0.3c-0.75,0-1.43-0.12-2.03-0.36c-0.6-0.24-1.07-0.6-1.42-1.09
		c-0.34-0.49-0.52-1.09-0.52-1.81c0-0.9,0.29-1.63,0.88-2.21s1.41-0.97,2.48-1.18l4.66-0.91l-0.02,1.8l-3.38,0.7
		c-0.67,0.13-1.18,0.31-1.51,0.55c-0.34,0.24-0.5,0.59-0.5,1.06c0,0.45,0.17,0.8,0.52,1.07s0.8,0.4,1.38,0.4
		c0.4,0,0.79-0.05,1.16-0.14c0.38-0.1,0.72-0.25,1.02-0.47c0.3-0.22,0.54-0.5,0.71-0.84c0.17-0.34,0.25-0.76,0.25-1.24V876.23z"/>
</g>
<g>
	<path class="st4" d="M635.8,801.97c0-0.8-0.22-1.42-0.66-1.86c-0.44-0.44-1.04-0.66-1.81-0.66c-0.72,0-1.34,0.17-1.85,0.5
		c-0.51,0.34-0.89,0.88-1.13,1.63l-2.16-0.91c0.3-0.98,0.9-1.76,1.79-2.35c0.89-0.59,2.04-0.89,3.44-0.89
		c0.96,0,1.81,0.16,2.54,0.47c0.74,0.31,1.32,0.78,1.74,1.4s0.64,1.42,0.64,2.4v5.35c0,0.59,0.3,0.89,0.89,0.89
		c0.29,0,0.57-0.04,0.84-0.12l-0.14,1.78c-0.37,0.18-0.83,0.26-1.39,0.26c-0.51,0-0.97-0.09-1.38-0.28
		c-0.41-0.18-0.73-0.46-0.96-0.84c-0.23-0.38-0.35-0.84-0.35-1.4v-0.17l0.53-0.02c-0.14,0.62-0.44,1.14-0.89,1.55
		c-0.45,0.41-0.97,0.71-1.56,0.91c-0.59,0.2-1.19,0.3-1.8,0.3c-0.75,0-1.43-0.12-2.03-0.36c-0.6-0.24-1.07-0.6-1.42-1.09
		c-0.34-0.49-0.52-1.09-0.52-1.81c0-0.9,0.29-1.63,0.88-2.21s1.41-0.97,2.48-1.18l4.66-0.91l-0.02,1.8l-3.38,0.7
		c-0.67,0.13-1.18,0.31-1.51,0.55c-0.34,0.24-0.5,0.59-0.5,1.06c0,0.45,0.17,0.8,0.52,1.07s0.8,0.4,1.38,0.4
		c0.4,0,0.79-0.05,1.16-0.14c0.38-0.1,0.72-0.25,1.02-0.47c0.3-0.22,0.54-0.5,0.71-0.84c0.17-0.34,0.25-0.76,0.25-1.24V801.97z"/>
</g>
<g>
	<path class="st4" d="M700.52,790.77c-1.2,0-2.26-0.25-3.17-0.74c-0.91-0.5-1.62-1.21-2.12-2.15s-0.76-2.05-0.76-3.35
		s0.25-2.41,0.76-3.35s1.2-1.65,2.1-2.15c0.9-0.5,1.91-0.74,3.05-0.74c1.17,0,2.16,0.24,2.98,0.72s1.44,1.14,1.87,1.97
		s0.65,1.78,0.65,2.83c0,0.29-0.01,0.56-0.02,0.82c-0.02,0.26-0.04,0.48-0.07,0.67h-9.65v-1.97h8.52l-1.27,0.38
		c0-1.09-0.27-1.92-0.82-2.51c-0.54-0.58-1.29-0.88-2.23-0.88c-0.69,0-1.29,0.16-1.8,0.48c-0.51,0.32-0.9,0.8-1.18,1.43
		c-0.27,0.63-0.41,1.4-0.41,2.32c0,0.9,0.14,1.66,0.43,2.28s0.7,1.1,1.22,1.42c0.53,0.32,1.15,0.48,1.87,0.48
		c0.8,0,1.45-0.15,1.94-0.46c0.5-0.3,0.89-0.73,1.18-1.27l2.04,0.96c-0.29,0.58-0.68,1.08-1.16,1.5c-0.49,0.42-1.07,0.75-1.74,0.97
		C702.06,790.66,701.32,790.77,700.52,790.77z"/>
</g>
<g>
	<path class="st4" d="M891.37,765.12c-1.2,0-2.26-0.25-3.17-0.74c-0.91-0.5-1.62-1.21-2.12-2.15s-0.76-2.05-0.76-3.35
		s0.25-2.41,0.76-3.35s1.2-1.65,2.1-2.15c0.9-0.5,1.91-0.74,3.05-0.74c1.17,0,2.16,0.24,2.98,0.72s1.44,1.14,1.87,1.97
		s0.65,1.78,0.65,2.83c0,0.29-0.01,0.56-0.02,0.82c-0.02,0.26-0.04,0.48-0.07,0.67h-9.65v-1.97h8.52l-1.27,0.38
		c0-1.09-0.27-1.92-0.82-2.51c-0.54-0.58-1.29-0.88-2.23-0.88c-0.69,0-1.29,0.16-1.8,0.48c-0.51,0.32-0.9,0.8-1.18,1.43
		c-0.27,0.63-0.41,1.4-0.41,2.32c0,0.9,0.14,1.66,0.43,2.28s0.7,1.1,1.22,1.42c0.53,0.32,1.15,0.48,1.87,0.48
		c0.8,0,1.45-0.15,1.94-0.46c0.5-0.3,0.89-0.73,1.18-1.27l2.04,0.96c-0.29,0.58-0.68,1.08-1.16,1.5c-0.49,0.42-1.07,0.75-1.74,0.97
		C892.9,765.01,892.17,765.12,891.37,765.12z"/>
</g>
<g>
	<path class="st4" d="M829.81,966.13c-1.2,0-2.26-0.25-3.17-0.74c-0.91-0.5-1.62-1.21-2.12-2.15c-0.5-0.94-0.76-2.05-0.76-3.35
		s0.25-2.41,0.76-3.35c0.5-0.94,1.2-1.65,2.1-2.15c0.9-0.5,1.91-0.74,3.05-0.74c1.17,0,2.16,0.24,2.98,0.72
		c0.82,0.48,1.44,1.14,1.87,1.97s0.65,1.78,0.65,2.83c0,0.29-0.01,0.56-0.02,0.82c-0.02,0.26-0.04,0.48-0.07,0.67h-9.65v-1.97h8.52
		l-1.27,0.38c0-1.09-0.27-1.92-0.82-2.51c-0.54-0.58-1.29-0.88-2.23-0.88c-0.69,0-1.29,0.16-1.8,0.48s-0.9,0.8-1.18,1.43
		c-0.27,0.63-0.41,1.4-0.41,2.32c0,0.9,0.14,1.66,0.43,2.28s0.7,1.1,1.22,1.42c0.53,0.32,1.15,0.48,1.87,0.48
		c0.8,0,1.45-0.15,1.94-0.46c0.5-0.3,0.89-0.73,1.18-1.27l2.04,0.96c-0.29,0.58-0.68,1.08-1.16,1.5c-0.49,0.42-1.07,0.75-1.74,0.97
		S830.61,966.13,829.81,966.13z"/>
</g>
<g>
	<path class="st4" d="M938.59,829.73c0-0.8-0.22-1.42-0.66-1.86c-0.44-0.44-1.04-0.66-1.81-0.66c-0.72,0-1.34,0.17-1.85,0.5
		c-0.51,0.34-0.89,0.88-1.13,1.63l-2.16-0.91c0.3-0.98,0.9-1.76,1.79-2.35c0.89-0.59,2.04-0.89,3.44-0.89
		c0.96,0,1.81,0.16,2.54,0.47c0.74,0.31,1.32,0.78,1.74,1.4s0.64,1.42,0.64,2.4v5.35c0,0.59,0.3,0.89,0.89,0.89
		c0.29,0,0.57-0.04,0.84-0.12l-0.14,1.78c-0.37,0.18-0.83,0.26-1.39,0.26c-0.51,0-0.97-0.09-1.38-0.28
		c-0.41-0.18-0.73-0.46-0.96-0.84c-0.23-0.38-0.35-0.84-0.35-1.4v-0.17l0.53-0.02c-0.14,0.62-0.44,1.14-0.89,1.55
		c-0.45,0.41-0.97,0.71-1.56,0.91c-0.59,0.2-1.19,0.3-1.8,0.3c-0.75,0-1.43-0.12-2.03-0.36c-0.6-0.24-1.07-0.6-1.42-1.09
		c-0.34-0.49-0.52-1.09-0.52-1.81c0-0.9,0.29-1.63,0.88-2.21s1.41-0.97,2.48-1.18l4.66-0.91l-0.02,1.8l-3.38,0.7
		c-0.67,0.13-1.18,0.31-1.51,0.55c-0.34,0.24-0.5,0.59-0.5,1.06c0,0.45,0.17,0.8,0.52,1.07s0.8,0.4,1.38,0.4
		c0.4,0,0.79-0.05,1.16-0.14c0.38-0.1,0.72-0.25,1.02-0.47c0.3-0.22,0.54-0.5,0.71-0.84c0.17-0.34,0.25-0.76,0.25-1.24V829.73z"/>
</g>
<g>
	<path class="st4" d="M887.91,689.29c0-0.8-0.22-1.42-0.66-1.86c-0.44-0.44-1.04-0.66-1.81-0.66c-0.72,0-1.34,0.17-1.85,0.5
		c-0.51,0.34-0.89,0.88-1.13,1.63l-2.16-0.91c0.3-0.98,0.9-1.76,1.79-2.35c0.89-0.59,2.04-0.89,3.44-0.89
		c0.96,0,1.81,0.16,2.54,0.47c0.74,0.31,1.32,0.78,1.74,1.4s0.64,1.42,0.64,2.4v5.35c0,0.59,0.3,0.89,0.89,0.89
		c0.29,0,0.57-0.04,0.84-0.12l-0.14,1.78c-0.37,0.18-0.83,0.26-1.39,0.26c-0.51,0-0.97-0.09-1.38-0.28
		c-0.41-0.18-0.73-0.46-0.96-0.84c-0.23-0.38-0.35-0.84-0.35-1.4v-0.17l0.53-0.02c-0.14,0.62-0.44,1.14-0.89,1.55
		c-0.45,0.41-0.97,0.71-1.56,0.91c-0.59,0.2-1.19,0.3-1.8,0.3c-0.75,0-1.43-0.12-2.03-0.36c-0.6-0.24-1.07-0.6-1.42-1.09
		c-0.34-0.49-0.52-1.09-0.52-1.81c0-0.9,0.29-1.63,0.88-2.21s1.41-0.97,2.48-1.18l4.66-0.91l-0.02,1.8l-3.38,0.7
		c-0.67,0.13-1.18,0.31-1.51,0.55c-0.34,0.24-0.5,0.59-0.5,1.06c0,0.45,0.17,0.8,0.52,1.07s0.8,0.4,1.38,0.4
		c0.4,0,0.79-0.05,1.16-0.14c0.38-0.1,0.72-0.25,1.02-0.47c0.3-0.22,0.54-0.5,0.71-0.84c0.17-0.34,0.25-0.76,0.25-1.24V689.29z"/>
</g>
<g>
	<path class="st4" d="M876.07,594.32c-1.2,0-2.26-0.25-3.17-0.74c-0.91-0.5-1.62-1.21-2.12-2.15c-0.5-0.94-0.76-2.05-0.76-3.35
		s0.25-2.41,0.76-3.35c0.5-0.94,1.2-1.65,2.1-2.15c0.9-0.5,1.91-0.74,3.05-0.74c1.17,0,2.16,0.24,2.98,0.72
		c0.82,0.48,1.44,1.14,1.87,1.97s0.65,1.78,0.65,2.83c0,0.29-0.01,0.56-0.02,0.82c-0.02,0.26-0.04,0.48-0.07,0.67h-9.65v-1.97h8.52
		l-1.27,0.38c0-1.09-0.27-1.92-0.82-2.51c-0.54-0.58-1.29-0.88-2.23-0.88c-0.69,0-1.29,0.16-1.8,0.48s-0.9,0.8-1.18,1.43
		c-0.27,0.63-0.41,1.4-0.41,2.32c0,0.9,0.14,1.66,0.43,2.28s0.7,1.1,1.22,1.42c0.53,0.32,1.15,0.48,1.87,0.48
		c0.8,0,1.45-0.15,1.94-0.46c0.5-0.3,0.89-0.73,1.18-1.27l2.04,0.96c-0.29,0.58-0.68,1.08-1.16,1.5c-0.49,0.42-1.07,0.75-1.74,0.97
		S876.87,594.32,876.07,594.32z"/>
</g>
<g>
	<path class="st4" d="M1028.97,587.8c0-0.8-0.22-1.42-0.66-1.86c-0.44-0.44-1.04-0.66-1.81-0.66c-0.72,0-1.34,0.17-1.85,0.5
		c-0.51,0.34-0.89,0.88-1.13,1.63l-2.16-0.91c0.3-0.98,0.9-1.76,1.79-2.35s2.04-0.89,3.44-0.89c0.96,0,1.81,0.16,2.54,0.47
		c0.74,0.31,1.32,0.78,1.74,1.4s0.64,1.42,0.64,2.4v5.35c0,0.59,0.3,0.89,0.89,0.89c0.29,0,0.57-0.04,0.84-0.12l-0.14,1.78
		c-0.37,0.18-0.83,0.26-1.39,0.26c-0.51,0-0.97-0.09-1.38-0.28s-0.73-0.46-0.96-0.84c-0.23-0.38-0.35-0.84-0.35-1.4v-0.17l0.53-0.02
		c-0.14,0.62-0.44,1.14-0.89,1.55s-0.97,0.71-1.56,0.91c-0.59,0.2-1.19,0.3-1.8,0.3c-0.75,0-1.43-0.12-2.03-0.36
		c-0.6-0.24-1.07-0.6-1.42-1.09c-0.34-0.49-0.52-1.09-0.52-1.81c0-0.9,0.29-1.63,0.88-2.21s1.41-0.97,2.48-1.18l4.66-0.91l-0.02,1.8
		l-3.38,0.7c-0.67,0.13-1.18,0.31-1.51,0.55c-0.34,0.24-0.5,0.59-0.5,1.06c0,0.45,0.17,0.8,0.52,1.07c0.34,0.26,0.8,0.4,1.38,0.4
		c0.4,0,0.79-0.05,1.16-0.14c0.38-0.1,0.72-0.25,1.02-0.47c0.3-0.22,0.54-0.5,0.71-0.84c0.17-0.34,0.25-0.76,0.25-1.24V587.8z"/>
</g>
<g>
	<path class="st4" d="M1110.68,585.12c-1.2,0-2.26-0.25-3.17-0.74c-0.91-0.5-1.62-1.21-2.12-2.15c-0.5-0.94-0.76-2.05-0.76-3.35
		s0.25-2.41,0.76-3.35c0.5-0.94,1.2-1.65,2.1-2.15c0.9-0.5,1.91-0.74,3.05-0.74c1.17,0,2.16,0.24,2.98,0.72
		c0.82,0.48,1.44,1.14,1.87,1.97c0.43,0.83,0.65,1.78,0.65,2.83c0,0.29-0.01,0.56-0.02,0.82c-0.02,0.26-0.04,0.48-0.07,0.67h-9.65
		v-1.97h8.52l-1.27,0.38c0-1.09-0.27-1.92-0.82-2.51c-0.54-0.58-1.29-0.88-2.23-0.88c-0.69,0-1.29,0.16-1.8,0.48
		c-0.51,0.32-0.9,0.8-1.18,1.43c-0.27,0.63-0.41,1.4-0.41,2.32c0,0.9,0.14,1.66,0.43,2.28s0.7,1.1,1.22,1.42
		c0.53,0.32,1.15,0.48,1.87,0.48c0.8,0,1.45-0.15,1.94-0.46c0.5-0.3,0.89-0.73,1.18-1.27l2.04,0.96c-0.29,0.58-0.68,1.08-1.16,1.5
		c-0.49,0.42-1.07,0.75-1.74,0.97S1111.48,585.12,1110.68,585.12z"/>
</g>
<g>
	<path class="st4" d="M223.01,466.59c0-0.8-0.22-1.42-0.66-1.86c-0.44-0.44-1.04-0.66-1.81-0.66c-0.72,0-1.34,0.17-1.85,0.5
		c-0.51,0.34-0.89,0.88-1.13,1.63l-2.16-0.91c0.3-0.98,0.9-1.76,1.79-2.35c0.89-0.59,2.04-0.89,3.44-0.89
		c0.96,0,1.81,0.16,2.54,0.47c0.74,0.31,1.32,0.78,1.74,1.4s0.64,1.42,0.64,2.4v5.35c0,0.59,0.3,0.89,0.89,0.89
		c0.29,0,0.57-0.04,0.84-0.12l-0.14,1.78c-0.37,0.18-0.83,0.26-1.39,0.26c-0.51,0-0.97-0.09-1.38-0.28s-0.73-0.46-0.96-0.84
		c-0.23-0.38-0.35-0.84-0.35-1.4v-0.17l0.53-0.02c-0.14,0.62-0.44,1.14-0.89,1.55c-0.45,0.41-0.97,0.71-1.56,0.91
		c-0.59,0.2-1.19,0.3-1.8,0.3c-0.75,0-1.43-0.12-2.03-0.36c-0.6-0.24-1.07-0.6-1.42-1.09c-0.34-0.49-0.52-1.09-0.52-1.81
		c0-0.9,0.29-1.63,0.88-2.21s1.41-0.97,2.48-1.18l4.66-0.91l-0.02,1.8l-3.38,0.7c-0.67,0.13-1.18,0.31-1.51,0.55s-0.5,0.59-0.5,1.06
		c0,0.45,0.17,0.8,0.52,1.07c0.34,0.26,0.8,0.4,1.38,0.4c0.4,0,0.79-0.05,1.16-0.14c0.38-0.1,0.72-0.25,1.02-0.47
		c0.3-0.22,0.54-0.5,0.71-0.84c0.17-0.34,0.25-0.76,0.25-1.24V466.59z"/>
</g>
<g>
	<path class="st4" d="M1502.39,312.35c-1.2,0-2.26-0.25-3.17-0.74c-0.91-0.5-1.62-1.21-2.12-2.15s-0.76-2.05-0.76-3.35
		s0.25-2.41,0.76-3.35s1.2-1.65,2.1-2.15c0.9-0.5,1.91-0.74,3.05-0.74c1.17,0,2.16,0.24,2.98,0.72c0.82,0.48,1.44,1.14,1.87,1.97
		c0.43,0.83,0.65,1.78,0.65,2.83c0,0.29-0.01,0.56-0.02,0.82s-0.04,0.48-0.07,0.67H1498v-1.97h8.52l-1.27,0.38
		c0-1.09-0.27-1.92-0.82-2.51c-0.54-0.58-1.29-0.88-2.23-0.88c-0.69,0-1.29,0.16-1.8,0.48c-0.51,0.32-0.9,0.8-1.18,1.43
		c-0.27,0.63-0.41,1.4-0.41,2.32c0,0.9,0.14,1.66,0.43,2.28s0.7,1.1,1.22,1.42c0.53,0.32,1.15,0.48,1.87,0.48
		c0.8,0,1.45-0.15,1.94-0.46c0.5-0.3,0.89-0.73,1.18-1.27l2.04,0.96c-0.29,0.58-0.68,1.08-1.16,1.5s-1.07,0.75-1.74,0.97
		C1503.93,312.24,1503.19,312.35,1502.39,312.35z"/>
</g>
<g>
	<path class="st4" d="M260.51,396.88c-1.2,0-2.26-0.25-3.17-0.74c-0.91-0.5-1.62-1.21-2.12-2.15s-0.76-2.05-0.76-3.35
		s0.25-2.41,0.76-3.35s1.2-1.65,2.1-2.15c0.9-0.5,1.91-0.74,3.05-0.74c1.17,0,2.16,0.24,2.98,0.72s1.44,1.14,1.87,1.97
		s0.65,1.78,0.65,2.83c0,0.29-0.01,0.56-0.02,0.82c-0.02,0.26-0.04,0.48-0.07,0.67h-9.65v-1.97h8.52l-1.27,0.38
		c0-1.09-0.27-1.92-0.82-2.51c-0.54-0.58-1.29-0.88-2.23-0.88c-0.69,0-1.29,0.16-1.8,0.48c-0.51,0.32-0.9,0.8-1.18,1.43
		c-0.27,0.63-0.41,1.4-0.41,2.32c0,0.9,0.14,1.66,0.43,2.28s0.7,1.1,1.22,1.42c0.53,0.32,1.15,0.48,1.87,0.48
		c0.8,0,1.45-0.15,1.94-0.46c0.5-0.3,0.89-0.73,1.18-1.27l2.04,0.96c-0.29,0.58-0.68,1.08-1.16,1.5c-0.49,0.42-1.07,0.75-1.74,0.97
		C262.05,396.77,261.31,396.88,260.51,396.88z"/>
</g>
<g>
	<path class="st4" d="M769.94,531.22c-1.2,0-2.26-0.25-3.17-0.74c-0.91-0.5-1.62-1.21-2.12-2.15c-0.5-0.94-0.76-2.05-0.76-3.35
		s0.25-2.41,0.76-3.35c0.5-0.94,1.2-1.65,2.1-2.15c0.9-0.5,1.91-0.74,3.05-0.74c1.17,0,2.16,0.24,2.98,0.72
		c0.82,0.48,1.44,1.14,1.87,1.97s0.65,1.78,0.65,2.83c0,0.29-0.01,0.56-0.02,0.82c-0.02,0.26-0.04,0.48-0.07,0.67h-9.65v-1.97h8.52
		l-1.27,0.38c0-1.09-0.27-1.92-0.82-2.51c-0.54-0.58-1.29-0.88-2.23-0.88c-0.69,0-1.29,0.16-1.8,0.48s-0.9,0.8-1.18,1.43
		c-0.27,0.63-0.41,1.4-0.41,2.32c0,0.9,0.14,1.66,0.43,2.28s0.7,1.1,1.22,1.42c0.53,0.32,1.15,0.48,1.87,0.48
		c0.8,0,1.45-0.15,1.94-0.46c0.5-0.3,0.89-0.73,1.18-1.27l2.04,0.96c-0.29,0.58-0.68,1.08-1.16,1.5c-0.49,0.42-1.07,0.75-1.74,0.97
		S770.74,531.22,769.94,531.22z"/>
</g>
<g>
	<path class="st4" d="M768.67,448.85c0-0.8-0.22-1.42-0.66-1.86c-0.44-0.44-1.04-0.66-1.81-0.66c-0.72,0-1.34,0.17-1.85,0.5
		s-0.89,0.88-1.13,1.63l-2.16-0.91c0.3-0.98,0.9-1.76,1.79-2.35c0.89-0.59,2.04-0.89,3.44-0.89c0.96,0,1.81,0.16,2.54,0.47
		c0.74,0.31,1.32,0.78,1.74,1.4s0.64,1.42,0.64,2.4v5.35c0,0.59,0.3,0.89,0.89,0.89c0.29,0,0.57-0.04,0.84-0.12l-0.14,1.78
		c-0.37,0.18-0.83,0.26-1.39,0.26c-0.51,0-0.97-0.09-1.38-0.28c-0.41-0.18-0.73-0.46-0.96-0.84c-0.23-0.38-0.35-0.84-0.35-1.4v-0.17
		l0.53-0.02c-0.14,0.62-0.44,1.14-0.89,1.55c-0.45,0.41-0.97,0.71-1.56,0.91c-0.59,0.2-1.19,0.3-1.8,0.3
		c-0.75,0-1.43-0.12-2.03-0.36c-0.6-0.24-1.07-0.6-1.42-1.09c-0.34-0.49-0.52-1.09-0.52-1.81c0-0.9,0.29-1.63,0.88-2.21
		s1.41-0.97,2.48-1.18l4.66-0.91l-0.02,1.8l-3.38,0.7c-0.67,0.13-1.18,0.31-1.51,0.55c-0.34,0.24-0.5,0.59-0.5,1.06
		c0,0.45,0.17,0.8,0.52,1.07c0.34,0.26,0.8,0.4,1.38,0.4c0.4,0,0.79-0.05,1.16-0.14c0.38-0.1,0.72-0.25,1.02-0.47
		c0.3-0.22,0.54-0.5,0.71-0.84c0.17-0.34,0.25-0.76,0.25-1.24V448.85z"/>
</g>
<g>
	<path class="st4" d="M682.87,410.74c0-0.8-0.22-1.42-0.66-1.86c-0.44-0.44-1.04-0.66-1.81-0.66c-0.72,0-1.34,0.17-1.85,0.5
		c-0.51,0.34-0.89,0.88-1.13,1.63l-2.16-0.91c0.3-0.98,0.9-1.76,1.79-2.35c0.89-0.59,2.04-0.89,3.44-0.89
		c0.96,0,1.81,0.16,2.54,0.47c0.74,0.31,1.32,0.78,1.74,1.4s0.64,1.42,0.64,2.4v5.35c0,0.59,0.3,0.89,0.89,0.89
		c0.29,0,0.57-0.04,0.84-0.12l-0.14,1.78c-0.37,0.18-0.83,0.26-1.39,0.26c-0.51,0-0.97-0.09-1.38-0.28
		c-0.41-0.18-0.73-0.46-0.96-0.84c-0.23-0.38-0.35-0.84-0.35-1.4v-0.17l0.53-0.02c-0.14,0.62-0.44,1.14-0.89,1.55
		c-0.45,0.41-0.97,0.71-1.56,0.91c-0.59,0.2-1.19,0.3-1.8,0.3c-0.75,0-1.43-0.12-2.03-0.36c-0.6-0.24-1.07-0.6-1.42-1.09
		c-0.34-0.49-0.52-1.09-0.52-1.81c0-0.9,0.29-1.63,0.88-2.21s1.41-0.97,2.48-1.18l4.66-0.91l-0.02,1.8l-3.38,0.7
		c-0.67,0.13-1.18,0.31-1.51,0.55c-0.34,0.24-0.5,0.59-0.5,1.06c0,0.45,0.17,0.8,0.52,1.07s0.8,0.4,1.38,0.4
		c0.4,0,0.79-0.05,1.16-0.14c0.38-0.1,0.72-0.25,1.02-0.47c0.3-0.22,0.54-0.5,0.71-0.84c0.17-0.34,0.25-0.76,0.25-1.24V410.74z"/>
</g>
<g>
	<path class="st4" d="M1871.63,561.25c0-0.8-0.22-1.42-0.66-1.86s-1.04-0.66-1.81-0.66c-0.72,0-1.34,0.17-1.85,0.5
		c-0.51,0.34-0.89,0.88-1.13,1.63l-2.16-0.91c0.3-0.98,0.9-1.76,1.79-2.35c0.89-0.59,2.04-0.89,3.44-0.89
		c0.96,0,1.81,0.16,2.54,0.47c0.74,0.31,1.32,0.78,1.74,1.4s0.64,1.42,0.64,2.4v5.35c0,0.59,0.3,0.89,0.89,0.89
		c0.29,0,0.57-0.04,0.84-0.12l-0.14,1.78c-0.37,0.18-0.83,0.26-1.39,0.26c-0.51,0-0.97-0.09-1.38-0.28
		c-0.41-0.18-0.73-0.46-0.96-0.84c-0.23-0.38-0.35-0.84-0.35-1.4v-0.17l0.53-0.02c-0.14,0.62-0.44,1.14-0.89,1.55
		c-0.45,0.41-0.97,0.71-1.56,0.91c-0.59,0.2-1.19,0.3-1.8,0.3c-0.75,0-1.43-0.12-2.03-0.36c-0.6-0.24-1.07-0.6-1.42-1.09
		c-0.34-0.49-0.52-1.09-0.52-1.81c0-0.9,0.29-1.63,0.88-2.21s1.41-0.97,2.48-1.18l4.66-0.91l-0.02,1.8l-3.38,0.7
		c-0.67,0.13-1.18,0.31-1.51,0.55c-0.34,0.24-0.5,0.59-0.5,1.06c0,0.45,0.17,0.8,0.52,1.07c0.34,0.26,0.8,0.4,1.38,0.4
		c0.4,0,0.79-0.05,1.16-0.14c0.38-0.1,0.72-0.25,1.02-0.47c0.3-0.22,0.54-0.5,0.71-0.84c0.17-0.34,0.25-0.76,0.25-1.24V561.25z"/>
</g>
<g>
	<path class="st4" d="M1664.03,550.83c-1.2,0-2.26-0.25-3.17-0.74c-0.91-0.5-1.62-1.21-2.12-2.15c-0.5-0.94-0.76-2.05-0.76-3.35
		s0.25-2.41,0.76-3.35c0.5-0.94,1.2-1.65,2.1-2.15c0.9-0.5,1.91-0.74,3.05-0.74c1.17,0,2.16,0.24,2.98,0.72
		c0.82,0.48,1.44,1.14,1.87,1.97c0.43,0.83,0.65,1.78,0.65,2.83c0,0.29-0.01,0.56-0.02,0.82s-0.04,0.48-0.07,0.67h-9.65v-1.97h8.52
		l-1.27,0.38c0-1.09-0.27-1.92-0.82-2.51c-0.54-0.58-1.29-0.88-2.23-0.88c-0.69,0-1.29,0.16-1.8,0.48c-0.51,0.32-0.9,0.8-1.18,1.43
		c-0.27,0.63-0.41,1.4-0.41,2.32c0,0.9,0.14,1.66,0.43,2.28s0.7,1.1,1.22,1.42c0.53,0.32,1.15,0.48,1.87,0.48
		c0.8,0,1.45-0.15,1.94-0.46c0.5-0.3,0.89-0.73,1.18-1.27l2.04,0.96c-0.29,0.58-0.68,1.08-1.16,1.5s-1.07,0.75-1.74,0.97
		S1664.83,550.83,1664.03,550.83z"/>
</g>
<g>
	<path class="st4" d="M1635.24,429.59c0-0.8-0.22-1.42-0.66-1.86c-0.44-0.44-1.04-0.66-1.81-0.66c-0.72,0-1.34,0.17-1.85,0.5
		c-0.51,0.34-0.89,0.88-1.13,1.63l-2.16-0.91c0.3-0.98,0.9-1.76,1.79-2.35c0.89-0.59,2.04-0.89,3.44-0.89
		c0.96,0,1.81,0.16,2.54,0.47c0.74,0.31,1.32,0.78,1.74,1.4s0.64,1.42,0.64,2.4v5.35c0,0.59,0.3,0.89,0.89,0.89
		c0.29,0,0.57-0.04,0.84-0.12l-0.14,1.78c-0.37,0.18-0.83,0.26-1.39,0.26c-0.51,0-0.97-0.09-1.38-0.28
		c-0.41-0.18-0.73-0.46-0.96-0.84c-0.23-0.38-0.35-0.84-0.35-1.4v-0.17l0.53-0.02c-0.14,0.62-0.44,1.14-0.89,1.55
		c-0.45,0.41-0.97,0.71-1.56,0.91s-1.19,0.3-1.8,0.3c-0.75,0-1.43-0.12-2.03-0.36c-0.6-0.24-1.07-0.6-1.42-1.09
		c-0.34-0.49-0.52-1.09-0.52-1.81c0-0.9,0.29-1.63,0.88-2.21s1.41-0.97,2.48-1.18l4.66-0.91l-0.02,1.8l-3.38,0.7
		c-0.67,0.13-1.18,0.31-1.51,0.55c-0.34,0.24-0.5,0.59-0.5,1.06c0,0.45,0.17,0.8,0.52,1.07c0.34,0.26,0.8,0.4,1.38,0.4
		c0.4,0,0.79-0.05,1.16-0.14c0.38-0.1,0.72-0.25,1.02-0.47c0.3-0.22,0.54-0.5,0.71-0.84c0.17-0.34,0.25-0.76,0.25-1.24V429.59z"/>
</g>
<g>
	<path class="st4" d="M1639.43,354.52c0-0.8-0.22-1.42-0.66-1.86c-0.44-0.44-1.04-0.66-1.81-0.66c-0.72,0-1.34,0.17-1.85,0.5
		c-0.51,0.34-0.89,0.88-1.13,1.63l-2.16-0.91c0.3-0.98,0.9-1.76,1.79-2.35c0.89-0.59,2.04-0.89,3.44-0.89
		c0.96,0,1.81,0.16,2.54,0.47c0.74,0.31,1.32,0.78,1.74,1.4s0.64,1.42,0.64,2.4v5.35c0,0.59,0.3,0.89,0.89,0.89
		c0.29,0,0.57-0.04,0.84-0.12l-0.14,1.78c-0.37,0.18-0.83,0.26-1.39,0.26c-0.51,0-0.97-0.09-1.38-0.28
		c-0.41-0.18-0.73-0.46-0.96-0.84c-0.23-0.38-0.35-0.84-0.35-1.4v-0.17l0.53-0.02c-0.14,0.62-0.44,1.14-0.89,1.55
		c-0.45,0.41-0.97,0.71-1.56,0.91s-1.19,0.3-1.8,0.3c-0.75,0-1.43-0.12-2.03-0.36c-0.6-0.24-1.07-0.6-1.42-1.09
		c-0.34-0.49-0.52-1.09-0.52-1.81c0-0.9,0.29-1.63,0.88-2.21s1.41-0.97,2.48-1.18l4.66-0.91l-0.02,1.8l-3.38,0.7
		c-0.67,0.13-1.18,0.31-1.51,0.55c-0.34,0.24-0.5,0.59-0.5,1.06c0,0.45,0.17,0.8,0.52,1.07c0.34,0.26,0.8,0.4,1.38,0.4
		c0.4,0,0.79-0.05,1.16-0.14c0.38-0.1,0.72-0.25,1.02-0.47c0.3-0.22,0.54-0.5,0.71-0.84c0.17-0.34,0.25-0.76,0.25-1.24V354.52z"/>
</g>
<g>
	<path class="st4" d="M1810.59,393.25c-1.2,0-2.26-0.25-3.17-0.74c-0.91-0.5-1.62-1.21-2.12-2.15s-0.76-2.05-0.76-3.35
		s0.25-2.41,0.76-3.35s1.2-1.65,2.1-2.15c0.9-0.5,1.91-0.74,3.05-0.74c1.17,0,2.16,0.24,2.98,0.72c0.82,0.48,1.44,1.14,1.87,1.97
		c0.43,0.83,0.65,1.78,0.65,2.83c0,0.29-0.01,0.56-0.02,0.82s-0.04,0.48-0.07,0.67h-9.65v-1.97h8.52l-1.27,0.38
		c0-1.09-0.27-1.92-0.82-2.51c-0.54-0.58-1.29-0.88-2.23-0.88c-0.69,0-1.29,0.16-1.8,0.48c-0.51,0.32-0.9,0.8-1.18,1.43
		c-0.27,0.63-0.41,1.4-0.41,2.32c0,0.9,0.14,1.66,0.43,2.28s0.7,1.1,1.22,1.42c0.53,0.32,1.15,0.48,1.87,0.48
		c0.8,0,1.45-0.15,1.94-0.46c0.5-0.3,0.89-0.73,1.18-1.27l2.04,0.96c-0.29,0.58-0.68,1.08-1.16,1.5s-1.07,0.75-1.74,0.97
		C1812.12,393.14,1811.39,393.25,1810.59,393.25z"/>
</g>
<g>
	<path class="st4" d="M1831.27,293.14c0-0.8-0.22-1.42-0.66-1.86c-0.44-0.44-1.04-0.66-1.81-0.66c-0.72,0-1.34,0.17-1.85,0.5
		c-0.51,0.34-0.89,0.88-1.13,1.63l-2.16-0.91c0.3-0.98,0.9-1.76,1.79-2.35c0.89-0.59,2.04-0.89,3.44-0.89
		c0.96,0,1.81,0.16,2.54,0.47c0.74,0.31,1.32,0.78,1.74,1.4s0.64,1.42,0.64,2.4v5.35c0,0.59,0.3,0.89,0.89,0.89
		c0.29,0,0.57-0.04,0.84-0.12l-0.14,1.78c-0.37,0.18-0.83,0.26-1.39,0.26c-0.51,0-0.97-0.09-1.38-0.28
		c-0.41-0.18-0.73-0.46-0.96-0.84c-0.23-0.38-0.35-0.84-0.35-1.4v-0.17l0.53-0.02c-0.14,0.62-0.44,1.14-0.89,1.55
		c-0.45,0.41-0.97,0.71-1.56,0.91s-1.19,0.3-1.8,0.3c-0.75,0-1.43-0.12-2.03-0.36c-0.6-0.24-1.07-0.6-1.42-1.09
		c-0.34-0.49-0.52-1.09-0.52-1.81c0-0.9,0.29-1.63,0.88-2.21s1.41-0.97,2.48-1.18l4.66-0.91l-0.02,1.8l-3.38,0.7
		c-0.67,0.13-1.18,0.31-1.51,0.55c-0.34,0.24-0.5,0.59-0.5,1.06c0,0.45,0.17,0.8,0.52,1.07c0.34,0.26,0.8,0.4,1.38,0.4
		c0.4,0,0.79-0.05,1.16-0.14c0.38-0.1,0.72-0.25,1.02-0.47c0.3-0.22,0.54-0.5,0.71-0.84c0.17-0.34,0.25-0.76,0.25-1.24V293.14z"/>
</g>
<g>
	<path class="st4" d="M1758.2,226.85c-1.2,0-2.26-0.25-3.17-0.74s-1.62-1.21-2.12-2.15c-0.5-0.94-0.76-2.05-0.76-3.35
		s0.25-2.41,0.76-3.35c0.5-0.94,1.2-1.65,2.1-2.15c0.9-0.5,1.91-0.74,3.05-0.74c1.17,0,2.16,0.24,2.98,0.72
		c0.82,0.48,1.44,1.14,1.87,1.97c0.43,0.83,0.65,1.78,0.65,2.83c0,0.29-0.01,0.56-0.02,0.82s-0.04,0.48-0.07,0.67h-9.65v-1.97h8.52
		l-1.27,0.38c0-1.09-0.27-1.92-0.82-2.51s-1.29-0.88-2.23-0.88c-0.69,0-1.29,0.16-1.8,0.48c-0.51,0.32-0.9,0.8-1.18,1.43
		s-0.41,1.4-0.41,2.32c0,0.9,0.14,1.66,0.43,2.28s0.7,1.1,1.22,1.42c0.53,0.32,1.15,0.48,1.87,0.48c0.8,0,1.45-0.15,1.94-0.46
		c0.5-0.3,0.89-0.73,1.18-1.27l2.04,0.96c-0.29,0.58-0.68,1.08-1.16,1.5s-1.07,0.75-1.74,0.97
		C1759.74,226.73,1759,226.85,1758.2,226.85z"/>
</g>
<g>
	<path class="st4" d="M1030.1,262.47c-1.2,0-2.26-0.25-3.17-0.74s-1.62-1.21-2.12-2.15c-0.5-0.94-0.76-2.05-0.76-3.35
		s0.25-2.41,0.76-3.35c0.5-0.94,1.2-1.65,2.1-2.15s1.91-0.74,3.05-0.74c1.17,0,2.16,0.24,2.98,0.72c0.82,0.48,1.44,1.14,1.87,1.97
		c0.43,0.83,0.65,1.78,0.65,2.83c0,0.29-0.01,0.56-0.02,0.82c-0.02,0.26-0.04,0.48-0.07,0.67h-9.65v-1.97h8.52l-1.27,0.38
		c0-1.09-0.27-1.92-0.82-2.51s-1.29-0.88-2.23-0.88c-0.69,0-1.29,0.16-1.8,0.48c-0.51,0.32-0.9,0.8-1.18,1.43
		c-0.27,0.63-0.41,1.4-0.41,2.32c0,0.9,0.14,1.66,0.43,2.28s0.7,1.1,1.22,1.42c0.53,0.32,1.15,0.48,1.87,0.48
		c0.8,0,1.45-0.15,1.94-0.46s0.89-0.73,1.18-1.27l2.04,0.96c-0.29,0.58-0.68,1.08-1.16,1.5c-0.49,0.42-1.07,0.75-1.74,0.97
		C1031.64,262.36,1030.9,262.47,1030.1,262.47z"/>
</g>
<g>
	<path class="st4" d="M1095.86,347.18c0-0.8-0.22-1.42-0.66-1.86c-0.44-0.44-1.04-0.66-1.81-0.66c-0.72,0-1.34,0.17-1.85,0.5
		c-0.51,0.34-0.89,0.88-1.13,1.63l-2.16-0.91c0.3-0.98,0.9-1.76,1.79-2.35c0.89-0.59,2.04-0.89,3.44-0.89
		c0.96,0,1.81,0.16,2.54,0.47c0.74,0.31,1.32,0.78,1.74,1.4s0.64,1.42,0.64,2.4v5.35c0,0.59,0.3,0.89,0.89,0.89
		c0.29,0,0.57-0.04,0.84-0.12l-0.14,1.78c-0.37,0.18-0.83,0.26-1.39,0.26c-0.51,0-0.97-0.09-1.38-0.28s-0.73-0.46-0.96-0.84
		c-0.23-0.38-0.35-0.84-0.35-1.4v-0.17l0.53-0.02c-0.14,0.62-0.44,1.14-0.89,1.55c-0.45,0.41-0.97,0.71-1.56,0.91
		c-0.59,0.2-1.19,0.3-1.8,0.3c-0.75,0-1.43-0.12-2.03-0.36c-0.6-0.24-1.07-0.6-1.42-1.09c-0.34-0.49-0.52-1.09-0.52-1.81
		c0-0.9,0.29-1.63,0.88-2.21s1.41-0.97,2.48-1.18l4.66-0.91l-0.02,1.8l-3.38,0.7c-0.67,0.13-1.18,0.31-1.51,0.55
		c-0.34,0.24-0.5,0.59-0.5,1.06c0,0.45,0.17,0.8,0.52,1.07c0.34,0.26,0.8,0.4,1.38,0.4c0.4,0,0.79-0.05,1.16-0.14
		s0.72-0.25,1.02-0.47c0.3-0.22,0.54-0.5,0.71-0.84c0.17-0.34,0.25-0.76,0.25-1.24V347.18z"/>
</g>
<g>
	<path class="st4" d="M947.03,371.72c0-0.8-0.22-1.42-0.66-1.86c-0.44-0.44-1.04-0.66-1.81-0.66c-0.72,0-1.34,0.17-1.85,0.5
		c-0.51,0.34-0.89,0.88-1.13,1.63l-2.16-0.91c0.3-0.98,0.9-1.76,1.79-2.35c0.89-0.59,2.04-0.89,3.44-0.89
		c0.96,0,1.81,0.16,2.54,0.47c0.74,0.31,1.32,0.78,1.74,1.4s0.64,1.42,0.64,2.4v5.35c0,0.59,0.3,0.89,0.89,0.89
		c0.29,0,0.57-0.04,0.84-0.12l-0.14,1.78c-0.37,0.18-0.83,0.26-1.39,0.26c-0.51,0-0.97-0.09-1.38-0.28
		c-0.41-0.18-0.73-0.46-0.96-0.84c-0.23-0.38-0.35-0.84-0.35-1.4v-0.17l0.53-0.02c-0.14,0.62-0.44,1.14-0.89,1.55
		c-0.45,0.41-0.97,0.71-1.56,0.91c-0.59,0.2-1.19,0.3-1.8,0.3c-0.75,0-1.43-0.12-2.03-0.36c-0.6-0.24-1.07-0.6-1.42-1.09
		c-0.34-0.49-0.52-1.09-0.52-1.81c0-0.9,0.29-1.63,0.88-2.21s1.41-0.97,2.48-1.18l4.66-0.91l-0.02,1.8l-3.38,0.7
		c-0.67,0.13-1.18,0.31-1.51,0.55c-0.34,0.24-0.5,0.59-0.5,1.06c0,0.45,0.17,0.8,0.52,1.07s0.8,0.4,1.38,0.4
		c0.4,0,0.79-0.05,1.16-0.14c0.38-0.1,0.72-0.25,1.02-0.47c0.3-0.22,0.54-0.5,0.71-0.84c0.17-0.34,0.25-0.76,0.25-1.24V371.72z"/>
</g>
<g>
	<path class="st4" d="M1081.89,434.26c-1.2,0-2.26-0.25-3.17-0.74c-0.91-0.5-1.62-1.21-2.12-2.15s-0.76-2.05-0.76-3.35
		s0.25-2.41,0.76-3.35s1.2-1.65,2.1-2.15c0.9-0.5,1.91-0.74,3.05-0.74c1.17,0,2.16,0.24,2.98,0.72c0.82,0.48,1.44,1.14,1.87,1.97
		c0.43,0.83,0.65,1.78,0.65,2.83c0,0.29-0.01,0.56-0.02,0.82c-0.02,0.26-0.04,0.48-0.07,0.67h-9.65v-1.97h8.52l-1.27,0.38
		c0-1.09-0.27-1.92-0.82-2.51c-0.54-0.58-1.29-0.88-2.23-0.88c-0.69,0-1.29,0.16-1.8,0.48c-0.51,0.32-0.9,0.8-1.18,1.43
		c-0.27,0.63-0.41,1.4-0.41,2.32c0,0.9,0.14,1.66,0.43,2.28s0.7,1.1,1.22,1.42c0.53,0.32,1.15,0.48,1.87,0.48
		c0.8,0,1.45-0.15,1.94-0.46c0.5-0.3,0.89-0.73,1.18-1.27l2.04,0.96c-0.29,0.58-0.68,1.08-1.16,1.5c-0.49,0.42-1.07,0.75-1.74,0.97
		C1083.43,434.15,1082.69,434.26,1081.89,434.26z"/>
</g>
<g>
	<path class="st4" d="M1135.83,423.2c0-0.8-0.22-1.42-0.66-1.86c-0.44-0.44-1.04-0.66-1.81-0.66c-0.72,0-1.34,0.17-1.85,0.5
		c-0.51,0.34-0.89,0.88-1.13,1.63l-2.16-0.91c0.3-0.98,0.9-1.76,1.79-2.35c0.89-0.59,2.04-0.89,3.44-0.89
		c0.96,0,1.81,0.16,2.54,0.47c0.74,0.31,1.32,0.78,1.74,1.4s0.64,1.42,0.64,2.4v5.35c0,0.59,0.3,0.89,0.89,0.89
		c0.29,0,0.57-0.04,0.84-0.12l-0.14,1.78c-0.37,0.18-0.83,0.26-1.39,0.26c-0.51,0-0.97-0.09-1.38-0.28s-0.73-0.46-0.96-0.84
		c-0.23-0.38-0.35-0.84-0.35-1.4v-0.17l0.53-0.02c-0.14,0.62-0.44,1.14-0.89,1.55c-0.45,0.41-0.97,0.71-1.56,0.91
		c-0.59,0.2-1.19,0.3-1.8,0.3c-0.75,0-1.43-0.12-2.03-0.36c-0.6-0.24-1.07-0.6-1.42-1.09c-0.34-0.49-0.52-1.09-0.52-1.81
		c0-0.9,0.29-1.63,0.88-2.21s1.41-0.97,2.48-1.18l4.66-0.91l-0.02,1.8l-3.38,0.7c-0.67,0.13-1.18,0.31-1.51,0.55
		c-0.34,0.24-0.5,0.59-0.5,1.06c0,0.45,0.17,0.8,0.52,1.07c0.34,0.26,0.8,0.4,1.38,0.4c0.4,0,0.79-0.05,1.16-0.14
		s0.72-0.25,1.02-0.47c0.3-0.22,0.54-0.5,0.71-0.84c0.17-0.34,0.25-0.76,0.25-1.24V423.2z"/>
</g>
<g>
	<path class="st4" d="M1235.43,460.03c-1.2,0-2.26-0.25-3.17-0.74c-0.91-0.5-1.62-1.21-2.12-2.15c-0.5-0.94-0.76-2.05-0.76-3.35
		s0.25-2.41,0.76-3.35c0.5-0.94,1.2-1.65,2.1-2.15c0.9-0.5,1.91-0.74,3.05-0.74c1.17,0,2.16,0.24,2.98,0.72
		c0.82,0.48,1.44,1.14,1.87,1.97c0.43,0.83,0.65,1.78,0.65,2.83c0,0.29-0.01,0.56-0.02,0.82c-0.02,0.26-0.04,0.48-0.07,0.67h-9.65
		v-1.97h8.52l-1.27,0.38c0-1.09-0.27-1.92-0.82-2.51c-0.54-0.58-1.29-0.88-2.23-0.88c-0.69,0-1.29,0.16-1.8,0.48
		c-0.51,0.32-0.9,0.8-1.18,1.43c-0.27,0.63-0.41,1.4-0.41,2.32c0,0.9,0.14,1.66,0.43,2.28s0.7,1.1,1.22,1.42
		c0.53,0.32,1.15,0.48,1.87,0.48c0.8,0,1.45-0.15,1.94-0.46c0.5-0.3,0.89-0.73,1.18-1.27l2.04,0.96c-0.29,0.58-0.68,1.08-1.16,1.5
		c-0.49,0.42-1.07,0.75-1.74,0.97S1236.23,460.03,1235.43,460.03z"/>
</g>
<g>
	<path class="st4" d="M1295.24,551.94c0-0.8-0.22-1.42-0.66-1.86c-0.44-0.44-1.04-0.66-1.81-0.66c-0.72,0-1.34,0.17-1.85,0.5
		c-0.51,0.34-0.89,0.88-1.13,1.63l-2.16-0.91c0.3-0.98,0.9-1.76,1.79-2.35s2.04-0.89,3.44-0.89c0.96,0,1.81,0.16,2.54,0.47
		c0.74,0.31,1.32,0.78,1.74,1.4s0.64,1.42,0.64,2.4v5.35c0,0.59,0.3,0.89,0.89,0.89c0.29,0,0.57-0.04,0.84-0.12l-0.14,1.78
		c-0.37,0.18-0.83,0.26-1.39,0.26c-0.51,0-0.97-0.09-1.38-0.28s-0.73-0.46-0.96-0.84c-0.23-0.38-0.35-0.84-0.35-1.4v-0.17l0.53-0.02
		c-0.14,0.62-0.44,1.14-0.89,1.55s-0.97,0.71-1.56,0.91c-0.59,0.2-1.19,0.3-1.8,0.3c-0.75,0-1.43-0.12-2.03-0.36
		c-0.6-0.24-1.07-0.6-1.42-1.09c-0.34-0.49-0.52-1.09-0.52-1.81c0-0.9,0.29-1.63,0.88-2.21s1.41-0.97,2.48-1.18l4.66-0.91l-0.02,1.8
		l-3.38,0.7c-0.67,0.13-1.18,0.31-1.51,0.55c-0.34,0.24-0.5,0.59-0.5,1.06c0,0.45,0.17,0.8,0.52,1.07c0.34,0.26,0.8,0.4,1.38,0.4
		c0.4,0,0.79-0.05,1.16-0.14c0.38-0.1,0.72-0.25,1.02-0.47c0.3-0.22,0.54-0.5,0.71-0.84c0.17-0.34,0.25-0.76,0.25-1.24V551.94z"/>
</g>
<g>
	<path class="st4" d="M1323.02,622.24c-1.2,0-2.26-0.25-3.17-0.74c-0.91-0.5-1.62-1.21-2.12-2.15c-0.5-0.94-0.76-2.05-0.76-3.35
		s0.25-2.41,0.76-3.35c0.5-0.94,1.2-1.65,2.1-2.15c0.9-0.5,1.91-0.74,3.05-0.74c1.17,0,2.16,0.24,2.98,0.72
		c0.82,0.48,1.44,1.14,1.87,1.97c0.43,0.83,0.65,1.78,0.65,2.83c0,0.29-0.01,0.56-0.02,0.82c-0.02,0.26-0.04,0.48-0.07,0.67h-9.65
		v-1.97h8.52l-1.27,0.38c0-1.09-0.27-1.92-0.82-2.51c-0.54-0.58-1.29-0.88-2.23-0.88c-0.69,0-1.29,0.16-1.8,0.48
		c-0.51,0.32-0.9,0.8-1.18,1.43c-0.27,0.63-0.41,1.4-0.41,2.32c0,0.9,0.14,1.66,0.43,2.28s0.7,1.1,1.22,1.42
		c0.53,0.32,1.15,0.48,1.87,0.48c0.8,0,1.45-0.15,1.94-0.46c0.5-0.3,0.89-0.73,1.18-1.27l2.04,0.96c-0.29,0.58-0.68,1.08-1.16,1.5
		c-0.49,0.42-1.07,0.75-1.74,0.97S1323.82,622.24,1323.02,622.24z"/>
</g>
<g>
	<path class="st4" d="M1467.72,663.53c0-0.8-0.22-1.42-0.66-1.86c-0.44-0.44-1.04-0.66-1.81-0.66c-0.72,0-1.34,0.17-1.85,0.5
		c-0.51,0.34-0.89,0.88-1.13,1.63l-2.16-0.91c0.3-0.98,0.9-1.76,1.79-2.35s2.04-0.89,3.44-0.89c0.96,0,1.81,0.16,2.54,0.47
		c0.74,0.31,1.32,0.78,1.74,1.4s0.64,1.42,0.64,2.4v5.35c0,0.59,0.3,0.89,0.89,0.89c0.29,0,0.57-0.04,0.84-0.12l-0.14,1.78
		c-0.37,0.18-0.83,0.26-1.39,0.26c-0.51,0-0.97-0.09-1.38-0.28s-0.73-0.46-0.96-0.84c-0.23-0.38-0.35-0.84-0.35-1.4v-0.17l0.53-0.02
		c-0.14,0.62-0.44,1.14-0.89,1.55s-0.97,0.71-1.56,0.91c-0.59,0.2-1.19,0.3-1.8,0.3c-0.75,0-1.43-0.12-2.03-0.36
		c-0.6-0.24-1.07-0.6-1.42-1.09c-0.34-0.49-0.52-1.09-0.52-1.81c0-0.9,0.29-1.63,0.88-2.21s1.41-0.97,2.48-1.18l4.66-0.91l-0.02,1.8
		l-3.38,0.7c-0.67,0.13-1.18,0.31-1.51,0.55c-0.34,0.24-0.5,0.59-0.5,1.06c0,0.45,0.17,0.8,0.52,1.07c0.34,0.26,0.8,0.4,1.38,0.4
		c0.4,0,0.79-0.05,1.16-0.14c0.38-0.1,0.72-0.25,1.02-0.47c0.3-0.22,0.54-0.5,0.71-0.84c0.17-0.34,0.25-0.76,0.25-1.24V663.53z"/>
</g>
<g>
	<path class="st4" d="M1435.28,711.3c-1.2,0-2.26-0.25-3.17-0.74c-0.91-0.5-1.62-1.21-2.12-2.15s-0.76-2.05-0.76-3.35
		s0.25-2.41,0.76-3.35s1.2-1.65,2.1-2.15c0.9-0.5,1.91-0.74,3.05-0.74c1.17,0,2.16,0.24,2.98,0.72c0.82,0.48,1.44,1.14,1.87,1.97
		c0.43,0.83,0.65,1.78,0.65,2.83c0,0.29-0.01,0.56-0.02,0.82c-0.02,0.26-0.04,0.48-0.07,0.67h-9.65v-1.97h8.52l-1.27,0.38
		c0-1.09-0.27-1.92-0.82-2.51c-0.54-0.58-1.29-0.88-2.23-0.88c-0.69,0-1.29,0.16-1.8,0.48c-0.51,0.32-0.9,0.8-1.18,1.43
		c-0.27,0.63-0.41,1.4-0.41,2.32c0,0.9,0.14,1.66,0.43,2.28s0.7,1.1,1.22,1.42c0.53,0.32,1.15,0.48,1.87,0.48
		c0.8,0,1.45-0.15,1.94-0.46c0.5-0.3,0.89-0.73,1.18-1.27l2.04,0.96c-0.29,0.58-0.68,1.08-1.16,1.5c-0.49,0.42-1.07,0.75-1.74,0.97
		C1436.82,711.19,1436.08,711.3,1435.28,711.3z"/>
</g>
<g>
	<path class="st4" d="M1457.99,868.62c0-0.8-0.22-1.42-0.66-1.86c-0.44-0.44-1.04-0.66-1.81-0.66c-0.72,0-1.34,0.17-1.85,0.5
		c-0.51,0.34-0.89,0.88-1.13,1.63l-2.16-0.91c0.3-0.98,0.9-1.76,1.79-2.35c0.89-0.59,2.04-0.89,3.44-0.89
		c0.96,0,1.81,0.16,2.54,0.47c0.74,0.31,1.32,0.78,1.74,1.4s0.64,1.42,0.64,2.4v5.35c0,0.59,0.3,0.89,0.89,0.89
		c0.29,0,0.57-0.04,0.84-0.12l-0.14,1.78c-0.37,0.18-0.83,0.26-1.39,0.26c-0.51,0-0.97-0.09-1.38-0.28s-0.73-0.46-0.96-0.84
		c-0.23-0.38-0.35-0.84-0.35-1.4v-0.17l0.53-0.02c-0.14,0.62-0.44,1.14-0.89,1.55c-0.45,0.41-0.97,0.71-1.56,0.91
		c-0.59,0.2-1.19,0.3-1.8,0.3c-0.75,0-1.43-0.12-2.03-0.36c-0.6-0.24-1.07-0.6-1.42-1.09c-0.34-0.49-0.52-1.09-0.52-1.81
		c0-0.9,0.29-1.63,0.88-2.21s1.41-0.97,2.48-1.18l4.66-0.91l-0.02,1.8l-3.38,0.7c-0.67,0.13-1.18,0.31-1.51,0.55
		c-0.34,0.24-0.5,0.59-0.5,1.06c0,0.45,0.17,0.8,0.52,1.07c0.34,0.26,0.8,0.4,1.38,0.4c0.4,0,0.79-0.05,1.16-0.14
		s0.72-0.25,1.02-0.47c0.3-0.22,0.54-0.5,0.71-0.84c0.17-0.34,0.25-0.76,0.25-1.24V868.62z"/>
</g>
<g>
	<path class="st4" d="M1734.8,773.07c-1.2,0-2.26-0.25-3.17-0.74c-0.91-0.5-1.62-1.21-2.12-2.15s-0.76-2.05-0.76-3.35
		s0.25-2.41,0.76-3.35s1.2-1.65,2.1-2.15c0.9-0.5,1.91-0.74,3.05-0.74c1.17,0,2.16,0.24,2.98,0.72c0.82,0.48,1.44,1.14,1.87,1.97
		c0.43,0.83,0.65,1.78,0.65,2.83c0,0.29-0.01,0.56-0.02,0.82c-0.02,0.26-0.04,0.48-0.07,0.67h-9.65v-1.97h8.52l-1.27,0.38
		c0-1.09-0.27-1.92-0.82-2.51c-0.54-0.58-1.29-0.88-2.23-0.88c-0.69,0-1.29,0.16-1.8,0.48c-0.51,0.32-0.9,0.8-1.18,1.43
		c-0.27,0.63-0.41,1.4-0.41,2.32c0,0.9,0.14,1.66,0.43,2.28s0.7,1.1,1.22,1.42c0.53,0.32,1.15,0.48,1.87,0.48
		c0.8,0,1.45-0.15,1.94-0.46c0.5-0.3,0.89-0.73,1.18-1.27l2.04,0.96c-0.29,0.58-0.68,1.08-1.16,1.5c-0.49,0.42-1.07,0.75-1.74,0.97
		C1736.33,772.96,1735.6,773.07,1734.8,773.07z"/>
</g>
<g>
	<path class="st4" d="M1874.43,976.57c-1.2,0-2.26-0.25-3.17-0.74c-0.91-0.5-1.62-1.21-2.12-2.15c-0.5-0.94-0.76-2.05-0.76-3.35
		s0.25-2.41,0.76-3.35c0.5-0.94,1.2-1.65,2.1-2.15c0.9-0.5,1.91-0.74,3.05-0.74c1.17,0,2.16,0.24,2.98,0.72
		c0.82,0.48,1.44,1.14,1.87,1.97c0.43,0.83,0.65,1.78,0.65,2.83c0,0.29-0.01,0.56-0.02,0.82s-0.04,0.48-0.07,0.67h-9.65v-1.97h8.52
		l-1.27,0.38c0-1.09-0.27-1.92-0.82-2.51c-0.54-0.58-1.29-0.88-2.23-0.88c-0.69,0-1.29,0.16-1.8,0.48c-0.51,0.32-0.9,0.8-1.18,1.43
		c-0.27,0.63-0.41,1.4-0.41,2.32c0,0.9,0.14,1.66,0.43,2.28s0.7,1.1,1.22,1.42c0.53,0.32,1.15,0.48,1.87,0.48
		c0.8,0,1.45-0.15,1.94-0.46c0.5-0.3,0.89-0.73,1.18-1.27l2.04,0.96c-0.29,0.58-0.68,1.08-1.16,1.5s-1.07,0.75-1.74,0.97
		S1875.23,976.57,1874.43,976.57z"/>
</g>
<g>
	<path class="st4" d="M1229.83,825.57c0-0.8-0.22-1.42-0.66-1.86c-0.44-0.44-1.04-0.66-1.81-0.66c-0.72,0-1.34,0.17-1.85,0.5
		c-0.51,0.34-0.89,0.88-1.13,1.63l-2.16-0.91c0.3-0.98,0.9-1.76,1.79-2.35c0.89-0.59,2.04-0.89,3.44-0.89
		c0.96,0,1.81,0.16,2.54,0.47c0.74,0.31,1.32,0.78,1.74,1.4s0.64,1.42,0.64,2.4v5.35c0,0.59,0.3,0.89,0.89,0.89
		c0.29,0,0.57-0.04,0.84-0.12l-0.14,1.78c-0.37,0.18-0.83,0.26-1.39,0.26c-0.51,0-0.97-0.09-1.38-0.28s-0.73-0.46-0.96-0.84
		c-0.23-0.38-0.35-0.84-0.35-1.4v-0.17l0.53-0.02c-0.14,0.62-0.44,1.14-0.89,1.55c-0.45,0.41-0.97,0.71-1.56,0.91
		c-0.59,0.2-1.19,0.3-1.8,0.3c-0.75,0-1.43-0.12-2.03-0.36c-0.6-0.24-1.07-0.6-1.42-1.09c-0.34-0.49-0.52-1.09-0.52-1.81
		c0-0.9,0.29-1.63,0.88-2.21s1.41-0.97,2.48-1.18l4.66-0.91l-0.02,1.8l-3.38,0.7c-0.67,0.13-1.18,0.31-1.51,0.55
		c-0.34,0.24-0.5,0.59-0.5,1.06c0,0.45,0.17,0.8,0.52,1.07c0.34,0.26,0.8,0.4,1.38,0.4c0.4,0,0.79-0.05,1.16-0.14
		s0.72-0.25,1.02-0.47c0.3-0.22,0.54-0.5,0.71-0.84c0.17-0.34,0.25-0.76,0.25-1.24V825.57z"/>
</g>
<g>
	<path class="st4" d="M1154.96,858.71c-1.2,0-2.26-0.25-3.17-0.74c-0.91-0.5-1.62-1.21-2.12-2.15s-0.76-2.05-0.76-3.35
		s0.25-2.41,0.76-3.35s1.2-1.65,2.1-2.15c0.9-0.5,1.91-0.74,3.05-0.74c1.17,0,2.16,0.24,2.98,0.72c0.82,0.48,1.44,1.14,1.87,1.97
		c0.43,0.83,0.65,1.78,0.65,2.83c0,0.29-0.01,0.56-0.02,0.82c-0.02,0.26-0.04,0.48-0.07,0.67h-9.65v-1.97h8.52l-1.27,0.38
		c0-1.09-0.27-1.92-0.82-2.51c-0.54-0.58-1.29-0.88-2.23-0.88c-0.69,0-1.29,0.16-1.8,0.48c-0.51,0.32-0.9,0.8-1.18,1.43
		c-0.27,0.63-0.41,1.4-0.41,2.32c0,0.9,0.14,1.66,0.43,2.28s0.7,1.1,1.22,1.42c0.53,0.32,1.15,0.48,1.87,0.48
		c0.8,0,1.45-0.15,1.94-0.46c0.5-0.3,0.89-0.73,1.18-1.27l2.04,0.96c-0.29,0.58-0.68,1.08-1.16,1.5c-0.49,0.42-1.07,0.75-1.74,0.97
		C1156.49,858.6,1155.75,858.71,1154.96,858.71z"/>
</g>
<g>
	<path class="st4" d="M985.63,874.98c-1.2,0-2.26-0.25-3.17-0.74c-0.91-0.5-1.62-1.21-2.12-2.15s-0.76-2.05-0.76-3.35
		s0.25-2.41,0.76-3.35s1.2-1.65,2.1-2.15c0.9-0.5,1.91-0.74,3.05-0.74c1.17,0,2.16,0.24,2.98,0.72s1.44,1.14,1.87,1.97
		s0.65,1.78,0.65,2.83c0,0.29-0.01,0.56-0.02,0.82s-0.04,0.48-0.07,0.67h-9.65v-1.97h8.52l-1.27,0.38c0-1.09-0.27-1.92-0.82-2.51
		c-0.54-0.58-1.29-0.88-2.23-0.88c-0.69,0-1.29,0.16-1.8,0.48c-0.51,0.32-0.9,0.8-1.18,1.43c-0.27,0.63-0.41,1.4-0.41,2.32
		c0,0.9,0.14,1.66,0.43,2.28c0.29,0.62,0.7,1.1,1.22,1.42c0.53,0.32,1.15,0.48,1.87,0.48c0.8,0,1.45-0.15,1.94-0.46
		c0.5-0.3,0.89-0.73,1.18-1.27l2.04,0.96c-0.29,0.58-0.68,1.08-1.16,1.5c-0.49,0.42-1.07,0.75-1.74,0.97
		C987.16,874.87,986.43,874.98,985.63,874.98z"/>
</g>
</svg>
