<?xml version="1.0" encoding="utf-8"?>
<!-- Generator: Adobe Illustrator 28.1.0, SVG Export Plug-In . SVG Version: 6.00 Build 0)  -->
<svg version="1.1" id="Layer_1" xmlns="http://www.w3.org/2000/svg" xmlns:xlink="http://www.w3.org/1999/xlink" x="0px" y="0px"
	 viewBox="0 0 1920 1080" style="enable-background:new 0 0 1920 1080;" xml:space="preserve">
<style type="text/css">
	.st0{opacity:0.9;}
	.st1{fill:#BFB326;}
	.st2{fill:none;stroke:#8B8332;stroke-width:3;stroke-miterlimit:10;}
	.st3{fill:none;stroke:#8B8332;stroke-width:3.0861;stroke-miterlimit:10;}
	.st4{fill:#8B8332;}
</style>
<path d="M842.28,830.54c0,0.01,0,0.01,0,0.02c0,0,0.01,0,0.01,0.01L842.28,830.54z"/>
<path d="M866.96,853.61c0.01,0.02,0.02,0.03,0.02,0.05c0.02-0.02,0.05-0.03,0.07-0.05C867.06,853.61,866.96,853.61,866.96,853.61z"
	/>
<path d="M807.39,882c0,0.04,0,0.07,0,0.11c0.01,0.01,0.01,0.02,0.02,0.03C807.4,882.13,807.39,882,807.39,882z"/>
<path d="M820.54,874.22c-0.03,0-0.05,0-0.08-0.01c0,0.02,0,0.04,0,0.07L820.54,874.22z"/>
<path d="M891.04,862.37c-0.03,0-0.05,0-0.08,0c0,0.02,0,0.04,0,0.07L891.04,862.37z"/>
<path d="M818.09,875.4c0.02,0.02,0.04,0.04,0.06,0.06c0.01,0,0.01,0,0.02,0L818.09,875.4z"/>
<path d="M889.23,867.09c-0.02,0.02-0.03,0.04-0.05,0.06c0,0.01,0,0.02,0,0.03L889.23,867.09z"/>
<path d="M713.3,877.17c0,0.02,0,0.03,0,0.05c0.01,0.01,0.01,0.02,0.02,0.03L713.3,877.17z"/>
<path d="M706.8,904.4c-0.02,0.03-0.04,0.05-0.07,0.08c0,0,0,0.01,0,0.01L706.8,904.4z"/>
<path d="M713.92,874.23c-0.02,0-0.05,0-0.07,0c0,0.02,0,0.05,0.01,0.07L713.92,874.23z"/>
<path d="M1363.74,943.56c-0.02-0.01-0.05-0.02-0.07-0.03c-0.01,0-0.02,0-0.02,0L1363.74,943.56z"/>
<path d="M1494.05,937.58c-0.02,0.01-0.04,0.02-0.06,0.03c0,0-0.01,0.01-0.01,0.01L1494.05,937.58z"/>
<path d="M1416.85,858.48c0.02-0.01,0.05-0.02,0.07-0.03c0-0.01-0.01-0.02-0.01-0.03C1416.9,858.41,1416.85,858.48,1416.85,858.48z"
	/>
<path d="M1446.37,944.74c0-0.01,0-0.03,0-0.04c-0.03,0-0.06,0-0.08,0L1446.37,944.74z"/>
<path d="M1357.15,948.83C1357.15,948.83,1357.15,948.83,1357.15,948.83c0.02,0.03,0.05,0.05,0.07,0.08L1357.15,948.83z"/>
<path d="M994.68,842.87c0-0.01,0-0.01,0-0.02c-0.02-0.01-0.04-0.02-0.05-0.03C994.62,842.82,994.68,842.87,994.68,842.87z"/>
<path d="M984.01,883.18c0-0.01,0-0.02,0-0.03c-0.02-0.02-0.04-0.04-0.06-0.06L984.01,883.18z"/>
<path d="M1005.94,947.71c0,0,0-0.01,0-0.01c-0.02-0.02-0.05-0.03-0.07-0.05L1005.94,947.71z"/>
<path d="M1036.57,832.53c0,0,0,0.01,0.01,0.01c0.06,0.01,0.13,0.01,0.19,0.02C1036.77,832.56,1036.57,832.53,1036.57,832.53z"/>
<path d="M1447.94,890.05c0.01-0.02,0.02-0.04,0.03-0.05l0,0L1447.94,890.05z"/>
<path d="M1378.46,958.9c0.02,0.02,0.05,0.05,0.07,0.07c0,0,0.01-0.01,0.01-0.01C1378.54,958.96,1378.46,958.9,1378.46,958.9z"/>
<path d="M1374.38,955.92c-0.02,0.02-0.04,0.03-0.06,0.05c0,0.01,0,0.02,0,0.04L1374.38,955.92z"/>
<path d="M1433.63,873.67c-0.01-0.01-0.02-0.02-0.03-0.03c-0.01-0.01-0.03-0.02-0.04-0.02L1433.63,873.67z"/>
<path d="M1385.42,956.95c0,0.01,0,0.01,0.01,0.02c0-0.01,0-0.01,0.01-0.02L1385.42,956.95z"/>
<g class="st0">
	<path class="st1" d="M516.96,968.37c-21.99-3.75-17.02-14.8-22.99-36.29c-15.41-55.52-11.44-116.16-9.27-171.68
		c0.12-2.97,9.58-2.6,9.69-5.57c2.4-62.09,7.84-124.55,8.25-187.07c0.4-62.43-3.93-133.44-5.51-195.64
		c-47.41,55.92-108.66,107.29-172.08,143.73c-22.21,12.76-43.51,19.68-55.92,5.09c-8.66-10.18-10.98-25.43-11-31.33
		c-0.1-32.1,27.57-76.44,54.69-136.1c-24.85,33.91-60.04,58.5-74.2,77.24c-6.76,8.94-11.41,36.97-29.49,47.19
		c-21.26,12.02-41.26-3.45-58.33-15.67c-16.79-12.01-20.89-26.48-23.49-36.24c-4.33-16.21-22.32-34.74-24.82-51.26
		c-45.43,89.12-6.99,112.39-72.74,187.77c-26.5,30.38,6.91-42.57,3.41-82.73c-5.11-58.64-7.79-109.21-1.93-167.77
		c13.84-15.8,19.69-20.84,36.18-7.83c-2.67,26.67-1.42,61.33-1.71,88.21c29.89-49.92,0.44-68.63,39.6-111.66
		c13.88-15.26,35.65-9.3,47.93,7.28c-1.88,42.08,4.91,86.15,15.78,126.84c1.24,4.64-3.05,16.62,1.49,19.87
		c8.15,5.83,33.29-3.17,46.36-20.47c27.45-36.33,68.31-123.47,122.07-197.18c53.88-73.87,115.98-152.16,143.65-188.78
		c20.52-4.33,16.38,20.15,29.15,36.78c-7.35,12.3-2.62,26.09-13.45,43.66c-34,55.21-81.49,129.69-119.92,203.2
		c-42.46,81.21-66.9,137.48-68.56,173.17c0.32-0.17-1.06,3.06-0.72,2.87c75.33-43.29,131.06-113.17,180.68-184.49
		c17.99-25.86,16.75-64.16,46.98-55.27c30.22,8.89-5.42,40.91-4.3,72.39c2.57,72.31,9.18,145,9.07,217.82s-4.44,145.59-7.23,217.89
		c-0.11,2.98-5.05,2.78-5.17,5.76c-1.29,33.16,0,63.84,2.69,96.73c31.85-69.44,43.39-145.76,52.51-229.15
		c9.86-90.18,13.34-192.18,55.3-274.29c15.78-13.44,37.24,3.17,44.88,22.45c-9.64,62.45-6.3,126.13-12.53,189.86
		c-6.22,63.65-12.66,125.64-8.08,189.15c2.56-3.91,5.42-5.28,7.48-11.07c29.02-81.49,35.44-170.05,56.48-254.16
		c21.05-84.11,56.09-161.72,68.87-247.27c11.85-17.34,38.59-21.57,44.15-1.32c-13.48,96.3-40.02,199.14-19.77,294.59
		c3.88,18.3,17.12,34.55,26.7,40.38c3.81,2.32,8.78,12.57,11.03,11.95c10.04-2.76,2.34-34.15,6.04-47.83
		c26.83-99.18,26.5-99.62,72.2-191.64c9.31-18.74,28.88-16.76,35.28,3.16c-8.58,94.17-9.93,189.39-2.68,283.78
		c29.84-34.41,59.28-74.73,78.44-127.88c23.03-63.91,21.92-143.73,33.47-210.44c13.87-15.77,53.02-10.18,60.3,9.51
		c-10.5,77.54-21.18,160.43-20.14,238.66c0.03,2.37-8.69,11.31-7.8,13.01c0.64,0.58,7.63-2.36,12.78-2.48
		c28.69-0.74,58.85-27.02,73-53.58c17.66-33.15,27.04-67.76,37.42-103.86c18.35-10.05,34.99-18.32,45.16-0.04
		c-5.68,55.67-23.41,124.02,8.52,160.49c3.76,4.29,16.13-2.52,18.76-1.57c11.16,4.01,26.2-14.75,35.27-36.5
		c20.23-48.51,34.2-147.51,57.71-240.7c24.98-99.03,61.5-185.76,82.93-237.14c17.53-11.32,35.55-14.61,44,4.47
		c-9.81,56.65-30.79,129.8-38.31,208.24c-6.22,64.88-2,135.79-5.86,207.68c-3.26,60.82-16.38,119.67-17.32,175.18
		c-1.09,64.55,5.85,122.67,7.92,174.13c36.89-63.27,56.32-137.93,77.78-224.8c24.15-97.76,48.71-194.71,61.27-306.64
		c9.46-18.75,35.75-18.31,44.07,0.97c-7.09,76.13-11.65,155.56-1.45,231.33c15.89-3.18,33.26-21.58,45.47-39.16
		c26-37.41,52.71-75.44,70.64-117.5c19.02-56.48,39.35-105.42,58.14-156.35c17.72-11.27,21.67-11.71,28.11,8.28
		c-17.69,54.51-28.63,108.02-51.44,161.73c-13.87,41.29-24.45,84.05-35.87,126c-26.2,96.23-38.64,182.08-41.81,262.83
		c1.9-2.11-1.68-5.23,0.54-8.22c29.09-39.12,52.75-99.12,68.53-159.35c12.66-48.35,22.87-88.71,42.94-127.05
		c19.95-6.57,27.3-12,34.43,7.75c-17.86,34.12-33.72,79.22-46.35,127.43c-16.79,64.1-33.92,129.12-67.87,174.78
		c-12.56,16.88-28.67,44.41-51.51,44.41c-4.42,0-10.07-4.53-14.77-6.04c-7.33-2.35-5.23-4.64-9.76-10.86
		c-4.53-6.23-0.27-4.91-0.24-12.61c0.34-82.38,20.16-169.46,43.99-266.12c-20.7,21.38-54.72,31.37-76.69,31.37
		c-6.76,0-13.69,0.39-20.29-1.78c-6.14-2.02-8.52,0.78-12.69-4.16c-4.17-4.94-1.22-6.78-2.19-13.18c-0.18-1.18,4.33-1.68,4.15-2.86
		c-4.49,22.93-11.64,45.25-17.24,67.88c-29.02,117.47-79.05,207.55-136.19,285.98c-16.7,22.93,3.19,48.44-24.1,40.74
		s-2.38-18.62-4.63-46.9c-4.51-56.63-7.14-128.59-6.44-209.7c0.57-65.36-7.12-136.95-3.19-210.4
		c2.81-52.37,23.73-99.29,27.85-148.57c-23.6,93.48-46.44,179.89-66.8,228.71c-17.39,41.7-52.52,55.65-80.2,55.65
		c-5.79,0-8.96-2.64-14.81-4.75c-12.71-4.57-27.63-2.99-33.13-9.28c-16.62-18.98-28.03-44.11-33.55-72.55
		c-1.64,3.23-1.97,3.91-3.68,7.11c-28.22,52.97-59.78,82.5-99.06,83.51c-19.75,0.51-27.69-13.37-36.66-27.12
		c-7.57-11.6-27.89-19.14-28-27.05c-0.04-2.98,11.95-5.97,11.93-8.95c-27.13,68.68-62.32,122.63-108.56,162.42
		c-15.23,13.1-8.96,22.81-27.63,15.38c-18.66-7.43,5.08-11.47,3.02-31.45c-5.18-50.09-12.72-100.75-13.51-151.21
		c-2.2-10.38-14.02,10.3-16.79,20.54c-4.45,16.46-10.89,53.34-45.22,62.79c-14.27,3.93-29.11,6.87-42.08-1.02
		c-23.61-14.36-34.72-47.33-39.78-71.18c-2.26-10.65-1.45-19.77-2.95-30.51c-20.91,82.37-46.77,163.53-75.22,243.4
		c-3.22,9.04-21.07,32.4-45.95,42.64c-11.23,4.62-24.32,18.1-35.21,12.87c-5.28-2.54,2.26-12.2-1.12-16.98
		c-3.38-4.79,0.15-2.53-0.47-8.36c-1.75-16.55-17.36-34.28-18.16-50.82c-11.47,69.49-23.78,138.38-64.9,197.35
		C530.85,956.01,538.95,972.13,516.96,968.37z M306.12,497.25c0,0,10.8-3.87,10.8-3.87C316.91,495.31,306.12,497.25,306.12,497.25z"
		/>
	<path class="st2" d="M516.96,968.37c-21.99-3.75-17.02-14.8-22.99-36.29c-15.41-55.52-11.44-116.16-9.27-171.68
		c0.12-2.97,9.58-2.6,9.69-5.57c2.4-62.09,7.84-124.55,8.25-187.07c0.4-62.43-3.93-133.44-5.51-195.64
		c-47.41,55.92-108.66,107.29-172.08,143.73c-22.21,12.76-43.51,19.68-55.92,5.09c-8.66-10.18-10.98-25.43-11-31.33
		c-0.1-32.1,27.57-76.44,54.69-136.1c-24.85,33.91-60.04,58.5-74.2,77.24c-6.76,8.94-11.41,36.97-29.49,47.19
		c-21.26,12.02-41.26-3.45-58.33-15.67c-16.79-12.01-20.89-26.48-23.49-36.24c-4.33-16.21-22.32-34.74-24.82-51.26
		c-45.43,89.12-6.99,112.39-72.74,187.77c-26.5,30.38,6.91-42.57,3.41-82.73c-5.11-58.64-7.79-109.21-1.93-167.77
		c13.84-15.8,19.69-20.84,36.18-7.83c-2.67,26.67-1.42,61.33-1.71,88.21c29.89-49.92,0.44-68.63,39.6-111.66
		c13.88-15.26,35.65-9.3,47.93,7.28c-1.88,42.08,4.91,86.15,15.78,126.84c1.24,4.64-3.05,16.62,1.49,19.87
		c8.15,5.83,33.29-3.17,46.36-20.47c27.45-36.33,68.31-123.47,122.07-197.18c53.88-73.87,115.98-152.16,143.65-188.78
		c20.52-4.33,16.38,20.15,29.15,36.78c-7.35,12.3-2.62,26.09-13.45,43.66c-34,55.21-81.49,129.69-119.92,203.2
		c-42.46,81.21-66.9,137.48-68.56,173.17c0.32-0.17-1.06,3.06-0.72,2.87c75.33-43.29,131.06-113.17,180.68-184.49
		c17.99-25.86,16.75-64.16,46.98-55.27c30.22,8.89-5.42,40.91-4.3,72.39c2.57,72.31,9.18,145,9.07,217.82s-4.44,145.59-7.23,217.89
		c-0.11,2.98-5.05,2.78-5.17,5.76c-1.29,33.16,0,63.84,2.69,96.73c31.85-69.44,43.39-145.76,52.51-229.15
		c9.86-90.18,13.34-192.18,55.3-274.29c15.78-13.44,37.24,3.17,44.88,22.45c-9.64,62.45-6.3,126.13-12.53,189.86
		c-6.22,63.65-12.66,125.64-8.08,189.15c2.56-3.91,5.42-5.28,7.48-11.07c29.02-81.49,35.44-170.05,56.48-254.16
		c21.05-84.11,56.09-161.72,68.87-247.27c11.85-17.34,38.59-21.57,44.15-1.32c-13.48,96.3-40.02,199.14-19.77,294.59
		c3.88,18.3,17.12,34.55,26.7,40.38c3.81,2.32,8.78,12.57,11.03,11.95c10.04-2.76,2.34-34.15,6.04-47.83
		c26.83-99.18,26.5-99.62,72.2-191.64c9.31-18.74,28.88-16.76,35.28,3.16c-8.58,94.17-9.93,189.39-2.68,283.78
		c29.84-34.41,59.28-74.73,78.44-127.88c23.03-63.91,21.92-143.73,33.47-210.44c13.87-15.77,53.02-10.18,60.3,9.51
		c-10.5,77.54-21.18,160.43-20.14,238.66c0.03,2.37-8.69,11.31-7.8,13.01c0.64,0.58,7.63-2.36,12.78-2.48
		c28.69-0.74,58.85-27.02,73-53.58c17.66-33.15,27.04-67.76,37.42-103.86c18.35-10.05,34.99-18.32,45.16-0.04
		c-5.68,55.67-23.41,124.02,8.52,160.49c3.76,4.29,16.13-2.52,18.76-1.57c11.16,4.01,26.2-14.75,35.27-36.5
		c20.23-48.51,34.2-147.51,57.71-240.7c24.98-99.03,61.5-185.76,82.93-237.14c17.53-11.32,35.55-14.61,44,4.47
		c-9.81,56.65-30.79,129.8-38.31,208.24c-6.22,64.88-2,135.79-5.86,207.68c-3.26,60.82-16.38,119.67-17.32,175.18
		c-1.09,64.55,5.85,122.67,7.92,174.13c36.89-63.27,56.32-137.93,77.78-224.8c24.15-97.76,48.71-194.71,61.27-306.64
		c9.46-18.75,35.75-18.31,44.07,0.97c-7.09,76.13-11.65,155.56-1.45,231.33c15.89-3.18,33.26-21.58,45.47-39.16
		c26-37.41,52.71-75.44,70.64-117.5c19.02-56.48,39.35-105.42,58.14-156.35c17.72-11.27,21.67-11.71,28.11,8.28
		c-17.69,54.51-28.63,108.02-51.44,161.73c-13.87,41.29-24.45,84.05-35.87,126c-26.2,96.23-38.64,182.08-41.81,262.83
		c1.9-2.11-1.68-5.23,0.54-8.22c29.09-39.12,52.75-99.12,68.53-159.35c12.66-48.35,22.87-88.71,42.94-127.05
		c19.95-6.57,27.3-12,34.43,7.75c-17.86,34.12-33.72,79.22-46.35,127.43c-16.79,64.1-33.92,129.12-67.87,174.78
		c-12.56,16.88-28.67,44.41-51.51,44.41c-4.42,0-10.07-4.53-14.77-6.04c-7.33-2.35-5.23-4.64-9.76-10.86
		c-4.53-6.23-0.27-4.91-0.24-12.61c0.34-82.38,20.16-169.46,43.99-266.12c-20.7,21.38-54.72,31.37-76.69,31.37
		c-6.76,0-13.69,0.39-20.29-1.78c-6.14-2.02-8.52,0.78-12.69-4.16c-4.17-4.94-1.22-6.78-2.19-13.18c-0.18-1.18,4.33-1.68,4.15-2.86
		c-4.49,22.93-11.64,45.25-17.24,67.88c-29.02,117.47-79.05,207.55-136.19,285.98c-16.7,22.93,3.19,48.44-24.1,40.74
		s-2.38-18.62-4.63-46.9c-4.51-56.63-7.14-128.59-6.44-209.7c0.57-65.36-7.12-136.95-3.19-210.4
		c2.81-52.37,23.73-99.29,27.85-148.57c-23.6,93.48-46.44,179.89-66.8,228.71c-17.39,41.7-52.52,55.65-80.2,55.65
		c-5.79,0-8.96-2.64-14.81-4.75c-12.71-4.57-27.63-2.99-33.13-9.28c-16.62-18.98-28.03-44.11-33.55-72.55
		c-1.64,3.23-1.97,3.91-3.68,7.11c-28.22,52.97-59.78,82.5-99.06,83.51c-19.75,0.51-27.69-13.37-36.66-27.12
		c-7.57-11.6-27.89-19.14-28-27.05c-0.04-2.98,11.95-5.97,11.93-8.95c-27.13,68.68-62.32,122.63-108.56,162.42
		c-15.23,13.1-8.96,22.81-27.63,15.38c-18.66-7.43,5.08-11.47,3.02-31.45c-5.18-50.09-12.72-100.75-13.51-151.21
		c-2.2-10.38-14.02,10.3-16.79,20.54c-4.45,16.46-10.89,53.34-45.22,62.79c-14.27,3.93-29.11,6.87-42.08-1.02
		c-23.61-14.36-34.72-47.33-39.78-71.18c-2.26-10.65-1.45-19.77-2.95-30.51c-20.91,82.37-46.77,163.53-75.22,243.4
		c-3.22,9.04-21.07,32.4-45.95,42.64c-11.23,4.62-24.32,18.1-35.21,12.87c-5.28-2.54,2.26-12.2-1.12-16.98
		c-3.38-4.79,0.15-2.53-0.47-8.36c-1.75-16.55-17.36-34.28-18.16-50.82c-11.47,69.49-23.78,138.38-64.9,197.35
		C530.85,956.01,538.95,972.13,516.96,968.37z M306.12,497.25c0,0,10.8-3.87,10.8-3.87C316.91,495.31,306.12,497.25,306.12,497.25z"
		/>
</g>
</svg>
