<?xml version="1.0" encoding="utf-8"?>
<!-- Generator: Adobe Illustrator 28.1.0, SVG Export Plug-In . SVG Version: 6.00 Build 0)  -->
<svg version="1.1" id="Layer_1" xmlns="http://www.w3.org/2000/svg" xmlns:xlink="http://www.w3.org/1999/xlink" x="0px" y="0px"
	 viewBox="0 0 1920 1080" style="enable-background:new 0 0 1920 1080;" xml:space="preserve">
<style type="text/css">
	.st0{opacity:0.9;}
	.st1{fill:#BFB326;}
	.st2{fill:none;stroke:#8B8332;stroke-width:3;stroke-miterlimit:10;}
	.st3{fill:none;stroke:#8B8332;stroke-width:3.0861;stroke-miterlimit:10;}
	.st4{fill:#8B8332;}
</style>
<path d="M842.28,830.54c0,0.01,0,0.01,0,0.02c0,0,0.01,0,0.01,0.01L842.28,830.54z"/>
<path d="M866.96,853.61c0.01,0.02,0.02,0.03,0.02,0.05c0.02-0.02,0.05-0.03,0.07-0.05C867.06,853.61,866.96,853.61,866.96,853.61z"
	/>
<path d="M807.39,882c0,0.04,0,0.07,0,0.11c0.01,0.01,0.01,0.02,0.02,0.03C807.4,882.13,807.39,882,807.39,882z"/>
<path d="M820.54,874.22c-0.03,0-0.05,0-0.08-0.01c0,0.02,0,0.04,0,0.07L820.54,874.22z"/>
<path d="M891.04,862.37c-0.03,0-0.05,0-0.08,0c0,0.02,0,0.04,0,0.07L891.04,862.37z"/>
<path d="M818.09,875.4c0.02,0.02,0.04,0.04,0.06,0.06c0.01,0,0.01,0,0.02,0L818.09,875.4z"/>
<path d="M889.23,867.09c-0.02,0.02-0.03,0.04-0.05,0.06c0,0.01,0,0.02,0,0.03L889.23,867.09z"/>
<path d="M713.3,877.17c0,0.02,0,0.03,0,0.05c0.01,0.01,0.01,0.02,0.02,0.03L713.3,877.17z"/>
<path d="M706.8,904.4c-0.02,0.03-0.04,0.05-0.07,0.08c0,0,0,0.01,0,0.01L706.8,904.4z"/>
<path d="M713.92,874.23c-0.02,0-0.05,0-0.07,0c0,0.02,0,0.05,0.01,0.07L713.92,874.23z"/>
<path d="M1363.74,943.56c-0.02-0.01-0.05-0.02-0.07-0.03c-0.01,0-0.02,0-0.02,0L1363.74,943.56z"/>
<path d="M1494.05,937.58c-0.02,0.01-0.04,0.02-0.06,0.03c0,0-0.01,0.01-0.01,0.01L1494.05,937.58z"/>
<path d="M1416.85,858.48c0.02-0.01,0.05-0.02,0.07-0.03c0-0.01-0.01-0.02-0.01-0.03C1416.9,858.41,1416.85,858.48,1416.85,858.48z"
	/>
<path d="M1446.37,944.74c0-0.01,0-0.03,0-0.04c-0.03,0-0.06,0-0.08,0L1446.37,944.74z"/>
<path d="M1357.15,948.83C1357.15,948.83,1357.15,948.83,1357.15,948.83c0.02,0.03,0.05,0.05,0.07,0.08L1357.15,948.83z"/>
<path d="M994.68,842.87c0-0.01,0-0.01,0-0.02c-0.02-0.01-0.04-0.02-0.05-0.03C994.62,842.82,994.68,842.87,994.68,842.87z"/>
<path d="M984.01,883.18c0-0.01,0-0.02,0-0.03c-0.02-0.02-0.04-0.04-0.06-0.06L984.01,883.18z"/>
<path d="M1005.94,947.71c0,0,0-0.01,0-0.01c-0.02-0.02-0.05-0.03-0.07-0.05L1005.94,947.71z"/>
<path d="M1036.57,832.53c0,0,0,0.01,0.01,0.01c0.06,0.01,0.13,0.01,0.19,0.02C1036.77,832.56,1036.57,832.53,1036.57,832.53z"/>
<path d="M1447.94,890.05c0.01-0.02,0.02-0.04,0.03-0.05l0,0L1447.94,890.05z"/>
<path d="M1378.46,958.9c0.02,0.02,0.05,0.05,0.07,0.07c0,0,0.01-0.01,0.01-0.01C1378.54,958.96,1378.46,958.9,1378.46,958.9z"/>
<path d="M1374.38,955.92c-0.02,0.02-0.04,0.03-0.06,0.05c0,0.01,0,0.02,0,0.04L1374.38,955.92z"/>
<path d="M1433.63,873.67c-0.01-0.01-0.02-0.02-0.03-0.03c-0.01-0.01-0.03-0.02-0.04-0.02L1433.63,873.67z"/>
<path d="M1385.42,956.95c0,0.01,0,0.01,0.01,0.02c0-0.01,0-0.01,0.01-0.02L1385.42,956.95z"/>
<g class="st0">
	<g>
		<path class="st1" d="M341.13,509.8c-13.99,0-23.17-8-28.19-14.57c-0.19-0.25,1.1-0.25,0.92-0.51
			c-6.93,6.96-17.61,15.06-30.96,13.48c-7.56-0.89-24.12-6.19-32.6-24.89c-3.8-8.39-3.49-18.82-4.98-26.26
			c-0.18-0.89,0.56-1.95,0.38-2.8c-1.35-6.58-1.39-10.01-2.33-16.47c-8.46,10.47-22.76,11.93-35.9,17.39
			c-28.56,11.87-61.68,5.02-77.22-20.88c-0.81-1.35,0.1-1.53-0.58-2.9c-5.77,8.32-11.73,17.35-19.77,24.18
			c-17.71,15.04-42.52,20.65-65.07,16.56c-8.31-1.51-10.27,0.81-15.8-5.57c-5.53-6.38,3.11-8.22,2.8-16.65
			c-1.46-39.66-10.52-89.84,2.72-136.55c10.34-36.51,36.75-63.96,66.61-81.68c16.53-9.81,34.37-15.18,51.65-17.78
			c1.28-1.91,2.55-4.91,3.94-6.77c23.86-31.81,7.93-68.11,47.53-64.46c33.74,3.11-19.75,35.55-13.03,68.77
			c2.21,10.94,25.15-12.05,30.27-2.13c6.38,12.35-12.21,13.71-16.37,26.97c-5.4,17.25-9.18,36.2-22.75,50.61
			c-4.21,15.22-7.12,30.09-11.47,44.18c-1.04,3.38-1.23,3.32-2.27,6.69c-0.5,1.63-3.52,2.3-4.01,3.95
			c-0.09,7.2-5.37,14.34-5.28,21.35c0.07,5.73,0.77,11.18,0.49,16.68c-0.67,12.98,1.29,25.98,5.72,33.36
			c4.83,8.04,18.09,11.05,27.39,7.19c10.14-4.22,17.4-11.83,20.84-20.67c2.32-5.96,2.58-13.71,3.4-22.04
			c0.75-7.61,6.81-14.33,8.82-22.42c0.1-0.42-4.57-1.6-4.45-2.01c0.12-0.41-1.59-1.01-1.45-1.42c1.72-5.1,4.5-9.44,4.74-14.85
			c0.34-7.6,3.25-14.44,8.31-22.53c6.25-9.99,14-18.73,28.75-18.91c11.69-0.14,18.11-9.52,26.02-0.92c7.92,8.6-3.61,14.07-4.71,25.7
			c-3.66,38.54-9.4,81.15-0.1,126.34c0.19,0.91,3.8,1.14,3.99,2.1c0.45,2.25,0.26,7.31,1.06,10.55c1.57-1.91,1.9-7.79,3.73-9.67
			c5.29-5.42,16.67-7.91,21.4-13.72c-0.29-14.13-3.91-29.49-0.4-44.1c9.12-37.96,19.85-47.17,31.81-59.89
			c6.62-7.04,10.47-19.68,20.57-45.07c20.18-5.46,23.87,3.1,42.1,13.35c-1.9,9.67-2.64,16.51-3.03,19c0.41,4.01-5.25,6.87-5.9,9.88
			c-0.72,3.34,0.91,9.76-1.52,20c-8.44,35.55-25,68.3-46.78,98.34c0.04,0.92,3.21,2.92,3.25,3.84c0.15,3.11-5.65,6.46-5.53,9.55
			c0.03,0.68,3.99,5.02,3.98,5.68c1.3-0.49,4.12-1.89,5.37-2.34c3.4-1.22,9.11-5.13,10.44-6.49c0,0-1.62-0.24-1.71-0.09
			c17.51,11.59,22.07,6.21,34.68,23c-8.31,12.67-21.88,13.19-31.53,16.66c-1.44,0.52-0.38,7.7-1.76,8.24
			C357.49,509.18,348.03,509.8,341.13,509.8z M129.02,263.01c-3.26,1.39-4.01,2.47-6.85,4.15c-20.28,12.03-35.48,33.2-42.77,58.93
			c-8.96,31.61-8.75,63.55-7.81,101.1c3.93-1.37,3.3-5.66,6.83-8.65c21.55-18.3,32.37-48.17,41.52-79.19
			c0.42-1.44,1.76-2.68,2.19-4.14c0.2-8.86-2.76-16.83-2.03-25.77c-4.05-12.86-1.05-13.21-3.86-26.4c5.5-2.53,6.32-4.68,11.29-7.88
			C128.43,270.6,127.84,267.48,129.02,263.01z"/>
		<path class="st2" d="M341.13,509.8c-13.99,0-23.17-8-28.19-14.57c-0.19-0.25,1.1-0.25,0.92-0.51
			c-6.93,6.96-17.61,15.06-30.96,13.48c-7.56-0.89-24.12-6.19-32.6-24.89c-3.8-8.39-3.49-18.82-4.98-26.26
			c-0.18-0.89,0.56-1.95,0.38-2.8c-1.35-6.58-1.39-10.01-2.33-16.47c-8.46,10.47-22.76,11.93-35.9,17.39
			c-28.56,11.87-61.68,5.02-77.22-20.88c-0.81-1.35,0.1-1.53-0.58-2.9c-5.77,8.32-11.73,17.35-19.77,24.18
			c-17.71,15.04-42.52,20.65-65.07,16.56c-8.31-1.51-10.27,0.81-15.8-5.57c-5.53-6.38,3.11-8.22,2.8-16.65
			c-1.46-39.66-10.52-89.84,2.72-136.55c10.34-36.51,36.75-63.96,66.61-81.68c16.53-9.81,34.37-15.18,51.65-17.78
			c1.28-1.91,2.55-4.91,3.94-6.77c23.86-31.81,7.93-68.11,47.53-64.46c33.74,3.11-19.75,35.55-13.03,68.77
			c2.21,10.94,25.15-12.05,30.27-2.13c6.38,12.35-12.21,13.71-16.37,26.97c-5.4,17.25-9.18,36.2-22.75,50.61
			c-4.21,15.22-7.12,30.09-11.47,44.18c-1.04,3.38-1.23,3.32-2.27,6.69c-0.5,1.63-3.52,2.3-4.01,3.95
			c-0.09,7.2-5.37,14.34-5.28,21.35c0.07,5.73,0.77,11.18,0.49,16.68c-0.67,12.98,1.29,25.98,5.72,33.36
			c4.83,8.04,18.09,11.05,27.39,7.19c10.14-4.22,17.4-11.83,20.84-20.67c2.32-5.96,2.58-13.71,3.4-22.04
			c0.75-7.61,6.81-14.33,8.82-22.42c0.1-0.42-4.57-1.6-4.45-2.01c0.12-0.41-1.59-1.01-1.45-1.42c1.72-5.1,4.5-9.44,4.74-14.85
			c0.34-7.6,3.25-14.44,8.31-22.53c6.25-9.99,14-18.73,28.75-18.91c11.69-0.14,18.11-9.52,26.02-0.92c7.92,8.6-3.61,14.07-4.71,25.7
			c-3.66,38.54-9.4,81.15-0.1,126.34c0.19,0.91,3.8,1.14,3.99,2.1c0.45,2.25,0.26,7.31,1.06,10.55c1.57-1.91,1.9-7.79,3.73-9.67
			c5.29-5.42,16.67-7.91,21.4-13.72c-0.29-14.13-3.91-29.49-0.4-44.1c9.12-37.96,19.85-47.17,31.81-59.89
			c6.62-7.04,10.47-19.68,20.57-45.07c20.18-5.46,23.87,3.1,42.1,13.35c-1.9,9.67-2.64,16.51-3.03,19c0.41,4.01-5.25,6.87-5.9,9.88
			c-0.72,3.34,0.91,9.76-1.52,20c-8.44,35.55-25,68.3-46.78,98.34c0.04,0.92,3.21,2.92,3.25,3.84c0.15,3.11-5.65,6.46-5.53,9.55
			c0.03,0.68,3.99,5.02,3.98,5.68c1.3-0.49,4.12-1.89,5.37-2.34c3.4-1.22,9.11-5.13,10.44-6.49c0,0-1.62-0.24-1.71-0.09
			c17.51,11.59,22.07,6.21,34.68,23c-8.31,12.67-21.88,13.19-31.53,16.66c-1.44,0.52-0.38,7.7-1.76,8.24
			C357.49,509.18,348.03,509.8,341.13,509.8z M129.02,263.01c-3.26,1.39-4.01,2.47-6.85,4.15c-20.28,12.03-35.48,33.2-42.77,58.93
			c-8.96,31.61-8.75,63.55-7.81,101.1c3.93-1.37,3.3-5.66,6.83-8.65c21.55-18.3,32.37-48.17,41.52-79.19
			c0.42-1.44,1.76-2.68,2.19-4.14c0.2-8.86-2.76-16.83-2.03-25.77c-4.05-12.86-1.05-13.21-3.86-26.4c5.5-2.53,6.32-4.68,11.29-7.88
			C128.43,270.6,127.84,267.48,129.02,263.01z"/>
	</g>
	<g>
		<path class="st1" d="M937.47,667.22c-4.25,0-6.39-12.31-10.96-13.97c-16.6-6.01-21.13-17.05-24.03-26.93
			c-0.72-2.45-5.2-4.94-5.84-6.08c-5.04-8.83-4.37-21.41-7.96-29.95c-2.02,1.72-9.4,4.93-12.02,6.24
			c-20.38,10.19-41.02,5.78-58.58,1.94c-3.22-0.7-6.69,0.71-9.59,0.16c-1.22-0.23-1.57,1.66-2.79,1.44
			c-20.34-3.82-56.91-9.55-68.03-36.5c-4.02-9.75,0.8-22.07,2.94-30.25c-1.29,0.4,1.66,4.5,0.66,4.99c-0.7,0.34,0.52,4.12-0.2,4.41
			c-0.72,0.29-5.32-12.38-6.05-12.15c-27.17,8.58-38.16,19.79-51.35,26.42c-13.72,6.9-30.39,7.39-59.22,16.78
			c-25.4,11.46-49.03,9.65-70.16,1.95c-1.62-0.59-3.51,0.15-5.1-0.42c-1.09-0.11-2.93-6.86-4.51-6.86
			c-8.69,0.01-28.24,7.09-37.25-6.97c-12.86-20.08-1.54-45.2,6.16-58.99c2.03-3.63,3.14-6.87,4.24-9.5c1.38-3.3,7.28-4.32,8.72-7.62
			c-12.07,2.33-25.84,3.29-37.34-0.79c-15.99-5.69-34.47-16.17-40.13-30.65c-7.78-19.9,1.03-44.34,6.53-60.17
			c2.11-6.06,6.17-10.53,7.09-15.36c0.91-4.81,11.86-10.64,11.75-17.34c-0.23-13.94-11.11-32.96-1.6-48.05
			c10.81-17.16,33.3-13.11,49.61-11.21c0.18-0.08-0.43-7.21-0.28-7.28c5.73-2.47,16.58-0.56,28.64,8.96
			c21.22,16.74,39.17,40.5,46.03,65.43c31.32-45.8,64.27-98.54,109.07-144.83c21.06-21.76,39.3-10.01,48.49-5.32
			c9.51,4.86,16.96-4.99,20.16,5.2c3.2,10.19-0.78,10.5-5.81,19.93c-40.5,75.98-105.92,143.25-187.53,214.66
			c-8.57,16.4-14.97,35.26-21.86,51.79c-2.02,4.84,3.49,13.77,0.98,18.27c-1,1.8-13.22,5.73-14.4,8
			c3.98,0.18,15.15-10.92,19.43-9.39c1.9,0.68-0.15,12.41,1.78,13.11c15.55,5.67,33.36,7.02,43.22,2.24
			c0.65-0.32,2.75,4.95,3.42,4.68c0.67-0.27-3.88-13.05-3.19-13.27c26.59-8.59,39.26-11.52,52.33-18.09
			c13.88-6.98,30.42-9.71,59.9-19.11c7.45-3.36,13.41-12.51,20.15-13.9c1.07-0.22-2.93,6.82-1.84,6.58
			c-1.12-8.25,1.83-16.38,0.15-25.12c-4.07-21.19-6.69-43.52-4.59-66.67c0.67-7.41,1.78-18.99,7.91-22.8
			c6.25-3.89,16.25,3.28,23.54,6.1c5.11,1.97,6.29-1.61,9.91,2.5c3.62,4.11,5.51,3.45,6.82,8.77c2,8.13,5.59,16.12,9.61,25.1
			c6.02,13.45,4.1,30.49,5.77,47.53c1.26,12.88-7.77,18.05-13.22,23.24c1.26,5.78,15.81,21.43,10.53,28.84
			c-0.01,0.54-11.67-3.3-11.7-2.76c-0.11,8.56,4.25,16.87,1.9,23.59c-0.96,2.72-0.64,4.35-1,6.45c3.85,5.36,17.61,10.17,27.12,11.95
			c1.26,0.24,1.01,1.53,2.27,1.77c3.47,0.66,6.55,3.02,9.91,3.76c11.08,2.42,23.28,2.41,30.61,0.24c0.51-2.09-2.42-5.68-3.01-9.6
			c-0.35-2.31-5.49-3.3-5.33-5.63c0.16-2.33,14.4,0.07,15.07-2.17c3.04-10.26,4.56-19.36,6.77-27.09
			c12.14-42.4,5.68-58.78,34.71-104.71c5.29-11.28,17.42-18.42,21.53-29.53c6.36-17.21,12.36-35.2,17.05-54.36
			c6.3-25.75,8.19-53.68,19.9-78.77c8.02-17.19,20.03-41.32,46.46-51.43c14.63-5.59,13.75-11.06,26.54-2.02
			c12.79,9.04-2.68,9.79-3.06,25.44c-0.2,8.13,13.58,9.94,17.03,16.54c8.22,15.72,4.79,32.94-8.92,62.8
			c-10.6,23.08-29.46,56.41-68.73,102.25c12.63-2.86,25.58,4.37,40.87,8.34c20.4,5.3,40.15,14.43,58.3,23.92
			c6.58,3.44,16.92-1.47,22.85,1.4c6.27,3.03,8.67,2.71,12.22,8.69c3.55,5.99,0.22,7.84-0.13,14.79
			c-1.71,34.19-9.71,51.09-19.76,66.79c-5.68,8.88-9.84,17.83-15.59,33.1c-0.81,2.16-4.9,5.44-5.09,9.59
			c-0.49,10.85-2.64,24.08-11.84,35.5c-13,16.13-30.07,27.21-46.75,31.97c-7.23,2.06-18.86-8.19-24.13-5.65
			c-3.01,1.45-3.37,11.23-7.47,14.07C966.07,653.18,952.71,667.22,937.47,667.22z M918.7,547.49c2.1,16.38-1.74,35.23,9.42,54.77
			c3.08,5.4,7.96,8.65,9.46,13.75c0.27,0.91,3,0.32,3.32,1.39c3.43-1.84,11.17,0.42,14.23-1.7c5.25-3.63,8.44-10.06,14.41-12.94
			c8.52-4.11,16.97-7.05,25.6-9.51c11.55-3.29,21.53-8.2,26.27-13.8c0.81-1.93-0.98-7.42-0.81-11.28
			c0.34-7.48-3.06-18.25,0.11-26.65c7.3-19.38,19.33-30.38,25.54-40.09c6.56-10.26,9.4-16.02,11.63-29.53
			c-2.26-1.17-4.28,4.46-6.5,3.3c-37.16-19.41-64.76-43.49-82.26-30.09c-25.84,19.79-50.66,60.64-43.69,97.64
			C925.75,547.37,921.59,542.08,918.7,547.49z M549.98,568.1l6.66,5.35C556.64,570.77,549.98,568.1,549.98,568.1z M514.76,342.03
			c-1.89,4.97-12.84,10.43-12.71,18.54c0.14,8.52,4.28,16.71,2.57,25.74c-1.49,7.87-0.57,16.15-3.08,23.37
			c-3.4,9.79-13.17,22.57-11.04,28.03c2.66,6.82,20.88,10.42,31.03,7.34c6.93-2.1,12.85-2.15,18.14-1.82c0.9,0.06,1.8-1.89,2.8-1.86
			c2.7-2.29,3.57-5.45,6.22-7.74c4.72-8.79,5-16,10.18-24.76c-0.05-2.68,0.07,3.97-0.82,1.44c-3.58-25.95-9.48-52.03-25.16-69.51
			c-4.11,1.46-8.01,7.29-13.71,6.39C513.82,346.35,516.35,341.84,514.76,342.03z M1010.95,262.52c-1.61,2.72-13.15-0.67-14.77,2.8
			c-8.09,17.33-8.8,41.2-13.77,60.96c11.53-15.66,20.09-30.97,24.58-40.75c6.25-13.6,10.48-18.42,5.83-27.31
			C1012.51,257.62,1011.28,263.16,1010.95,262.52z"/>
		<path class="st2" d="M937.47,667.22c-4.25,0-6.39-12.31-10.96-13.97c-16.6-6.01-21.13-17.05-24.03-26.93
			c-0.72-2.45-5.2-4.94-5.84-6.08c-5.04-8.83-4.37-21.41-7.96-29.95c-2.02,1.72-9.4,4.93-12.02,6.24
			c-20.38,10.19-41.02,5.78-58.58,1.94c-3.22-0.7-6.69,0.71-9.59,0.16c-1.22-0.23-1.57,1.66-2.79,1.44
			c-20.34-3.82-56.91-9.55-68.03-36.5c-4.02-9.75,0.8-22.07,2.94-30.25c-1.29,0.4,1.66,4.5,0.66,4.99c-0.7,0.34,0.52,4.12-0.2,4.41
			c-0.72,0.29-5.32-12.38-6.05-12.15c-27.17,8.58-38.16,19.79-51.35,26.42c-13.72,6.9-30.39,7.39-59.22,16.78
			c-25.4,11.46-49.03,9.65-70.16,1.95c-1.62-0.59-3.51,0.15-5.1-0.42c-1.09-0.11-2.93-6.86-4.51-6.86
			c-8.69,0.01-28.24,7.09-37.25-6.97c-12.86-20.08-1.54-45.2,6.16-58.99c2.03-3.63,3.14-6.87,4.24-9.5c1.38-3.3,7.28-4.32,8.72-7.62
			c-12.07,2.33-25.84,3.29-37.34-0.79c-15.99-5.69-34.47-16.17-40.13-30.65c-7.78-19.9,1.03-44.34,6.53-60.17
			c2.11-6.06,6.17-10.53,7.09-15.36c0.91-4.81,11.86-10.64,11.75-17.34c-0.23-13.94-11.11-32.96-1.6-48.05
			c10.81-17.16,33.3-13.11,49.61-11.21c0.18-0.08-0.43-7.21-0.28-7.28c5.73-2.47,16.58-0.56,28.64,8.96
			c21.22,16.74,39.17,40.5,46.03,65.43c31.32-45.8,64.27-98.54,109.07-144.83c21.06-21.76,39.3-10.01,48.49-5.32
			c9.51,4.86,16.96-4.99,20.16,5.2c3.2,10.19-0.78,10.5-5.81,19.93c-40.5,75.98-105.92,143.25-187.53,214.66
			c-8.57,16.4-14.97,35.26-21.86,51.79c-2.02,4.84,3.49,13.77,0.98,18.27c-1,1.8-13.22,5.73-14.4,8
			c3.98,0.18,15.15-10.92,19.43-9.39c1.9,0.68-0.15,12.41,1.78,13.11c15.55,5.67,33.36,7.02,43.22,2.24
			c0.65-0.32,2.75,4.95,3.42,4.68c0.67-0.27-3.88-13.05-3.19-13.27c26.59-8.59,39.26-11.52,52.33-18.09
			c13.88-6.98,30.42-9.71,59.9-19.11c7.45-3.36,13.41-12.51,20.15-13.9c1.07-0.22-2.93,6.82-1.84,6.58
			c-1.12-8.25,1.83-16.38,0.15-25.12c-4.07-21.19-6.69-43.52-4.59-66.67c0.67-7.41,1.78-18.99,7.91-22.8
			c6.25-3.89,16.25,3.28,23.54,6.1c5.11,1.97,6.29-1.61,9.91,2.5c3.62,4.11,5.51,3.45,6.82,8.77c2,8.13,5.59,16.12,9.61,25.1
			c6.02,13.45,4.1,30.49,5.77,47.53c1.26,12.88-7.77,18.05-13.22,23.24c1.26,5.78,15.81,21.43,10.53,28.84
			c-0.01,0.54-11.67-3.3-11.7-2.76c-0.11,8.56,4.25,16.87,1.9,23.59c-0.96,2.72-0.64,4.35-1,6.45c3.85,5.36,17.61,10.17,27.12,11.95
			c1.26,0.24,1.01,1.53,2.27,1.77c3.47,0.66,6.55,3.02,9.91,3.76c11.08,2.42,23.28,2.41,30.61,0.24c0.51-2.09-2.42-5.68-3.01-9.6
			c-0.35-2.31-5.49-3.3-5.33-5.63c0.16-2.33,14.4,0.07,15.07-2.17c3.04-10.26,4.56-19.36,6.77-27.09
			c12.14-42.4,5.68-58.78,34.71-104.71c5.29-11.28,17.42-18.42,21.53-29.53c6.36-17.21,12.36-35.2,17.05-54.36
			c6.3-25.75,8.19-53.68,19.9-78.77c8.02-17.19,20.03-41.32,46.46-51.43c14.63-5.59,13.75-11.06,26.54-2.02
			c12.79,9.04-2.68,9.79-3.06,25.44c-0.2,8.13,13.58,9.94,17.03,16.54c8.22,15.72,4.79,32.94-8.92,62.8
			c-10.6,23.08-29.46,56.41-68.73,102.25c12.63-2.86,25.58,4.37,40.87,8.34c20.4,5.3,40.15,14.43,58.3,23.92
			c6.58,3.44,16.92-1.47,22.85,1.4c6.27,3.03,8.67,2.71,12.22,8.69c3.55,5.99,0.22,7.84-0.13,14.79
			c-1.71,34.19-9.71,51.09-19.76,66.79c-5.68,8.88-9.84,17.83-15.59,33.1c-0.81,2.16-4.9,5.44-5.09,9.59
			c-0.49,10.85-2.64,24.08-11.84,35.5c-13,16.13-30.07,27.21-46.75,31.97c-7.23,2.06-18.86-8.19-24.13-5.65
			c-3.01,1.45-3.37,11.23-7.47,14.07C966.07,653.18,952.71,667.22,937.47,667.22z M918.7,547.49c2.1,16.38-1.74,35.23,9.42,54.77
			c3.08,5.4,7.96,8.65,9.46,13.75c0.27,0.91,3,0.32,3.32,1.39c3.43-1.84,11.17,0.42,14.23-1.7c5.25-3.63,8.44-10.06,14.41-12.94
			c8.52-4.11,16.97-7.05,25.6-9.51c11.55-3.29,21.53-8.2,26.27-13.8c0.81-1.93-0.98-7.42-0.81-11.28
			c0.34-7.48-3.06-18.25,0.11-26.65c7.3-19.38,19.33-30.38,25.54-40.09c6.56-10.26,9.4-16.02,11.63-29.53
			c-2.26-1.17-4.28,4.46-6.5,3.3c-37.16-19.41-64.76-43.49-82.26-30.09c-25.84,19.79-50.66,60.64-43.69,97.64
			C925.75,547.37,921.59,542.08,918.7,547.49z M549.98,568.1l6.66,5.35C556.64,570.77,549.98,568.1,549.98,568.1z M514.76,342.03
			c-1.89,4.97-12.84,10.43-12.71,18.54c0.14,8.52,4.28,16.71,2.57,25.74c-1.49,7.87-0.57,16.15-3.08,23.37
			c-3.4,9.79-13.17,22.57-11.04,28.03c2.66,6.82,20.88,10.42,31.03,7.34c6.93-2.1,12.85-2.15,18.14-1.82c0.9,0.06,1.8-1.89,2.8-1.86
			c2.7-2.29,3.57-5.45,6.22-7.74c4.72-8.79,5-16,10.18-24.76c-0.05-2.68,0.07,3.97-0.82,1.44c-3.58-25.95-9.48-52.03-25.16-69.51
			c-4.11,1.46-8.01,7.29-13.71,6.39C513.82,346.35,516.35,341.84,514.76,342.03z M1010.95,262.52c-1.61,2.72-13.15-0.67-14.77,2.8
			c-8.09,17.33-8.8,41.2-13.77,60.96c11.53-15.66,20.09-30.97,24.58-40.75c6.25-13.6,10.48-18.42,5.83-27.31
			C1012.51,257.62,1011.28,263.16,1010.95,262.52z"/>
	</g>
	<g>
		<path class="st1" d="M1462.34,691.69c-4.23,0-8.27-1.1-11.91-1.52c-0.82-0.1-1.98,2.79-2.83,2.7c-8.58-0.95-15.2,4.49-20.9-2
			c-6.48-7.4-0.13-13.13-0.96-22.93c-2.32-27.26-3.18-56.45,7.39-85.01c1.01-2.72,7.21-3.9,8.29-6.57
			c-0.52,0.42-8.14-4.74-8.67-4.31c-12.57,10.12-24.3,20.73-42.7,25.11c-29.19,6.94-56.03,4.84-78.39-6.44
			c-2.41-1.22-2.17-2.95-4.2-4.73c-2.03-1.78-5.66,0.02-7.18-2.21c-7.85-11.47-9.35-22.62-11.26-28.43
			c-0.01-0.03,4.81-0.31,4.81-0.34c-18.07,14.07-39.57,18.78-59.61,28.16c-4.99,2.33-6.79,11.75-11.92,14.25
			c-4.12,2-10.2,1.61-15.04,4.64c-14.69,9.19-32.14,12.9-53.94,9.37c-15.38-2.49-22.31-8.78-25.05-15.27
			c-0.33-0.78,2.1-3.61,1.78-4.28c-0.11-0.18-2.77,1.37-2.9,1.22c-7.7-8.77-21.11-24.57-14.96-44.87c0.4-1.3,0.68-3.43,1.14-4.69
			c-5.58-10.48-16.37-8.43-14.79-20.2c16.04-9.43,34.58-17.3,51.07-24.84c0.31-0.26,3.66,3.18,3.97,2.92
			c6.78-5.71,6.84-17.62,11.71-23.12c22.27-25.11,44.67-51.72,64.16-79.58c29.59-42.29,59.97-86.8,100.18-121.67
			c29.28-25.4,67.51-34.3,93.32-34.53c23.53-0.18,49.43,6.43,71.73,10.63c4.55,0.86,9.42-0.63,13.8,0.15
			c11.43,2.05,16.55-0.92,22.69,8.93c6.15,9.85-10.66,9.75-13.84,20.92c-10.8,37.87-44.59,53.59-76.04,67.16
			c-6.83,2.95-15.1,2.31-20.95,5.14c-38.61,18.68-66.85,55.5-101.83,85.55c-22.3,19.15-46.37,37.98-71.08,55.1
			c-23.08,16-51.16,22.07-75.68,33.24c-0.46,0.21,2.47,6.52,2.01,6.73c-8.97,7.69-11.39,14.84-14.79,22.86
			c1.48,2.32-2.36,4.65-0.55,6.71c0.51,0.59-1.18,2.06-0.67,2.65c2.72,3.11,5.26,11.21,6.67,14.28c5.63-1.89,10.38-17.51,17.07-21.7
			c5.56-3.48,15.45-0.03,21.58-3.02c5.41-2.63,9.95-6.67,15.07-9.07c23.48-10.99,40.27-24.2,57.56-41.69
			c5.74-5.8,6.34-9.78,14.43-10.84c8.09-1.06,4.04,12.28,11.08,16.41c19.79,11.61,31.36,14.92,35.34,27.03
			c1.2,3.63-1.15,7.76,1.26,11.99c17.95,8.7,32.61,19.63,45.39,16.59c9.16-2.18,19.18-13.54,29.16-21.58
			c7.59-6.11,13.01-15.61,22.03-20.73c14.37-8.16,28.32-16.54,42.25-24.91c3.44-5.58,10.54-8.46,13.99-13.96
			c10.62-16.96,18.71-36.32,28.07-53.79c2.73-5.1,8.28-8.9,11.15-14.47c20.07-38.97,41.34-92.19,90.31-103.25
			c10.25-2.31,24.62,0.03,33.57,7.48c4.71,3.92,0.87,15.91,5.02,22.58c11.53,18.53,15.96,30.19,7.15,43.51
			c-39.96,60.41-94.67,105.39-157.68,143.92c-13.09,21.61-29.94,40.64-38.36,63.41c-5.26,14.22-0.56,33.15,0.33,49.6
			c59.84-39.42,113.34-91.83,164.87-141.84c7.51-7.29,14.43-16.02,21.96-23.27c17.79,11.16,20.33,11.41,30.84,29.59
			c-7.48,7.21-12.71,20.02-20.19,27.27c-54.46,52.87-113.85,105.02-179.31,147.1C1479.43,690.71,1469.86,691.69,1462.34,691.69z
			 M1626.02,362.38c-27.23,9.12-44.31,41.86-61.13,74.53c-1.56,3.03-6.05,2.74-7.65,5.81c27.63-22.23,49.68-46.82,69.17-75.55
			c-0.47-1.14,0.39,1.88-1.17-0.63C1624.24,364.93,1626.71,363.25,1626.02,362.38z M1424.48,290.79c-0.38,0-0.76-0.63-1.14-0.63
			c-33.97,0.29-51.55,13.64-62.38,23.03c-36.28,31.47-62.03,71.51-91.45,113.56c-2.43,3.47-11.24,0.9-13.69,4.4
			c10.77-8.81,21.9-16.55,32.32-25.5c35.49-30.47,74.97-57.42,118.5-78.48c6.67-3.23,14.81-3.72,21.75-6.71
			c14.85-6.41,33.04-20.41,44.21-28.39C1457.9,289.54,1437.84,290.79,1424.48,290.79z"/>
		<path class="st2" d="M1462.34,691.69c-4.23,0-8.27-1.1-11.91-1.52c-0.82-0.1-1.98,2.79-2.83,2.7c-8.58-0.95-15.2,4.49-20.9-2
			c-6.48-7.4-0.13-13.13-0.96-22.93c-2.32-27.26-3.18-56.45,7.39-85.01c1.01-2.72,7.21-3.9,8.29-6.57
			c-0.52,0.42-8.14-4.74-8.67-4.31c-12.57,10.12-24.3,20.73-42.7,25.11c-29.19,6.94-56.03,4.84-78.39-6.44
			c-2.41-1.22-2.17-2.95-4.2-4.73c-2.03-1.78-5.66,0.02-7.18-2.21c-7.85-11.47-9.35-22.62-11.26-28.43
			c-0.01-0.03,4.81-0.31,4.81-0.34c-18.07,14.07-39.57,18.78-59.61,28.16c-4.99,2.33-6.79,11.75-11.92,14.25
			c-4.12,2-10.2,1.61-15.04,4.64c-14.69,9.19-32.14,12.9-53.94,9.37c-15.38-2.49-22.31-8.78-25.05-15.27
			c-0.33-0.78,2.1-3.61,1.78-4.28c-0.11-0.18-2.77,1.37-2.9,1.22c-7.7-8.77-21.11-24.57-14.96-44.87c0.4-1.3,0.68-3.43,1.14-4.69
			c-5.58-10.48-16.37-8.43-14.79-20.2c16.04-9.43,34.58-17.3,51.07-24.84c0.31-0.26,3.66,3.18,3.97,2.92
			c6.78-5.71,6.84-17.62,11.71-23.12c22.27-25.11,44.67-51.72,64.16-79.58c29.59-42.29,59.97-86.8,100.18-121.67
			c29.28-25.4,67.51-34.3,93.32-34.53c23.53-0.18,49.43,6.43,71.73,10.63c4.55,0.86,9.42-0.63,13.8,0.15
			c11.43,2.05,16.55-0.92,22.69,8.93c6.15,9.85-10.66,9.75-13.84,20.92c-10.8,37.87-44.59,53.59-76.04,67.16
			c-6.83,2.95-15.1,2.31-20.95,5.14c-38.61,18.68-66.85,55.5-101.83,85.55c-22.3,19.15-46.37,37.98-71.08,55.1
			c-23.08,16-51.16,22.07-75.68,33.24c-0.46,0.21,2.47,6.52,2.01,6.73c-8.97,7.69-11.39,14.84-14.79,22.86
			c1.48,2.32-2.36,4.65-0.55,6.71c0.51,0.59-1.18,2.06-0.67,2.65c2.72,3.11,5.26,11.21,6.67,14.28c5.63-1.89,10.38-17.51,17.07-21.7
			c5.56-3.48,15.45-0.03,21.58-3.02c5.41-2.63,9.95-6.67,15.07-9.07c23.48-10.99,40.27-24.2,57.56-41.69
			c5.74-5.8,6.34-9.78,14.43-10.84c8.09-1.06,4.04,12.28,11.08,16.41c19.79,11.61,31.36,14.92,35.34,27.03
			c1.2,3.63-1.15,7.76,1.26,11.99c17.95,8.7,32.61,19.63,45.39,16.59c9.16-2.18,19.18-13.54,29.16-21.58
			c7.59-6.11,13.01-15.61,22.03-20.73c14.37-8.16,28.32-16.54,42.25-24.91c3.44-5.58,10.54-8.46,13.99-13.96
			c10.62-16.96,18.71-36.32,28.07-53.79c2.73-5.1,8.28-8.9,11.15-14.47c20.07-38.97,41.34-92.19,90.31-103.25
			c10.25-2.31,24.62,0.03,33.57,7.48c4.71,3.92,0.87,15.91,5.02,22.58c11.53,18.53,15.96,30.19,7.15,43.51
			c-39.96,60.41-94.67,105.39-157.68,143.92c-13.09,21.61-29.94,40.64-38.36,63.41c-5.26,14.22-0.56,33.15,0.33,49.6
			c59.84-39.42,113.34-91.83,164.87-141.84c7.51-7.29,14.43-16.02,21.96-23.27c17.79,11.16,20.33,11.41,30.84,29.59
			c-7.48,7.21-12.71,20.02-20.19,27.27c-54.46,52.87-113.85,105.02-179.31,147.1C1479.43,690.71,1469.86,691.69,1462.34,691.69z
			 M1626.02,362.38c-27.23,9.12-44.31,41.86-61.13,74.53c-1.56,3.03-6.05,2.74-7.65,5.81c27.63-22.23,49.68-46.82,69.17-75.55
			c-0.47-1.14,0.39,1.88-1.17-0.63C1624.24,364.93,1626.71,363.25,1626.02,362.38z M1424.48,290.79c-0.38,0-0.76-0.63-1.14-0.63
			c-33.97,0.29-51.55,13.64-62.38,23.03c-36.28,31.47-62.03,71.51-91.45,113.56c-2.43,3.47-11.24,0.9-13.69,4.4
			c10.77-8.81,21.9-16.55,32.32-25.5c35.49-30.47,74.97-57.42,118.5-78.48c6.67-3.23,14.81-3.72,21.75-6.71
			c14.85-6.41,33.04-20.41,44.21-28.39C1457.9,289.54,1437.84,290.79,1424.48,290.79z"/>
	</g>
	<g>
		<path class="st1" d="M993.97,1005.18c-26.87,0-47.5,2.12-59.52-1.59c-16.12-4.98-27.7,3.57-31.99-12.75
			c-4.29-16.32,20.17-4.96,31.75-17.23c37.88-40.1,79.88-79.14,140.43-108.16c0.37-0.18-7.79-0.73-7.94-1.12
			c-0.31-0.85,2.37-9.76,2.13-10.64c-14.41,9.53-26.57,2.05-38.67-0.51c-4.88-1.04-12.83,8.43-15.6,8.73
			c-5.44,0.59-12.71-6.1-19.18-5.06c-27.01,4.35-64.25,11.76-87.04-9.3c-21.07,43.16-51.35,85.27-77.46,119.69
			c-4.95,6.52-2.97,8.86-16.12,3c-2.33-1.04-8.99,2.12-11.04,0.91c-9.22,1.66-20.51,9.28-28.17,5.32
			c-8.57-4.43-17.76-14.59-19.8-23.82c-6.59-29.79,11.13-58.86,23.71-82.59c4.44-8.38,1.77-18.82,4.78-26.27
			c3.22-7.98,5.32-15.68,6.65-26.53c0.56-4.58,8.33-14.13,9.1-18.96c-6.44,5.54-15.73,11.58-19.43,15.2
			c-0.85,0.83,9.11,12.36,8.17,13.09c-0.94,0.73-8.98-10.6-10-9.98c-6.06,3.71-8.59,15.84-14.61,23.5
			c-8.37,10.64-21.8,15.62-36.06,23.2c-29.92,15.9-65.58,27.75-100.53,13.5c-2.38,1.19-5.55-8.02-8.13-7.09
			c-13.67,4.92-12.15-1.39-16.66-8.24c-4.53-6.89-17.81-13.56-9.26-24.55c2.47-3.18,11.54,0.06,14.15-2.35
			c0.45-0.41,7.68-3.34,8.19-3.82c6.49-37.97-4.3-90.29,25.68-120.33c19.33-19.37,47.79-31.35,71.65-40.86
			c13.49-5.38,35.38,8.2,46.35,1.71c6.3-3.73,10.58-16.4,17.39-23.55c11.32-11.89,19.8-32.43,38.06-38.13
			c30.17-9.41,60.26,1.8,85.34,9.2c6.1,1.8,12.9-0.77,18.73,0.73c6.29,1.62-2.04,8.63,1.23,3.02c11.69-44.85,43.9-76.18,56.68-99.21
			c6.34-11.42,7.44-28.96,18.31-31.08c9.14-1.79,20.32,3.97,27.67,9.89c5.16,4.15,2,5.18,4.15,11.45c2.15,6.27-2.38,3.33-3.91,9.77
			c-15.93,67.22-38.42,155.37-70.04,233.45c-1.95,4.82-9.83,8.38-11.94,13.46c-0.23,4.75,4.22,10.55,4.35,14.44
			c0.31,9.27,6.22,20.42,3.72,28.17c-1.04,3.22-10.26,5.63-10.71,8.33c8.11,7.7,33,9.79,52.18,6.7
			c6.71-1.08,11.93-15.17,18.46-15.87c9.44-1.02,19.78,6.43,27.99,8.17c3.77,0.8,7.65-4.31,10.63-4.3c0.94-0.22-0.12,3.15,0.68,2.61
			c5.73-3.86,13.36-1.65,16.34-7.85c4.47-9.31,10.48-18.57,31.81-26.91c8.84-3.46,5.08-22.98,14.55-23.56
			c3.17-0.19-2.63,16.86-0.63,19.32c0.99-0.88,2.91-8.74,3.88-9.61c26.53-23.87,43.34-28.26,56.13-30.63
			c12.69-2.35,26.32-9.17,44.38-4.59c9.02-9.92,22.53-13.3,37.34-28.06c7.96-7.94,21.22-26.27,31.25-36.4
			c18.88,9.2,26.43,14.73,35.75,33.54c-10.13,10.23-23.08,30.91-31.09,38.89c-3.52,3.51-13.3-5.11-16.44-1.96
			c8.37,0.06,16.14-6.01,17.1,2.31c2.11,18.35,1.24,20.48-5.17,37.81c-1.71,4.65-8.74,8.38-12.53,14.5
			c-0.27,1.43-11.77-3.95-11.89-2.5c-0.18,2.23,4.94,6.02,7.18,5.98c69.54-4.29,137.99,15.51,205.59,33.59
			c20.88,5.59,47.42-18.62,51.52,2.61c4.1,21.23-23.46,16.77-40.76,29.73c-62.15,46.56-118.7,57.9-174.83,77.75
			c-30.5,10.79-57.87,32.27-94.18,48.7c-17.16,7.77-47.88,5.67-89.22,6.17c-20.68,0.25-43.86-0.5-53.25,1.94
			C1041.34,1007.08,1015.26,1005.18,993.97,1005.18z M813.53,976.73c-0.01,0-0.02-6.54-0.03-6.54
			C813.5,970.19,813.52,976.73,813.53,976.73z M984.07,964.82c22.46,0.69,49.93-3.69,75.6-10.37c14.35-3.74,37.95-1.68,64.37-2
			c23.75-0.29,64.14,9.88,74.58,5.16c37.93-17.17,66.83-35.75,98.16-46.83c42.57-15.05,73.89-27.88,115.17-52.75
			c-64.96-14.81-127.21-32.8-190.36-19.41c-2.9,0.77-7.5,2.19-9.51,4.42c-11.15,12.44-25.74,28.66-57.9,32.94
			c-0.57,0.08-3.57-7.19-4.14-7.12C1082.12,894.25,1026.73,928.92,984.07,964.82z M805.81,936.25c3.42,0,4.22-4.62,7.14-3.48
			c20.83-29.91,51.08-76.7,84.38-153.35c-5.18-2.82-11.18-15.32-16.36-16.5c-13.75,3.71-30.43,17.23-35.16,25.46
			c-4.83,8.4,2.95,22.88,1.37,35.76c-1.6,13.07-16.11,23.28-21.4,36.38c-3.83,9.49-11.13,16.7-15.89,25.66
			c-8.08,15.22-5.95,34.27-7.04,47.01C804.31,932.91,804.43,936.25,805.81,936.25z M643.99,836.44c22.92,8.86,48.1,3.65,66.54-6.15
			c6.43-3.42,13.37-8.73,19.73-16.83c7.23-9.19,23.11-10.94,34.46-18.5c29.29-28.33,51.56-51.55,79-58.59
			c13.13-3.37,25.49-13.88,38.08-12.33c7.57-1.17,21.71,10.22,31.68,13.97c2.25-16.27,10.13-40.48,13.88-58.7
			c-5.67,8.22-22.1,19.06-32.98,25.62c-67.92,40.97-148.02,51.56-223.44,68.95c-4.71,1.09-12.52,5.74-17.21,6.83
			C648.34,796.49,646.99,818.96,643.99,836.44z M1127.91,815.74c0.45,1.43,2.8,2.01,3.28,3.5c2.36-2.28,5.66-1.91,8.94-3.44
			c5.66-2.63,19.41,4.14,25.22,3.08c8.47-12.91,13.02-29.16,24.98-37.71c-4.04-0.78-7.4,3.12-9.51,3.22
			c-6.79,3.28-31.66,8.27-39.51,15.33C1135.27,805.17,1131.97,812.52,1127.91,815.74z M1179.06,781.25c0,0,0-6.55,0-6.55
			C1179.06,774.7,1179.06,781.25,1179.06,781.25z M844.61,648.06c-5.4,0-9.74,7.09-14.92,8.71c-7.86,2.45-16.38,8.44-24.94,17.43
			c-8.49,8.92-23.3,8.29-34.62,14.99c-13.78,8.15-24.21,20.7-38.59,26.43c-8.37,3.34-16.84,2.76-24.49,6.33
			c57.41-14.04,119.22-18.74,168.4-48.41c4.31-2.6,9.69-19.07,12.45-22.76C874.37,646.84,856.37,648.06,844.61,648.06z"/>
		<path class="st2" d="M993.97,1005.18c-26.87,0-47.5,2.12-59.52-1.59c-16.12-4.98-27.7,3.57-31.99-12.75
			c-4.29-16.32,20.17-4.96,31.75-17.23c37.88-40.1,79.88-79.14,140.43-108.16c0.37-0.18-7.79-0.73-7.94-1.12
			c-0.31-0.85,2.37-9.76,2.13-10.64c-14.41,9.53-26.57,2.05-38.67-0.51c-4.88-1.04-12.83,8.43-15.6,8.73
			c-5.44,0.59-12.71-6.1-19.18-5.06c-27.01,4.35-64.25,11.76-87.04-9.3c-21.07,43.16-51.35,85.27-77.46,119.69
			c-4.95,6.52-2.97,8.86-16.12,3c-2.33-1.04-8.99,2.12-11.04,0.91c-9.22,1.66-20.51,9.28-28.17,5.32
			c-8.57-4.43-17.76-14.59-19.8-23.82c-6.59-29.79,11.13-58.86,23.71-82.59c4.44-8.38,1.77-18.82,4.78-26.27
			c3.22-7.98,5.32-15.68,6.65-26.53c0.56-4.58,8.33-14.13,9.1-18.96c-6.44,5.54-15.73,11.58-19.43,15.2
			c-0.85,0.83,9.11,12.36,8.17,13.09c-0.94,0.73-8.98-10.6-10-9.98c-6.06,3.71-8.59,15.84-14.61,23.5
			c-8.37,10.64-21.8,15.62-36.06,23.2c-29.92,15.9-65.58,27.75-100.53,13.5c-2.38,1.19-5.55-8.02-8.13-7.09
			c-13.67,4.92-12.15-1.39-16.66-8.24c-4.53-6.89-17.81-13.56-9.26-24.55c2.47-3.18,11.54,0.06,14.15-2.35
			c0.45-0.41,7.68-3.34,8.19-3.82c6.49-37.97-4.3-90.29,25.68-120.33c19.33-19.37,47.79-31.35,71.65-40.86
			c13.49-5.38,35.38,8.2,46.35,1.71c6.3-3.73,10.58-16.4,17.39-23.55c11.32-11.89,19.8-32.43,38.06-38.13
			c30.17-9.41,60.26,1.8,85.34,9.2c6.1,1.8,12.9-0.77,18.73,0.73c6.29,1.62-2.04,8.63,1.23,3.02c11.69-44.85,43.9-76.18,56.68-99.21
			c6.34-11.42,7.44-28.96,18.31-31.08c9.14-1.79,20.32,3.97,27.67,9.89c5.16,4.15,2,5.18,4.15,11.45c2.15,6.27-2.38,3.33-3.91,9.77
			c-15.93,67.22-38.42,155.37-70.04,233.45c-1.95,4.82-9.83,8.38-11.94,13.46c-0.23,4.75,4.22,10.55,4.35,14.44
			c0.31,9.27,6.22,20.42,3.72,28.17c-1.04,3.22-10.26,5.63-10.71,8.33c8.11,7.7,33,9.79,52.18,6.7
			c6.71-1.08,11.93-15.17,18.46-15.87c9.44-1.02,19.78,6.43,27.99,8.17c3.77,0.8,7.65-4.31,10.63-4.3c0.94-0.22-0.12,3.15,0.68,2.61
			c5.73-3.86,13.36-1.65,16.34-7.85c4.47-9.31,10.48-18.57,31.81-26.91c8.84-3.46,5.08-22.98,14.55-23.56
			c3.17-0.19-2.63,16.86-0.63,19.32c0.99-0.88,2.91-8.74,3.88-9.61c26.53-23.87,43.34-28.26,56.13-30.63
			c12.69-2.35,26.32-9.17,44.38-4.59c9.02-9.92,22.53-13.3,37.34-28.06c7.96-7.94,21.22-26.27,31.25-36.4
			c18.88,9.2,26.43,14.73,35.75,33.54c-10.13,10.23-23.08,30.91-31.09,38.89c-3.52,3.51-13.3-5.11-16.44-1.96
			c8.37,0.06,16.14-6.01,17.1,2.31c2.11,18.35,1.24,20.48-5.17,37.81c-1.71,4.65-8.74,8.38-12.53,14.5
			c-0.27,1.43-11.77-3.95-11.89-2.5c-0.18,2.23,4.94,6.02,7.18,5.98c69.54-4.29,137.99,15.51,205.59,33.59
			c20.88,5.59,47.42-18.62,51.52,2.61c4.1,21.23-23.46,16.77-40.76,29.73c-62.15,46.56-118.7,57.9-174.83,77.75
			c-30.5,10.79-57.87,32.27-94.18,48.7c-17.16,7.77-47.88,5.67-89.22,6.17c-20.68,0.25-43.86-0.5-53.25,1.94
			C1041.34,1007.08,1015.26,1005.18,993.97,1005.18z M813.53,976.73c-0.01,0-0.02-6.54-0.03-6.54
			C813.5,970.19,813.52,976.73,813.53,976.73z M984.07,964.82c22.46,0.69,49.93-3.69,75.6-10.37c14.35-3.74,37.95-1.68,64.37-2
			c23.75-0.29,64.14,9.88,74.58,5.16c37.93-17.17,66.83-35.75,98.16-46.83c42.57-15.05,73.89-27.88,115.17-52.75
			c-64.96-14.81-127.21-32.8-190.36-19.41c-2.9,0.77-7.5,2.19-9.51,4.42c-11.15,12.44-25.74,28.66-57.9,32.94
			c-0.57,0.08-3.57-7.19-4.14-7.12C1082.12,894.25,1026.73,928.92,984.07,964.82z M805.81,936.25c3.42,0,4.22-4.62,7.14-3.48
			c20.83-29.91,51.08-76.7,84.38-153.35c-5.18-2.82-11.18-15.32-16.36-16.5c-13.75,3.71-30.43,17.23-35.16,25.46
			c-4.83,8.4,2.95,22.88,1.37,35.76c-1.6,13.07-16.11,23.28-21.4,36.38c-3.83,9.49-11.13,16.7-15.89,25.66
			c-8.08,15.22-5.95,34.27-7.04,47.01C804.31,932.91,804.43,936.25,805.81,936.25z M643.99,836.44c22.92,8.86,48.1,3.65,66.54-6.15
			c6.43-3.42,13.37-8.73,19.73-16.83c7.23-9.19,23.11-10.94,34.46-18.5c29.29-28.33,51.56-51.55,79-58.59
			c13.13-3.37,25.49-13.88,38.08-12.33c7.57-1.17,21.71,10.22,31.68,13.97c2.25-16.27,10.13-40.48,13.88-58.7
			c-5.67,8.22-22.1,19.06-32.98,25.62c-67.92,40.97-148.02,51.56-223.44,68.95c-4.71,1.09-12.52,5.74-17.21,6.83
			C648.34,796.49,646.99,818.96,643.99,836.44z M1127.91,815.74c0.45,1.43,2.8,2.01,3.28,3.5c2.36-2.28,5.66-1.91,8.94-3.44
			c5.66-2.63,19.41,4.14,25.22,3.08c8.47-12.91,13.02-29.16,24.98-37.71c-4.04-0.78-7.4,3.12-9.51,3.22
			c-6.79,3.28-31.66,8.27-39.51,15.33C1135.27,805.17,1131.97,812.52,1127.91,815.74z M1179.06,781.25c0,0,0-6.55,0-6.55
			C1179.06,774.7,1179.06,781.25,1179.06,781.25z M844.61,648.06c-5.4,0-9.74,7.09-14.92,8.71c-7.86,2.45-16.38,8.44-24.94,17.43
			c-8.49,8.92-23.3,8.29-34.62,14.99c-13.78,8.15-24.21,20.7-38.59,26.43c-8.37,3.34-16.84,2.76-24.49,6.33
			c57.41-14.04,119.22-18.74,168.4-48.41c4.31-2.6,9.69-19.07,12.45-22.76C874.37,646.84,856.37,648.06,844.61,648.06z"/>
	</g>
	<g>
		<path class="st1" d="M1533.68,904.1c-23.59,0-48.25-2.12-75.52-6.15c-13.43-1.98-20.42,12.3-27.07,0.46
			c-6.65-11.84,9.44-10.26,14.74-22.76c5.15-12.14,11.82-24.37,19.85-34.84c4.09-18.55-2.52-19.08,3.58-37.07
			c9.98,0.7,13.44-5.26,23.26-4.35c5.33-5.11,12.15-4.88,17.35-9.68c4-3.7,5.22-9.9,8.93-13.4c6.1-5.76,17.83-6.18,24.14-12.76
			c20.54-21.43,39.75-43.22,69.73-53.83c30.91-10.93,59.78-12.45,88.84-9.75c7.55,0.7,15.6-3.19,23.21-2.74
			c14.42,0.85,22.13-5.95,29.92,6.21c7.79,12.16-6.33,14.48-11.59,27.93c-10.22,26.16-30.7,46.03-51.92,65.13
			c-20.81,18.74-41.9,39.26-69.03,47.41c-36.88,11.08-75.41,7.04-112.43,3.92c-5.23,5.49-11.14,16.15-15.57,21.88
			c57.29,5.18,103.99-6.03,140.66-22.94c6.44-2.97,12.98-5.67,19.28-8.27c14.93-6.17,27.24-14.05,38.48-22.65
			c32.58-24.94,59.86-55.12,81.38-83.1c4.59-5.97,9.85-11.5,14.47-17.18c13.33-16.37,23.67-32.63,31.61-49.87
			c16.51-35.85,28.18-72.98,38.87-113.32c3.57-13.48,5.21-28.03,9.13-41.71c0.16-0.56,9.46-0.42,9.49-0.89
			c-0.13,2.02-3.01,6.27,3.53,11.16c5.28,3.95,8,7.84,14.08,5.63c-4.07-20.6-14.03-18.42-17.13-39.19c8-2.9,24.05-3.91,30.18,1.81
			c9.53,8.89,3.75,23.54,0.97,33.26c-3.8,13.28-3.67,28.07-7.18,41.35c-10.68,40.3-23.1,81.55-41.13,120.7
			c-10.16,22.07-23.12,41.82-37.52,59.5c-4.64,5.7-12.14,8.61-16.38,14.12c-23.18,30.15-47.34,69.79-83.8,97.69
			c-15.61,11.95-35.89,15.4-52.67,22.34c-6.19,2.56-11.58,5.95-17.25,8.56C1619.58,902.18,1579.73,904.09,1533.68,904.1z
			 M1549.43,812.46c20.1,0.22,42.75-1.07,61.24-6.63c33.49-10.06,61.37-36.1,79.96-64.04c-22.9-2.04-46.83-7.84-66.87-0.75
			c-20.58,7.28-39.02,26.65-56.96,45.36C1560.79,792.66,1555.84,806.33,1549.43,812.46z"/>
		<path class="st2" d="M1533.68,904.1c-23.59,0-48.25-2.12-75.52-6.15c-13.43-1.98-20.42,12.3-27.07,0.46
			c-6.65-11.84,9.44-10.26,14.74-22.76c5.15-12.14,11.82-24.37,19.85-34.84c4.09-18.55-2.52-19.08,3.58-37.07
			c9.98,0.7,13.44-5.26,23.26-4.35c5.33-5.11,12.15-4.88,17.35-9.68c4-3.7,5.22-9.9,8.93-13.4c6.1-5.76,17.83-6.18,24.14-12.76
			c20.54-21.43,39.75-43.22,69.73-53.83c30.91-10.93,59.78-12.45,88.84-9.75c7.55,0.7,15.6-3.19,23.21-2.74
			c14.42,0.85,22.13-5.95,29.92,6.21c7.79,12.16-6.33,14.48-11.59,27.93c-10.22,26.16-30.7,46.03-51.92,65.13
			c-20.81,18.74-41.9,39.26-69.03,47.41c-36.88,11.08-75.41,7.04-112.43,3.92c-5.23,5.49-11.14,16.15-15.57,21.88
			c57.29,5.18,103.99-6.03,140.66-22.94c6.44-2.97,12.98-5.67,19.28-8.27c14.93-6.17,27.24-14.05,38.48-22.65
			c32.58-24.94,59.86-55.12,81.38-83.1c4.59-5.97,9.85-11.5,14.47-17.18c13.33-16.37,23.67-32.63,31.61-49.87
			c16.51-35.85,28.18-72.98,38.87-113.32c3.57-13.48,5.21-28.03,9.13-41.71c0.16-0.56,9.46-0.42,9.49-0.89
			c-0.13,2.02-3.01,6.27,3.53,11.16c5.28,3.95,8,7.84,14.08,5.63c-4.07-20.6-14.03-18.42-17.13-39.19c8-2.9,24.05-3.91,30.18,1.81
			c9.53,8.89,3.75,23.54,0.97,33.26c-3.8,13.28-3.67,28.07-7.18,41.35c-10.68,40.3-23.1,81.55-41.13,120.7
			c-10.16,22.07-23.12,41.82-37.52,59.5c-4.64,5.7-12.14,8.61-16.38,14.12c-23.18,30.15-47.34,69.79-83.8,97.69
			c-15.61,11.95-35.89,15.4-52.67,22.34c-6.19,2.56-11.58,5.95-17.25,8.56C1619.58,902.18,1579.73,904.09,1533.68,904.1z
			 M1549.43,812.46c20.1,0.22,42.75-1.07,61.24-6.63c33.49-10.06,61.37-36.1,79.96-64.04c-22.9-2.04-46.83-7.84-66.87-0.75
			c-20.58,7.28-39.02,26.65-56.96,45.36C1560.79,792.66,1555.84,806.33,1549.43,812.46z"/>
	</g>
	<g>
		<path class="st1" d="M833.94,299.02c-10.4,0-20.55-4.51-27.4-13.22c-8.34-10.6-11.13-26.06-7.06-38.62
			c5.15-15.87,19.26-28.04,37.64-34.41c10.14-3.51,19.69-4.14,28.63-4.57c10.22-0.49,12.77-8.44,20.42-1.65
			c7.66,6.79,1.2,10.19,1.95,20.39c1.47,20.11-5.53,38.2-18.82,48.31c-5.61,9.97-15.68,23.07-32.76,24.37
			C835.7,299.69,834.79,299.02,833.94,299.02z"/>
		<path class="st2" d="M833.94,299.02c-10.4,0-20.55-4.51-27.4-13.22c-8.34-10.6-11.13-26.06-7.06-38.62
			c5.15-15.87,19.26-28.04,37.64-34.41c10.14-3.51,19.69-4.14,28.63-4.57c10.22-0.49,12.77-8.44,20.42-1.65
			c7.66,6.79,1.2,10.19,1.95,20.39c1.47,20.11-5.53,38.2-18.82,48.31c-5.61,9.97-15.68,23.07-32.76,24.37
			C835.7,299.69,834.79,299.02,833.94,299.02z"/>
	</g>
	<g>
		<path class="st1" d="M1683.71,441.3c-22.5-16.82,10.67-26.59,18.55-53.55c6.27-21.47,10.43-43.8,17.46-64.5
			c6.88-20.28,15.45-40.79,21.47-61.4c4.36-14.91,6.96-28.57,4.8-37.59c-3.23,0.99-8.43,4.92-9.49,7.23
			c-19.61-7.52-26.5-0.34-38.59-17.5c10.19-22.41,37.29-35.79,63.5-30.37c4.17,0.86,5.14-0.69,8.68,1.68
			c3.54,2.37,2.68,3.71,5.07,7.24c13.96,20.59,13.27,46.8,3.49,80.25c-6.27,21.47-13.96,42.64-20.98,63.34
			c-2.58,7.59-2.62,15.96-5.19,23.68c7.33-1.36,14.25-3.52,21.37-4.6c11.02-1.67,23.59-3.08,33.66-5.48
			c9.63,18.66,10.44,20.98,9.47,41.96c-11.79,2.82-24.95,6.68-36.34,8.4c-11.02,1.67-21.42,2.48-31.48,4.89
			c-6.38,1.53-15.66,1.84-19.78,4.49C1713.37,437.02,1706.21,458.12,1683.71,441.3z"/>
		<path class="st2" d="M1683.71,441.3c-22.5-16.82,10.67-26.59,18.55-53.55c6.27-21.47,10.43-43.8,17.46-64.5
			c6.88-20.28,15.45-40.79,21.47-61.4c4.36-14.91,6.96-28.57,4.8-37.59c-3.23,0.99-8.43,4.92-9.49,7.23
			c-19.61-7.52-26.5-0.34-38.59-17.5c10.19-22.41,37.29-35.79,63.5-30.37c4.17,0.86,5.14-0.69,8.68,1.68
			c3.54,2.37,2.68,3.71,5.07,7.24c13.96,20.59,13.27,46.8,3.49,80.25c-6.27,21.47-13.96,42.64-20.98,63.34
			c-2.58,7.59-2.62,15.96-5.19,23.68c7.33-1.36,14.25-3.52,21.37-4.6c11.02-1.67,23.59-3.08,33.66-5.48
			c9.63,18.66,10.44,20.98,9.47,41.96c-11.79,2.82-24.95,6.68-36.34,8.4c-11.02,1.67-21.42,2.48-31.48,4.89
			c-6.38,1.53-15.66,1.84-19.78,4.49C1713.37,437.02,1706.21,458.12,1683.71,441.3z"/>
	</g>
	<g>
		<path class="st1" d="M1864.91,451.01c-15.81,13.82-25.42,11.75-40.27-3.09c2.41-36.74,4.43-73.75,4.13-110.77
			c-3.96,1.16-11.6-0.41-15.5,0.52c-16.83,4-22.32,24.82-34.47,12.51c-12.15-12.31,7.08-17.95,11.3-34.73
			c3-11.95,2.11-25.17,5.31-36.88c7.42-27.15,18.41-53.45,22.54-80.71c19.08-8.76,21.6-2.95,39.81,7.51
			c-2.45,16.16-6.34,31.67-10.26,47.5c5.92,5.94,9.43-3.93,17.69-2.47c2.78,6.66,8,10.45,10.75,17.26
			c1.99,4.92,4.56,9.53,6.56,14.41c0.61,0.45-0.84,1.73-0.2,2.29c6.08,5.34,10.24,13.8,9.01,21.46
			c-1.48,9.27-9.85,15.77-19.28,18.87c-1.55,0.51-2.39,1.52-3.84,1.79C1868.59,367.67,1867.64,409.25,1864.91,451.01z"/>
		<path class="st2" d="M1864.91,451.01c-15.81,13.82-25.42,11.75-40.27-3.09c2.41-36.74,4.43-73.75,4.13-110.77
			c-3.96,1.16-11.6-0.41-15.5,0.52c-16.83,4-22.32,24.82-34.47,12.51c-12.15-12.31,7.08-17.95,11.3-34.73
			c3-11.95,2.11-25.17,5.31-36.88c7.42-27.15,18.41-53.45,22.54-80.71c19.08-8.76,21.6-2.95,39.81,7.51
			c-2.45,16.16-6.34,31.67-10.26,47.5c5.92,5.94,9.43-3.93,17.69-2.47c2.78,6.66,8,10.45,10.75,17.26
			c1.99,4.92,4.56,9.53,6.56,14.41c0.61,0.45-0.84,1.73-0.2,2.29c6.08,5.34,10.24,13.8,9.01,21.46
			c-1.48,9.27-9.85,15.77-19.28,18.87c-1.55,0.51-2.39,1.52-3.84,1.79C1868.59,367.67,1867.64,409.25,1864.91,451.01z"/>
	</g>
</g>
</svg>
