<?xml version="1.0" encoding="utf-8"?>
<!-- Generator: Adobe Illustrator 28.1.0, SVG Export Plug-In . SVG Version: 6.00 Build 0)  -->
<svg version="1.1" id="Layer_1" xmlns="http://www.w3.org/2000/svg" xmlns:xlink="http://www.w3.org/1999/xlink" x="0px" y="0px"
	 viewBox="0 0 1920 1080" style="enable-background:new 0 0 1920 1080;" xml:space="preserve">
<style type="text/css">
	.st0{opacity:0.9;}
	.st1{fill:#BFB326;}
	.st2{fill:none;stroke:#8B8332;stroke-width:3;stroke-miterlimit:10;}
	.st3{fill:none;stroke:#8B8332;stroke-width:3.0861;stroke-miterlimit:10;}
	.st4{fill:#8B8332;}
</style>
<path d="M842.28,830.54c0,0.01,0,0.01,0,0.02c0,0,0.01,0,0.01,0.01L842.28,830.54z"/>
<path d="M866.96,853.61c0.01,0.02,0.02,0.03,0.02,0.05c0.02-0.02,0.05-0.03,0.07-0.05C867.06,853.61,866.96,853.61,866.96,853.61z"
	/>
<path d="M807.39,882c0,0.04,0,0.07,0,0.11c0.01,0.01,0.01,0.02,0.02,0.03C807.4,882.13,807.39,882,807.39,882z"/>
<path d="M820.54,874.22c-0.03,0-0.05,0-0.08-0.01c0,0.02,0,0.04,0,0.07L820.54,874.22z"/>
<path d="M891.04,862.37c-0.03,0-0.05,0-0.08,0c0,0.02,0,0.04,0,0.07L891.04,862.37z"/>
<path d="M818.09,875.4c0.02,0.02,0.04,0.04,0.06,0.06c0.01,0,0.01,0,0.02,0L818.09,875.4z"/>
<path d="M889.23,867.09c-0.02,0.02-0.03,0.04-0.05,0.06c0,0.01,0,0.02,0,0.03L889.23,867.09z"/>
<path d="M713.3,877.17c0,0.02,0,0.03,0,0.05c0.01,0.01,0.01,0.02,0.02,0.03L713.3,877.17z"/>
<path d="M706.8,904.4c-0.02,0.03-0.04,0.05-0.07,0.08c0,0,0,0.01,0,0.01L706.8,904.4z"/>
<path d="M713.92,874.23c-0.02,0-0.05,0-0.07,0c0,0.02,0,0.05,0.01,0.07L713.92,874.23z"/>
<path d="M1363.74,943.56c-0.02-0.01-0.05-0.02-0.07-0.03c-0.01,0-0.02,0-0.02,0L1363.74,943.56z"/>
<path d="M1494.05,937.58c-0.02,0.01-0.04,0.02-0.06,0.03c0,0-0.01,0.01-0.01,0.01L1494.05,937.58z"/>
<path d="M1416.85,858.48c0.02-0.01,0.05-0.02,0.07-0.03c0-0.01-0.01-0.02-0.01-0.03C1416.9,858.41,1416.85,858.48,1416.85,858.48z"
	/>
<path d="M1446.37,944.74c0-0.01,0-0.03,0-0.04c-0.03,0-0.06,0-0.08,0L1446.37,944.74z"/>
<path d="M1357.15,948.83C1357.15,948.83,1357.15,948.83,1357.15,948.83c0.02,0.03,0.05,0.05,0.07,0.08L1357.15,948.83z"/>
<path d="M994.68,842.87c0-0.01,0-0.01,0-0.02c-0.02-0.01-0.04-0.02-0.05-0.03C994.62,842.82,994.68,842.87,994.68,842.87z"/>
<path d="M984.01,883.18c0-0.01,0-0.02,0-0.03c-0.02-0.02-0.04-0.04-0.06-0.06L984.01,883.18z"/>
<path d="M1005.94,947.71c0,0,0-0.01,0-0.01c-0.02-0.02-0.05-0.03-0.07-0.05L1005.94,947.71z"/>
<path d="M1036.57,832.53c0,0,0,0.01,0.01,0.01c0.06,0.01,0.13,0.01,0.19,0.02C1036.77,832.56,1036.57,832.53,1036.57,832.53z"/>
<path d="M1447.94,890.05c0.01-0.02,0.02-0.04,0.03-0.05l0,0L1447.94,890.05z"/>
<path d="M1378.46,958.9c0.02,0.02,0.05,0.05,0.07,0.07c0,0,0.01-0.01,0.01-0.01C1378.54,958.96,1378.46,958.9,1378.46,958.9z"/>
<path d="M1374.38,955.92c-0.02,0.02-0.04,0.03-0.06,0.05c0,0.01,0,0.02,0,0.04L1374.38,955.92z"/>
<path d="M1433.63,873.67c-0.01-0.01-0.02-0.02-0.03-0.03c-0.01-0.01-0.03-0.02-0.04-0.02L1433.63,873.67z"/>
<path d="M1385.42,956.95c0,0.01,0,0.01,0.01,0.02c0-0.01,0-0.01,0.01-0.02L1385.42,956.95z"/>
<g class="st0">
	<g>
		<path class="st1" d="M903.39,623.5c-21.23,0-38.78-20.79-55.05-33.94c-29.37-23.75-33.28-62.56-24.7-98.34
			c-20.25,5.12-53.56,7.57-73.39,1.98c-6.58-1.86-8.12-4.97-13.82-1.2c-35.49,35.87-77.32,61.26-114.55,76.12
			c-13.4,5.35-13.92,8.74-27.09,2.84c-10.7-4.79,4.63-9.57,2.44-21.09c-2.64,1.2-13.1-1.18-15.52,0.07
			c-18.75,9.69-50.91,34.35-75.61,26.06c-12.85-4.31-8.3-29.27-13.81-40.78c-1.28-2.66-21.56,4.13-22.06,1.22
			c-0.51-2.91,7.88-4.69,8.18-7.63c0.8-7.86-3.84-8.47-1.69-15.86c-10.34-1.91-5.09-18.55-11.09-27.04
			c-11.85-16.74,4.87-24.01,11.07-35.1c1.63-2.91,1.51-12.71,2.15-14.68c0.12-3.22-13.26-7.99-13.14-11.12
			c0.42-11.59,6.72-13.81,7.44-24.8c-12.96,14.18-22.49,22.58-33.84,38.62c-3.49,4.93-21.66-0.07-25.4,5.38
			c-29.48,42.98-56.3,113.45-112.04,113.45c-2.21,0-3.57-22.55-5.85-22.72c-3.89-0.29-19.9,9.77-24.95-6.76
			c-1.26-4.11,8.44-10.16,7.93-13.98c-0.08-0.6-16.05,5.72-16.15,5.02c-0.9-0.58,9-12.2,8.22-12.69
			c-4.37-2.74-16.82,3.63-21.11-0.56c-10.9-10.66,6.57-23.92,7.66-29.71c2.79-14.83,0.11-23.25,4.42-38.73
			c-13.8,22.44-35.08,34.98-50.96,54.79c-4.57,5.7,0.44,18.11-6.57,20.18c-7.01,2.07-13.38,0.49-20.32-1.82
			c-29.53-9.83-39.99-45.45-44.46-73.65c-13.15,17.36-27.63,26.56-44.81,39.32c-16.87,12.53-47.48,19-65.24,0.15
			c-0.75-0.1,6.28,1.28,5.64,1.2c-3.58-0.47-2.5-24.55-6.32-25.64c-16.95-4.88-25.44-4.97-25.63-8.95
			c-3.52-72.28,29.6-143.12,63.09-201.93c-0.28-1.3,6.31,1.47,6.03,0.32c-1.02-4.3,0.56-9.02,0.21-13.54
			c-1.35-17.63,3.1-34.22,6.61-35.95c3.49-1.71,26.19-2.54,39.1,9.47c3.11,2.89,5.96,7.62,8.57,10.87c0.02,0.02-5.42,5.08-5.4,5.11
			c2.43-1.03,4.31-4.12,6.45-5.14c6.01-2.87,12.17-7.79,19.81-9.56c9.17-7.45,20.52,5.03,32.43,6.25
			c8.98,0.92,12.36-16.94,18.57-10.39s-12.6,9-12.16,18.01c2.37,49.14,16.59,98.34,2.48,140.38c0.51,6.25-7.64,10.6-8.07,17
			c-1.84,27.33-3.92,51.31,5.53,67.43c23.46-32.17,44.34-62.37,65.96-100.59c36.7-64.9,79.23-126.48,133.99-174.02
			c20.28-4.7,44.82,3.51,44.69,24.33c-31.63,46.69-62.64,98.61-84.32,144.95c-23.56,50.37-58.71,92.09-67.84,136.64
			c0.98,0.64,9.8,3.49,10.65,4.02c4.12,2.59,12.09,1.89,16.02,5.72c5.41,5.28,4.66,17.72,5.79,24.13
			c29.64-7.01,42.86-54.87,65.42-87.76c3.83-5.58,24.99,1.31,28.66-3.88c13.74-19.41,23.74-38.82,38.06-54.46
			c17.9-19.56,33.65-42.13,47.25-65.49c20.85-2.01,38.35-1.04,46.26,18.36c-14.97,37.18-13.08,73.06-14.55,113.67
			c-0.12,3.41-24.94,5.94-25.08,9.46c-0.37,9.52,18.9,22.96,14.65,30.59c1.24-0.46-16.09-11.16-14.65-11.8
			c14.55-22.17,37.44-38.8,52.77-53.26c7.22-6.81,31.33-5.62,45.87-14.75c5.25-13.44,5.38-31.63,20.94-37.41
			c0.41-0.15-10.32-5.92-9.9-6.07c11.1-33.51,37.54-62.96,55.3-96.62c9.47-17.95,31.54-16.88,46.49-25.46
			c7.66-4.39-0.46-29.69,4.52-34.23c3.58-3.26,22.2-7.83,34.25-21.4c19.63-22.11,45.6-53.47,69.48-77.4
			c37.4-37.49,58.55-47.97,75.47-43.47c9.94,2.64,7.03,2.39,12.28,11.23c5.25,8.84,2.46,5.21,0.03,15.2
			c-13.79,56.59-87.89,159.81-148.34,242.96c-23.46,32.27-56.81,59.56-68.88,78.44c-2.71,24.05,41.22,33.44,31.28,55.5
			c-5.14,11.4-16.52-24.4-27.78-29.86c-2.06,6.41-19.57,17.33-21.51,24.15c-4.65,16.43,1.86,33.33-6.04,49.12
			c33.74-20.62,61.54-38.79,77.79-68.88c18.68-34.59-6.5-74.5,31.74-65.38c38.24,9.12,7.44,33.1,8.49,72.41
			c0.29,10.97-12.18,17.31-12.49,23.66c-0.06,1.25,5.25,14.77,5.2,16.02c14.01,0.9,27.1-20.1,41.35-27.3c3.73-1.88,7.11,0,10.73-2.4
			c6.94-16.34,6.43-33.64,13.98-49.41c-2.38-2.89,17.86-9,16.21-11.84c-6.37-10.99-32.89-5.54-28.48-17.44
			c4.41-11.91,13.31-12.45,25.3-16.64c4.15-1.45,12.31,7.4,17.94,7.3c11.86-25.27,35.25-46.22,43.41-72
			c0.16-2.24-22.06-9.99-22.78-13.83c-2.35-12.52,11.18-26.05,23.71-39.33c4.24-7.04,14.2-40.88,24.1-64.73
			c9.97-24.03,22.15-47.75,31.29-67.67c14.57-31.73,15.29-41.67,28.47-44.29c7.36-1.46,15.9-6.64,21.2-1.34
			c5.01,5.01-2.43,6.88-1.08,13.84c1.35,6.96,7.99,5.5,5.22,12.02c-9.13,21.49-30.36,68.47-45.69,120.54
			c-22.05,74.9-35.42,138.07-51.96,180.93c0.07,0.06-0.99-8.7-0.92-8.64c16.81-1.91,33.61-6.25,50.28-12.53
			c5.75-2.17,20.58,11.31,26.56,9.56c1.93-4.5,8.7-11.83,10.66-16.34c6.09-13.99,10.78-30.85,15.36-47.06
			c7.38-26.11,5.59-55.11,21.54-78.88c6.44-9.6,14.36-13.45,25.68-14.3c7.71-0.58,16.05-7.7,22.34-6.22
			c5.24,1.23,2.64,7.72,6.74,11.2c4.1,3.49,16.91-2.95,18.97,2.03c21.87,52.84,18.04,109.75-5.59,140.99
			c-19.99,26.43-67.44,23.81-96.45,31.56c-22.66,55.26-19.17,107.63-10.82,157.15c4.19,1.14-2.6,18.32,0.19,18.53
			c8.24,0.64,19.19,0.54,24.25,5.21c13.89-12.84,11.75-42.18,20.48-61.99c-2.38-4.16-7.91,1.19-11.08-3.24
			c-9.35-13.09-22.04-35.34-22.39-54.21c-0.5-27.08,33.02-49.82,48.33-57.14c1.07-0.51,3.86,2.74,4.87,2.25
			c12.78-6.22,35.76-1.67,52.86,5.67c9.97,4.28,28.9,6.12,32.07,16.14c6.59,20.82-28.61,31.89-38.72,42.77
			c-3.18,3.42-9.2,12.76-10.14,14.93c-2.82,6.59,2.79,16.99-0.08,24.15c-1.5,3.75-12.94,8-14.5,11.83
			c1.21,5.55,22.23,10.64,23.07,16.32c1.17,7.84-7.5,28.6-4.15,32.32c0.63-0.15,3.04-6.2,4.57-8.22c1.92-2.54,12.96-5.31,12.82-5.82
			c0.01,0.04-12.96-3.18-12.93-3.15c16.25-13.3,16.25-17.43,36.58-22.68c12.33,15.05,2.44,30.89-9.29,48.77
			c-11.76,17.92-18.72,23.37-37.46,18.04c-8.89-2.53-25.9,10.9-33.44-6.31c-9.47,13.38-23.37,7.76-37.82,16.9
			c-3.23,2.04-13.01,19.52-26.84,9.73c-3.45-2.45-9.4-3.68-12.1-6.34c-0.57-0.57,3.17,0.61,2.49-0.04
			c-6.67-0.62-8.9-19.38-15.49-21.53c-7.76-2.54-13.77,9.35-17.73,5.39c-5.98,9.06-13.83,14.3-22.19,21.32
			C935.57,614.8,918.51,623.5,903.39,623.5z M869.38,473.52c-4.47,11.1-20.15,15.86-23.73,27.23c-6.65,21.11-1.89,58.13,15.89,72.5
			c14.31,11.58,46.97,8.33,58.94-1.72c16.92-14.2,24.87-38.25,25.49-64.14c0.77-32.37-15.42-62.12-37.2-84.75
			c-1.45-0.03-2-6.23-3.39-6.3c-1.7,2.98-5.5,5.22-7.16,7.67C887.1,440.38,883.88,462.12,869.38,473.52z M529.87,525.81
			c0.07,0.03-8.7,4.99-8.62,5.01c9.32,3.12,36.25,6.42,50.18-0.78c6.63-3.42,7.92-16.81,14.57-19.68c1.78-0.77,2.49-3.89,4.24-4.66
			c0.21-15.38-2.81-28.06-1.18-43.47c-8.06,5.98-14.61,4.36-22.94,8.46c-6.64,3.27-14.53,5.08-19.32,8.48
			c-4.42,3.14-10.14,7.63-15.42,10.66C525.3,500.56,532,515.61,529.87,525.81z M1084.6,451.83c0.59,3.58-8.87,9.48-5.76,14.22
			c0.08-0.18,18.82,1.51,18.9,1.33c3.79-8.86-0.96-19.87,5.41-26.73c0.69-0.75-0.41-3.3,0.42-4.21c-1.84,0.48-1.62,5.45-3.47,6.35
			c-1.1,0.53-5.94-6.6-7.09-6.05C1088.51,438.89,1087.6,448.85,1084.6,451.83z M652.06,403.79c-4.19,17.24-20.46,31.83-22.69,49.01
			c1.85-5.88,24.05-7.84,25.81-14.05c3.14-11.07-5-25.76-0.83-36.77C652.49,401.79,654.34,403.63,652.06,403.79z M54.87,425.96
			c6.88,1.21,2.18,8.2,7.44,14.78c2.38,2.98,18.33,12.7,20.1,13.78c28.87-22.32,45.14-64.53,59.71-103.57
			c-1.34-9.12-6.08-19.31-8.36-29.12c-4.62-19.86-14.17-40.74-12.73-62.17c0.01-0.12,4.15-3.53,4.16-3.66
			c-3.72,0.84-6.59-0.72-10.56-0.92c-0.31-0.02-3.58,1.1-3.89,1.07c-0.16,0.3,13.04,11.16,12.86,11.46
			c-1.12,1.97-21.77-9.78-22.9-7.81C71.06,311.88,57.29,370.73,54.87,425.96z M967,415.21c3.4,5.23,1.81,14.82,4.63,20.45
			c2.19-7.01,15.62-26.87,18.12-33.81C984.57,403.47,972.71,413.79,967,415.21z M668.64,348.56c5.7,1.79,8.68,8.32,13.65,11.39
			c12.28-17.88,35.55-36.41,53.22-60.71c31.64-43.53,60.67-103.65,89.87-149.89c-14.98,16.17-32.04,31.75-44.69,45.99
			c-16.37,18.44-21.93,31.82-26.92,36.37c-8.38,7.63-23.06,6.36-32.34,11.68c-10.98,6.3-24.48,12.81-28.27,20
			C678.64,290.88,678.33,321.6,668.64,348.56z M1076.55,258.85c-9.21,16.68-18.41,28.24-24.24,48.87
			c-3.02,10.67-8.86,34.48-12.55,45.25c11.28-4.52,31.99-19.75,38.22-27.99C1092.43,305.88,1084.23,282.89,1076.55,258.85z
			 M909.07,211.83c-0.01,0.01-0.01,13.51-0.02,13.52C909.06,225.34,909.06,211.84,909.07,211.83z M888.23,80.84l6.64,6.87
			C894.87,84.27,888.23,80.84,888.23,80.84z"/>
		<path class="st2" d="M903.39,623.5c-21.23,0-38.78-20.79-55.05-33.94c-29.37-23.75-33.28-62.56-24.7-98.34
			c-20.25,5.12-53.56,7.57-73.39,1.98c-6.58-1.86-8.12-4.97-13.82-1.2c-35.49,35.87-77.32,61.26-114.55,76.12
			c-13.4,5.35-13.92,8.74-27.09,2.84c-10.7-4.79,4.63-9.57,2.44-21.09c-2.64,1.2-13.1-1.18-15.52,0.07
			c-18.75,9.69-50.91,34.35-75.61,26.06c-12.85-4.31-8.3-29.27-13.81-40.78c-1.28-2.66-21.56,4.13-22.06,1.22
			c-0.51-2.91,7.88-4.69,8.18-7.63c0.8-7.86-3.84-8.47-1.69-15.86c-10.34-1.91-5.09-18.55-11.09-27.04
			c-11.85-16.74,4.87-24.01,11.07-35.1c1.63-2.91,1.51-12.71,2.15-14.68c0.12-3.22-13.26-7.99-13.14-11.12
			c0.42-11.59,6.72-13.81,7.44-24.8c-12.96,14.18-22.49,22.58-33.84,38.62c-3.49,4.93-21.66-0.07-25.4,5.38
			c-29.48,42.98-56.3,113.45-112.04,113.45c-2.21,0-3.57-22.55-5.85-22.72c-3.89-0.29-19.9,9.77-24.95-6.76
			c-1.26-4.11,8.44-10.16,7.93-13.98c-0.08-0.6-16.05,5.72-16.15,5.02c-0.9-0.58,9-12.2,8.22-12.69
			c-4.37-2.74-16.82,3.63-21.11-0.56c-10.9-10.66,6.57-23.92,7.66-29.71c2.79-14.83,0.11-23.25,4.42-38.73
			c-13.8,22.44-35.08,34.98-50.96,54.79c-4.57,5.7,0.44,18.11-6.57,20.18c-7.01,2.07-13.38,0.49-20.32-1.82
			c-29.53-9.83-39.99-45.45-44.46-73.65c-13.15,17.36-27.63,26.56-44.81,39.32c-16.87,12.53-47.48,19-65.24,0.15
			c-0.75-0.1,6.28,1.28,5.64,1.2c-3.58-0.47-2.5-24.55-6.32-25.64c-16.95-4.88-25.44-4.97-25.63-8.95
			c-3.52-72.28,29.6-143.12,63.09-201.93c-0.28-1.3,6.31,1.47,6.03,0.32c-1.02-4.3,0.56-9.02,0.21-13.54
			c-1.35-17.63,3.1-34.22,6.61-35.95c3.49-1.71,26.19-2.54,39.1,9.47c3.11,2.89,5.96,7.62,8.57,10.87c0.02,0.02-5.42,5.08-5.4,5.11
			c2.43-1.03,4.31-4.12,6.45-5.14c6.01-2.87,12.17-7.79,19.81-9.56c9.17-7.45,20.52,5.03,32.43,6.25
			c8.98,0.92,12.36-16.94,18.57-10.39s-12.6,9-12.16,18.01c2.37,49.14,16.59,98.34,2.48,140.38c0.51,6.25-7.64,10.6-8.07,17
			c-1.84,27.33-3.92,51.31,5.53,67.43c23.46-32.17,44.34-62.37,65.96-100.59c36.7-64.9,79.23-126.48,133.99-174.02
			c20.28-4.7,44.82,3.51,44.69,24.33c-31.63,46.69-62.64,98.61-84.32,144.95c-23.56,50.37-58.71,92.09-67.84,136.64
			c0.98,0.64,9.8,3.49,10.65,4.02c4.12,2.59,12.09,1.89,16.02,5.72c5.41,5.28,4.66,17.72,5.79,24.13
			c29.64-7.01,42.86-54.87,65.42-87.76c3.83-5.58,24.99,1.31,28.66-3.88c13.74-19.41,23.74-38.82,38.06-54.46
			c17.9-19.56,33.65-42.13,47.25-65.49c20.85-2.01,38.35-1.04,46.26,18.36c-14.97,37.18-13.08,73.06-14.55,113.67
			c-0.12,3.41-24.94,5.94-25.08,9.46c-0.37,9.52,18.9,22.96,14.65,30.59c1.24-0.46-16.09-11.16-14.65-11.8
			c14.55-22.17,37.44-38.8,52.77-53.26c7.22-6.81,31.33-5.62,45.87-14.75c5.25-13.44,5.38-31.63,20.94-37.41
			c0.41-0.15-10.32-5.92-9.9-6.07c11.1-33.51,37.54-62.96,55.3-96.62c9.47-17.95,31.54-16.88,46.49-25.46
			c7.66-4.39-0.46-29.69,4.52-34.23c3.58-3.26,22.2-7.83,34.25-21.4c19.63-22.11,45.6-53.47,69.48-77.4
			c37.4-37.49,58.55-47.97,75.47-43.47c9.94,2.64,7.03,2.39,12.28,11.23c5.25,8.84,2.46,5.21,0.03,15.2
			c-13.79,56.59-87.89,159.81-148.34,242.96c-23.46,32.27-56.81,59.56-68.88,78.44c-2.71,24.05,41.22,33.44,31.28,55.5
			c-5.14,11.4-16.52-24.4-27.78-29.86c-2.06,6.41-19.57,17.33-21.51,24.15c-4.65,16.43,1.86,33.33-6.04,49.12
			c33.74-20.62,61.54-38.79,77.79-68.88c18.68-34.59-6.5-74.5,31.74-65.38c38.24,9.12,7.44,33.1,8.49,72.41
			c0.29,10.97-12.18,17.31-12.49,23.66c-0.06,1.25,5.25,14.77,5.2,16.02c14.01,0.9,27.1-20.1,41.35-27.3c3.73-1.88,7.11,0,10.73-2.4
			c6.94-16.34,6.43-33.64,13.98-49.41c-2.38-2.89,17.86-9,16.21-11.84c-6.37-10.99-32.89-5.54-28.48-17.44
			c4.41-11.91,13.31-12.45,25.3-16.64c4.15-1.45,12.31,7.4,17.94,7.3c11.86-25.27,35.25-46.22,43.41-72
			c0.16-2.24-22.06-9.99-22.78-13.83c-2.35-12.52,11.18-26.05,23.71-39.33c4.24-7.04,14.2-40.88,24.1-64.73
			c9.97-24.03,22.15-47.75,31.29-67.67c14.57-31.73,15.29-41.67,28.47-44.29c7.36-1.46,15.9-6.64,21.2-1.34
			c5.01,5.01-2.43,6.88-1.08,13.84c1.35,6.96,7.99,5.5,5.22,12.02c-9.13,21.49-30.36,68.47-45.69,120.54
			c-22.05,74.9-35.42,138.07-51.96,180.93c0.07,0.06-0.99-8.7-0.92-8.64c16.81-1.91,33.61-6.25,50.28-12.53
			c5.75-2.17,20.58,11.31,26.56,9.56c1.93-4.5,8.7-11.83,10.66-16.34c6.09-13.99,10.78-30.85,15.36-47.06
			c7.38-26.11,5.59-55.11,21.54-78.88c6.44-9.6,14.36-13.45,25.68-14.3c7.71-0.58,16.05-7.7,22.34-6.22
			c5.24,1.23,2.64,7.72,6.74,11.2c4.1,3.49,16.91-2.95,18.97,2.03c21.87,52.84,18.04,109.75-5.59,140.99
			c-19.99,26.43-67.44,23.81-96.45,31.56c-22.66,55.26-19.17,107.63-10.82,157.15c4.19,1.14-2.6,18.32,0.19,18.53
			c8.24,0.64,19.19,0.54,24.25,5.21c13.89-12.84,11.75-42.18,20.48-61.99c-2.38-4.16-7.91,1.19-11.08-3.24
			c-9.35-13.09-22.04-35.34-22.39-54.21c-0.5-27.08,33.02-49.82,48.33-57.14c1.07-0.51,3.86,2.74,4.87,2.25
			c12.78-6.22,35.76-1.67,52.86,5.67c9.97,4.28,28.9,6.12,32.07,16.14c6.59,20.82-28.61,31.89-38.72,42.77
			c-3.18,3.42-9.2,12.76-10.14,14.93c-2.82,6.59,2.79,16.99-0.08,24.15c-1.5,3.75-12.94,8-14.5,11.83
			c1.21,5.55,22.23,10.64,23.07,16.32c1.17,7.84-7.5,28.6-4.15,32.32c0.63-0.15,3.04-6.2,4.57-8.22c1.92-2.54,12.96-5.31,12.82-5.82
			c0.01,0.04-12.96-3.18-12.93-3.15c16.25-13.3,16.25-17.43,36.58-22.68c12.33,15.05,2.44,30.89-9.29,48.77
			c-11.76,17.92-18.72,23.37-37.46,18.04c-8.89-2.53-25.9,10.9-33.44-6.31c-9.47,13.38-23.37,7.76-37.82,16.9
			c-3.23,2.04-13.01,19.52-26.84,9.73c-3.45-2.45-9.4-3.68-12.1-6.34c-0.57-0.57,3.17,0.61,2.49-0.04
			c-6.67-0.62-8.9-19.38-15.49-21.53c-7.76-2.54-13.77,9.35-17.73,5.39c-5.98,9.06-13.83,14.3-22.19,21.32
			C935.57,614.8,918.51,623.5,903.39,623.5z M869.38,473.52c-4.47,11.1-20.15,15.86-23.73,27.23c-6.65,21.11-1.89,58.13,15.89,72.5
			c14.31,11.58,46.97,8.33,58.94-1.72c16.92-14.2,24.87-38.25,25.49-64.14c0.77-32.37-15.42-62.12-37.2-84.75
			c-1.45-0.03-2-6.23-3.39-6.3c-1.7,2.98-5.5,5.22-7.16,7.67C887.1,440.38,883.88,462.12,869.38,473.52z M529.87,525.81
			c0.07,0.03-8.7,4.99-8.62,5.01c9.32,3.12,36.25,6.42,50.18-0.78c6.63-3.42,7.92-16.81,14.57-19.68c1.78-0.77,2.49-3.89,4.24-4.66
			c0.21-15.38-2.81-28.06-1.18-43.47c-8.06,5.98-14.61,4.36-22.94,8.46c-6.64,3.27-14.53,5.08-19.32,8.48
			c-4.42,3.14-10.14,7.63-15.42,10.66C525.3,500.56,532,515.61,529.87,525.81z M1084.6,451.83c0.59,3.58-8.87,9.48-5.76,14.22
			c0.08-0.18,18.82,1.51,18.9,1.33c3.79-8.86-0.96-19.87,5.41-26.73c0.69-0.75-0.41-3.3,0.42-4.21c-1.84,0.48-1.62,5.45-3.47,6.35
			c-1.1,0.53-5.94-6.6-7.09-6.05C1088.51,438.89,1087.6,448.85,1084.6,451.83z M652.06,403.79c-4.19,17.24-20.46,31.83-22.69,49.01
			c1.85-5.88,24.05-7.84,25.81-14.05c3.14-11.07-5-25.76-0.83-36.77C652.49,401.79,654.34,403.63,652.06,403.79z M54.87,425.96
			c6.88,1.21,2.18,8.2,7.44,14.78c2.38,2.98,18.33,12.7,20.1,13.78c28.87-22.32,45.14-64.53,59.71-103.57
			c-1.34-9.12-6.08-19.31-8.36-29.12c-4.62-19.86-14.17-40.74-12.73-62.17c0.01-0.12,4.15-3.53,4.16-3.66
			c-3.72,0.84-6.59-0.72-10.56-0.92c-0.31-0.02-3.58,1.1-3.89,1.07c-0.16,0.3,13.04,11.16,12.86,11.46
			c-1.12,1.97-21.77-9.78-22.9-7.81C71.06,311.88,57.29,370.73,54.87,425.96z M967,415.21c3.4,5.23,1.81,14.82,4.63,20.45
			c2.19-7.01,15.62-26.87,18.12-33.81C984.57,403.47,972.71,413.79,967,415.21z M668.64,348.56c5.7,1.79,8.68,8.32,13.65,11.39
			c12.28-17.88,35.55-36.41,53.22-60.71c31.64-43.53,60.67-103.65,89.87-149.89c-14.98,16.17-32.04,31.75-44.69,45.99
			c-16.37,18.44-21.93,31.82-26.92,36.37c-8.38,7.63-23.06,6.36-32.34,11.68c-10.98,6.3-24.48,12.81-28.27,20
			C678.64,290.88,678.33,321.6,668.64,348.56z M1076.55,258.85c-9.21,16.68-18.41,28.24-24.24,48.87
			c-3.02,10.67-8.86,34.48-12.55,45.25c11.28-4.52,31.99-19.75,38.22-27.99C1092.43,305.88,1084.23,282.89,1076.55,258.85z
			 M909.07,211.83c-0.01,0.01-0.01,13.51-0.02,13.52C909.06,225.34,909.06,211.84,909.07,211.83z M888.23,80.84l6.64,6.87
			C894.87,84.27,888.23,80.84,888.23,80.84z"/>
	</g>
	<g>
		<path class="st1" d="M1440.43,909.17c-4.9,0-10.08,8.3-14.03,7.17c-10.62-3.04-13.74-18.21-21.66-25.78
			c-10.05-9.6-22.89-14.48-23.62-26.73c-0.75-12.65-9.74-16.47-0.48-25.12c9.26-8.65,13.34-6.25,25.91-4.64
			c41.26,5.29,86.8,24.14,131.27,23.34c12.94-4.76,28.64-8.94,42.01-14.78c15.9-6.94,29.8-19.46,46.7-25.23
			c10.09-3.44,21.06-3.93,31.23-6.63c26.1-6.92,50.12-17.42,64.57-33.44c1.95-2.34,4.74-4.26,6.68-6.77
			c28.26-39.65,25.14-103.29,18.24-158.26c-0.55-4.4,1.58-9.07,1.06-13.38c-0.03-0.21-8.49,0.73-8.52,0.52
			c-10.38,30.91-17.45,62.97-30.84,85.76c-0.32,1.25-17.08-1.7-17.35,0.07c-0.67,4.41,2.54,8.92,0.76,13.83
			c-4.76,13.17-11.29,11.34-16.49,12.78c-7.65,2.12-15.73,7.45-29.48-8.77c-5.71-6.74-15.45-10.44-19.14-17.57
			c-1.33-2.58-0.93-5.91-2.01-7.76c-10.54-18.15-19.24-40.25-22.9-61.4c-36.78,36.43-72.47,63.98-109.34,69.7
			c-12.59,1.95-13.38,4.83-23.3-3.16c-9.14-7.36,7.76-12.16,2-22.39c-9.76,7.69-18.55,24.28-28.87,31.15
			c-17.61,11.73-44.65,0.11-63.95-13.91c-0.45-0.05-2.6,0.81-2.98,0.77c-6.79-0.69-27.55,1.06-33.03-14.41
			c-8.58-24.22-8.91-50.52-4.64-74.43c-2.5,0.94,1.66,8.93-0.78,9.68c-24.16,7.47-46.45-2.47-63.45-14.18
			c-44.63-30.75-24.87-93.16-15.64-131.75c6.96-29.1,5.49-66.29,19.75-96.69c16.82-35.87,42.37-60.67,70.1-76.29
			c15.63-8.8,36.74-2.98,51.85,12.51c0.06,0.01-1.72,5.45-1.66,5.46c2.67,0.62,6.77-2.56,10.06-1.17
			c12.76,5.4,20.38,14.58,20.81,18.81c4.4,43.15-10.91,88.56-37.9,128.34c-24.82,36.57-62.71,63.94-103.15,82
			c-4.16,0.97-2.84-10.85-4.87-7.1c0.13,13.98,5.91,25.18,14.58,31.15c11.46,7.89,26.49-2.78,57.18-22.95
			c7.8-18.33,25.48-29.09,34.25-46.25c3.72-7.28,3.37-16.12,6.77-22.98c-0.12-0.88,6.2-2.33,6.09-3.11
			c-1.19-7.89-13.9-30.07-0.15-39.74c15.12-10.63,32,12.15,40.73,16.7c1.74,0.91,9.03-10.95,10.32-10.46
			c5.87,0.46,11.15,9.18,17.67,9.52c10.96,0.57,21.63-3.89,32.63-2.62c15.4-9.05,32.01-16.41,49.76-19.92
			c9.51-1.88,14.38-11.56,22.64-6.5c8.26,5.07,5.68,12.71,8.32,22.04c0.41,1.46-9.49,1.79-9.09,3.26
			c8.88-14.73,30.21-23.08,39.16-37.67c8.72-26.36,9.28-57.17,14.35-84.7c-6.86-2.87-17.52-9.24-21.26-24.15
			c-3.56-14.18-12.47-13.98-3.02-25.15c9.44-11.16,10.98-5.53,25.55-4.38c4.64,0.37,11.59,4.7,17.66,8.52
			c4.12-3.2,14.06-4.05,21.43-11.42c13.06-13.06,16.14-39.09,27.28-52.05c6.8-7.91,19.48-8.88,24.14-13.85
			c2.97-3.17,9.31-0.47,11.38-2.17c12.8-10.51,17.56-6.61,20.72-4.64c6.61,4.12,8.62,7.91,5.4,20.6c-0.69,2.72-1.58,4.97-3.35,9.13
			c-11.29,26.44-31.69,87.18-73.85,155.41c-9.53,15.42-34.68,23.57-44.62,39.76c-13.44,39.59-25.69,78.94-46.08,113.83
			c-5.02,8.59-1.16,20.8-6.52,28.98c-2.39,7.37,1.14,10.23-3.16,16.68c-2.15,3.21-6.53-14.59-9.65-12.31
			c-12.81,18.81-29.92,35.02-44.52,51.52c-4.93,10.39-5.21,16.71-8.17,24.15c25.56-12.69,50.12-32.04,77.1-64.45
			c1.38-1.66,0.3-2.04,1.66-3.73c1.18-8.37,16.25-13.22,18.49-21.5c12.67-46.93,32.8-87.05,70.82-108.68
			c29.48-16.77,35.69-57.81,60.43-34.6c24.74,23.21-15.53,32.16-30.39,62.66c-2.64,5.42-0.79,3.6-3.9,9.65
			c6.81-3.34,10.06,7.76,17.01,5.94c11.48-3,11.59-19.26,21.45-12.65c9.86,6.61-0.21,12.22,1.37,23.98
			c0.74,5.52,8.15,7.46,8.46,12.97c5.75,4.02,4.92,12.9,9.15,19.07c12.94,18.9,15.54,40.6,14.64,60.04
			c-0.39,8.35,1.49,15.47,2.29,22.01c0.52,4.26-12.47,10.25-11.93,14.6c1.95,15.56,14,33.41,15.35,50.26
			c9.82-24.6,21.38-52.49,29.7-80.95c4.43-15.15,4.14-31.55,7.87-46.9c-13.49-16.34-18.13-37.74-27.66-56.91
			c-26.83-53.95-47.46-111.35-32.89-164.08c7.78-28.14,43.22-42.33,54.57-46.45c12.06-4.37,25.77,8.38,37.63,10.2
			c16.09,2.47,28.82,2.68,35.92,15.35c9.47,16.89,3.38,33.3-0.21,47.73c-1.43,5.74,1.7,12.45,1.67,16.41
			c-0.36,47.22-3.54,105.8-16.73,165.59c16.48,16.82,26.95,31.32,47.45,42.12c0.41,21-4.65,19.07-21.26,31.92
			c-16.95-8.92-28.32-16.67-43.06-29.17c-2.04,7.62-4.1,17.47-6.3,25.01c-25.1,85.84-55.36,160.41-91.1,207.44
			c-2.61,3.65-15.56-1.09-18.54,2.28c-54.64,65.15-122.49,82.75-202.36,85.27c-12.76,4.41-24.69,20.18-38.28,22.48
			c-3.23,0.54-10.74-6.71-16.75-5.29C1469.04,906.04,1453.64,909.17,1440.43,909.17z M1701.8,686.74c0,0,0-8.91,0-8.91
			C1701.8,677.83,1701.8,686.74,1701.8,686.74z M1376.52,672.44c0,0-5.53,5.46-5.53,5.46
			C1370.99,677.9,1376.52,672.45,1376.52,672.44z M1636.89,572.32c-2.16,29.99,12.52,59.34,26.46,83.35
			c1.02,1.75-6.54,11.85-5.55,13.72c0.34-0.69,6.13-8.6,6.53-9.27c20.69-35.07,44.41-83.49,48.73-134.18
			c-4.89-0.06-5.41,6.62-10.06,7.95c-12.38,12.47-28.88,15.84-35.31,30.03c-9.52,2.58-5.48-7.94-15.18-9.72
			C1649.85,557.88,1639.64,568.71,1636.89,572.32z M1378.81,641.35c5.04,0.72,18.28-2.33,23.46,1.93
			c4.99,4.1,14.67,15.69,17.53,13.79c29.45-19.61,50.77-51.1,75.25-78.06c8.48-17.51,19.94-36.92,32.68-59.82
			c5.15-9.26,2.56-18.73,8.1-28.35c-5.88-8.41-10.23-19.11-24.19-21.95c-16.25,11.14-35.56,24.38-50.09,37.08
			c-1.03,0.9,2.87,5.35,1.84,6.25c-17.18,15.02-37.09,24.29-55.48,35.42c-5.4,3.27-8.88,10.04-13.99,13.24
			C1383.68,587.66,1373.21,616.69,1378.81,641.35z M1436.43,461.21c-0.44,2.35,3.54,11.65,2.39,14.01
			c-2.49,5.09-16.72,10.16-19.34,15.31c2.97-2.29,14.42-6.38,17.23-8.83c1.02-0.89,1.76-0.05,2.79-0.94
			c4.22-3.69,2.24-12.4,6.62-16.17c-1.39-0.1,3.81-1.53,2.45-1.64C1445.21,462.68,1439.39,462.26,1436.43,461.21z M1363.83,315.84
			c-42.11,26-53.19,89.72-66.86,146.86c-1.43,6-2.43,20.03-3.69,26.09c25.73-15.01,44.51-45,61.1-69.45
			c18.82-27.73,29.42-57.14,29.15-86.53c-4.27-1.47-15.12,1.14-18.81-3.27C1363.38,327.94,1364.87,316.59,1363.83,315.84z
			 M1850.12,300.26c-3.69,0-7.09,9.39-11.48,10.98c-17.44,6.32-31.98,6.5-32.9,9.8c-11.81,42.73,3.48,92.94,25.69,137.61
			c2.8,5.62,5.38,11.57,8.6,16.93c8.21-44.49,4.88-87.08,5.16-122.42c0.07-8.95,15.83-16.2,17.76-23.95
			c1.31-5.27,5.31-21.7,3.99-24.07C1866.03,303.52,1855.12,300.26,1850.12,300.26z"/>
		<path class="st2" d="M1440.43,909.17c-4.9,0-10.08,8.3-14.03,7.17c-10.62-3.04-13.74-18.21-21.66-25.78
			c-10.05-9.6-22.89-14.48-23.62-26.73c-0.75-12.65-9.74-16.47-0.48-25.12c9.26-8.65,13.34-6.25,25.91-4.64
			c41.26,5.29,86.8,24.14,131.27,23.34c12.94-4.76,28.64-8.94,42.01-14.78c15.9-6.94,29.8-19.46,46.7-25.23
			c10.09-3.44,21.06-3.93,31.23-6.63c26.1-6.92,50.12-17.42,64.57-33.44c1.95-2.34,4.74-4.26,6.68-6.77
			c28.26-39.65,25.14-103.29,18.24-158.26c-0.55-4.4,1.58-9.07,1.06-13.38c-0.03-0.21-8.49,0.73-8.52,0.52
			c-10.38,30.91-17.45,62.97-30.84,85.76c-0.32,1.25-17.08-1.7-17.35,0.07c-0.67,4.41,2.54,8.92,0.76,13.83
			c-4.76,13.17-11.29,11.34-16.49,12.78c-7.65,2.12-15.73,7.45-29.48-8.77c-5.71-6.74-15.45-10.44-19.14-17.57
			c-1.33-2.58-0.93-5.91-2.01-7.76c-10.54-18.15-19.24-40.25-22.9-61.4c-36.78,36.43-72.47,63.98-109.34,69.7
			c-12.59,1.95-13.38,4.83-23.3-3.16c-9.14-7.36,7.76-12.16,2-22.39c-9.76,7.69-18.55,24.28-28.87,31.15
			c-17.61,11.73-44.65,0.11-63.95-13.91c-0.45-0.05-2.6,0.81-2.98,0.77c-6.79-0.69-27.55,1.06-33.03-14.41
			c-8.58-24.22-8.91-50.52-4.64-74.43c-2.5,0.94,1.66,8.93-0.78,9.68c-24.16,7.47-46.45-2.47-63.45-14.18
			c-44.63-30.75-24.87-93.16-15.64-131.75c6.96-29.1,5.49-66.29,19.75-96.69c16.82-35.87,42.37-60.67,70.1-76.29
			c15.63-8.8,36.74-2.98,51.85,12.51c0.06,0.01-1.72,5.45-1.66,5.46c2.67,0.62,6.77-2.56,10.06-1.17
			c12.76,5.4,20.38,14.58,20.81,18.81c4.4,43.15-10.91,88.56-37.9,128.34c-24.82,36.57-62.71,63.94-103.15,82
			c-4.16,0.97-2.84-10.85-4.87-7.1c0.13,13.98,5.91,25.18,14.58,31.15c11.46,7.89,26.49-2.78,57.18-22.95
			c7.8-18.33,25.48-29.09,34.25-46.25c3.72-7.28,3.37-16.12,6.77-22.98c-0.12-0.88,6.2-2.33,6.09-3.11
			c-1.19-7.89-13.9-30.07-0.15-39.74c15.12-10.63,32,12.15,40.73,16.7c1.74,0.91,9.03-10.95,10.32-10.46
			c5.87,0.46,11.15,9.18,17.67,9.52c10.96,0.57,21.63-3.89,32.63-2.62c15.4-9.05,32.01-16.41,49.76-19.92
			c9.51-1.88,14.38-11.56,22.64-6.5c8.26,5.07,5.68,12.71,8.32,22.04c0.41,1.46-9.49,1.79-9.09,3.26
			c8.88-14.73,30.21-23.08,39.16-37.67c8.72-26.36,9.28-57.17,14.35-84.7c-6.86-2.87-17.52-9.24-21.26-24.15
			c-3.56-14.18-12.47-13.98-3.02-25.15c9.44-11.16,10.98-5.53,25.55-4.38c4.64,0.37,11.59,4.7,17.66,8.52
			c4.12-3.2,14.06-4.05,21.43-11.42c13.06-13.06,16.14-39.09,27.28-52.05c6.8-7.91,19.48-8.88,24.14-13.85
			c2.97-3.17,9.31-0.47,11.38-2.17c12.8-10.51,17.56-6.61,20.72-4.64c6.61,4.12,8.62,7.91,5.4,20.6c-0.69,2.72-1.58,4.97-3.35,9.13
			c-11.29,26.44-31.69,87.18-73.85,155.41c-9.53,15.42-34.68,23.57-44.62,39.76c-13.44,39.59-25.69,78.94-46.08,113.83
			c-5.02,8.59-1.16,20.8-6.52,28.98c-2.39,7.37,1.14,10.23-3.16,16.68c-2.15,3.21-6.53-14.59-9.65-12.31
			c-12.81,18.81-29.92,35.02-44.52,51.52c-4.93,10.39-5.21,16.71-8.17,24.15c25.56-12.69,50.12-32.04,77.1-64.45
			c1.38-1.66,0.3-2.04,1.66-3.73c1.18-8.37,16.25-13.22,18.49-21.5c12.67-46.93,32.8-87.05,70.82-108.68
			c29.48-16.77,35.69-57.81,60.43-34.6c24.74,23.21-15.53,32.16-30.39,62.66c-2.64,5.42-0.79,3.6-3.9,9.65
			c6.81-3.34,10.06,7.76,17.01,5.94c11.48-3,11.59-19.26,21.45-12.65c9.86,6.61-0.21,12.22,1.37,23.98
			c0.74,5.52,8.15,7.46,8.46,12.97c5.75,4.02,4.92,12.9,9.15,19.07c12.94,18.9,15.54,40.6,14.64,60.04
			c-0.39,8.35,1.49,15.47,2.29,22.01c0.52,4.26-12.47,10.25-11.93,14.6c1.95,15.56,14,33.41,15.35,50.26
			c9.82-24.6,21.38-52.49,29.7-80.95c4.43-15.15,4.14-31.55,7.87-46.9c-13.49-16.34-18.13-37.74-27.66-56.91
			c-26.83-53.95-47.46-111.35-32.89-164.08c7.78-28.14,43.22-42.33,54.57-46.45c12.06-4.37,25.77,8.38,37.63,10.2
			c16.09,2.47,28.82,2.68,35.92,15.35c9.47,16.89,3.38,33.3-0.21,47.73c-1.43,5.74,1.7,12.45,1.67,16.41
			c-0.36,47.22-3.54,105.8-16.73,165.59c16.48,16.82,26.95,31.32,47.45,42.12c0.41,21-4.65,19.07-21.26,31.92
			c-16.95-8.92-28.32-16.67-43.06-29.17c-2.04,7.62-4.1,17.47-6.3,25.01c-25.1,85.84-55.36,160.41-91.1,207.44
			c-2.61,3.65-15.56-1.09-18.54,2.28c-54.64,65.15-122.49,82.75-202.36,85.27c-12.76,4.41-24.69,20.18-38.28,22.48
			c-3.23,0.54-10.74-6.71-16.75-5.29C1469.04,906.04,1453.64,909.17,1440.43,909.17z M1701.8,686.74c0,0,0-8.91,0-8.91
			C1701.8,677.83,1701.8,686.74,1701.8,686.74z M1376.52,672.44c0,0-5.53,5.46-5.53,5.46
			C1370.99,677.9,1376.52,672.45,1376.52,672.44z M1636.89,572.32c-2.16,29.99,12.52,59.34,26.46,83.35
			c1.02,1.75-6.54,11.85-5.55,13.72c0.34-0.69,6.13-8.6,6.53-9.27c20.69-35.07,44.41-83.49,48.73-134.18
			c-4.89-0.06-5.41,6.62-10.06,7.95c-12.38,12.47-28.88,15.84-35.31,30.03c-9.52,2.58-5.48-7.94-15.18-9.72
			C1649.85,557.88,1639.64,568.71,1636.89,572.32z M1378.81,641.35c5.04,0.72,18.28-2.33,23.46,1.93
			c4.99,4.1,14.67,15.69,17.53,13.79c29.45-19.61,50.77-51.1,75.25-78.06c8.48-17.51,19.94-36.92,32.68-59.82
			c5.15-9.26,2.56-18.73,8.1-28.35c-5.88-8.41-10.23-19.11-24.19-21.95c-16.25,11.14-35.56,24.38-50.09,37.08
			c-1.03,0.9,2.87,5.35,1.84,6.25c-17.18,15.02-37.09,24.29-55.48,35.42c-5.4,3.27-8.88,10.04-13.99,13.24
			C1383.68,587.66,1373.21,616.69,1378.81,641.35z M1436.43,461.21c-0.44,2.35,3.54,11.65,2.39,14.01
			c-2.49,5.09-16.72,10.16-19.34,15.31c2.97-2.29,14.42-6.38,17.23-8.83c1.02-0.89,1.76-0.05,2.79-0.94
			c4.22-3.69,2.24-12.4,6.62-16.17c-1.39-0.1,3.81-1.53,2.45-1.64C1445.21,462.68,1439.39,462.26,1436.43,461.21z M1363.83,315.84
			c-42.11,26-53.19,89.72-66.86,146.86c-1.43,6-2.43,20.03-3.69,26.09c25.73-15.01,44.51-45,61.1-69.45
			c18.82-27.73,29.42-57.14,29.15-86.53c-4.27-1.47-15.12,1.14-18.81-3.27C1363.38,327.94,1364.87,316.59,1363.83,315.84z
			 M1850.12,300.26c-3.69,0-7.09,9.39-11.48,10.98c-17.44,6.32-31.98,6.5-32.9,9.8c-11.81,42.73,3.48,92.94,25.69,137.61
			c2.8,5.62,5.38,11.57,8.6,16.93c8.21-44.49,4.88-87.08,5.16-122.42c0.07-8.95,15.83-16.2,17.76-23.95
			c1.31-5.27,5.31-21.7,3.99-24.07C1866.03,303.52,1855.12,300.26,1850.12,300.26z"/>
	</g>
	<g>
		<path class="st1" d="M607.47,928.43c-11.11,0-22.27,5.89-33.5,5.88c-36.12-0.03-55.27,30.09-75.1-0.1
			c-16.63-25.31,26.92-20.29,50.71-39.02c88.72-69.82,194.93-106.96,298.99-138.98c6.44-1.98,8.02,3.18,14.46,1.2
			c6.38-1.97,12.35-4.64,18.54-5.88c10.92-2.19,22.04-3.52,26.83-8.37c5.45-5.52,7.7-20.12,2.25-27.1
			c-8.15-10.43-28.81-11.94-40.71-9.19c-31.36,7.25-62.09,18.54-93.79,31.09c-18.41,7.29-36.49,16.96-55.73,23.46
			c-8.31,2.81-17.45,2.99-25.71,5.42c-26.68,7.83-50.91,20.31-67.48,36.8c-20.18-5.8-23.78-10.12-25.92-31.01
			c24.13-24.02,54.23-31.47,83.35-40.02c8.22-2.41,14.42-9.56,21.93-12.1c18.22-6.16,37.9-10.13,55.82-17.23
			c31.74-12.58,63.22-31.15,97.66-39.1c32-7.39,62.24,7.78,79.21,29.51c18.59,23.79,19.72,58.67-0.66,79.31
			c-13.81,13.99-34.41,13.19-49.47,16.22c-5.41,1.09-9.33,7.19-13.68,8.53c-6.45,1.99-5.58,4.8-12.03,6.78
			c-82.43,25.37-163.04,45.32-233.08,86.01c85.62-0.15,170.36-5.29,255.77-12.16c19.54,7.7,18.97,33.18,0.5,43.18
			C791.91,929.17,702.3,928.43,607.47,928.43z"/>
		<path class="st2" d="M607.47,928.43c-11.11,0-22.27,5.89-33.5,5.88c-36.12-0.03-55.27,30.09-75.1-0.1
			c-16.63-25.31,26.92-20.29,50.71-39.02c88.72-69.82,194.93-106.96,298.99-138.98c6.44-1.98,8.02,3.18,14.46,1.2
			c6.38-1.97,12.35-4.64,18.54-5.88c10.92-2.19,22.04-3.52,26.83-8.37c5.45-5.52,7.7-20.12,2.25-27.1
			c-8.15-10.43-28.81-11.94-40.71-9.19c-31.36,7.25-62.09,18.54-93.79,31.09c-18.41,7.29-36.49,16.96-55.73,23.46
			c-8.31,2.81-17.45,2.99-25.71,5.42c-26.68,7.83-50.91,20.31-67.48,36.8c-20.18-5.8-23.78-10.12-25.92-31.01
			c24.13-24.02,54.23-31.47,83.35-40.02c8.22-2.41,14.42-9.56,21.93-12.1c18.22-6.16,37.9-10.13,55.82-17.23
			c31.74-12.58,63.22-31.15,97.66-39.1c32-7.39,62.24,7.78,79.21,29.51c18.59,23.79,19.72,58.67-0.66,79.31
			c-13.81,13.99-34.41,13.19-49.47,16.22c-5.41,1.09-9.33,7.19-13.68,8.53c-6.45,1.99-5.58,4.8-12.03,6.78
			c-82.43,25.37-163.04,45.32-233.08,86.01c85.62-0.15,170.36-5.29,255.77-12.16c19.54,7.7,18.97,33.18,0.5,43.18
			C791.91,929.17,702.3,928.43,607.47,928.43z"/>
	</g>
	<g>
		<path class="st1" d="M952.94,1043.28c-20.99-0.6-23.68-13.93-28.5-34.37c17.57-16.42,32.26-30.83,47.33-50.15
			c-51.96,7.35-101.24,1.51-149.61-6.47c-3.92-0.65-4.93,2.84-8.37,0.84c-3.44-2-3.73-2.3-6.25-5.39
			c-5.48-6.74-7.39-17.41-4.62-25.55c5.61-16.53,27.21-23.34,29.51-23.88c29.91-7.11,53.8-28.42,81.9-48.57
			c21.6-15.49,46.46-28.54,71.5-39.75c51.44-23.03,107.95-29.59,162.23-32.51c30.06-1.62,63.18-0.1,92.13-5.28
			c14.89,14.81,14.27,23.94,4.68,42.62c-31.5,5.64-62.68,12.84-94.02,14.53c-52.78,2.84-103.04,0.23-147.37,20.07
			c-21.18,9.48-39.54,25.54-60.37,40.48c-14.39,10.32-29.34,17.3-44.82,26.42c36.19,0.1,70.64-6.66,108.37-15.03
			c7.34-10.74,18.07-15.98,25.22-26.7c2.08-3.12,3.86-6.42,5.94-9.53c5.54-8.3,15.51-16.72,37.65-17.44
			c0.17-0.07,1.68,0.83,1.84,0.76c4.7-2.04,15.75-12.74,27.14-6.44c7.88,4.36,13.54,10.5,19.92,14.65
			c6.02,3.92,10.7,9.31,17.26,12.94c18.59,10.28,44.05-1.3,43.07,19.92c-0.97,21.22-23.24,11.98-42.69,20.51
			c-35.48,15.56-75.3,20.56-110.65,29.43C1007.41,973.64,983.96,1014.29,952.94,1043.28z M1072.44,891.54
			c-0.01,0.02-1.51-3.23-1.52-3.21c0.41-0.14,0.23,3.7,0.64,3.56C1071.03,892.01,1072.71,891.43,1072.44,891.54z M1077.93,848.93
			c0,0-0.01-3.59-0.01-3.59C1077.92,845.34,1077.92,848.93,1077.93,848.93z"/>
		<path class="st2" d="M952.94,1043.28c-20.99-0.6-23.68-13.93-28.5-34.37c17.57-16.42,32.26-30.83,47.33-50.15
			c-51.96,7.35-101.24,1.51-149.61-6.47c-3.92-0.65-4.93,2.84-8.37,0.84c-3.44-2-3.73-2.3-6.25-5.39
			c-5.48-6.74-7.39-17.41-4.62-25.55c5.61-16.53,27.21-23.34,29.51-23.88c29.91-7.11,53.8-28.42,81.9-48.57
			c21.6-15.49,46.46-28.54,71.5-39.75c51.44-23.03,107.95-29.59,162.23-32.51c30.06-1.62,63.18-0.1,92.13-5.28
			c14.89,14.81,14.27,23.94,4.68,42.62c-31.5,5.64-62.68,12.84-94.02,14.53c-52.78,2.84-103.04,0.23-147.37,20.07
			c-21.18,9.48-39.54,25.54-60.37,40.48c-14.39,10.32-29.34,17.3-44.82,26.42c36.19,0.1,70.64-6.66,108.37-15.03
			c7.34-10.74,18.07-15.98,25.22-26.7c2.08-3.12,3.86-6.42,5.94-9.53c5.54-8.3,15.51-16.72,37.65-17.44
			c0.17-0.07,1.68,0.83,1.84,0.76c4.7-2.04,15.75-12.74,27.14-6.44c7.88,4.36,13.54,10.5,19.92,14.65
			c6.02,3.92,10.7,9.31,17.26,12.94c18.59,10.28,44.05-1.3,43.07,19.92c-0.97,21.22-23.24,11.98-42.69,20.51
			c-35.48,15.56-75.3,20.56-110.65,29.43C1007.41,973.64,983.96,1014.29,952.94,1043.28z M1072.44,891.54
			c-0.01,0.02-1.51-3.23-1.52-3.21c0.41-0.14,0.23,3.7,0.64,3.56C1071.03,892.01,1072.71,891.43,1072.44,891.54z M1077.93,848.93
			c0,0-0.01-3.59-0.01-3.59C1077.92,845.34,1077.92,848.93,1077.93,848.93z"/>
	</g>
</g>
</svg>
