<?xml version="1.0" encoding="utf-8"?>
<!-- Generator: Adobe Illustrator 28.1.0, SVG Export Plug-In . SVG Version: 6.00 Build 0)  -->
<svg version="1.1" id="Layer_1" xmlns="http://www.w3.org/2000/svg" xmlns:xlink="http://www.w3.org/1999/xlink" x="0px" y="0px"
	 viewBox="0 0 1920 1080" style="enable-background:new 0 0 1920 1080;" xml:space="preserve">
<style type="text/css">
	.st0{opacity:0.9;}
	.st1{fill:#BFB326;}
	.st2{fill:none;stroke:#8B8332;stroke-width:3;stroke-miterlimit:10;}
	.st3{fill:none;stroke:#8B8332;stroke-width:3.0861;stroke-miterlimit:10;}
	.st4{fill:#8B8332;}
</style>
<path d="M842.28,830.54c0,0.01,0,0.01,0,0.02c0,0,0.01,0,0.01,0.01L842.28,830.54z"/>
<path d="M866.96,853.61c0.01,0.02,0.02,0.03,0.02,0.05c0.02-0.02,0.05-0.03,0.07-0.05C867.06,853.61,866.96,853.61,866.96,853.61z"
	/>
<path d="M807.39,882c0,0.04,0,0.07,0,0.11c0.01,0.01,0.01,0.02,0.02,0.03C807.4,882.13,807.39,882,807.39,882z"/>
<path d="M820.54,874.22c-0.03,0-0.05,0-0.08-0.01c0,0.02,0,0.04,0,0.07L820.54,874.22z"/>
<path d="M891.04,862.37c-0.03,0-0.05,0-0.08,0c0,0.02,0,0.04,0,0.07L891.04,862.37z"/>
<path d="M818.09,875.4c0.02,0.02,0.04,0.04,0.06,0.06c0.01,0,0.01,0,0.02,0L818.09,875.4z"/>
<path d="M889.23,867.09c-0.02,0.02-0.03,0.04-0.05,0.06c0,0.01,0,0.02,0,0.03L889.23,867.09z"/>
<path d="M713.3,877.17c0,0.02,0,0.03,0,0.05c0.01,0.01,0.01,0.02,0.02,0.03L713.3,877.17z"/>
<path d="M706.8,904.4c-0.02,0.03-0.04,0.05-0.07,0.08c0,0,0,0.01,0,0.01L706.8,904.4z"/>
<path d="M713.92,874.23c-0.02,0-0.05,0-0.07,0c0,0.02,0,0.05,0.01,0.07L713.92,874.23z"/>
<path d="M1363.74,943.56c-0.02-0.01-0.05-0.02-0.07-0.03c-0.01,0-0.02,0-0.02,0L1363.74,943.56z"/>
<path d="M1494.05,937.58c-0.02,0.01-0.04,0.02-0.06,0.03c0,0-0.01,0.01-0.01,0.01L1494.05,937.58z"/>
<path d="M1416.85,858.48c0.02-0.01,0.05-0.02,0.07-0.03c0-0.01-0.01-0.02-0.01-0.03C1416.9,858.41,1416.85,858.48,1416.85,858.48z"
	/>
<path d="M1446.37,944.74c0-0.01,0-0.03,0-0.04c-0.03,0-0.06,0-0.08,0L1446.37,944.74z"/>
<path d="M1357.15,948.83C1357.15,948.83,1357.15,948.83,1357.15,948.83c0.02,0.03,0.05,0.05,0.07,0.08L1357.15,948.83z"/>
<path d="M994.68,842.87c0-0.01,0-0.01,0-0.02c-0.02-0.01-0.04-0.02-0.05-0.03C994.62,842.82,994.68,842.87,994.68,842.87z"/>
<path d="M984.01,883.18c0-0.01,0-0.02,0-0.03c-0.02-0.02-0.04-0.04-0.06-0.06L984.01,883.18z"/>
<path d="M1005.94,947.71c0,0,0-0.01,0-0.01c-0.02-0.02-0.05-0.03-0.07-0.05L1005.94,947.71z"/>
<path d="M1036.57,832.53c0,0,0,0.01,0.01,0.01c0.06,0.01,0.13,0.01,0.19,0.02C1036.77,832.56,1036.57,832.53,1036.57,832.53z"/>
<path d="M1447.94,890.05c0.01-0.02,0.02-0.04,0.03-0.05l0,0L1447.94,890.05z"/>
<path d="M1378.46,958.9c0.02,0.02,0.05,0.05,0.07,0.07c0,0,0.01-0.01,0.01-0.01C1378.54,958.96,1378.46,958.9,1378.46,958.9z"/>
<path d="M1374.38,955.92c-0.02,0.02-0.04,0.03-0.06,0.05c0,0.01,0,0.02,0,0.04L1374.38,955.92z"/>
<path d="M1433.63,873.67c-0.01-0.01-0.02-0.02-0.03-0.03c-0.01-0.01-0.03-0.02-0.04-0.02L1433.63,873.67z"/>
<path d="M1385.42,956.95c0,0.01,0,0.01,0.01,0.02c0-0.01,0-0.01,0.01-0.02L1385.42,956.95z"/>
<g class="st0">
	<path class="st1" d="M825.98,953.07c-19.92-6.66-25.21-12.71-27.67-33.57c20.68-16.82,41.1-36.08,61.8-52.88
		c209.99-170.5,430.28-342.63,629.84-531.11c17.27-11.94,41.47,12.88,28.54,29.43c-200.7,189.56-418.77,366.44-629.36,537.43
		C868.44,919.17,846.65,936.26,825.98,953.07z"/>
	<path class="st2" d="M825.98,953.07c-19.92-6.66-25.21-12.71-27.67-33.57c20.68-16.82,41.1-36.08,61.8-52.88
		c209.99-170.5,430.28-342.63,629.84-531.11c17.27-11.94,41.47,12.88,28.54,29.43c-200.7,189.56-418.77,366.44-629.36,537.43
		C868.44,919.17,846.65,936.26,825.98,953.07z"/>
</g>
</svg>
