<?xml version="1.0" encoding="utf-8"?>
<!-- Generator: Adobe Illustrator 28.1.0, SVG Export Plug-In . SVG Version: 6.00 Build 0)  -->
<svg version="1.1" id="Layer_1" xmlns="http://www.w3.org/2000/svg" xmlns:xlink="http://www.w3.org/1999/xlink" x="0px" y="0px"
	 viewBox="0 0 1920 1080" style="enable-background:new 0 0 1920 1080;" xml:space="preserve">
<style type="text/css">
	.st0{opacity:0.9;}
	.st1{fill:#BFB326;}
	.st2{fill:none;stroke:#8B8332;stroke-width:3;stroke-miterlimit:10;}
	.st3{fill:none;stroke:#8B8332;stroke-width:3.0861;stroke-miterlimit:10;}
	.st4{fill:#8B8332;}
</style>
<path d="M842.28,830.54c0,0.01,0,0.01,0,0.02c0,0,0.01,0,0.01,0.01L842.28,830.54z"/>
<path d="M866.96,853.61c0.01,0.02,0.02,0.03,0.02,0.05c0.02-0.02,0.05-0.03,0.07-0.05C867.06,853.61,866.96,853.61,866.96,853.61z"
	/>
<path d="M807.39,882c0,0.04,0,0.07,0,0.11c0.01,0.01,0.01,0.02,0.02,0.03C807.4,882.13,807.39,882,807.39,882z"/>
<path d="M820.54,874.22c-0.03,0-0.05,0-0.08-0.01c0,0.02,0,0.04,0,0.07L820.54,874.22z"/>
<path d="M891.04,862.37c-0.03,0-0.05,0-0.08,0c0,0.02,0,0.04,0,0.07L891.04,862.37z"/>
<path d="M818.09,875.4c0.02,0.02,0.04,0.04,0.06,0.06c0.01,0,0.01,0,0.02,0L818.09,875.4z"/>
<path d="M889.23,867.09c-0.02,0.02-0.03,0.04-0.05,0.06c0,0.01,0,0.02,0,0.03L889.23,867.09z"/>
<path d="M713.3,877.17c0,0.02,0,0.03,0,0.05c0.01,0.01,0.01,0.02,0.02,0.03L713.3,877.17z"/>
<path d="M706.8,904.4c-0.02,0.03-0.04,0.05-0.07,0.08c0,0,0,0.01,0,0.01L706.8,904.4z"/>
<path d="M713.92,874.23c-0.02,0-0.05,0-0.07,0c0,0.02,0,0.05,0.01,0.07L713.92,874.23z"/>
<path d="M1363.74,943.56c-0.02-0.01-0.05-0.02-0.07-0.03c-0.01,0-0.02,0-0.02,0L1363.74,943.56z"/>
<path d="M1494.05,937.58c-0.02,0.01-0.04,0.02-0.06,0.03c0,0-0.01,0.01-0.01,0.01L1494.05,937.58z"/>
<path d="M1416.85,858.48c0.02-0.01,0.05-0.02,0.07-0.03c0-0.01-0.01-0.02-0.01-0.03C1416.9,858.41,1416.85,858.48,1416.85,858.48z"
	/>
<path d="M1446.37,944.74c0-0.01,0-0.03,0-0.04c-0.03,0-0.06,0-0.08,0L1446.37,944.74z"/>
<path d="M1357.15,948.83C1357.15,948.83,1357.15,948.83,1357.15,948.83c0.02,0.03,0.05,0.05,0.07,0.08L1357.15,948.83z"/>
<path d="M994.68,842.87c0-0.01,0-0.01,0-0.02c-0.02-0.01-0.04-0.02-0.05-0.03C994.62,842.82,994.68,842.87,994.68,842.87z"/>
<path d="M984.01,883.18c0-0.01,0-0.02,0-0.03c-0.02-0.02-0.04-0.04-0.06-0.06L984.01,883.18z"/>
<path d="M1005.94,947.71c0,0,0-0.01,0-0.01c-0.02-0.02-0.05-0.03-0.07-0.05L1005.94,947.71z"/>
<path d="M1036.57,832.53c0,0,0,0.01,0.01,0.01c0.06,0.01,0.13,0.01,0.19,0.02C1036.77,832.56,1036.57,832.53,1036.57,832.53z"/>
<path d="M1447.94,890.05c0.01-0.02,0.02-0.04,0.03-0.05l0,0L1447.94,890.05z"/>
<path d="M1378.46,958.9c0.02,0.02,0.05,0.05,0.07,0.07c0,0,0.01-0.01,0.01-0.01C1378.54,958.96,1378.46,958.9,1378.46,958.9z"/>
<path d="M1374.38,955.92c-0.02,0.02-0.04,0.03-0.06,0.05c0,0.01,0,0.02,0,0.04L1374.38,955.92z"/>
<path d="M1433.63,873.67c-0.01-0.01-0.02-0.02-0.03-0.03c-0.01-0.01-0.03-0.02-0.04-0.02L1433.63,873.67z"/>
<path d="M1385.42,956.95c0,0.01,0,0.01,0.01,0.02c0-0.01,0-0.01,0.01-0.02L1385.42,956.95z"/>
<g class="st0">
	<g>
		<path class="st1" d="M573.54,1012.61c-20.28,0-36.36-11.23-45.39-18.47c-2.16-0.11-6.39,1.76-7.69,2.19
			c0.69-0.23,2.13-1.1,3.76-2.72c-0.08-0.06-2.42,2.43-2.5,2.37c0.08,0.06,3.52-1.23,3.6-1.17c1.32-1.3,0.98-1.61,2-4.02
			c-19.83-5.89-22.73,0.68-37.07-14.23c1.67-30.93,20.5-51.26,39.47-71.16c6.82-7.16,12.45-14.52,17.51-21.13
			c6.81-8.9,11.45-20.42,16.6-32.89c5.27-12.75,11.31-25.71,19.49-37.74c-0.19-1.64,0.15-2.89-0.02-4.46
			c-0.75-6.94,2.03-14.6,0.53-19.27c-32-99.31-40.74-187.27-18.09-263.25c24.89-83.5,80.46-152.38,135.75-217.35
			c2.48-2.91,1.93-3.37,4.41-6.28c6.3-7.41,12.87-14.59,19.39-22.66c31.91-39.45,67.03-78.98,116.74-95.88
			c28.63-9.73,58.08-6.13,86.28-2.68c13.54,1.66,26.27,1.04,38.4,1.05c0.04,0,0.08,2.57,0.12,2.57c9.67,0,20.24,0.38,31.3-0.77
			c28.29-2.96,59.03-5.47,86.95,10.15c18.77,10.5,31.8,25.7,40.35,41.97c4.23,8.07,6.29,16.64,10.78,22.15
			c4.52,5.55,10.46,11.03,16.55,17.08c18.16,18.05,36.03,39,37.09,68.37c0.5,13.95-2.23,28.76-9.25,41.3
			c32.84,20,63.61,41.56,87.05,68.3c13.21,15.07,17.77,34.35,21.59,50.93c1.71,7.41,0,15.5,2.21,21.45
			c18.15,48.77,24.08,97.76,13.8,143.46c-4.09,18.19-16.73,30.85-26.45,43.37c-4.87,6.27-4.8,15.28-8.07,21.04
			c-2.62,4.63-6.16,10-8.2,16.92c-3.78,12.83-8.77,27.32-19.91,38.96c-11.5,12.01-26.56,17.75-39.61,23.13
			c-7.9,3.26-13.44,9.14-18.89,12.99c-51.14,36.06-97.52,50.89-141.57,55.82c-30.4,3.4-63.28-3.15-98.95-26.3
			c-3.62-2.35-8.19-4.81-13.49-7.12c-6.7-2.92-12.36-6.03-19.39-10.75c-18.09,30.89-39.02,59.87-60.46,87.75
			c-8,10.41-18.53,18.97-26.35,29.55c-19.85-6.87-24.12-5.77-36.36-22.84c8.05-10.89,19.63-23.02,27.75-33.59
			c24.17-31.44,44.94-64.24,62.97-98.85c-18.34-35.77-25.78-76.43-29.97-121.05c-4.36-46.39,2.02-95.13,13.17-146.53
			c1.56-7.17-4.13-8.26,1.26-13.25c5.39-4.99,5.71-1.56,12.99-2.57c0.96-0.13,1.29-4.16,2.17-4.3c7.71-1.23,20.84,0.6,33.29,13.74
			c32.19,34.01,34.3,83.11,34.52,123.8c0.02,2.88,1.11,2.87,1.13,5.75c0.05,7.06,1.14,14.37,1.32,21.48
			c0.88,35.33,1.14,72.48-11.88,107.4c-1.82,4.89-7.82,9.33-9.88,14.08c2.76,3.84,12.12,9.75,19.86,13.12
			c6.63,2.89,12.59,6.39,19.12,10.63c27.19,17.65,52.07,19.55,72.43,17.28c36.73-4.11,75.51-17.88,120.64-49.69
			c9.29-6.55,19.64-9.5,29.33-13.5c10.1-4.17,20.41-8.41,25.78-14.02c4.08-4.26,3-14.84,5.66-23.88c2.5-8.48,4.6-19.07,9.6-27.89
			c4.77-8.42,15.59-12.52,21.16-19.7c7.71-9.93,13.93-20.78,15.97-29.84c8.49-37.74,5.47-80.34-9.84-121.45
			c-3.17-8.52-6.18-16.72-8.12-25.12c-2.97-12.89-9.25-22.5-15.49-29.62c-23.85-27.21-49.1-53.32-79-70.62
			c-16.92,12.34-38.12,24.07-59.25,27.23c-5.05,0.76-11.59,0.41-17.89,2.52c-13.76,4.62-29.14,12.25-46.33,8.64
			c-34.77-7.31-61.69-31.4-84.12-53.26c-5.25-5.12-26.04-33.59-24.04-61.81c0.81-11.47,2.31-22.3,11.5-29.02
			c16.5-12.06,33.66,0.42,44.46,5.99c2.65,1.37,7.56,3.27,9.11,3.66c55.81,9.43,105.97,24.82,150.56,45.58
			c2.13,0.99,7.35,1.63,9.45,2.65c3.57-6.17,3.93-14.65,3.72-20.55c-0.46-12.79-16.66-23.17-30.53-36.95
			c-6.59-6.55-12.74-14.35-18.66-21.62c-7.15-8.78-12.95-18.88-17.96-28.43c-6.4-12.18-9.33-25.99-17.22-30.4
			c-16.29-9.11-39.63-5.08-63.85-2.55c-11.69,1.22-23.83,4.17-35.78,4.14c-14.67-0.01-29.73-0.94-43.92-2.68
			c-24.6-3.01-46.77-7.11-66.31-0.46c-38.21,12.99-67.59,47.35-95.74,82.16c-6.4,7.91-11.6,17.32-18.23,25.12
			c-2.48,2.92-3.53,2.03-6.01,4.95C683.97,400.71,629.36,463.94,607,538.95c-19.93,66.85-17.87,147.75,10.5,237.43
			c30.02-27.28,65.97-43.99,102.82-51.19c16.66-3.26,22.1-22.06,33.63-9.61c11.53,12.45-3.72,17.52-8.24,33.88
			c-2.63,9.53-3.72,18.42-5.37,27.9c-2.84,16.28-5.04,34.04-13.51,52.56c-6.66,14.56-22.62,21.93-32.14,25.45
			c-2.87,1.06-8.05-0.83-9.39,0.12c-11.47,8.05-24.82,12.38-37.2,14.49c-16.23,2.76-29.29-1.24-40.72-9.8
			c-0.76,1.82-2.44,6-3.21,7.86c-5.96,14.43-12.89,28.87-23.06,42.15c-6.45,8.42-15.12,15.18-22.41,22.83
			c-6.97,7.31-13.23,15.71-18.64,22.76c3.55,1.13,9,1.74,11.83,4.06c11.38,9.37,18,12.75,22.79,11.47
			c4.71-1.24,12.01-3.52,18.09-8.28c8.98-7.04,19.79-16.37,32.86-19.82c11.33,17.68,3.39,21,6.38,41.79
			c-4.71,1.24-7.15,6.47-13.23,11.23c-8.98,7.04-20.07,13.08-33.14,16.54C581.41,1013.89,577.57,1012.61,573.54,1012.61z
			 M626.47,823.18c0.61,1.53,2.25,6.14,3.09,6.86c4.83,4.15,20.1-0.71,31.67-8.83c5.81-4.08,12.01-6.7,17.59-8.76
			c2.43-0.9,8.98-0.36,10.76-1.32c5.13-11.76,4.52-26.11,6.75-38.76C671.87,782.85,647.13,799.4,626.47,823.18z M891.35,568.04
			c-5.71,36.5-7.1,73.98-3.98,107.15c2.17,23.08,8.57,44.77,14.99,65.1c2.65-19.55,1.93-40.52,1.39-62.18
			c-0.18-7.29,3.26-14.86,3.2-22.3c-0.02-2.91-2.02-2.9-2.03-5.81C904.76,621.44,901.17,589.99,891.35,568.04z M962.09,349.79
			c2.91,5.01,8.09,14.02,13.36,19.16c19.23,18.74,40.56,36.73,63.39,41.53c6.01,1.26,14.97-2.06,24.5-5.26
			c7.74-2.6,16.31-1.7,25-3.01c7.2-1.08,14.12-7.52,20.29-9.89c-44.42-19-90.76-26.17-128.86-32.61
			C974.12,358.76,966.92,352.16,962.09,349.79z"/>
		<path class="st2" d="M573.54,1012.61c-20.28,0-36.36-11.23-45.39-18.47c-2.16-0.11-6.39,1.76-7.69,2.19
			c0.69-0.23,2.13-1.1,3.76-2.72c-0.08-0.06-2.42,2.43-2.5,2.37c0.08,0.06,3.52-1.23,3.6-1.17c1.32-1.3,0.98-1.61,2-4.02
			c-19.83-5.89-22.73,0.68-37.07-14.23c1.67-30.93,20.5-51.26,39.47-71.16c6.82-7.16,12.45-14.52,17.51-21.13
			c6.81-8.9,11.45-20.42,16.6-32.89c5.27-12.75,11.31-25.71,19.49-37.74c-0.19-1.64,0.15-2.89-0.02-4.46
			c-0.75-6.94,2.03-14.6,0.53-19.27c-32-99.31-40.74-187.27-18.09-263.25c24.89-83.5,80.46-152.38,135.75-217.35
			c2.48-2.91,1.93-3.37,4.41-6.28c6.3-7.41,12.87-14.59,19.39-22.66c31.91-39.45,67.03-78.98,116.74-95.88
			c28.63-9.73,58.08-6.13,86.28-2.68c13.54,1.66,26.27,1.04,38.4,1.05c0.04,0,0.08,2.57,0.12,2.57c9.67,0,20.24,0.38,31.3-0.77
			c28.29-2.96,59.03-5.47,86.95,10.15c18.77,10.5,31.8,25.7,40.35,41.97c4.23,8.07,6.29,16.64,10.78,22.15
			c4.52,5.55,10.46,11.03,16.55,17.08c18.16,18.05,36.03,39,37.09,68.37c0.5,13.95-2.23,28.76-9.25,41.3
			c32.84,20,63.61,41.56,87.05,68.3c13.21,15.07,17.77,34.35,21.59,50.93c1.71,7.41,0,15.5,2.21,21.45
			c18.15,48.77,24.08,97.76,13.8,143.46c-4.09,18.19-16.73,30.85-26.45,43.37c-4.87,6.27-4.8,15.28-8.07,21.04
			c-2.62,4.63-6.16,10-8.2,16.92c-3.78,12.83-8.77,27.32-19.91,38.96c-11.5,12.01-26.56,17.75-39.61,23.13
			c-7.9,3.26-13.44,9.14-18.89,12.99c-51.14,36.06-97.52,50.89-141.57,55.82c-30.4,3.4-63.28-3.15-98.95-26.3
			c-3.62-2.35-8.19-4.81-13.49-7.12c-6.7-2.92-12.36-6.03-19.39-10.75c-18.09,30.89-39.02,59.87-60.46,87.75
			c-8,10.41-18.53,18.97-26.35,29.55c-19.85-6.87-24.12-5.77-36.36-22.84c8.05-10.89,19.63-23.02,27.75-33.59
			c24.17-31.44,44.94-64.24,62.97-98.85c-18.34-35.77-25.78-76.43-29.97-121.05c-4.36-46.39,2.02-95.13,13.17-146.53
			c1.56-7.17-4.13-8.26,1.26-13.25c5.39-4.99,5.71-1.56,12.99-2.57c0.96-0.13,1.29-4.16,2.17-4.3c7.71-1.23,20.84,0.6,33.29,13.74
			c32.19,34.01,34.3,83.11,34.52,123.8c0.02,2.88,1.11,2.87,1.13,5.75c0.05,7.06,1.14,14.37,1.32,21.48
			c0.88,35.33,1.14,72.48-11.88,107.4c-1.82,4.89-7.82,9.33-9.88,14.08c2.76,3.84,12.12,9.75,19.86,13.12
			c6.63,2.89,12.59,6.39,19.12,10.63c27.19,17.65,52.07,19.55,72.43,17.28c36.73-4.11,75.51-17.88,120.64-49.69
			c9.29-6.55,19.64-9.5,29.33-13.5c10.1-4.17,20.41-8.41,25.78-14.02c4.08-4.26,3-14.84,5.66-23.88c2.5-8.48,4.6-19.07,9.6-27.89
			c4.77-8.42,15.59-12.52,21.16-19.7c7.71-9.93,13.93-20.78,15.97-29.84c8.49-37.74,5.47-80.34-9.84-121.45
			c-3.17-8.52-6.18-16.72-8.12-25.12c-2.97-12.89-9.25-22.5-15.49-29.62c-23.85-27.21-49.1-53.32-79-70.62
			c-16.92,12.34-38.12,24.07-59.25,27.23c-5.05,0.76-11.59,0.41-17.89,2.52c-13.76,4.62-29.14,12.25-46.33,8.64
			c-34.77-7.31-61.69-31.4-84.12-53.26c-5.25-5.12-26.04-33.59-24.04-61.81c0.81-11.47,2.31-22.3,11.5-29.02
			c16.5-12.06,33.66,0.42,44.46,5.99c2.65,1.37,7.56,3.27,9.11,3.66c55.81,9.43,105.97,24.82,150.56,45.58
			c2.13,0.99,7.35,1.63,9.45,2.65c3.57-6.17,3.93-14.65,3.72-20.55c-0.46-12.79-16.66-23.17-30.53-36.95
			c-6.59-6.55-12.74-14.35-18.66-21.62c-7.15-8.78-12.95-18.88-17.96-28.43c-6.4-12.18-9.33-25.99-17.22-30.4
			c-16.29-9.11-39.63-5.08-63.85-2.55c-11.69,1.22-23.83,4.17-35.78,4.14c-14.67-0.01-29.73-0.94-43.92-2.68
			c-24.6-3.01-46.77-7.11-66.31-0.46c-38.21,12.99-67.59,47.35-95.74,82.16c-6.4,7.91-11.6,17.32-18.23,25.12
			c-2.48,2.92-3.53,2.03-6.01,4.95C683.97,400.71,629.36,463.94,607,538.95c-19.93,66.85-17.87,147.75,10.5,237.43
			c30.02-27.28,65.97-43.99,102.82-51.19c16.66-3.26,22.1-22.06,33.63-9.61c11.53,12.45-3.72,17.52-8.24,33.88
			c-2.63,9.53-3.72,18.42-5.37,27.9c-2.84,16.28-5.04,34.04-13.51,52.56c-6.66,14.56-22.62,21.93-32.14,25.45
			c-2.87,1.06-8.05-0.83-9.39,0.12c-11.47,8.05-24.82,12.38-37.2,14.49c-16.23,2.76-29.29-1.24-40.72-9.8
			c-0.76,1.82-2.44,6-3.21,7.86c-5.96,14.43-12.89,28.87-23.06,42.15c-6.45,8.42-15.12,15.18-22.41,22.83
			c-6.97,7.31-13.23,15.71-18.64,22.76c3.55,1.13,9,1.74,11.83,4.06c11.38,9.37,18,12.75,22.79,11.47
			c4.71-1.24,12.01-3.52,18.09-8.28c8.98-7.04,19.79-16.37,32.86-19.82c11.33,17.68,3.39,21,6.38,41.79
			c-4.71,1.24-7.15,6.47-13.23,11.23c-8.98,7.04-20.07,13.08-33.14,16.54C581.41,1013.89,577.57,1012.61,573.54,1012.61z
			 M626.47,823.18c0.61,1.53,2.25,6.14,3.09,6.86c4.83,4.15,20.1-0.71,31.67-8.83c5.81-4.08,12.01-6.7,17.59-8.76
			c2.43-0.9,8.98-0.36,10.76-1.32c5.13-11.76,4.52-26.11,6.75-38.76C671.87,782.85,647.13,799.4,626.47,823.18z M891.35,568.04
			c-5.71,36.5-7.1,73.98-3.98,107.15c2.17,23.08,8.57,44.77,14.99,65.1c2.65-19.55,1.93-40.52,1.39-62.18
			c-0.18-7.29,3.26-14.86,3.2-22.3c-0.02-2.91-2.02-2.9-2.03-5.81C904.76,621.44,901.17,589.99,891.35,568.04z M962.09,349.79
			c2.91,5.01,8.09,14.02,13.36,19.16c19.23,18.74,40.56,36.73,63.39,41.53c6.01,1.26,14.97-2.06,24.5-5.26
			c7.74-2.6,16.31-1.7,25-3.01c7.2-1.08,14.12-7.52,20.29-9.89c-44.42-19-90.76-26.17-128.86-32.61
			C974.12,358.76,966.92,352.16,962.09,349.79z"/>
	</g>
	<g>
		<path class="st1" d="M549.33,800.64c-6.64,0-13.35-4.52-18.94-12.88c-1.58-2.36-2.81-5.84-3.91-8.12
			c-26.43-11.83-49.01-31.08-55.9-56.13c-7.85-28.58-6.35-58.21-5.91-86.23c0.18-11.35,4.22-22.14,3.86-32.79
			c-0.32-9.5-3.98-20.4-6.16-31.83c-1.25-6.57-2.89-15.78-3.89-22.83c-45.14-5.35-85.97-24.8-125.09-45.73
			c-14.74-7.88-27.73-17.36-41.87-23.96c-5.69-2.66-15.55,1.9-24.52,1.08c-11.78-1.08-23.77-7.53-36.25-13.51
			c-7.88-3.78-17.1-4.56-23.68-9.66c-0.95,0.09-0.65-1.15-1.24-0.98c-10.61,3.09-21.26,9.56-32.61,16.41
			c-13.16,7.94-27.26,14.69-43.13,19.3c-24.25,7.06-48.23,1.95-70.07-1.06c-5.77-0.79-14.78,1.47-20.17,0.89
			c-0.48-20.99-0.49-22.22,4.69-42.57c6.04,0.64,14.94,2.35,20.78,3.15c19.4,2.67,38.06,6.14,53.71,1.59
			c10.61-3.09,19.93-12.44,31.29-19.29c7.13-4.3,14.94-7.13,22.62-10.98c-4.16-3.87-9.47-4.98-13.7-8.19
			C84.55,359.72,60.29,314.11,49.5,285.57c-3.43-9.08-0.23-22.01,6.87-29.58c2.52-2.68,6.56-3.37,8.97-5.05
			c0.35-2.35,2.88-4.1,3.8-6.84c3.18-9.49,9.62-13.48,18.85-14.66c6.97-0.89,13.34-6.34,20.09-7.49
			c17.57-3.01,35.97-4.52,56.49-2.93c2.88,0.22,6.52-2.55,10.44-2.69c12.97-0.45,30.71,1.51,44.55,13.78
			c40.49,35.9,59.26,98.77,46.96,167.96c0.14,1.42,1.29,3.6,1.8,5.68c1.94,7.9,0.48,20.14-4.98,31.45c1.81,0.19,6.17-1.84,8.05-1.67
			c11.59,1.06,25.21,3.6,37.54,9.36c15.17,7.09,28.32,18.95,42.91,26.74c35.84,19.17,71.18,35.73,106.91,40.98
			c3.03-11.46,10.06-21.43,21.12-30.31c12.91-10.36,25.58-20.06,39.65-26.3c11.79-5.23,26.97-8.15,35.52-14.77
			c-8.05-23.95-19.35-48.38-33-68.91c-36.45-54.88-90.1-98.91-133.61-136.48c-4.74-20.46,9.13-35.9,30.02-33.72
			c45.67,39.43,96.73,89.58,135.99,148.67c11.06,16.65,18.58,35.42,25.96,53.6c3.79-3.43,9.8-8.88,14.82-11.25
			c18.68-8.84,38.63-3.61,56.11-1.67c8.46,0.94,16.48-3.39,23.19-3.88c5.82-0.42,12.96,0.81,20.31-0.97
			c17.26-4.17,38.6-8.87,58.68,0.63c14.49,6.85,23.44,19.87,29.37,37.05c4.45,12.9,7.52,27.5,5.88,42.49
			c-1.76,16.06-5.56,33.01-14.44,45.62c-10.71,15.22-26.83,23.15-43.28,26.7c-19.21,4.14-37.34-0.4-53.36-5.61
			c-9.68-3.15-18.59-9.59-26.08-9.77c-9.47-0.23-16.32,4.3-26,5.68c5.06,14.97,9.12,29.77,9.08,46.65
			c-0.18,69.7-25.04,137.61-64.83,192.6c0.46,1.78-1.09,4.15-0.81,6.06c2.03,14.11-3.3,23.81-10.89,26.8
			C555.73,800.46,552.31,800.63,549.33,800.64z M500.66,553.48c0.66,3.93,0.28,7.22,1.13,11.67c2.38,12.5,4.05,25.31,4.48,38.06
			c0.39,11.68,4.27,23.41,4.09,34.77c-0.41,26.23-1.98,50.62,4.28,73.41c3.12,11.37,12.37,23.8,24.62,30.64
			c33.71-47.52,51.53-108.05,51.68-168.09c0.03-12.32-2.75-26.69-7.51-40.18c-4.17,1.04-10.56,3.23-14.8,4.32
			C546.38,543.78,523.98,551.07,500.66,553.48z M564.37,482.36c-8.79,5.09-18.34,7.24-27.28,11.21
			c-10.41,4.62-20.53,11.36-28.59,16.88c16-2.6,32.34-10.68,49.23-15c3.2-0.82,6.65-0.53,9.88-1.35c-0.04-0.14,2.81,0.3,2.77,0.16
			C569.21,489.73,565.58,486.92,564.37,482.36z M648.15,481.58c1.46,0,2.89,2,4.35,2.04c13.63,0.33,25.67,5.1,37.8,9.04
			c12.05,3.92,23.42,3.69,31.56,1.94c10.75-2.32,22.07-13.44,24.37-34.47c1.65-15.06,0.52-34.97-9.38-39.65
			c-6.69-3.16-20.41,1.19-32.38,4.08c-8.69,2.1-17.62,2.68-26.9,3.35c-10.54,0.76-20.62,1.78-30.58,0.68
			c-13.09-1.45-26.61-4.8-34.54-1.06c-4.34,2.05-5.66,13.48-10.41,20.65c-0.31,0.46-5.52-0.09-5.83,0.38
			c3.59,12.25,11.08,23.4,14.17,35.48c0.15,0.59-1.56,1.43-1.4,2.02C621.86,483.87,634.94,481.58,648.15,481.58z M97.67,280.62
			c20.71,43.82,58.98,78.6,88.12,100.69c9.5,7.2,17.31,15.85,25.45,23.75c3.69,3.58,9.95,4.01,13.58,7.34
			c0.64-0.01-1.46,2.08-0.83,2.06c-1.61-6.56,0.21-14.45,1.75-22.96c4.59-25.42,2.89-51.25-1.94-73.42
			c-5.25-24.09-14.98-44.94-30.26-58.52c-2.27-1.2-12.42,0.66-17.01,0.82c-4.9,0.17-9.76-1.88-14.98-2.28
			c-15.33-1.18-29.21,6.8-45.63,9.61c-3.08,0.53-8.48-3.64-11.66-3.12c-0.97,3.63,0.62,10.51-2.43,14.04
			C100.65,280,98.95,279.53,97.67,280.62z M264.63,396.31l0.88,1.11C265.51,396.86,264.63,396.31,264.63,396.31z"/>
		<path class="st2" d="M549.33,800.64c-6.64,0-13.35-4.52-18.94-12.88c-1.58-2.36-2.81-5.84-3.91-8.12
			c-26.43-11.83-49.01-31.08-55.9-56.13c-7.85-28.58-6.35-58.21-5.91-86.23c0.18-11.35,4.22-22.14,3.86-32.79
			c-0.32-9.5-3.98-20.4-6.16-31.83c-1.25-6.57-2.89-15.78-3.89-22.83c-45.14-5.35-85.97-24.8-125.09-45.73
			c-14.74-7.88-27.73-17.36-41.87-23.96c-5.69-2.66-15.55,1.9-24.52,1.08c-11.78-1.08-23.77-7.53-36.25-13.51
			c-7.88-3.78-17.1-4.56-23.68-9.66c-0.95,0.09-0.65-1.15-1.24-0.98c-10.61,3.09-21.26,9.56-32.61,16.41
			c-13.16,7.94-27.26,14.69-43.13,19.3c-24.25,7.06-48.23,1.95-70.07-1.06c-5.77-0.79-14.78,1.47-20.17,0.89
			c-0.48-20.99-0.49-22.22,4.69-42.57c6.04,0.64,14.94,2.35,20.78,3.15c19.4,2.67,38.06,6.14,53.71,1.59
			c10.61-3.09,19.93-12.44,31.29-19.29c7.13-4.3,14.94-7.13,22.62-10.98c-4.16-3.87-9.47-4.98-13.7-8.19
			C84.55,359.72,60.29,314.11,49.5,285.57c-3.43-9.08-0.23-22.01,6.87-29.58c2.52-2.68,6.56-3.37,8.97-5.05
			c0.35-2.35,2.88-4.1,3.8-6.84c3.18-9.49,9.62-13.48,18.85-14.66c6.97-0.89,13.34-6.34,20.09-7.49
			c17.57-3.01,35.97-4.52,56.49-2.93c2.88,0.22,6.52-2.55,10.44-2.69c12.97-0.45,30.71,1.51,44.55,13.78
			c40.49,35.9,59.26,98.77,46.96,167.96c0.14,1.42,1.29,3.6,1.8,5.68c1.94,7.9,0.48,20.14-4.98,31.45c1.81,0.19,6.17-1.84,8.05-1.67
			c11.59,1.06,25.21,3.6,37.54,9.36c15.17,7.09,28.32,18.95,42.91,26.74c35.84,19.17,71.18,35.73,106.91,40.98
			c3.03-11.46,10.06-21.43,21.12-30.31c12.91-10.36,25.58-20.06,39.65-26.3c11.79-5.23,26.97-8.15,35.52-14.77
			c-8.05-23.95-19.35-48.38-33-68.91c-36.45-54.88-90.1-98.91-133.61-136.48c-4.74-20.46,9.13-35.9,30.02-33.72
			c45.67,39.43,96.73,89.58,135.99,148.67c11.06,16.65,18.58,35.42,25.96,53.6c3.79-3.43,9.8-8.88,14.82-11.25
			c18.68-8.84,38.63-3.61,56.11-1.67c8.46,0.94,16.48-3.39,23.19-3.88c5.82-0.42,12.96,0.81,20.31-0.97
			c17.26-4.17,38.6-8.87,58.68,0.63c14.49,6.85,23.44,19.87,29.37,37.05c4.45,12.9,7.52,27.5,5.88,42.49
			c-1.76,16.06-5.56,33.01-14.44,45.62c-10.71,15.22-26.83,23.15-43.28,26.7c-19.21,4.14-37.34-0.4-53.36-5.61
			c-9.68-3.15-18.59-9.59-26.08-9.77c-9.47-0.23-16.32,4.3-26,5.68c5.06,14.97,9.12,29.77,9.08,46.65
			c-0.18,69.7-25.04,137.61-64.83,192.6c0.46,1.78-1.09,4.15-0.81,6.06c2.03,14.11-3.3,23.81-10.89,26.8
			C555.73,800.46,552.31,800.63,549.33,800.64z M500.66,553.48c0.66,3.93,0.28,7.22,1.13,11.67c2.38,12.5,4.05,25.31,4.48,38.06
			c0.39,11.68,4.27,23.41,4.09,34.77c-0.41,26.23-1.98,50.62,4.28,73.41c3.12,11.37,12.37,23.8,24.62,30.64
			c33.71-47.52,51.53-108.05,51.68-168.09c0.03-12.32-2.75-26.69-7.51-40.18c-4.17,1.04-10.56,3.23-14.8,4.32
			C546.38,543.78,523.98,551.07,500.66,553.48z M564.37,482.36c-8.79,5.09-18.34,7.24-27.28,11.21
			c-10.41,4.62-20.53,11.36-28.59,16.88c16-2.6,32.34-10.68,49.23-15c3.2-0.82,6.65-0.53,9.88-1.35c-0.04-0.14,2.81,0.3,2.77,0.16
			C569.21,489.73,565.58,486.92,564.37,482.36z M648.15,481.58c1.46,0,2.89,2,4.35,2.04c13.63,0.33,25.67,5.1,37.8,9.04
			c12.05,3.92,23.42,3.69,31.56,1.94c10.75-2.32,22.07-13.44,24.37-34.47c1.65-15.06,0.52-34.97-9.38-39.65
			c-6.69-3.16-20.41,1.19-32.38,4.08c-8.69,2.1-17.62,2.68-26.9,3.35c-10.54,0.76-20.62,1.78-30.58,0.68
			c-13.09-1.45-26.61-4.8-34.54-1.06c-4.34,2.05-5.66,13.48-10.41,20.65c-0.31,0.46-5.52-0.09-5.83,0.38
			c3.59,12.25,11.08,23.4,14.17,35.48c0.15,0.59-1.56,1.43-1.4,2.02C621.86,483.87,634.94,481.58,648.15,481.58z M97.67,280.62
			c20.71,43.82,58.98,78.6,88.12,100.69c9.5,7.2,17.31,15.85,25.45,23.75c3.69,3.58,9.95,4.01,13.58,7.34
			c0.64-0.01-1.46,2.08-0.83,2.06c-1.61-6.56,0.21-14.45,1.75-22.96c4.59-25.42,2.89-51.25-1.94-73.42
			c-5.25-24.09-14.98-44.94-30.26-58.52c-2.27-1.2-12.42,0.66-17.01,0.82c-4.9,0.17-9.76-1.88-14.98-2.28
			c-15.33-1.18-29.21,6.8-45.63,9.61c-3.08,0.53-8.48-3.64-11.66-3.12c-0.97,3.63,0.62,10.51-2.43,14.04
			C100.65,280,98.95,279.53,97.67,280.62z M264.63,396.31l0.88,1.11C265.51,396.86,264.63,396.31,264.63,396.31z"/>
	</g>
	<g>
		<path class="st1" d="M1825.23,1011.3c-19.69,7.3-33.69-4.76-30.58-25.52c42.64-47.64,44.59-121.37,45.71-192.72
			c0.21-13.53,0.02-27.53,0.53-41.01c0.82-21.41,6.74-42.78,9.02-63.83c4.92-45.38,6.29-88.98-3.13-128.89
			c-3.46,0.04-7.9,1.31-11.7,0.42c-4.6-1.07-9.23-6.28-12.62-8.51c-11.15,10.32-17.76,24.16-27.07,36.1
			c-20.62,83.8-49.98,166.16-93.15,243.43c-0.54,0.97,0.76,5-0.12,7.11c-4.88,11.69-10.42,30.82-26.72,34.79
			c-8.99,2.19-9.48,3.78-17.67-0.52s-1.05-7.94-4.35-16.58c-11.07-28.95-5.22-58.38,5.3-84.45c3.24-8.03,8.34-14.71,10.45-21.6
			c17.46-57.05,44.96-123.16,87.05-180.11c2.84-11.67,1.78-25.2,4.61-37.04c5.85-24.42,16.06-48.62,22.45-73.44
			c3.81-14.78,2.62-32.54,1.15-50.47c-1.01-12.39-8.03-25.14-7.43-38.16c0.57-12.5,4.38-24.78,7.2-36.21
			c3.33-13.49,5.99-25.09,4.16-35.51c-0.58-3.28-2.72-9.82-6.65-14.81c-6.71-8.54-13.95-16.57-16.88-28.94
			c-8.41,12.76-20.06,21.39-28.76,33.46c-22.71,31.49-44.5,62.17-55.73,96.18c-4.32,13.08-2.47,27.07-5.14,39.97
			c2.24,30.37-4.1,60.34-4.63,91.39c-0.22,12.74,2.6,24.83,2.59,38c-19.25,8.1-27.35,21.71-43.56,8.53
			c-9.75-46.02-10.35-94.66-1.61-140.63c-1.63-18.92-5.04-36.73-9.82-55.78c-5.94-23.64-22.71-43.22-42.55-64.25
			c-2.88-3.05-2.67-8.94-5.48-11.97c-37.66-40.66-60.49-37.29-67.45-34.09c-17,7.82-20.98,38.35-24.82,66.56
			c-0.99,7.3-0.26,15.13-1.53,22.21c-14.12,78.81-24.91,160.07-22.36,241.68c0.29,9.25,4.05,18.67,4.55,27.92
			c12.75,14.35,25.93,27.72,36.12,41.46c23.32,31.45,37.89,61.5,48.22,89.53c13.64,37.01,12.6,70.54,3.88,102.22
			c-1.47,5.33-2.59,13.85-16.11,18.05c-4.8,1.49-8.45,8.4-12.63,8.8c-1.47,0.14-4.02-3.89-5.03-3.7
			c-12.39,5.08-25.2,2.03-37.39-4.12c-12.96-6.54-21.4-16.44-24.72-30.54c-15.86-67.51-29.87-135.29-34.46-204.02
			c-24.85-26.03-51.59-53.91-86.62-65.78c-62.11-21.04-132.31-1.53-198.4,14.87c-63.34,15.71-135.26,32.58-174.7,84.28
			c-19.76,7.12-38.05-2.3-34.75-23.04c47.33-62.05,127.75-89.22,198.18-106.69c29.75-7.38,69.56-11.96,109.59-14.77
			c42.29-2.96,79.44-3.53,112.8,7.77c27.61,9.35,53,26.38,74.53,43.8c-1.47-79.26,6.16-158.16,19.89-234.79
			c1.11-6.21,2.93-13,3.91-20.19c4.86-35.74,8.08-78.4,46.03-95.86c41.99-19.31,86.49,8.29,114.96,39.04
			c2.72,2.94,4.49,6.77,7.28,9.73c18.31,19.42,36.85,43.84,47.88,70.84c13.35-26.6,30.69-51.78,47.64-75.28
			c13.19-18.29,27.36-34.57,38.03-52.89c10.07-17.29,0.44-26.73,17.66-36.92c8.43-4.99,5.28,9.26,12.02,16.37
			c5.93-2.67,11.47-4.62,19.67-1.74c4.07,1.43,15.23,10.95,15.64,29.99c0.12,5.7,0.78,11.56-0.15,16.65
			c-0.39,2.13,0.11,4.78-0.02,6.34c1.02,3.4,6.04,7.7,9.72,12.39c7.19,9.14,10.82,21.68,13.22,35.36
			c3.36,19.15,0.5,37.12-3.53,53.45c-2.44,9.88-1.21,19.49-1.59,27.85c-0.47,10.34-0.54,20.99,0.41,32.58
			c1.69,20.61,0.09,41.75-5.48,63.39c-3.44,13.33-7.54,27.83-10.81,41.29c6.59-2.88,16.6-3.86,24.02-0.58
			c4.13,1.83,5.61,7.28,8.67,9.45c0.57,0.4,2.83-0.75,3.47-0.31c0.86-0.01,2.1-0.94,2.87-0.96c3.9-0.1,8.39,1.77,13.27,2.7
			c15.26,2.91,18.08,12.62,19.47,17.17c15.67,51.12,9.3,103.28,3.71,154.77c-2.31,21.27,0.32,41.75-0.44,61.69
			c-0.5,13.01-6.73,26.02-6.95,39.93C1876.33,869.01,1878.32,951.98,1825.23,1011.3z M1513.64,867.38c-0.01,0-0.01,2.91-0.02,2.91
			C1513.63,870.29,1513.63,867.38,1513.64,867.38z M1466.15,687.06c5.42,45.95,13.09,94.3,23.71,139.5
			c0.46,1.95,1.35,4.22,3.16,5.13c1.36,0.68,2.94,0.41,4.11-0.09c5.18-2.22,13.99-1.96,18.76-2.43
			C1522.62,790.52,1503.94,740.37,1466.15,687.06z M1805.69,247c0,0,0.22-2.69,0.22-2.69C1805.91,245.66,1805.69,247,1805.69,247z"
			/>
		<path class="st2" d="M1825.23,1011.3c-19.69,7.3-33.69-4.76-30.58-25.52c42.64-47.64,44.59-121.37,45.71-192.72
			c0.21-13.53,0.02-27.53,0.53-41.01c0.82-21.41,6.74-42.78,9.02-63.83c4.92-45.38,6.29-88.98-3.13-128.89
			c-3.46,0.04-7.9,1.31-11.7,0.42c-4.6-1.07-9.23-6.28-12.62-8.51c-11.15,10.32-17.76,24.16-27.07,36.1
			c-20.62,83.8-49.98,166.16-93.15,243.43c-0.54,0.97,0.76,5-0.12,7.11c-4.88,11.69-10.42,30.82-26.72,34.79
			c-8.99,2.19-9.48,3.78-17.67-0.52s-1.05-7.94-4.35-16.58c-11.07-28.95-5.22-58.38,5.3-84.45c3.24-8.03,8.34-14.71,10.45-21.6
			c17.46-57.05,44.96-123.16,87.05-180.11c2.84-11.67,1.78-25.2,4.61-37.04c5.85-24.42,16.06-48.62,22.45-73.44
			c3.81-14.78,2.62-32.54,1.15-50.47c-1.01-12.39-8.03-25.14-7.43-38.16c0.57-12.5,4.38-24.78,7.2-36.21
			c3.33-13.49,5.99-25.09,4.16-35.51c-0.58-3.28-2.72-9.82-6.65-14.81c-6.71-8.54-13.95-16.57-16.88-28.94
			c-8.41,12.76-20.06,21.39-28.76,33.46c-22.71,31.49-44.5,62.17-55.73,96.18c-4.32,13.08-2.47,27.07-5.14,39.97
			c2.24,30.37-4.1,60.34-4.63,91.39c-0.22,12.74,2.6,24.83,2.59,38c-19.25,8.1-27.35,21.71-43.56,8.53
			c-9.75-46.02-10.35-94.66-1.61-140.63c-1.63-18.92-5.04-36.73-9.82-55.78c-5.94-23.64-22.71-43.22-42.55-64.25
			c-2.88-3.05-2.67-8.94-5.48-11.97c-37.66-40.66-60.49-37.29-67.45-34.09c-17,7.82-20.98,38.35-24.82,66.56
			c-0.99,7.3-0.26,15.13-1.53,22.21c-14.12,78.81-24.91,160.07-22.36,241.68c0.29,9.25,4.05,18.67,4.55,27.92
			c12.75,14.35,25.93,27.72,36.12,41.46c23.32,31.45,37.89,61.5,48.22,89.53c13.64,37.01,12.6,70.54,3.88,102.22
			c-1.47,5.33-2.59,13.85-16.11,18.05c-4.8,1.49-8.45,8.4-12.63,8.8c-1.47,0.14-4.02-3.89-5.03-3.7
			c-12.39,5.08-25.2,2.03-37.39-4.12c-12.96-6.54-21.4-16.44-24.72-30.54c-15.86-67.51-29.87-135.29-34.46-204.02
			c-24.85-26.03-51.59-53.91-86.62-65.78c-62.11-21.04-132.31-1.53-198.4,14.87c-63.34,15.71-135.26,32.58-174.7,84.28
			c-19.76,7.12-38.05-2.3-34.75-23.04c47.33-62.05,127.75-89.22,198.18-106.69c29.75-7.38,69.56-11.96,109.59-14.77
			c42.29-2.96,79.44-3.53,112.8,7.77c27.61,9.35,53,26.38,74.53,43.8c-1.47-79.26,6.16-158.16,19.89-234.79
			c1.11-6.21,2.93-13,3.91-20.19c4.86-35.74,8.08-78.4,46.03-95.86c41.99-19.31,86.49,8.29,114.96,39.04
			c2.72,2.94,4.49,6.77,7.28,9.73c18.31,19.42,36.85,43.84,47.88,70.84c13.35-26.6,30.69-51.78,47.64-75.28
			c13.19-18.29,27.36-34.57,38.03-52.89c10.07-17.29,0.44-26.73,17.66-36.92c8.43-4.99,5.28,9.26,12.02,16.37
			c5.93-2.67,11.47-4.62,19.67-1.74c4.07,1.43,15.23,10.95,15.64,29.99c0.12,5.7,0.78,11.56-0.15,16.65
			c-0.39,2.13,0.11,4.78-0.02,6.34c1.02,3.4,6.04,7.7,9.72,12.39c7.19,9.14,10.82,21.68,13.22,35.36
			c3.36,19.15,0.5,37.12-3.53,53.45c-2.44,9.88-1.21,19.49-1.59,27.85c-0.47,10.34-0.54,20.99,0.41,32.58
			c1.69,20.61,0.09,41.75-5.48,63.39c-3.44,13.33-7.54,27.83-10.81,41.29c6.59-2.88,16.6-3.86,24.02-0.58
			c4.13,1.83,5.61,7.28,8.67,9.45c0.57,0.4,2.83-0.75,3.47-0.31c0.86-0.01,2.1-0.94,2.87-0.96c3.9-0.1,8.39,1.77,13.27,2.7
			c15.26,2.91,18.08,12.62,19.47,17.17c15.67,51.12,9.3,103.28,3.71,154.77c-2.31,21.27,0.32,41.75-0.44,61.69
			c-0.5,13.01-6.73,26.02-6.95,39.93C1876.33,869.01,1878.32,951.98,1825.23,1011.3z M1513.64,867.38c-0.01,0-0.01,2.91-0.02,2.91
			C1513.63,870.29,1513.63,867.38,1513.64,867.38z M1466.15,687.06c5.42,45.95,13.09,94.3,23.71,139.5
			c0.46,1.95,1.35,4.22,3.16,5.13c1.36,0.68,2.94,0.41,4.11-0.09c5.18-2.22,13.99-1.96,18.76-2.43
			C1522.62,790.52,1503.94,740.37,1466.15,687.06z M1805.69,247c0,0,0.22-2.69,0.22-2.69C1805.91,245.66,1805.69,247,1805.69,247z"
			/>
	</g>
</g>
</svg>
