<?xml version="1.0" encoding="utf-8"?>
<!-- Generator: Adobe Illustrator 28.1.0, SVG Export Plug-In . SVG Version: 6.00 Build 0)  -->
<svg version="1.1" id="Layer_1" xmlns="http://www.w3.org/2000/svg" xmlns:xlink="http://www.w3.org/1999/xlink" x="0px" y="0px"
	 viewBox="0 0 1920 1080" style="enable-background:new 0 0 1920 1080;" xml:space="preserve">
<style type="text/css">
	.st0{opacity:0.9;}
	.st1{fill:#BFB326;}
	.st2{fill:none;stroke:#8B8332;stroke-width:3;stroke-miterlimit:10;}
	.st3{fill:none;stroke:#8B8332;stroke-width:3.0861;stroke-miterlimit:10;}
	.st4{fill:#8B8332;}
</style>
<path d="M842.28,830.54c0,0.01,0,0.01,0,0.02c0,0,0.01,0,0.01,0.01L842.28,830.54z"/>
<path d="M866.96,853.61c0.01,0.02,0.02,0.03,0.02,0.05c0.02-0.02,0.05-0.03,0.07-0.05C867.06,853.61,866.96,853.61,866.96,853.61z"
	/>
<path d="M807.39,882c0,0.04,0,0.07,0,0.11c0.01,0.01,0.01,0.02,0.02,0.03C807.4,882.13,807.39,882,807.39,882z"/>
<path d="M820.54,874.22c-0.03,0-0.05,0-0.08-0.01c0,0.02,0,0.04,0,0.07L820.54,874.22z"/>
<path d="M891.04,862.37c-0.03,0-0.05,0-0.08,0c0,0.02,0,0.04,0,0.07L891.04,862.37z"/>
<path d="M818.09,875.4c0.02,0.02,0.04,0.04,0.06,0.06c0.01,0,0.01,0,0.02,0L818.09,875.4z"/>
<path d="M889.23,867.09c-0.02,0.02-0.03,0.04-0.05,0.06c0,0.01,0,0.02,0,0.03L889.23,867.09z"/>
<path d="M713.3,877.17c0,0.02,0,0.03,0,0.05c0.01,0.01,0.01,0.02,0.02,0.03L713.3,877.17z"/>
<path d="M706.8,904.4c-0.02,0.03-0.04,0.05-0.07,0.08c0,0,0,0.01,0,0.01L706.8,904.4z"/>
<path d="M713.92,874.23c-0.02,0-0.05,0-0.07,0c0,0.02,0,0.05,0.01,0.07L713.92,874.23z"/>
<path d="M1363.74,943.56c-0.02-0.01-0.05-0.02-0.07-0.03c-0.01,0-0.02,0-0.02,0L1363.74,943.56z"/>
<path d="M1494.05,937.58c-0.02,0.01-0.04,0.02-0.06,0.03c0,0-0.01,0.01-0.01,0.01L1494.05,937.58z"/>
<path d="M1416.85,858.48c0.02-0.01,0.05-0.02,0.07-0.03c0-0.01-0.01-0.02-0.01-0.03C1416.9,858.41,1416.85,858.48,1416.85,858.48z"
	/>
<path d="M1446.37,944.74c0-0.01,0-0.03,0-0.04c-0.03,0-0.06,0-0.08,0L1446.37,944.74z"/>
<path d="M1357.15,948.83C1357.15,948.83,1357.15,948.83,1357.15,948.83c0.02,0.03,0.05,0.05,0.07,0.08L1357.15,948.83z"/>
<path d="M994.68,842.87c0-0.01,0-0.01,0-0.02c-0.02-0.01-0.04-0.02-0.05-0.03C994.62,842.82,994.68,842.87,994.68,842.87z"/>
<path d="M984.01,883.18c0-0.01,0-0.02,0-0.03c-0.02-0.02-0.04-0.04-0.06-0.06L984.01,883.18z"/>
<path d="M1005.94,947.71c0,0,0-0.01,0-0.01c-0.02-0.02-0.05-0.03-0.07-0.05L1005.94,947.71z"/>
<path d="M1036.57,832.53c0,0,0,0.01,0.01,0.01c0.06,0.01,0.13,0.01,0.19,0.02C1036.77,832.56,1036.57,832.53,1036.57,832.53z"/>
<path d="M1447.94,890.05c0.01-0.02,0.02-0.04,0.03-0.05l0,0L1447.94,890.05z"/>
<path d="M1378.46,958.9c0.02,0.02,0.05,0.05,0.07,0.07c0,0,0.01-0.01,0.01-0.01C1378.54,958.96,1378.46,958.9,1378.46,958.9z"/>
<path d="M1374.38,955.92c-0.02,0.02-0.04,0.03-0.06,0.05c0,0.01,0,0.02,0,0.04L1374.38,955.92z"/>
<path d="M1433.63,873.67c-0.01-0.01-0.02-0.02-0.03-0.03c-0.01-0.01-0.03-0.02-0.04-0.02L1433.63,873.67z"/>
<path d="M1385.42,956.95c0,0.01,0,0.01,0.01,0.02c0-0.01,0-0.01,0.01-0.02L1385.42,956.95z"/>
<g class="st0">
	<g>
		<path class="st1" d="M1019.89,616.66c-6.91,0-9.63-14.35-12.87-16.25c-16.6-9.71-33.56-28.15-38.06-76.56
			c-3-32.3-3.67-76.4-2.32-126.28c0.54-19.97,0.37-36.34,1.59-57.23c-9.5,9.44-14.46,11.21-25.13,17.87
			c-0.15,1.8-5.27,5.42-5.51,7.32c0.98,32.5-0.63,82.16-23.94,125.48c-15.81,29.39-55.35,70.96-96.72,77.99
			c-18.36,3.12-29.13-2.46-43.22-16.48c-7.63-7.6-27.02-8.07-32.8-20.5c-0.73,0.45,0.44-9.94-0.3-9.56
			c-6.81,5.6-7.49,17.75-14.13,19.71c-9.71,2.87-21.49,3.41-29.86-1.26c-12.3-6.86-19.35-26.36-23.75-48.81
			c-17.25,28.29-41.56,52.95-61.62,76.86c-4.78,5.7,0.18,5.66-7,7.64c-7.18,1.98-3.54,1.33-10.57-1.11
			c-13.61-4.72-19.29-16.98-25.95-33.55c-5.45,4.28-14.94,20.08-20.91,21.14c-6.51,1.15-24.98-5.9-38.17-24.79
			c-7.66-10.96-12.06-27.38-15.19-43.16c-14.53,15.31-32.24,21.89-46.21,29.78c-33.41,18.86-59.91,26.88-76.25,19.22
			c-23.27-10.9-37.69-43.68-51.5-77.28c-8.46,18.18-20.62,39.53-37.85,42.38c-7.31,1.21-14.53-8-26.63-23.87
			c-3.44-3.45-15.47-2.12-20.44-12.63c-4.75,3.91-9.46,6.26-16.16,7.29c-11.03,1.7-31.52,3.96-47.78-18.6
			c-3.13,9.02,1.19,14.31-3.8,22.07c-14.19,22.03-37.03,24.98-52.05,24.98c-0.15,0,0.05,0.96-0.1,0.96
			c-30.17,10.04-51.92,2.24-63.36-7.12c-16.8-13.76-20.25-40.36-22.97-74.36c-2.54-31.69,2.26-61.51,4.26-73.41
			c0.09-0.51-3.03-0.95-2.92-1.46c1.69-7.74-0.72-21.04,0.37-34.53c3.36-41.58,5.09-92.75,31.76-114.39
			c10.3-8.36,26.59-10.34,40.36-8.87c5.62,0.33,9.19,6.85,13.37,10.79c11.14,10.5,12.81,26.08,11.78,72.8
			c-0.28,12.73-4.59,32.94-3.54,37.77c0-0.02,5.76,2.61,5.53,1.99c-20.38,7.15-20.07,11.68-41.5,14.4
			c-3.44-9.34-9.87-27.72-9.27-55.24c0.14-6.36-1.97-12.29-1.96-20.66c-1.44,3.9,3.99,5.89,2.62,12.36
			c-3.4,16.06,4.37,36.26,3,53.25c-1.24,15.35-2.41,29.36-4.64,39.85c-7.97,47.95-15.11,97.86-1.26,109.2
			c1.7,1.4,13.41,7.32,29.54,1.17c2.31-0.88-0.33-7.9,2.12-8.24c2.45-0.34,2.42,0.44,4.88,0.65c11.55,1,11.27-9.58,21.59-45.89
			c2.36-8.3,14.16-14.2,17.12-22.21c-0.33-1.09-6.47-2.65-6.79-3.75c-13.51-46.42-24.18-99.09-18.52-141.51
			c7.56-56.7,44.13-87.28,83.86-104.73c13.82-6.07,6.9-19.84,19.88-12.14c12.98,7.71,3.2,7.74,4.48,22.78
			c2.72,31.92,3.26,64.41-1.54,96.26c6.56-1.31,15.14-4.3,22.47-1.6c6.9,2.55,4.28,5.51,8.55,11.5c4.27,5.99,5.27,4.53,5.43,11.88
			c1.31,59.69-2.48,106.49-8.61,139.14c5.73,19.89,8.6,41.86,12.32,48.98c2.54-4.75,8.66-19.81,12.68-30.72
			c4.59-12.46,15.28-26.55,19.22-39.97c-7.12-51.46-18.34-108.46-6.21-152.73c0.87-3.19,3.24-4.28,5.01-7.08
			c1.77-2.8,12.31,6.92,14.83,4.77c16.97-14.55,27.97-16.41,32.05-13.86c14.46,9.02,15.43,31,12.44,71.62
			c-1.75,23.86,2.16,49.3,0.45,55.89c-0.31,1.2,0.28,2.19-0.17,3.35c-0.45,1.16-7.75-1.75-8.32-0.65c-2,3.87,1.52,22.84-2.28,36.06
			c-0.75,2.61-12.32,2.87-13.12,5.63c0.4,2.42,8.19,4.27,8.64,6.66c9.17,48.88,22.21,86.75,43.44,96.69
			c3.87,1.81,16.05,4.43,37.09-7.44c18.03-10.18,30.78-33.89,51.75-62.55c0-2.88,4.38-0.43,4.42-2.4
			c1.13-50.65,14.07-97.85,31.74-129.17c6.03-15.09,12.42-27.79,24.73-32.23c1.66-35.79,6.92-66.72,16.29-100.96
			c8.99-32.81-10.3-54.55,23.69-55.92c33.99-1.36,18.74,21.05,30.33,53.03c30.73,84.83,4.73,180.07-3.79,262.51
			c-0.09,0.84,13.39,2.6,13.23,3.43c-0.15,0.83-0.65,1.08-0.86,1.89c-7.16,27.01-25.33,46.84-32.54,64.71
			c1.56,12.51,11.71,23.9,13.54,30.27c46.73-59.74,62.3-103.52,69.27-136.74c1.32-15.31,4.73-22.34,6.08-30.09
			c21.5-1.56,21.72-7.35,41.75,0.59c-0.48,12.25-4.21,22.02-6.48,33.69c-1.09,12.7,2.43,28.06,2.2,43.32
			c-0.53,35.99,0.93,53.25,3.48,60.63c0.48-0.39,2.84,0.09,3.39-0.4c1.63-1.45,2.19-0.07,4.02-1.25c1.14-0.73,2.47,2.36,3.66,1.71
			c1.09-1.11,0.61-9.93,4.95-18c-4.76-41.18,7.61-82.01,14.02-122.51c4.99-31.52,12.86-62.28,12.41-91.1c0-0.12-3.66-0.01-3.66-0.13
			c0-0.12,1.98-0.05,1.98-0.17c0.03-3.76-5.76-13.28-8.07-19.78c-5.95-16.75-17.49-36.36-5.89-54.69c0.6-0.96,5.25,2.68,5.95,1.79
			c0.7-0.89-4.38-5.01-3.59-5.82c7.78-7.98,31.23-29.57,56.98-18.49c12.58,5.41,15.45,16.97,19.44,35.74
			c2.62,12.36,10.56,27.1,9.8,46.46c-1.79,45.44-15.53,108.89-31.96,166.46c-7.7,26.99-12.97,51.67-21.09,69.67
			c0.17,0.92,7.15-1.03,7.34-0.11c6.96,23.42,11.88,31.09,16.9,36.08c5.06,5.04,1.92,3.35,5.1,2.81c13.31-2.26,40.28-14.48,62.62-56
			c16.51-30.68,18.77-63.53,21.28-88c-9.45,2.22-12.19,4.79-21.89,4.93c-8.85,0.13-15.05,7.59-21.98,2.08
			c-6.93-5.51,4.74-14.48,2.88-23.13c-5.84-27.1,1.34-47.56,19.68-60.57c14.82-10.5,32.04-13.97,47.33-4.6
			c3.92,2.41,10.28,5.84,15.43,13.58c5.86-4.8,11.78-8.85,17.11-14.93c14.14-16.13,23.71-35.94,30.23-56.12
			c2.69-21.72,6.15-34.95,9.21-42.12c21.23,1.11,26.67-9.95,44.88,1.03c-0.72,15.06-3.35,36.2-7.78,50.96
			c-3.87,33.31-5.28,84.07-7.03,139.9c-1.44,45.9-5.23,86.26-2.95,117.31c1.74,23.77,8.33,45.47,10.58,54.41
			c15.14-23.45,12.84-56.56,21.96-82.71c-2.26-28.82,6.85-67.42,7.44-104.41c0.92-57.36,10.48-82.99,29.5-96.6
			c11.38-8.14,18.48-9.35,32.59-3.26c7.07,3.06,19.07-10.29,23.05-3.7c3.98,6.59-8.78,11.35-9.37,19.03
			c-4.75,62.4-18.27,128.52-39.45,193.23c0.75,9.4,15.6,18.21,15.87,23.46c8,39.71,14.42,39.5,14.53,39.53
			c2.01,0.56,9.66,4.49,22.82-10.02c36.62-40.4,57.41-127.71,44.74-160.37c10.72-18.75,23.03-12.39,43.48-5.41
			c13.13,33.85,8.97,74.44,0.95,98.84c-12.29,37.42-35.28,73.61-56.26,96.77c-28.06,30.96-54.6,34.18-69.62,29.99
			c-16.41-4.57-24.03-26.81-33.35-47.93c-5.92,10.93-11.32,31.52-18.48,41.95c-0.33,0.48-6.95-4.19-7.31-3.72
			C1039.73,604.06,1029.2,616.66,1019.89,616.66z M538.64,448.82c1.03,28.31-5.5,51.55-1.39,61.89c2.45-3.6,4.01-13.4,7.82-21.83
			c-1.75-19.04-2.3-40.05-2.53-64.04c-0.78,1.1,10.34,6.59,9.57,7.67C547.1,439.58,542.96,442.33,538.64,448.82z M725.32,484.26
			c0,0,5.51,7.17,5.51,7.17C730.83,487.84,725.32,484.26,725.32,484.26z M200.91,396.87c6.5,17.86,3.8,34.85,8.38,40.67
			c1.48-3.27-0.18-13.23,1.64-20.8c-2.22-8.4-3.97-16.11-5.83-24.82c-1.74-8.16,5.22-10.75,3.78-19.65
			C205.05,383.65,204.84,386.62,200.91,396.87z M554.83,337.67c-2.27,5.58-15.43,11.63-17.28,18.02c2.54-5.34,3.82-15.09,5.36-20.33
			C542.9,334.65,554.83,338.36,554.83,337.67z M187.45,205.69c-1.97,3.15-1.62,4.19-3.32,7.83c-8,17.14-1.99,41.3-3.01,66.77
			c-0.43,10.68-10.69,19.43-9.83,30.81C180.7,276.99,185.64,242.33,187.45,205.69z M788.83,215.24c0.41,4.35-8.7,12.91-6.8,18.28
			c0.79,2.23,1.19,2.27,1.96,4.54c0.08-15.22-0.16-20.9-1.43-26C781.13,213.14,790.84,213.36,788.83,215.24z"/>
		<path class="st3" d="M1019.89,616.66c-6.91,0-9.63-14.35-12.87-16.25c-16.6-9.71-33.56-28.15-38.06-76.56
			c-3-32.3-3.67-76.4-2.32-126.28c0.54-19.97,0.37-36.34,1.59-57.23c-9.5,9.44-14.46,11.21-25.13,17.87
			c-0.15,1.8-5.27,5.42-5.51,7.32c0.98,32.5-0.63,82.16-23.94,125.48c-15.81,29.39-55.35,70.96-96.72,77.99
			c-18.36,3.12-29.13-2.46-43.22-16.48c-7.63-7.6-27.02-8.07-32.8-20.5c-0.73,0.45,0.44-9.94-0.3-9.56
			c-6.81,5.6-7.49,17.75-14.13,19.71c-9.71,2.87-21.49,3.41-29.86-1.26c-12.3-6.86-19.35-26.36-23.75-48.81
			c-17.25,28.29-41.56,52.95-61.62,76.86c-4.78,5.7,0.18,5.66-7,7.64c-7.18,1.98-3.54,1.33-10.57-1.11
			c-13.61-4.72-19.29-16.98-25.95-33.55c-5.45,4.28-14.94,20.08-20.91,21.14c-6.51,1.15-24.98-5.9-38.17-24.79
			c-7.66-10.96-12.06-27.38-15.19-43.16c-14.53,15.31-32.24,21.89-46.21,29.78c-33.41,18.86-59.91,26.88-76.25,19.22
			c-23.27-10.9-37.69-43.68-51.5-77.28c-8.46,18.18-20.62,39.53-37.85,42.38c-7.31,1.21-14.53-8-26.63-23.87
			c-3.44-3.45-15.47-2.12-20.44-12.63c-4.75,3.91-9.46,6.26-16.16,7.29c-11.03,1.7-31.52,3.96-47.78-18.6
			c-3.13,9.02,1.19,14.31-3.8,22.07c-14.19,22.03-37.03,24.98-52.05,24.98c-0.15,0,0.05,0.96-0.1,0.96
			c-30.17,10.04-51.92,2.24-63.36-7.12c-16.8-13.76-20.25-40.36-22.97-74.36c-2.54-31.69,2.26-61.51,4.26-73.41
			c0.09-0.51-3.03-0.95-2.92-1.46c1.69-7.74-0.72-21.04,0.37-34.53c3.36-41.58,5.09-92.75,31.76-114.39
			c10.3-8.36,26.59-10.34,40.36-8.87c5.62,0.33,9.19,6.85,13.37,10.79c11.14,10.5,12.81,26.08,11.78,72.8
			c-0.28,12.73-4.59,32.94-3.54,37.77c0-0.02,5.76,2.61,5.53,1.99c-20.38,7.15-20.07,11.68-41.5,14.4
			c-3.44-9.34-9.87-27.72-9.27-55.24c0.14-6.36-1.97-12.29-1.96-20.66c-1.44,3.9,3.99,5.89,2.62,12.36
			c-3.4,16.06,4.37,36.26,3,53.25c-1.24,15.35-2.41,29.36-4.64,39.85c-7.97,47.95-15.11,97.86-1.26,109.2
			c1.7,1.4,13.41,7.32,29.54,1.17c2.31-0.88-0.33-7.9,2.12-8.24c2.45-0.34,2.42,0.44,4.88,0.65c11.55,1,11.27-9.58,21.59-45.89
			c2.36-8.3,14.16-14.2,17.12-22.21c-0.33-1.09-6.47-2.65-6.79-3.75c-13.51-46.42-24.18-99.09-18.52-141.51
			c7.56-56.7,44.13-87.28,83.86-104.73c13.82-6.07,6.9-19.84,19.88-12.14c12.98,7.71,3.2,7.74,4.48,22.78
			c2.72,31.92,3.26,64.41-1.54,96.26c6.56-1.31,15.14-4.3,22.47-1.6c6.9,2.55,4.28,5.51,8.55,11.5c4.27,5.99,5.27,4.53,5.43,11.88
			c1.31,59.69-2.48,106.49-8.61,139.14c5.73,19.89,8.6,41.86,12.32,48.98c2.54-4.75,8.66-19.81,12.68-30.72
			c4.59-12.46,15.28-26.55,19.22-39.97c-7.12-51.46-18.34-108.46-6.21-152.73c0.87-3.19,3.24-4.28,5.01-7.08
			c1.77-2.8,12.31,6.92,14.83,4.77c16.97-14.55,27.97-16.41,32.05-13.86c14.46,9.02,15.43,31,12.44,71.62
			c-1.75,23.86,2.16,49.3,0.45,55.89c-0.31,1.2,0.28,2.19-0.17,3.35c-0.45,1.16-7.75-1.75-8.32-0.65c-2,3.87,1.52,22.84-2.28,36.06
			c-0.75,2.61-12.32,2.87-13.12,5.63c0.4,2.42,8.19,4.27,8.64,6.66c9.17,48.88,22.21,86.75,43.44,96.69
			c3.87,1.81,16.05,4.43,37.09-7.44c18.03-10.18,30.78-33.89,51.75-62.55c0-2.88,4.38-0.43,4.42-2.4
			c1.13-50.65,14.07-97.85,31.74-129.17c6.03-15.09,12.42-27.79,24.73-32.23c1.66-35.79,6.92-66.72,16.29-100.96
			c8.99-32.81-10.3-54.55,23.69-55.92c33.99-1.36,18.74,21.05,30.33,53.03c30.73,84.83,4.73,180.07-3.79,262.51
			c-0.09,0.84,13.39,2.6,13.23,3.43c-0.15,0.83-0.65,1.08-0.86,1.89c-7.16,27.01-25.33,46.84-32.54,64.71
			c1.56,12.51,11.71,23.9,13.54,30.27c46.73-59.74,62.3-103.52,69.27-136.74c1.32-15.31,4.73-22.34,6.08-30.09
			c21.5-1.56,21.72-7.35,41.75,0.59c-0.48,12.25-4.21,22.02-6.48,33.69c-1.09,12.7,2.43,28.06,2.2,43.32
			c-0.53,35.99,0.93,53.25,3.48,60.63c0.48-0.39,2.84,0.09,3.39-0.4c1.63-1.45,2.19-0.07,4.02-1.25c1.14-0.73,2.47,2.36,3.66,1.71
			c1.09-1.11,0.61-9.93,4.95-18c-4.76-41.18,7.61-82.01,14.02-122.51c4.99-31.52,12.86-62.28,12.41-91.1c0-0.12-3.66-0.01-3.66-0.13
			c0-0.12,1.98-0.05,1.98-0.17c0.03-3.76-5.76-13.28-8.07-19.78c-5.95-16.75-17.49-36.36-5.89-54.69c0.6-0.96,5.25,2.68,5.95,1.79
			c0.7-0.89-4.38-5.01-3.59-5.82c7.78-7.98,31.23-29.57,56.98-18.49c12.58,5.41,15.45,16.97,19.44,35.74
			c2.62,12.36,10.56,27.1,9.8,46.46c-1.79,45.44-15.53,108.89-31.96,166.46c-7.7,26.99-12.97,51.67-21.09,69.67
			c0.17,0.92,7.15-1.03,7.34-0.11c6.96,23.42,11.88,31.09,16.9,36.08c5.06,5.04,1.92,3.35,5.1,2.81c13.31-2.26,40.28-14.48,62.62-56
			c16.51-30.68,18.77-63.53,21.28-88c-9.45,2.22-12.19,4.79-21.89,4.93c-8.85,0.13-15.05,7.59-21.98,2.08
			c-6.93-5.51,4.74-14.48,2.88-23.13c-5.84-27.1,1.34-47.56,19.68-60.57c14.82-10.5,32.04-13.97,47.33-4.6
			c3.92,2.41,10.28,5.84,15.43,13.58c5.86-4.8,11.78-8.85,17.11-14.93c14.14-16.13,23.71-35.94,30.23-56.12
			c2.69-21.72,6.15-34.95,9.21-42.12c21.23,1.11,26.67-9.95,44.88,1.03c-0.72,15.06-3.35,36.2-7.78,50.96
			c-3.87,33.31-5.28,84.07-7.03,139.9c-1.44,45.9-5.23,86.26-2.95,117.31c1.74,23.77,8.33,45.47,10.58,54.41
			c15.14-23.45,12.84-56.56,21.96-82.71c-2.26-28.82,6.85-67.42,7.44-104.41c0.92-57.36,10.48-82.99,29.5-96.6
			c11.38-8.14,18.48-9.35,32.59-3.26c7.07,3.06,19.07-10.29,23.05-3.7c3.98,6.59-8.78,11.35-9.37,19.03
			c-4.75,62.4-18.27,128.52-39.45,193.23c0.75,9.4,15.6,18.21,15.87,23.46c8,39.71,14.42,39.5,14.53,39.53
			c2.01,0.56,9.66,4.49,22.82-10.02c36.62-40.4,57.41-127.71,44.74-160.37c10.72-18.75,23.03-12.39,43.48-5.41
			c13.13,33.85,8.97,74.44,0.95,98.84c-12.29,37.42-35.28,73.61-56.26,96.77c-28.06,30.96-54.6,34.18-69.62,29.99
			c-16.41-4.57-24.03-26.81-33.35-47.93c-5.92,10.93-11.32,31.52-18.48,41.95c-0.33,0.48-6.95-4.19-7.31-3.72
			C1039.73,604.06,1029.2,616.66,1019.89,616.66z M538.64,448.82c1.03,28.31-5.5,51.55-1.39,61.89c2.45-3.6,4.01-13.4,7.82-21.83
			c-1.75-19.04-2.3-40.05-2.53-64.04c-0.78,1.1,10.34,6.59,9.57,7.67C547.1,439.58,542.96,442.33,538.64,448.82z M725.32,484.26
			c0,0,5.51,7.17,5.51,7.17C730.83,487.84,725.32,484.26,725.32,484.26z M200.91,396.87c6.5,17.86,3.8,34.85,8.38,40.67
			c1.48-3.27-0.18-13.23,1.64-20.8c-2.22-8.4-3.97-16.11-5.83-24.82c-1.74-8.16,5.22-10.75,3.78-19.65
			C205.05,383.65,204.84,386.62,200.91,396.87z M554.83,337.67c-2.27,5.58-15.43,11.63-17.28,18.02c2.54-5.34,3.82-15.09,5.36-20.33
			C542.9,334.65,554.83,338.36,554.83,337.67z M187.45,205.69c-1.97,3.15-1.62,4.19-3.32,7.83c-8,17.14-1.99,41.3-3.01,66.77
			c-0.43,10.68-10.69,19.43-9.83,30.81C180.7,276.99,185.64,242.33,187.45,205.69z M788.83,215.24c0.41,4.35-8.7,12.91-6.8,18.28
			c0.79,2.23,1.19,2.27,1.96,4.54c0.08-15.22-0.16-20.9-1.43-26C781.13,213.14,790.84,213.36,788.83,215.24z"/>
	</g>
	<g>
		<path class="st1" d="M967.29,1073.29c-8.34,0-16.57-5.19-24.61-5.93c-10.28-0.94-11.84,3.58-18.62-4.2
			c-6.78-7.78-4.9-8.84-4.43-19.15c2.45-53.57,30.95-104.9,82.74-146.77c22.35-18.07,49.3-35.99,80.56-51.5
			c-1.82-2.5-0.27-1.39-1.88-4.08c-0.29-0.5-4.13,1.56-4.4,1.05c-9.49-18.05-11.16-43-8.96-67.16c2.25-24.77,8.69-49.11,21.88-64.17
			c1.19-1.36,3.8,0.89,5.19-0.25c1.39-1.14,2.45,0.64,4.01-0.25c19.79-11.36,60.62-15.77,93.16-15.41c34,0.36,75.41,6.5,94.5,30.89
			c5.09,6.5,10.68,13.62,11.51,21.55c26.51-0.59,52.8-5.46,75.98-0.98c4.78-4.89,9.91-3.75,14.13-8.91
			c3.84-4.7,8.48-11.78,12.36-17.57c-12.41-1.45-24.78-5.72-36.44-11.45c-31.89-10.79-57.44-23.54-73.51-43.18
			c-15.36-18.77-35.37-53.23-21.96-102.26c3.46-15.63,14.39-26.82,19.8-37.79c1.5-3.78,1.31-8.24,3.44-11.17
			c0.42-0.58,1.21-0.87,1.66-1.42c1.8-2.69,7.6-1.93,9.58-4.27c15.88-18.75,30.57-28.92,43.02-28.39
			c35.97,1.53,66.22,39.57,80.96,59.98c16.36,22.64,32.44,47.3,39.5,71.36c7.09,14.68,13.35,29.08,15.93,45
			c4.78-2.27,3.36-6.07,8.25-8.45c13.18-6.43,28.21-10.36,42.59-16.27c0.39-0.16,2.23,4.72,2.63,4.57c0.4-0.15,0.06-0.7,0.46-0.83
			c49.11-15.79,74.17-69.63,92.85-124c8.54-9.27,9,5.25,21.13,8.67c-0.14-1.51,1.17-0.65,0.96-2.17
			c21.29-3.64,27.36-26.63,43.87-12.7c6.35,47.25-12.89,94.17-51.98,136.56c-34.03,36.89-80.55,61-111.26,78.7
			c-2.15,1.24,0.33,5.22-2.04,5.95c-2.37,0.73-2.4-1.94-4.88-1.77c-11.04,0.79-32.19,5.3-58.59,4.05
			c-8.5,14.97-20.05,27.67-32.68,39.42c5.54,1.86,11.55-0.09,15.91,1.55c4.74,1.78,0.57,7.45,4.1,11.08
			c3.54,3.63,10.04-0.65,11.7,4.14c7.16,20.66-7.75,42.35-30.49,66.45c-15.64,16.57-37.18,34.66-68.41,54.72
			c-54.16,34.79-120.45,70.39-160.87,90.39c-13.4,6.63-25.48,9.08-32.12,12.62c-0.38,0.2-0.18,0.3-0.57,0.49
			c-0.39,0.19,0.18,1.17-0.21,1.35c-30.03,13.09-67.82,35.76-109.12,46.91C1029.2,1067.57,996.66,1073.29,967.29,1073.29z
			 M1122.78,885.9c-35.77,16.29-66.52,29.34-90.32,48.58c-34.27,27.71-56.99,59.7-64.46,92.2c62.41-0.62,128.36-30.82,186.07-55.94
			c7.22-3.83,17.45-9.42,30.71-15.98c39.62-19.61,105.07-52.94,157.2-86.43c27.84-17.88,51.78-29.29,64.79-43.08
			c6.31-6.69,6.61-10.3,8.62-14.16c-7.1-2.36-12.46-6.29-21.22-8.65c-2.09,1.77-1.4,5.38-3.39,7.13
			c-30.07,31.28-68.31,51.67-108.36,65.72c-37.68,13.22-78.51,16.54-121.56,13.36C1147.05,888.14,1134.83,891.85,1122.78,885.9z
			 M1122.62,817.91c2.48,4.07,0.62,9.61,3.81,12.82c3.79-1.56,9.27-0.73,13.16-2.26c6.06-6.38,0.83-10.81,6.22-17.77
			c17.31-22.31,40.97-40.87,67.89-52.16c12.43-5.21,25.87-10.14,40.14-12.89c-1.33-1.49-4.28-1.11-14.99-4.1
			c-37.08-10.38-95.2-0.98-114.12,6.53C1111.94,766.3,1112.04,797.14,1122.62,817.91z M1266.79,804.31
			c12.79,0.1,22.89,3.33,34.86-0.64c8.85-4.15,20.26-9.06,28.81-14.5c-10.43-0.83-23.35,3.07-34.1,3.44
			c-4.83,0.17-8.03,0.59-12.63,1.03c-2.11,2.6-2.42,4.79-4.94,7.45C1275.38,805.21,1270.31,800.73,1266.79,804.31z M1381.23,665.64
			c10.66,3.49,20.17,10.76,32.15,13.03c2.19-0.03,6.52,1.6,8.77,1.37c3.48-11.65-0.27-25.04-0.66-38.16
			c-0.61-4.29-1.68-7.35-2.98-12.08c-11.55-22.49-27.69-41.99-42.2-60.32c-18.53-8.7-32.1-20.82-50.43-25.33
			c-1.1,5.42,1.6,15.95,3.34,31.73c2.12,19.22,3.81,33.77,5.66,37c0.34,0.59,2.98-0.87,3.31-0.28c3.11,5.68,2.36,13.2,4.8,18.72
			c4.42,10.01,7.55,20.9,13.35,25.05c0.47,0.33,0.34,0.34,0.79,0.69s-1.06,1.9-0.63,2.29
			C1363.25,665.35,1374.6,662.03,1381.23,665.64z"/>
		<path class="st3" d="M967.29,1073.29c-8.34,0-16.57-5.19-24.61-5.93c-10.28-0.94-11.84,3.58-18.62-4.2
			c-6.78-7.78-4.9-8.84-4.43-19.15c2.45-53.57,30.95-104.9,82.74-146.77c22.35-18.07,49.3-35.99,80.56-51.5
			c-1.82-2.5-0.27-1.39-1.88-4.08c-0.29-0.5-4.13,1.56-4.4,1.05c-9.49-18.05-11.16-43-8.96-67.16c2.25-24.77,8.69-49.11,21.88-64.17
			c1.19-1.36,3.8,0.89,5.19-0.25c1.39-1.14,2.45,0.64,4.01-0.25c19.79-11.36,60.62-15.77,93.16-15.41c34,0.36,75.41,6.5,94.5,30.89
			c5.09,6.5,10.68,13.62,11.51,21.55c26.51-0.59,52.8-5.46,75.98-0.98c4.78-4.89,9.91-3.75,14.13-8.91
			c3.84-4.7,8.48-11.78,12.36-17.57c-12.41-1.45-24.78-5.72-36.44-11.45c-31.89-10.79-57.44-23.54-73.51-43.18
			c-15.36-18.77-35.37-53.23-21.96-102.26c3.46-15.63,14.39-26.82,19.8-37.79c1.5-3.78,1.31-8.24,3.44-11.17
			c0.42-0.58,1.21-0.87,1.66-1.42c1.8-2.69,7.6-1.93,9.58-4.27c15.88-18.75,30.57-28.92,43.02-28.39
			c35.97,1.53,66.22,39.57,80.96,59.98c16.36,22.64,32.44,47.3,39.5,71.36c7.09,14.68,13.35,29.08,15.93,45
			c4.78-2.27,3.36-6.07,8.25-8.45c13.18-6.43,28.21-10.36,42.59-16.27c0.39-0.16,2.23,4.72,2.63,4.57c0.4-0.15,0.06-0.7,0.46-0.83
			c49.11-15.79,74.17-69.63,92.85-124c8.54-9.27,9,5.25,21.13,8.67c-0.14-1.51,1.17-0.65,0.96-2.17
			c21.29-3.64,27.36-26.63,43.87-12.7c6.35,47.25-12.89,94.17-51.98,136.56c-34.03,36.89-80.55,61-111.26,78.7
			c-2.15,1.24,0.33,5.22-2.04,5.95c-2.37,0.73-2.4-1.94-4.88-1.77c-11.04,0.79-32.19,5.3-58.59,4.05
			c-8.5,14.97-20.05,27.67-32.68,39.42c5.54,1.86,11.55-0.09,15.91,1.55c4.74,1.78,0.57,7.45,4.1,11.08
			c3.54,3.63,10.04-0.65,11.7,4.14c7.16,20.66-7.75,42.35-30.49,66.45c-15.64,16.57-37.18,34.66-68.41,54.72
			c-54.16,34.79-120.45,70.39-160.87,90.39c-13.4,6.63-25.48,9.08-32.12,12.62c-0.38,0.2-0.18,0.3-0.57,0.49
			c-0.39,0.19,0.18,1.17-0.21,1.35c-30.03,13.09-67.82,35.76-109.12,46.91C1029.2,1067.57,996.66,1073.29,967.29,1073.29z
			 M1122.78,885.9c-35.77,16.29-66.52,29.34-90.32,48.58c-34.27,27.71-56.99,59.7-64.46,92.2c62.41-0.62,128.36-30.82,186.07-55.94
			c7.22-3.83,17.45-9.42,30.71-15.98c39.62-19.61,105.07-52.94,157.2-86.43c27.84-17.88,51.78-29.29,64.79-43.08
			c6.31-6.69,6.61-10.3,8.62-14.16c-7.1-2.36-12.46-6.29-21.22-8.65c-2.09,1.77-1.4,5.38-3.39,7.13
			c-30.07,31.28-68.31,51.67-108.36,65.72c-37.68,13.22-78.51,16.54-121.56,13.36C1147.05,888.14,1134.83,891.85,1122.78,885.9z
			 M1122.62,817.91c2.48,4.07,0.62,9.61,3.81,12.82c3.79-1.56,9.27-0.73,13.16-2.26c6.06-6.38,0.83-10.81,6.22-17.77
			c17.31-22.31,40.97-40.87,67.89-52.16c12.43-5.21,25.87-10.14,40.14-12.89c-1.33-1.49-4.28-1.11-14.99-4.1
			c-37.08-10.38-95.2-0.98-114.12,6.53C1111.94,766.3,1112.04,797.14,1122.62,817.91z M1266.79,804.31
			c12.79,0.1,22.89,3.33,34.86-0.64c8.85-4.15,20.26-9.06,28.81-14.5c-10.43-0.83-23.35,3.07-34.1,3.44
			c-4.83,0.17-8.03,0.59-12.63,1.03c-2.11,2.6-2.42,4.79-4.94,7.45C1275.38,805.21,1270.31,800.73,1266.79,804.31z M1381.23,665.64
			c10.66,3.49,20.17,10.76,32.15,13.03c2.19-0.03,6.52,1.6,8.77,1.37c3.48-11.65-0.27-25.04-0.66-38.16
			c-0.61-4.29-1.68-7.35-2.98-12.08c-11.55-22.49-27.69-41.99-42.2-60.32c-18.53-8.7-32.1-20.82-50.43-25.33
			c-1.1,5.42,1.6,15.95,3.34,31.73c2.12,19.22,3.81,33.77,5.66,37c0.34,0.59,2.98-0.87,3.31-0.28c3.11,5.68,2.36,13.2,4.8,18.72
			c4.42,10.01,7.55,20.9,13.35,25.05c0.47,0.33,0.34,0.34,0.79,0.69s-1.06,1.9-0.63,2.29
			C1363.25,665.35,1374.6,662.03,1381.23,665.64z"/>
	</g>
	<g>
		<path class="st1" d="M751.35,985.13c-45.51,0-94.39-15.42-128.22-48.57c-7.41-6.91-12.56-14.71-17.74-23.54
			c-22.41,10.11-42.92,14.03-60.22,17.93c-12.4-17.69-14.12-19.64-13.06-41.21c11.72-2.65,38.27-6.62,61.04-17.24
			c-3.07-18.09-1.73-37.99,3.5-56.11c10.58-36.65,33.02-65.98,68.19-72.78c7.54-1.73,25.08,0.16,37.11,11.36
			c6.66,6.21,7.32,14.14,6.22,23.52c-2.13,41.44-19.48,78.96-56.93,107.13c-2.55,1.92-3.58,3.08-6.19,4.87
			c3.03,4.99,6.86,7.27,11.01,11.11c0.23,0.22-1.9,2.51-1.67,2.73c34.1,33.53,88.61,48.23,129.99,34.87
			c29.36-12.69,51.36-41.96,71.93-77.69c0.24-0.42-0.23-0.57,0.04-0.99c4.35-6.82,4.39-15.23,8.35-22.2
			c-3.13-3.32-3.56-7.18-6.16-11.26c-17.18-27.05-21.14-63.39-19.79-82.7c2-28.76,11.69-57.37,22.78-76.07
			c-0.61-3.12,2.72-6.11,2.14-9.25c-11.91-64.85-21.12-145.82-6.07-180.9c3.11-7.26,0.65-7.46,7.45-11.48
			c6.8-4.02,6.06-4.52,13.92-3.75c26.42,2.58,47.38,25.29,65.73,62.16c14.18,28.47,28.23,64.88,34.91,107.19
			c7.46,47.32,3.54,94.37-2.04,132.97c-3.57,24.72-6.46,45.11-14.99,60.38c0.1,0.14,2.56-1.11,2.66-0.97
			c8.49,11.18,12.25,14.28,14.2,14.03c0.55-0.07,15.4,1.46,33.94-44.59c19.24-9.82,28.97-6.33,35.82,14.16
			c-18.94,47.05-37.98,70.62-63.9,74.1c-13.27,1.78-34.28-0.33-54.63-24.94c-0.4,0.19,0.5-0.66,0.09-0.49
			c-1.53,0.67-1.24,1.74-2.85,2.16c-1.61,0.42-2.14-3.09-3.8-2.92c-6.69,0.69-14.23,0.94-20.34,0.09c-4.5,8-9.12,17.22-14.09,25.03
			c-23.74,41.21-48.15,78.42-90.16,96.05c-0.38,0.16,1.81,5.75,1.42,5.89c-0.38,0.14-1.71-3.36-2.1-3.23
			C783.8,984.96,767.69,985.13,751.35,985.13z M667.48,790.25c-19.83,7.22-27.74,26.93-30.84,37.68c-1.62,5.62-4.76,9.72-5.11,15.52
			C647.58,829.72,662.51,812.1,667.48,790.25z M882.57,756.11c-0.23,13.98,4.73,25.87,8.02,35.78c1.45-3.39,0.16-5.78,1.52-9.2
			c-1.73-4.72-0.35-10.23-2.04-15.26C888.8,763.64,883.8,760.05,882.57,756.11z M908.38,685.96c1.81,8.07,4.6,14.46,6.57,22.14
			c2.98-12.69-0.75-18.93-4.12-20.93C910.5,686.98,908.8,686.01,908.38,685.96z M909.77,644.35c8.92,0,17.91-0.9,24.57,3.05
			c1.25,0.74,0.27,2.63,1.45,3.47c-0.53-3.99,2.04-7.97,1.41-11.95c-5.91-37.47-19.44-70.24-31.5-94.47
			c-4.94-9.93-11.33-20.05-16.6-26.08c-1.87,26.95,0.52,72.13,9.74,125.27C901.49,643.2,907.21,644.35,909.77,644.35z"/>
		<path class="st3" d="M751.35,985.13c-45.51,0-94.39-15.42-128.22-48.57c-7.41-6.91-12.56-14.71-17.74-23.54
			c-22.41,10.11-42.92,14.03-60.22,17.93c-12.4-17.69-14.12-19.64-13.06-41.21c11.72-2.65,38.27-6.62,61.04-17.24
			c-3.07-18.09-1.73-37.99,3.5-56.11c10.58-36.65,33.02-65.98,68.19-72.78c7.54-1.73,25.08,0.16,37.11,11.36
			c6.66,6.21,7.32,14.14,6.22,23.52c-2.13,41.44-19.48,78.96-56.93,107.13c-2.55,1.92-3.58,3.08-6.19,4.87
			c3.03,4.99,6.86,7.27,11.01,11.11c0.23,0.22-1.9,2.51-1.67,2.73c34.1,33.53,88.61,48.23,129.99,34.87
			c29.36-12.69,51.36-41.96,71.93-77.69c0.24-0.42-0.23-0.57,0.04-0.99c4.35-6.82,4.39-15.23,8.35-22.2
			c-3.13-3.32-3.56-7.18-6.16-11.26c-17.18-27.05-21.14-63.39-19.79-82.7c2-28.76,11.69-57.37,22.78-76.07
			c-0.61-3.12,2.72-6.11,2.14-9.25c-11.91-64.85-21.12-145.82-6.07-180.9c3.11-7.26,0.65-7.46,7.45-11.48
			c6.8-4.02,6.06-4.52,13.92-3.75c26.42,2.58,47.38,25.29,65.73,62.16c14.18,28.47,28.23,64.88,34.91,107.19
			c7.46,47.32,3.54,94.37-2.04,132.97c-3.57,24.72-6.46,45.11-14.99,60.38c0.1,0.14,2.56-1.11,2.66-0.97
			c8.49,11.18,12.25,14.28,14.2,14.03c0.55-0.07,15.4,1.46,33.94-44.59c19.24-9.82,28.97-6.33,35.82,14.16
			c-18.94,47.05-37.98,70.62-63.9,74.1c-13.27,1.78-34.28-0.33-54.63-24.94c-0.4,0.19,0.5-0.66,0.09-0.49
			c-1.53,0.67-1.24,1.74-2.85,2.16c-1.61,0.42-2.14-3.09-3.8-2.92c-6.69,0.69-14.23,0.94-20.34,0.09c-4.5,8-9.12,17.22-14.09,25.03
			c-23.74,41.21-48.15,78.42-90.16,96.05c-0.38,0.16,1.81,5.75,1.42,5.89c-0.38,0.14-1.71-3.36-2.1-3.23
			C783.8,984.96,767.69,985.13,751.35,985.13z M667.48,790.25c-19.83,7.22-27.74,26.93-30.84,37.68c-1.62,5.62-4.76,9.72-5.11,15.52
			C647.58,829.72,662.51,812.1,667.48,790.25z M882.57,756.11c-0.23,13.98,4.73,25.87,8.02,35.78c1.45-3.39,0.16-5.78,1.52-9.2
			c-1.73-4.72-0.35-10.23-2.04-15.26C888.8,763.64,883.8,760.05,882.57,756.11z M908.38,685.96c1.81,8.07,4.6,14.46,6.57,22.14
			c2.98-12.69-0.75-18.93-4.12-20.93C910.5,686.98,908.8,686.01,908.38,685.96z M909.77,644.35c8.92,0,17.91-0.9,24.57,3.05
			c1.25,0.74,0.27,2.63,1.45,3.47c-0.53-3.99,2.04-7.97,1.41-11.95c-5.91-37.47-19.44-70.24-31.5-94.47
			c-4.94-9.93-11.33-20.05-16.6-26.08c-1.87,26.95,0.52,72.13,9.74,125.27C901.49,643.2,907.21,644.35,909.77,644.35z"/>
	</g>
	<g>
		<path class="st1" d="M1731.38,816.12c-9.37-34.44-21.97-105.49-18.42-185.12c0.54-12.22,7.05-26.66,8.12-38.05
			c-13.82-1-31.1,4.4-44.74,2.29c-16.19-2.51-30.69-11.63-45.37-12.1c-12.51-0.4-15.9,9.86-23.78,0.13
			c-7.87-9.73,0.49-11.34,2.71-23.66c9.38-51.91,33.84-101.75,55.77-148.08c-28.53,29.65-63.73,42.06-93.8,41.64
			c-0.17,0-0.41,8.43-0.58,8.43c-14.67,0-31.68-7.4-42.27-18.42c-11.14-11.59-16.62-29.91-15.71-45.68
			c0.04-0.73-0.75-0.98-0.65-1.71c0.09-0.73,4.1-0.15,4.24-0.87c5.11-26.11,14.1-47.99,25.75-68.53
			c14.58-27.85,33.81-36.08,48.47-39.4c26.02-5.89,56.62,0.8,87.45,23.26c17.07-36.74,23.72-74.42,23.07-100.61
			c-6.06-10.57-13.47-19.63-30.49-21.79c-43.17-5.48-110.48,48.11-155.53,98.31c-20.82,5.76-28.23-7.9-35.77-28.15
			c15.12-16.85,50.8-48.3,86.9-74.48c42.36-30.71,78.37-45.23,110.18-41.18c20.02,2.54,46.12,13.66,65.97,51.91
			c1.02,1.97-1.02,2.01-0.41,4.15c0.6,2.13,8.01,0.68,8.17,2.9c0.49,6.61-5.05,11.92-5.51,19.2c8.47-16.48,28.59-36.42,49.42-39.93
			c13.79-2.33,29.67,4.26,38.71,14.36c0.7,0.79,1.25,0.72,1.87,1.58c0.62,0.85-4.3,4.13-3.76,5.04
			c14.99,25.31,18.76,57.99,9.46,95.19c-8.4,33.6-22.39,66.49-44.01,86.49c-1.48,1.37-2.15,1.06-3.86,2.13
			c-1.71,1.07-4.37-4.88-6.24-4.13c-22.94,9.1-41.18,12.18-61.14,4.44c-25.71,51.51-56.04,102.47-69.94,158.2
			c8.7,1.07,19.38,3.62,27.86,4.93c14.94,2.31,28.01,2.57,40.03,3.28c1.86-10.79,1.99-21.04,4.41-30.76
			c9.46-37.95,28.6-63.74,46.35-83.08c21.95-23.9,47.06-34.23,78.67-28.46c9.23,1.69,11.9-5,17.77,2.33
			c5.86,7.33-4.4,8.34-4.78,17.72c-0.82,20.29-3.99,53.19-28.73,98.9c-17.83,35.64-41.03,56.62-74.73,63.8
			c-0.24,0.05-0.41,1-0.65,1.05c-1.29,12.5-4.79,25.58-5.4,39.38c-3.19,71.66,8.73,142.45,17.52,174.75
			C1768.86,828.92,1751.06,825.02,1731.38,816.12z M1827.14,450.36c-7.77,2.18-15.12,9.41-21.64,16.5
			c-14.8,16.12-32.38,42.37-40.07,79.39c12.28-6.35,22.04-20.16,31.02-38.22c0.17-0.34,6.24,2.76,6.42,2.42
			C1814.1,489.77,1822.94,468.14,1827.14,450.36z M1571.83,417.41c0.19,0,0.25-5.68,0.44-5.68c22.91,0.42,47.44-11.81,61.69-26.88
			c9.57-10.13,11.47-26.78,19.44-39.09c0.13-0.22,5.03,0.78,4.81,0.63c-0.86-0.6-0.95-0.35-1.79-0.99
			c-21.15-16-42.24-21.6-56.26-18.43c-8.54,1.93-19.78,5.55-25.44,16.47c-0.2,0.38-0.13,0.21-0.35,0.59
			c-9.15,16.05-7.91,36.98-12.15,57.82c0.11,3.43,0.59,3.73,3.14,6.38c2.51,2.61,4.42,4.84,7.46,4.79
			C1573.9,413.87,1571.64,417.41,1571.83,417.41z M1740.46,344.35c9.34,3.19,18.44,2.32,26.57,0.09
			c31.49-32.02,47.55-88.4,35.7-118.16c-4.53,2.4-9.76,11.86-12.5,17.7C1778.98,279.19,1756.53,311.2,1740.46,344.35z"/>
		<path class="st3" d="M1731.38,816.12c-9.37-34.44-21.97-105.49-18.42-185.12c0.54-12.22,7.05-26.66,8.12-38.05
			c-13.82-1-31.1,4.4-44.74,2.29c-16.19-2.51-30.69-11.63-45.37-12.1c-12.51-0.4-15.9,9.86-23.78,0.13
			c-7.87-9.73,0.49-11.34,2.71-23.66c9.38-51.91,33.84-101.75,55.77-148.08c-28.53,29.65-63.73,42.06-93.8,41.64
			c-0.17,0-0.41,8.43-0.58,8.43c-14.67,0-31.68-7.4-42.27-18.42c-11.14-11.59-16.62-29.91-15.71-45.68
			c0.04-0.73-0.75-0.98-0.65-1.71c0.09-0.73,4.1-0.15,4.24-0.87c5.11-26.11,14.1-47.99,25.75-68.53
			c14.58-27.85,33.81-36.08,48.47-39.4c26.02-5.89,56.62,0.8,87.45,23.26c17.07-36.74,23.72-74.42,23.07-100.61
			c-6.06-10.57-13.47-19.63-30.49-21.79c-43.17-5.48-110.48,48.11-155.53,98.31c-20.82,5.76-28.23-7.9-35.77-28.15
			c15.12-16.85,50.8-48.3,86.9-74.48c42.36-30.71,78.37-45.23,110.18-41.18c20.02,2.54,46.12,13.66,65.97,51.91
			c1.02,1.97-1.02,2.01-0.41,4.15c0.6,2.13,8.01,0.68,8.17,2.9c0.49,6.61-5.05,11.92-5.51,19.2c8.47-16.48,28.59-36.42,49.42-39.93
			c13.79-2.33,29.67,4.26,38.71,14.36c0.7,0.79,1.25,0.72,1.87,1.58c0.62,0.85-4.3,4.13-3.76,5.04
			c14.99,25.31,18.76,57.99,9.46,95.19c-8.4,33.6-22.39,66.49-44.01,86.49c-1.48,1.37-2.15,1.06-3.86,2.13
			c-1.71,1.07-4.37-4.88-6.24-4.13c-22.94,9.1-41.18,12.18-61.14,4.44c-25.71,51.51-56.04,102.47-69.94,158.2
			c8.7,1.07,19.38,3.62,27.86,4.93c14.94,2.31,28.01,2.57,40.03,3.28c1.86-10.79,1.99-21.04,4.41-30.76
			c9.46-37.95,28.6-63.74,46.35-83.08c21.95-23.9,47.06-34.23,78.67-28.46c9.23,1.69,11.9-5,17.77,2.33
			c5.86,7.33-4.4,8.34-4.78,17.72c-0.82,20.29-3.99,53.19-28.73,98.9c-17.83,35.64-41.03,56.62-74.73,63.8
			c-0.24,0.05-0.41,1-0.65,1.05c-1.29,12.5-4.79,25.58-5.4,39.38c-3.19,71.66,8.73,142.45,17.52,174.75
			C1768.86,828.92,1751.06,825.02,1731.38,816.12z M1827.14,450.36c-7.77,2.18-15.12,9.41-21.64,16.5
			c-14.8,16.12-32.38,42.37-40.07,79.39c12.28-6.35,22.04-20.16,31.02-38.22c0.17-0.34,6.24,2.76,6.42,2.42
			C1814.1,489.77,1822.94,468.14,1827.14,450.36z M1571.83,417.41c0.19,0,0.25-5.68,0.44-5.68c22.91,0.42,47.44-11.81,61.69-26.88
			c9.57-10.13,11.47-26.78,19.44-39.09c0.13-0.22,5.03,0.78,4.81,0.63c-0.86-0.6-0.95-0.35-1.79-0.99
			c-21.15-16-42.24-21.6-56.26-18.43c-8.54,1.93-19.78,5.55-25.44,16.47c-0.2,0.38-0.13,0.21-0.35,0.59
			c-9.15,16.05-7.91,36.98-12.15,57.82c0.11,3.43,0.59,3.73,3.14,6.38c2.51,2.61,4.42,4.84,7.46,4.79
			C1573.9,413.87,1571.64,417.41,1571.83,417.41z M1740.46,344.35c9.34,3.19,18.44,2.32,26.57,0.09
			c31.49-32.02,47.55-88.4,35.7-118.16c-4.53,2.4-9.76,11.86-12.5,17.7C1778.98,279.19,1756.53,311.2,1740.46,344.35z"/>
	</g>
	<g>
		<path class="st1" d="M721.53,311.38c-21.52,0.54-23.92,6.82-42.88-3.36c-0.23-20.05,0.67-39,1.37-57.13
			c-2.4-0.47-5.28-1.41-7.32-2.39c-9.91-4.75-16.18-14.78-22.36-32.26c-1.08-3.06-3.32-5.77-4.25-8.99
			c-2.68-3.95-5.6-8.98-7.43-15.62c-2.78-10.07-4.84-23.51-4.88-38.36c0.01-0.31,3.4,0.34,3.4,0.04c-0.66-5.34-3.2-10.49-3.57-15.36
			c-1.48-19.28,1.79-25.99,3.37-30.42c2.74-7.68-3.1-12.02,3.7-16.5c6.81-4.48,8.63,0.38,16.77,0.9
			c13.57,0.87,25.61,8.37,34.41,19.27c4.32,5.35,8.02,11.31,10.38,18.19c16.33,5.51,18.66-2.44,33.13,6.92
			c-1.69,15.53-2.48,29.81-6.02,45.03c-3.16,23.69-6.7,48.62-7.62,75.82c1.67,4.62,1.27,9.47,1.17,14
			c-0.08,3.73,1.61,8.54,1.42,13.46C723.78,298.1,722.2,307.17,721.53,311.38z M722.04,269.69c-0.03,1.39-0.16,2.82-0.18,4.22
			c0.61-1.34,1.78-3.01,2.07-4.39C723.78,268.9,722.49,269.24,722.04,269.69z"/>
		<path class="st3" d="M721.53,311.38c-21.52,0.54-23.92,6.82-42.88-3.36c-0.23-20.05,0.67-39,1.37-57.13
			c-2.4-0.47-5.28-1.41-7.32-2.39c-9.91-4.75-16.18-14.78-22.36-32.26c-1.08-3.06-3.32-5.77-4.25-8.99
			c-2.68-3.95-5.6-8.98-7.43-15.62c-2.78-10.07-4.84-23.51-4.88-38.36c0.01-0.31,3.4,0.34,3.4,0.04c-0.66-5.34-3.2-10.49-3.57-15.36
			c-1.48-19.28,1.79-25.99,3.37-30.42c2.74-7.68-3.1-12.02,3.7-16.5c6.81-4.48,8.63,0.38,16.77,0.9
			c13.57,0.87,25.61,8.37,34.41,19.27c4.32,5.35,8.02,11.31,10.38,18.19c16.33,5.51,18.66-2.44,33.13,6.92
			c-1.69,15.53-2.48,29.81-6.02,45.03c-3.16,23.69-6.7,48.62-7.62,75.82c1.67,4.62,1.27,9.47,1.17,14
			c-0.08,3.73,1.61,8.54,1.42,13.46C723.78,298.1,722.2,307.17,721.53,311.38z M722.04,269.69c-0.03,1.39-0.16,2.82-0.18,4.22
			c0.61-1.34,1.78-3.01,2.07-4.39C723.78,268.9,722.49,269.24,722.04,269.69z"/>
	</g>
</g>
</svg>
