<?xml version="1.0" encoding="utf-8"?>
<!-- Generator: Adobe Illustrator 28.1.0, SVG Export Plug-In . SVG Version: 6.00 Build 0)  -->
<svg version="1.1" id="Layer_1" xmlns="http://www.w3.org/2000/svg" xmlns:xlink="http://www.w3.org/1999/xlink" x="0px" y="0px"
	 viewBox="0 0 1920 1080" style="enable-background:new 0 0 1920 1080;" xml:space="preserve">
<style type="text/css">
	.st0{opacity:0.9;}
	.st1{fill:#BFB326;}
	.st2{fill:none;stroke:#8B8332;stroke-width:3;stroke-miterlimit:10;}
	.st3{fill:none;stroke:#8B8332;stroke-width:3.0861;stroke-miterlimit:10;}
	.st4{fill:#8B8332;}
</style>
<path d="M842.28,830.54c0,0.01,0,0.01,0,0.02c0,0,0.01,0,0.01,0.01L842.28,830.54z"/>
<path d="M866.96,853.61c0.01,0.02,0.02,0.03,0.02,0.05c0.02-0.02,0.05-0.03,0.07-0.05C867.06,853.61,866.96,853.61,866.96,853.61z"
	/>
<path d="M807.39,882c0,0.04,0,0.07,0,0.11c0.01,0.01,0.01,0.02,0.02,0.03C807.4,882.13,807.39,882,807.39,882z"/>
<path d="M820.54,874.22c-0.03,0-0.05,0-0.08-0.01c0,0.02,0,0.04,0,0.07L820.54,874.22z"/>
<path d="M891.04,862.37c-0.03,0-0.05,0-0.08,0c0,0.02,0,0.04,0,0.07L891.04,862.37z"/>
<path d="M818.09,875.4c0.02,0.02,0.04,0.04,0.06,0.06c0.01,0,0.01,0,0.02,0L818.09,875.4z"/>
<path d="M889.23,867.09c-0.02,0.02-0.03,0.04-0.05,0.06c0,0.01,0,0.02,0,0.03L889.23,867.09z"/>
<path d="M713.3,877.17c0,0.02,0,0.03,0,0.05c0.01,0.01,0.01,0.02,0.02,0.03L713.3,877.17z"/>
<path d="M706.8,904.4c-0.02,0.03-0.04,0.05-0.07,0.08c0,0,0,0.01,0,0.01L706.8,904.4z"/>
<path d="M713.92,874.23c-0.02,0-0.05,0-0.07,0c0,0.02,0,0.05,0.01,0.07L713.92,874.23z"/>
<path d="M1363.74,943.56c-0.02-0.01-0.05-0.02-0.07-0.03c-0.01,0-0.02,0-0.02,0L1363.74,943.56z"/>
<path d="M1494.05,937.58c-0.02,0.01-0.04,0.02-0.06,0.03c0,0-0.01,0.01-0.01,0.01L1494.05,937.58z"/>
<path d="M1416.85,858.48c0.02-0.01,0.05-0.02,0.07-0.03c0-0.01-0.01-0.02-0.01-0.03C1416.9,858.41,1416.85,858.48,1416.85,858.48z"
	/>
<path d="M1446.37,944.74c0-0.01,0-0.03,0-0.04c-0.03,0-0.06,0-0.08,0L1446.37,944.74z"/>
<path d="M1357.15,948.83C1357.15,948.83,1357.15,948.83,1357.15,948.83c0.02,0.03,0.05,0.05,0.07,0.08L1357.15,948.83z"/>
<path d="M994.68,842.87c0-0.01,0-0.01,0-0.02c-0.02-0.01-0.04-0.02-0.05-0.03C994.62,842.82,994.68,842.87,994.68,842.87z"/>
<path d="M984.01,883.18c0-0.01,0-0.02,0-0.03c-0.02-0.02-0.04-0.04-0.06-0.06L984.01,883.18z"/>
<path d="M1005.94,947.71c0,0,0-0.01,0-0.01c-0.02-0.02-0.05-0.03-0.07-0.05L1005.94,947.71z"/>
<path d="M1036.57,832.53c0,0,0,0.01,0.01,0.01c0.06,0.01,0.13,0.01,0.19,0.02C1036.77,832.56,1036.57,832.53,1036.57,832.53z"/>
<path d="M1447.94,890.05c0.01-0.02,0.02-0.04,0.03-0.05l0,0L1447.94,890.05z"/>
<path d="M1378.46,958.9c0.02,0.02,0.05,0.05,0.07,0.07c0,0,0.01-0.01,0.01-0.01C1378.54,958.96,1378.46,958.9,1378.46,958.9z"/>
<path d="M1374.38,955.92c-0.02,0.02-0.04,0.03-0.06,0.05c0,0.01,0,0.02,0,0.04L1374.38,955.92z"/>
<path d="M1433.63,873.67c-0.01-0.01-0.02-0.02-0.03-0.03c-0.01-0.01-0.03-0.02-0.04-0.02L1433.63,873.67z"/>
<path d="M1385.42,956.95c0,0.01,0,0.01,0.01,0.02c0-0.01,0-0.01,0.01-0.02L1385.42,956.95z"/>
<g class="st0">
	<g>
		<path class="st1" d="M1026.63,593.6c-9.17,0-19.9,7.39-24.7,4.58c-0.8-0.47,1.05-7.6,0.2-8.06c-8.05,0.29-16.2,5.7-25.11,6.83
			c-19.73,2.5-41.1,4.91-62.13-0.1c-19.26-4.59-29.87-24.03-39.18-36.77c-16.57,6.92-37.7,16.45-57.58,11.77
			c-22.4-5.27-40.1-26.73-56.29-43.68c-7.15-7.48-15.13-5.09-19.62-14.16c-9.36,10.74-20.92,12.94-32.74,21.98
			c-38.86,29.72-86.19,41.49-133.14,41.96c-1.3,0.31-1.32,13.14-3.33,13.99c-8.38,3.57-24.89,4.59-38.41-0.9
			c-17.15-6.95-34.9-22.23-40.83-43.13c-4.1-14.45,1.74-33.81,4.02-51.23c3.65-27.83,11.82-61.51,38.22-83.35
			c30.99-25.63,71.72-43.51,116.13-41.89c36.75,1.34,72.87,16.37,103.76,35.62c13.72,6.84,22.42-5.36,33.71,5.01
			c-2.43,13.72-5.68,33.52-11.38,46.42c-0.62,16.63,1.39,29.55,12.94,41.65c16.46,17.23,44.69,33.15,65.54,28.06
			c-5.04-13.84-7.29-29.71-4.82-42.64c9.98-52.28,28.76-100.25,49.14-146.22c5.17-11.65,12.26-22.96,17.34-34.91
			c3.45-8.1,0.58-6.44,8.43-10.44c7.85-4,4.32-0.49,12.9,1.49c21.09,4.87,39.73,14.7,51.13,34.83
			c13.68,24.13,13.74,53.39,5.08,80.16c-9.62,29.72-28.6,51.24-50.27,70.75c-10.31,9.28-19.31,18.58-27.07,27.88
			c-1.99,2.39-11.61,4.73-13.47,9.69c-1.5,4.01,0.61,9.61-1.5,13.98c0.1,0.14,2.31,1.94,2.41,2.08
			c5.96,8.25,14.27,13.23,20.16,14.64c13.59,3.24,28.58,6.01,45.31,3.89c10.55-1.34,21.27-9.08,32.4-9.25
			c6.04-0.09,14.83,13.66,19.26,15.82c1.83-5.54,1.94-17.26,6.56-22.6c10.62-12.28,19.06-27.37,31.49-36.83
			c9.91-7.54,26.91-8.08,34.32-15.83c4.6-14.71,9.11-25.18,12.37-32.74c3.78-8.78-4.52-14.63-4.36-19.23
			c0.21-6.08,5.25-13.5,0.38-29.29c16.41-13.1,17.74-20.49,36.17-10.42c12.71,41.23,6.89,46.93-3.59,71.26
			c-3.35,7.77-2.72,19.61-7.14,34.5c-0.64,2.17-4.97-0.44-6.06,1.55c-1.09,1.99,7.68,7.89,6.2,9.6
			c-10.62,12.28-26.14,20.2-38.58,29.66c-11.02,8.38-25.87,12.14-33.59,20.92c-0.59,1.22-0.24,6.31-0.86,8.29
			c-2.89,9.18-4.78,24.45-19.15,30.46C1033.74,600.73,1029.95,593.6,1026.63,593.6z M547.11,556.06c0,0,0-12.75,0-12.75
			C547.11,543.31,547.11,556.06,547.11,556.06z M644.75,409.82c-31.89,0-57.49,21.19-79.24,39.18
			c-15.12,12.51-25.3,32.7-27.95,52.91c-3.17,24.19,5.23,38.61,12.82,44.08c1.44-0.54,0.89-1.31,2.26-1.89
			c5.98-2.55,14.48-0.76,23-0.82c37.49-0.29,73.33-21.44,104.66-45.41c20.8-15.91,44.44-28.73,54.98-49.92
			c0.2-1.6-7.84,1.53-7.58-0.07c-24.34-14.77-48.41-29.82-77.22-30.86C648.57,416.94,646.66,409.82,644.75,409.82z M944.14,333.86
			c-2.35,5.33,2.81,19.6,0.5,24.8c-16.89,38.12-39.8,72-49.96,110.52c6.8-6.89,13.68-15.26,20.71-21.59
			c18.36-16.52,35.04-30.88,41.18-49.86c5.02-15.53,7.98-34.2,0.12-48.07C954.81,346.35,947.72,337.18,944.14,333.86z"/>
		<path class="st2" d="M1026.63,593.6c-9.17,0-19.9,7.39-24.7,4.58c-0.8-0.47,1.05-7.6,0.2-8.06c-8.05,0.29-16.2,5.7-25.11,6.83
			c-19.73,2.5-41.1,4.91-62.13-0.1c-19.26-4.59-29.87-24.03-39.18-36.77c-16.57,6.92-37.7,16.45-57.58,11.77
			c-22.4-5.27-40.1-26.73-56.29-43.68c-7.15-7.48-15.13-5.09-19.62-14.16c-9.36,10.74-20.92,12.94-32.74,21.98
			c-38.86,29.72-86.19,41.49-133.14,41.96c-1.3,0.31-1.32,13.14-3.33,13.99c-8.38,3.57-24.89,4.59-38.41-0.9
			c-17.15-6.95-34.9-22.23-40.83-43.13c-4.1-14.45,1.74-33.81,4.02-51.23c3.65-27.83,11.82-61.51,38.22-83.35
			c30.99-25.63,71.72-43.51,116.13-41.89c36.75,1.34,72.87,16.37,103.76,35.62c13.72,6.84,22.42-5.36,33.71,5.01
			c-2.43,13.72-5.68,33.52-11.38,46.42c-0.62,16.63,1.39,29.55,12.94,41.65c16.46,17.23,44.69,33.15,65.54,28.06
			c-5.04-13.84-7.29-29.71-4.82-42.64c9.98-52.28,28.76-100.25,49.14-146.22c5.17-11.65,12.26-22.96,17.34-34.91
			c3.45-8.1,0.58-6.44,8.43-10.44c7.85-4,4.32-0.49,12.9,1.49c21.09,4.87,39.73,14.7,51.13,34.83
			c13.68,24.13,13.74,53.39,5.08,80.16c-9.62,29.72-28.6,51.24-50.27,70.75c-10.31,9.28-19.31,18.58-27.07,27.88
			c-1.99,2.39-11.61,4.73-13.47,9.69c-1.5,4.01,0.61,9.61-1.5,13.98c0.1,0.14,2.31,1.94,2.41,2.08
			c5.96,8.25,14.27,13.23,20.16,14.64c13.59,3.24,28.58,6.01,45.31,3.89c10.55-1.34,21.27-9.08,32.4-9.25
			c6.04-0.09,14.83,13.66,19.26,15.82c1.83-5.54,1.94-17.26,6.56-22.6c10.62-12.28,19.06-27.37,31.49-36.83
			c9.91-7.54,26.91-8.08,34.32-15.83c4.6-14.71,9.11-25.18,12.37-32.74c3.78-8.78-4.52-14.63-4.36-19.23
			c0.21-6.08,5.25-13.5,0.38-29.29c16.41-13.1,17.74-20.49,36.17-10.42c12.71,41.23,6.89,46.93-3.59,71.26
			c-3.35,7.77-2.72,19.61-7.14,34.5c-0.64,2.17-4.97-0.44-6.06,1.55c-1.09,1.99,7.68,7.89,6.2,9.6
			c-10.62,12.28-26.14,20.2-38.58,29.66c-11.02,8.38-25.87,12.14-33.59,20.92c-0.59,1.22-0.24,6.31-0.86,8.29
			c-2.89,9.18-4.78,24.45-19.15,30.46C1033.74,600.73,1029.95,593.6,1026.63,593.6z M547.11,556.06c0,0,0-12.75,0-12.75
			C547.11,543.31,547.11,556.06,547.11,556.06z M644.75,409.82c-31.89,0-57.49,21.19-79.24,39.18
			c-15.12,12.51-25.3,32.7-27.95,52.91c-3.17,24.19,5.23,38.61,12.82,44.08c1.44-0.54,0.89-1.31,2.26-1.89
			c5.98-2.55,14.48-0.76,23-0.82c37.49-0.29,73.33-21.44,104.66-45.41c20.8-15.91,44.44-28.73,54.98-49.92
			c0.2-1.6-7.84,1.53-7.58-0.07c-24.34-14.77-48.41-29.82-77.22-30.86C648.57,416.94,646.66,409.82,644.75,409.82z M944.14,333.86
			c-2.35,5.33,2.81,19.6,0.5,24.8c-16.89,38.12-39.8,72-49.96,110.52c6.8-6.89,13.68-15.26,20.71-21.59
			c18.36-16.52,35.04-30.88,41.18-49.86c5.02-15.53,7.98-34.2,0.12-48.07C954.81,346.35,947.72,337.18,944.14,333.86z"/>
	</g>
	<g>
		<path class="st1" d="M1531.63,708.46c-3.93-1.22,4.69-12.6,1.32-14.96c-9.73-0.21-35.77-2.5-99.63-35.63
			c-33.27-17.26-68.97-34.84-89.8-48.34c-19.92-12.91-37.81-25.19-56.19-32.38c-0.74,0.84-3.82,2.37-4.55,3.22
			c-0.8,0.95,2.51,7.2,1.49,9.42c-3.49,7.58-11.13,17.09-21.95,23.44c-15.82,9.3-33.05,3.82-46.89,2.09
			c-2.49-0.31-5.58-0.39-7.85-0.62c-0.86,0.63-3.15,0.91-4.18,1.52c-8.25,4.84-16.74,8.05-24.08,2.75
			c-7.35-5.32-14.36-15.94-12.46-25.34c0.27-1.34,8.91-1.32,9.29-2.47c-0.22-0.34-4.82-0.99-5.01-1.29
			c-3.47-5.43-4.1-13.2-4.63-23.1c-0.74-13.84,6.1-20.4,11.19-23.9c0.6-1.5,2.78-2.86,3.85-4.65c4.01-6.71,8.17-10.73,15.51-11.68
			c24.73-3.2,50.93-0.62,77.69,6.58c14.96-15.08,28.67-32.87,43.9-46.61c13.91-12.55,28.93-24.76,42.35-38.11
			c7.21-7.17,13.13-15.8,20.16-24.49c10-12.38,22.08-23.72,35.11-34.68c7.47-6.29,16.87-9.07,24.62-13.95
			c10.7-6.73,16.09-17.81,21.69-25.75c6.02-8.53,11.4-18.47,9.62-31.68c-82.32,24.38-152.47,62.35-219.15,121.72
			c-20.14,5.96-33.8-9.77-24.82-28.76c73.85-65.77,148.24-111.12,240.56-137.07c0.26-0.19,3.54,4.42,3.76,4.25
			c2.19-1.63,0.28-11.45,3.71-13.05c8.54-4.01,19.63,1.34,26.85,6.5c7.17,5.12,15.07,13.91,13.61,23.11
			c-0.31,1.95-2.82,2.57-3.3,4.09c7.3,28.5,3.07,58.08-11.45,78.67c-10.44,14.8-24.37,27.26-37.46,35.5
			c-6.85,4.31-17.29,2.53-22.55,6.95c-9.94,8.36-16.52,21.18-25.68,32.52c-7.42,9.18-12.42,21.55-21.24,30.33
			c-14.15,14.08-32.55,23.75-46.84,36.65c-10.34,9.33-25.26,20.26-35,29.5c15.81,7.26,36.7,14.43,53.34,25.21
			c60.19,38.99,139.01,78.45,166.52,78.49c10.12,0.01,16.72-8.93,24-1.9c7.27,7.03-8.09,14.18-7.73,24.29
			C1549.86,689.37,1544.79,705.19,1531.63,708.46z M1519.67,666.58c-6.82,1.7-8.83,8.35-8.67,13.06c6.55,1.99,9.63,1.55,15.92-1.16
			C1531.99,676.29,1523.95,671.08,1519.67,666.58z M1173.89,589.77c0,0,3.58,4.23,3.58,4.23
			C1177.48,591.88,1173.89,589.77,1173.89,589.77z M1213.58,571.65c2.98,0.28,3.42,7.91,6.3,8.27c7.36,0.92,17.61,0.98,21.54-0.54
			c0.86-1.35,0.25-6.87,1.14-8.8c0.48-1.04,1.91-4.1,2.45-5.22c-11.08-1.75-22.84-2.34-33.29-1.76c-0.91,1.49,1.86,5.66,0.46,7.11
			C1213.14,572.27,1212.66,569.78,1213.58,571.65z"/>
		<path class="st2" d="M1531.63,708.46c-3.93-1.22,4.69-12.6,1.32-14.96c-9.73-0.21-35.77-2.5-99.63-35.63
			c-33.27-17.26-68.97-34.84-89.8-48.34c-19.92-12.91-37.81-25.19-56.19-32.38c-0.74,0.84-3.82,2.37-4.55,3.22
			c-0.8,0.95,2.51,7.2,1.49,9.42c-3.49,7.58-11.13,17.09-21.95,23.44c-15.82,9.3-33.05,3.82-46.89,2.09
			c-2.49-0.31-5.58-0.39-7.85-0.62c-0.86,0.63-3.15,0.91-4.18,1.52c-8.25,4.84-16.74,8.05-24.08,2.75
			c-7.35-5.32-14.36-15.94-12.46-25.34c0.27-1.34,8.91-1.32,9.29-2.47c-0.22-0.34-4.82-0.99-5.01-1.29
			c-3.47-5.43-4.1-13.2-4.63-23.1c-0.74-13.84,6.1-20.4,11.19-23.9c0.6-1.5,2.78-2.86,3.85-4.65c4.01-6.71,8.17-10.73,15.51-11.68
			c24.73-3.2,50.93-0.62,77.69,6.58c14.96-15.08,28.67-32.87,43.9-46.61c13.91-12.55,28.93-24.76,42.35-38.11
			c7.21-7.17,13.13-15.8,20.16-24.49c10-12.38,22.08-23.72,35.11-34.68c7.47-6.29,16.87-9.07,24.62-13.95
			c10.7-6.73,16.09-17.81,21.69-25.75c6.02-8.53,11.4-18.47,9.62-31.68c-82.32,24.38-152.47,62.35-219.15,121.72
			c-20.14,5.96-33.8-9.77-24.82-28.76c73.85-65.77,148.24-111.12,240.56-137.07c0.26-0.19,3.54,4.42,3.76,4.25
			c2.19-1.63,0.28-11.45,3.71-13.05c8.54-4.01,19.63,1.34,26.85,6.5c7.17,5.12,15.07,13.91,13.61,23.11
			c-0.31,1.95-2.82,2.57-3.3,4.09c7.3,28.5,3.07,58.08-11.45,78.67c-10.44,14.8-24.37,27.26-37.46,35.5
			c-6.85,4.31-17.29,2.53-22.55,6.95c-9.94,8.36-16.52,21.18-25.68,32.52c-7.42,9.18-12.42,21.55-21.24,30.33
			c-14.15,14.08-32.55,23.75-46.84,36.65c-10.34,9.33-25.26,20.26-35,29.5c15.81,7.26,36.7,14.43,53.34,25.21
			c60.19,38.99,139.01,78.45,166.52,78.49c10.12,0.01,16.72-8.93,24-1.9c7.27,7.03-8.09,14.18-7.73,24.29
			C1549.86,689.37,1544.79,705.19,1531.63,708.46z M1519.67,666.58c-6.82,1.7-8.83,8.35-8.67,13.06c6.55,1.99,9.63,1.55,15.92-1.16
			C1531.99,676.29,1523.95,671.08,1519.67,666.58z M1173.89,589.77c0,0,3.58,4.23,3.58,4.23
			C1177.48,591.88,1173.89,589.77,1173.89,589.77z M1213.58,571.65c2.98,0.28,3.42,7.91,6.3,8.27c7.36,0.92,17.61,0.98,21.54-0.54
			c0.86-1.35,0.25-6.87,1.14-8.8c0.48-1.04,1.91-4.1,2.45-5.22c-11.08-1.75-22.84-2.34-33.29-1.76c-0.91,1.49,1.86,5.66,0.46,7.11
			C1213.14,572.27,1212.66,569.78,1213.58,571.65z"/>
	</g>
	<g>
		<path class="st1" d="M1076.1,340.92c-16.51-10.06-26.79-26.87-31.86-48.01c-3.65-5.69-8.75-9.44-11.75-13.73
			c-0.08-0.07-0.6,0.61-0.67,0.54c-2.7-2.56-2.79-7.52-4.55-11.16c-7.95-10.39-15.77-19.19-23.86-26
			c-26.65-22.41-67.82-11.76-54.06-43.75c13.76-31.98,34.58,3.13,69.18,7.07c14.63,1.67,27.57,12.67,39.29,31.02
			c21.71-8.29,16.36-53.4,31.57-35.84c20.89,24.13-3.09,32.52-6.07,64.29c-0.38,4.02,0.72,7.57,1.23,11.63
			c1.78,2.82,1.69,6.31,3.45,9.13c5.61,8.99,12.42,17.58,18.04,25.85C1103.1,332.55,1094.89,332.67,1076.1,340.92z"/>
		<path class="st2" d="M1076.1,340.92c-16.51-10.06-26.79-26.87-31.86-48.01c-3.65-5.69-8.75-9.44-11.75-13.73
			c-0.08-0.07-0.6,0.61-0.67,0.54c-2.7-2.56-2.79-7.52-4.55-11.16c-7.95-10.39-15.77-19.19-23.86-26
			c-26.65-22.41-67.82-11.76-54.06-43.75c13.76-31.98,34.58,3.13,69.18,7.07c14.63,1.67,27.57,12.67,39.29,31.02
			c21.71-8.29,16.36-53.4,31.57-35.84c20.89,24.13-3.09,32.52-6.07,64.29c-0.38,4.02,0.72,7.57,1.23,11.63
			c1.78,2.82,1.69,6.31,3.45,9.13c5.61,8.99,12.42,17.58,18.04,25.85C1103.1,332.55,1094.89,332.67,1076.1,340.92z"/>
	</g>
	<g>
		<path class="st1" d="M1688,742.86c-19.22,8.46-30.74,2.23-41.76-15.65c10.25-38.4,27.46-68.19,45.2-97.21
			c12.56-20.54,23.88-35.74,32.49-57.64c-46.32,11.77-94.17,20.97-155.78,3.74c-17.2-4.81-28.33,4.89-32.9-12.38
			c-4.57-17.27,12.07-12.2,24.64-24.89c17.49-17.65,37.64-33.5,55.05-50.9c69.36-69.37,137.47-145.98,201.32-219.79
			c18.9-9.16,41.64,10.65,35.19,30.63c-64.84,74.96-139.44,146.43-209.33,216.33c-8.11,8.12-17.75,19.14-26.01,27.41
			c27.24,2.15,56.19-0.53,80.94-6.23c9.63-6.46,5.41-12.55,11.74-22.26c17.87-27.37,37.14-52.27,53.02-78
			c1.84-2.98,0.09-8.4,1.95-11.4c10.86-27.16,24.72-51.03,46.77-72.97c20.82,1.69,20.37,6,27.25,25.72
			c-15.12,23.16-25.3,43.18-38.9,65.18c-8.03,20.95-15.16,44.18-19.6,66.13c6.36,0.66,15.34-1.15,21.43-0.62
			c20.5-1.79,45.87-0.89,70.06,3.02c8.72,19.02,8.71,28.65-4.12,45.19c-29.2,0.13-49.48-5.45-65.53-6.76
			c-9.59,0.97-19.39,5.12-28.63,6.94c-9.57,37.15-26.72,67.28-44.29,96.02C1711.27,680.15,1696.68,710.34,1688,742.86z"/>
		<path class="st2" d="M1688,742.86c-19.22,8.46-30.74,2.23-41.76-15.65c10.25-38.4,27.46-68.19,45.2-97.21
			c12.56-20.54,23.88-35.74,32.49-57.64c-46.32,11.77-94.17,20.97-155.78,3.74c-17.2-4.81-28.33,4.89-32.9-12.38
			c-4.57-17.27,12.07-12.2,24.64-24.89c17.49-17.65,37.64-33.5,55.05-50.9c69.36-69.37,137.47-145.98,201.32-219.79
			c18.9-9.16,41.64,10.65,35.19,30.63c-64.84,74.96-139.44,146.43-209.33,216.33c-8.11,8.12-17.75,19.14-26.01,27.41
			c27.24,2.15,56.19-0.53,80.94-6.23c9.63-6.46,5.41-12.55,11.74-22.26c17.87-27.37,37.14-52.27,53.02-78
			c1.84-2.98,0.09-8.4,1.95-11.4c10.86-27.16,24.72-51.03,46.77-72.97c20.82,1.69,20.37,6,27.25,25.72
			c-15.12,23.16-25.3,43.18-38.9,65.18c-8.03,20.95-15.16,44.18-19.6,66.13c6.36,0.66,15.34-1.15,21.43-0.62
			c20.5-1.79,45.87-0.89,70.06,3.02c8.72,19.02,8.71,28.65-4.12,45.19c-29.2,0.13-49.48-5.45-65.53-6.76
			c-9.59,0.97-19.39,5.12-28.63,6.94c-9.57,37.15-26.72,67.28-44.29,96.02C1711.27,680.15,1696.68,710.34,1688,742.86z"/>
	</g>
</g>
</svg>
