<?xml version="1.0" encoding="utf-8"?>
<!-- Generator: Adobe Illustrator 28.1.0, SVG Export Plug-In . SVG Version: 6.00 Build 0)  -->
<svg version="1.1" id="Layer_1" xmlns="http://www.w3.org/2000/svg" xmlns:xlink="http://www.w3.org/1999/xlink" x="0px" y="0px"
	 viewBox="0 0 1920 1080" style="enable-background:new 0 0 1920 1080;" xml:space="preserve">
<style type="text/css">
	.st0{opacity:0.9;}
	.st1{fill:#BFB326;}
	.st2{fill:none;stroke:#8B8332;stroke-width:3;stroke-miterlimit:10;}
	.st3{fill:none;stroke:#8B8332;stroke-width:3.0861;stroke-miterlimit:10;}
	.st4{fill:#8B8332;}
</style>
<g class="st0">
	<g>
		<path class="st1" d="M559.48,898.54c-2.19-27.9-0.62-47.6-3.78-62.56c-5.08-24.06-11.63-43.8-6.73-91.89
			c3.2-31.42,7.61-48.47,16.3-61.17c1.19-1.74,2.35-1.49,3.51-3.26c4.77-41.54,16.17-82.25,26.49-123.17
			c7.71-30.55,16.6-61.11,26.6-91.76c9.78-29.96,20.81-59.81,32.74-89.76c11.67-29.29,26.2-57.6,39.89-86.78
			c13.39-28.56,24.49-60.05,39.78-88.4c20.5-4.31,27.52,0.8,36.27,19.82c-13.36,36.97-24.61,72.99-34.54,106.86
			c-8.28,28.25-15.75,57.38-22.3,87.39c-6.24,28.61-7.53,58.81-12.23,89.32c-4.45,28.84-7.23,58.54-10.33,89.34
			c-2.92,28.99-11.3,58.38-13.05,89.32c-1.64,29.08-4.94,59.1-5.57,90.09c-0.59,29.13,5.86,59.22,6.14,90.19
			c0,0.38-2.02,0.4-2.03,0.78c-0.01,0.38,3.14,0.58,3.11,0.96c-0.19,2.97-5.47,4.7-5.79,6.53c-2.19,12.58-10.22,17.34-18.83,17.68
			c-7.88,0.29-20.87-1.83-24.42-15.04c-0.45-1.68,6.09-5.2,5.62-7.97c-0.73-4.24-1.37-9.56-2.26-15.85
			c-1.42-10.06-6.8-21.2-8.6-29.22c3.09-3.95,10.95,2.75,12.14-2.12c0.19-38.73-6.2-76.97-4.55-112.89
			c1.77-38.7,11.61-75.36,15.1-111.17c3.76-38.48,8.63-77.14,14.44-112.74c-9.04,28.06-21.1,57.34-28.15,85.29
			c-7.69,30.48-15.4,61.57-19.71,92.3c0.63,4.56,10.97-2.64,12.27,1.78c-3.87,14.63-9.49,25.37-14.21,33.76
			c-3.55,33.15-8.58,66.48-10.09,100.34c-1.48,33.09,0.24,66.72-0.62,100.79c0,0.09,2.03,2.79,1.95,2.84
			C584.4,909.17,577.41,909.43,559.48,898.54z M634.26,861.38c0,0,0-1.88,0-1.88C634.26,859.5,634.26,861.38,634.26,861.38z"/>
		<path class="st2" d="M559.48,898.54c-2.19-27.9-0.62-47.6-3.78-62.56c-5.08-24.06-11.63-43.8-6.73-91.89
			c3.2-31.42,7.61-48.47,16.3-61.17c1.19-1.74,2.35-1.49,3.51-3.26c4.77-41.54,16.17-82.25,26.49-123.17
			c7.71-30.55,16.6-61.11,26.6-91.76c9.78-29.96,20.81-59.81,32.74-89.76c11.67-29.29,26.2-57.6,39.89-86.78
			c13.39-28.56,24.49-60.05,39.78-88.4c20.5-4.31,27.52,0.8,36.27,19.82c-13.36,36.97-24.61,72.99-34.54,106.86
			c-8.28,28.25-15.75,57.38-22.3,87.39c-6.24,28.61-7.53,58.81-12.23,89.32c-4.45,28.84-7.23,58.54-10.33,89.34
			c-2.92,28.99-11.3,58.38-13.05,89.32c-1.64,29.08-4.94,59.1-5.57,90.09c-0.59,29.13,5.86,59.22,6.14,90.19
			c0,0.38-2.02,0.4-2.03,0.78c-0.01,0.38,3.14,0.58,3.11,0.96c-0.19,2.97-5.47,4.7-5.79,6.53c-2.19,12.58-10.22,17.34-18.83,17.68
			c-7.88,0.29-20.87-1.83-24.42-15.04c-0.45-1.68,6.09-5.2,5.62-7.97c-0.73-4.24-1.37-9.56-2.26-15.85
			c-1.42-10.06-6.8-21.2-8.6-29.22c3.09-3.95,10.95,2.75,12.14-2.12c0.19-38.73-6.2-76.97-4.55-112.89
			c1.77-38.7,11.61-75.36,15.1-111.17c3.76-38.48,8.63-77.14,14.44-112.74c-9.04,28.06-21.1,57.34-28.15,85.29
			c-7.69,30.48-15.4,61.57-19.71,92.3c0.63,4.56,10.97-2.64,12.27,1.78c-3.87,14.63-9.49,25.37-14.21,33.76
			c-3.55,33.15-8.58,66.48-10.09,100.34c-1.48,33.09,0.24,66.72-0.62,100.79c0,0.09,2.03,2.79,1.95,2.84
			C584.4,909.17,577.41,909.43,559.48,898.54z M634.26,861.38c0,0,0-1.88,0-1.88C634.26,859.5,634.26,861.38,634.26,861.38z"/>
	</g>
	<g>
		<path class="st1" d="M816.41,959.52c-29.71,0-69.23-20.65-88.88-34.56c-27.85-19.7-58.72-44-64.71-82.93
			c-9.45-61.45,8.3-91.36,26.39-126.55c12.7-24.69,24.2-45.46,35.32-63.46c14.63-23.68,24.47-45.71,38.96-61.86
			c9.9-11.02,26.33-16.14,37.38-25.1c-3.49-1.89-12.47-2.66-15.85-4.91c-28.68-19.19-49.18-51.64-54.81-83.83
			c-8.23-47,14.19-93.18,32.23-132.95c5.13-11.3,10.27-21.78,14.49-32.39c7.24-18.2,16.64-45.59,32.63-66.79
			c15.05-19.95,36.98-32.33,63.8-32.33c0.06,0,0.12,0.04,0.18,0.04c3.74,0.01,3.25-0.87,6.78,0.39c3.52,1.27,0.57,4.08,3.47,6.46
			c21.84,17.94,22.22,33.44,20.83,46.19c-0.75,6.93,3.35,11.26,5.38,18.22c3.09,10.57,5.52,15.69,10.17,22.3
			c7.76,11.03,12.09,26.27,9.24,54.59c-2.5,24.86-14,36.56-23.26,42.17c-6.14,3.72-11.82,7.69-14.32,12.64
			c-19.83-6.92-24.73-5.01-38.29-21.05c8.04-15.94,21.09-26.16,28.82-30.84c6.84-4.15,10.59-2.54,10.99-6.56
			c1.28-12.74-7.52-13.79-13.65-22.49c-5.35-7.6-4.78-21.79-9.82-39.05c-4.37-14.98-10.09-25.96-9.15-34.7
			c0.3-2.76,2.26-7.01,2.31-8.48c-21.98,9.39-33.86,53.52-42.99,76.45c-4.59,11.53-14.31,21.32-19.41,32.56
			c-17.04,37.56-28.47,73-22.48,107.22c3.61,20.64,13.04,42.04,31.96,54.7c9.79,6.55,21.39,13.2,31.85,14.9
			c9.28-4.86,17.61-14.88,27.89-18.97c5.44-2.16,5.39,1.5,11.2,2.26c5.81,0.76,4.08,0.73,8.78,4.23
			c8.24,6.13,17.82,15.5,15.69,25.45c-2.54,11.88-17.13,25.04-30.11,27.91c-7.89,1.75-17.12-2.16-25.15-2.25
			c-19.89,11.7-37.35,26.08-53.41,43.97c-22.97,25.59-44.93,59.57-72.6,113.38c-17.14,33.33-29.82,54.53-22.44,102.51
			c2.12,13.8,13.61,28.14,50.33,54.11c17.13,12.12,48.83,29.94,65.25,29.35c5.07-0.18,9.79-6.39,11.15-8.23
			c3.75-5.08,4.68-11.24,3.28-16.46c19.41-8.01,19.69-18.44,40.46-15.37c4.76,17.63,3.7,42.96-7.69,58.41
			c-10.51,14.25-29.41,17.92-45.85,18.52C817.95,956.4,817.22,959.52,816.41,959.52z"/>
		<path class="st2" d="M816.41,959.52c-29.71,0-69.23-20.65-88.88-34.56c-27.85-19.7-58.72-44-64.71-82.93
			c-9.45-61.45,8.3-91.36,26.39-126.55c12.7-24.69,24.2-45.46,35.32-63.46c14.63-23.68,24.47-45.71,38.96-61.86
			c9.9-11.02,26.33-16.14,37.38-25.1c-3.49-1.89-12.47-2.66-15.85-4.91c-28.68-19.19-49.18-51.64-54.81-83.83
			c-8.23-47,14.19-93.18,32.23-132.95c5.13-11.3,10.27-21.78,14.49-32.39c7.24-18.2,16.64-45.59,32.63-66.79
			c15.05-19.95,36.98-32.33,63.8-32.33c0.06,0,0.12,0.04,0.18,0.04c3.74,0.01,3.25-0.87,6.78,0.39c3.52,1.27,0.57,4.08,3.47,6.46
			c21.84,17.94,22.22,33.44,20.83,46.19c-0.75,6.93,3.35,11.26,5.38,18.22c3.09,10.57,5.52,15.69,10.17,22.3
			c7.76,11.03,12.09,26.27,9.24,54.59c-2.5,24.86-14,36.56-23.26,42.17c-6.14,3.72-11.82,7.69-14.32,12.64
			c-19.83-6.92-24.73-5.01-38.29-21.05c8.04-15.94,21.09-26.16,28.82-30.84c6.84-4.15,10.59-2.54,10.99-6.56
			c1.28-12.74-7.52-13.79-13.65-22.49c-5.35-7.6-4.78-21.79-9.82-39.05c-4.37-14.98-10.09-25.96-9.15-34.7
			c0.3-2.76,2.26-7.01,2.31-8.48c-21.98,9.39-33.86,53.52-42.99,76.45c-4.59,11.53-14.31,21.32-19.41,32.56
			c-17.04,37.56-28.47,73-22.48,107.22c3.61,20.64,13.04,42.04,31.96,54.7c9.79,6.55,21.39,13.2,31.85,14.9
			c9.28-4.86,17.61-14.88,27.89-18.97c5.44-2.16,5.39,1.5,11.2,2.26c5.81,0.76,4.08,0.73,8.78,4.23
			c8.24,6.13,17.82,15.5,15.69,25.45c-2.54,11.88-17.13,25.04-30.11,27.91c-7.89,1.75-17.12-2.16-25.15-2.25
			c-19.89,11.7-37.35,26.08-53.41,43.97c-22.97,25.59-44.93,59.57-72.6,113.38c-17.14,33.33-29.82,54.53-22.44,102.51
			c2.12,13.8,13.61,28.14,50.33,54.11c17.13,12.12,48.83,29.94,65.25,29.35c5.07-0.18,9.79-6.39,11.15-8.23
			c3.75-5.08,4.68-11.24,3.28-16.46c19.41-8.01,19.69-18.44,40.46-15.37c4.76,17.63,3.7,42.96-7.69,58.41
			c-10.51,14.25-29.41,17.92-45.85,18.52C817.95,956.4,817.22,959.52,816.41,959.52z"/>
	</g>
	<g>
		<path class="st1" d="M1061.53,885.03c-23.02,0-46.03,0.46-66.61-8.99c-9.91-4.55-21.24-10.92-34.18-14.81
			c-13.75-4.13-28.49-6.54-41.04-12.3c-8.84-4.06-13.07,0.72-16.8-8.27c-3.73-8.98,1.48-9.04,4.85-18.16
			c8.4-22.76,21.19-44,30.65-66.5c9.52-22.65,17.37-45.91,27.03-67.98c19.01-43.42,37-88.99,53.43-133.51
			c9.42-25.52,19.47-51.11,24.95-78.76c5.14-25.95,5.64-53.63,9.63-82.12c4.36-31.15,19.82-46.57,29.43-56.76
			c2.35-2.5,3.45-7.14,3.7-8.35c0.01-0.03,2.63-0.74-0.16-7.13c-4.61-0.5-8.88-3.56-14.24-7.24c-6.03-4.15-17.54-3.63-19.12-1.48
			c-21.07,28.74-31.29,64.37-42.75,98.61c-11.69,34.92-19.32,70.4-24.37,104.29c-6.11,41.03-8.58,78.54-10.45,107.01
			c-1.19,18.04-6.53,31.87-8.08,41.36c-0.75,4.59,1.57,5.02-0.98,8.92c-2.55,3.9-4.26,1.34-8.17,3.87
			c-13.53,8.76-22.5,4.81-26.43,2.39c-13.94-8.59-16.71-24.19-15.31-37.12c0.57-5.25,5.8-13.16,4.96-16.41
			c3.85-2.62,3.03-4.7,7.4-6.32c0.07-1.05,0.11,1.33,0.18,0.26c1.37-20.8,6.54-47.17,9.93-76.95c2.73-24.01,6.34-49.87,11.85-76.44
			c6.95-33.51,13.84-64.73,24.76-92.57c12.58-32.07,25.36-62.07,43.01-86.15c8.32-11.35,24.21-12.58,39.75-13.4
			c11.93-0.63,25.26-3.32,35.28,2.69c0.44,0.04-0.45,3.43-0.08,3.46c6.43,0.53,23.03-1.29,30,11.33
			c9.78,17.72,7.99,32.74,5.32,45.71c-2.65,12.89-6.74,23.06-13.52,30.26c-8.02,8.52-16.91,14.21-19.42,32.11
			c-4.19,29.95-11.71,57.74-17.23,85.25c-5.78,28.8-11.88,56.36-21.95,83.67c-8.4,22.77-15.34,46.29-24.8,68.79
			c-9.52,22.66-17.27,46-26.93,68.07c-16.25,37.11-33.21,74.86-47.99,112.97c5.36,1.75,9.02,4.26,14.81,6
			c13.75,4.13,28,7.92,40.56,13.68c17.63,8.09,46.35,11.37,81.4,5.47c6.45-4.67-8.26-5.64-6.17-13.33
			c13.19-6.97,22.88-4.81,27.87-3.29c0.42,0.13,0.94,2.12,1.31,2.22c4.97-1.11,12.36-4.28,18.69-7c15.96-6.83,34.14-17.3,47.34-5.65
			c4.49,3.96,6.15,14.5,1.57,30.46c-1.29,4.51,6.2,8.57,3.18,12.16c-3.02,3.59-5.75,2.18-9.97,4.23
			C1145.54,878.82,1102.52,885.03,1061.53,885.03z M1095.16,284.45c0.01,0,0.01-4.42,0.02-4.42
			C1095.17,280.03,1095.17,284.45,1095.16,284.45z"/>
		<path class="st2" d="M1061.53,885.03c-23.02,0-46.03,0.46-66.61-8.99c-9.91-4.55-21.24-10.92-34.18-14.81
			c-13.75-4.13-28.49-6.54-41.04-12.3c-8.84-4.06-13.07,0.72-16.8-8.27c-3.73-8.98,1.48-9.04,4.85-18.16
			c8.4-22.76,21.19-44,30.65-66.5c9.52-22.65,17.37-45.91,27.03-67.98c19.01-43.42,37-88.99,53.43-133.51
			c9.42-25.52,19.47-51.11,24.95-78.76c5.14-25.95,5.64-53.63,9.63-82.12c4.36-31.15,19.82-46.57,29.43-56.76
			c2.35-2.5,3.45-7.14,3.7-8.35c0.01-0.03,2.63-0.74-0.16-7.13c-4.61-0.5-8.88-3.56-14.24-7.24c-6.03-4.15-17.54-3.63-19.12-1.48
			c-21.07,28.74-31.29,64.37-42.75,98.61c-11.69,34.92-19.32,70.4-24.37,104.29c-6.11,41.03-8.58,78.54-10.45,107.01
			c-1.19,18.04-6.53,31.87-8.08,41.36c-0.75,4.59,1.57,5.02-0.98,8.92c-2.55,3.9-4.26,1.34-8.17,3.87
			c-13.53,8.76-22.5,4.81-26.43,2.39c-13.94-8.59-16.71-24.19-15.31-37.12c0.57-5.25,5.8-13.16,4.96-16.41
			c3.85-2.62,3.03-4.7,7.4-6.32c0.07-1.05,0.11,1.33,0.18,0.26c1.37-20.8,6.54-47.17,9.93-76.95c2.73-24.01,6.34-49.87,11.85-76.44
			c6.95-33.51,13.84-64.73,24.76-92.57c12.58-32.07,25.36-62.07,43.01-86.15c8.32-11.35,24.21-12.58,39.75-13.4
			c11.93-0.63,25.26-3.32,35.28,2.69c0.44,0.04-0.45,3.43-0.08,3.46c6.43,0.53,23.03-1.29,30,11.33
			c9.78,17.72,7.99,32.74,5.32,45.71c-2.65,12.89-6.74,23.06-13.52,30.26c-8.02,8.52-16.91,14.21-19.42,32.11
			c-4.19,29.95-11.71,57.74-17.23,85.25c-5.78,28.8-11.88,56.36-21.95,83.67c-8.4,22.77-15.34,46.29-24.8,68.79
			c-9.52,22.66-17.27,46-26.93,68.07c-16.25,37.11-33.21,74.86-47.99,112.97c5.36,1.75,9.02,4.26,14.81,6
			c13.75,4.13,28,7.92,40.56,13.68c17.63,8.09,46.35,11.37,81.4,5.47c6.45-4.67-8.26-5.64-6.17-13.33
			c13.19-6.97,22.88-4.81,27.87-3.29c0.42,0.13,0.94,2.12,1.31,2.22c4.97-1.11,12.36-4.28,18.69-7c15.96-6.83,34.14-17.3,47.34-5.65
			c4.49,3.96,6.15,14.5,1.57,30.46c-1.29,4.51,6.2,8.57,3.18,12.16c-3.02,3.59-5.75,2.18-9.97,4.23
			C1145.54,878.82,1102.52,885.03,1061.53,885.03z M1095.16,284.45c0.01,0,0.01-4.42,0.02-4.42
			C1095.17,280.03,1095.17,284.45,1095.16,284.45z"/>
	</g>
	<g>
		<path class="st1" d="M1202.27,860.27c-12.76-13.72,2.07-18.36,1.18-37.08c-1.95-40.69-12.46-77.85-13.61-113.98
			c-1.24-38.96,7.51-77.74,8.41-115.8c-1.78-5.8-8.96,3.67-13.92,0.18c-5.18-3.64,0.57-5.3-5.57-6.86
			c-30.42,3.9-50.51-3.98-61.63-4.66c-11.57-0.7-19.42,15.39-26.67,6.35c-7.25-9.05,2.71-14.4,4.54-25.84
			c6.26-38.97,9.25-57.84,9.68-78.22c0.44-20.91-1.56-42.9,5.15-84.74c0.02-0.13,1.45,0.09,1.47-0.03
			c3.09-17.83,17.9-19.31,23.19-21.61c1.89-0.82-1.02-6.24-0.78-6.48c3.46-3.54,21.31-14.58,39.45-7.37
			c9.13,3.62,15.62,7.57,15.82,17.86c0.58,30.98-9.04,44.83-17.15,57.95c-5.72,9.25-7.35,20.17-10.1,36.54
			c-5.04,4.45-8.81-8.13-15.44-7.06c-0.14,4.39,4.4,11.62,4.31,15.92c-0.35,16.46-2.97,32.76-6.38,59.61
			c10.55-0.44,16-3.81,28.04-5.46c2.45-19.08,15.06-33.37,21.56-49.72c4.37-10.99,2.87-23.05,5.63-33.54
			c1.01-8.85,5.88-19.98,7.08-29.14c20.67-3.34,23.68-5.41,43.63,0.93c0.28,11.18,2.21,26.87-0.26,37.12
			c-2.07,18.42-7.99,33.17-9.32,50.57c20.72-12.97,40.42-21.51,58.14-18.17c7.68,1.45,22.24,8.93,28.8,27.27
			c3.04,8.5,2.48,18.51,3.31,27.76c0.97,10.75-2.01,24.19,2.12,31.6c6.46,11.59,21.5,8.28,16.42,20.54
			c-5.08,12.26-11.32,6.51-24.09,10.13c-6.06,1.72-13.38-1.31-18.88-4.52c-11.46-6.67-15.14-20.69-20.24-41.55
			c-0.56-2.28-0.41-2.89-1.13-5.72c-17.14,5.27-30.25,8.42-44.99,11.88c-1.47,38.89-5.67,75.5-4.68,114.6
			c0.93,36.74,3.61,74.69,5.57,115.76c13.97-4.02,29.37-3.74,43.12-7.58c28-7.82,53.55-24.96,81.44-33.77
			c28.1-8.88,55.57-17.8,82.08-29.35c27.13-11.82,56.89-18.37,80.77-34.77c15.94-10.95,29.92-26.86,44.82-42.5
			c17.87-18.76,32.84-42.56,56.04-56.59c23.7-14.32,51.29-18.13,77.61-23.8c26.46-5.7,52.86-13.75,79.59-16.46
			c3.89-0.39,7.58-2.44,11.44-2.84c1.79-0.19,5.32,7.71,7,7.59c9.56-4.27,17.67-13.96,28.63-18.85
			c29.05-12.97,30.25-38.1,59.55-25.69c21.53,9.12-10.33,22.99-17.39,45.27c-4.1,12.94-7.55,25.6-19.01,32.77
			c-10.57,6.61-20.57,5.6-30.11,4.66c-3.98-0.39-7.28,3.04-12.26,3c-39.68,17.75-68.39,28.9-94.01,41.1
			c-29.39,14-53.59,30.59-89.75,49.88c-24.23,12.92-55.69,23.45-93.09,43.78c-0.82,0.4-0.92-3.53-1.72-3.09
			c-24.53,15.55-47.45,35.08-74.23,46.41c-26.64,11.27-56.32,15.35-84.05,24.06c-27.78,8.72-56.81,12.91-84.56,20.65
			c-22.05,6.16-43.1,17.94-64.92,24.54C1215.51,861.49,1211.44,870.13,1202.27,860.27z"/>
		<path class="st2" d="M1202.27,860.27c-12.76-13.72,2.07-18.36,1.18-37.08c-1.95-40.69-12.46-77.85-13.61-113.98
			c-1.24-38.96,7.51-77.74,8.41-115.8c-1.78-5.8-8.96,3.67-13.92,0.18c-5.18-3.64,0.57-5.3-5.57-6.86
			c-30.42,3.9-50.51-3.98-61.63-4.66c-11.57-0.7-19.42,15.39-26.67,6.35c-7.25-9.05,2.71-14.4,4.54-25.84
			c6.26-38.97,9.25-57.84,9.68-78.22c0.44-20.91-1.56-42.9,5.15-84.74c0.02-0.13,1.45,0.09,1.47-0.03
			c3.09-17.83,17.9-19.31,23.19-21.61c1.89-0.82-1.02-6.24-0.78-6.48c3.46-3.54,21.31-14.58,39.45-7.37
			c9.13,3.62,15.62,7.57,15.82,17.86c0.58,30.98-9.04,44.83-17.15,57.95c-5.72,9.25-7.35,20.17-10.1,36.54
			c-5.04,4.45-8.81-8.13-15.44-7.06c-0.14,4.39,4.4,11.62,4.31,15.92c-0.35,16.46-2.97,32.76-6.38,59.61
			c10.55-0.44,16-3.81,28.04-5.46c2.45-19.08,15.06-33.37,21.56-49.72c4.37-10.99,2.87-23.05,5.63-33.54
			c1.01-8.85,5.88-19.98,7.08-29.14c20.67-3.34,23.68-5.41,43.63,0.93c0.28,11.18,2.21,26.87-0.26,37.12
			c-2.07,18.42-7.99,33.17-9.32,50.57c20.72-12.97,40.42-21.51,58.14-18.17c7.68,1.45,22.24,8.93,28.8,27.27
			c3.04,8.5,2.48,18.51,3.31,27.76c0.97,10.75-2.01,24.19,2.12,31.6c6.46,11.59,21.5,8.28,16.42,20.54
			c-5.08,12.26-11.32,6.51-24.09,10.13c-6.06,1.72-13.38-1.31-18.88-4.52c-11.46-6.67-15.14-20.69-20.24-41.55
			c-0.56-2.28-0.41-2.89-1.13-5.72c-17.14,5.27-30.25,8.42-44.99,11.88c-1.47,38.89-5.67,75.5-4.68,114.6
			c0.93,36.74,3.61,74.69,5.57,115.76c13.97-4.02,29.37-3.74,43.12-7.58c28-7.82,53.55-24.96,81.44-33.77
			c28.1-8.88,55.57-17.8,82.08-29.35c27.13-11.82,56.89-18.37,80.77-34.77c15.94-10.95,29.92-26.86,44.82-42.5
			c17.87-18.76,32.84-42.56,56.04-56.59c23.7-14.32,51.29-18.13,77.61-23.8c26.46-5.7,52.86-13.75,79.59-16.46
			c3.89-0.39,7.58-2.44,11.44-2.84c1.79-0.19,5.32,7.71,7,7.59c9.56-4.27,17.67-13.96,28.63-18.85
			c29.05-12.97,30.25-38.1,59.55-25.69c21.53,9.12-10.33,22.99-17.39,45.27c-4.1,12.94-7.55,25.6-19.01,32.77
			c-10.57,6.61-20.57,5.6-30.11,4.66c-3.98-0.39-7.28,3.04-12.26,3c-39.68,17.75-68.39,28.9-94.01,41.1
			c-29.39,14-53.59,30.59-89.75,49.88c-24.23,12.92-55.69,23.45-93.09,43.78c-0.82,0.4-0.92-3.53-1.72-3.09
			c-24.53,15.55-47.45,35.08-74.23,46.41c-26.64,11.27-56.32,15.35-84.05,24.06c-27.78,8.72-56.81,12.91-84.56,20.65
			c-22.05,6.16-43.1,17.94-64.92,24.54C1215.51,861.49,1211.44,870.13,1202.27,860.27z"/>
	</g>
	<g>
		<path class="st1" d="M887.37,785.04c-4.17,0-8.73,2.96-13.53-0.16c-27.15-17.69-51.71-39.19-76.55-60.36
			c-24.91-21.23-48.5-43.81-72.1-65.71c-27.73-25.73-55.27-50.77-83.07-73.77c-3.46-0.19-8.01-0.99-11.43-1.06
			c-18.78-0.38-43.19,6.28-75.1-14.52c-30.95-20.17-39.85-45.77-47.43-63.7c-2.86-1.16-3.1-4.53-5.99-5.62
			c-28.09-10.6-52.25-20.8-76.9-26.98c-25.31-6.35-51.35-8.68-80.58-12.26c-14.85-1.82-24.12-11.76-31.52-19.09
			c-2.86-2.83-9.75-0.8-11.73-1.81c-2.15-1.1-5.64-0.84-9.99-1.52c-10.39-1.62-22.71-8.93-33.09-18.65
			c-3.83-3.58-7.99-6.33-11.93-9.86c-36.72-16.54-60.89-29.91-83.82-43.91c-9.58-5.85-16.4-17.74-27.2-23.89
			c-34.41-12.4-71.82-23.24-105-43.8c-5.08-20.28-0.29-30.27,19.76-36.22c46.6,18.05,79.02,27,103.68,40.88
			c9.56,3.4,15.93,13.62,25.33,16.72c34.51,11.37,66.16,28.01,92.53,51.12c14.05,6.17,28.55,14.83,47.52,21.86
			c33.96,12.58,53.96,9.13,75.32,8.35c26.64-0.97,53.89,1.65,99.57,25.45c27.23,14.19,40.38,29.84,48.28,45.44
			c41.78,19.16,82.29,40.99,118.08,69.71c10.38,1.52,24.37,7.02,38.63,12.78c2.96,7.68-11.93,8.49-8.49,15.97
			c21.88,18.97,43.94,36.15,64.96,55.66c17.5,16.24,29.03,39.51,47.12,55.51c18.12,16.02,36.39,33.38,55.37,47.82
			c0.45-2.65,0.01-10.87,0.47-13.47c3.94-22.26,7.5-44.87,1.59-62.41c15.51-14.16,22.11-10.89,42.28-5.03
			c9.34,27.71,8.88,50.39,4.35,75.97c-1.51,8.52-2.62,16.35-3.51,24.33c0.16,0.22-0.97-1.31-0.84-1.12c1.41,1.97,2.63,4.07,3.72,5.8
			c9.59,15.12,0.35,29.07-1.6,31.11C901.05,788.21,893.77,785.04,887.37,785.04z"/>
		<path class="st2" d="M887.37,785.04c-4.17,0-8.73,2.96-13.53-0.16c-27.15-17.69-51.71-39.19-76.55-60.36
			c-24.91-21.23-48.5-43.81-72.1-65.71c-27.73-25.73-55.27-50.77-83.07-73.77c-3.46-0.19-8.01-0.99-11.43-1.06
			c-18.78-0.38-43.19,6.28-75.1-14.52c-30.95-20.17-39.85-45.77-47.43-63.7c-2.86-1.16-3.1-4.53-5.99-5.62
			c-28.09-10.6-52.25-20.8-76.9-26.98c-25.31-6.35-51.35-8.68-80.58-12.26c-14.85-1.82-24.12-11.76-31.52-19.09
			c-2.86-2.83-9.75-0.8-11.73-1.81c-2.15-1.1-5.64-0.84-9.99-1.52c-10.39-1.62-22.71-8.93-33.09-18.65
			c-3.83-3.58-7.99-6.33-11.93-9.86c-36.72-16.54-60.89-29.91-83.82-43.91c-9.58-5.85-16.4-17.74-27.2-23.89
			c-34.41-12.4-71.82-23.24-105-43.8c-5.08-20.28-0.29-30.27,19.76-36.22c46.6,18.05,79.02,27,103.68,40.88
			c9.56,3.4,15.93,13.62,25.33,16.72c34.51,11.37,66.16,28.01,92.53,51.12c14.05,6.17,28.55,14.83,47.52,21.86
			c33.96,12.58,53.96,9.13,75.32,8.35c26.64-0.97,53.89,1.65,99.57,25.45c27.23,14.19,40.38,29.84,48.28,45.44
			c41.78,19.16,82.29,40.99,118.08,69.71c10.38,1.52,24.37,7.02,38.63,12.78c2.96,7.68-11.93,8.49-8.49,15.97
			c21.88,18.97,43.94,36.15,64.96,55.66c17.5,16.24,29.03,39.51,47.12,55.51c18.12,16.02,36.39,33.38,55.37,47.82
			c0.45-2.65,0.01-10.87,0.47-13.47c3.94-22.26,7.5-44.87,1.59-62.41c15.51-14.16,22.11-10.89,42.28-5.03
			c9.34,27.71,8.88,50.39,4.35,75.97c-1.51,8.52-2.62,16.35-3.51,24.33c0.16,0.22-0.97-1.31-0.84-1.12c1.41,1.97,2.63,4.07,3.72,5.8
			c9.59,15.12,0.35,29.07-1.6,31.11C901.05,788.21,893.77,785.04,887.37,785.04z"/>
	</g>
	<g>
		<path class="st1" d="M957.17,360.44c-20.77-3.12-21.86,0.68-41-7.97c1.9-9.68,5.61-16.85,9.9-22.93c-0.24-0.1,0.01,0.88-0.23,0.77
			c-21.42-9.6-41.58,3.68-41.56-19.8c0.02-23.47,20.02-10.46,41.46-20.03c8.57-3.82,18.9-3.5,27.51,0.32
			c4.24-1.05,9.55-1.43,13.84-4.51c10.19-7.32,16.98-18.05,22.36-28.32c2.41-4.6,5.58-9.34,7.79-14.91
			c3.57-9,6.39-19.92,12.77-29.32c21.12-31.15,7.59-74.35,43.27-62.37c35.68,11.98-1.05,38.27-3,75.85
			c-0.07,1.32-1.08,2.49-1.21,3.45c-0.03,0.22-0.88,0.3-0.9,0.5c0.02-0.2,0.53,0.79,0.54,0.63c-7.43-0.47-12.75-9.08-15.79-2.29
			c-2.88,6.43,8,2.91,11.55,9c-3.8,5.6-5.68,12.17-8.73,19.84c-2.51,6.32-5.44,12.66-8.87,19.21c-8.4,16.04-20.79,30.34-36.26,41.46
			c-5.28,3.8-10.5,8.31-17.32,10.96c-1.15,6.36-2.72,13.03-7.04,19.36c-0.89,1.3-3.12,1.69-4.05,2.99
			C960.1,355.3,957.53,358.61,957.17,360.44z"/>
		<path class="st2" d="M957.17,360.44c-20.77-3.12-21.86,0.68-41-7.97c1.9-9.68,5.61-16.85,9.9-22.93c-0.24-0.1,0.01,0.88-0.23,0.77
			c-21.42-9.6-41.58,3.68-41.56-19.8c0.02-23.47,20.02-10.46,41.46-20.03c8.57-3.82,18.9-3.5,27.51,0.32
			c4.24-1.05,9.55-1.43,13.84-4.51c10.19-7.32,16.98-18.05,22.36-28.32c2.41-4.6,5.58-9.34,7.79-14.91
			c3.57-9,6.39-19.92,12.77-29.32c21.12-31.15,7.59-74.35,43.27-62.37c35.68,11.98-1.05,38.27-3,75.85
			c-0.07,1.32-1.08,2.49-1.21,3.45c-0.03,0.22-0.88,0.3-0.9,0.5c0.02-0.2,0.53,0.79,0.54,0.63c-7.43-0.47-12.75-9.08-15.79-2.29
			c-2.88,6.43,8,2.91,11.55,9c-3.8,5.6-5.68,12.17-8.73,19.84c-2.51,6.32-5.44,12.66-8.87,19.21c-8.4,16.04-20.79,30.34-36.26,41.46
			c-5.28,3.8-10.5,8.31-17.32,10.96c-1.15,6.36-2.72,13.03-7.04,19.36c-0.89,1.3-3.12,1.69-4.05,2.99
			C960.1,355.3,957.53,358.61,957.17,360.44z"/>
	</g>
</g>
<path d="M842.28,830.54c0,0.01,0,0.01,0,0.02c0,0,0.01,0,0.01,0.01L842.28,830.54z"/>
<path d="M866.96,853.61c0.01,0.02,0.02,0.03,0.02,0.05c0.02-0.02,0.05-0.03,0.07-0.05C867.06,853.61,866.96,853.61,866.96,853.61z"
	/>
<path d="M807.39,882c0,0.04,0,0.07,0,0.11c0.01,0.01,0.01,0.02,0.02,0.03C807.4,882.13,807.39,882,807.39,882z"/>
<path d="M820.54,874.22c-0.03,0-0.05,0-0.08-0.01c0,0.02,0,0.04,0,0.07L820.54,874.22z"/>
<path d="M891.04,862.37c-0.03,0-0.05,0-0.08,0c0,0.02,0,0.04,0,0.07L891.04,862.37z"/>
<path d="M818.09,875.4c0.02,0.02,0.04,0.04,0.06,0.06c0.01,0,0.01,0,0.02,0L818.09,875.4z"/>
<path d="M889.23,867.09c-0.02,0.02-0.03,0.04-0.05,0.06c0,0.01,0,0.02,0,0.03L889.23,867.09z"/>
<path d="M713.3,877.17c0,0.02,0,0.03,0,0.05c0.01,0.01,0.01,0.02,0.02,0.03L713.3,877.17z"/>
<path d="M706.8,904.4c-0.02,0.03-0.04,0.05-0.07,0.08c0,0,0,0.01,0,0.01L706.8,904.4z"/>
<path d="M713.92,874.23c-0.02,0-0.05,0-0.07,0c0,0.02,0,0.05,0.01,0.07L713.92,874.23z"/>
<path d="M1363.74,943.56c-0.02-0.01-0.05-0.02-0.07-0.03c-0.01,0-0.02,0-0.02,0L1363.74,943.56z"/>
<path d="M1494.05,937.58c-0.02,0.01-0.04,0.02-0.06,0.03c0,0-0.01,0.01-0.01,0.01L1494.05,937.58z"/>
<path d="M1416.85,858.48c0.02-0.01,0.05-0.02,0.07-0.03c0-0.01-0.01-0.02-0.01-0.03C1416.9,858.41,1416.85,858.48,1416.85,858.48z"
	/>
<path d="M1446.37,944.74c0-0.01,0-0.03,0-0.04c-0.03,0-0.06,0-0.08,0L1446.37,944.74z"/>
<path d="M1357.15,948.83C1357.15,948.83,1357.15,948.83,1357.15,948.83c0.02,0.03,0.05,0.05,0.07,0.08L1357.15,948.83z"/>
<path d="M994.68,842.87c0-0.01,0-0.01,0-0.02c-0.02-0.01-0.04-0.02-0.05-0.03C994.62,842.82,994.68,842.87,994.68,842.87z"/>
<path d="M984.01,883.18c0-0.01,0-0.02,0-0.03c-0.02-0.02-0.04-0.04-0.06-0.06L984.01,883.18z"/>
<path d="M1005.94,947.71c0,0,0-0.01,0-0.01c-0.02-0.02-0.05-0.03-0.07-0.05L1005.94,947.71z"/>
<path d="M1036.57,832.53c0,0,0,0.01,0.01,0.01c0.06,0.01,0.13,0.01,0.19,0.02C1036.77,832.56,1036.57,832.53,1036.57,832.53z"/>
<path d="M1447.94,890.05c0.01-0.02,0.02-0.04,0.03-0.05l0,0L1447.94,890.05z"/>
<path d="M1378.46,958.9c0.02,0.02,0.05,0.05,0.07,0.07c0,0,0.01-0.01,0.01-0.01C1378.54,958.96,1378.46,958.9,1378.46,958.9z"/>
<path d="M1374.38,955.92c-0.02,0.02-0.04,0.03-0.06,0.05c0,0.01,0,0.02,0,0.04L1374.38,955.92z"/>
<path d="M1433.63,873.67c-0.01-0.01-0.02-0.02-0.03-0.03c-0.01-0.01-0.03-0.02-0.04-0.02L1433.63,873.67z"/>
<path d="M1385.42,956.95c0,0.01,0,0.01,0.01,0.02c0-0.01,0-0.01,0.01-0.02L1385.42,956.95z"/>
</svg>
