<?xml version="1.0" encoding="utf-8"?>
<!-- Generator: Adobe Illustrator 28.1.0, SVG Export Plug-In . SVG Version: 6.00 Build 0)  -->
<svg version="1.1" id="Layer_1" xmlns="http://www.w3.org/2000/svg" xmlns:xlink="http://www.w3.org/1999/xlink" x="0px" y="0px"
	 viewBox="0 0 1920 1080" style="enable-background:new 0 0 1920 1080;" xml:space="preserve">
<style type="text/css">
	.st0{opacity:0.9;}
	.st1{fill:#BFB326;}
	.st2{fill:none;stroke:#8B8332;stroke-width:3;stroke-miterlimit:10;}
	.st3{fill:none;stroke:#8B8332;stroke-width:3.0861;stroke-miterlimit:10;}
	.st4{fill:#8B8332;}
</style>
<g class="st0">
	<g>
		<path class="st1" d="M1431.78,838.54c-0.64-14.45,7.78-44.55,50.29-133.8c14.53-30.52,37.58-61.94,55.99-97.92
			c16.74-32.72,25.11-71.48,42.5-104.92c17.62-33.88,35.52-68.06,52.43-101.11c-6.84,3.93-7.85,17.46-14.6,20.54
			c-18.62,8.5-27.35,22.54-43.41,9.85c-16.06-12.69,12.97-21,16.93-41.08c0.88-4.49-5.41-15.55-2.14-21.71
			c-25.12,11.66-53.34,18.21-78.8,28.63c-26.26,10.75-50.8,25.62-76.85,32.37c-20.66,17.58-33.8,47.36-55.88,62.74
			c-22.61,15.75-53.08,19.49-75.46,33.53c-2.03,1.27,0.5,6.95-1.76,7.74c-2.26,0.79-2.32,8.1-4.7,8.37
			c-10.19,1.15-23.88-4.06-35.34,4.63c-14.76,11.2-28.83,35.52-50.5,37.96c-32.08,3.61-64.4-4.04-94.98-3.88
			c-32.02,0.17-63.23-3.64-93.98-4.73c-43.65-1.54-90.75,1.92-137.26,3.97c-17.17-11.05-9.15-20.67-3-40.13
			c28.89-16.4,52.02-31.28,75.61-50.62c24.4-20.01,38.87-50.72,62.23-72.61c16.45-15.41,31.58-33.72,49.94-49.99
			c2.1-1.86,17.69,11.43,20.01,9.41c11.18-9.73,8.81-36.81,16.76-47.85c4.28-5.94,8.55-3.97,8.75-5.16c0.11-0.66,7.13-4.1,6.83-4.56
			c-1.25-0.18-4.67,10.7-13.5,13.59c-9.18,3-24.52-5.07-34.38-0.36c-7.47,3.57-15.21,3.7-21.68,6.18
			c-22.4,8.59-40.37,15.57-61.11,15.94c-17.9,0.32-38.58-6.7-54.08-0.76c-27.45,10.53-44.33,45.11-70.99,64.74
			c-27.73,20.41-59.56,38.91-92.3,51.47c-0.64,0.24-2.25-4.13-2.9-3.93c-33.26,10.34-67.24,16.89-101.64,16.42
			c-34.32-0.47-69.54-0.58-103.46-4.54c-22.02-2.57-42.12-5.88-62.88-7.4c-1.98,1.73-8.1-5.49-9.81-3.89
			c-10.43,9.76-15.44,15.89-27.56,15.17c-6.31-0.38-5.79-2.6-9.83-7.41c-1.52-1.81-10.84-2.33-11.71-4.49
			c-31.25,14.28-65.47,22.43-97.97,34.76c-20.77,7.88-34.44,1.35-51.04-4.27c-9.49-3.21-21.54,13.65-28.58,13.7
			c-25.02,0.23-69.1-12.78-89.77-40.59c-16.05,12.49-29.3,31.74-48.89,40.34c-14.55,6.38-36.93-1.75-51.55-10.77
			c-17.86-11.02-23.62-35.31-25.35-56.02c-1.03-1.92-3.58-8.74-5.34-11.16c-3.46-4.77-21.13-1.68-23.72-7.18
			c-6.97-14.83,9.57-27.38,13.01-32.42c20.61-30.17,37.04-64.26,64.73-83.7c28.95-20.32,67.58-24.25,99.45-36.8
			c33.82-13.33,63.17-38.18,94.55-47.48c37.06-10.99,72.73-5.21,97.77-18.26c18.44,10.04,22.88,11.15,19.23,31.83
			c-28.63,14.92-65.62,16.38-104.68,27.96c-28.63,8.49-54.25,30.81-83.49,41.82c-28.8,10.85-53.45,27.73-79.16,44.45
			c-25.42,16.54-47.38,33.26-66.23,58.85c0.99,1.43-0.91-3.07-0.03-1.85c5.89,8.13,2.88,19.8,3.45,30.96
			c0.39,7.63,12.45,17.01,19.17,21.16c4.25,2.62,6.26,0.44,6.93,0.15c26.44-11.6,46-32.64,65.69-51.55
			c5.89-12.58,20.71-21.61,31.57-33.9c7.96-9,23.15-23.61,39.2-28.99c38.49-12.9,63.74-68.74,85.87-34.71
			c22.13,34.03-30.96,41.96-58.36,71.91c-3.26,3.57-8.06,7.47-12.85,13.15c-10.53,12.49-33.47,20.1-49.67,36.34
			c-0.83,2.48,0.9,9.14,0.86,10.3c6.49,9.22,30.26,18.89,57.18,18.65c14.18-0.13,31.12-11.27,42.93-7.27
			c11.82,4,16.99,12.4,23.66,9.87c42.84-16.26,90.76-23.28,131.91-42.34c3.46-1.6,9.24-6.6,12.72-8.21
			c-0.26-3.89-6.54-10.95-6.86-15.01c-2.26-28.38-12.12-65.94,5.63-92.31c14.15-21.02,40.31-33.07,61.55-45.47
			c21.59-12.6,48.38-14.79,70.45-23.62c10.46-4.18,16.55-17.22,26.12-21.42c28.67-12.58,75.83-10.82,120.2-11.74
			c37.63-0.77,82.27,4.57,111.69,29.38c7.23,6.09,14.15-3.88,15.45,5.48c1.29,9.36-2.84,5.19-8.15,13.01
			c-14.91,22-37.79,43.47-68.06,61.23c-25.68,15.07-53.85,30.78-82.82,42.89c-30.55,12.77-58.92,29.69-84.97,39.23
			c-10.5,3.85-19.98,8.35-28.55,11.6c-19.25,7.31-42.45,5.86-61.48,14.19c7.81,0.87,16.53,1.19,24.21,2.09
			c31.08,3.63,62.76-2.65,93.71-1.93c32.12,0.75,61,3.23,90.43-5.81c27.21-10.57,50-28.5,76.45-47.97
			c27.73-20.41,62.24-31.9,94.98-44.45c22.4-8.59,42.53-10.78,63.28-11.15c17.9-0.32,37.87,5.71,53.37-0.24
			c4.9-1.88,3.16-23.33,9.86-26.54c13.2-6.31,32.34-6.28,46.79-9.83c28.22-6.94,43.24,7.28,51.07,17.08
			c8.22,10.29,24.97,35.15,2.71,66.09c-10.79,15-35.49,21.07-48.31,32.23c-2.23,1.94-0.74,7.98-2.75,9.76
			c-17.93,15.88-40.73,25.19-56.97,40.41c-30.99,29.04-47.12,66.83-81.5,92.69c22.58,0.35,37.03-7.83,58.8-7.06
			c30.84,1.09,60.59-3.64,90.74-3.75c29.78-0.11,59.95,11.49,91.05,7.99c10.19-1.15,24.66-5.97,36.12-14.66
			c13.57-10.29,21.62-34.55,40.83-38.24c24.73-15.55,57.87-20.02,82.45-37.65c13.73-14.36,6.67-20.73,18.24-36.88
			c16.01-22.34,32.74-49.82,52.64-73.16c19.34-22.68,43.62-42.48,58.6-63.38c2.88-4.01,18.73-12.47,37.81-13.37
			c8.47-0.4,9.66-3.15,15.18,3.2c4.22,4.86,8.49-1.23,9.55,5.12c1.06,6.35-1.47,3.39-3.88,9.36
			c-13.24,32.78-23.85,63.18-45.73,90.14c25.88-10.76,50.08-19.19,77.12-31.77c19.01-8.84,34.51-24.29,53.77-32.76
			c6.09-7.76,9.96-16.61,17.2-25.72c16.1-20.27,32.76-40.93,45.49-58.22c18.42-25.03,34.31-26.22,34.66-27.41
			c-0.03,0.11-7.36-13.71-7.38-13.61c20.79,1.61,20.71,8.69,40.5,15.26c0.48,10.85,8.05,26.84-11.35,72.83
			c24.34-6.49,38.37-12.67,62.52-13.85c2.96-0.21,5.29,2.87,8.25,2.89c1.6,20.94,2.41,20.98,1.45,41.95
			c-2.19,0.04-5.33-7.44-7.53-7.33c-35.78,2.67-79.92,33.47-119.82,61.82c-13.1,26.59-16.52,62.77-31.64,92.17
			c-14.26,27.73-32.92,54.17-47.5,82.2c-17.29,33.24-27.66,70.67-44.28,103.15c-18.33,35.82-44.87,65.24-59.26,95.45
			c-39.47,82.88-37.26,113.31-37.01,118.95C1464.26,854.91,1451.93,844.49,1431.78,838.54z M505.21,457.24c0,0,2.31,4.47,2.31,4.47
			C507.52,459.47,505.21,457.24,505.21,457.24z M761.5,248.13c-2.28,0-4.63-6.76-6.97-6.71c-38.02,0.78-82.68,2.39-105.9,12.58
			c-10.2,4.47-16.71,18.34-27.02,22.47c-40.01,16-80.71,31.89-102.02,63.54c-9.11,13.54-5.38,23.88-3.62,46.24
			c25.65-11.52,46.85-15.81,73.3-25.84c8.79-3.34,22.38,2.63,33-1.26c30.32-11.11,68.84-28.08,106.22-44.75
			c38.64-17.23,83.53-38.49,106.69-59.68C819.11,249.31,786.98,248.13,761.5,248.13z"/>
		<path class="st2" d="M1431.78,838.54c-0.64-14.45,7.78-44.55,50.29-133.8c14.53-30.52,37.58-61.94,55.99-97.92
			c16.74-32.72,25.11-71.48,42.5-104.92c17.62-33.88,35.52-68.06,52.43-101.11c-6.84,3.93-7.85,17.46-14.6,20.54
			c-18.62,8.5-27.35,22.54-43.41,9.85c-16.06-12.69,12.97-21,16.93-41.08c0.88-4.49-5.41-15.55-2.14-21.71
			c-25.12,11.66-53.34,18.21-78.8,28.63c-26.26,10.75-50.8,25.62-76.85,32.37c-20.66,17.58-33.8,47.36-55.88,62.74
			c-22.61,15.75-53.08,19.49-75.46,33.53c-2.03,1.27,0.5,6.95-1.76,7.74c-2.26,0.79-2.32,8.1-4.7,8.37
			c-10.19,1.15-23.88-4.06-35.34,4.63c-14.76,11.2-28.83,35.52-50.5,37.96c-32.08,3.61-64.4-4.04-94.98-3.88
			c-32.02,0.17-63.23-3.64-93.98-4.73c-43.65-1.54-90.75,1.92-137.26,3.97c-17.17-11.05-9.15-20.67-3-40.13
			c28.89-16.4,52.02-31.28,75.61-50.62c24.4-20.01,38.87-50.72,62.23-72.61c16.45-15.41,31.58-33.72,49.94-49.99
			c2.1-1.86,17.69,11.43,20.01,9.41c11.18-9.73,8.81-36.81,16.76-47.85c4.28-5.94,8.55-3.97,8.75-5.16c0.11-0.66,7.13-4.1,6.83-4.56
			c-1.25-0.18-4.67,10.7-13.5,13.59c-9.18,3-24.52-5.07-34.38-0.36c-7.47,3.57-15.21,3.7-21.68,6.18
			c-22.4,8.59-40.37,15.57-61.11,15.94c-17.9,0.32-38.58-6.7-54.08-0.76c-27.45,10.53-44.33,45.11-70.99,64.74
			c-27.73,20.41-59.56,38.91-92.3,51.47c-0.64,0.24-2.25-4.13-2.9-3.93c-33.26,10.34-67.24,16.89-101.64,16.42
			c-34.32-0.47-69.54-0.58-103.46-4.54c-22.02-2.57-42.12-5.88-62.88-7.4c-1.98,1.73-8.1-5.49-9.81-3.89
			c-10.43,9.76-15.44,15.89-27.56,15.17c-6.31-0.38-5.79-2.6-9.83-7.41c-1.52-1.81-10.84-2.33-11.71-4.49
			c-31.25,14.28-65.47,22.43-97.97,34.76c-20.77,7.88-34.44,1.35-51.04-4.27c-9.49-3.21-21.54,13.65-28.58,13.7
			c-25.02,0.23-69.1-12.78-89.77-40.59c-16.05,12.49-29.3,31.74-48.89,40.34c-14.55,6.38-36.93-1.75-51.55-10.77
			c-17.86-11.02-23.62-35.31-25.35-56.02c-1.03-1.92-3.58-8.74-5.34-11.16c-3.46-4.77-21.13-1.68-23.72-7.18
			c-6.97-14.83,9.57-27.38,13.01-32.42c20.61-30.17,37.04-64.26,64.73-83.7c28.95-20.32,67.58-24.25,99.45-36.8
			c33.82-13.33,63.17-38.18,94.55-47.48c37.06-10.99,72.73-5.21,97.77-18.26c18.44,10.04,22.88,11.15,19.23,31.83
			c-28.63,14.92-65.62,16.38-104.68,27.96c-28.63,8.49-54.25,30.81-83.49,41.82c-28.8,10.85-53.45,27.73-79.16,44.45
			c-25.42,16.54-47.38,33.26-66.23,58.85c0.99,1.43-0.91-3.07-0.03-1.85c5.89,8.13,2.88,19.8,3.45,30.96
			c0.39,7.63,12.45,17.01,19.17,21.16c4.25,2.62,6.26,0.44,6.93,0.15c26.44-11.6,46-32.64,65.69-51.55
			c5.89-12.58,20.71-21.61,31.57-33.9c7.96-9,23.15-23.61,39.2-28.99c38.49-12.9,63.74-68.74,85.87-34.71
			c22.13,34.03-30.96,41.96-58.36,71.91c-3.26,3.57-8.06,7.47-12.85,13.15c-10.53,12.49-33.47,20.1-49.67,36.34
			c-0.83,2.48,0.9,9.14,0.86,10.3c6.49,9.22,30.26,18.89,57.18,18.65c14.18-0.13,31.12-11.27,42.93-7.27
			c11.82,4,16.99,12.4,23.66,9.87c42.84-16.26,90.76-23.28,131.91-42.34c3.46-1.6,9.24-6.6,12.72-8.21
			c-0.26-3.89-6.54-10.95-6.86-15.01c-2.26-28.38-12.12-65.94,5.63-92.31c14.15-21.02,40.31-33.07,61.55-45.47
			c21.59-12.6,48.38-14.79,70.45-23.62c10.46-4.18,16.55-17.22,26.12-21.42c28.67-12.58,75.83-10.82,120.2-11.74
			c37.63-0.77,82.27,4.57,111.69,29.38c7.23,6.09,14.15-3.88,15.45,5.48c1.29,9.36-2.84,5.19-8.15,13.01
			c-14.91,22-37.79,43.47-68.06,61.23c-25.68,15.07-53.85,30.78-82.82,42.89c-30.55,12.77-58.92,29.69-84.97,39.23
			c-10.5,3.85-19.98,8.35-28.55,11.6c-19.25,7.31-42.45,5.86-61.48,14.19c7.81,0.87,16.53,1.19,24.21,2.09
			c31.08,3.63,62.76-2.65,93.71-1.93c32.12,0.75,61,3.23,90.43-5.81c27.21-10.57,50-28.5,76.45-47.97
			c27.73-20.41,62.24-31.9,94.98-44.45c22.4-8.59,42.53-10.78,63.28-11.15c17.9-0.32,37.87,5.71,53.37-0.24
			c4.9-1.88,3.16-23.33,9.86-26.54c13.2-6.31,32.34-6.28,46.79-9.83c28.22-6.94,43.24,7.28,51.07,17.08
			c8.22,10.29,24.97,35.15,2.71,66.09c-10.79,15-35.49,21.07-48.31,32.23c-2.23,1.94-0.74,7.98-2.75,9.76
			c-17.93,15.88-40.73,25.19-56.97,40.41c-30.99,29.04-47.12,66.83-81.5,92.69c22.58,0.35,37.03-7.83,58.8-7.06
			c30.84,1.09,60.59-3.64,90.74-3.75c29.78-0.11,59.95,11.49,91.05,7.99c10.19-1.15,24.66-5.97,36.12-14.66
			c13.57-10.29,21.62-34.55,40.83-38.24c24.73-15.55,57.87-20.02,82.45-37.65c13.73-14.36,6.67-20.73,18.24-36.88
			c16.01-22.34,32.74-49.82,52.64-73.16c19.34-22.68,43.62-42.48,58.6-63.38c2.88-4.01,18.73-12.47,37.81-13.37
			c8.47-0.4,9.66-3.15,15.18,3.2c4.22,4.86,8.49-1.23,9.55,5.12c1.06,6.35-1.47,3.39-3.88,9.36
			c-13.24,32.78-23.85,63.18-45.73,90.14c25.88-10.76,50.08-19.19,77.12-31.77c19.01-8.84,34.51-24.29,53.77-32.76
			c6.09-7.76,9.96-16.61,17.2-25.72c16.1-20.27,32.76-40.93,45.49-58.22c18.42-25.03,34.31-26.22,34.66-27.41
			c-0.03,0.11-7.36-13.71-7.38-13.61c20.79,1.61,20.71,8.69,40.5,15.26c0.48,10.85,8.05,26.84-11.35,72.83
			c24.34-6.49,38.37-12.67,62.52-13.85c2.96-0.21,5.29,2.87,8.25,2.89c1.6,20.94,2.41,20.98,1.45,41.95
			c-2.19,0.04-5.33-7.44-7.53-7.33c-35.78,2.67-79.92,33.47-119.82,61.82c-13.1,26.59-16.52,62.77-31.64,92.17
			c-14.26,27.73-32.92,54.17-47.5,82.2c-17.29,33.24-27.66,70.67-44.28,103.15c-18.33,35.82-44.87,65.24-59.26,95.45
			c-39.47,82.88-37.26,113.31-37.01,118.95C1464.26,854.91,1451.93,844.49,1431.78,838.54z M505.21,457.24c0,0,2.31,4.47,2.31,4.47
			C507.52,459.47,505.21,457.24,505.21,457.24z M761.5,248.13c-2.28,0-4.63-6.76-6.97-6.71c-38.02,0.78-82.68,2.39-105.9,12.58
			c-10.2,4.47-16.71,18.34-27.02,22.47c-40.01,16-80.71,31.89-102.02,63.54c-9.11,13.54-5.38,23.88-3.62,46.24
			c25.65-11.52,46.85-15.81,73.3-25.84c8.79-3.34,22.38,2.63,33-1.26c30.32-11.11,68.84-28.08,106.22-44.75
			c38.64-17.23,83.53-38.49,106.69-59.68C819.11,249.31,786.98,248.13,761.5,248.13z"/>
	</g>
	<g>
		<path class="st1" d="M952.96,307.97c1.67-14.63,10.6-27.53,28.95-39.26c-8.29-21.7-52.34-16-34.78-31.21
			c24.12-20.88,31.92,3.62,63.68,6.6c1.7,0.16,3.48,0.22,5.21,0.23c0,0,0,0.34,0,0.34c2.38,0,5.03-0.2,7.36-0.49
			c2.82-1.78,5.59-3.9,8.42-5.66c8.98-5.6,17.39-11.46,25.65-17.08c17.63,10.51,20.62,10.04,28.88,28.83
			c-10.06,16.51-26.47,27.53-47.61,32.6c-5.69,3.65-10.47,6.86-14.76,9.86c-0.07,0.08-0.59-0.18-0.66-0.1
			c-2.56,2.7-5.51,4.7-9.15,6.47c-10.38,7.95-18.17,16.61-24.98,24.71c-22.41,26.65-13.65,37.8-45.18,52.56
			C912.44,391.13,949.01,342.57,952.96,307.97z"/>
		<path class="st2" d="M952.96,307.97c1.67-14.63,10.6-27.53,28.95-39.26c-8.29-21.7-52.34-16-34.78-31.21
			c24.12-20.88,31.92,3.62,63.68,6.6c1.7,0.16,3.48,0.22,5.21,0.23c0,0,0,0.34,0,0.34c2.38,0,5.03-0.2,7.36-0.49
			c2.82-1.78,5.59-3.9,8.42-5.66c8.98-5.6,17.39-11.46,25.65-17.08c17.63,10.51,20.62,10.04,28.88,28.83
			c-10.06,16.51-26.47,27.53-47.61,32.6c-5.69,3.65-10.47,6.86-14.76,9.86c-0.07,0.08-0.59-0.18-0.66-0.1
			c-2.56,2.7-5.51,4.7-9.15,6.47c-10.38,7.95-18.17,16.61-24.98,24.71c-22.41,26.65-13.65,37.8-45.18,52.56
			C912.44,391.13,949.01,342.57,952.96,307.97z"/>
	</g>
</g>
<path d="M842.28,830.54c0,0.01,0,0.01,0,0.02c0,0,0.01,0,0.01,0.01L842.28,830.54z"/>
<path d="M866.96,853.61c0.01,0.02,0.02,0.03,0.02,0.05c0.02-0.02,0.05-0.03,0.07-0.05C867.06,853.61,866.96,853.61,866.96,853.61z"
	/>
<path d="M807.39,882c0,0.04,0,0.07,0,0.11c0.01,0.01,0.01,0.02,0.02,0.03C807.4,882.13,807.39,882,807.39,882z"/>
<path d="M820.54,874.22c-0.03,0-0.05,0-0.08-0.01c0,0.02,0,0.04,0,0.07L820.54,874.22z"/>
<path d="M891.04,862.37c-0.03,0-0.05,0-0.08,0c0,0.02,0,0.04,0,0.07L891.04,862.37z"/>
<path d="M818.09,875.4c0.02,0.02,0.04,0.04,0.06,0.06c0.01,0,0.01,0,0.02,0L818.09,875.4z"/>
<path d="M889.23,867.09c-0.02,0.02-0.03,0.04-0.05,0.06c0,0.01,0,0.02,0,0.03L889.23,867.09z"/>
<path d="M713.3,877.17c0,0.02,0,0.03,0,0.05c0.01,0.01,0.01,0.02,0.02,0.03L713.3,877.17z"/>
<path d="M706.8,904.4c-0.02,0.03-0.04,0.05-0.07,0.08c0,0,0,0.01,0,0.01L706.8,904.4z"/>
<path d="M713.92,874.23c-0.02,0-0.05,0-0.07,0c0,0.02,0,0.05,0.01,0.07L713.92,874.23z"/>
<path d="M1363.74,943.56c-0.02-0.01-0.05-0.02-0.07-0.03c-0.01,0-0.02,0-0.02,0L1363.74,943.56z"/>
<path d="M1494.05,937.58c-0.02,0.01-0.04,0.02-0.06,0.03c0,0-0.01,0.01-0.01,0.01L1494.05,937.58z"/>
<path d="M1416.85,858.48c0.02-0.01,0.05-0.02,0.07-0.03c0-0.01-0.01-0.02-0.01-0.03C1416.9,858.41,1416.85,858.48,1416.85,858.48z"
	/>
<path d="M1446.37,944.74c0-0.01,0-0.03,0-0.04c-0.03,0-0.06,0-0.08,0L1446.37,944.74z"/>
<path d="M1357.15,948.83C1357.15,948.83,1357.15,948.83,1357.15,948.83c0.02,0.03,0.05,0.05,0.07,0.08L1357.15,948.83z"/>
<path d="M994.68,842.87c0-0.01,0-0.01,0-0.02c-0.02-0.01-0.04-0.02-0.05-0.03C994.62,842.82,994.68,842.87,994.68,842.87z"/>
<path d="M984.01,883.18c0-0.01,0-0.02,0-0.03c-0.02-0.02-0.04-0.04-0.06-0.06L984.01,883.18z"/>
<path d="M1005.94,947.71c0,0,0-0.01,0-0.01c-0.02-0.02-0.05-0.03-0.07-0.05L1005.94,947.71z"/>
<path d="M1036.57,832.53c0,0,0,0.01,0.01,0.01c0.06,0.01,0.13,0.01,0.19,0.02C1036.77,832.56,1036.57,832.53,1036.57,832.53z"/>
<path d="M1447.94,890.05c0.01-0.02,0.02-0.04,0.03-0.05l0,0L1447.94,890.05z"/>
<path d="M1378.46,958.9c0.02,0.02,0.05,0.05,0.07,0.07c0,0,0.01-0.01,0.01-0.01C1378.54,958.96,1378.46,958.9,1378.46,958.9z"/>
<path d="M1374.38,955.92c-0.02,0.02-0.04,0.03-0.06,0.05c0,0.01,0,0.02,0,0.04L1374.38,955.92z"/>
<path d="M1433.63,873.67c-0.01-0.01-0.02-0.02-0.03-0.03c-0.01-0.01-0.03-0.02-0.04-0.02L1433.63,873.67z"/>
<path d="M1385.42,956.95c0,0.01,0,0.01,0.01,0.02c0-0.01,0-0.01,0.01-0.02L1385.42,956.95z"/>
</svg>
