<?xml version="1.0" encoding="utf-8"?>
<!-- Generator: Adobe Illustrator 28.1.0, SVG Export Plug-In . SVG Version: 6.00 Build 0)  -->
<svg version="1.1" id="Layer_1" xmlns="http://www.w3.org/2000/svg" xmlns:xlink="http://www.w3.org/1999/xlink" x="0px" y="0px"
	 viewBox="0 0 1920 1080" style="enable-background:new 0 0 1920 1080;" xml:space="preserve">
<style type="text/css">
	.st0{opacity:0.9;}
	.st1{fill:#BFB326;}
	.st2{fill:none;stroke:#8B8332;stroke-width:3;stroke-miterlimit:10;}
	.st3{fill:none;stroke:#8B8332;stroke-width:3.0861;stroke-miterlimit:10;}
	.st4{fill:#8B8332;}
</style>
<path d="M842.28,830.54c0,0.01,0,0.01,0,0.02c0,0,0.01,0,0.01,0.01L842.28,830.54z"/>
<path d="M866.96,853.61c0.01,0.02,0.02,0.03,0.02,0.05c0.02-0.02,0.05-0.03,0.07-0.05C867.06,853.61,866.96,853.61,866.96,853.61z"
	/>
<path d="M807.39,882c0,0.04,0,0.07,0,0.11c0.01,0.01,0.01,0.02,0.02,0.03C807.4,882.13,807.39,882,807.39,882z"/>
<path d="M820.54,874.22c-0.03,0-0.05,0-0.08-0.01c0,0.02,0,0.04,0,0.07L820.54,874.22z"/>
<path d="M891.04,862.37c-0.03,0-0.05,0-0.08,0c0,0.02,0,0.04,0,0.07L891.04,862.37z"/>
<path d="M818.09,875.4c0.02,0.02,0.04,0.04,0.06,0.06c0.01,0,0.01,0,0.02,0L818.09,875.4z"/>
<path d="M889.23,867.09c-0.02,0.02-0.03,0.04-0.05,0.06c0,0.01,0,0.02,0,0.03L889.23,867.09z"/>
<path d="M713.3,877.17c0,0.02,0,0.03,0,0.05c0.01,0.01,0.01,0.02,0.02,0.03L713.3,877.17z"/>
<path d="M706.8,904.4c-0.02,0.03-0.04,0.05-0.07,0.08c0,0,0,0.01,0,0.01L706.8,904.4z"/>
<path d="M713.92,874.23c-0.02,0-0.05,0-0.07,0c0,0.02,0,0.05,0.01,0.07L713.92,874.23z"/>
<path d="M1363.74,943.56c-0.02-0.01-0.05-0.02-0.07-0.03c-0.01,0-0.02,0-0.02,0L1363.74,943.56z"/>
<path d="M1494.05,937.58c-0.02,0.01-0.04,0.02-0.06,0.03c0,0-0.01,0.01-0.01,0.01L1494.05,937.58z"/>
<path d="M1416.85,858.48c0.02-0.01,0.05-0.02,0.07-0.03c0-0.01-0.01-0.02-0.01-0.03C1416.9,858.41,1416.85,858.48,1416.85,858.48z"
	/>
<path d="M1446.37,944.74c0-0.01,0-0.03,0-0.04c-0.03,0-0.06,0-0.08,0L1446.37,944.74z"/>
<path d="M1357.15,948.83C1357.15,948.83,1357.15,948.83,1357.15,948.83c0.02,0.03,0.05,0.05,0.07,0.08L1357.15,948.83z"/>
<path d="M994.68,842.87c0-0.01,0-0.01,0-0.02c-0.02-0.01-0.04-0.02-0.05-0.03C994.62,842.82,994.68,842.87,994.68,842.87z"/>
<path d="M984.01,883.18c0-0.01,0-0.02,0-0.03c-0.02-0.02-0.04-0.04-0.06-0.06L984.01,883.18z"/>
<path d="M1005.94,947.71c0,0,0-0.01,0-0.01c-0.02-0.02-0.05-0.03-0.07-0.05L1005.94,947.71z"/>
<path d="M1036.57,832.53c0,0,0,0.01,0.01,0.01c0.06,0.01,0.13,0.01,0.19,0.02C1036.77,832.56,1036.57,832.53,1036.57,832.53z"/>
<path d="M1447.94,890.05c0.01-0.02,0.02-0.04,0.03-0.05l0,0L1447.94,890.05z"/>
<path d="M1378.46,958.9c0.02,0.02,0.05,0.05,0.07,0.07c0,0,0.01-0.01,0.01-0.01C1378.54,958.96,1378.46,958.9,1378.46,958.9z"/>
<path d="M1374.38,955.92c-0.02,0.02-0.04,0.03-0.06,0.05c0,0.01,0,0.02,0,0.04L1374.38,955.92z"/>
<path d="M1433.63,873.67c-0.01-0.01-0.02-0.02-0.03-0.03c-0.01-0.01-0.03-0.02-0.04-0.02L1433.63,873.67z"/>
<path d="M1385.42,956.95c0,0.01,0,0.01,0.01,0.02c0-0.01,0-0.01,0.01-0.02L1385.42,956.95z"/>
<g class="st0">
	<g>
		<path class="st1" d="M573.54,1015.8c-20.28,0-37.48-12.71-46.51-19.96c-2.16-0.11-6.37-3.26-7.68-2.82
			c0.69-0.23,1.94,1.01,3.58-0.6c-0.08-0.06,3.47-0.98,3.39-1.04c0.08,0.06-3.68,0.46-3.6,0.52c1.32-1.3,4.42-1.54,5.43-3.95
			c-19.83-5.89-26.98,6.8-41.32-8.11c1.67-30.93,22.81-55.58,41.79-75.49c6.82-7.16,17.49-10.45,22.55-17.07
			c6.81-8.9,12.12-21.53,17.27-34c5.27-12.75,8.49-26.56,16.67-38.59c-0.19-1.64-4.67-3.62-4.84-5.19
			c-0.75-6.94,2.94-14.25,1.43-18.92c-32-99.31-36.51-187.32-13.86-263.3c24.89-83.5,82.5-149.46,137.79-214.43
			c2.48-2.91,2.98-2.49,5.45-5.4c6.3-7.41,9.03-17.91,15.56-25.98c31.91-39.45,65.04-81.9,114.75-98.8
			c28.63-9.73,58.45-2.34,86.65,1.11c13.54,1.66,26.51,3.19,38.63,3.2c0.04,0,0.09-2.58,0.13-2.58c9.67,0,20.15,0.47,31.2-0.69
			c28.29-2.96,59.76-5.66,87.68,9.96c18.77,10.5,27.47,28.77,36.01,45.05c4.23,8.07,9.1,15.43,13.58,20.94
			c4.52,5.55,10.02,11.65,16.11,17.69c18.16,18.04,38.44,37.61,39.5,66.98c0.5,13.95-0.48,26.56-7.5,39.09
			c32.84,20,60.88,43.71,84.32,70.46c13.21,15.07,19.7,33.97,23.52,50.55c1.71,7.41-0.63,15.44,1.59,21.4
			c18.16,48.77,20.16,97.71,9.87,143.41c-4.09,18.19-12.9,32.43-22.62,44.95c-4.87,6.27-6.73,13.91-9.99,19.68
			c-2.62,4.63-8.5,9.48-10.53,16.4c-3.78,12.83-7.48,26.59-18.63,38.23c-11.5,12.01-24.78,19.62-37.83,25
			c-7.9,3.26-16.98,4-22.43,7.85c-51.14,36.06-94.22,54.67-138.26,59.6c-30.39,3.39-61.89-4.01-97.56-27.16
			c-3.62-2.35-9.64-2.43-14.94-4.73c-6.7-2.92-14.38-8.59-21.41-13.31c-18.09,30.89-37.77,61.26-59.21,89.14
			c-8,10.41-17.13,18.44-24.95,29.02c-19.85-6.87-23.86-5-36.1-22.06c8.05-10.89,18.85-22.58,26.98-33.15
			c24.17-31.44,46.08-64.18,64.1-98.8c-18.34-35.77-27.59-76.36-31.79-120.97c-4.36-46.39-3.13-96.48,8.02-147.88
			c1.56-7.17,1.34-7.46,6.73-12.44c5.39-4.99,5.56-5.39,12.84-6.39c0.96-0.13,2.63,4.89,3.51,4.75c7.71-1.23,24.31-8.15,36.76,5
			c32.19,34.01,27.75,87.12,27.98,127.82c0.02,2.88,5.04,2.85,5.05,5.72c0.05,7.06-4.01,14.47-3.83,21.58
			c0.88,35.33-0.19,70.57-13.21,105.49c-1.82,4.89-1.29,11.01-3.36,15.77c2.76,3.84,12.76,4.62,20.5,7.99
			c6.63,2.89,11.78,9.37,18.31,13.61c27.19,17.65,50.68,22.58,71.03,20.3c36.73-4.11,72.97-22.11,118.1-53.92
			c9.29-6.55,22.72-4.5,32.41-8.5c10.1-4.17,15.78-13.76,21.15-19.37c4.08-4.26,9.87-10.16,12.53-19.2
			c2.5-8.48,1.59-19.99,6.59-28.82c4.77-8.42,13.1-14.48,18.68-21.66c7.71-9.93,18.98-18.19,21.02-27.25
			c8.49-37.74,0.12-79.79-15.18-120.91c-3.17-8.52-4.44-17.54-6.37-25.93c-2.97-12.89-4.58-25.83-10.82-32.95
			c-23.85-27.21-52.68-49.4-82.58-66.71c-16.92,12.34-37.95,23.7-59.09,26.87c-5.05,0.76-12-1.07-18.29,1.05
			c-13.76,4.62-28.95,13.91-46.14,10.29c-34.77-7.31-60.09-33.56-82.53-55.42c-5.25-5.12-33.88-32.56-31.89-60.78
			c0.81-11.47,10.51-19.37,19.71-26.09c16.5-12.06,33.04-4.38,43.84,1.19c2.65,1.37,7.25,0.43,8.8,0.83
			c55.81,9.44,105.49,29.11,150.08,49.87c2.13,0.99,6.56,2.06,8.66,3.08c3.57-6.17,1.16-14.11,0.95-20.01
			c-0.46-12.79-12.36-24.42-26.23-38.21c-6.59-6.55-14.4-12.79-20.32-20.05c-7.15-8.78-8.85-21.19-13.86-30.73
			c-6.39-12.18-15.13-20.13-23.02-24.54c-16.29-9.11-37.66-11.51-61.88-8.98c-11.64,1.22-23.49,2.67-35.35,2.67
			c-0.06,0-0.11-1.73-0.16-1.73c-14.67-0.01-29.34,1.53-43.53-0.21c-24.6-3.01-48.31-7.3-67.85-0.65
			c-38.21,12.99-66.08,51.01-94.23,85.82c-6.4,7.91-11.55,17.37-18.19,25.18c-2.48,2.92-2.8,2.65-5.28,5.57
			c-52.47,61.66-107.96,123.99-130.32,199.01c-19.93,66.85-13.79,143.62,14.58,233.3c30.02-27.28,60.62-45.14,97.47-52.34
			c16.66-3.26,21.96-15.78,33.49-3.33c11.53,12.45-7.12,15.19-11.64,31.55c-2.63,9.53-2.24,19.14-3.9,28.62
			c-2.84,16.28-6.98,32.28-15.45,50.8c-6.66,14.56-19.57,18.9-29.09,22.41c-2.87,1.06-6.81,3.46-8.15,4.41
			c-11.47,8.05-24.47,11.17-36.85,13.28c-16.23,2.76-28.56,0.39-39.99-8.16c-0.76,1.82-4.95,5.72-5.72,7.58
			c-5.96,14.43-12.56,28.36-22.72,41.65c-6.45,8.42-14.37,15.54-21.67,23.2c-6.97,7.31-11.53,16.89-16.94,23.94
			c3.55,1.13,9.35,0.43,12.17,2.75c11.38,9.37,17.42,15.35,22.21,14.07c4.71-1.24,13.08-3.11,19.16-7.87
			c8.98-7.04,18.54-18.35,31.61-21.8c11.33,17.68,7.44,20.52,10.43,41.31c-4.71,1.24-13.66,4.21-19.73,8.97
			c-8.98,7.04-17.42,17.48-30.49,20.93C581.81,1015.41,577.57,1015.8,573.54,1015.8z M628.97,825.16c0.61,1.53,1.08,2.62,1.92,3.34
			c4.83,4.15,20.78,3.69,32.35-4.43c5.81-4.08,9.39-11.2,14.98-13.26c2.43-0.9,3.87-1.82,5.65-2.77
			c5.13-11.76,9.86-19.13,12.1-31.78C671.49,786.73,649.63,801.38,628.97,825.16z M893.53,570.36c-5.71,36.5-7.25,71.46-4.13,104.63
			c2.17,23.08,6.24,48.43,12.66,68.76c2.65-19.55,0.48-43.95-0.06-65.61c-0.18-7.29-1.5-14.86-1.55-22.3
			c-0.02-2.91,0.59-2.92,0.58-5.83C900.86,621.46,903.35,592.32,893.53,570.36z M964.67,351.66c2.91,5.01,6.93,10.69,12.2,15.83
			c19.23,18.74,38.43,41.6,61.25,46.4c6.01,1.26,15.13-7.14,24.65-10.33c7.74-2.6,15.9-6.48,24.6-7.78
			c7.2-1.08,13.18,2.32,19.36-0.05c-44.42-19-88.37-32.5-126.46-38.93C974.61,355.84,969.5,354.04,964.67,351.66z"/>
		<path class="st2" d="M573.54,1015.8c-20.28,0-37.48-12.71-46.51-19.96c-2.16-0.11-6.37-3.26-7.68-2.82
			c0.69-0.23,1.94,1.01,3.58-0.6c-0.08-0.06,3.47-0.98,3.39-1.04c0.08,0.06-3.68,0.46-3.6,0.52c1.32-1.3,4.42-1.54,5.43-3.95
			c-19.83-5.89-26.98,6.8-41.32-8.11c1.67-30.93,22.81-55.58,41.79-75.49c6.82-7.16,17.49-10.45,22.55-17.07
			c6.81-8.9,12.12-21.53,17.27-34c5.27-12.75,8.49-26.56,16.67-38.59c-0.19-1.64-4.67-3.62-4.84-5.19
			c-0.75-6.94,2.94-14.25,1.43-18.92c-32-99.31-36.51-187.32-13.86-263.3c24.89-83.5,82.5-149.46,137.79-214.43
			c2.48-2.91,2.98-2.49,5.45-5.4c6.3-7.41,9.03-17.91,15.56-25.98c31.91-39.45,65.04-81.9,114.75-98.8
			c28.63-9.73,58.45-2.34,86.65,1.11c13.54,1.66,26.51,3.19,38.63,3.2c0.04,0,0.09-2.58,0.13-2.58c9.67,0,20.15,0.47,31.2-0.69
			c28.29-2.96,59.76-5.66,87.68,9.96c18.77,10.5,27.47,28.77,36.01,45.05c4.23,8.07,9.1,15.43,13.58,20.94
			c4.52,5.55,10.02,11.65,16.11,17.69c18.16,18.04,38.44,37.61,39.5,66.98c0.5,13.95-0.48,26.56-7.5,39.09
			c32.84,20,60.88,43.71,84.32,70.46c13.21,15.07,19.7,33.97,23.52,50.55c1.71,7.41-0.63,15.44,1.59,21.4
			c18.16,48.77,20.16,97.71,9.87,143.41c-4.09,18.19-12.9,32.43-22.62,44.95c-4.87,6.27-6.73,13.91-9.99,19.68
			c-2.62,4.63-8.5,9.48-10.53,16.4c-3.78,12.83-7.48,26.59-18.63,38.23c-11.5,12.01-24.78,19.62-37.83,25
			c-7.9,3.26-16.98,4-22.43,7.85c-51.14,36.06-94.22,54.67-138.26,59.6c-30.39,3.39-61.89-4.01-97.56-27.16
			c-3.62-2.35-9.64-2.43-14.94-4.73c-6.7-2.92-14.38-8.59-21.41-13.31c-18.09,30.89-37.77,61.26-59.21,89.14
			c-8,10.41-17.13,18.44-24.95,29.02c-19.85-6.87-23.86-5-36.1-22.06c8.05-10.89,18.85-22.58,26.98-33.15
			c24.17-31.44,46.08-64.18,64.1-98.8c-18.34-35.77-27.59-76.36-31.79-120.97c-4.36-46.39-3.13-96.48,8.02-147.88
			c1.56-7.17,1.34-7.46,6.73-12.44c5.39-4.99,5.56-5.39,12.84-6.39c0.96-0.13,2.63,4.89,3.51,4.75c7.71-1.23,24.31-8.15,36.76,5
			c32.19,34.01,27.75,87.12,27.98,127.82c0.02,2.88,5.04,2.85,5.05,5.72c0.05,7.06-4.01,14.47-3.83,21.58
			c0.88,35.33-0.19,70.57-13.21,105.49c-1.82,4.89-1.29,11.01-3.36,15.77c2.76,3.84,12.76,4.62,20.5,7.99
			c6.63,2.89,11.78,9.37,18.31,13.61c27.19,17.65,50.68,22.58,71.03,20.3c36.73-4.11,72.97-22.11,118.1-53.92
			c9.29-6.55,22.72-4.5,32.41-8.5c10.1-4.17,15.78-13.76,21.15-19.37c4.08-4.26,9.87-10.16,12.53-19.2
			c2.5-8.48,1.59-19.99,6.59-28.82c4.77-8.42,13.1-14.48,18.68-21.66c7.71-9.93,18.98-18.19,21.02-27.25
			c8.49-37.74,0.12-79.79-15.18-120.91c-3.17-8.52-4.44-17.54-6.37-25.93c-2.97-12.89-4.58-25.83-10.82-32.95
			c-23.85-27.21-52.68-49.4-82.58-66.71c-16.92,12.34-37.95,23.7-59.09,26.87c-5.05,0.76-12-1.07-18.29,1.05
			c-13.76,4.62-28.95,13.91-46.14,10.29c-34.77-7.31-60.09-33.56-82.53-55.42c-5.25-5.12-33.88-32.56-31.89-60.78
			c0.81-11.47,10.51-19.37,19.71-26.09c16.5-12.06,33.04-4.38,43.84,1.19c2.65,1.37,7.25,0.43,8.8,0.83
			c55.81,9.44,105.49,29.11,150.08,49.87c2.13,0.99,6.56,2.06,8.66,3.08c3.57-6.17,1.16-14.11,0.95-20.01
			c-0.46-12.79-12.36-24.42-26.23-38.21c-6.59-6.55-14.4-12.79-20.32-20.05c-7.15-8.78-8.85-21.19-13.86-30.73
			c-6.39-12.18-15.13-20.13-23.02-24.54c-16.29-9.11-37.66-11.51-61.88-8.98c-11.64,1.22-23.49,2.67-35.35,2.67
			c-0.06,0-0.11-1.73-0.16-1.73c-14.67-0.01-29.34,1.53-43.53-0.21c-24.6-3.01-48.31-7.3-67.85-0.65
			c-38.21,12.99-66.08,51.01-94.23,85.82c-6.4,7.91-11.55,17.37-18.19,25.18c-2.48,2.92-2.8,2.65-5.28,5.57
			c-52.47,61.66-107.96,123.99-130.32,199.01c-19.93,66.85-13.79,143.62,14.58,233.3c30.02-27.28,60.62-45.14,97.47-52.34
			c16.66-3.26,21.96-15.78,33.49-3.33c11.53,12.45-7.12,15.19-11.64,31.55c-2.63,9.53-2.24,19.14-3.9,28.62
			c-2.84,16.28-6.98,32.28-15.45,50.8c-6.66,14.56-19.57,18.9-29.09,22.41c-2.87,1.06-6.81,3.46-8.15,4.41
			c-11.47,8.05-24.47,11.17-36.85,13.28c-16.23,2.76-28.56,0.39-39.99-8.16c-0.76,1.82-4.95,5.72-5.72,7.58
			c-5.96,14.43-12.56,28.36-22.72,41.65c-6.45,8.42-14.37,15.54-21.67,23.2c-6.97,7.31-11.53,16.89-16.94,23.94
			c3.55,1.13,9.35,0.43,12.17,2.75c11.38,9.37,17.42,15.35,22.21,14.07c4.71-1.24,13.08-3.11,19.16-7.87
			c8.98-7.04,18.54-18.35,31.61-21.8c11.33,17.68,7.44,20.52,10.43,41.31c-4.71,1.24-13.66,4.21-19.73,8.97
			c-8.98,7.04-17.42,17.48-30.49,20.93C581.81,1015.41,577.57,1015.8,573.54,1015.8z M628.97,825.16c0.61,1.53,1.08,2.62,1.92,3.34
			c4.83,4.15,20.78,3.69,32.35-4.43c5.81-4.08,9.39-11.2,14.98-13.26c2.43-0.9,3.87-1.82,5.65-2.77
			c5.13-11.76,9.86-19.13,12.1-31.78C671.49,786.73,649.63,801.38,628.97,825.16z M893.53,570.36c-5.71,36.5-7.25,71.46-4.13,104.63
			c2.17,23.08,6.24,48.43,12.66,68.76c2.65-19.55,0.48-43.95-0.06-65.61c-0.18-7.29-1.5-14.86-1.55-22.3
			c-0.02-2.91,0.59-2.92,0.58-5.83C900.86,621.46,903.35,592.32,893.53,570.36z M964.67,351.66c2.91,5.01,6.93,10.69,12.2,15.83
			c19.23,18.74,38.43,41.6,61.25,46.4c6.01,1.26,15.13-7.14,24.65-10.33c7.74-2.6,15.9-6.48,24.6-7.78
			c7.2-1.08,13.18,2.32,19.36-0.05c-44.42-19-88.37-32.5-126.46-38.93C974.61,355.84,969.5,354.04,964.67,351.66z"/>
	</g>
	<g>
		<path class="st1" d="M549.33,801.5c-6.64,0-15.49-3.96-21.08-12.31c-1.58-2.36-1.46-5.72-2.57-8
			c-26.43-11.83-44.43-33.68-51.31-58.73c-7.85-28.58-11.53-57.19-11.09-85.21c0.18-11.35,6.14-22.14,5.79-32.78
			c-0.32-9.5-5.16-20.26-7.33-31.69c-1.25-6.57-2.57-14.7-3.57-21.75c-45.14-5.35-87.27-22.97-126.39-43.89
			c-14.74-7.88-28.41-15.47-42.55-22.07c-5.69-2.66-13.22-3.35-22.18-4.18c-11.78-1.08-25.8-3.02-38.28-9
			c-7.88-3.78-13.05-11.82-19.64-16.91c-0.95,0.09-3.66-1.38-4.25-1.21c-10.61,3.09-18.78,15.38-30.14,22.23
			c-13.16,7.94-28.24,14.01-44.11,18.62c-24.25,7.06-48.95,1.45-70.79-1.56c-5.77-0.79-14.62,0.14-20.01-0.44
			c-0.48-20.99-0.68-22.28,4.5-42.63c6.04,0.64,15.37,0.85,21.21,1.65c19.4,2.67,36.92,4.54,52.58-0.01
			c10.61-3.09,22.45-6.63,33.8-13.48c7.13-4.3,13.3-9.8,20.98-13.65c-4.16-3.87-9.42-4.98-13.65-8.19
			C84.56,359.71,62.22,313.38,51.43,284.84c-3.43-9.08-1.53-20.68,5.58-28.25c2.52-2.68,6.15-3.81,8.56-5.5
			c0.35-2.35-0.5-5.31,0.42-8.05c3.18-9.49,12.45-14.94,21.68-16.12c6.97-0.89,14.41,0.54,21.16-0.62
			c17.57-3.01,35.3-9.89,55.82-8.31c2.88,0.22,6.45-1.3,10.37-1.44c12.97-0.45,32.55-0.82,46.39,11.45
			C261.9,263.92,279,328.91,266.7,398.1c0.14,1.42-0.92,4.07-0.41,6.15c1.94,7.9,2.94,19.77-2.52,31.09
			c1.81,0.19,5.61-0.58,7.49-0.41c11.59,1.06,24.38,4.24,36.71,10c15.17,7.09,31.6,12.55,46.19,20.35
			c35.84,19.17,69.04,41.25,104.78,46.5c3.03-11.46,8.89-23.84,19.95-32.72c12.91-10.36,26.54-18.88,40.61-25.13
			c11.79-5.23,21.4-8.18,29.95-14.8c-8.05-23.95-13.94-48.16-27.58-68.7c-36.45-54.88-88.57-99.35-132.08-136.92
			c-4.74-20.46,7.95-37.15,28.84-34.96c45.67,39.43,99.49,89.2,138.75,148.29c11.06,16.65,19.95,34.11,27.33,52.28
			c3.79-3.43,7-2.46,12.02-4.84c18.68-8.84,37.11-6.59,54.59-4.65c8.46,0.94,16.84,1.18,23.56,0.69c5.82-0.42,12.95-2.54,20.31-4.31
			c17.26-4.17,38.56-10.91,58.64-1.41c14.49,6.85,27.47,19.01,33.4,36.19c4.45,12.9,3.73,29.06,2.09,44.05
			c-1.76,16.06-7.26,32.13-16.14,44.75c-10.71,15.22-25.04,26.9-41.49,30.45c-19.21,4.14-37.74-4.02-53.77-9.24
			c-9.68-3.15-18.88-6.26-26.37-6.44c-9.47-0.23-20.44,0.48-30.13,1.86c5.06,14.97,12.33,30.95,12.29,47.83
			c-0.18,69.7-24.03,137.64-63.81,192.63c0.46,1.78-0.02,3.96,0.25,5.87c2.03,14.11-4.61,23.44-12.2,26.42
			C555.52,799.93,552.31,801.5,549.33,801.5z M500.9,554.31c0.66,3.93,2.57,5.9,3.42,10.36c2.38,12.5,3.27,25.73,3.7,38.48
			c0.39,11.68-1.4,23.41-1.58,34.77c-0.41,26.23,3.29,50.31,9.55,73.1c3.12,11.37,11.38,24.57,23.63,31.41
			c33.71-47.52,50.52-108.45,50.67-168.49c0.03-12.32-3.11-25.96-7.87-39.45c-4.17,1.04-8.69,5.84-12.94,6.93
			C547.23,547.12,524.22,551.91,500.9,554.31z M564.41,483.22c-8.79,5.09-17.34,8.72-26.29,12.69
			c-10.41,4.62-20.97,7.37-29.03,12.89c16-2.6,32.71-5.23,49.6-9.56c3.2-0.82,5.28-5.67,8.51-6.48c-0.04-0.14,3.73,1.5,3.69,1.36
			C569.73,489.59,565.62,487.79,564.41,483.22z M648.15,480.71c1.46,0,2.95,0.29,4.42,0.33c13.63,0.33,26.15,6.01,38.28,9.95
			c12.05,3.92,23.71,9.2,31.85,7.44c10.75-2.32,19.86-17.43,22.16-38.46c1.65-15.06,2.13-35.3-7.77-39.98
			c-6.69-3.16-20.49,2.31-32.45,5.2c-8.69,2.1-17.68,3.29-26.97,3.96c-10.54,0.76-21.09,3.96-31.05,2.86
			c-13.09-1.45-23.91-3.31-31.83,0.44c-4.34,2.05-8.26,8.38-13.01,15.55c-0.31,0.46-0.76-1.06-1.07-0.59
			c3.59,12.25,3.02,25.47,6.11,37.55c0.15,0.59,2.44,3.93,2.6,4.53C622.28,487.29,634.94,480.71,648.15,480.71z M98.46,280.27
			c20.71,43.82,59.74,76.9,88.88,98.98c9.5,7.2,16.97,16.65,25.11,24.54c3.69,3.58,6.33,8.36,9.95,11.69
			c0.64-0.01-0.42-0.82,0.21-0.83c-1.61-6.56,2.11-14.56,3.65-23.07c4.59-25.42,1.72-51.2-3.11-73.38
			c-5.25-24.09-15.15-44.13-30.42-57.71c-2.27-1.2-11.5,3.15-16.09,3.31c-4.9,0.17-10.29,0.1-15.52-0.3
			c-15.33-1.18-28.85,1.05-45.27,3.86c-3.08,0.53-5.15-0.04-8.33,0.48c-0.97,3.63-5.45,4.82-8.5,8.36
			C97.85,277.58,99.75,279.19,98.46,280.27z M264.63,395.44l-1.7,1.97C262.93,396.43,264.63,395.44,264.63,395.44z"/>
		<path class="st2" d="M549.33,801.5c-6.64,0-15.49-3.96-21.08-12.31c-1.58-2.36-1.46-5.72-2.57-8
			c-26.43-11.83-44.43-33.68-51.31-58.73c-7.85-28.58-11.53-57.19-11.09-85.21c0.18-11.35,6.14-22.14,5.79-32.78
			c-0.32-9.5-5.16-20.26-7.33-31.69c-1.25-6.57-2.57-14.7-3.57-21.75c-45.14-5.35-87.27-22.97-126.39-43.89
			c-14.74-7.88-28.41-15.47-42.55-22.07c-5.69-2.66-13.22-3.35-22.18-4.18c-11.78-1.08-25.8-3.02-38.28-9
			c-7.88-3.78-13.05-11.82-19.64-16.91c-0.95,0.09-3.66-1.38-4.25-1.21c-10.61,3.09-18.78,15.38-30.14,22.23
			c-13.16,7.94-28.24,14.01-44.11,18.62c-24.25,7.06-48.95,1.45-70.79-1.56c-5.77-0.79-14.62,0.14-20.01-0.44
			c-0.48-20.99-0.68-22.28,4.5-42.63c6.04,0.64,15.37,0.85,21.21,1.65c19.4,2.67,36.92,4.54,52.58-0.01
			c10.61-3.09,22.45-6.63,33.8-13.48c7.13-4.3,13.3-9.8,20.98-13.65c-4.16-3.87-9.42-4.98-13.65-8.19
			C84.56,359.71,62.22,313.38,51.43,284.84c-3.43-9.08-1.53-20.68,5.58-28.25c2.52-2.68,6.15-3.81,8.56-5.5
			c0.35-2.35-0.5-5.31,0.42-8.05c3.18-9.49,12.45-14.94,21.68-16.12c6.97-0.89,14.41,0.54,21.16-0.62
			c17.57-3.01,35.3-9.89,55.82-8.31c2.88,0.22,6.45-1.3,10.37-1.44c12.97-0.45,32.55-0.82,46.39,11.45
			C261.9,263.92,279,328.91,266.7,398.1c0.14,1.42-0.92,4.07-0.41,6.15c1.94,7.9,2.94,19.77-2.52,31.09
			c1.81,0.19,5.61-0.58,7.49-0.41c11.59,1.06,24.38,4.24,36.71,10c15.17,7.09,31.6,12.55,46.19,20.35
			c35.84,19.17,69.04,41.25,104.78,46.5c3.03-11.46,8.89-23.84,19.95-32.72c12.91-10.36,26.54-18.88,40.61-25.13
			c11.79-5.23,21.4-8.18,29.95-14.8c-8.05-23.95-13.94-48.16-27.58-68.7c-36.45-54.88-88.57-99.35-132.08-136.92
			c-4.74-20.46,7.95-37.15,28.84-34.96c45.67,39.43,99.49,89.2,138.75,148.29c11.06,16.65,19.95,34.11,27.33,52.28
			c3.79-3.43,7-2.46,12.02-4.84c18.68-8.84,37.11-6.59,54.59-4.65c8.46,0.94,16.84,1.18,23.56,0.69c5.82-0.42,12.95-2.54,20.31-4.31
			c17.26-4.17,38.56-10.91,58.64-1.41c14.49,6.85,27.47,19.01,33.4,36.19c4.45,12.9,3.73,29.06,2.09,44.05
			c-1.76,16.06-7.26,32.13-16.14,44.75c-10.71,15.22-25.04,26.9-41.49,30.45c-19.21,4.14-37.74-4.02-53.77-9.24
			c-9.68-3.15-18.88-6.26-26.37-6.44c-9.47-0.23-20.44,0.48-30.13,1.86c5.06,14.97,12.33,30.95,12.29,47.83
			c-0.18,69.7-24.03,137.64-63.81,192.63c0.46,1.78-0.02,3.96,0.25,5.87c2.03,14.11-4.61,23.44-12.2,26.42
			C555.52,799.93,552.31,801.5,549.33,801.5z M500.9,554.31c0.66,3.93,2.57,5.9,3.42,10.36c2.38,12.5,3.27,25.73,3.7,38.48
			c0.39,11.68-1.4,23.41-1.58,34.77c-0.41,26.23,3.29,50.31,9.55,73.1c3.12,11.37,11.38,24.57,23.63,31.41
			c33.71-47.52,50.52-108.45,50.67-168.49c0.03-12.32-3.11-25.96-7.87-39.45c-4.17,1.04-8.69,5.84-12.94,6.93
			C547.23,547.12,524.22,551.91,500.9,554.31z M564.41,483.22c-8.79,5.09-17.34,8.72-26.29,12.69
			c-10.41,4.62-20.97,7.37-29.03,12.89c16-2.6,32.71-5.23,49.6-9.56c3.2-0.82,5.28-5.67,8.51-6.48c-0.04-0.14,3.73,1.5,3.69,1.36
			C569.73,489.59,565.62,487.79,564.41,483.22z M648.15,480.71c1.46,0,2.95,0.29,4.42,0.33c13.63,0.33,26.15,6.01,38.28,9.95
			c12.05,3.92,23.71,9.2,31.85,7.44c10.75-2.32,19.86-17.43,22.16-38.46c1.65-15.06,2.13-35.3-7.77-39.98
			c-6.69-3.16-20.49,2.31-32.45,5.2c-8.69,2.1-17.68,3.29-26.97,3.96c-10.54,0.76-21.09,3.96-31.05,2.86
			c-13.09-1.45-23.91-3.31-31.83,0.44c-4.34,2.05-8.26,8.38-13.01,15.55c-0.31,0.46-0.76-1.06-1.07-0.59
			c3.59,12.25,3.02,25.47,6.11,37.55c0.15,0.59,2.44,3.93,2.6,4.53C622.28,487.29,634.94,480.71,648.15,480.71z M98.46,280.27
			c20.71,43.82,59.74,76.9,88.88,98.98c9.5,7.2,16.97,16.65,25.11,24.54c3.69,3.58,6.33,8.36,9.95,11.69
			c0.64-0.01-0.42-0.82,0.21-0.83c-1.61-6.56,2.11-14.56,3.65-23.07c4.59-25.42,1.72-51.2-3.11-73.38
			c-5.25-24.09-15.15-44.13-30.42-57.71c-2.27-1.2-11.5,3.15-16.09,3.31c-4.9,0.17-10.29,0.1-15.52-0.3
			c-15.33-1.18-28.85,1.05-45.27,3.86c-3.08,0.53-5.15-0.04-8.33,0.48c-0.97,3.63-5.45,4.82-8.5,8.36
			C97.85,277.58,99.75,279.19,98.46,280.27z M264.63,395.44l-1.7,1.97C262.93,396.43,264.63,395.44,264.63,395.44z"/>
	</g>
	<g>
		<path class="st1" d="M1827.44,1017.27c-19.69,7.3-32.1-10.16-28.99-30.93c42.64-47.64,38.46-121.98,39.58-193.32
			c0.21-13.53-1.09-27.63-0.58-41.1c0.82-21.41,7.02-42.99,9.3-64.04c4.92-45.38,6.1-87.56-3.31-127.47
			c-3.47,0.03-4.99,2.04-8.78,1.16c-4.6-1.07-6.28-3.54-9.67-5.77c-11.15,10.32-26.76,17.59-36.06,29.53
			c-20.62,83.8-38.14,171.19-81.31,248.46c-0.54,0.97-0.88,3.55-1.76,5.66c-4.88,11.69-14.95,26.03-31.26,30
			c-8.99,2.19-11.25,11.88-19.44,7.58c-8.19-4.3,2.29-13.12-1.01-21.76c-11.07-28.95-4.98-57.66,5.55-83.73
			c3.24-8.03,4.69-15.93,6.8-22.82c17.46-57.04,47.43-122.47,89.51-179.41c2.84-11.66,1.13-25.3,3.96-37.12
			c5.85-24.42,17.42-48.29,23.81-73.11c3.81-14.78-3.08-32.25-4.55-50.19c-1.02-12.39,1.41-25.37,2-38.38
			c0.57-12.5,2.79-24.31,5.61-35.74c3.33-13.49,5.6-26.16,3.77-36.57c-0.58-3.28-7.39-7.54-11.32-12.54
			c-6.71-8.54-11.7-22.02-14.62-34.38c-8.41,12.76-13.77,29.42-22.47,41.48c-22.71,31.49-50.03,57.93-61.27,91.94
			c-4.32,13.08-2.52,26.87-5.19,39.76c2.24,30.37,0.96,60.43,0.43,91.48c-0.22,12.74-2.4,26.25-2.42,39.42
			c-19.25,8.1-25.32,16.91-41.53,3.74c-9.75-46.02-6.85-90.71,1.88-136.67c-1.63-18.92-10.09-37.68-14.88-56.73
			c-5.94-23.64-24.67-42.13-44.51-63.17c-2.88-3.05-0.7-10.78-3.51-13.81c-37.66-40.66-61.66-36.37-68.62-33.17
			c-17,7.82-19.15,38.72-22.98,66.92c-0.99,7.3-1.29,15.02-2.55,22.1c-14.12,78.81-20.54,159.78-17.99,241.39
			c0.29,9.25-1.01,18.79-0.5,28.04c12.75,14.35,25.75,27.84,35.95,41.58c23.32,31.45,34.66,62.65,44.99,90.68
			c13.64,37.01,20.15,70.47,11.43,102.15c-1.47,5.33-7.42,10.71-20.94,14.91c-4.8,1.49-7.99,8.84-12.17,9.24
			c-1.47,0.14-3.36-1.05-4.37-0.86c-12.39,5.08-25.89,1.08-38.08-5.07c-12.96-6.54-22.57-16.48-25.88-30.58
			c-15.86-67.51-23.92-137.04-28.52-205.76c-24.85-26.03-58.14-46.74-93.17-58.61c-62.11-21.04-132.21-14.72-198.3,1.67
			c-63.34,15.71-133.28,40.4-172.72,92.11c-19.76,7.12-38.69-2.74-35.39-23.48c47.33-62.05,128.92-86.47,199.35-103.94
			c29.75-7.38,68.73-17.11,108.75-19.91c42.3-2.97,80.15-2.63,113.51,8.67c27.61,9.35,53.67,28.34,75.2,45.76
			c-1.47-79.26,2.64-158.96,16.36-235.6c1.11-6.21,3.3-12.85,4.27-20.04c4.86-35.74,10.15-77.9,48.1-95.36
			c41.98-19.32,82.23,11.91,110.7,42.66c2.72,2.94,4.39,6.94,7.18,9.89c18.31,19.42,41.12,39.09,52.14,66.09
			c13.35-26.6,31.57-50.4,48.52-73.9c13.19-18.29,25.72-35.65,36.39-53.97c10.07-17.29,2.62-23.88,19.84-34.07
			c8.43-4.99-1.02,11.46,5.72,18.58c5.93-2.67,16.2-8.8,24.39-5.92c4.07,1.43,19.46,10.42,19.87,29.46
			c0.12,5.7-7.17,10.95-8.09,16.03c-0.39,2.13,5.55,5.2,5.42,6.76c1.02,3.4-0.23,11.68,3.45,16.37
			c7.19,9.14,16.07,17.89,18.47,31.57c3.36,19.15,3.67,38.14-0.36,54.47c-2.44,9.88-11.73,18.26-12.11,26.62
			c-0.47,10.34,5.41,21.37,6.36,32.95c1.69,20.61,4.84,42.69-0.73,64.32c-3.44,13.33-7.54,25.61-10.82,39.07
			c6.59-2.88,13.97-5.48,21.39-2.2c4.13,1.83,6.68,6.83,9.74,9.01c0.57,0.4,0.09,3.95,0.74,4.39c0.86-0.01,2.43-5.63,3.2-5.65
			c3.9-0.1,8.96,2.48,13.84,3.41c15.26,2.91,18.09,15.02,19.48,19.57c15.67,51.12,9.82,103.55,4.24,155.04
			c-2.31,21.27,1.64,41.73,0.88,61.67c-0.5,13.01-9.12,25.92-9.34,39.84C1876.29,869.01,1880.54,957.96,1827.44,1017.27z
			 M1464.74,693.28c5.42,45.95,10.75,88.96,21.37,134.17c0.46,1.95,6.14,1.26,7.95,2.18c1.35,0.68,0.55-0.67,1.71-1.17
			c5.18-2.22,12.31,0.31,17.08-0.17C1519.58,789.63,1502.53,746.58,1464.74,693.28z"/>
		<path class="st2" d="M1827.44,1017.27c-19.69,7.3-32.1-10.16-28.99-30.93c42.64-47.64,38.46-121.98,39.58-193.32
			c0.21-13.53-1.09-27.63-0.58-41.1c0.82-21.41,7.02-42.99,9.3-64.04c4.92-45.38,6.1-87.56-3.31-127.47
			c-3.47,0.03-4.99,2.04-8.78,1.16c-4.6-1.07-6.28-3.54-9.67-5.77c-11.15,10.32-26.76,17.59-36.06,29.53
			c-20.62,83.8-38.14,171.19-81.31,248.46c-0.54,0.97-0.88,3.55-1.76,5.66c-4.88,11.69-14.95,26.03-31.26,30
			c-8.99,2.19-11.25,11.88-19.44,7.58c-8.19-4.3,2.29-13.12-1.01-21.76c-11.07-28.95-4.98-57.66,5.55-83.73
			c3.24-8.03,4.69-15.93,6.8-22.82c17.46-57.04,47.43-122.47,89.51-179.41c2.84-11.66,1.13-25.3,3.96-37.12
			c5.85-24.42,17.42-48.29,23.81-73.11c3.81-14.78-3.08-32.25-4.55-50.19c-1.02-12.39,1.41-25.37,2-38.38
			c0.57-12.5,2.79-24.31,5.61-35.74c3.33-13.49,5.6-26.16,3.77-36.57c-0.58-3.28-7.39-7.54-11.32-12.54
			c-6.71-8.54-11.7-22.02-14.62-34.38c-8.41,12.76-13.77,29.42-22.47,41.48c-22.71,31.49-50.03,57.93-61.27,91.94
			c-4.32,13.08-2.52,26.87-5.19,39.76c2.24,30.37,0.96,60.43,0.43,91.48c-0.22,12.74-2.4,26.25-2.42,39.42
			c-19.25,8.1-25.32,16.91-41.53,3.74c-9.75-46.02-6.85-90.71,1.88-136.67c-1.63-18.92-10.09-37.68-14.88-56.73
			c-5.94-23.64-24.67-42.13-44.51-63.17c-2.88-3.05-0.7-10.78-3.51-13.81c-37.66-40.66-61.66-36.37-68.62-33.17
			c-17,7.82-19.15,38.72-22.98,66.92c-0.99,7.3-1.29,15.02-2.55,22.1c-14.12,78.81-20.54,159.78-17.99,241.39
			c0.29,9.25-1.01,18.79-0.5,28.04c12.75,14.35,25.75,27.84,35.95,41.58c23.32,31.45,34.66,62.65,44.99,90.68
			c13.64,37.01,20.15,70.47,11.43,102.15c-1.47,5.33-7.42,10.71-20.94,14.91c-4.8,1.49-7.99,8.84-12.17,9.24
			c-1.47,0.14-3.36-1.05-4.37-0.86c-12.39,5.08-25.89,1.08-38.08-5.07c-12.96-6.54-22.57-16.48-25.88-30.58
			c-15.86-67.51-23.92-137.04-28.52-205.76c-24.85-26.03-58.14-46.74-93.17-58.61c-62.11-21.04-132.21-14.72-198.3,1.67
			c-63.34,15.71-133.28,40.4-172.72,92.11c-19.76,7.12-38.69-2.74-35.39-23.48c47.33-62.05,128.92-86.47,199.35-103.94
			c29.75-7.38,68.73-17.11,108.75-19.91c42.3-2.97,80.15-2.63,113.51,8.67c27.61,9.35,53.67,28.34,75.2,45.76
			c-1.47-79.26,2.64-158.96,16.36-235.6c1.11-6.21,3.3-12.85,4.27-20.04c4.86-35.74,10.15-77.9,48.1-95.36
			c41.98-19.32,82.23,11.91,110.7,42.66c2.72,2.94,4.39,6.94,7.18,9.89c18.31,19.42,41.12,39.09,52.14,66.09
			c13.35-26.6,31.57-50.4,48.52-73.9c13.19-18.29,25.72-35.65,36.39-53.97c10.07-17.29,2.62-23.88,19.84-34.07
			c8.43-4.99-1.02,11.46,5.72,18.58c5.93-2.67,16.2-8.8,24.39-5.92c4.07,1.43,19.46,10.42,19.87,29.46
			c0.12,5.7-7.17,10.95-8.09,16.03c-0.39,2.13,5.55,5.2,5.42,6.76c1.02,3.4-0.23,11.68,3.45,16.37
			c7.19,9.14,16.07,17.89,18.47,31.57c3.36,19.15,3.67,38.14-0.36,54.47c-2.44,9.88-11.73,18.26-12.11,26.62
			c-0.47,10.34,5.41,21.37,6.36,32.95c1.69,20.61,4.84,42.69-0.73,64.32c-3.44,13.33-7.54,25.61-10.82,39.07
			c6.59-2.88,13.97-5.48,21.39-2.2c4.13,1.83,6.68,6.83,9.74,9.01c0.57,0.4,0.09,3.95,0.74,4.39c0.86-0.01,2.43-5.63,3.2-5.65
			c3.9-0.1,8.96,2.48,13.84,3.41c15.26,2.91,18.09,15.02,19.48,19.57c15.67,51.12,9.82,103.55,4.24,155.04
			c-2.31,21.27,1.64,41.73,0.88,61.67c-0.5,13.01-9.12,25.92-9.34,39.84C1876.29,869.01,1880.54,957.96,1827.44,1017.27z
			 M1464.74,693.28c5.42,45.95,10.75,88.96,21.37,134.17c0.46,1.95,6.14,1.26,7.95,2.18c1.35,0.68,0.55-0.67,1.71-1.17
			c5.18-2.22,12.31,0.31,17.08-0.17C1519.58,789.63,1502.53,746.58,1464.74,693.28z"/>
	</g>
</g>
</svg>
