<?xml version="1.0" encoding="utf-8"?>
<!-- Generator: Adobe Illustrator 28.1.0, SVG Export Plug-In . SVG Version: 6.00 Build 0)  -->
<svg version="1.1" id="Layer_1" xmlns="http://www.w3.org/2000/svg" xmlns:xlink="http://www.w3.org/1999/xlink" x="0px" y="0px"
	 viewBox="0 0 1920 1080" style="enable-background:new 0 0 1920 1080;" xml:space="preserve">
<style type="text/css">
	.st0{opacity:0.9;}
	.st1{fill:#BFB326;}
	.st2{fill:none;stroke:#8B8332;stroke-width:3;stroke-miterlimit:10;}
	.st3{fill:none;stroke:#8B8332;stroke-width:3.0861;stroke-miterlimit:10;}
	.st4{fill:#8B8332;}
</style>
<g class="st0">
	<g>
		<path class="st1" d="M957.02,361.41c-20.77-3.12-22.16,0.69-41.3-7.95c1.9-9.68,7.42-16.96,11.71-23.04
			c-0.24-0.1-0.95-0.88-1.19-0.99c-21.42-9.6-43,4.55-42.98-18.92c0.02-23.47,20.96-10.68,42.39-20.25
			c8.57-3.82,18.79-2.31,27.4,1.51c4.24-1.05,8.31-4.42,12.6-7.5c10.19-7.32,18.11-16.19,23.49-26.46c2.41-4.6,5.33-9.4,7.54-14.97
			c3.58-9,7.69-19.2,14.07-28.6c21.14-31.18,6.38-73.45,42.09-61.46c35.71,12-1.43,36.79-3.4,74.41c-0.07,1.32,0.4,2.61,0.27,3.56
			c-0.03,0.22-2.22,0.33-2.25,0.53c0.02-0.2,1.33-0.69,1.34-0.85c-7.42-0.47-10.81-6.81-13.86-0.02c-2.88,6.43,7.93,0.88,11.47,6.97
			c-3.8,5.6-8.57,12.92-11.62,20.6c-2.51,6.32-4.32,13.13-7.75,19.67c-8.4,16.05-21.33,29.74-36.8,40.86
			c-5.28,3.8-10.06,8.89-16.87,11.54c-1.15,6.36-3.2,12.68-7.53,19.01c-0.89,1.3-3.05,1.73-3.98,3.03
			C959.76,355.06,957.38,359.59,957.02,361.41z"/>
		<path class="st2" d="M957.02,361.41c-20.77-3.12-22.16,0.69-41.3-7.95c1.9-9.68,7.42-16.96,11.71-23.04
			c-0.24-0.1-0.95-0.88-1.19-0.99c-21.42-9.6-43,4.55-42.98-18.92c0.02-23.47,20.96-10.68,42.39-20.25
			c8.57-3.82,18.79-2.31,27.4,1.51c4.24-1.05,8.31-4.42,12.6-7.5c10.19-7.32,18.11-16.19,23.49-26.46c2.41-4.6,5.33-9.4,7.54-14.97
			c3.58-9,7.69-19.2,14.07-28.6c21.14-31.18,6.38-73.45,42.09-61.46c35.71,12-1.43,36.79-3.4,74.41c-0.07,1.32,0.4,2.61,0.27,3.56
			c-0.03,0.22-2.22,0.33-2.25,0.53c0.02-0.2,1.33-0.69,1.34-0.85c-7.42-0.47-10.81-6.81-13.86-0.02c-2.88,6.43,7.93,0.88,11.47,6.97
			c-3.8,5.6-8.57,12.92-11.62,20.6c-2.51,6.32-4.32,13.13-7.75,19.67c-8.4,16.05-21.33,29.74-36.8,40.86
			c-5.28,3.8-10.06,8.89-16.87,11.54c-1.15,6.36-3.2,12.68-7.53,19.01c-0.89,1.3-3.05,1.73-3.98,3.03
			C959.76,355.06,957.38,359.59,957.02,361.41z"/>
	</g>
	<g>
		<path class="st1" d="M394.47,514.67c-18.97,0-38.03-4.41-54.31-9.98c-2.82-0.96-5.22-1.82-7.86-2.69
			c-5.58,1.2-17.5,1.52-26.29-9.68c-4.61-5.88-7.25-12.53-5.2-20.11c-4.02-3.94-6.78,2.58-11.77-0.02
			c0.52-4.18,1.02-10.19,1.6-14.34c3.49-24.94,9.83-52.14-2.16-66.03c-0.38-0.44-0.93,2.67-1.37,2.26
			c-12.25,10.99-26.89,19.28-40.81,28.56c-17.63,11.75-38.38,11.91-56.28,12.44c-0.81,0.02-1.58,0.15-2.39,0.15
			c-33.77,0-65.04-19.36-77.82-49.88c-9.26-22.11-10.54-44.21-9.45-63.93c0.35-6.36,0.09-12.28,0.12-18.27
			c0.02-5.29,0.05-5.8,2.46-10.52c2.41-4.72,3.9-3.53,8.17-6.66c7.03-5.15,21.67-12.87,36.27-0.29
			c26.06,1.52,47.63,18.43,67.77,31.33c12.34,7.91,24.64,14.36,35.71,18.27c4.75,1.68,10.13,3.31,15.9,4.78
			c3.14,0.8,6.24,1.24,9.48,2.14c19.02-19.74,37.04-41.07,53.38-63.94c16.12-22.57,30.54-46.61,45.56-69.83
			c4.32-6.68,8.11-11.28,12.43-17.9c19.62,7.46,30.59-0.23,34.82,20.33c-23.02,40.29-44.26,81.9-60.78,124.92
			c-13.93,36.28-22.32,78.58-18.62,125.78c2.88,0.95,8.65,0.18,11.47,1.15c19.54,6.68,38.61,13.85,51.53,7.43
			c0.93-1.15,2.06-3.38,3.13-5.29c2.4-4.29,6.64-8.86,11.08-13.58c0.97-1.03,0.15-2.43,1.16-3.48c1.68-15.76-0.74-16.22,2.19-31.79
			c3.55-0.38,14.27-10.32,16.92-14.61c1.66-2.69,1.19-6.09,2.24-8.36c-5.62,2.07-11.32,5.66-16.98,10.16
			c-12.66,10.08-20.48,19.22-19.8,27.27c-20.22,5.68-22.01,12.73-41.24,4.29c-1.91-22.72,10.19-45.42,34.57-64.82
			c6.94-5.52,17.39-15.25,31.17-19.79c14.24-4.69,28.91-2.38,41.31,1.59c4.84,1.55,7.67-2.48,11.35,1.02
			c3.68,3.5,2.23,5.62,4.02,10.37c5.08,13.49,1.94,29.89-5.81,46.82c4.68,10.05,17.92-1.3,19.96,9.59
			c2.3,12.28-8.79,9.26-16.01,19.46c-7.74,10.94-16.37,22.8-25.5,32.11c-3.13,3.2-5.21,7.04-7.93,9.93
			c-0.89,0.95-5.92,1.54-7.13,3.7c-3.84,6.86-7.24,16.94-17.65,22.6C416.38,513.18,405.53,514.67,394.47,514.67z M406.4,472.81
			l0.85-1.21C407.25,472.21,406.4,472.81,406.4,472.81z M142.89,328.07c-0.79,15.25,0.63,29.19,5.6,41.07
			c6.43,15.34,22.92,25.56,40.3,25.03c12.56-0.38,26.09,0.36,34.87-5.49c5.64-3.76,10.21-8.97,15.56-13.11
			c-0.87-0.29-2.1,1.35-2.97,1.05c-15.65-5.53-29.84-15.59-43.64-24.43C175.08,340.95,158.18,328.63,142.89,328.07z"/>
		<path class="st2" d="M394.47,514.67c-18.97,0-38.03-4.41-54.31-9.98c-2.82-0.96-5.22-1.82-7.86-2.69
			c-5.58,1.2-17.5,1.52-26.29-9.68c-4.61-5.88-7.25-12.53-5.2-20.11c-4.02-3.94-6.78,2.58-11.77-0.02
			c0.52-4.18,1.02-10.19,1.6-14.34c3.49-24.94,9.83-52.14-2.16-66.03c-0.38-0.44-0.93,2.67-1.37,2.26
			c-12.25,10.99-26.89,19.28-40.81,28.56c-17.63,11.75-38.38,11.91-56.28,12.44c-0.81,0.02-1.58,0.15-2.39,0.15
			c-33.77,0-65.04-19.36-77.82-49.88c-9.26-22.11-10.54-44.21-9.45-63.93c0.35-6.36,0.09-12.28,0.12-18.27
			c0.02-5.29,0.05-5.8,2.46-10.52c2.41-4.72,3.9-3.53,8.17-6.66c7.03-5.15,21.67-12.87,36.27-0.29
			c26.06,1.52,47.63,18.43,67.77,31.33c12.34,7.91,24.64,14.36,35.71,18.27c4.75,1.68,10.13,3.31,15.9,4.78
			c3.14,0.8,6.24,1.24,9.48,2.14c19.02-19.74,37.04-41.07,53.38-63.94c16.12-22.57,30.54-46.61,45.56-69.83
			c4.32-6.68,8.11-11.28,12.43-17.9c19.62,7.46,30.59-0.23,34.82,20.33c-23.02,40.29-44.26,81.9-60.78,124.92
			c-13.93,36.28-22.32,78.58-18.62,125.78c2.88,0.95,8.65,0.18,11.47,1.15c19.54,6.68,38.61,13.85,51.53,7.43
			c0.93-1.15,2.06-3.38,3.13-5.29c2.4-4.29,6.64-8.86,11.08-13.58c0.97-1.03,0.15-2.43,1.16-3.48c1.68-15.76-0.74-16.22,2.19-31.79
			c3.55-0.38,14.27-10.32,16.92-14.61c1.66-2.69,1.19-6.09,2.24-8.36c-5.62,2.07-11.32,5.66-16.98,10.16
			c-12.66,10.08-20.48,19.22-19.8,27.27c-20.22,5.68-22.01,12.73-41.24,4.29c-1.91-22.72,10.19-45.42,34.57-64.82
			c6.94-5.52,17.39-15.25,31.17-19.79c14.24-4.69,28.91-2.38,41.31,1.59c4.84,1.55,7.67-2.48,11.35,1.02
			c3.68,3.5,2.23,5.62,4.02,10.37c5.08,13.49,1.94,29.89-5.81,46.82c4.68,10.05,17.92-1.3,19.96,9.59
			c2.3,12.28-8.79,9.26-16.01,19.46c-7.74,10.94-16.37,22.8-25.5,32.11c-3.13,3.2-5.21,7.04-7.93,9.93
			c-0.89,0.95-5.92,1.54-7.13,3.7c-3.84,6.86-7.24,16.94-17.65,22.6C416.38,513.18,405.53,514.67,394.47,514.67z M406.4,472.81
			l0.85-1.21C407.25,472.21,406.4,472.81,406.4,472.81z M142.89,328.07c-0.79,15.25,0.63,29.19,5.6,41.07
			c6.43,15.34,22.92,25.56,40.3,25.03c12.56-0.38,26.09,0.36,34.87-5.49c5.64-3.76,10.21-8.97,15.56-13.11
			c-0.87-0.29-2.1,1.35-2.97,1.05c-15.65-5.53-29.84-15.59-43.64-24.43C175.08,340.95,158.18,328.63,142.89,328.07z"/>
	</g>
	<g>
		<path class="st1" d="M680.7,787.91c-1.25,0-2.49-0.1-3.76-0.18c-12.18-0.7-21.36-6.82-28.03-11.56c-2.33-1.66-4.38-6.02-5.84-6.59
			c-0.94-0.31-4.7-0.14-6.75-0.34c-7.97-0.78-18.26-2.14-27.56-11.31c-21.21-20.93-34.17-48.49-35.44-83.34
			c-1.1-30.28,7.39-58.15,14.47-78.73c-5.7-0.04-15.33-4.26-22.14-13.57c-12.64-1.63-28.13-3.19-37.59-14.76
			c-0.04-0.05,1.6-1.48,1.56-1.54c-4.42-3.44-11.16-6.21-14-11.62c-8.17-15.55-3.9-34.08-0.85-45.97c1.01-3.93,8.36-6.5,8.68-9.32
			c0.47-4.11-2.41-9.31-2.38-14.4c0.08-12.03-0.37-26.68,6.18-40.27c2.1-7.22-0.04-7.43,3.24-14.19c1.19-2.45,2.67,3.11,5.12,1.93
			c1.9-3.6,3.55-9.2,6.12-12.6c8.45-11.18,19.74-17.43,30.74-23.2c0.33-0.68,2.2-1.62,2.54-2.31c3.58-7.28,3.54-16.92,8.44-24.05
			c6.51-9.48,14.12-17.51,22.75-22.06c15.6-8.23,33.4-6.55,48.58-3.55c9.4-3.09,19.85-5.77,30.71-3.65c0.85,0.17,1.66,2.38,2.48,2.6
			c0.6-0.7-0.68-2.29,0.21-2.05c10.8,2.93,10.01,5.25,20.53,9.06c6.79,2.46,12.43,4.95,16.33,9.74c0.33-3.27,4.11-6.12,4.46-9.36
			c1.05-17.76,1.08-35.49,2.95-53.01c0.11-2.85-5.27-5.68-5.25-8.51c-0.18-0.11,4.68-2.55,4.52-2.65
			c-7.68-5.13-10.42-11.82-8.12-21.18c1.26-5.11-1.81-10.09,1.43-13.77c-0.2-17.22-15.19-24.81,0.86-31.04
			c18.46-7.17,16.18,6.42,32.3,17.93c0.48,0.03-0.87,5.62-0.39,5.67c11.14,1.15,12.38-5.7,22.7-1.35c3.1,1.31-4.23,5.1-1.81,7.43
			c4.37,4.2,8.52-2.03,12.79,2.27c3.31,3.34,0.43,5.05,1.56,9.62c1.9,2.71,6.35,6.69,6.97,12.17c1.58,14,8.87,17.28-1.27,27.06
			c-9.93,9.58-12.1-2.74-25.76-4.67c-0.11,1-1.55,3.06-1.66,4.07c-0.69,16.45-0.47,32.84-2.19,48.8c-0.15,1.36-3.3,2.49-3.44,3.84
			c-1.79,30.93,2.26,63.19,7.42,93c-13.7,15.8-20.89,7.64-41.25,12.39c-0.48-1.3-1.52-6.15-2.02-7.4c-1.14-0.2-2.82,3.62-3.64,2.79
			c-3.96-6.95-9.66-12.99-13.44-19.34c-3.67-6.16-7.35-12.36-11.27-19.19c-2.03-2.09-2.45-4.79-4.72-6.88
			c-2.37-2.19-3.22-6.07-5.22-8.43c-4.57,0.4-8.33-1.81-12.41-3.82c-6.41-3.16-14.03-3.63-20.92-6.09
			c-6.5,3.88-12.71,9.02-19.46,14.29c-4.56,3.56-11.05,4.84-15.81,8.19c-6.94,4.89-13,10.46-20.18,13.99
			c-1.16,1.99-0.51,5.01-1.82,6.94c-5.98,8.85-15.28,14.34-22.3,19.5c-2.71,1.99-9.4,1.67-11.58,3.59
			c-0.23,4.1,5.41,11.72,1.81,16.15c-1.01,8.79-4.57,17.06-4.7,26.4c-0.04,2.54-2.9,5-2.95,7.48c-0.11,5.15-0.53,9.92-1.11,14.79
			c-0.43,3.56,0.44,10.23,0.47,14.27c3.25,0.74,8.94-1.81,15.21-1.81c0.01,0,0.01-0.85,0.02-0.85c8.39,0,8.43,2.37,16.75,3.46
			c1.15,0.15-0.7,1.65,0.44,1.46c8.92-3.77,17.68-7.39,25.96-9.36c0.37-0.09,2.39,3.05,2.76,2.97c7.69-7.84,15.81-15.51,26.94-18.94
			c14.28,14.73,11.45,17.18,19.88,35.89c-2.9,2.59-5.35,5.01-8.53,7.38c-0.27,2.59,2.24,1.78,1.18,4.16
			c-5.86,3.12-10.8,6.03-16.79,7.83c-7.59,11.1-16.15,24.09-19.21,31.96c-16.15,41.44-21.68,99.15,7.97,130.21
			c1.42,0.25,5.59-2.56,7.21-2.4c4.95,0.49,9.75,5.56,15.88,7.95c6.3,2.46,13.83,1.08,18.27,4.24c2.07,1.48,4.1,3.55,5.54,4.15
			c5.73,0.18,10.32-0.28,17.24-3.02c-6.4,0.28-11.97-0.93-18.67-6.82c-5.54-4.87-9.42-8.69-10.68-13.87
			c-11.5-2.5-18.52-12.54-19.81-19.85c-1.33-7.55,5.34-15.75,16.12-22.02c1.62-0.94,1.53-4.41,3.04-5.04
			c1.19-3.54,1.7-7.81,2.67-12.23c2-9.09,6.6-18.28,12.2-27.95c3.47-6,9.07-11.87,19.64-11.04c0.06-0.06,0.15-1.02,0.22-1.08
			c6.51-6.27,15.89-11.76,24.13-9.52c12.27,3.34,21.29,12.53,30.31,17.26c7.81,4.09,16.35,4.28,24.21,6.41
			c9.16,2.49,14.9-1.58,20.03,6.42c5.12,7.99-3.67,11.06-5.23,20.43c-1.75,10.52-1.46,13.96-0.86,18.87
			c0.77,6.24-0.93,13.72-3.07,29.32c-3.54,25.88-21.91,48.61-56.53,62.23c-3.08,1.21-5.55,4.16-8.91,5.62
			C713.09,784.08,697.46,787.91,680.7,787.91z M633.97,728.66l-0.36-0.29C633.61,728.51,633.97,728.66,633.97,728.66z
			 M740.59,689.06c0.24,0.41,1,1.57,1.54,2.3c2.75,3.78,8.02,10.34,8.58,19.03c0.87-1.73,3.79-3.12,4.03-4.84
			c1.39-10.19,0.32-14.52-0.27-19.32c-0.53-4.29-0.46-9.72-0.36-14.85c-5.2-2.34-11.87-4.06-16.37-6.42
			c-4.22-2.21-8.32-6.15-12.42-7.99c-1.15,1.04-4.05,2.61-5.52,3.51c-2.78,1.7-3.12,6.38-5.75,6.79c-0.39,1.66-2.01,1.6-2.39,3.34
			c-1.33,6.03-1.71,9.47-4.16,16.03c17.08,5.58,16.79,3.94,34.75,4.5C742.07,687.95,740.64,689.14,740.59,689.06z M667.5,709.92
			c0,0,0,0.07,0,0.07C667.5,709.99,667.5,709.92,667.5,709.92z M706.72,694.25c0.17,0.43,0.25,1.5,0.4,1.92
			c1.63,0.12,1.99,0.47,3.26-0.55C711.92,694.38,708.64,694.62,706.72,694.25z"/>
		<path class="st2" d="M680.7,787.91c-1.25,0-2.49-0.1-3.76-0.18c-12.18-0.7-21.36-6.82-28.03-11.56c-2.33-1.66-4.38-6.02-5.84-6.59
			c-0.94-0.31-4.7-0.14-6.75-0.34c-7.97-0.78-18.26-2.14-27.56-11.31c-21.21-20.93-34.17-48.49-35.44-83.34
			c-1.1-30.28,7.39-58.15,14.47-78.73c-5.7-0.04-15.33-4.26-22.14-13.57c-12.64-1.63-28.13-3.19-37.59-14.76
			c-0.04-0.05,1.6-1.48,1.56-1.54c-4.42-3.44-11.16-6.21-14-11.62c-8.17-15.55-3.9-34.08-0.85-45.97c1.01-3.93,8.36-6.5,8.68-9.32
			c0.47-4.11-2.41-9.31-2.38-14.4c0.08-12.03-0.37-26.68,6.18-40.27c2.1-7.22-0.04-7.43,3.24-14.19c1.19-2.45,2.67,3.11,5.12,1.93
			c1.9-3.6,3.55-9.2,6.12-12.6c8.45-11.18,19.74-17.43,30.74-23.2c0.33-0.68,2.2-1.62,2.54-2.31c3.58-7.28,3.54-16.92,8.44-24.05
			c6.51-9.48,14.12-17.51,22.75-22.06c15.6-8.23,33.4-6.55,48.58-3.55c9.4-3.09,19.85-5.77,30.71-3.65c0.85,0.17,1.66,2.38,2.48,2.6
			c0.6-0.7-0.68-2.29,0.21-2.05c10.8,2.93,10.01,5.25,20.53,9.06c6.79,2.46,12.43,4.95,16.33,9.74c0.33-3.27,4.11-6.12,4.46-9.36
			c1.05-17.76,1.08-35.49,2.95-53.01c0.11-2.85-5.27-5.68-5.25-8.51c-0.18-0.11,4.68-2.55,4.52-2.65
			c-7.68-5.13-10.42-11.82-8.12-21.18c1.26-5.11-1.81-10.09,1.43-13.77c-0.2-17.22-15.19-24.81,0.86-31.04
			c18.46-7.17,16.18,6.42,32.3,17.93c0.48,0.03-0.87,5.62-0.39,5.67c11.14,1.15,12.38-5.7,22.7-1.35c3.1,1.31-4.23,5.1-1.81,7.43
			c4.37,4.2,8.52-2.03,12.79,2.27c3.31,3.34,0.43,5.05,1.56,9.62c1.9,2.71,6.35,6.69,6.97,12.17c1.58,14,8.87,17.28-1.27,27.06
			c-9.93,9.58-12.1-2.74-25.76-4.67c-0.11,1-1.55,3.06-1.66,4.07c-0.69,16.45-0.47,32.84-2.19,48.8c-0.15,1.36-3.3,2.49-3.44,3.84
			c-1.79,30.93,2.26,63.19,7.42,93c-13.7,15.8-20.89,7.64-41.25,12.39c-0.48-1.3-1.52-6.15-2.02-7.4c-1.14-0.2-2.82,3.62-3.64,2.79
			c-3.96-6.95-9.66-12.99-13.44-19.34c-3.67-6.16-7.35-12.36-11.27-19.19c-2.03-2.09-2.45-4.79-4.72-6.88
			c-2.37-2.19-3.22-6.07-5.22-8.43c-4.57,0.4-8.33-1.81-12.41-3.82c-6.41-3.16-14.03-3.63-20.92-6.09
			c-6.5,3.88-12.71,9.02-19.46,14.29c-4.56,3.56-11.05,4.84-15.81,8.19c-6.94,4.89-13,10.46-20.18,13.99
			c-1.16,1.99-0.51,5.01-1.82,6.94c-5.98,8.85-15.28,14.34-22.3,19.5c-2.71,1.99-9.4,1.67-11.58,3.59
			c-0.23,4.1,5.41,11.72,1.81,16.15c-1.01,8.79-4.57,17.06-4.7,26.4c-0.04,2.54-2.9,5-2.95,7.48c-0.11,5.15-0.53,9.92-1.11,14.79
			c-0.43,3.56,0.44,10.23,0.47,14.27c3.25,0.74,8.94-1.81,15.21-1.81c0.01,0,0.01-0.85,0.02-0.85c8.39,0,8.43,2.37,16.75,3.46
			c1.15,0.15-0.7,1.65,0.44,1.46c8.92-3.77,17.68-7.39,25.96-9.36c0.37-0.09,2.39,3.05,2.76,2.97c7.69-7.84,15.81-15.51,26.94-18.94
			c14.28,14.73,11.45,17.18,19.88,35.89c-2.9,2.59-5.35,5.01-8.53,7.38c-0.27,2.59,2.24,1.78,1.18,4.16
			c-5.86,3.12-10.8,6.03-16.79,7.83c-7.59,11.1-16.15,24.09-19.21,31.96c-16.15,41.44-21.68,99.15,7.97,130.21
			c1.42,0.25,5.59-2.56,7.21-2.4c4.95,0.49,9.75,5.56,15.88,7.95c6.3,2.46,13.83,1.08,18.27,4.24c2.07,1.48,4.1,3.55,5.54,4.15
			c5.73,0.18,10.32-0.28,17.24-3.02c-6.4,0.28-11.97-0.93-18.67-6.82c-5.54-4.87-9.42-8.69-10.68-13.87
			c-11.5-2.5-18.52-12.54-19.81-19.85c-1.33-7.55,5.34-15.75,16.12-22.02c1.62-0.94,1.53-4.41,3.04-5.04
			c1.19-3.54,1.7-7.81,2.67-12.23c2-9.09,6.6-18.28,12.2-27.95c3.47-6,9.07-11.87,19.64-11.04c0.06-0.06,0.15-1.02,0.22-1.08
			c6.51-6.27,15.89-11.76,24.13-9.52c12.27,3.34,21.29,12.53,30.31,17.26c7.81,4.09,16.35,4.28,24.21,6.41
			c9.16,2.49,14.9-1.58,20.03,6.42c5.12,7.99-3.67,11.06-5.23,20.43c-1.75,10.52-1.46,13.96-0.86,18.87
			c0.77,6.24-0.93,13.72-3.07,29.32c-3.54,25.88-21.91,48.61-56.53,62.23c-3.08,1.21-5.55,4.16-8.91,5.62
			C713.09,784.08,697.46,787.91,680.7,787.91z M633.97,728.66l-0.36-0.29C633.61,728.51,633.97,728.66,633.97,728.66z
			 M740.59,689.06c0.24,0.41,1,1.57,1.54,2.3c2.75,3.78,8.02,10.34,8.58,19.03c0.87-1.73,3.79-3.12,4.03-4.84
			c1.39-10.19,0.32-14.52-0.27-19.32c-0.53-4.29-0.46-9.72-0.36-14.85c-5.2-2.34-11.87-4.06-16.37-6.42
			c-4.22-2.21-8.32-6.15-12.42-7.99c-1.15,1.04-4.05,2.61-5.52,3.51c-2.78,1.7-3.12,6.38-5.75,6.79c-0.39,1.66-2.01,1.6-2.39,3.34
			c-1.33,6.03-1.71,9.47-4.16,16.03c17.08,5.58,16.79,3.94,34.75,4.5C742.07,687.95,740.64,689.14,740.59,689.06z M667.5,709.92
			c0,0,0,0.07,0,0.07C667.5,709.99,667.5,709.92,667.5,709.92z M706.72,694.25c0.17,0.43,0.25,1.5,0.4,1.92
			c1.63,0.12,1.99,0.47,3.26-0.55C711.92,694.38,708.64,694.62,706.72,694.25z"/>
	</g>
	<g>
		<path class="st1" d="M942.29,884.89c-4.37,0-11-1.5-16.36-7.06c-7.77-1.55-15.02-7.23-17.72-14.61
			c-5.2-14.26-3.86-28.2-3.18-39.94c0.23-3.98,0.7-7.68,0.68-11.32c-0.04-9.17-4.56-10.73,1.44-17.67c6-6.93,8.63,0.42,17.71-0.86
			c2.43-0.34,5.32-1.74,8.32-2.45c10.92-2.56,26.89-7.79,42.43,2.1c7.75,4.93,13.16,11.31,16.27,17.91c0,0-1.48-0.91-1.48-0.91
			c6.13-3.65,13.59-3.94,19.24-6.04c5.56-2.07,12.57-3.45,15-5.84c6.38-6.29,6.61-15.62,9.71-28.63
			c1.89-7.92,6.19-16.01,10.19-25.22c4.62-10.68,11.03-19.26,17.17-28.09c1.04-1.5,0.93-4.16,1.94-5.63
			c2.55-11.57,2.24-11.61,2.22-23.46c-0.01-7.33-7.26-7.9-3.57-14.24c4.64-7.99,10.56-0.81,18.14-6.1c3.72-6.97,6.41-19.72,7.5-30.5
			c0.43-4.3-0.09-8.8,0.52-13.15c1.17-8.36,1.87-16.2,4.69-21.71c0.92-1.8,3.19-3.52,3.86-5.22c-0.57-1.14-1.77-2.17-2.42-3.31
			c-1-1.73,0.15-4.89-0.91-7.02c-0.98-1.97-4.44-1.35-6.09-2.71c-0.6,0.42-0.47-0.62-1.14-0.23c-4.43,2.57-9.8,1.4-13.15,1.59
			c-8.85,6.35-18.46,11.75-30,11.53c-6.97-0.12-17.19-1.77-21.74,1.16c-16.67,10.73-31.74,25.47-47.42,45
			c-12.55,15.62-18.61,24.62-20.49,38.15c-19.27,7.22-20.35,10.04-40.67,6.77c-2.6-9.61-6.42-20.94-14.03-30.69
			c-4.08-5.22-10.89-8.69-14.97-14.93c-7.32-11.18-10.74-24-16.04-35.34c-4.89-10.47-9.83-18.81-15.51-27.47
			c14.3-15.38,14.18-17.33,34.41-22.97c7.32,11.18,10.92,22.68,16.22,34.02c4.89,10.47,9.74,20.5,15.42,29.17
			c3.12,4.77,7.05,9.1,10.76,13.85c0.31,0.39,1.18-0.28,1.49,0.12c3.89-5.48,10.24-8.89,14.35-14.01
			c15.79-19.67,32.47-40.18,55.17-54.79c15.26-9.82,32.12-10.12,43.77-9.92c3.68,0.07,7.03,0.06,8.35-1.2
			c4.73-4.51,7.31-9.51,11.56-10.07c5.75-6.22,13.8-8.03,21.57-7.15c19.15,2.17,36.4,14.31,45.07,31.72
			c0.5,0.99,1.42,2.09,2.19,3.43c3.79,6.58,8.79,17.08,7.02,29.74c-1.17,8.36-3.34,15.98-6.17,21.5c-1.24,2.42-5.93,5.1-6.12,6.44
			c-0.5,3.55,2.58,7.82,2.17,11.9c-1.47,14.59-5.62,31.3-13.56,45.72c0.56,2.88,0.15,5.85-0.5,8.84
			c-3.76,17.35-12.98,31.33-21.54,43.65c-5.19,7.47-10.15,14.54-13.11,21.37c-2.53,5.83-3.83,12.4-5.46,19.24
			c-3.41,14.3-8.78,30.95-24.05,46.01c-3.41,3.36-7.16,7.45-10.95,9.65c4.32-0.12,9.92,1.29,14.29,1.28
			c7.06,0.01,13.88-0.56,20.53,0.08c11.94,1.16,23.96,3.24,31.54-0.1c3.79-1.67,8.71-6.85,13.47-11.81
			c6.14-6.4,11.32-15.94,20.7-21.04c8.93-4.85,19.39-6.35,28.02-8.79c9.78-2.76,20.92-7.52,24.44-12.21
			c18.38,10.16,24.53,7.59,34.25,26.2c-12.04,16.05-32.99,19.93-47.94,24.14c-7.14,2.01-13.45,5.81-18.25,8.42
			c-3.64,1.98-7.66,6.64-12.07,11.23c-7.04,7.33-15.42,14.64-26.83,19.67c-17.64,7.78-35.14,5.16-51.14,3.61
			c-5.93-0.58-11.72,0.21-16.79,0.2c-3.78-0.01-7.79-0.38-12.01-0.27c-19.05,0.52-41.51,0.51-60.37-9.75
			c-10.43,6.53-21.91,15.25-34.94,18.21C946.35,884.39,944.39,884.89,942.29,884.89z M948.84,837.43c0.38,0.2-0.91-0.53-0.55-0.31
			c2.24-1.05,3.31-1.78,5.57-3.08c-0.78-2.03-0.91-3.28-1.74-4.88c-1.2,0.01-1.77-0.1-3.71,0.29
			C948.24,832.52,948.78,834.78,948.84,837.43z"/>
		<path class="st2" d="M942.29,884.89c-4.37,0-11-1.5-16.36-7.06c-7.77-1.55-15.02-7.23-17.72-14.61
			c-5.2-14.26-3.86-28.2-3.18-39.94c0.23-3.98,0.7-7.68,0.68-11.32c-0.04-9.17-4.56-10.73,1.44-17.67c6-6.93,8.63,0.42,17.71-0.86
			c2.43-0.34,5.32-1.74,8.32-2.45c10.92-2.56,26.89-7.79,42.43,2.1c7.75,4.93,13.16,11.31,16.27,17.91c0,0-1.48-0.91-1.48-0.91
			c6.13-3.65,13.59-3.94,19.24-6.04c5.56-2.07,12.57-3.45,15-5.84c6.38-6.29,6.61-15.62,9.71-28.63
			c1.89-7.92,6.19-16.01,10.19-25.22c4.62-10.68,11.03-19.26,17.17-28.09c1.04-1.5,0.93-4.16,1.94-5.63
			c2.55-11.57,2.24-11.61,2.22-23.46c-0.01-7.33-7.26-7.9-3.57-14.24c4.64-7.99,10.56-0.81,18.14-6.1c3.72-6.97,6.41-19.72,7.5-30.5
			c0.43-4.3-0.09-8.8,0.52-13.15c1.17-8.36,1.87-16.2,4.69-21.71c0.92-1.8,3.19-3.52,3.86-5.22c-0.57-1.14-1.77-2.17-2.42-3.31
			c-1-1.73,0.15-4.89-0.91-7.02c-0.98-1.97-4.44-1.35-6.09-2.71c-0.6,0.42-0.47-0.62-1.14-0.23c-4.43,2.57-9.8,1.4-13.15,1.59
			c-8.85,6.35-18.46,11.75-30,11.53c-6.97-0.12-17.19-1.77-21.74,1.16c-16.67,10.73-31.74,25.47-47.42,45
			c-12.55,15.62-18.61,24.62-20.49,38.15c-19.27,7.22-20.35,10.04-40.67,6.77c-2.6-9.61-6.42-20.94-14.03-30.69
			c-4.08-5.22-10.89-8.69-14.97-14.93c-7.32-11.18-10.74-24-16.04-35.34c-4.89-10.47-9.83-18.81-15.51-27.47
			c14.3-15.38,14.18-17.33,34.41-22.97c7.32,11.18,10.92,22.68,16.22,34.02c4.89,10.47,9.74,20.5,15.42,29.17
			c3.12,4.77,7.05,9.1,10.76,13.85c0.31,0.39,1.18-0.28,1.49,0.12c3.89-5.48,10.24-8.89,14.35-14.01
			c15.79-19.67,32.47-40.18,55.17-54.79c15.26-9.82,32.12-10.12,43.77-9.92c3.68,0.07,7.03,0.06,8.35-1.2
			c4.73-4.51,7.31-9.51,11.56-10.07c5.75-6.22,13.8-8.03,21.57-7.15c19.15,2.17,36.4,14.31,45.07,31.72
			c0.5,0.99,1.42,2.09,2.19,3.43c3.79,6.58,8.79,17.08,7.02,29.74c-1.17,8.36-3.34,15.98-6.17,21.5c-1.24,2.42-5.93,5.1-6.12,6.44
			c-0.5,3.55,2.58,7.82,2.17,11.9c-1.47,14.59-5.62,31.3-13.56,45.72c0.56,2.88,0.15,5.85-0.5,8.84
			c-3.76,17.35-12.98,31.33-21.54,43.65c-5.19,7.47-10.15,14.54-13.11,21.37c-2.53,5.83-3.83,12.4-5.46,19.24
			c-3.41,14.3-8.78,30.95-24.05,46.01c-3.41,3.36-7.16,7.45-10.95,9.65c4.32-0.12,9.92,1.29,14.29,1.28
			c7.06,0.01,13.88-0.56,20.53,0.08c11.94,1.16,23.96,3.24,31.54-0.1c3.79-1.67,8.71-6.85,13.47-11.81
			c6.14-6.4,11.32-15.94,20.7-21.04c8.93-4.85,19.39-6.35,28.02-8.79c9.78-2.76,20.92-7.52,24.44-12.21
			c18.38,10.16,24.53,7.59,34.25,26.2c-12.04,16.05-32.99,19.93-47.94,24.14c-7.14,2.01-13.45,5.81-18.25,8.42
			c-3.64,1.98-7.66,6.64-12.07,11.23c-7.04,7.33-15.42,14.64-26.83,19.67c-17.64,7.78-35.14,5.16-51.14,3.61
			c-5.93-0.58-11.72,0.21-16.79,0.2c-3.78-0.01-7.79-0.38-12.01-0.27c-19.05,0.52-41.51,0.51-60.37-9.75
			c-10.43,6.53-21.91,15.25-34.94,18.21C946.35,884.39,944.39,884.89,942.29,884.89z M948.84,837.43c0.38,0.2-0.91-0.53-0.55-0.31
			c2.24-1.05,3.31-1.78,5.57-3.08c-0.78-2.03-0.91-3.28-1.74-4.88c-1.2,0.01-1.77-0.1-3.71,0.29
			C948.24,832.52,948.78,834.78,948.84,837.43z"/>
	</g>
	<g>
		<path class="st1" d="M1279.87,635.59c-14.98-13.11,3.79-20.63,8.4-39.99c10.82-45.5,30.45-87.76,49.14-128.42
			c14.01-30.48,30.62-58.35,40.54-88.44c-1.76-2.58-4.06-6.47-4.63-10.42c-0.37-2.51-0.4-5.7-0.12-7.82
			c-5.6-3.67-13.61-7.19-21.79-8.34c-5.9-0.84-10.83-1.72-14.41-3.43c-0.2-0.09-1.85-1.58-2.07-1.69
			c-2.88,1.98-3.15,9.56-7.31,16.13c-3.24,5.12-9.43,7.01-13.17,8.83c-0.75,4.02,0.8,8.43,0.32,13.05
			c-0.22,2.09-3.11,1.92-3.37,4.12c14.58-1.7,14.36-4.83,28.72-1.78c2.33,12.14-2.54,21.66-11.39,31.41
			c-8.82,9.72-19.82,19.24-32.79,20.18c-0.82,0.57-0.85,1.01-1.84,1.56c-9.19,5.1-21.54,2.59-28.66-4.45
			c-7.28-7.19-7.07-17.89-2.5-27.69c1.61-3.45,3.69-5.86,5.35-8.08c0.18-0.23-1.16-1.54-0.95-1.82c1.55-5.17,1.75-11.5,2.46-18.2
			c0.95-9.03,0.64-19.95,4.2-30.02c3.49-9.88,12.93-14.31,17.76-16.28c7.96-11.71,19.95-24.52,37.02-28.46
			c11-2.54,21.36,1.43,26.86,4.05c0.9,0.43,1.53,1.66,2.22,1.92c22.3,3.29,41.21,13.43,53.79,28.24c5.65,6.65,4.27,14.74,3.36,20.33
			c4.19,5.93,3.92,11.89,1.9,18.66c-11,36.8-26.21,71.84-41.79,105.74c-12.95,28.17-23.98,56.01-33.68,83.8
			c5.03-1.5,10.08-3.79,14.86-5.19c14.7-4.29,14.28-8.38,29.56-9.36c3.33-0.21-2.97,8.7,0.3,9.37c17.43-3,34.79-1.5,51.49-1.59
			c13.82-0.07,26.81-3.05,39.59-4.71c31.12-4.04,62.01-11.13,93.89-21.4c17.23-5.55,35.01-10.89,52.97-15.64
			c3.33-0.88,6.51-3.25,9.71-3.44c3.07-4.64,7.48-12.39,16.29-13.6c9.28-1.27,17.3,3.04,21.81,5c0.39,0.17,0.78,2.45,1.2,2.62
			c8.44-1.04,8.39-7.05,15.05-1.75c7.6,6.05,2.23,7.76,4.29,17.26c2.83,13.08-0.82,26.38-12.8,31.48
			c-12.01,5.12-24.61,2.55-34.04,1.47c-0.99-0.11-1.03-0.16-2.04-0.27c-2.85,5.06-9.05,9.39-17.65,13
			c-8.18,3.43-15.65,6.92-21.58,6.76c-1.86-0.05-4.57-1.95-5.51-1.77c0,0,2.44-1.02,2.92-1.22c-1.27-3.7-2.41-3.69-5.5-6.09
			c-4.45,1.42-9.03,1.06-13.42,2.48c-32.28,10.4-65.57,19.74-100.49,24.28c-15.37,2-30,2.36-44.49,2.43
			c-16.52,0.08-31.72,5.18-46.54,8.08c-0.04,0.14-3.21-3.02-3.24-2.9c-0.22,0.73,2.09,3.22,1.9,3.85
			c-10.2-0.93-9.88-4.23-20.07-5.21c-0.73-0.07-1.31,0.37-2.01,0.57c-16.58,4.83-35.72,10.95-50.8,16.74
			C1300.18,634.64,1294.85,648.69,1279.87,635.59z M1639.2,514.07c0,0,0-0.45,0-0.45C1639.2,513.62,1639.19,514.07,1639.2,514.07z
			 M1299.28,433.01c0,0,0-0.45,0-0.45C1299.28,432.56,1299.28,433.01,1299.28,433.01z M1333.57,346.68c0,0,0-0.45,0-0.45
			C1333.57,346.23,1333.57,346.68,1333.57,346.68z M1357.9,311.58c0,0-1.63,1.18-1.63,1.18
			C1356.27,312.17,1357.9,311.58,1357.9,311.58z M1357.9,311.58l-1.63,1.18C1356.27,312.17,1357.9,311.58,1357.9,311.58z"/>
		<path class="st2" d="M1279.87,635.59c-14.98-13.11,3.79-20.63,8.4-39.99c10.82-45.5,30.45-87.76,49.14-128.42
			c14.01-30.48,30.62-58.35,40.54-88.44c-1.76-2.58-4.06-6.47-4.63-10.42c-0.37-2.51-0.4-5.7-0.12-7.82
			c-5.6-3.67-13.61-7.19-21.79-8.34c-5.9-0.84-10.83-1.72-14.41-3.43c-0.2-0.09-1.85-1.58-2.07-1.69
			c-2.88,1.98-3.15,9.56-7.31,16.13c-3.24,5.12-9.43,7.01-13.17,8.83c-0.75,4.02,0.8,8.43,0.32,13.05
			c-0.22,2.09-3.11,1.92-3.37,4.12c14.58-1.7,14.36-4.83,28.72-1.78c2.33,12.14-2.54,21.66-11.39,31.41
			c-8.82,9.72-19.82,19.24-32.79,20.18c-0.82,0.57-0.85,1.01-1.84,1.56c-9.19,5.1-21.54,2.59-28.66-4.45
			c-7.28-7.19-7.07-17.89-2.5-27.69c1.61-3.45,3.69-5.86,5.35-8.08c0.18-0.23-1.16-1.54-0.95-1.82c1.55-5.17,1.75-11.5,2.46-18.2
			c0.95-9.03,0.64-19.95,4.2-30.02c3.49-9.88,12.93-14.31,17.76-16.28c7.96-11.71,19.95-24.52,37.02-28.46
			c11-2.54,21.36,1.43,26.86,4.05c0.9,0.43,1.53,1.66,2.22,1.92c22.3,3.29,41.21,13.43,53.79,28.24c5.65,6.65,4.27,14.74,3.36,20.33
			c4.19,5.93,3.92,11.89,1.9,18.66c-11,36.8-26.21,71.84-41.79,105.74c-12.95,28.17-23.98,56.01-33.68,83.8
			c5.03-1.5,10.08-3.79,14.86-5.19c14.7-4.29,14.28-8.38,29.56-9.36c3.33-0.21-2.97,8.7,0.3,9.37c17.43-3,34.79-1.5,51.49-1.59
			c13.82-0.07,26.81-3.05,39.59-4.71c31.12-4.04,62.01-11.13,93.89-21.4c17.23-5.55,35.01-10.89,52.97-15.64
			c3.33-0.88,6.51-3.25,9.71-3.44c3.07-4.64,7.48-12.39,16.29-13.6c9.28-1.27,17.3,3.04,21.81,5c0.39,0.17,0.78,2.45,1.2,2.62
			c8.44-1.04,8.39-7.05,15.05-1.75c7.6,6.05,2.23,7.76,4.29,17.26c2.83,13.08-0.82,26.38-12.8,31.48
			c-12.01,5.12-24.61,2.55-34.04,1.47c-0.99-0.11-1.03-0.16-2.04-0.27c-2.85,5.06-9.05,9.39-17.65,13
			c-8.18,3.43-15.65,6.92-21.58,6.76c-1.86-0.05-4.57-1.95-5.51-1.77c0,0,2.44-1.02,2.92-1.22c-1.27-3.7-2.41-3.69-5.5-6.09
			c-4.45,1.42-9.03,1.06-13.42,2.48c-32.28,10.4-65.57,19.74-100.49,24.28c-15.37,2-30,2.36-44.49,2.43
			c-16.52,0.08-31.72,5.18-46.54,8.08c-0.04,0.14-3.21-3.02-3.24-2.9c-0.22,0.73,2.09,3.22,1.9,3.85
			c-10.2-0.93-9.88-4.23-20.07-5.21c-0.73-0.07-1.31,0.37-2.01,0.57c-16.58,4.83-35.72,10.95-50.8,16.74
			C1300.18,634.64,1294.85,648.69,1279.87,635.59z M1639.2,514.07c0,0,0-0.45,0-0.45C1639.2,513.62,1639.19,514.07,1639.2,514.07z
			 M1299.28,433.01c0,0,0-0.45,0-0.45C1299.28,432.56,1299.28,433.01,1299.28,433.01z M1333.57,346.68c0,0,0-0.45,0-0.45
			C1333.57,346.23,1333.57,346.68,1333.57,346.68z M1357.9,311.58c0,0-1.63,1.18-1.63,1.18
			C1356.27,312.17,1357.9,311.58,1357.9,311.58z M1357.9,311.58l-1.63,1.18C1356.27,312.17,1357.9,311.58,1357.9,311.58z"/>
	</g>
	<g>
		<path class="st1" d="M1484.07,805.11c-32.89-4.05-3.69-32.16-9.76-64.73c-2.25-12.07-3.73-26.75,4.6-38.49
			c1.89-5.22,9.22-8.54,12.53-13.53c3.66-38.75-0.54-77.92-5.29-118.54c-0.96-8.22-4.11-16.46-5.03-24.9
			c-0.86-7.93-1.58-16.61-3.86-25.32c-1.65-6.28-5.7-11.81-7-18.49c-2.1-2.28-2.96-0.13-5.58-1.78c-0.07-2.59,2.31-4.63,2.66-6.88
			c-0.06-0.38-2.03-1.06-2.08-1.39c-0.26-1.71-3.18-3.44-3.32-5.45c-1-14.25,8.29-25.57,13.72-34.65c1.99-3.33,1.86-8.58,2.18-10.55
			c-0.12-4.13-0.62-9.34-2.69-15.45c-3.12-9.2-6.92-20.12-6.76-31.82c0.25-19.51,3.85-38.74,6.37-57.25
			c2.46-18.06,5.93-33.89,6.15-50.83c19.58-7.6,23.33-11.12,42.26-2.03c-0.25,19.51-4.56,39.97-7.09,58.49
			c-2.46,18.06-5.04,35.23-5.25,52.17c-0.06,4.5,4.99,10.16,7.22,16.74c2.89,8.53,6.58,18.73,6.78,29.38
			c0.25,13.28-9.99,22.94-15.12,31.51c-0.28,0.47,3.8,1.8,3.49,2.33c0.11,1.28,0.22,0.79,0.56,2.03c0.23,0.51-0.51,1.59-0.02,2.41
			c2.81,4.77,8.02,14.4,6.82,25.69c-1.11,2.07-3.56-0.74-5.69,0.26c0.58,2.29-1.95,3.71-1.33,6.06c2.57,9.81,6.18,19.48,7.37,30.52
			c0.89,8.26,1.52,16.72,2.47,24.85c3.9,33.32,7.34,67.79,6.53,102.63c7.44-2.33,17.51-3.5,25.22-3.91
			c34.07-1.85,66.98,5.42,99.26,10.58c11.67,1.86,27.14,0.68,38.84,2.18c3.05,20.78,0.7,23.12-7.78,42.33
			c-12.33-1.58-25.72-0.92-37.71-2.84c-31.49-5.03-60.65-10.16-90.24-8.56c-13.92,0.76-29.46,3.63-40.07,14.74
			c-0.33,1.11-1.44,2.94-1.77,4.05c-1.76,6,1.29,12.78-1.54,18.97C1515.47,782.75,1516.96,809.16,1484.07,805.11z M1511.09,477.15
			c0,0,0,1.65,0,1.65C1511.09,478.8,1511.09,477.15,1511.09,477.15z M1481.61,440.41c0,0-0.89,2.54-0.89,2.54
			C1481.17,442.95,1481.61,440.41,1481.61,440.41z"/>
		<path class="st2" d="M1484.07,805.11c-32.89-4.05-3.69-32.16-9.76-64.73c-2.25-12.07-3.73-26.75,4.6-38.49
			c1.89-5.22,9.22-8.54,12.53-13.53c3.66-38.75-0.54-77.92-5.29-118.54c-0.96-8.22-4.11-16.46-5.03-24.9
			c-0.86-7.93-1.58-16.61-3.86-25.32c-1.65-6.28-5.7-11.81-7-18.49c-2.1-2.28-2.96-0.13-5.58-1.78c-0.07-2.59,2.31-4.63,2.66-6.88
			c-0.06-0.38-2.03-1.06-2.08-1.39c-0.26-1.71-3.18-3.44-3.32-5.45c-1-14.25,8.29-25.57,13.72-34.65c1.99-3.33,1.86-8.58,2.18-10.55
			c-0.12-4.13-0.62-9.34-2.69-15.45c-3.12-9.2-6.92-20.12-6.76-31.82c0.25-19.51,3.85-38.74,6.37-57.25
			c2.46-18.06,5.93-33.89,6.15-50.83c19.58-7.6,23.33-11.12,42.26-2.03c-0.25,19.51-4.56,39.97-7.09,58.49
			c-2.46,18.06-5.04,35.23-5.25,52.17c-0.06,4.5,4.99,10.16,7.22,16.74c2.89,8.53,6.58,18.73,6.78,29.38
			c0.25,13.28-9.99,22.94-15.12,31.51c-0.28,0.47,3.8,1.8,3.49,2.33c0.11,1.28,0.22,0.79,0.56,2.03c0.23,0.51-0.51,1.59-0.02,2.41
			c2.81,4.77,8.02,14.4,6.82,25.69c-1.11,2.07-3.56-0.74-5.69,0.26c0.58,2.29-1.95,3.71-1.33,6.06c2.57,9.81,6.18,19.48,7.37,30.52
			c0.89,8.26,1.52,16.72,2.47,24.85c3.9,33.32,7.34,67.79,6.53,102.63c7.44-2.33,17.51-3.5,25.22-3.91
			c34.07-1.85,66.98,5.42,99.26,10.58c11.67,1.86,27.14,0.68,38.84,2.18c3.05,20.78,0.7,23.12-7.78,42.33
			c-12.33-1.58-25.72-0.92-37.71-2.84c-31.49-5.03-60.65-10.16-90.24-8.56c-13.92,0.76-29.46,3.63-40.07,14.74
			c-0.33,1.11-1.44,2.94-1.77,4.05c-1.76,6,1.29,12.78-1.54,18.97C1515.47,782.75,1516.96,809.16,1484.07,805.11z M1511.09,477.15
			c0,0,0,1.65,0,1.65C1511.09,478.8,1511.09,477.15,1511.09,477.15z M1481.61,440.41c0,0-0.89,2.54-0.89,2.54
			C1481.17,442.95,1481.61,440.41,1481.61,440.41z"/>
	</g>
</g>
<path d="M842.28,830.54c0,0.01,0,0.01,0,0.02c0,0,0.01,0,0.01,0.01L842.28,830.54z"/>
<path d="M866.96,853.61c0.01,0.02,0.02,0.03,0.02,0.05c0.02-0.02,0.05-0.03,0.07-0.05C867.06,853.61,866.96,853.61,866.96,853.61z"
	/>
<path d="M807.39,882c0,0.04,0,0.07,0,0.11c0.01,0.01,0.01,0.02,0.02,0.03C807.4,882.13,807.39,882,807.39,882z"/>
<path d="M820.54,874.22c-0.03,0-0.05,0-0.08-0.01c0,0.02,0,0.04,0,0.07L820.54,874.22z"/>
<path d="M891.04,862.37c-0.03,0-0.05,0-0.08,0c0,0.02,0,0.04,0,0.07L891.04,862.37z"/>
<path d="M818.09,875.4c0.02,0.02,0.04,0.04,0.06,0.06c0.01,0,0.01,0,0.02,0L818.09,875.4z"/>
<path d="M889.23,867.09c-0.02,0.02-0.03,0.04-0.05,0.06c0,0.01,0,0.02,0,0.03L889.23,867.09z"/>
<path d="M713.3,877.17c0,0.02,0,0.03,0,0.05c0.01,0.01,0.01,0.02,0.02,0.03L713.3,877.17z"/>
<path d="M706.8,904.4c-0.02,0.03-0.04,0.05-0.07,0.08c0,0,0,0.01,0,0.01L706.8,904.4z"/>
<path d="M713.92,874.23c-0.02,0-0.05,0-0.07,0c0,0.02,0,0.05,0.01,0.07L713.92,874.23z"/>
<path d="M1363.74,943.56c-0.02-0.01-0.05-0.02-0.07-0.03c-0.01,0-0.02,0-0.02,0L1363.74,943.56z"/>
<path d="M1494.05,937.58c-0.02,0.01-0.04,0.02-0.06,0.03c0,0-0.01,0.01-0.01,0.01L1494.05,937.58z"/>
<path d="M1416.85,858.48c0.02-0.01,0.05-0.02,0.07-0.03c0-0.01-0.01-0.02-0.01-0.03C1416.9,858.41,1416.85,858.48,1416.85,858.48z"
	/>
<path d="M1446.37,944.74c0-0.01,0-0.03,0-0.04c-0.03,0-0.06,0-0.08,0L1446.37,944.74z"/>
<path d="M1357.15,948.83C1357.15,948.83,1357.15,948.83,1357.15,948.83c0.02,0.03,0.05,0.05,0.07,0.08L1357.15,948.83z"/>
<path d="M994.68,842.87c0-0.01,0-0.01,0-0.02c-0.02-0.01-0.04-0.02-0.05-0.03C994.62,842.82,994.68,842.87,994.68,842.87z"/>
<path d="M984.01,883.18c0-0.01,0-0.02,0-0.03c-0.02-0.02-0.04-0.04-0.06-0.06L984.01,883.18z"/>
<path d="M1005.94,947.71c0,0,0-0.01,0-0.01c-0.02-0.02-0.05-0.03-0.07-0.05L1005.94,947.71z"/>
<path d="M1036.57,832.53c0,0,0,0.01,0.01,0.01c0.06,0.01,0.13,0.01,0.19,0.02C1036.77,832.56,1036.57,832.53,1036.57,832.53z"/>
<path d="M1447.94,890.05c0.01-0.02,0.02-0.04,0.03-0.05l0,0L1447.94,890.05z"/>
<path d="M1378.46,958.9c0.02,0.02,0.05,0.05,0.07,0.07c0,0,0.01-0.01,0.01-0.01C1378.54,958.96,1378.46,958.9,1378.46,958.9z"/>
<path d="M1374.38,955.92c-0.02,0.02-0.04,0.03-0.06,0.05c0,0.01,0,0.02,0,0.04L1374.38,955.92z"/>
<path d="M1433.63,873.67c-0.01-0.01-0.02-0.02-0.03-0.03c-0.01-0.01-0.03-0.02-0.04-0.02L1433.63,873.67z"/>
<path d="M1385.42,956.95c0,0.01,0,0.01,0.01,0.02c0-0.01,0-0.01,0.01-0.02L1385.42,956.95z"/>
</svg>
