<?xml version="1.0" encoding="utf-8"?>
<!-- Generator: Adobe Illustrator 28.1.0, SVG Export Plug-In . SVG Version: 6.00 Build 0)  -->
<svg version="1.1" id="Layer_1" xmlns="http://www.w3.org/2000/svg" xmlns:xlink="http://www.w3.org/1999/xlink" x="0px" y="0px"
	 viewBox="0 0 1920 1080" style="enable-background:new 0 0 1920 1080;" xml:space="preserve">
<style type="text/css">
	.st0{opacity:0.9;}
	.st1{fill:#BFB326;}
	.st2{fill:none;stroke:#8B8332;stroke-width:3;stroke-miterlimit:10;}
	.st3{fill:none;stroke:#8B8332;stroke-width:3.0861;stroke-miterlimit:10;}
	.st4{fill:#8B8332;}
</style>
<g class="st0">
	<g>
		<path class="st1" d="M953.88,308.08c1.67-14.63,9.24-27.47,27.58-39.2c-8.29-21.7-52.29-16.61-34.73-31.82
			c24.12-20.88,32.49,2.03,64.26,5.01c1.7,0.16,3.29,2.89,5.02,2.89c0,0,0-0.2,0-0.2c2.38,0,4.76-0.94,7.1-1.23
			c2.82-1.78,6.3-2.53,9.13-4.29c8.98-5.6,16.4-11.26,24.66-16.88c17.63,10.51,22.67,8.47,30.93,27.26
			c-10.06,16.51-28.33,27.1-49.47,32.17c-5.69,3.65-10.56,7.31-14.86,10.31c-0.07,0.08-0.11,0.49-0.18,0.56
			c-2.56,2.7-4.14,6.7-7.78,8.46c-10.38,7.95-19.4,14.73-26.21,22.83c-22.41,26.65-14.21,36.87-45.57,51.99
			C912.38,391.06,949.94,342.67,953.88,308.08z"/>
		<path class="st2" d="M953.88,308.08c1.67-14.63,9.24-27.47,27.58-39.2c-8.29-21.7-52.29-16.61-34.73-31.82
			c24.12-20.88,32.49,2.03,64.26,5.01c1.7,0.16,3.29,2.89,5.02,2.89c0,0,0-0.2,0-0.2c2.38,0,4.76-0.94,7.1-1.23
			c2.82-1.78,6.3-2.53,9.13-4.29c8.98-5.6,16.4-11.26,24.66-16.88c17.63,10.51,22.67,8.47,30.93,27.26
			c-10.06,16.51-28.33,27.1-49.47,32.17c-5.69,3.65-10.56,7.31-14.86,10.31c-0.07,0.08-0.11,0.49-0.18,0.56
			c-2.56,2.7-4.14,6.7-7.78,8.46c-10.38,7.95-19.4,14.73-26.21,22.83c-22.41,26.65-14.21,36.87-45.57,51.99
			C912.38,391.06,949.94,342.67,953.88,308.08z"/>
	</g>
	<g>
		<path class="st1" d="M775.43,991.71c-13.9,0-28.38-1.44-39.29-5.8c-7.28-2.91-11.56-18.01-16.96-18.68
			c-10.35-1.3-23.08,5.75-35.31,6.36c-20.75,1.03-44.26,4.49-66.15-4.23c-37.32-14.87-61.57-51.57-75.43-76.95
			c-0.83-1.53,9.87-9.39,9.03-10.93c-14.62-26.65-31.67-51.9-29.52-86.14c3.36-53.61,15.37-114.47,42.35-172.98
			c27.05-58.64,61.27-112.38,100.28-150.35c3.72-3.62-1.91-13.11,1.63-16.35c-1.55,0.04,4.96,13.74,3.37,13.67
			c-33.95-1.44-66.62-21.93-94.78-36.14c-0.18,1.84-5.07-0.16-5.2,1.37c-0.71,8.24,9.95,18.78,7.75,26.51
			c-5.09,17.85-22.91,28.9-34.31,37.18c-3.67,2.66-3.02,9.31-5.67,11.69c-9.55,8.6-23.04,11.61-31.54,15.49
			c-7.03,3.21-15.27,3.96-21.72,3.97c-9.28,0.01-15.18-8.17-21.86-14.36c-15.17-14.06-17.63-32.78-14.49-44.82
			c0.83-3.19,1.27-6.56,1.26-8.26c-0.41-20.74,6.86-38.86,8.27-57.49c-32.5,37.43-64.45,76.01-101.2,108
			c-3.11,2.71-8.82,3.04-12.53,6.76c-7.46,7.5-19.87,12.19-29.43,18.33c-14.29,9.18-29.67,13.87-43.3,9.06
			c-11.37-4.02-15.14-19.1-20.45-44.93c-2.84-13.79-16.38-26.67-16.08-39.75c0.06-2.82-2.16-5.52-2.14-8.12
			c0.44-48.48,8.92-98.26,24.47-139.61c17.84-47.45,48.72-86.17,83.18-115.34c21.34-18.06,60.73-20.89,82.51-1.9
			c20.42,17.8,26.62,52.14,17.53,74.76c-15.21,37.84-33.84,74.95-52.15,110.28c-11.89,22.96-28.66,43.03-39.73,66.79
			c49.23-43.61,93.74-94.96,123.54-153.11c17.75-11.05,38.1,0.97,46.3,20.2c-13.06,45.09-12.37,90.71-11.29,144.96
			c0.13,6.58-16.44,14.86-17.94,20.72c2.67-1.87,10.67-6.71,14.28-9.96c4.29-3.86,11.74-3.32,16.13-6.5
			c6.18-4.48,3.28-15.52,4.4-19.43c1.09-3.83,6.98-8.17,7.51-14.42c1.26-14.7,5.67-31.13,15.17-43.92
			c5.17-6.96-0.39-21.36,8.03-23.43c8.42-2.07,5.91,22.12,13.72,25.89c6.25,3.02,19.55-7.93,25.69-4.83
			c26.69,13.5,51.47,35.53,78.11,36.67c3.34,0.14,14.38-7.73,17.87-8.68c-15.09-17.75-27.64-34.11-25.69-59.31
			c1.72-22.3,1.56-44.7,12.86-60.3c5.54-7.66,12.26-12.8,15.6-19.69c2.43-5.01,9.71-7.99,12.26-13.61
			c15.37-33.88,33.4-78.5,75.42-87.92c19.77-4.43,34.07,12.22,42.42,20.76c0.89,0.91,0.4,4.07,1.21,4.87
			c0.61,0.08,2.35,0.9,2.87,0.96c7.52,0.96,30.54-2.76,36.18,12.53c10.6,28.76-1.79,63.5-12.16,86.67
			c-2.26,5.04-17.73,4.12-19.55,8.65c-3.22,8.06-1.33,18.86-3.96,28.24c-5.29,18.86-7,40.41-19.48,57.7
			c-4.71,6.52-13.38,17.59-19.37,21.96c28.5,3.09,41.99-31.89,48.68-4.02c7.07,29.41-13.73,17.25-37.86,35.5
			c-13.49,10.2-30.92,16.78-48.9,15.32c-21.19,10.6-36.73,30.55-51.84,45.26c-73.01,71.06-139.62,190.13-145.92,290.71
			c-1.38,22.09,24.21,40.99,36.66,63.69c0.86,1.57-5.61,7.15-4.76,8.7c14.51,26.58,24.26,60.96,45.74,69.51
			c13.4,5.34,33.66-12.45,51.73-13.35c13.49-0.67,28.3,2.89,42.3,4.64c10.76,1.35,19.17,12.36,28.16,15.95
			c9.4,3.76,20.7,5.42,26.13,4.05c2.97-0.75,13.71-5.88,17.35-10.58c5.26-6.79,4.15-21.23,12.05-27.05
			c46.68-34.35,87.28-80.28,108.14-135.52c21.71-57.49,15.77-113.78-1.26-166.3c-5.92-18.25-23.64-34.46-42.33-45.78
			c1.35-20.96,8.92-23.48,24.69-37.35c11.32,6.85,27.72,14.97,39,25.25c13.73,12.5,21.6,27.56,26.41,42.39
			c10.17,31.36,7.24,64.52,5.55,98.79c-1.6,32.47-11.43,61.86-23.48,93.78c-23.69,62.74-59.61,118.19-112.75,157.28
			c-3.17,2.34,0.65,15.12-3.09,19.96c-8.29,10.71-23.93,17.64-40.96,21.94C783.09,988.34,779.58,991.71,775.43,991.71z
			 M377.88,230.06c-3.43,0-4.08,4.1-6.56,6.2c-55.32,46.84-98.8,124.23-99.64,217.92c-0.02,2.79,6.44,5.75,6.37,8.78
			c-0.25,10.85,1.76,23.14,3.63,32.26c0.5,2.41,2.97,4.5,5.28,5.32c0.38,0.13,5.92,11.22,9.12,9.16
			c5.7-3.66,12.58-12.55,18.81-18.82c2.08-2.09,0.33-12.5,2.47-14.58c-10.32-5.68-20.62,5.57-22.28-6.09
			c15.21-37.84,24.17-78.78,42.48-114.11c17.85-34.45,37.23-68.68,51.69-104.65c2.79-6.95,3.61-9.55-2-14.44
			C383.96,234.13,381.98,230.06,377.88,230.06z M786.29,216.25c-19.73,6.84-28.47,35.94-40.54,62.54
			c-2.55,5.62-16.67,5.99-19.33,11.48c-4.95,10.21-5.46,21.84-11.82,30.63c-8.82,12.18-15.25,24.92-16.06,35.41
			c-1.07,13.82,11.94,25.41,23.9,37.89c1.61-1.01,5.56,8.89,7.18,7.9c6.27-3.8,11.27-7.96,17.52-10.99
			c11.31-5.47,21.29-15.65,26.53-22.91c8.11-11.24,10.83-27.99,15.32-44.02c2.81-10.04-4.61-24.42-0.55-34.57
			c2.13-5.32,6-10.48,8.33-15.69c6.39-14.27,17.48-24.06,17.49-35.86c-5.52-0.87-4.76-8.58-10.3-13.36
			c-2.73-2.35-13.13,3.59-15.52,1.14C786.75,224.15,788.15,217.83,786.29,216.25z"/>
		<path class="st2" d="M775.43,991.71c-13.9,0-28.38-1.44-39.29-5.8c-7.28-2.91-11.56-18.01-16.96-18.68
			c-10.35-1.3-23.08,5.75-35.31,6.36c-20.75,1.03-44.26,4.49-66.15-4.23c-37.32-14.87-61.57-51.57-75.43-76.95
			c-0.83-1.53,9.87-9.39,9.03-10.93c-14.62-26.65-31.67-51.9-29.52-86.14c3.36-53.61,15.37-114.47,42.35-172.98
			c27.05-58.64,61.27-112.38,100.28-150.35c3.72-3.62-1.91-13.11,1.63-16.35c-1.55,0.04,4.96,13.74,3.37,13.67
			c-33.95-1.44-66.62-21.93-94.78-36.14c-0.18,1.84-5.07-0.16-5.2,1.37c-0.71,8.24,9.95,18.78,7.75,26.51
			c-5.09,17.85-22.91,28.9-34.31,37.18c-3.67,2.66-3.02,9.31-5.67,11.69c-9.55,8.6-23.04,11.61-31.54,15.49
			c-7.03,3.21-15.27,3.96-21.72,3.97c-9.28,0.01-15.18-8.17-21.86-14.36c-15.17-14.06-17.63-32.78-14.49-44.82
			c0.83-3.19,1.27-6.56,1.26-8.26c-0.41-20.74,6.86-38.86,8.27-57.49c-32.5,37.43-64.45,76.01-101.2,108
			c-3.11,2.71-8.82,3.04-12.53,6.76c-7.46,7.5-19.87,12.19-29.43,18.33c-14.29,9.18-29.67,13.87-43.3,9.06
			c-11.37-4.02-15.14-19.1-20.45-44.93c-2.84-13.79-16.38-26.67-16.08-39.75c0.06-2.82-2.16-5.52-2.14-8.12
			c0.44-48.48,8.92-98.26,24.47-139.61c17.84-47.45,48.72-86.17,83.18-115.34c21.34-18.06,60.73-20.89,82.51-1.9
			c20.42,17.8,26.62,52.14,17.53,74.76c-15.21,37.84-33.84,74.95-52.15,110.28c-11.89,22.96-28.66,43.03-39.73,66.79
			c49.23-43.61,93.74-94.96,123.54-153.11c17.75-11.05,38.1,0.97,46.3,20.2c-13.06,45.09-12.37,90.71-11.29,144.96
			c0.13,6.58-16.44,14.86-17.94,20.72c2.67-1.87,10.67-6.71,14.28-9.96c4.29-3.86,11.74-3.32,16.13-6.5
			c6.18-4.48,3.28-15.52,4.4-19.43c1.09-3.83,6.98-8.17,7.51-14.42c1.26-14.7,5.67-31.13,15.17-43.92
			c5.17-6.96-0.39-21.36,8.03-23.43c8.42-2.07,5.91,22.12,13.72,25.89c6.25,3.02,19.55-7.93,25.69-4.83
			c26.69,13.5,51.47,35.53,78.11,36.67c3.34,0.14,14.38-7.73,17.87-8.68c-15.09-17.75-27.64-34.11-25.69-59.31
			c1.72-22.3,1.56-44.7,12.86-60.3c5.54-7.66,12.26-12.8,15.6-19.69c2.43-5.01,9.71-7.99,12.26-13.61
			c15.37-33.88,33.4-78.5,75.42-87.92c19.77-4.43,34.07,12.22,42.42,20.76c0.89,0.91,0.4,4.07,1.21,4.87
			c0.61,0.08,2.35,0.9,2.87,0.96c7.52,0.96,30.54-2.76,36.18,12.53c10.6,28.76-1.79,63.5-12.16,86.67
			c-2.26,5.04-17.73,4.12-19.55,8.65c-3.22,8.06-1.33,18.86-3.96,28.24c-5.29,18.86-7,40.41-19.48,57.7
			c-4.71,6.52-13.38,17.59-19.37,21.96c28.5,3.09,41.99-31.89,48.68-4.02c7.07,29.41-13.73,17.25-37.86,35.5
			c-13.49,10.2-30.92,16.78-48.9,15.32c-21.19,10.6-36.73,30.55-51.84,45.26c-73.01,71.06-139.62,190.13-145.92,290.71
			c-1.38,22.09,24.21,40.99,36.66,63.69c0.86,1.57-5.61,7.15-4.76,8.7c14.51,26.58,24.26,60.96,45.74,69.51
			c13.4,5.34,33.66-12.45,51.73-13.35c13.49-0.67,28.3,2.89,42.3,4.64c10.76,1.35,19.17,12.36,28.16,15.95
			c9.4,3.76,20.7,5.42,26.13,4.05c2.97-0.75,13.71-5.88,17.35-10.58c5.26-6.79,4.15-21.23,12.05-27.05
			c46.68-34.35,87.28-80.28,108.14-135.52c21.71-57.49,15.77-113.78-1.26-166.3c-5.92-18.25-23.64-34.46-42.33-45.78
			c1.35-20.96,8.92-23.48,24.69-37.35c11.32,6.85,27.72,14.97,39,25.25c13.73,12.5,21.6,27.56,26.41,42.39
			c10.17,31.36,7.24,64.52,5.55,98.79c-1.6,32.47-11.43,61.86-23.48,93.78c-23.69,62.74-59.61,118.19-112.75,157.28
			c-3.17,2.34,0.65,15.12-3.09,19.96c-8.29,10.71-23.93,17.64-40.96,21.94C783.09,988.34,779.58,991.71,775.43,991.71z
			 M377.88,230.06c-3.43,0-4.08,4.1-6.56,6.2c-55.32,46.84-98.8,124.23-99.64,217.92c-0.02,2.79,6.44,5.75,6.37,8.78
			c-0.25,10.85,1.76,23.14,3.63,32.26c0.5,2.41,2.97,4.5,5.28,5.32c0.38,0.13,5.92,11.22,9.12,9.16
			c5.7-3.66,12.58-12.55,18.81-18.82c2.08-2.09,0.33-12.5,2.47-14.58c-10.32-5.68-20.62,5.57-22.28-6.09
			c15.21-37.84,24.17-78.78,42.48-114.11c17.85-34.45,37.23-68.68,51.69-104.65c2.79-6.95,3.61-9.55-2-14.44
			C383.96,234.13,381.98,230.06,377.88,230.06z M786.29,216.25c-19.73,6.84-28.47,35.94-40.54,62.54
			c-2.55,5.62-16.67,5.99-19.33,11.48c-4.95,10.21-5.46,21.84-11.82,30.63c-8.82,12.18-15.25,24.92-16.06,35.41
			c-1.07,13.82,11.94,25.41,23.9,37.89c1.61-1.01,5.56,8.89,7.18,7.9c6.27-3.8,11.27-7.96,17.52-10.99
			c11.31-5.47,21.29-15.65,26.53-22.91c8.11-11.24,10.83-27.99,15.32-44.02c2.81-10.04-4.61-24.42-0.55-34.57
			c2.13-5.32,6-10.48,8.33-15.69c6.39-14.27,17.48-24.06,17.49-35.86c-5.52-0.87-4.76-8.58-10.3-13.36
			c-2.73-2.35-13.13,3.59-15.52,1.14C786.75,224.15,788.15,217.83,786.29,216.25z"/>
	</g>
	<g>
		<path class="st1" d="M1450.68,880.37c-14.59,15.1-31.44,8.73-36.41-11.67c19.66-75.4,53.28-143.67,83.95-213.32
			c10.02-22.74,8.41-51.41,18.12-74.56c8.41-20.04,15.72-40.92,22.36-61.81c7.74-24.34,26.69-45.32,37.42-69.33
			c1.3-2.9-4.01-13.2-2.68-16.1c-13.28,5.47-26.22,14.79-39.45,20.54c-38.98,16.93-75.73,40.48-113.9,49.73
			c-10.11,20.15-19.52,34.6-26.26,49.68c-16.46,36.86-54.78,58.25-95.4,64.59c-27.36,4.27-52.55,3.71-80.09-8.4
			c-13.46-5.92-31.43-2.36-44.17-8.94c-17.69-9.14-32.61-24.92-49.87-31.25c-4.76,3.21-9.02,12.49-14.25,16.29
			c-23.1,16.81-50.22,37.05-80.15,37.05c-3.58,0-7.42-2.17-11.13-2.75c-6.86-1.07-3.32-4.3-8.46-8.97
			c-5.14-4.68-4.48-1.74-6.18-8.48c-6.96-27.5,12.36-58.52,38.46-68.51c3.42-1.31,11.31,6.7,15.31,4.78
			c13.06-6.27,26.86-13.78,45.43-10.44c4.83,0.87,7.98-9.53,12.66-8.3c11.44-6.2,24.48-6.26,35.98-11.41
			c18.57-8.32,36.1-15.29,50.74-26.2c12.91-9.62,10.51-28.05,12.03-42.28c0.83-7.79,8.09-14.93,7.31-21.5
			c-0.5-4.16,1.24-8.64,0.43-9.21c-2.41-1.7-17.51-6.65-23.25-5.5c-6.18,1.24-11.16,4.82-17.73,5.23
			c-40.43,2.52-80.23,23.99-113.05,53.02c-20.98-0.84-37.66-9.09-33.95-29.76c39.79-35.19,95.26-52.59,144.98-55.69
			c3.73-0.23,6.75-11.64,11.78-12.65c14.93-2.98,36.44,1.51,53.59,13.61c24.57,17.32,14.8,49.16,12.9,67.04
			c-3.45,32.34-11.67,54.45-31.51,69.25c-17.82,13.29-35.08,25.85-54.38,34.51c7.82,3.83,16.33,6.25,23.96,10.2
			c12.72,6.58,25.86,9.97,38.12,15.36c17.67,7.77,37.33,8.12,58.38,4.83c26.71-4.17,50.88-19.34,61.6-43.34
			c7.83-17.53,24.73-36.24,36.61-59.74c3.35-15.5,8.26-49.74,57.04-130.8c19.61-32.59,44.6-64.84,63.78-94.6
			c19.38-31.86,34.3-63.81,49.15-84.43c20.96,1.22,19.46,10.92,34.47,25.59c-4.09,6.45-14.3,13.71-22.56,26.35
			c-9.08,13.91-18.51,31.48-30.19,49.58c-32.75,53.83-70.04,120.69-100.94,179.13c24.15-8.59,50.57-22.45,75.13-33.12
			c27.42-11.91,56.41-21.31,83.78-30.62c11.83-24.36,23.97-49.06,34.33-73.93c0.4-0.99,6.49-2.71,7-4.78
			c1.34-5.37-2.87-13.1-0.12-18.63c7.42-14.91,22.82-25.32,32.53-23.4c3.52,0.7,15.9,11.3,19.1,26.7c0.12,0.59-1.99-5.4-1.89-4.81
			c3.38-0.63,6.02,0.31,8.84-0.39c10.16-2.54,21.79,7.35,33.49,9.13c8.93,1.36,19.21-0.57,22.4,8.72c1.17,3.41,8.09,6.15,8.53,8.89
			c0.02,0.13-0.87-4.52-0.85-4.37c5.35,6.29,1.76,19.86,3.62,27.51c3.07,12.61,4.75,28.04-2.93,37.4
			c-23.86,29.07-63.74,41.99-96.85,48.26c-4.93,0.93-12.92-15.03-17.48-14.09c-6.79,1.4-7.49,14.81-14.62,16.89
			c-7.41,15.29-27.48,23.37-34.33,38.68c-9.77,21.85-15.55,46.31-23.29,70.61c-6.93,21.77-9.3,45.65-18.43,67.43
			c-9.86,23.49-14.16,49.84-24.25,72.75C1505.02,739.72,1469.5,808.22,1450.68,880.37z M1671.19,331.66
			c-5.44,12.77-15.35,23.87-21.27,36.42c1.29-0.25,7.93,7.66,9.2,7.42c26.46-5.01,47.68-20.81,62.28-36.78
			c-0.45-1.13-0.45,5.33-1.89,3.94c-3.27-3.16,2.99-15.13,1.74-18.66c-1.87,0.43-9.26,0.34-11.02,0.78
			C1698.8,327.63,1685.19,336.26,1671.19,331.66z"/>
		<path class="st2" d="M1450.68,880.37c-14.59,15.1-31.44,8.73-36.41-11.67c19.66-75.4,53.28-143.67,83.95-213.32
			c10.02-22.74,8.41-51.41,18.12-74.56c8.41-20.04,15.72-40.92,22.36-61.81c7.74-24.34,26.69-45.32,37.42-69.33
			c1.3-2.9-4.01-13.2-2.68-16.1c-13.28,5.47-26.22,14.79-39.45,20.54c-38.98,16.93-75.73,40.48-113.9,49.73
			c-10.11,20.15-19.52,34.6-26.26,49.68c-16.46,36.86-54.78,58.25-95.4,64.59c-27.36,4.27-52.55,3.71-80.09-8.4
			c-13.46-5.92-31.43-2.36-44.17-8.94c-17.69-9.14-32.61-24.92-49.87-31.25c-4.76,3.21-9.02,12.49-14.25,16.29
			c-23.1,16.81-50.22,37.05-80.15,37.05c-3.58,0-7.42-2.17-11.13-2.75c-6.86-1.07-3.32-4.3-8.46-8.97
			c-5.14-4.68-4.48-1.74-6.18-8.48c-6.96-27.5,12.36-58.52,38.46-68.51c3.42-1.31,11.31,6.7,15.31,4.78
			c13.06-6.27,26.86-13.78,45.43-10.44c4.83,0.87,7.98-9.53,12.66-8.3c11.44-6.2,24.48-6.26,35.98-11.41
			c18.57-8.32,36.1-15.29,50.74-26.2c12.91-9.62,10.51-28.05,12.03-42.28c0.83-7.79,8.09-14.93,7.31-21.5
			c-0.5-4.16,1.24-8.64,0.43-9.21c-2.41-1.7-17.51-6.65-23.25-5.5c-6.18,1.24-11.16,4.82-17.73,5.23
			c-40.43,2.52-80.23,23.99-113.05,53.02c-20.98-0.84-37.66-9.09-33.95-29.76c39.79-35.19,95.26-52.59,144.98-55.69
			c3.73-0.23,6.75-11.64,11.78-12.65c14.93-2.98,36.44,1.51,53.59,13.61c24.57,17.32,14.8,49.16,12.9,67.04
			c-3.45,32.34-11.67,54.45-31.51,69.25c-17.82,13.29-35.08,25.85-54.38,34.51c7.82,3.83,16.33,6.25,23.96,10.2
			c12.72,6.58,25.86,9.97,38.12,15.36c17.67,7.77,37.33,8.12,58.38,4.83c26.71-4.17,50.88-19.34,61.6-43.34
			c7.83-17.53,24.73-36.24,36.61-59.74c3.35-15.5,8.26-49.74,57.04-130.8c19.61-32.59,44.6-64.84,63.78-94.6
			c19.38-31.86,34.3-63.81,49.15-84.43c20.96,1.22,19.46,10.92,34.47,25.59c-4.09,6.45-14.3,13.71-22.56,26.35
			c-9.08,13.91-18.51,31.48-30.19,49.58c-32.75,53.83-70.04,120.69-100.94,179.13c24.15-8.59,50.57-22.45,75.13-33.12
			c27.42-11.91,56.41-21.31,83.78-30.62c11.83-24.36,23.97-49.06,34.33-73.93c0.4-0.99,6.49-2.71,7-4.78
			c1.34-5.37-2.87-13.1-0.12-18.63c7.42-14.91,22.82-25.32,32.53-23.4c3.52,0.7,15.9,11.3,19.1,26.7c0.12,0.59-1.99-5.4-1.89-4.81
			c3.38-0.63,6.02,0.31,8.84-0.39c10.16-2.54,21.79,7.35,33.49,9.13c8.93,1.36,19.21-0.57,22.4,8.72c1.17,3.41,8.09,6.15,8.53,8.89
			c0.02,0.13-0.87-4.52-0.85-4.37c5.35,6.29,1.76,19.86,3.62,27.51c3.07,12.61,4.75,28.04-2.93,37.4
			c-23.86,29.07-63.74,41.99-96.85,48.26c-4.93,0.93-12.92-15.03-17.48-14.09c-6.79,1.4-7.49,14.81-14.62,16.89
			c-7.41,15.29-27.48,23.37-34.33,38.68c-9.77,21.85-15.55,46.31-23.29,70.61c-6.93,21.77-9.3,45.65-18.43,67.43
			c-9.86,23.49-14.16,49.84-24.25,72.75C1505.02,739.72,1469.5,808.22,1450.68,880.37z M1671.19,331.66
			c-5.44,12.77-15.35,23.87-21.27,36.42c1.29-0.25,7.93,7.66,9.2,7.42c26.46-5.01,47.68-20.81,62.28-36.78
			c-0.45-1.13-0.45,5.33-1.89,3.94c-3.27-3.16,2.99-15.13,1.74-18.66c-1.87,0.43-9.26,0.34-11.02,0.78
			C1698.8,327.63,1685.19,336.26,1671.19,331.66z"/>
	</g>
</g>
<path d="M842.28,830.54c0,0.01,0,0.01,0,0.02c0,0,0.01,0,0.01,0.01L842.28,830.54z"/>
<path d="M866.96,853.61c0.01,0.02,0.02,0.03,0.02,0.05c0.02-0.02,0.05-0.03,0.07-0.05C867.06,853.61,866.96,853.61,866.96,853.61z"
	/>
<path d="M807.39,882c0,0.04,0,0.07,0,0.11c0.01,0.01,0.01,0.02,0.02,0.03C807.4,882.13,807.39,882,807.39,882z"/>
<path d="M820.54,874.22c-0.03,0-0.05,0-0.08-0.01c0,0.02,0,0.04,0,0.07L820.54,874.22z"/>
<path d="M891.04,862.37c-0.03,0-0.05,0-0.08,0c0,0.02,0,0.04,0,0.07L891.04,862.37z"/>
<path d="M818.09,875.4c0.02,0.02,0.04,0.04,0.06,0.06c0.01,0,0.01,0,0.02,0L818.09,875.4z"/>
<path d="M889.23,867.09c-0.02,0.02-0.03,0.04-0.05,0.06c0,0.01,0,0.02,0,0.03L889.23,867.09z"/>
<path d="M713.3,877.17c0,0.02,0,0.03,0,0.05c0.01,0.01,0.01,0.02,0.02,0.03L713.3,877.17z"/>
<path d="M706.8,904.4c-0.02,0.03-0.04,0.05-0.07,0.08c0,0,0,0.01,0,0.01L706.8,904.4z"/>
<path d="M713.92,874.23c-0.02,0-0.05,0-0.07,0c0,0.02,0,0.05,0.01,0.07L713.92,874.23z"/>
<path d="M1363.74,943.56c-0.02-0.01-0.05-0.02-0.07-0.03c-0.01,0-0.02,0-0.02,0L1363.74,943.56z"/>
<path d="M1494.05,937.58c-0.02,0.01-0.04,0.02-0.06,0.03c0,0-0.01,0.01-0.01,0.01L1494.05,937.58z"/>
<path d="M1416.85,858.48c0.02-0.01,0.05-0.02,0.07-0.03c0-0.01-0.01-0.02-0.01-0.03C1416.9,858.41,1416.85,858.48,1416.85,858.48z"
	/>
<path d="M1446.37,944.74c0-0.01,0-0.03,0-0.04c-0.03,0-0.06,0-0.08,0L1446.37,944.74z"/>
<path d="M1357.15,948.83C1357.15,948.83,1357.15,948.83,1357.15,948.83c0.02,0.03,0.05,0.05,0.07,0.08L1357.15,948.83z"/>
<path d="M994.68,842.87c0-0.01,0-0.01,0-0.02c-0.02-0.01-0.04-0.02-0.05-0.03C994.62,842.82,994.68,842.87,994.68,842.87z"/>
<path d="M984.01,883.18c0-0.01,0-0.02,0-0.03c-0.02-0.02-0.04-0.04-0.06-0.06L984.01,883.18z"/>
<path d="M1005.94,947.71c0,0,0-0.01,0-0.01c-0.02-0.02-0.05-0.03-0.07-0.05L1005.94,947.71z"/>
<path d="M1036.57,832.53c0,0,0,0.01,0.01,0.01c0.06,0.01,0.13,0.01,0.19,0.02C1036.77,832.56,1036.57,832.53,1036.57,832.53z"/>
<path d="M1447.94,890.05c0.01-0.02,0.02-0.04,0.03-0.05l0,0L1447.94,890.05z"/>
<path d="M1378.46,958.9c0.02,0.02,0.05,0.05,0.07,0.07c0,0,0.01-0.01,0.01-0.01C1378.54,958.96,1378.46,958.9,1378.46,958.9z"/>
<path d="M1374.38,955.92c-0.02,0.02-0.04,0.03-0.06,0.05c0,0.01,0,0.02,0,0.04L1374.38,955.92z"/>
<path d="M1433.63,873.67c-0.01-0.01-0.02-0.02-0.03-0.03c-0.01-0.01-0.03-0.02-0.04-0.02L1433.63,873.67z"/>
<path d="M1385.42,956.95c0,0.01,0,0.01,0.01,0.02c0-0.01,0-0.01,0.01-0.02L1385.42,956.95z"/>
</svg>
