<?xml version="1.0" encoding="utf-8"?>
<!-- Generator: Adobe Illustrator 28.1.0, SVG Export Plug-In . SVG Version: 6.00 Build 0)  -->
<svg version="1.1" id="Layer_1" xmlns="http://www.w3.org/2000/svg" xmlns:xlink="http://www.w3.org/1999/xlink" x="0px" y="0px"
	 viewBox="0 0 1920 1080" style="enable-background:new 0 0 1920 1080;" xml:space="preserve">
<style type="text/css">
	.st0{opacity:0.9;}
	.st1{fill:#BFB326;}
	.st2{fill:none;stroke:#8B8332;stroke-width:3;stroke-miterlimit:10;}
	.st3{fill:none;stroke:#8B8332;stroke-width:3.0861;stroke-miterlimit:10;}
	.st4{fill:#8B8332;}
</style>
<path d="M842.28,830.54c0,0.01,0,0.01,0,0.02c0,0,0.01,0,0.01,0.01L842.28,830.54z"/>
<path d="M866.96,853.61c0.01,0.02,0.02,0.03,0.02,0.05c0.02-0.02,0.05-0.03,0.07-0.05C867.06,853.61,866.96,853.61,866.96,853.61z"
	/>
<path d="M807.39,882c0,0.04,0,0.07,0,0.11c0.01,0.01,0.01,0.02,0.02,0.03C807.4,882.13,807.39,882,807.39,882z"/>
<path d="M820.54,874.22c-0.03,0-0.05,0-0.08-0.01c0,0.02,0,0.04,0,0.07L820.54,874.22z"/>
<path d="M891.04,862.37c-0.03,0-0.05,0-0.08,0c0,0.02,0,0.04,0,0.07L891.04,862.37z"/>
<path d="M818.09,875.4c0.02,0.02,0.04,0.04,0.06,0.06c0.01,0,0.01,0,0.02,0L818.09,875.4z"/>
<path d="M889.23,867.09c-0.02,0.02-0.03,0.04-0.05,0.06c0,0.01,0,0.02,0,0.03L889.23,867.09z"/>
<path d="M713.3,877.17c0,0.02,0,0.03,0,0.05c0.01,0.01,0.01,0.02,0.02,0.03L713.3,877.17z"/>
<path d="M706.8,904.4c-0.02,0.03-0.04,0.05-0.07,0.08c0,0,0,0.01,0,0.01L706.8,904.4z"/>
<path d="M713.92,874.23c-0.02,0-0.05,0-0.07,0c0,0.02,0,0.05,0.01,0.07L713.92,874.23z"/>
<path d="M1363.74,943.56c-0.02-0.01-0.05-0.02-0.07-0.03c-0.01,0-0.02,0-0.02,0L1363.74,943.56z"/>
<path d="M1494.05,937.58c-0.02,0.01-0.04,0.02-0.06,0.03c0,0-0.01,0.01-0.01,0.01L1494.05,937.58z"/>
<path d="M1416.85,858.48c0.02-0.01,0.05-0.02,0.07-0.03c0-0.01-0.01-0.02-0.01-0.03C1416.9,858.41,1416.85,858.48,1416.85,858.48z"
	/>
<path d="M1446.37,944.74c0-0.01,0-0.03,0-0.04c-0.03,0-0.06,0-0.08,0L1446.37,944.74z"/>
<path d="M1357.15,948.83C1357.15,948.83,1357.15,948.83,1357.15,948.83c0.02,0.03,0.05,0.05,0.07,0.08L1357.15,948.83z"/>
<path d="M994.68,842.87c0-0.01,0-0.01,0-0.02c-0.02-0.01-0.04-0.02-0.05-0.03C994.62,842.82,994.68,842.87,994.68,842.87z"/>
<path d="M984.01,883.18c0-0.01,0-0.02,0-0.03c-0.02-0.02-0.04-0.04-0.06-0.06L984.01,883.18z"/>
<path d="M1005.94,947.71c0,0,0-0.01,0-0.01c-0.02-0.02-0.05-0.03-0.07-0.05L1005.94,947.71z"/>
<path d="M1036.57,832.53c0,0,0,0.01,0.01,0.01c0.06,0.01,0.13,0.01,0.19,0.02C1036.77,832.56,1036.57,832.53,1036.57,832.53z"/>
<path d="M1447.94,890.05c0.01-0.02,0.02-0.04,0.03-0.05l0,0L1447.94,890.05z"/>
<path d="M1378.46,958.9c0.02,0.02,0.05,0.05,0.07,0.07c0,0,0.01-0.01,0.01-0.01C1378.54,958.96,1378.46,958.9,1378.46,958.9z"/>
<path d="M1374.38,955.92c-0.02,0.02-0.04,0.03-0.06,0.05c0,0.01,0,0.02,0,0.04L1374.38,955.92z"/>
<path d="M1433.63,873.67c-0.01-0.01-0.02-0.02-0.03-0.03c-0.01-0.01-0.03-0.02-0.04-0.02L1433.63,873.67z"/>
<path d="M1385.42,956.95c0,0.01,0,0.01,0.01,0.02c0-0.01,0-0.01,0.01-0.02L1385.42,956.95z"/>
<g class="st0">
	<path class="st1" d="M394.02,1025.67c-18.47-10-28.93-11.81-30.29-32.77c20.98-14.77,48.77-29.7,72.21-39.26
		c29.68-12.1,63.59-15.09,82.17-34.81c19.79-21.01,29.96-52.78,44.46-82.69c16.89-34.85,30.15-75.15,59.02-101.87
		c44.17-40.88,104.7-59.68,160.39-79.6c33.45-11.97,63.49-25.44,92.2-40.75c20.43-10.89,40.87-17.72,60.18-25.84
		c-7.24-2.37-10.84-8.83-17.99-11.31c-17.22-5.97-35.83-3.47-51.79-7.07c-2.75,1.63-5.22,4.25-7.95,6.21
		c-5.32,3.82-13.34,3.66-18.95,6.52c-15.14,7.7-24.76,6.3-30.98,1.87c-6.14-4.37-10.95-13-8.96-29.71
		c0.41-3.46-4.41-12.4-3.54-15.94c-2.66,4.78,2.63,17.29-0.1,22.55c-14.58,28.04-33.36,63.76-66.71,75.05
		c-33.56,11.37-70.28-1.91-103.51-9.81c-18.38-4.37-35.47-9.62-51.41-10.12c-3.55-0.11-7.36,0.97-11.33,0.89
		c-20.12-0.41-44.22-5.65-65.28-10.95c-13.41-3.37-28.22-0.52-36.28-7.25c-10.86-9.06-14.04-25.38-14.75-39.41
		c-0.6-11.82,7.74-22.78,29.49-36.92c11.55-7.52,20.78-21.04,34.34-26.13c10.11-3.8,22.92-3.11,29.19-7.03
		c10.09-6.3,23.81-13.27,33.91-19.17c-7.98-0.56-21.05-4.7-28.97-5.29c-39.87-2.99-77.58-1.51-114.18-0.19
		c-28.83,1.04-56.4,12.65-86.77,24.21c-23.69,9.02-49.77,13.1-75.3,17.86c-65.8,12.26-133.68,7.88-194.79-21.26
		c-8.01-3.82-11.99-17.16-27.68-51.29c-7.79-16.96-26.68-31.75-29.43-41.12c-3.89-13.3,8.09-31.65,17.5-34.92
		c1.17-0.41-1.72,4.88-0.47,4.68c-0.14-12.35,12.57-22.96,14.69-34.48c4.46-24.27,7.94-46.42,26.26-54.86
		c21.7-10,42.35,11.43,58.6,23.28c5.63,4.11,17.4,2.35,20.98,2.98c34.41,3.62,68.79,5.45,106.11,3.11c31.91-2,63-9.48,95.52-7.57
		c-12.98-6.25-23.49-6.16-36.38-12.42c-59.51-28.91-124.92-54.98-186.23-79.34c-12.66-16.68-5.3-34.79,15.64-34.59
		c179.48,41.79,353.17,59.49,501.9,69.69c27.23,1.87,54.97,5.5,81.54,2.97c46.89-4.47,97.88-20.94,147.73-1.84
		c25.69,9.84,50.52,28.12,74.2,43.36c33.78,21.74,63.27,39.82,96.33,43.05c0.69-0.54,5.27,12.35,5.99,11.79
		c1.33-1.03,3.79-2.71,5.33-3.94c0.43-0.59-0.6-3.74-0.23-4.22c1.38-1.75-7.36-7.62-5.91-8.79c-0.7-1.95,10.58-5.98,9.86-7.9
		c-7.78-10.99-25-17.56-36.2-29.15c-17.02-17.63-36.47-35.46-46.58-56.64c-5.08-10.65-16.14-13.54-11.56-24.41
		c4.58-10.88,13.86-6.48,25.03-10.29c7.15-2.44,15.82,3.21,22.27,6.8c7.17,3.99,6.45,12.18,8.59,21.52
		c1.62,7.07,19.12,14.61,29.1,22.53c12.36,9.81,22.17,22.97,29.56,38.32c2.74,5.68,12.76,7.82,15.08,13.72
		c2.9,4.44,3.68,9.98,5.92,14.69c3.94,8.25-1.82,18.88-1.4,27.52c4.11,11.94,11.15,25.72,16.16,36.19
		c13.16,5.36,28.49,14.99,42.07,19.43c5.77-1.74,14.19-16.76,20.33-15.38c7.32,1.65,9.05,16.91,13.5,22.38
		c15.44,4.2,33.62,3.89,49.5,7.36c27.14-9.84,53.47-26.04,84.13-45.08c13.48-8.37,30.31-6.48,44.65-7.78
		c3.25-0.29,5.72-4.01,9.11-4.43c7.73-15.92,21.54-26.51,35.15-38.81c15.88-14.36,30.84-35.52,50.55-50.52
		c10.3-10.23,22.12-16,34.77-22.66c16.33,13.06,21.02,12.63,27.81,32.41c-8.47,6.72-21.22,16.08-31.18,23.65
		c-0.39,0.3-0.91,0.27-1.3,0.57c-11.09,11.32-20.05,26.08-30.37,39.49c-11.56,15.02-21.49,33.16-34.56,45.85
		c-4.75,4.62-19.81-1.61-25.46,0.8c-2.45,6.14-0.75,17.22-3.14,23.65c-3.44,9.26-3.09,11.18-7.03,20.42
		c85.43,13.49,171.01,44.03,251.84,75.83c-9.9-35.89-19.79-77.74-21.94-124.5c-0.33-7.28,2.5-14.91,2-22.85
		c-3.59-57.5-4.41-126.55,44-166.83c20.32-16.91,44.15-9.02,63.54-2.56c7.8,2.6,16.04,8.68,21.33,9.07
		c26.72,1.96,49.02,12.35,70.12,25.78c24.52,15.61,46.78,30.05,54.31,55.35c29.14,97.89-7.72,202.2-37.92,294.49
		c-1.22,3.73-2.45,7.44-3.66,11.14c-4.1,12.56-7.98,25.44-11.9,39.07c-9.08,31.58-9.1,68.58-23.82,97.43
		c-5.65,11.08-11.43,14.39-18.18,23.3c10.41,1.12,15.98-0.61,32.51,3.57c8.66,2.19,14.28,12.38,21.09,13.63
		c14.67,2.7,26,5.58,37.42,13.74c11.97,8.55,26.91,17.95,32.93,39.08c8.67,30.41-6.42,68.12-30.15,93.89
		c-17.68,19.2-39.13,31.94-61.57,30.26c-0.57,8.34-2.29,18.29-12.79,25.79c-7.99,5.71-17.84,1.25-29.73-2.19
		c-25.1-7.26-37.77-28.31-52.9-46.41c-9.72-11.64-24.96-17.31-34.64-23.31c-11.63-7.22-26.76-11.24-42.69-16.33
		c-26.44-8.44-56.62-15.58-76.1-37.35c-21.19-23.67-37.79-53-51.43-81.23c-14.7-30.42-18.15-66.94-39.44-86.8
		c-7.32-6.83-27.86-5.27-43.36-7.46c-18.45-2.6-39.46-1.42-55.4-11.88c-12.89-8.46-7.46-29.09-11.23-44.66
		c-0.41-1.67-5.39-6-5.91-8.06c-0.97,0.95-5.53,5.44-6.32,6.24c-11.44,11.42-22.66,23.23-38.5,22.61
		c-6.31-0.26-6.01-7.49-9.88-12.51c-4.37-5.68-11.31-6.51-10.32-14.23c-7.05,1.24-14.1,2.67-19.9-1.3
		c-5.39-3.68-7.68-11.44-8.19-17.93c-3.19-41.06,19.25-78.82,43.5-108.27c2.33-2.83,11.95-8.17,14.19-10.93
		c-26.57-4.39-55.52,5.06-81.94-0.48c-12.6,3.98-26.53-7.47-40.13-5.38c-5.88,0.91-13.68,5.91-23.95-7.36
		c-3.52-4.54-2.78-11.34-5.63-16.46c-0.07-0.13-7.74,7.28-7.81,7.14c-1.94-0.57-3.47,0.67-5.4,0.09c-0.37,0.19,0.34-5.5-0.01-5.33
		c-5.61,2.83-10.35,9.27-16.33,11.11c-16.22,4.99-32.34,0.71-36.83-3.42c-2.15-1.98-5.04-7.4-7-9.49
		c2.76,4.31,6.37,10.57,9.51,14.95c11.89,16.57,23.31,31.29,22.88,54.06c-0.4,21.19-10.4,34.8-23.17,46.98
		c-6.36,6.07-8.26,16.81-9.84,21.43c-2.74,8.06-3.93,16.93-6.43,26.34c-8.86,33.32-20.11,76.86-52.79,96.46
		c-15.71,9.42-37.76,6.64-55.89,7.9c-1.01,1.33-10.02,2.58-11.03,3.98c2.12,5.34,9.34,11.66,12.37,17.8
		c10.71,21.7,33.7,50.13,20.97,76.12c-1.2,2.45-4.19-2.2-5.71-0.06c4.3,1.24,5.56,1,9.69,2.3c13.45,4.23,25.71,14.59,35.08,13.46
		c13.9-1.67,31.71-6.83,47.92-16.34c21.27-12.48,40.7-29.74,66.16-30.53c19.03-0.58,37.47,7.93,50.84,18.97
		c5.53,4.56,12.78,14.05,16.59,14.37c0.02,0-0.21,5.19-0.19,5.19c5.69,0,17.82-8.28,26.58-14.54
		c14.36-10.25,29.39-20.41,48.59-20.41c0.15,0,0.24,3.73,0.39,3.73c28.84,0.28,60.25-3.15,90.81,13.17
		c23.36,12.47,40.31,36.21,59.09,51.11c1.63-0.73,4.78-6.21,6.08-6.8c15.01-6.83,26.24-12.98,36.46-8.74
		c5.52,2.29,15.26,7.8,17.34,13.37c2.36,6.31-0.03,18.59-3.27,24.49c-6.3,11.49-25.71,3.73-40.53,6.9c-1.69,0.36-3.05,4.57-5,5.02
		c-0.11,0.04,2.7,9.18,2.59,9.23c-1.09,0.42-9.55-8.85-11.37-8.31c-34.82,37.47-62.77,79.21-100.51,102.26
		c-45.46,27.76-96.59,33.16-143.38,38.11c-45.16,4.78-89.79-4.36-134.46-10.48c-52.07-7.14-98.65-12.56-144.87-2.81
		c-18.24-10.41-29.91-22.09-16.27-38.07c53.36-11.26,111.62,5.8,164.95,13.11c44.13,6.05,86.18,1.03,126.27-3.22
		c88.32-9.35,163.04-61.13,212.76-111.95c-34.64-26.56-74.37-52.6-116.99-53.01c-5.69-0.06-20.28,4.45-29.08,10.73
		c-14.47,10.33-27.35,34.02-46.74,33.87c-18.28-0.18-28.97-24.03-41.92-34.72c-5.51-4.55-19.68-7.66-23.52-8.03
		c-14.74,0.49-31.22,9.63-48.69,19.88c-19.21,11.27-39.44,20.03-62.04,22.73c-18.35,2.2-34.06-7.8-51.75-13.37
		c-16.07-5.06-37.97-9.91-46.85-5.91c-7.65,3.45-7.49,27.34-13.38,41.04c-7.18,16.71-13.8,37.7-27.55,49.57
		c-9.37,8.09-21.37,14.08-31.86,22.94c-12.23,10.33-22.35,22.8-34.24,33.12c-8.56,9.87-25.78,17.68-36.84,24.76
		c-17.07-12.09-14.96-17.62-23.45-36.74c7.74-7.19,14.82-16.56,23.39-24.03c14.01-16.77,27.34-37.02,38.73-58.39
		c12.02-22.55,22.9-47.2,38.65-66.07c11.61-13.92,29.68-21.9,46.5-28.45c11.99-4.67,25.04-9.28,28.06-15.45
		c3.65-7.44-5.25-21.03-11.89-34.48c-2.26-4.57-2.3-14.93-4.41-19.63c-15.76,10.5-33.03,21.76-51.69,25.89
		c-15.83,3.5-35.52,0.59-44.66,7.59c-0.22,0.18,1.73,3.24,1.51,3.43c-0.65,0.54,5.85-3.34,5.27-3.96
		c-14.33-15.35-22.63-7.92-35.82-24.26c1-0.89,2.31-6.14,3.35-6.96c20.35-16.96,43.86-40.97,67.08-55.57
		c16.44-10.33,39.81-5.14,58.98-6.37c6.58-7.29,12.52-19.86,21.75-21.23c7.53-1.12,13.68,8.02,19.77,12.74
		c0.93,0.72,3.61,7.79,5.53,10.66c7.04-1.2,18.28-5.05,23.29-8.06c18.07-10.84,18.75-44.02,26.21-72.11
		c2.57-9.67,15.99-16.23,19.19-25.63c4.89-14.39,3.25-33.63,13.44-43.35c5.19-4.95,27.84-9.6,27.91-13.28
		c0.17-8.82-17.26-19.66-25.72-31.46c-9.83-13.71-11.24-30.79-14.84-47.76c-2.2-10.36-11.53-18.26-10.25-28.6
		c-6.44-3.33-10.59-6.63-16.91-10.26c-1.28-0.73-1.72-2.83-2.8-3.78c-40.62-5.69-76.1-29.82-111.16-52.38
		c-22.89-14.73-43.87-30.92-65.5-39.2c-40.65-15.57-83-4.14-127.01,0.05c-28.25,2.69-58.17,5.5-88.84,3.4
		c-98.72-6.77-206.76-31.24-321.42-52.12c4.04,1.96,8.56,6.71,12.59,8.66c64.78,31.47,129.16,70,196.12,95.52
		c74.26,28.31,144.24,39.31,207.25,45.19c16.5,12.96-1.76,23.6-7.11,43.89c-8.83-0.1-22.22-0.97-31.32-1.33
		c-3.78,19.22,12.5,21.19,6.3,39.78c-15.26,2.2-28.5,3.51-44.11,4.08c-34.5,8.33-65.37,34.11-102.01,57
		c-9.83,6.15-26.53,2.91-38.58,7.43c-11.44,4.3-17.63,18.61-25.33,23.62c-3.96,2.58-7.79-2.39-7.75-1.51c0.1,2-1.41,3.41,16.12,7.81
		c16.44,4.13,37.83,8.36,55.82,8.73c4.12,0.08,8.15-2.27,11.84-2.15c20.2,0.63,38.63,15.54,58.23,20.2
		c28.71,6.83,59.25,10.76,81.38,3.27c17.35-5.88,26.31-32.91,38.3-55.97c4.87-9.37,16.94-21.58,22.58-30.43
		c-11.86-4.75-28.74-8.83-35.95-20.11c-5.61-8.77-11.73-19.74-8.61-29.68c4.81-15.32,26.24-20.34,39.43-26.53
		c1.33-1.71,6.8-5.45,8.19-7.49c6.95-10.19,8.04-23.25,20.39-25.17c6.48-1,13.66-2.54,18.82,1.5
		c13.74,10.74,26.85,33.13,16.03,72.22c-1.51,5.47,1.91,9.45-0.51,15.39c5.45,3.67,0,13,3.72,18.82
		c5.08,7.95,13.02,9.98,11.43,19.15c7.75-4.41,12.65-2.06,21.51-0.26c20.01,4.07,40.53,8.42,59.71,15.07
		c35.72,12.38,64.59,30.51,95.67,23.73c15.97,13.64,31.36,22.86,18.99,39.83c-46.43,10.3-96.98,23.3-147,49.98
		c-31.43,16.76-66.67,27.06-100.07,39.01c-54.1,19.35-108.91,35.01-146.78,70.05c-23.05,21.33-36.76,55.63-52.66,88.41
		c-15.24,31.44-33.19,60.41-57.4,86.1c-24.84,26.36-55.05,40.28-87.58,53.54C429.46,1001.4,411.1,1013.65,394.02,1025.67z
		 M1810,931.47c0,0,0,4.08,0,4.08C1810,935.55,1810,931.47,1810,931.47z M1407.34,611.52c8.3,4.52,23.24-0.1,36.13,1.72
		c20.93,2.95,47.34,8.01,64.34,23.87c27.03,25.21,34.93,64.97,50.66,97.53c12.94,26.78,29.71,50.04,46.96,69.3
		c11.85,13.24,34.73,14.29,56.79,21.34c17.66,5.64,35.51,14.7,51.56,24.65c15.43,9.58,29.84,22.55,41.27,36.23
		c9.14,10.94,13.74,22.23,22.85,28.45c1.09-7.49,7.97-8.91,16.05-15.22c7.63-5.96,14.09-14.99,25.75-12.68
		c14.27,2.82,23.67-6.46,29.35-12.63c13.61-14.78,23.99-35.37,19.39-51.52c-4.68-16.43-11.1-18.51-12.42-19.46
		c-3.8-2.71-11.34-6.29-21.47-8.16c-7.45-1.37-14.71-7.05-24.72-9.58c-35.3-8.93-42.11,2.66-74.25,6.07
		c-4.09,0.43-15.11-1.47-20.04-0.98c-7.92-19.09-16.58-24.91-6.27-42.82c47.65-23.34,64.94-79.34,82.17-139.24
		c3.85-13.37,6.73-27.56,11.05-40.82c1.21-3.71,7.04-5.94,8.26-9.68c29.67-90.67,51.63-184.05,26.23-269.36
		c-10.55-35.45-45.65-54.95-80.84-57.53c-10.53-0.77-18.78-11.76-29.03-15.18c-7.2-2.4-23.03,1.36-27.1,2.84
		c-31.92,26.69-32.67,82.27-29.51,132.74c0.51,8.12-1.61,15.85-1.25,23.48c2.8,60.85,13.91,99.01,32.76,150.09
		c9.13,24.74,41.24,33.05,21.64,50.69c-19.6,17.63-26.8-10.5-50.43-22.19c-90.46-44.74-193.93-66.43-295.75-82.46
		c-0.97-0.15-0.16,3.53-1.14,3.38c-6.73,9.41-20.75,13.22-28.11,22.16c-13.52,16.41-15.28,35.55-22.4,51.17
		c7.72-1.34,11.34-5.32,17.46-0.19c2.06,1.73-3.35,2.96-2.21,4.91c9.25-7.05,20.67-0.23,32.81,3.8
		c18.65,6.19,30.43,20.22,34.52,37.09C1409.56,598.15,1405.81,608.1,1407.34,611.52z M866.82,567.71l5.47-1.39
		C872.28,567.02,866.82,567.71,866.82,567.71z M775.71,470c2.96,1.58,5.54-1.82,9.45-0.39c2.04-5.04,1.76-3.09,2.84-7.36
		c-2.12,1.76-1.84-3.77-4.46-2.68C780.08,461.01,777.85,468.29,775.71,470z M91.63,447.12c52.71,24.83,110.04,25.77,166.62,15.23
		c21.82-4.06,42.7-11.68,65.65-20.43c32.22-12.27,67.54-14.76,103.32-16.05c38.93-1.41,79.29-3.32,118.55-0.38
		c37.48,2.81,75.59-0.33,112.47-1.39c6.67-1.45,13.2,5.37,19.72,4.65c-25.2-2.28-52.23-4.08-78.63-12.02
		c-10.39-3.12-23.07-3.25-38.42-0.83c-19.31,3.04-39.57-1.71-59.92-8.75c-21.01-7.28-42.44-12.97-59.85-25.93
		c-18.39-13.69-34.78-26.11-52.56-29.4c-40.74-7.55-82.79-9.67-127.63-6.86c-37.4,2.35-75.95,7.32-113.95,3.32
		c-14.32-1.51-25.62-12.41-37.7-21.22c-5.13-3.74-16.86-13.94-21.17-15.6c-12.05,8.22-3.71,43.67-2.75,70.1
		c0.51,13.89,2.63,29.09,1.34,41.78c-0.08,0.79-5.68,0.47-5.84,1.23C85.61,434.29,88.51,443.99,91.63,447.12z M1313.8,420.47
		c12.46,2.13,24.19-0.76,36.84,1.26c4.71-9.74,6.02-14.59,10.16-25.73c-5.87,0.78-9.03-3.57-12.1-1.66
		C1337.19,401.49,1326.56,413.42,1313.8,420.47z M504.33,368.34c2.84,1.37,7.34-1.22,10.18-0.23c0.79,0.27-2.17,10.35-1.34,10.56
		C509.51,377.25,507.98,369.78,504.33,368.34z"/>
	<path class="st2" d="M394.02,1025.67c-18.47-10-28.93-11.81-30.29-32.77c20.98-14.77,48.77-29.7,72.21-39.26
		c29.68-12.1,63.59-15.09,82.17-34.81c19.79-21.01,29.96-52.78,44.46-82.69c16.89-34.85,30.15-75.15,59.02-101.87
		c44.17-40.88,104.7-59.68,160.39-79.6c33.45-11.97,63.49-25.44,92.2-40.75c20.43-10.89,40.87-17.72,60.18-25.84
		c-7.24-2.37-10.84-8.83-17.99-11.31c-17.22-5.97-35.83-3.47-51.79-7.07c-2.75,1.63-5.22,4.25-7.95,6.21
		c-5.32,3.82-13.34,3.66-18.95,6.52c-15.14,7.7-24.76,6.3-30.98,1.87c-6.14-4.37-10.95-13-8.96-29.71
		c0.41-3.46-4.41-12.4-3.54-15.94c-2.66,4.78,2.63,17.29-0.1,22.55c-14.58,28.04-33.36,63.76-66.71,75.05
		c-33.56,11.37-70.28-1.91-103.51-9.81c-18.38-4.37-35.47-9.62-51.41-10.12c-3.55-0.11-7.36,0.97-11.33,0.89
		c-20.12-0.41-44.22-5.65-65.28-10.95c-13.41-3.37-28.22-0.52-36.28-7.25c-10.86-9.06-14.04-25.38-14.75-39.41
		c-0.6-11.82,7.74-22.78,29.49-36.92c11.55-7.52,20.78-21.04,34.34-26.13c10.11-3.8,22.92-3.11,29.19-7.03
		c10.09-6.3,23.81-13.27,33.91-19.17c-7.98-0.56-21.05-4.7-28.97-5.29c-39.87-2.99-77.58-1.51-114.18-0.19
		c-28.83,1.04-56.4,12.65-86.77,24.21c-23.69,9.02-49.77,13.1-75.3,17.86c-65.8,12.26-133.68,7.88-194.79-21.26
		c-8.01-3.82-11.99-17.16-27.68-51.29c-7.79-16.96-26.68-31.75-29.43-41.12c-3.89-13.3,8.09-31.65,17.5-34.92
		c1.17-0.41-1.72,4.88-0.47,4.68c-0.14-12.35,12.57-22.96,14.69-34.48c4.46-24.27,7.94-46.42,26.26-54.86
		c21.7-10,42.35,11.43,58.6,23.28c5.63,4.11,17.4,2.35,20.98,2.98c34.41,3.62,68.79,5.45,106.11,3.11c31.91-2,63-9.48,95.52-7.57
		c-12.98-6.25-23.49-6.16-36.38-12.42c-59.51-28.91-124.92-54.98-186.23-79.34c-12.66-16.68-5.3-34.79,15.64-34.59
		c179.48,41.79,353.17,59.49,501.9,69.69c27.23,1.87,54.97,5.5,81.54,2.97c46.89-4.47,97.88-20.94,147.73-1.84
		c25.69,9.84,50.52,28.12,74.2,43.36c33.78,21.74,63.27,39.82,96.33,43.05c0.69-0.54,5.27,12.35,5.99,11.79
		c1.33-1.03,3.79-2.71,5.33-3.94c0.43-0.59-0.6-3.74-0.23-4.22c1.38-1.75-7.36-7.62-5.91-8.79c-0.7-1.95,10.58-5.98,9.86-7.9
		c-7.78-10.99-25-17.56-36.2-29.15c-17.02-17.63-36.47-35.46-46.58-56.64c-5.08-10.65-16.14-13.54-11.56-24.41
		c4.58-10.88,13.86-6.48,25.03-10.29c7.15-2.44,15.82,3.21,22.27,6.8c7.17,3.99,6.45,12.18,8.59,21.52
		c1.62,7.07,19.12,14.61,29.1,22.53c12.36,9.81,22.17,22.97,29.56,38.32c2.74,5.68,12.76,7.82,15.08,13.72
		c2.9,4.44,3.68,9.98,5.92,14.69c3.94,8.25-1.82,18.88-1.4,27.52c4.11,11.94,11.15,25.72,16.16,36.19
		c13.16,5.36,28.49,14.99,42.07,19.43c5.77-1.74,14.19-16.76,20.33-15.38c7.32,1.65,9.05,16.91,13.5,22.38
		c15.44,4.2,33.62,3.89,49.5,7.36c27.14-9.84,53.47-26.04,84.13-45.08c13.48-8.37,30.31-6.48,44.65-7.78
		c3.25-0.29,5.72-4.01,9.11-4.43c7.73-15.92,21.54-26.51,35.15-38.81c15.88-14.36,30.84-35.52,50.55-50.52
		c10.3-10.23,22.12-16,34.77-22.66c16.33,13.06,21.02,12.63,27.81,32.41c-8.47,6.72-21.22,16.08-31.18,23.65
		c-0.39,0.3-0.91,0.27-1.3,0.57c-11.09,11.32-20.05,26.08-30.37,39.49c-11.56,15.02-21.49,33.16-34.56,45.85
		c-4.75,4.62-19.81-1.61-25.46,0.8c-2.45,6.14-0.75,17.22-3.14,23.65c-3.44,9.26-3.09,11.18-7.03,20.42
		c85.43,13.49,171.01,44.03,251.84,75.83c-9.9-35.89-19.79-77.74-21.94-124.5c-0.33-7.28,2.5-14.91,2-22.85
		c-3.59-57.5-4.41-126.55,44-166.83c20.32-16.91,44.15-9.02,63.54-2.56c7.8,2.6,16.04,8.68,21.33,9.07
		c26.72,1.96,49.02,12.35,70.12,25.78c24.52,15.61,46.78,30.05,54.31,55.35c29.14,97.89-7.72,202.2-37.92,294.49
		c-1.22,3.73-2.45,7.44-3.66,11.14c-4.1,12.56-7.98,25.44-11.9,39.07c-9.08,31.58-9.1,68.58-23.82,97.43
		c-5.65,11.08-11.43,14.39-18.18,23.3c10.41,1.12,15.98-0.61,32.51,3.57c8.66,2.19,14.28,12.38,21.09,13.63
		c14.67,2.7,26,5.58,37.42,13.74c11.97,8.55,26.91,17.95,32.93,39.08c8.67,30.41-6.42,68.12-30.15,93.89
		c-17.68,19.2-39.13,31.94-61.57,30.26c-0.57,8.34-2.29,18.29-12.79,25.79c-7.99,5.71-17.84,1.25-29.73-2.19
		c-25.1-7.26-37.77-28.31-52.9-46.41c-9.72-11.64-24.96-17.31-34.64-23.31c-11.63-7.22-26.76-11.24-42.69-16.33
		c-26.44-8.44-56.62-15.58-76.1-37.35c-21.19-23.67-37.79-53-51.43-81.23c-14.7-30.42-18.15-66.94-39.44-86.8
		c-7.32-6.83-27.86-5.27-43.36-7.46c-18.45-2.6-39.46-1.42-55.4-11.88c-12.89-8.46-7.46-29.09-11.23-44.66
		c-0.41-1.67-5.39-6-5.91-8.06c-0.97,0.95-5.53,5.44-6.32,6.24c-11.44,11.42-22.66,23.23-38.5,22.61
		c-6.31-0.26-6.01-7.49-9.88-12.51c-4.37-5.68-11.31-6.51-10.32-14.23c-7.05,1.24-14.1,2.67-19.9-1.3
		c-5.39-3.68-7.68-11.44-8.19-17.93c-3.19-41.06,19.25-78.82,43.5-108.27c2.33-2.83,11.95-8.17,14.19-10.93
		c-26.57-4.39-55.52,5.06-81.94-0.48c-12.6,3.98-26.53-7.47-40.13-5.38c-5.88,0.91-13.68,5.91-23.95-7.36
		c-3.52-4.54-2.78-11.34-5.63-16.46c-0.07-0.13-7.74,7.28-7.81,7.14c-1.94-0.57-3.47,0.67-5.4,0.09c-0.37,0.19,0.34-5.5-0.01-5.33
		c-5.61,2.83-10.35,9.27-16.33,11.11c-16.22,4.99-32.34,0.71-36.83-3.42c-2.15-1.98-5.04-7.4-7-9.49
		c2.76,4.31,6.37,10.57,9.51,14.95c11.89,16.57,23.31,31.29,22.88,54.06c-0.4,21.19-10.4,34.8-23.17,46.98
		c-6.36,6.07-8.26,16.81-9.84,21.43c-2.74,8.06-3.93,16.93-6.43,26.34c-8.86,33.32-20.11,76.86-52.79,96.46
		c-15.71,9.42-37.76,6.64-55.89,7.9c-1.01,1.33-10.02,2.58-11.03,3.98c2.12,5.34,9.34,11.66,12.37,17.8
		c10.71,21.7,33.7,50.13,20.97,76.12c-1.2,2.45-4.19-2.2-5.71-0.06c4.3,1.24,5.56,1,9.69,2.3c13.45,4.23,25.71,14.59,35.08,13.46
		c13.9-1.67,31.71-6.83,47.92-16.34c21.27-12.48,40.7-29.74,66.16-30.53c19.03-0.58,37.47,7.93,50.84,18.97
		c5.53,4.56,12.78,14.05,16.59,14.37c0.02,0-0.21,5.19-0.19,5.19c5.69,0,17.82-8.28,26.58-14.54
		c14.36-10.25,29.39-20.41,48.59-20.41c0.15,0,0.24,3.73,0.39,3.73c28.84,0.28,60.25-3.15,90.81,13.17
		c23.36,12.47,40.31,36.21,59.09,51.11c1.63-0.73,4.78-6.21,6.08-6.8c15.01-6.83,26.24-12.98,36.46-8.74
		c5.52,2.29,15.26,7.8,17.34,13.37c2.36,6.31-0.03,18.59-3.27,24.49c-6.3,11.49-25.71,3.73-40.53,6.9c-1.69,0.36-3.05,4.57-5,5.02
		c-0.11,0.04,2.7,9.18,2.59,9.23c-1.09,0.42-9.55-8.85-11.37-8.31c-34.82,37.47-62.77,79.21-100.51,102.26
		c-45.46,27.76-96.59,33.16-143.38,38.11c-45.16,4.78-89.79-4.36-134.46-10.48c-52.07-7.14-98.65-12.56-144.87-2.81
		c-18.24-10.41-29.91-22.09-16.27-38.07c53.36-11.26,111.62,5.8,164.95,13.11c44.13,6.05,86.18,1.03,126.27-3.22
		c88.32-9.35,163.04-61.13,212.76-111.95c-34.64-26.56-74.37-52.6-116.99-53.01c-5.69-0.06-20.28,4.45-29.08,10.73
		c-14.47,10.33-27.35,34.02-46.74,33.87c-18.28-0.18-28.97-24.03-41.92-34.72c-5.51-4.55-19.68-7.66-23.52-8.03
		c-14.74,0.49-31.22,9.63-48.69,19.88c-19.21,11.27-39.44,20.03-62.04,22.73c-18.35,2.2-34.06-7.8-51.75-13.37
		c-16.07-5.06-37.97-9.91-46.85-5.91c-7.65,3.45-7.49,27.34-13.38,41.04c-7.18,16.71-13.8,37.7-27.55,49.57
		c-9.37,8.09-21.37,14.08-31.86,22.94c-12.23,10.33-22.35,22.8-34.24,33.12c-8.56,9.87-25.78,17.68-36.84,24.76
		c-17.07-12.09-14.96-17.62-23.45-36.74c7.74-7.19,14.82-16.56,23.39-24.03c14.01-16.77,27.34-37.02,38.73-58.39
		c12.02-22.55,22.9-47.2,38.65-66.07c11.61-13.92,29.68-21.9,46.5-28.45c11.99-4.67,25.04-9.28,28.06-15.45
		c3.65-7.44-5.25-21.03-11.89-34.48c-2.26-4.57-2.3-14.93-4.41-19.63c-15.76,10.5-33.03,21.76-51.69,25.89
		c-15.83,3.5-35.52,0.59-44.66,7.59c-0.22,0.18,1.73,3.24,1.51,3.43c-0.65,0.54,5.85-3.34,5.27-3.96
		c-14.33-15.35-22.63-7.92-35.82-24.26c1-0.89,2.31-6.14,3.35-6.96c20.35-16.96,43.86-40.97,67.08-55.57
		c16.44-10.33,39.81-5.14,58.98-6.37c6.58-7.29,12.52-19.86,21.75-21.23c7.53-1.12,13.68,8.02,19.77,12.74
		c0.93,0.72,3.61,7.79,5.53,10.66c7.04-1.2,18.28-5.05,23.29-8.06c18.07-10.84,18.75-44.02,26.21-72.11
		c2.57-9.67,15.99-16.23,19.19-25.63c4.89-14.39,3.25-33.63,13.44-43.35c5.19-4.95,27.84-9.6,27.91-13.28
		c0.17-8.82-17.26-19.66-25.72-31.46c-9.83-13.71-11.24-30.79-14.84-47.76c-2.2-10.36-11.53-18.26-10.25-28.6
		c-6.44-3.33-10.59-6.63-16.91-10.26c-1.28-0.73-1.72-2.83-2.8-3.78c-40.62-5.69-76.1-29.82-111.16-52.38
		c-22.89-14.73-43.87-30.92-65.5-39.2c-40.65-15.57-83-4.14-127.01,0.05c-28.25,2.69-58.17,5.5-88.84,3.4
		c-98.72-6.77-206.76-31.24-321.42-52.12c4.04,1.96,8.56,6.71,12.59,8.66c64.78,31.47,129.16,70,196.12,95.52
		c74.26,28.31,144.24,39.31,207.25,45.19c16.5,12.96-1.76,23.6-7.11,43.89c-8.83-0.1-22.22-0.97-31.32-1.33
		c-3.78,19.22,12.5,21.19,6.3,39.78c-15.26,2.2-28.5,3.51-44.11,4.08c-34.5,8.33-65.37,34.11-102.01,57
		c-9.83,6.15-26.53,2.91-38.58,7.43c-11.44,4.3-17.63,18.61-25.33,23.62c-3.96,2.58-7.79-2.39-7.75-1.51c0.1,2-1.41,3.41,16.12,7.81
		c16.44,4.13,37.83,8.36,55.82,8.73c4.12,0.08,8.15-2.27,11.84-2.15c20.2,0.63,38.63,15.54,58.23,20.2
		c28.71,6.83,59.25,10.76,81.38,3.27c17.35-5.88,26.31-32.91,38.3-55.97c4.87-9.37,16.94-21.58,22.58-30.43
		c-11.86-4.75-28.74-8.83-35.95-20.11c-5.61-8.77-11.73-19.74-8.61-29.68c4.81-15.32,26.24-20.34,39.43-26.53
		c1.33-1.71,6.8-5.45,8.19-7.49c6.95-10.19,8.04-23.25,20.39-25.17c6.48-1,13.66-2.54,18.82,1.5
		c13.74,10.74,26.85,33.13,16.03,72.22c-1.51,5.47,1.91,9.45-0.51,15.39c5.45,3.67,0,13,3.72,18.82
		c5.08,7.95,13.02,9.98,11.43,19.15c7.75-4.41,12.65-2.06,21.51-0.26c20.01,4.07,40.53,8.42,59.71,15.07
		c35.72,12.38,64.59,30.51,95.67,23.73c15.97,13.64,31.36,22.86,18.99,39.83c-46.43,10.3-96.98,23.3-147,49.98
		c-31.43,16.76-66.67,27.06-100.07,39.01c-54.1,19.35-108.91,35.01-146.78,70.05c-23.05,21.33-36.76,55.63-52.66,88.41
		c-15.24,31.44-33.19,60.41-57.4,86.1c-24.84,26.36-55.05,40.28-87.58,53.54C429.46,1001.4,411.1,1013.65,394.02,1025.67z
		 M1810,931.47c0,0,0,4.08,0,4.08C1810,935.55,1810,931.47,1810,931.47z M1407.34,611.52c8.3,4.52,23.24-0.1,36.13,1.72
		c20.93,2.95,47.34,8.01,64.34,23.87c27.03,25.21,34.93,64.97,50.66,97.53c12.94,26.78,29.71,50.04,46.96,69.3
		c11.85,13.24,34.73,14.29,56.79,21.34c17.66,5.64,35.51,14.7,51.56,24.65c15.43,9.58,29.84,22.55,41.27,36.23
		c9.14,10.94,13.74,22.23,22.85,28.45c1.09-7.49,7.97-8.91,16.05-15.22c7.63-5.96,14.09-14.99,25.75-12.68
		c14.27,2.82,23.67-6.46,29.35-12.63c13.61-14.78,23.99-35.37,19.39-51.52c-4.68-16.43-11.1-18.51-12.42-19.46
		c-3.8-2.71-11.34-6.29-21.47-8.16c-7.45-1.37-14.71-7.05-24.72-9.58c-35.3-8.93-42.11,2.66-74.25,6.07
		c-4.09,0.43-15.11-1.47-20.04-0.98c-7.92-19.09-16.58-24.91-6.27-42.82c47.65-23.34,64.94-79.34,82.17-139.24
		c3.85-13.37,6.73-27.56,11.05-40.82c1.21-3.71,7.04-5.94,8.26-9.68c29.67-90.67,51.63-184.05,26.23-269.36
		c-10.55-35.45-45.65-54.95-80.84-57.53c-10.53-0.77-18.78-11.76-29.03-15.18c-7.2-2.4-23.03,1.36-27.1,2.84
		c-31.92,26.69-32.67,82.27-29.51,132.74c0.51,8.12-1.61,15.85-1.25,23.48c2.8,60.85,13.91,99.01,32.76,150.09
		c9.13,24.74,41.24,33.05,21.64,50.69c-19.6,17.63-26.8-10.5-50.43-22.19c-90.46-44.74-193.93-66.43-295.75-82.46
		c-0.97-0.15-0.16,3.53-1.14,3.38c-6.73,9.41-20.75,13.22-28.11,22.16c-13.52,16.41-15.28,35.55-22.4,51.17
		c7.72-1.34,11.34-5.32,17.46-0.19c2.06,1.73-3.35,2.96-2.21,4.91c9.25-7.05,20.67-0.23,32.81,3.8
		c18.65,6.19,30.43,20.22,34.52,37.09C1409.56,598.15,1405.81,608.1,1407.34,611.52z M866.82,567.71l5.47-1.39
		C872.28,567.02,866.82,567.71,866.82,567.71z M775.71,470c2.96,1.58,5.54-1.82,9.45-0.39c2.04-5.04,1.76-3.09,2.84-7.36
		c-2.12,1.76-1.84-3.77-4.46-2.68C780.08,461.01,777.85,468.29,775.71,470z M91.63,447.12c52.71,24.83,110.04,25.77,166.62,15.23
		c21.82-4.06,42.7-11.68,65.65-20.43c32.22-12.27,67.54-14.76,103.32-16.05c38.93-1.41,79.29-3.32,118.55-0.38
		c37.48,2.81,75.59-0.33,112.47-1.39c6.67-1.45,13.2,5.37,19.72,4.65c-25.2-2.28-52.23-4.08-78.63-12.02
		c-10.39-3.12-23.07-3.25-38.42-0.83c-19.31,3.04-39.57-1.71-59.92-8.75c-21.01-7.28-42.44-12.97-59.85-25.93
		c-18.39-13.69-34.78-26.11-52.56-29.4c-40.74-7.55-82.79-9.67-127.63-6.86c-37.4,2.35-75.95,7.32-113.95,3.32
		c-14.32-1.51-25.62-12.41-37.7-21.22c-5.13-3.74-16.86-13.94-21.17-15.6c-12.05,8.22-3.71,43.67-2.75,70.1
		c0.51,13.89,2.63,29.09,1.34,41.78c-0.08,0.79-5.68,0.47-5.84,1.23C85.61,434.29,88.51,443.99,91.63,447.12z M1313.8,420.47
		c12.46,2.13,24.19-0.76,36.84,1.26c4.71-9.74,6.02-14.59,10.16-25.73c-5.87,0.78-9.03-3.57-12.1-1.66
		C1337.19,401.49,1326.56,413.42,1313.8,420.47z M504.33,368.34c2.84,1.37,7.34-1.22,10.18-0.23c0.79,0.27-2.17,10.35-1.34,10.56
		C509.51,377.25,507.98,369.78,504.33,368.34z"/>
</g>
</svg>
