<svg width="1920" height="1080" viewBox="0 0 1920 1080" fill="none" xmlns="http://www.w3.org/2000/svg">
<path d="M985.29 853.06C983.41 853.06 981.73 852.63 980.24 851.77C978.75 850.91 977.57 849.73 976.71 848.24C975.85 846.75 975.42 845.06 975.42 843.19C975.42 841.32 975.85 839.63 976.71 838.14C977.57 836.64 978.75 835.47 980.24 834.61C981.73 833.75 983.42 833.32 985.29 833.32C987.16 833.32 988.85 833.75 990.34 834.61C991.84 835.47 993.01 836.65 993.88 838.14C994.75 839.63 995.17 841.32 995.17 843.19C995.17 845.07 994.74 846.75 993.88 848.24C993.02 849.74 991.84 850.91 990.34 851.77C988.85 852.63 987.17 853.06 985.29 853.06Z" fill="#8B8332"/>
<path d="M1154.62 836.79C1152.74 836.79 1151.06 836.36 1149.57 835.5C1148.07 834.64 1146.9 833.46 1146.03 831.97C1145.17 830.48 1144.74 828.79 1144.74 826.92C1144.74 825.05 1145.17 823.36 1146.03 821.87C1146.89 820.38 1148.07 819.2 1149.57 818.34C1151.06 817.48 1152.75 817.05 1154.62 817.05C1156.49 817.05 1158.18 817.48 1159.67 818.34C1161.16 819.2 1162.34 820.38 1163.2 821.87C1164.06 823.36 1164.49 825.05 1164.49 826.92C1164.49 828.8 1164.06 830.48 1163.2 831.97C1162.34 833.47 1161.16 834.64 1159.67 835.5C1158.18 836.36 1156.49 836.79 1154.62 836.79Z" fill="#8B8332"/>
<path d="M1227.51 811.59C1225.63 811.59 1223.95 811.16 1222.46 810.3C1220.96 809.44 1219.79 808.26 1218.93 806.77C1218.07 805.28 1217.64 803.59 1217.64 801.72C1217.64 799.85 1218.07 798.16 1218.93 796.67C1219.79 795.17 1220.97 794 1222.46 793.14C1223.95 792.28 1225.64 791.85 1227.51 791.85C1229.38 791.85 1231.07 792.28 1232.56 793.14C1234.05 794 1235.23 795.18 1236.09 796.67C1236.95 798.16 1237.38 799.85 1237.38 801.72C1237.38 803.6 1236.95 805.28 1236.09 806.77C1235.23 808.27 1234.05 809.44 1232.56 810.3C1231.07 811.16 1229.38 811.59 1227.51 811.59Z" fill="#8B8332"/>
<path d="M1874.1 954.65C1872.22 954.65 1870.54 954.22 1869.05 953.36C1867.55 952.5 1866.38 951.32 1865.52 949.83C1864.66 948.34 1864.23 946.65 1864.23 944.78C1864.23 942.91 1864.66 941.22 1865.52 939.73C1866.38 938.23 1867.56 937.06 1869.05 936.2C1870.54 935.34 1872.23 934.91 1874.1 934.91C1875.97 934.91 1877.66 935.34 1879.15 936.2C1880.64 937.06 1881.82 938.24 1882.68 939.73C1883.54 941.22 1883.97 942.91 1883.97 944.78C1883.97 946.66 1883.54 948.34 1882.68 949.83C1881.82 951.33 1880.64 952.5 1879.15 953.36C1877.66 954.22 1875.97 954.65 1874.1 954.65Z" fill="#8B8332"/>
<path d="M1734.46 751.15C1732.58 751.15 1730.9 750.72 1729.41 749.86C1727.91 749 1726.74 747.82 1725.88 746.33C1725.02 744.84 1724.59 743.15 1724.59 741.28C1724.59 739.41 1725.02 737.72 1725.88 736.23C1726.74 734.73 1727.92 733.56 1729.41 732.7C1730.9 731.84 1732.59 731.41 1734.46 731.41C1736.33 731.41 1738.02 731.84 1739.51 732.7C1741 733.56 1742.18 734.74 1743.04 736.23C1743.9 737.72 1744.33 739.41 1744.33 741.28C1744.33 743.16 1743.9 744.84 1743.04 746.33C1742.18 747.83 1741 749 1739.51 749.86C1738.02 750.72 1736.34 751.15 1734.46 751.15Z" fill="#8B8332"/>
<path d="M1455.67 854.64C1453.79 854.64 1452.11 854.21 1450.62 853.35C1449.13 852.49 1447.95 851.31 1447.09 849.82C1446.23 848.33 1445.8 846.64 1445.8 844.77C1445.8 842.9 1446.23 841.21 1447.09 839.72C1447.95 838.22 1449.13 837.05 1450.62 836.19C1452.11 835.33 1453.8 834.9 1455.67 834.9C1457.54 834.9 1459.23 835.33 1460.72 836.19C1462.22 837.05 1463.39 838.23 1464.26 839.72C1465.13 841.21 1465.55 842.9 1465.55 844.77C1465.55 846.65 1465.12 848.33 1464.26 849.82C1463.4 851.32 1462.22 852.49 1460.72 853.35C1459.23 854.21 1457.54 854.64 1455.67 854.64Z" fill="#8B8332"/>
<path d="M1434.94 689.38C1433.06 689.38 1431.38 688.95 1429.89 688.09C1428.39 687.23 1427.22 686.05 1426.36 684.56C1425.5 683.07 1425.07 681.38 1425.07 679.51C1425.07 677.64 1425.5 675.95 1426.36 674.46C1427.22 672.96 1428.4 671.79 1429.89 670.93C1431.38 670.07 1433.07 669.64 1434.94 669.64C1436.81 669.64 1438.5 670.07 1439.99 670.93C1441.48 671.79 1442.66 672.97 1443.52 674.46C1444.38 675.95 1444.81 677.64 1444.81 679.51C1444.81 681.39 1444.38 683.07 1443.52 684.56C1442.66 686.06 1441.48 687.23 1439.99 688.09C1438.5 688.95 1436.82 689.38 1434.94 689.38Z" fill="#8B8332"/>
<path d="M1465.4 649.55C1463.52 649.55 1461.84 649.12 1460.35 648.26C1458.86 647.4 1457.68 646.22 1456.82 644.73C1455.96 643.24 1455.53 641.55 1455.53 639.68C1455.53 637.81 1455.96 636.12 1456.82 634.63C1457.68 633.13 1458.86 631.96 1460.35 631.1C1461.84 630.24 1463.53 629.81 1465.4 629.81C1467.27 629.81 1468.96 630.24 1470.45 631.1C1471.95 631.96 1473.12 633.14 1473.99 634.63C1474.86 636.12 1475.28 637.81 1475.28 639.68C1475.28 641.56 1474.85 643.24 1473.99 644.73C1473.13 646.23 1471.95 647.4 1470.45 648.26C1468.96 649.12 1467.28 649.55 1465.4 649.55Z" fill="#8B8332"/>
<path d="M1322.69 600.32C1320.81 600.32 1319.13 599.89 1317.64 599.03C1316.14 598.17 1314.97 596.99 1314.11 595.5C1313.25 594.01 1312.82 592.32 1312.82 590.45C1312.82 588.58 1313.25 586.89 1314.11 585.4C1314.97 583.9 1316.15 582.73 1317.64 581.87C1319.13 581.01 1320.82 580.58 1322.69 580.58C1324.56 580.58 1326.25 581.01 1327.74 581.87C1329.23 582.73 1330.41 583.91 1331.27 585.4C1332.13 586.89 1332.56 588.58 1332.56 590.45C1332.56 592.33 1332.13 594.01 1331.27 595.5C1330.41 597 1329.23 598.17 1327.74 599.03C1326.24 599.89 1324.56 600.32 1322.69 600.32Z" fill="#8B8332"/>
<path d="M1292.92 537.96C1291.04 537.96 1289.36 537.53 1287.87 536.67C1286.37 535.81 1285.2 534.63 1284.34 533.14C1283.48 531.65 1283.05 529.96 1283.05 528.09C1283.05 526.22 1283.48 524.53 1284.34 523.04C1285.2 521.54 1286.38 520.37 1287.87 519.51C1289.36 518.65 1291.05 518.22 1292.92 518.22C1294.79 518.22 1296.48 518.65 1297.97 519.51C1299.46 520.37 1300.64 521.55 1301.5 523.04C1302.36 524.53 1302.79 526.22 1302.79 528.09C1302.79 529.97 1302.36 531.65 1301.5 533.14C1300.64 534.64 1299.46 535.81 1297.97 536.67C1296.48 537.53 1294.79 537.96 1292.92 537.96Z" fill="#8B8332"/>
<path d="M1235.1 438.11C1233.22 438.11 1231.54 437.68 1230.05 436.82C1228.56 435.96 1227.38 434.78 1226.52 433.29C1225.66 431.8 1225.23 430.11 1225.23 428.24C1225.23 426.37 1225.66 424.68 1226.52 423.19C1227.38 421.69 1228.56 420.52 1230.05 419.66C1231.54 418.8 1233.23 418.37 1235.1 418.37C1236.97 418.37 1238.66 418.8 1240.15 419.66C1241.65 420.52 1242.82 421.7 1243.69 423.19C1244.56 424.68 1244.98 426.37 1244.98 428.24C1244.98 430.12 1244.55 431.8 1243.69 433.29C1242.83 434.79 1241.65 435.96 1240.15 436.82C1238.66 437.68 1236.97 438.11 1235.1 438.11Z" fill="#8B8332"/>
<path d="M1133.52 409.22C1131.64 409.22 1129.96 408.79 1128.47 407.93C1126.97 407.07 1125.8 405.89 1124.94 404.4C1124.08 402.91 1123.65 401.22 1123.65 399.35C1123.65 397.48 1124.08 395.79 1124.94 394.3C1125.8 392.8 1126.98 391.63 1128.47 390.77C1129.96 389.91 1131.65 389.48 1133.52 389.48C1135.39 389.48 1137.08 389.91 1138.57 390.77C1140.06 391.63 1141.24 392.81 1142.1 394.3C1142.96 395.79 1143.39 397.48 1143.39 399.35C1143.39 401.23 1142.96 402.91 1142.1 404.4C1141.24 405.9 1140.06 407.07 1138.57 407.93C1137.08 408.79 1135.39 409.22 1133.52 409.22Z" fill="#8B8332"/>
<path d="M1081.56 412.34C1079.68 412.34 1078 411.91 1076.51 411.05C1075.02 410.19 1073.84 409.01 1072.98 407.52C1072.12 406.03 1071.69 404.34 1071.69 402.47C1071.69 400.6 1072.12 398.91 1072.98 397.42C1073.84 395.92 1075.02 394.75 1076.51 393.89C1078 393.03 1079.69 392.6 1081.56 392.6C1083.43 392.6 1085.12 393.03 1086.61 393.89C1088.11 394.75 1089.28 395.93 1090.15 397.42C1091.02 398.91 1091.44 400.6 1091.44 402.47C1091.44 404.35 1091.01 406.03 1090.15 407.52C1089.29 409.02 1088.11 410.19 1086.61 411.05C1085.12 411.91 1083.43 412.34 1081.56 412.34Z" fill="#8B8332"/>
<path d="M944.72 357.75C942.84 357.75 941.16 357.32 939.67 356.46C938.17 355.6 937 354.42 936.14 352.93C935.28 351.44 934.85 349.75 934.85 347.88C934.85 346.01 935.28 344.32 936.14 342.83C937 341.33 938.18 340.16 939.67 339.3C941.16 338.44 942.85 338.01 944.72 338.01C946.59 338.01 948.28 338.44 949.77 339.3C951.26 340.16 952.44 341.34 953.3 342.83C954.16 344.32 954.59 346.01 954.59 347.88C954.59 349.76 954.16 351.44 953.3 352.93C952.44 354.43 951.26 355.6 949.77 356.46C948.28 357.32 946.59 357.75 944.72 357.75Z" fill="#8B8332"/>
<path d="M1093.55 333.2C1091.67 333.2 1089.99 332.77 1088.5 331.91C1087 331.05 1085.83 329.87 1084.97 328.38C1084.11 326.89 1083.68 325.2 1083.68 323.33C1083.68 321.46 1084.11 319.77 1084.97 318.28C1085.83 316.78 1087.01 315.61 1088.5 314.75C1089.99 313.89 1091.68 313.46 1093.55 313.46C1095.42 313.46 1097.11 313.89 1098.6 314.75C1100.09 315.61 1101.27 316.79 1102.13 318.28C1102.99 319.77 1103.42 321.46 1103.42 323.33C1103.42 325.21 1102.99 326.89 1102.13 328.38C1101.27 329.88 1100.09 331.05 1098.6 331.91C1097.1 332.77 1095.42 333.2 1093.55 333.2Z" fill="#8B8332"/>
<path d="M1029.76 240.55C1027.88 240.55 1026.2 240.12 1024.71 239.26C1023.22 238.4 1022.04 237.22 1021.18 235.73C1020.32 234.24 1019.89 232.55 1019.89 230.68C1019.89 228.81 1020.32 227.12 1021.18 225.63C1022.04 224.13 1023.22 222.96 1024.71 222.1C1026.2 221.24 1027.89 220.81 1029.76 220.81C1031.63 220.81 1033.32 221.24 1034.81 222.1C1036.31 222.96 1037.48 224.14 1038.35 225.63C1039.22 227.12 1039.64 228.81 1039.64 230.68C1039.64 232.56 1039.21 234.24 1038.35 235.73C1037.49 237.23 1036.31 238.4 1034.81 239.26C1033.32 240.12 1031.64 240.55 1029.76 240.55Z" fill="#8B8332"/>
<path d="M1757.87 204.92C1755.99 204.92 1754.31 204.49 1752.82 203.63C1751.32 202.77 1750.15 201.59 1749.29 200.1C1748.43 198.61 1748 196.92 1748 195.05C1748 193.18 1748.43 191.49 1749.29 190C1750.15 188.5 1751.33 187.33 1752.82 186.47C1754.31 185.61 1756 185.18 1757.87 185.18C1759.74 185.18 1761.43 185.61 1762.92 186.47C1764.41 187.33 1765.59 188.51 1766.45 190C1767.31 191.49 1767.74 193.18 1767.74 195.05C1767.74 196.93 1767.31 198.61 1766.45 200.1C1765.59 201.6 1764.41 202.77 1762.92 203.63C1761.43 204.49 1759.74 204.92 1757.87 204.92Z" fill="#8B8332"/>
<path d="M1828.96 279.16C1827.08 279.16 1825.4 278.73 1823.91 277.87C1822.41 277.01 1821.24 275.83 1820.38 274.34C1819.52 272.85 1819.09 271.16 1819.09 269.29C1819.09 267.42 1819.52 265.73 1820.38 264.24C1821.24 262.74 1822.42 261.57 1823.91 260.71C1825.4 259.85 1827.09 259.42 1828.96 259.42C1830.83 259.42 1832.52 259.85 1834.01 260.71C1835.5 261.57 1836.68 262.75 1837.54 264.24C1838.4 265.73 1838.83 267.42 1838.83 269.29C1838.83 271.17 1838.4 272.85 1837.54 274.34C1836.68 275.84 1835.5 277.01 1834.01 277.87C1832.52 278.73 1830.83 279.16 1828.96 279.16Z" fill="#8B8332"/>
<path d="M1810.25 371.33C1808.37 371.33 1806.69 370.9 1805.2 370.04C1803.7 369.18 1802.53 368 1801.67 366.51C1800.81 365.02 1800.38 363.33 1800.38 361.46C1800.38 359.59 1800.81 357.9 1801.67 356.41C1802.53 354.91 1803.71 353.74 1805.2 352.88C1806.69 352.02 1808.38 351.59 1810.25 351.59C1812.12 351.59 1813.81 352.02 1815.3 352.88C1816.79 353.74 1817.97 354.92 1818.83 356.41C1819.69 357.9 1820.12 359.59 1820.12 361.46C1820.12 363.34 1819.69 365.02 1818.83 366.51C1817.97 368.01 1816.79 369.18 1815.3 370.04C1813.81 370.9 1812.13 371.33 1810.25 371.33Z" fill="#8B8332"/>
<path d="M1637.12 340.54C1635.24 340.54 1633.56 340.11 1632.07 339.25C1630.57 338.39 1629.4 337.21 1628.54 335.72C1627.68 334.23 1627.25 332.54 1627.25 330.67C1627.25 328.8 1627.68 327.11 1628.54 325.62C1629.4 324.12 1630.58 322.95 1632.07 322.09C1633.56 321.23 1635.25 320.8 1637.12 320.8C1638.99 320.8 1640.68 321.23 1642.17 322.09C1643.66 322.95 1644.84 324.13 1645.7 325.62C1646.56 327.11 1646.99 328.8 1646.99 330.67C1646.99 332.55 1646.56 334.23 1645.7 335.72C1644.84 337.22 1643.66 338.39 1642.17 339.25C1640.68 340.11 1638.99 340.54 1637.12 340.54Z" fill="#8B8332"/>
<path d="M1632.92 415.61C1631.04 415.61 1629.36 415.18 1627.87 414.32C1626.37 413.46 1625.2 412.28 1624.33 410.79C1623.47 409.3 1623.04 407.61 1623.04 405.74C1623.04 403.87 1623.47 402.18 1624.33 400.69C1625.19 399.2 1626.37 398.02 1627.87 397.16C1629.36 396.3 1631.05 395.87 1632.92 395.87C1634.79 395.87 1636.48 396.3 1637.97 397.16C1639.46 398.02 1640.64 399.2 1641.5 400.69C1642.36 402.18 1642.79 403.87 1642.79 405.74C1642.79 407.62 1642.36 409.3 1641.5 410.79C1640.64 412.29 1639.46 413.46 1637.97 414.32C1636.48 415.18 1634.79 415.61 1632.92 415.61Z" fill="#8B8332"/>
<path d="M1663.7 528.91C1661.82 528.91 1660.14 528.48 1658.65 527.62C1657.15 526.76 1655.98 525.58 1655.12 524.09C1654.26 522.6 1653.83 520.91 1653.83 519.04C1653.83 517.17 1654.26 515.48 1655.12 513.99C1655.98 512.49 1657.16 511.32 1658.65 510.46C1660.14 509.6 1661.83 509.17 1663.7 509.17C1665.57 509.17 1667.26 509.6 1668.75 510.46C1670.24 511.32 1671.42 512.5 1672.28 513.99C1673.14 515.48 1673.57 517.17 1673.57 519.04C1673.57 520.92 1673.14 522.6 1672.28 524.09C1671.42 525.59 1670.24 526.76 1668.75 527.62C1667.26 528.48 1665.57 528.91 1663.7 528.91Z" fill="#8B8332"/>
<path d="M1869.31 547.27C1867.43 547.27 1865.75 546.84 1864.26 545.98C1862.76 545.12 1861.59 543.94 1860.72 542.45C1859.86 540.96 1859.43 539.27 1859.43 537.4C1859.43 535.53 1859.86 533.84 1860.72 532.35C1861.58 530.86 1862.76 529.68 1864.26 528.82C1865.75 527.96 1867.44 527.53 1869.31 527.53C1871.18 527.53 1872.87 527.96 1874.36 528.82C1875.85 529.68 1877.03 530.86 1877.89 532.35C1878.75 533.84 1879.18 535.53 1879.18 537.4C1879.18 539.28 1878.75 540.96 1877.89 542.45C1877.03 543.95 1875.85 545.12 1874.36 545.98C1872.87 546.84 1871.19 547.27 1869.31 547.27Z" fill="#8B8332"/>
<path d="M680.55 396.77C678.67 396.77 676.99 396.34 675.5 395.48C674 394.62 672.83 393.44 671.97 391.95C671.11 390.46 670.68 388.77 670.68 386.9C670.68 385.03 671.11 383.34 671.97 381.85C672.83 380.35 674.01 379.18 675.5 378.32C676.99 377.46 678.68 377.03 680.55 377.03C682.42 377.03 684.11 377.46 685.6 378.32C687.09 379.18 688.27 380.36 689.13 381.85C689.99 383.34 690.42 385.03 690.42 386.9C690.42 388.78 689.99 390.46 689.13 391.95C688.27 393.45 687.09 394.62 685.6 395.48C684.11 396.33 682.43 396.77 680.55 396.77Z" fill="#8B8332"/>
<path d="M766.36 434.87C764.48 434.87 762.8 434.44 761.31 433.58C759.81 432.72 758.64 431.54 757.78 430.05C756.92 428.56 756.49 426.87 756.49 425C756.49 423.13 756.92 421.44 757.78 419.95C758.64 418.45 759.82 417.28 761.31 416.42C762.8 415.56 764.49 415.13 766.36 415.13C768.23 415.13 769.92 415.56 771.41 416.42C772.9 417.28 774.08 418.46 774.94 419.95C775.8 421.44 776.23 423.13 776.23 425C776.23 426.88 775.8 428.56 774.94 430.05C774.08 431.55 772.9 432.72 771.41 433.58C769.92 434.44 768.23 434.87 766.36 434.87Z" fill="#8B8332"/>
<path d="M769.6 509.3C767.72 509.3 766.04 508.87 764.55 508.01C763.05 507.15 761.88 505.97 761.02 504.48C760.16 502.99 759.73 501.3 759.73 499.43C759.73 497.56 760.16 495.87 761.02 494.38C761.88 492.88 763.06 491.71 764.55 490.85C766.04 489.99 767.73 489.56 769.6 489.56C771.47 489.56 773.16 489.99 774.65 490.85C776.14 491.71 777.32 492.89 778.18 494.38C779.04 495.87 779.47 497.56 779.47 499.43C779.47 501.31 779.04 502.99 778.18 504.48C777.32 505.98 776.14 507.15 774.65 508.01C773.16 508.87 771.48 509.3 769.6 509.3Z" fill="#8B8332"/>
<path d="M260.17 374.96C258.29 374.96 256.61 374.53 255.12 373.67C253.62 372.81 252.45 371.63 251.59 370.14C250.73 368.65 250.3 366.96 250.3 365.09C250.3 363.22 250.73 361.53 251.59 360.04C252.45 358.54 253.63 357.37 255.12 356.51C256.61 355.65 258.3 355.22 260.17 355.22C262.04 355.22 263.73 355.65 265.22 356.51C266.71 357.37 267.89 358.55 268.75 360.04C269.61 361.53 270.04 363.22 270.04 365.09C270.04 366.97 269.61 368.65 268.75 370.14C267.89 371.64 266.71 372.81 265.22 373.67C263.73 374.53 262.05 374.96 260.17 374.96Z" fill="#8B8332"/>
<path d="M1502.06 290.43C1500.18 290.43 1498.5 290 1497.01 289.14C1495.52 288.28 1494.34 287.1 1493.48 285.61C1492.62 284.12 1492.19 282.43 1492.19 280.56C1492.19 278.69 1492.62 277 1493.48 275.51C1494.34 274.01 1495.52 272.84 1497.01 271.98C1498.5 271.12 1500.19 270.69 1502.06 270.69C1503.93 270.69 1505.62 271.12 1507.11 271.98C1508.61 272.84 1509.78 274.02 1510.65 275.51C1511.52 277 1511.94 278.69 1511.94 280.56C1511.94 282.44 1511.51 284.12 1510.65 285.61C1509.79 287.11 1508.61 288.28 1507.11 289.14C1505.62 290 1503.93 290.43 1502.06 290.43Z" fill="#8B8332"/>
<path d="M220.69 452.61C218.81 452.61 217.13 452.18 215.64 451.32C214.14 450.46 212.97 449.28 212.11 447.79C211.25 446.3 210.82 444.61 210.82 442.74C210.82 440.87 211.25 439.18 212.11 437.69C212.97 436.19 214.15 435.02 215.64 434.16C217.13 433.3 218.82 432.87 220.69 432.87C222.56 432.87 224.25 433.3 225.74 434.16C227.23 435.02 228.41 436.2 229.27 437.69C230.13 439.18 230.56 440.87 230.56 442.74C230.56 444.62 230.13 446.3 229.27 447.79C228.41 449.29 227.23 450.46 225.74 451.32C224.25 452.18 222.56 452.61 220.69 452.61Z" fill="#8B8332"/>
<path d="M1110.34 563.2C1108.46 563.2 1106.78 562.77 1105.29 561.91C1103.79 561.05 1102.62 559.87 1101.75 558.38C1100.89 556.89 1100.46 555.2 1100.46 553.33C1100.46 551.46 1100.89 549.77 1101.75 548.28C1102.61 546.79 1103.79 545.61 1105.29 544.75C1106.78 543.89 1108.47 543.46 1110.34 543.46C1112.21 543.46 1113.9 543.89 1115.39 544.75C1116.88 545.61 1118.06 546.79 1118.92 548.28C1119.78 549.77 1120.21 551.46 1120.21 553.33C1120.21 555.21 1119.78 556.89 1118.92 558.38C1118.06 559.88 1116.88 561.05 1115.39 561.91C1113.9 562.77 1112.21 563.2 1110.34 563.2Z" fill="#8B8332"/>
<path d="M1026.65 573.82C1024.77 573.82 1023.09 573.39 1021.6 572.53C1020.11 571.67 1018.93 570.49 1018.07 569C1017.21 567.51 1016.78 565.82 1016.78 563.95C1016.78 562.08 1017.21 560.39 1018.07 558.9C1018.93 557.4 1020.11 556.23 1021.6 555.37C1023.09 554.51 1024.78 554.08 1026.65 554.08C1028.52 554.08 1030.21 554.51 1031.7 555.37C1033.2 556.23 1034.37 557.41 1035.24 558.9C1036.11 560.39 1036.53 562.08 1036.53 563.95C1036.53 565.83 1036.1 567.51 1035.24 569C1034.38 570.5 1033.2 571.67 1031.7 572.53C1030.21 573.39 1028.53 573.82 1026.65 573.82Z" fill="#8B8332"/>
<path d="M875.73 572.4C873.85 572.4 872.17 571.97 870.68 571.11C869.18 570.25 868.01 569.07 867.15 567.58C866.29 566.09 865.86 564.4 865.86 562.53C865.86 560.66 866.29 558.97 867.15 557.48C868.01 555.98 869.19 554.81 870.68 553.95C872.17 553.09 873.86 552.66 875.73 552.66C877.6 552.66 879.29 553.09 880.78 553.95C882.27 554.81 883.45 555.99 884.31 557.48C885.17 558.97 885.6 560.66 885.6 562.53C885.6 564.41 885.17 566.09 884.31 567.58C883.45 569.08 882.27 570.25 880.78 571.11C879.29 571.96 877.61 572.4 875.73 572.4Z" fill="#8B8332"/>
<path d="M885.59 675.31C883.71 675.31 882.03 674.88 880.54 674.02C879.04 673.16 877.87 671.98 877.01 670.49C876.15 669 875.72 667.31 875.72 665.44C875.72 663.57 876.15 661.88 877.01 660.39C877.87 658.89 879.05 657.72 880.54 656.86C882.03 656 883.72 655.57 885.59 655.57C887.46 655.57 889.15 656 890.64 656.86C892.13 657.72 893.31 658.9 894.17 660.39C895.03 661.88 895.46 663.57 895.46 665.44C895.46 667.32 895.03 669 894.17 670.49C893.31 671.99 892.13 673.16 890.64 674.02C889.15 674.88 887.46 675.31 885.59 675.31Z" fill="#8B8332"/>
<path d="M936.27 815.75C934.39 815.75 932.71 815.32 931.22 814.46C929.72 813.6 928.55 812.42 927.69 810.93C926.83 809.44 926.4 807.75 926.4 805.88C926.4 804.01 926.83 802.32 927.69 800.83C928.55 799.33 929.73 798.16 931.22 797.3C932.71 796.44 934.4 796.01 936.27 796.01C938.14 796.01 939.83 796.44 941.32 797.3C942.81 798.16 943.99 799.34 944.85 800.83C945.71 802.32 946.14 804.01 946.14 805.88C946.14 807.76 945.71 809.44 944.85 810.93C943.99 812.43 942.81 813.6 941.32 814.46C939.83 815.32 938.15 815.75 936.27 815.75Z" fill="#8B8332"/>
<path d="M829.47 944.21C827.59 944.21 825.91 943.78 824.42 942.92C822.92 942.06 821.75 940.88 820.89 939.39C820.03 937.9 819.6 936.21 819.6 934.34C819.6 932.47 820.03 930.78 820.89 929.29C821.75 927.79 822.93 926.62 824.42 925.76C825.91 924.9 827.6 924.47 829.47 924.47C831.34 924.47 833.03 924.9 834.52 925.76C836.01 926.62 837.19 927.8 838.05 929.29C838.91 930.78 839.34 932.47 839.34 934.34C839.34 936.22 838.91 937.9 838.05 939.39C837.19 940.89 836.01 942.06 834.52 942.92C833.03 943.78 831.34 944.21 829.47 944.21Z" fill="#8B8332"/>
<path d="M891.03 743.2C889.15 743.2 887.47 742.77 885.98 741.91C884.48 741.05 883.31 739.87 882.45 738.38C881.59 736.89 881.16 735.2 881.16 733.33C881.16 731.46 881.59 729.77 882.45 728.28C883.31 726.78 884.49 725.61 885.98 724.75C887.47 723.89 889.16 723.46 891.03 723.46C892.9 723.46 894.59 723.89 896.08 724.75C897.57 725.61 898.75 726.79 899.61 728.28C900.47 729.77 900.9 731.46 900.9 733.33C900.9 735.21 900.47 736.89 899.61 738.38C898.75 739.88 897.57 741.05 896.08 741.91C894.59 742.77 892.9 743.2 891.03 743.2Z" fill="#8B8332"/>
<path d="M700.18 768.85C698.3 768.85 696.62 768.42 695.13 767.56C693.63 766.7 692.46 765.52 691.6 764.03C690.74 762.54 690.31 760.85 690.31 758.98C690.31 757.11 690.74 755.42 691.6 753.93C692.46 752.43 693.64 751.26 695.13 750.4C696.62 749.54 698.31 749.11 700.18 749.11C702.05 749.11 703.74 749.54 705.23 750.4C706.72 751.26 707.9 752.44 708.76 753.93C709.62 755.42 710.05 757.11 710.05 758.98C710.05 760.86 709.62 762.54 708.76 764.03C707.9 765.53 706.72 766.7 705.23 767.56C703.74 768.42 702.06 768.85 700.18 768.85Z" fill="#8B8332"/>
<path d="M633.48 787.99C631.6 787.99 629.92 787.56 628.43 786.7C626.93 785.84 625.76 784.66 624.9 783.17C624.04 781.68 623.61 779.99 623.61 778.12C623.61 776.25 624.04 774.56 624.9 773.07C625.76 771.57 626.94 770.4 628.43 769.54C629.92 768.68 631.61 768.25 633.48 768.25C635.35 768.25 637.04 768.68 638.53 769.54C640.02 770.4 641.2 771.58 642.06 773.07C642.92 774.56 643.35 776.25 643.35 778.12C643.35 780 642.92 781.68 642.06 783.17C641.2 784.67 640.02 785.84 638.53 786.7C637.04 787.56 635.36 787.99 633.48 787.99Z" fill="#8B8332"/>
<path d="M661.39 862.25C659.51 862.25 657.83 861.82 656.34 860.96C654.84 860.1 653.67 858.92 652.81 857.43C651.95 855.94 651.52 854.25 651.52 852.38C651.52 850.51 651.95 848.82 652.81 847.33C653.67 845.83 654.85 844.66 656.34 843.8C657.83 842.94 659.52 842.51 661.39 842.51C663.26 842.51 664.95 842.94 666.44 843.8C667.93 844.66 669.11 845.84 669.97 847.33C670.83 848.82 671.26 850.51 671.26 852.38C671.26 854.26 670.83 855.94 669.97 857.43C669.11 858.93 667.93 860.1 666.44 860.96C664.95 861.82 663.26 862.25 661.39 862.25Z" fill="#8B8332"/>
<path d="M317.92 493.45C316.04 493.45 314.36 493.02 312.87 492.16C311.37 491.3 310.2 490.12 309.34 488.63C308.48 487.14 308.05 485.45 308.05 483.58C308.05 481.71 308.48 480.02 309.34 478.53C310.2 477.03 311.38 475.86 312.87 475C314.36 474.14 316.05 473.71 317.92 473.71C319.79 473.71 321.48 474.14 322.97 475C324.46 475.86 325.64 477.04 326.5 478.53C327.36 480.02 327.79 481.71 327.79 483.58C327.79 485.46 327.36 487.14 326.5 488.63C325.64 490.13 324.46 491.3 322.97 492.16C321.48 493.02 319.8 493.45 317.92 493.45Z" fill="#8B8332"/>
<path d="M51.35 469.11C49.47 469.11 47.79 468.68 46.3 467.82C44.8 466.96 43.63 465.78 42.77 464.29C41.91 462.8 41.48 461.11 41.48 459.24C41.48 457.37 41.91 455.68 42.77 454.19C43.63 452.69 44.81 451.52 46.3 450.66C47.79 449.8 49.48 449.37 51.35 449.37C53.22 449.37 54.91 449.8 56.4 450.66C57.89 451.52 59.07 452.7 59.93 454.19C60.79 455.68 61.22 457.37 61.22 459.24C61.22 461.12 60.79 462.8 59.93 464.29C59.07 465.79 57.89 466.96 56.4 467.82C54.91 468.68 53.22 469.11 51.35 469.11Z" fill="#8B8332"/>
<path d="M53.68 307.6C51.8 307.6 50.12 307.17 48.63 306.31C47.13 305.45 45.96 304.27 45.1 302.78C44.24 301.29 43.81 299.6 43.81 297.73C43.81 295.86 44.24 294.17 45.1 292.68C45.96 291.18 47.14 290.01 48.63 289.15C50.12 288.29 51.81 287.86 53.68 287.86C55.55 287.86 57.24 288.29 58.73 289.15C60.22 290.01 61.4 291.19 62.26 292.68C63.12 294.17 63.55 295.86 63.55 297.73C63.55 299.61 63.12 301.29 62.26 302.78C61.4 304.28 60.22 305.45 58.73 306.31C57.24 307.17 55.56 307.6 53.68 307.6Z" fill="#8B8332"/>
<path d="M125.76 319.55C123.88 319.55 122.2 319.12 120.71 318.26C119.21 317.4 118.04 316.22 117.18 314.73C116.32 313.24 115.89 311.55 115.89 309.68C115.89 307.81 116.32 306.12 117.18 304.63C118.04 303.13 119.22 301.96 120.71 301.1C122.2 300.24 123.89 299.81 125.76 299.81C127.63 299.81 129.32 300.24 130.81 301.1C132.3 301.96 133.48 303.14 134.34 304.63C135.2 306.12 135.63 307.81 135.63 309.68C135.63 311.56 135.2 313.24 134.34 314.73C133.48 316.23 132.3 317.4 130.81 318.26C129.32 319.12 127.64 319.55 125.76 319.55Z" fill="#8B8332"/>
<path d="M406.71 216.76C404.83 216.76 403.15 216.33 401.66 215.47C400.16 214.61 398.99 213.43 398.13 211.94C397.27 210.45 396.84 208.76 396.84 206.89C396.84 205.02 397.27 203.33 398.13 201.84C398.99 200.34 400.17 199.17 401.66 198.31C403.15 197.45 404.84 197.02 406.71 197.02C408.58 197.02 410.27 197.45 411.76 198.31C413.25 199.17 414.43 200.35 415.29 201.84C416.15 203.33 416.58 205.02 416.58 206.89C416.58 208.77 416.15 210.45 415.29 211.94C414.43 213.44 413.25 214.61 411.76 215.47C410.27 216.33 408.59 216.76 406.71 216.76Z" fill="#8B8332"/>
<path d="M592.39 579.57C590.51 579.57 588.83 579.14 587.34 578.28C585.84 577.42 584.67 576.24 583.81 574.75C582.95 573.26 582.52 571.57 582.52 569.7C582.52 567.83 582.95 566.14 583.81 564.65C584.67 563.15 585.85 561.98 587.34 561.12C588.83 560.26 590.52 559.83 592.39 559.83C594.26 559.83 595.95 560.26 597.44 561.12C598.93 561.98 600.11 563.16 600.97 564.65C601.83 566.14 602.26 567.83 602.26 569.7C602.26 571.58 601.83 573.26 600.97 574.75C600.11 576.25 598.93 577.42 597.44 578.28C595.95 579.14 594.26 579.57 592.39 579.57Z" fill="#8B8332"/>
<path d="M579.82 414.31C577.94 414.31 576.26 413.88 574.77 413.02C573.27 412.16 572.1 410.98 571.24 409.49C570.38 408 569.95 406.31 569.95 404.44C569.95 402.57 570.38 400.88 571.24 399.39C572.1 397.89 573.28 396.72 574.77 395.86C576.26 395 577.95 394.57 579.82 394.57C581.69 394.57 583.38 395 584.87 395.86C586.36 396.72 587.54 397.9 588.4 399.39C589.26 400.88 589.69 402.57 589.69 404.44C589.69 406.32 589.26 408 588.4 409.49C587.54 410.99 586.36 412.16 584.87 413.02C583.37 413.88 581.69 414.31 579.82 414.31Z" fill="#8B8332"/>
<path d="M520.73 342.52C518.85 342.52 517.17 342.09 515.68 341.23C514.18 340.37 513.01 339.19 512.15 337.7C511.29 336.21 510.86 334.52 510.86 332.65C510.86 330.78 511.29 329.09 512.15 327.6C513.01 326.1 514.19 324.93 515.68 324.07C517.17 323.21 518.86 322.78 520.73 322.78C522.6 322.78 524.29 323.21 525.78 324.07C527.27 324.93 528.45 326.11 529.31 327.6C530.17 329.09 530.6 330.78 530.6 332.65C530.6 334.53 530.17 336.21 529.31 337.7C528.45 339.2 527.27 340.37 525.78 341.23C524.29 342.09 522.61 342.52 520.73 342.52Z" fill="#8B8332"/>
<path d="M173.4 255.88C171.52 255.88 169.84 255.45 168.35 254.59C166.85 253.73 165.68 252.55 164.82 251.06C163.96 249.57 163.53 247.88 163.53 246.01C163.53 244.14 163.96 242.45 164.82 240.96C165.68 239.46 166.86 238.29 168.35 237.43C169.84 236.57 171.53 236.14 173.4 236.14C175.27 236.14 176.96 236.57 178.45 237.43C179.94 238.29 181.12 239.47 181.98 240.96C182.84 242.45 183.27 244.14 183.27 246.01C183.27 247.89 182.84 249.57 181.98 251.06C181.12 252.56 179.94 253.73 178.45 254.59C176.96 255.45 175.28 255.88 173.4 255.88Z" fill="#8B8332"/>
<path d="M96.5 261.21C94.62 261.21 92.94 260.78 91.45 259.92C89.95 259.06 88.78 257.88 87.92 256.39C87.06 254.9 86.63 253.21 86.63 251.34C86.63 249.47 87.06 247.78 87.92 246.29C88.78 244.79 89.96 243.62 91.45 242.76C92.94 241.9 94.63 241.47 96.5 241.47C98.37 241.47 100.06 241.9 101.55 242.76C103.04 243.62 104.22 244.8 105.08 246.29C105.94 247.78 106.37 249.47 106.37 251.34C106.37 253.22 105.94 254.9 105.08 256.39C104.22 257.89 103.04 259.06 101.55 259.92C100.06 260.78 98.37 261.21 96.5 261.21Z" fill="#8B8332"/>
<path d="M1818.87 571.74C1816.99 571.74 1815.31 571.31 1813.82 570.45C1812.32 569.59 1811.15 568.41 1810.29 566.92C1809.43 565.43 1809 563.74 1809 561.87C1809 560 1809.43 558.31 1810.29 556.82C1811.15 555.32 1812.33 554.15 1813.82 553.29C1815.31 552.43 1817 552 1818.87 552C1820.74 552 1822.43 552.43 1823.92 553.29C1825.41 554.15 1826.59 555.33 1827.45 556.82C1828.31 558.31 1828.74 560 1828.74 561.87C1828.74 563.75 1828.31 565.43 1827.45 566.92C1826.59 568.42 1825.41 569.59 1823.92 570.45C1822.43 571.31 1820.74 571.74 1818.87 571.74Z" fill="#8B8332"/>
<path d="M1600.87 457.74C1598.99 457.74 1597.31 457.31 1595.82 456.45C1594.32 455.59 1593.15 454.41 1592.29 452.92C1591.43 451.43 1591 449.74 1591 447.87C1591 446 1591.43 444.31 1592.29 442.82C1593.15 441.32 1594.33 440.15 1595.82 439.29C1597.31 438.43 1599 438 1600.87 438C1602.74 438 1604.43 438.43 1605.92 439.29C1607.41 440.15 1608.59 441.33 1609.45 442.82C1610.31 444.31 1610.74 446 1610.74 447.87C1610.74 449.75 1610.31 451.43 1609.45 452.92C1608.59 454.42 1607.41 455.59 1605.92 456.45C1604.43 457.31 1602.74 457.74 1600.87 457.74Z" fill="#8B8332"/>
<path d="M1382.87 388.74C1380.99 388.74 1379.31 388.31 1377.82 387.45C1376.32 386.59 1375.15 385.41 1374.29 383.92C1373.43 382.43 1373 380.74 1373 378.87C1373 377 1373.43 375.31 1374.29 373.82C1375.15 372.32 1376.33 371.15 1377.82 370.29C1379.31 369.43 1381 369 1382.87 369C1384.74 369 1386.43 369.43 1387.92 370.29C1389.41 371.15 1390.59 372.33 1391.45 373.82C1392.31 375.31 1392.74 377 1392.74 378.87C1392.74 380.75 1392.31 382.43 1391.45 383.92C1390.59 385.42 1389.41 386.59 1387.92 387.45C1386.43 388.31 1384.74 388.74 1382.87 388.74Z" fill="#8B8332"/>
<path d="M1036.87 897.74C1034.99 897.74 1033.31 897.31 1031.82 896.45C1030.32 895.59 1029.15 894.41 1028.29 892.92C1027.43 891.43 1027 889.74 1027 887.87C1027 886 1027.43 884.31 1028.29 882.82C1029.15 881.32 1030.33 880.15 1031.82 879.29C1033.31 878.43 1035 878 1036.87 878C1038.74 878 1040.43 878.43 1041.92 879.29C1043.41 880.15 1044.59 881.33 1045.45 882.82C1046.31 884.31 1046.74 886 1046.74 887.87C1046.74 889.75 1046.31 891.43 1045.45 892.92C1044.59 894.42 1043.41 895.59 1041.92 896.45C1040.43 897.31 1038.74 897.74 1036.87 897.74Z" fill="#8B8332"/>
<path d="M745.87 722.74C743.99 722.74 742.31 722.31 740.82 721.45C739.32 720.59 738.15 719.41 737.29 717.92C736.43 716.43 736 714.74 736 712.87C736 711 736.43 709.31 737.29 707.82C738.15 706.32 739.33 705.15 740.82 704.29C742.31 703.43 744 703 745.87 703C747.74 703 749.43 703.43 750.92 704.29C752.41 705.15 753.59 706.33 754.45 707.82C755.31 709.31 755.74 711 755.74 712.87C755.74 714.75 755.31 716.43 754.45 717.92C753.59 719.42 752.41 720.59 750.92 721.45C749.43 722.31 747.74 722.74 745.87 722.74Z" fill="#8B8332"/>
<path d="M465.87 270.74C463.99 270.74 462.31 270.31 460.82 269.45C459.32 268.59 458.15 267.41 457.29 265.92C456.43 264.43 456 262.74 456 260.87C456 259 456.43 257.31 457.29 255.82C458.15 254.32 459.33 253.15 460.82 252.29C462.31 251.43 464 251 465.87 251C467.74 251 469.43 251.43 470.92 252.29C472.41 253.15 473.59 254.33 474.45 255.82C475.31 257.31 475.74 259 475.74 260.87C475.74 262.75 475.31 264.43 474.45 265.92C473.59 267.42 472.41 268.59 470.92 269.45C469.43 270.31 467.74 270.74 465.87 270.74Z" fill="#8B8332"/>
<path d="M1714.87 542.74C1712.99 542.74 1711.31 542.31 1709.82 541.45C1708.32 540.59 1707.15 539.41 1706.29 537.92C1705.43 536.43 1705 534.74 1705 532.87C1705 531 1705.43 529.31 1706.29 527.82C1707.15 526.32 1708.33 525.15 1709.82 524.29C1711.31 523.43 1713 523 1714.87 523C1716.74 523 1718.43 523.43 1719.92 524.29C1721.41 525.15 1722.59 526.33 1723.45 527.82C1724.31 529.31 1724.74 531 1724.74 532.87C1724.74 534.75 1724.31 536.43 1723.45 537.92C1722.59 539.42 1721.41 540.59 1719.92 541.45C1718.43 542.31 1716.74 542.74 1714.87 542.74Z" fill="#8B8332"/>
<path d="M1342.87 377.74C1340.99 377.74 1339.31 377.31 1337.82 376.45C1336.32 375.59 1335.15 374.41 1334.29 372.92C1333.43 371.43 1333 369.74 1333 367.87C1333 366 1333.43 364.31 1334.29 362.82C1335.15 361.32 1336.33 360.15 1337.82 359.29C1339.31 358.43 1341 358 1342.87 358C1344.74 358 1346.43 358.43 1347.92 359.29C1349.41 360.15 1350.59 361.33 1351.45 362.82C1352.31 364.31 1352.74 366 1352.74 367.87C1352.74 369.75 1352.31 371.43 1351.45 372.92C1350.59 374.42 1349.41 375.59 1347.92 376.45C1346.43 377.31 1344.74 377.74 1342.87 377.74Z" fill="#8B8332"/>
<path d="M1199.87 418.74C1197.99 418.74 1196.31 418.31 1194.82 417.45C1193.32 416.59 1192.15 415.41 1191.29 413.92C1190.43 412.43 1190 410.74 1190 408.87C1190 407 1190.43 405.31 1191.29 403.82C1192.15 402.32 1193.33 401.15 1194.82 400.29C1196.31 399.43 1198 399 1199.87 399C1201.74 399 1203.43 399.43 1204.92 400.29C1206.41 401.15 1207.59 402.33 1208.45 403.82C1209.31 405.31 1209.74 407 1209.74 408.87C1209.74 410.75 1209.31 412.43 1208.45 413.92C1207.59 415.42 1206.41 416.59 1204.92 417.45C1203.43 418.31 1201.74 418.74 1199.87 418.74Z" fill="#8B8332"/>
<path d="M1071.87 883.74C1069.99 883.74 1068.31 883.31 1066.82 882.45C1065.32 881.59 1064.15 880.41 1063.29 878.92C1062.43 877.43 1062 875.74 1062 873.87C1062 872 1062.43 870.31 1063.29 868.82C1064.15 867.32 1065.33 866.15 1066.82 865.29C1068.31 864.43 1070 864 1071.87 864C1073.74 864 1075.43 864.43 1076.92 865.29C1078.41 866.15 1079.59 867.33 1080.45 868.82C1081.31 870.31 1081.74 872 1081.74 873.87C1081.74 875.75 1081.31 877.43 1080.45 878.92C1079.59 880.42 1078.41 881.59 1076.92 882.45C1075.43 883.31 1073.74 883.74 1071.87 883.74Z" fill="#8B8332"/>
<path d="M518.87 406.74C516.99 406.74 515.31 406.31 513.82 405.45C512.32 404.59 511.15 403.41 510.29 401.92C509.43 400.43 509 398.74 509 396.87C509 395 509.43 393.31 510.29 391.82C511.15 390.32 512.33 389.15 513.82 388.29C515.31 387.43 517 387 518.87 387C520.74 387 522.43 387.43 523.92 388.29C525.41 389.15 526.59 390.33 527.45 391.82C528.31 393.31 528.74 395 528.74 396.87C528.74 398.75 528.31 400.43 527.45 401.92C526.59 403.42 525.41 404.59 523.92 405.45C522.43 406.31 520.74 406.74 518.87 406.74Z" fill="#8B8332"/>
<path d="M96.5 261.21C94.62 261.21 92.94 260.78 91.45 259.92C89.95 259.06 88.78 257.88 87.92 256.39C87.06 254.9 86.63 253.21 86.63 251.34C86.63 249.47 87.06 247.78 87.92 246.29C88.78 244.79 89.96 243.62 91.45 242.76C92.94 241.9 94.63 241.47 96.5 241.47C98.37 241.47 100.06 241.9 101.55 242.76C103.04 243.62 104.22 244.8 105.08 246.29C105.94 247.78 106.37 249.47 106.37 251.34C106.37 253.22 105.94 254.9 105.08 256.39C104.22 257.89 103.04 259.06 101.55 259.92C100.06 260.78 98.37 261.21 96.5 261.21Z" fill="#8B8332"/>
<path d="M763.67 240.55C761.79 240.55 760.11 240.12 758.62 239.26C757.12 238.4 755.95 237.22 755.09 235.73C754.23 234.24 753.8 232.55 753.8 230.68C753.8 228.81 754.23 227.12 755.09 225.63C755.95 224.13 757.13 222.96 758.62 222.1C760.11 221.24 761.8 220.81 763.67 220.81C765.54 220.81 767.23 221.24 768.72 222.1C770.21 222.96 771.39 224.14 772.25 225.63C773.11 227.12 773.54 228.81 773.54 230.68C773.54 232.56 773.11 234.24 772.25 235.73C771.39 237.23 770.21 238.4 768.72 239.26C767.23 240.12 765.54 240.55 763.67 240.55Z" fill="#8B8332"/>
<path d="M834.77 264.18C832.89 264.18 831.21 263.75 829.72 262.89C828.22 262.03 827.05 260.85 826.19 259.36C825.33 257.87 824.9 256.18 824.9 254.31C824.9 252.44 825.33 250.75 826.19 249.26C827.05 247.76 828.23 246.59 829.72 245.73C831.21 244.87 832.9 244.44 834.77 244.44C836.64 244.44 838.33 244.87 839.82 245.73C841.31 246.59 842.49 247.77 843.35 249.26C844.21 250.75 844.64 252.44 844.64 254.31C844.64 256.19 844.21 257.87 843.35 259.36C842.49 260.86 841.31 262.03 839.82 262.89C838.33 263.75 836.64 264.18 834.77 264.18Z" fill="#8B8332"/>
<path d="M508.96 502.24C507.08 502.24 505.4 501.81 503.91 500.95C502.41 500.09 501.24 498.91 500.38 497.42C499.52 495.93 499.09 494.24 499.09 492.37C499.09 490.5 499.52 488.81 500.38 487.32C501.24 485.82 502.42 484.65 503.91 483.79C505.4 482.93 507.09 482.5 508.96 482.5C510.83 482.5 512.52 482.93 514.01 483.79C515.5 484.65 516.68 485.83 517.54 487.32C518.4 488.81 518.83 490.5 518.83 492.37C518.83 494.25 518.4 495.93 517.54 497.42C516.68 498.92 515.5 500.09 514.01 500.95C512.52 501.81 510.83 502.24 508.96 502.24Z" fill="#8B8332"/>
<path d="M522.49 917.81C520.61 917.81 518.93 917.38 517.44 916.52C515.94 915.66 514.77 914.48 513.91 912.99C513.05 911.5 512.62 909.81 512.62 907.94C512.62 906.07 513.05 904.38 513.91 902.89C514.77 901.39 515.95 900.22 517.44 899.36C518.93 898.5 520.62 898.07 522.49 898.07C524.36 898.07 526.05 898.5 527.54 899.36C529.03 900.22 530.21 901.4 531.07 902.89C531.93 904.38 532.36 906.07 532.36 907.94C532.36 909.82 531.93 911.5 531.07 912.99C530.21 914.49 529.03 915.66 527.54 916.52C526.05 917.38 524.36 917.81 522.49 917.81Z" fill="#8B8332"/>
<path d="M1418.12 366.71C1416.24 366.71 1414.56 366.28 1413.07 365.42C1411.57 364.56 1410.4 363.38 1409.53 361.89C1408.67 360.4 1408.24 358.71 1408.24 356.84C1408.24 354.97 1408.67 353.28 1409.53 351.79C1410.39 350.3 1411.57 349.12 1413.07 348.26C1414.56 347.4 1416.25 346.97 1418.12 346.97C1419.99 346.97 1421.68 347.4 1423.17 348.26C1424.66 349.12 1425.84 350.3 1426.7 351.79C1427.56 353.28 1427.99 354.97 1427.99 356.84C1427.99 358.72 1427.56 360.4 1426.7 361.89C1425.84 363.39 1424.66 364.56 1423.17 365.42C1421.68 366.28 1419.99 366.71 1418.12 366.71Z" fill="#8B8332"/>
<path d="M855.37 920.54C853.49 920.54 851.81 920.11 850.32 919.25C848.82 918.39 847.65 917.21 846.79 915.72C845.93 914.23 845.5 912.54 845.5 910.67C845.5 908.8 845.93 907.11 846.79 905.62C847.65 904.12 848.83 902.95 850.32 902.09C851.81 901.23 853.5 900.8 855.37 900.8C857.24 900.8 858.93 901.23 860.42 902.09C861.91 902.95 863.09 904.13 863.95 905.62C864.81 907.11 865.24 908.8 865.24 910.67C865.24 912.55 864.81 914.23 863.95 915.72C863.09 917.22 861.91 918.39 860.42 919.25C858.93 920.11 857.25 920.54 855.37 920.54Z" fill="#8B8332"/>
<path d="M591.52 894.2C589.64 894.2 587.96 893.77 586.47 892.91C584.97 892.05 583.8 890.87 582.94 889.38C582.08 887.89 581.65 886.2 581.65 884.33C581.65 882.46 582.08 880.77 582.94 879.28C583.8 877.78 584.98 876.61 586.47 875.75C587.96 874.89 589.65 874.46 591.52 874.46C593.39 874.46 595.08 874.89 596.57 875.75C598.06 876.61 599.24 877.79 600.1 879.28C600.96 880.77 601.39 882.46 601.39 884.33C601.39 886.21 600.96 887.89 600.1 889.38C599.24 890.88 598.06 892.05 596.57 892.91C595.08 893.77 593.39 894.2 591.52 894.2Z" fill="#8B8332"/>
<path d="M949.89 665.63C948.01 665.63 946.33 665.2 944.84 664.34C943.34 663.48 942.17 662.3 941.31 660.81C940.45 659.32 940.02 657.63 940.02 655.76C940.02 653.89 940.45 652.2 941.31 650.71C942.17 649.21 943.35 648.04 944.84 647.18C946.33 646.32 948.02 645.89 949.89 645.89C951.76 645.89 953.45 646.32 954.94 647.18C956.43 648.04 957.61 649.22 958.47 650.71C959.33 652.2 959.76 653.89 959.76 655.76C959.76 657.64 959.33 659.32 958.47 660.81C957.61 662.31 956.43 663.48 954.94 664.34C953.45 665.2 951.76 665.63 949.89 665.63Z" fill="#8B8332"/>
</svg>
