<?xml version="1.0" standalone="no"?>
<!DOCTYPE svg PUBLIC "-//W3C//DTD SVG 20010904//EN"
 "http://www.w3.org/TR/2001/REC-SVG-20010904/DTD/svg10.dtd">
<svg version="1.0" xmlns="http://www.w3.org/2000/svg"
 width="1170.000000pt" height="698.000000pt" viewBox="0 0 1170.000000 698.000000"
 preserveAspectRatio="xMidYMid meet">

<g transform="translate(0.000000,698.000000) scale(0.100000,-0.100000)"
fill="#000000" stroke="none">
<path d="M6245 4320 c-3 -5 -3 -15 1 -22 5 -7 3 -8 -6 -3 -10 6 -12 3 -8 -13
5 -19 3 -21 -17 -16 -13 3 -32 1 -43 -5 -16 -8 -24 -8 -34 3 -40 39 -108 25
-108 -23 1 -46 24 -64 71 -58 28 4 46 1 55 -8 16 -16 19 -55 4 -55 -15 0 -12
-68 3 -73 6 -2 4 -3 -5 -2 -10 2 -18 -3 -18 -11 0 -8 -4 -14 -10 -14 -12 0
-13 -50 -2 -65 25 -36 102 -31 102 8 0 13 9 17 43 17 51 0 72 25 62 71 -5 23
-14 31 -36 36 -16 3 -35 15 -41 27 -6 11 -16 24 -22 28 -6 4 -4 14 9 27 10 12
15 24 11 28 -4 4 10 12 31 18 49 14 64 49 38 88 -18 28 -67 38 -80 17z m65
-280 c0 -5 -7 -7 -15 -4 -8 4 -15 8 -15 10 0 2 7 4 15 4 8 0 15 -4 15 -10z"/>
<path d="M6704 4306 c-23 -37 -15 -68 25 -87 18 -8 38 -23 43 -32 5 -9 16 -17
24 -17 13 0 13 -2 -1 -17 -9 -9 -20 -26 -25 -38 -5 -14 -20 -25 -38 -28 -34
-7 -47 -34 -38 -72 5 -18 15 -26 42 -31 24 -4 38 -14 44 -29 12 -31 19 -34 57
-23 23 6 33 15 37 36 10 53 5 146 -9 168 -13 20 -12 23 3 30 9 4 32 8 51 9 38
2 51 17 51 62 0 22 -6 36 -19 43 -28 14 -56 13 -71 -4 -6 -8 -17 -13 -23 -11
-7 2 -24 6 -38 9 -18 4 -29 14 -33 31 -9 35 -59 35 -82 1z m176 -76 c0 -5 -2
-10 -4 -10 -3 0 -8 5 -11 10 -3 6 -1 10 4 10 6 0 11 -4 11 -10z m-45 -140 c3
-5 1 -10 -4 -10 -6 0 -11 5 -11 10 0 6 2 10 4 10 3 0 8 -4 11 -10z m-105 -34
c0 -2 -7 -7 -16 -10 -8 -3 -12 -2 -9 4 6 10 25 14 25 6z"/>
<path d="M5402 4274 c-37 -26 -20 -91 24 -95 40 -4 52 2 64 30 11 28 1 70 -18
72 -4 0 -16 2 -28 4 -11 3 -30 -3 -42 -11z"/>
<path d="M7529 4277 c-45 -35 -23 -97 36 -97 37 0 55 20 55 63 0 35 -61 57
-91 34z"/>
<path d="M8568 4279 c-22 -12 -23 -57 -3 -85 26 -39 94 -9 94 41 0 46 -48 69
-91 44z"/>
<path d="M9209 4269 c-22 -22 -23 -29 -7 -64 22 -48 107 -27 108 28 0 9 -5 17
-11 17 -5 0 -8 4 -5 9 3 5 0 13 -7 18 -21 16 -57 13 -78 -8z"/>
<path d="M1358 4233 c-21 -5 -33 -43 -24 -77 9 -36 60 -45 91 -16 25 23 24 52
-3 83 -15 17 -30 19 -64 10z"/>
<path d="M2426 4224 c-9 -8 -16 -28 -16 -44 0 -79 104 -79 108 0 2 50 -57 79
-92 44z"/>
<path d="M4948 4025 c-19 -41 0 -79 40 -83 36 -4 66 14 58 34 -3 7 0 14 7 17
8 2 6 12 -6 30 -24 38 -82 39 -99 2z"/>
<path d="M7961 4036 c-6 -7 -8 -22 -4 -31 5 -14 3 -16 -7 -10 -8 5 -5 -5 6
-24 16 -28 24 -32 54 -29 27 2 37 9 44 29 5 14 6 38 2 53 -5 22 -12 26 -45 26
-21 0 -44 -6 -50 -14z m86 -48 c-3 -8 -6 -5 -6 6 -1 11 2 17 5 13 3 -3 4 -12
1 -19z"/>
<path d="M10068 4025 c-18 -39 6 -85 44 -85 31 0 67 32 68 61 1 48 -92 68
-112 24z m73 -28 c-10 -9 -11 -8 -5 6 3 10 9 15 12 12 3 -3 0 -11 -7 -18z"/>
<path d="M2813 4018 c-29 -14 -32 -74 -5 -94 39 -30 92 -6 92 42 0 16 -4 34
-8 41 -11 17 -54 23 -79 11z"/>
<path d="M3463 4023 c-26 -5 -39 -39 -29 -78 5 -18 15 -26 43 -31 31 -6 39 -3
55 16 43 53 3 106 -69 93z"/>
<path d="M3730 4023 c-28 -7 -41 -39 -29 -70 12 -32 26 -43 56 -43 23 0 53 34
53 60 0 35 -43 63 -80 53z m30 -53 c0 -5 -5 -10 -11 -10 -5 0 -7 5 -4 10 3 6
8 10 11 10 2 0 4 -4 4 -10z"/>
<path d="M4354 4005 c-19 -30 -12 -70 17 -88 23 -14 72 0 65 19 -3 9 -1 12 4
9 15 -9 16 52 1 67 -3 4 -21 10 -38 14 -26 5 -34 2 -49 -21z m56 -40 c0 -8 -7
-15 -15 -15 -13 0 -14 3 -3 15 16 18 18 18 18 0z"/>
<path d="M6466 4014 c-23 -22 -21 -81 3 -94 29 -15 56 -12 74 8 49 54 -26 137
-77 86z"/>
<path d="M4570 3920 c-13 -8 -12 -12 5 -24 11 -9 15 -16 8 -16 -6 0 -15 5 -18
10 -13 20 -25 9 -25 -23 0 -40 15 -57 50 -57 33 0 60 28 60 62 0 22 -14 35
-60 54 -3 2 -12 -1 -20 -6z m40 -54 c0 -2 -7 -7 -16 -10 -8 -3 -12 -2 -9 4 6
10 25 14 25 6z"/>
<path d="M9494 3922 c-25 -16 -34 -49 -21 -76 15 -31 28 -37 67 -29 19 3 30
12 30 22 0 9 5 22 10 27 7 7 4 19 -10 37 -21 26 -53 34 -76 19z m46 -32 c0 -5
-4 -10 -10 -10 -5 0 -10 5 -10 10 0 6 5 10 10 10 6 0 10 -4 10 -10z"/>
<path d="M8384 3910 c-28 -11 -38 -59 -17 -82 16 -18 59 -24 79 -10 6 4 14 21
17 39 5 26 2 35 -16 48 -24 17 -33 18 -63 5z"/>
<path d="M1895 3845 c-26 -26 -27 -52 -3 -82 16 -20 76 -16 86 5 11 19 7 71
-5 82 -24 22 -53 20 -78 -5z m65 -9 c0 -3 -4 -8 -10 -11 -5 -3 -10 -1 -10 4 0
6 5 11 10 11 6 0 10 -2 10 -4z"/>
<path d="M5397 3852 c-37 -40 -11 -92 47 -92 45 0 64 31 49 77 -8 23 -16 29
-44 31 -24 2 -40 -3 -52 -16z"/>
<path d="M7523 3863 c-18 -7 -16 -71 1 -89 22 -21 73 -18 86 5 32 60 -22 111
-87 84z"/>
<path d="M10730 3847 c-33 -17 -48 -60 -28 -81 28 -27 64 -30 88 -6 25 25 21
66 -7 88 -20 15 -22 15 -53 -1z m-3 -59 c-3 -8 -6 -5 -6 6 -1 11 2 17 5 13 3
-3 4 -12 1 -19z"/>
<path d="M10106 3764 c-18 -48 8 -94 55 -94 35 0 49 18 49 61 0 41 -11 49 -65
49 -21 0 -35 -6 -39 -16z"/>
<path d="M10282 3697 c-12 -13 -22 -33 -22 -45 0 -24 15 -30 24 -9 3 6 3 1 0
-12 -5 -18 -3 -23 8 -19 12 5 12 -2 4 -42 -12 -59 1 -81 48 -78 44 2 56 15 56
57 0 29 -6 40 -27 53 -16 10 -22 18 -15 18 18 0 15 65 -4 84 -22 22 -47 20
-72 -7z m38 -31 c0 -3 -4 -8 -10 -11 -5 -3 -10 -1 -10 4 0 6 5 11 10 11 6 0
10 -2 10 -4z"/>
<path d="M5231 3651 c-18 -11 -19 -65 -1 -85 29 -36 100 -7 100 41 0 41 -61
68 -99 44z"/>
<path d="M7685 3639 c-4 -11 -4 -35 -1 -53 6 -30 10 -33 45 -34 34 -2 40 2 54
30 14 28 14 34 0 55 -21 32 -88 33 -98 2z m55 -49 c0 -5 -5 -10 -11 -10 -5 0
-7 5 -4 10 3 6 8 10 11 10 2 0 4 -4 4 -10z"/>
<path d="M9910 3590 c-29 -29 -26 -74 6 -88 54 -25 105 18 85 72 -16 40 -59
48 -91 16z m57 -6 c-3 -3 -12 -4 -19 -1 -8 3 -5 6 6 6 11 1 17 -2 13 -5z"/>
<path d="M4407 3449 c-17 -19 -18 -32 -6 -79 3 -9 -4 -16 -18 -18 -30 -4 -50
-62 -31 -91 14 -23 48 -27 80 -10 18 10 20 17 14 60 -6 45 -5 49 13 49 11 0
28 11 37 24 37 58 -45 117 -89 65z"/>
<path d="M8513 3455 c-16 -18 -17 -67 -1 -83 7 -7 26 -12 43 -12 37 0 55 16
55 48 0 41 -18 62 -53 62 -18 -1 -38 -7 -44 -15z m57 -60 c0 -8 -7 -15 -15
-15 -13 0 -14 3 -3 15 16 18 18 18 18 0z"/>
<path d="M5058 3444 c-36 -19 -38 -61 -5 -92 30 -28 41 -28 66 4 27 34 26 55
-2 82 -27 26 -24 25 -59 6z"/>
<path d="M7530 3450 c0 -5 -7 -10 -15 -10 -25 0 -24 -64 2 -92 21 -24 34 -23
66 5 32 27 34 60 7 87 -21 21 -60 27 -60 10z m20 -35 c0 -8 -2 -15 -4 -15 -2
0 -6 7 -10 15 -3 8 -1 15 4 15 6 0 10 -7 10 -15z"/>
<path d="M7893 3439 c-28 -10 -34 -41 -16 -78 11 -21 23 -31 39 -31 22 0 53
22 55 41 1 5 2 15 3 22 6 37 -38 62 -81 46z"/>
<path d="M1750 3431 c-14 -10 -18 -70 -5 -90 10 -18 76 -13 91 7 41 53 -27
119 -86 83z"/>
<path d="M2026 3424 c-18 -18 -20 -33 -6 -68 8 -22 16 -26 48 -26 32 0 41 5
51 26 12 28 6 64 -13 76 -19 13 -64 9 -80 -8z m77 -14 c3 -11 1 -20 -4 -20 -5
0 -9 2 -9 4 0 2 -3 11 -6 20 -3 9 -2 16 4 16 5 0 12 -9 15 -20z"/>
<path d="M5404 3414 c-9 -34 16 -78 46 -82 44 -7 85 76 49 99 -8 5 -31 9 -51
9 -32 0 -39 -4 -44 -26z"/>
<path d="M9250 3421 c-5 -11 -10 -27 -10 -35 0 -26 33 -56 62 -56 36 0 63 46
48 84 -8 22 -16 26 -49 26 -30 0 -43 -5 -51 -19z m25 -20 c-3 -6 -11 -11 -16
-11 -5 0 -4 6 3 14 14 16 24 13 13 -3z m52 -7 c-3 -3 -12 -4 -19 -1 -8 3 -5 6
6 6 11 1 17 -2 13 -5z"/>
<path d="M10824 3432 c-13 -8 -27 -191 -18 -228 8 -32 66 -44 94 -19 23 21 28
102 9 137 -8 14 -8 23 0 31 16 16 14 56 -3 73 -15 15 -63 19 -82 6z m50 -10
c2 -4 -4 -8 -14 -8 -10 0 -16 4 -14 8 3 4 9 8 14 8 5 0 11 -4 14 -8z m-16 -42
c-7 -10 -14 -18 -15 -16 -6 6 9 36 18 36 5 0 4 -9 -3 -20z m-23 -120 c3 -5 1
-10 -4 -10 -6 0 -11 5 -11 10 0 6 2 10 4 10 3 0 8 -4 11 -10z"/>
<path d="M3470 3382 c-30 -5 -40 -18 -40 -52 0 -44 60 -76 96 -52 17 11 26 60
15 81 -12 21 -35 28 -71 23z m47 -18 c-3 -3 -12 -4 -19 -1 -8 3 -5 6 6 6 11 1
17 -2 13 -5z"/>
<path d="M3733 3382 c-38 -6 -44 -95 -8 -109 28 -10 65 7 76 34 19 50 -12 84
-68 75z"/>
<path d="M2802 3330 c-16 -26 -15 -58 2 -76 18 -17 68 -18 84 -2 15 15 16 53
2 79 -15 26 -71 26 -88 -1z"/>
<path d="M9939 3330 c-21 -22 -19 -53 3 -80 22 -25 52 -26 77 -1 16 16 18 26
11 52 -15 51 -59 65 -91 29z m49 -55 c-3 -3 -9 2 -12 12 -6 14 -5 15 5 6 7 -7
10 -15 7 -18z"/>
<path d="M5238 3217 c-28 -22 -33 -62 -9 -86 26 -26 49 -26 79 -2 28 24 28 52
-1 79 -26 25 -44 27 -69 9z"/>
<path d="M7700 3210 c-37 -37 -16 -100 33 -100 35 0 70 47 55 75 -25 47 -57
56 -88 25z"/>
<path d="M3582 3200 c-30 -25 -26 -57 10 -83 24 -18 31 -19 52 -7 33 17 44 65
20 91 -22 24 -52 24 -82 -1z m38 -35 c-7 -8 -17 -15 -22 -15 -6 0 -5 7 2 15 7
8 17 15 22 15 6 0 5 -7 -2 -15z m20 -19 c0 -3 -4 -8 -10 -11 -5 -3 -10 -1 -10
4 0 6 5 11 10 11 6 0 10 -2 10 -4z"/>
<path d="M10177 3172 c-21 -23 -22 -56 -1 -76 16 -17 61 -21 80 -8 17 11 24
51 14 78 -8 19 -17 24 -43 24 -20 0 -41 -7 -50 -18z"/>
<path d="M1673 3068 c-45 -21 -18 -108 33 -108 39 0 75 75 48 99 -16 15 -59
19 -81 9z"/>
<path d="M2123 3070 c-54 -22 -30 -110 31 -110 29 0 46 25 46 67 0 48 -27 63
-77 43z"/>
<path d="M4496 3054 c-17 -16 -19 -35 -10 -71 5 -19 13 -23 43 -23 20 0 42 5
49 12 18 18 15 85 -4 92 -28 11 -62 6 -78 -10z m44 -39 c-7 -9 -15 -13 -17
-11 -7 7 7 26 19 26 6 0 6 -6 -2 -15z"/>
<path d="M8422 3058 c-7 -7 -12 -26 -12 -43 0 -41 16 -55 61 -55 40 0 49 11
49 60 0 43 -67 69 -98 38z"/>
<path d="M5408 3036 c-32 -27 -37 -70 -10 -82 9 -4 20 -6 25 -6 17 4 5 -32
-18 -50 -29 -23 -33 -65 -7 -84 27 -21 79 -17 92 7 15 28 3 80 -21 86 -24 7
-24 18 1 36 32 22 36 70 9 96 -29 27 -38 26 -71 -3z"/>
<path d="M7540 3043 c-19 -7 -40 -33 -40 -49 0 -7 11 -26 25 -42 23 -28 24
-30 7 -48 -48 -51 -28 -104 37 -104 26 0 41 5 45 16 12 30 6 64 -14 81 -11 10
-20 22 -20 28 0 6 9 18 20 28 30 25 27 75 -6 87 -28 11 -32 11 -54 3z"/>
<path d="M9490 3020 c0 -5 -9 -10 -20 -10 -24 0 -37 -42 -24 -79 7 -19 17 -27
41 -29 62 -6 82 77 27 113 -13 8 -24 11 -24 5z"/>
<path d="M2956 2988 c-21 -30 -20 -50 5 -77 17 -18 28 -22 52 -17 17 3 33 9
36 12 11 11 3 87 -10 95 -26 16 -67 10 -83 -13z m81 -24 c-3 -3 -12 -4 -19 -1
-8 3 -5 6 6 6 11 1 17 -2 13 -5z m-43 -29 c3 -8 1 -15 -4 -15 -6 0 -10 7 -10
15 0 8 2 15 4 15 2 0 6 -7 10 -15z"/>
<path d="M4196 2985 c-9 -13 -16 -30 -16 -37 1 -18 25 -48 39 -48 20 0 12 -27
-14 -46 -32 -24 -34 -69 -4 -85 12 -6 36 -8 55 -4 30 5 34 10 34 36 0 40 -18
72 -36 65 -23 -9 -16 7 17 38 26 24 30 35 25 60 -7 35 -21 46 -57 46 -17 0
-32 -9 -43 -25z m54 -34 c0 -13 -29 -35 -37 -27 -3 3 -1 6 5 6 7 0 12 7 12 15
0 8 5 15 10 15 6 0 10 -4 10 -9z"/>
<path d="M10690 2960 c-22 -22 -25 -42 -10 -71 22 -39 111 -14 110 32 -1 45
-68 71 -100 39z"/>
<path d="M5242 2908 c-7 -7 -12 -26 -12 -43 0 -17 5 -36 12 -43 7 -7 26 -12
43 -12 17 0 36 5 43 12 17 17 15 64 -4 82 -18 19 -65 21 -82 4z"/>
<path d="M5886 2904 c-35 -34 -11 -94 37 -94 48 0 57 9 57 57 0 27 -4 42 -10
38 -5 -3 -10 -1 -10 4 0 17 -57 13 -74 -5z m54 -24 c0 -5 -5 -10 -11 -10 -5 0
-7 5 -4 10 3 6 8 10 11 10 2 0 4 -4 4 -10z"/>
<path d="M923 2895 c-19 -21 -16 -82 3 -89 28 -11 62 -6 78 10 19 18 21 65 4
82 -16 16 -70 14 -85 -3z"/>
<path d="M1612 2890 c-15 -25 -16 -62 0 -78 18 -18 73 -14 91 6 21 23 21 41 1
70 -20 29 -74 30 -92 2z m58 -10 c0 -5 -5 -10 -11 -10 -5 0 -7 5 -4 10 3 6 8
10 11 10 2 0 4 -4 4 -10z"/>
<path d="M2152 2898 c-15 -15 -16 -70 0 -86 22 -22 76 -15 94 12 13 22 14 29
2 53 -10 22 -21 29 -48 31 -19 2 -41 -3 -48 -10z"/>
<path d="M2837 2892 c-38 -42 -5 -96 54 -90 40 4 57 37 40 81 -9 22 -17 27
-44 27 -20 0 -41 -7 -50 -18z m58 -22 c3 -6 -1 -7 -9 -4 -18 7 -21 14 -7 14 6
0 13 -4 16 -10z m-35 -32 c0 -6 -6 -5 -15 2 -8 7 -15 14 -15 16 0 2 7 1 15 -2
8 -4 15 -11 15 -16z"/>
<path d="M6043 2894 c-19 -20 -16 -54 5 -55 15 0 15 -1 -1 -8 -40 -15 7 -29
92 -28 84 2 85 2 92 30 4 17 3 39 -3 52 -10 21 -16 23 -92 23 -55 0 -85 -4
-93 -14z"/>
<path d="M6784 2897 c-36 -42 -16 -97 36 -97 16 0 31 4 34 9 4 5 18 5 34 -1
41 -16 78 -3 86 28 8 31 1 43 -16 26 -7 -7 -16 -12 -21 -12 -5 0 1 8 13 18 13
11 20 24 16 30 -10 16 -69 15 -85 0 -11 -10 -14 -10 -18 0 -6 15 -65 15 -79
-1z m76 -57 c0 -5 -4 -10 -10 -10 -5 0 -10 5 -10 10 0 6 5 10 10 10 6 0 10 -4
10 -10z"/>
<path d="M8562 2898 c-7 -7 -12 -26 -12 -43 0 -17 5 -36 12 -43 7 -7 26 -12
43 -12 17 0 36 5 43 12 7 7 12 26 12 43 0 17 -5 36 -12 43 -7 7 -26 12 -43 12
-17 0 -36 -5 -43 -12z m42 -33 c-4 -8 -8 -15 -10 -15 -2 0 -4 7 -4 15 0 8 4
15 10 15 5 0 7 -7 4 -15z"/>
<path d="M9200 2881 c-14 -35 -5 -75 16 -67 9 3 12 1 9 -4 -11 -18 51 -10 68
8 36 40 7 92 -50 92 -24 0 -33 -6 -43 -29z m65 -61 c3 -5 1 -10 -4 -10 -6 0
-11 5 -11 10 0 6 2 10 4 10 3 0 8 -4 11 -10z"/>
<path d="M3613 2882 c-24 -3 -53 -37 -53 -59 0 -43 72 -69 104 -37 18 18 20
33 7 67 -11 27 -25 35 -58 29z"/>
<path d="M4930 2851 c-10 -24 -9 -34 2 -50 8 -12 18 -18 21 -14 4 3 7 1 7 -5
0 -19 45 -14 64 7 13 14 16 28 11 55 -7 35 -9 36 -50 36 -38 0 -44 -3 -55 -29z
m87 -3 c-3 -8 -6 -5 -6 6 -1 11 2 17 5 13 3 -3 4 -12 1 -19z"/>
<path d="M7969 2853 c-23 -59 46 -109 92 -67 41 37 14 94 -45 94 -31 0 -38 -4
-47 -27z"/>
<path d="M9990 2851 c-24 -60 50 -110 93 -63 19 21 21 45 7 73 -8 14 -21 19
-49 19 -33 0 -40 -4 -51 -29z m45 -1 c3 -5 2 -10 -4 -10 -5 0 -13 5 -16 10 -3
6 -2 10 4 10 5 0 13 -4 16 -10z"/>
<path d="M2688 2863 c-11 -3 -20 -19 -24 -40 -8 -40 11 -63 52 -63 44 0 54 10
54 55 0 36 -4 44 -22 49 -25 6 -34 6 -60 -1z m52 -83 c0 -5 -2 -10 -4 -10 -3
0 -8 5 -11 10 -3 6 -1 10 4 10 6 0 11 -4 11 -10z"/>
<path d="M4809 2677 c-23 -17 -32 -53 -19 -77 14 -26 77 -28 96 -2 20 26 17
59 -8 76 -27 19 -47 20 -69 3z"/>
<path d="M6513 2673 c-45 -31 -19 -93 39 -93 39 0 58 15 58 45 0 49 -57 77
-97 48z m39 -35 c-7 -7 -12 -8 -12 -2 0 14 12 26 19 19 2 -3 -1 -11 -7 -17z
m45 -14 c-3 -3 -12 -4 -19 -1 -8 3 -5 6 6 6 11 1 17 -2 13 -5z"/>
<path d="M8469 2669 c-21 -21 -24 -41 -9 -70 12 -22 78 -27 98 -7 18 18 14 56
-8 76 -28 23 -59 23 -81 1z"/>
<path d="M6954 2633 c5 -21 4 -24 -4 -13 -8 12 -10 10 -10 -11 0 -15 9 -38 20
-52 l21 -26 -21 -11 c-22 -12 -27 -58 -10 -90 10 -20 43 -22 82 -5 32 13 29
90 -3 82 -25 -7 -24 14 2 47 43 54 22 106 -43 106 -39 0 -40 -1 -34 -27z m26
-157 c0 -2 -7 -7 -16 -10 -8 -3 -12 -2 -9 4 6 10 25 14 25 6z"/>
<path d="M7594 2648 c-13 -21 -15 -45 -4 -73 8 -21 16 -25 50 -25 35 0 40 3
46 26 4 15 3 39 -2 53 -7 21 -17 27 -46 29 -22 2 -39 -2 -44 -10z m50 -31 c-2
-7 -14 -19 -27 -26 -21 -13 -21 -12 2 13 27 29 33 32 25 13z"/>
<path d="M6089 2546 c-15 -32 -4 -80 17 -72 9 3 12 1 9 -4 -4 -6 7 -10 24 -10
51 0 76 44 51 91 -8 14 -21 19 -51 19 -32 0 -41 -4 -50 -24z"/>
<path d="M7875 2545 c-14 -13 -25 -32 -25 -42 0 -26 16 -47 29 -39 6 4 11 2
11 -3 0 -17 47 -13 64 5 9 8 16 28 16 44 0 22 -7 32 -32 44 -39 20 -34 21 -63
-9z"/>
<path d="M4425 2552 c-31 -7 -45 -22 -45 -51 1 -37 20 -56 59 -59 27 -2 32 1
27 13 -3 9 -2 13 3 10 19 -11 30 28 15 56 -15 30 -29 37 -59 31z m5 -57 c0 -8
-4 -15 -10 -15 -5 0 -10 7 -10 15 0 8 5 15 10 15 6 0 10 -7 10 -15z"/>
<path d="M5242 2483 c-22 -28 -29 -49 -13 -39 5 4 7 -2 4 -12 -5 -22 48 -64
55 -44 2 7 12 12 23 12 27 0 36 46 16 79 -22 37 -57 38 -85 4z"/>
<path d="M9103 2468 c-19 -23 -20 -43 -7 -69 36 -72 129 -16 95 57 -8 18 -18
24 -45 24 -18 0 -38 -6 -43 -12z"/>
<path d="M4213 2433 c-27 -13 -33 -21 -33 -48 0 -18 7 -38 15 -45 8 -7 15 -19
15 -26 0 -8 -7 -14 -15 -14 -11 0 -15 -11 -15 -39 0 -25 5 -41 15 -45 10 -3
15 1 16 12 1 13 2 12 7 -4 6 -18 11 -19 40 -12 29 8 32 12 32 47 0 25 -5 41
-15 45 -20 7 -19 32 1 40 22 9 15 75 -11 92 -17 11 -25 11 -52 -3z m12 -73 c3
-5 1 -10 -4 -10 -6 0 -11 5 -11 10 0 6 2 10 4 10 3 0 8 -4 11 -10z m22 -62
c-3 -8 -6 -5 -6 6 -1 11 2 17 5 13 3 -3 4 -12 1 -19z"/>
<path d="M3362 2424 c-25 -18 -29 -56 -7 -78 8 -8 15 -21 15 -29 0 -8 -7 -17
-15 -21 -16 -6 -20 -43 -6 -65 5 -8 14 -10 21 -6 9 5 11 4 6 -3 -5 -8 5 -12
33 -12 l41 0 0 45 c0 25 -4 45 -10 45 -14 0 -12 38 2 42 17 6 15 77 -2 89 -22
13 -53 11 -78 -7z"/>
<path d="M8511 2408 c-24 -22 -28 -70 -7 -87 8 -7 32 -11 53 -9 36 3 38 5 41
41 5 59 -47 93 -87 55z"/>
<path d="M6767 2361 c-57 -33 -14 -109 51 -92 21 6 28 14 30 40 4 35 -14 65
-34 57 -7 -3 -14 -1 -16 3 -2 4 -16 0 -31 -8z m69 -40 c-4 -6 -13 -11 -19 -11
-8 0 -7 3 2 9 8 5 10 14 6 22 -6 11 -5 11 5 2 7 -6 9 -16 6 -22z"/>
<path d="M8666 2324 c-21 -21 -20 -46 4 -77 15 -18 18 -33 14 -57 -6 -27 -2
-36 21 -56 34 -29 36 -29 63 -5 15 12 22 30 22 55 0 32 -3 36 -22 33 -13 -2
-18 -2 -13 0 15 5 10 104 -6 114 -22 14 -66 10 -83 -7z"/>
<path d="M5090 2293 c-40 -15 -41 -73 -3 -98 24 -16 30 -16 52 -4 32 18 37 59
11 87 -21 22 -33 25 -60 15z"/>
<path d="M8296 2214 c-21 -20 -20 -44 4 -72 42 -50 115 -1 91 61 -9 22 -17 27
-45 27 -19 0 -42 -7 -50 -16z"/>
<path d="M6573 2155 c-28 -20 -29 -54 -3 -83 26 -28 54 -28 81 -1 16 16 19 27
13 52 -8 39 -5 36 -40 42 -18 4 -37 0 -51 -10z"/>
<path d="M6955 2163 c-6 -5 -16 -21 -23 -36 -10 -23 -9 -32 4 -52 21 -32 78
-35 94 -6 12 23 13 61 2 78 -10 16 -63 26 -77 16z"/>
<path d="M5946 2141 c-25 -28 -18 -73 16 -89 55 -26 102 24 74 80 -15 31 -66
36 -90 9z"/>
<path d="M4236 2069 c-3 -16 -3 -36 0 -44 4 -10 -5 -21 -25 -32 -23 -13 -31
-25 -31 -45 0 -16 5 -28 10 -28 6 0 10 -11 10 -24 0 -14 -4 -28 -10 -31 -14
-9 -12 -47 4 -67 16 -22 62 -23 83 -2 11 11 14 26 9 52 -3 20 -3 60 1 89 5 43
9 52 28 57 29 7 42 55 24 84 -10 15 -24 20 -55 20 -38 0 -42 -2 -48 -29z m41
-135 c-3 -3 -12 -4 -19 -1 -8 3 -5 6 6 6 11 1 17 -2 13 -5z"/>
<path d="M4898 2083 c-23 -6 -33 -48 -19 -79 15 -33 72 -34 93 -1 19 31 11 66
-18 78 -26 9 -28 10 -56 2z"/>
<path d="M5252 2063 c-16 -31 -7 -67 20 -81 27 -13 62 -7 52 9 -3 5 -2 9 3 8
37 -6 47 36 15 64 -25 23 -79 22 -90 0z"/>
<path d="M7649 2061 c-18 -21 -19 -47 -3 -75 9 -15 19 -18 49 -13 21 3 39 8
41 10 12 11 6 80 -7 88 -24 15 -64 10 -80 -10z m31 -35 c0 -3 -4 -8 -10 -11
-5 -3 -10 -1 -10 4 0 6 5 11 10 11 6 0 10 -2 10 -4z"/>
<path d="M9219 2070 c-13 -8 -17 -30 -17 -122 -1 -62 3 -119 7 -127 13 -21 69
-18 86 5 17 23 19 221 3 242 -12 14 -56 15 -79 2z m51 -50 c0 -5 -4 -10 -10
-10 -5 0 -10 5 -10 10 0 6 5 10 10 10 6 0 10 -4 10 -10z"/>
<path d="M3362 1987 c-26 -27 -27 -45 -7 -73 12 -19 12 -24 0 -40 -17 -22 -20
-64 -5 -64 6 0 10 -6 10 -14 0 -8 7 -17 16 -20 10 -4 13 -2 8 7 -5 7 0 6 10
-3 17 -13 21 -12 42 13 27 32 31 59 9 77 -16 14 -20 36 -6 42 4 2 11 13 15 25
5 17 1 29 -18 48 -31 31 -46 31 -74 2z"/>
<path d="M8327 1962 c-38 -42 -9 -95 49 -90 31 2 39 8 47 31 15 45 -5 77 -46
77 -20 0 -41 -7 -50 -18z"/>
<path d="M6757 1922 c-21 -23 -22 -65 -3 -81 8 -7 32 -11 53 -9 36 3 38 5 41
43 3 29 -1 43 -14 52 -25 18 -58 16 -77 -5z m78 -13 c11 -16 1 -19 -13 -3 -7
8 -8 14 -3 14 5 0 13 -5 16 -11z m-35 -13 c0 -11 -19 -15 -25 -6 -3 5 1 10 9
10 9 0 16 -2 16 -4z m10 -46 c0 -5 -2 -10 -4 -10 -3 0 -8 5 -11 10 -3 6 -1 10
4 10 6 0 11 -4 11 -10z"/>
<path d="M5066 1837 c-11 -16 -13 -31 -7 -52 5 -17 10 -26 10 -22 1 5 8 1 17
-8 10 -10 24 -13 38 -9 27 8 32 14 41 42 5 17 2 22 -12 22 -15 0 -15 2 -4 9
12 8 12 12 2 25 -20 24 -68 20 -85 -7z"/>
<path d="M8566 1814 c-18 -18 -20 -33 -6 -68 8 -21 16 -26 46 -26 40 0 63 20
64 57 0 30 -26 53 -60 53 -16 0 -36 -7 -44 -16z"/>
<path d="M7609 1741 c-25 -26 -30 -39 -23 -66 4 -16 12 -24 20 -21 7 3 15 0
17 -7 3 -9 11 -9 33 -2 23 8 30 17 32 44 5 54 -44 87 -79 52z"/>
<path d="M6096 1724 c-17 -17 -22 -69 -6 -59 5 3 7 0 4 -8 -8 -22 48 -42 74
-26 34 21 38 80 8 101 -19 13 -64 9 -80 -8z"/>
<path d="M6950 1715 c-7 -9 -10 -29 -7 -48 3 -23 -1 -39 -15 -57 -13 -16 -17
-32 -13 -49 8 -32 21 -41 61 -41 36 0 60 35 51 71 -3 13 -2 28 4 35 16 20 20
58 7 82 -14 26 -68 31 -88 7z"/>
<path d="M4348 1703 c-17 -4 -23 -26 -19 -67 2 -22 29 -45 54 -46 25 0 57 36
57 64 0 45 -36 64 -92 49z"/>
<path d="M5260 1681 c-36 -10 -40 -64 -8 -98 l23 -25 -22 -18 c-25 -20 -31
-68 -11 -88 7 -7 29 -12 49 -12 29 0 39 5 44 20 10 32 -4 78 -26 85 -10 4 -19
14 -19 22 0 9 3 13 7 10 14 -14 43 27 43 60 0 27 -5 35 -26 43 -14 6 -26 10
-27 9 -1 -1 -13 -4 -27 -8z"/>
<path d="M7858 1646 c-10 -7 -18 -18 -18 -25 0 -6 -4 -11 -10 -11 -15 0 -12
-27 6 -44 19 -20 78 -21 94 -1 7 9 9 26 5 45 -5 24 -11 31 -25 27 -13 -3 -17
0 -13 9 7 18 -16 18 -39 0z"/>
<path d="M6534 1620 c-27 -11 -36 -34 -24 -66 6 -14 10 -45 10 -69 0 -39 3
-44 30 -54 37 -12 77 0 82 26 2 10 -2 36 -9 57 -7 22 -11 47 -8 56 10 30 -44
63 -81 50z m55 -130 c-13 -10 -18 -19 -11 -20 6 0 12 -4 12 -9 0 -5 -11 -4
-24 2 l-24 12 27 17 c36 23 48 22 20 -2z"/>
<path d="M9072 1598 c-15 -15 -15 -40 0 -73 9 -19 19 -25 44 -25 36 0 54 21
54 62 0 32 -18 48 -55 48 -17 0 -36 -5 -43 -12z"/>
<path d="M6032 1582 c-11 -8 -17 -38 -13 -68 0 -7 12 -19 26 -28 24 -16 27
-16 55 1 33 19 41 63 16 89 -16 15 -63 19 -84 6z m42 -52 c-6 -5 -24 21 -24
34 0 6 6 1 14 -10 8 -10 12 -21 10 -24z"/>
<path d="M2677 1532 c-49 -54 6 -117 76 -87 25 11 24 81 -2 95 -29 15 -56 12
-74 -8z m33 -32 c0 -5 -2 -10 -4 -10 -3 0 -8 5 -11 10 -3 6 -1 10 4 10 6 0 11
-4 11 -10z"/>
<path d="M4197 1532 c-21 -23 -22 -59 -2 -78 19 -20 74 -21 86 -3 13 20 11 73
-3 87 -18 18 -63 14 -81 -6z m24 -25 c-10 -9 -11 -8 -5 6 3 10 9 15 12 12 3
-3 0 -11 -7 -18z"/>
<path d="M5887 1532 c-22 -24 -22 -78 -1 -86 31 -12 82 -6 88 10 12 31 6 82
-10 88 -29 11 -61 6 -77 -12z"/>
<path d="M4810 1509 c0 -7 -3 -9 -7 -6 -11 12 -33 -14 -33 -39 0 -45 53 -78
88 -56 15 10 26 72 15 89 -12 18 -63 28 -63 12z"/>
<path d="M8391 1501 c-24 -24 -21 -51 7 -83 42 -49 119 24 84 79 -4 7 -22 15
-39 19 -24 5 -36 1 -52 -15z m24 -41 c3 -5 1 -10 -4 -10 -6 0 -11 5 -11 10 0
6 2 10 4 10 3 0 8 -4 11 -10z"/>
<path d="M7409 1346 c-9 -18 -8 -31 3 -52 11 -24 20 -29 48 -29 28 0 37 5 48
29 22 46 3 76 -48 76 -33 0 -42 -4 -51 -24z"/>
<path d="M6072 1273 c-29 -36 -28 -67 3 -87 32 -21 48 -20 68 2 24 26 21 70
-5 93 -31 25 -40 24 -66 -8z"/>
<path d="M6647 1244 c-23 -12 -26 -19 -21 -42 10 -41 23 -52 60 -52 44 0 63
34 45 77 -14 33 -42 39 -84 17z"/>
</g>
</svg>
