<?xml version="1.0" standalone="no"?>
<!DOCTYPE svg PUBLIC "-//W3C//DTD SVG 20010904//EN"
 "http://www.w3.org/TR/2001/REC-SVG-20010904/DTD/svg10.dtd">
<svg version="1.0" xmlns="http://www.w3.org/2000/svg"
 width="300.000000pt" height="179.000000pt" viewBox="0 0 300.000000 179.000000"
 preserveAspectRatio="xMidYMid meet">
<metadata>
Created by potrace 1.10, written by Peter Selinger 2001-2011
</metadata>
<g transform="translate(0.000000,179.000000) scale(0.100000,-0.100000)"
fill="#000000" stroke="none">
<path class="logo-path" d="M1319 1747 c-100 -29 -188 -96 -249 -193 -22 -35 -46 -64 -53 -65 -6
0 -46 -1 -87 -3 -85 -3 -130 -22 -148 -61 -18 -39 -15 -74 13 -120 28 -48 55
-70 181 -148 51 -31 95 -64 98 -73 6 -16 -4 -35 -36 -75 -7 -8 -35 -30 -63
-49 -27 -18 -61 -42 -74 -54 l-24 -21 5 52 c6 66 29 91 64 73 26 -15 40 -9 31
13 -4 10 -37 16 -124 21 -95 5 -123 10 -145 26 -28 21 -96 27 -113 11 -6 -5
-58 -11 -118 -15 -82 -5 -107 -4 -105 6 2 6 -5 14 -15 16 -11 2 -17 -3 -17
-15 0 -11 -5 -24 -11 -30 -14 -14 40 -59 89 -73 91 -25 119 -13 165 71 14 24
21 29 29 21 7 -7 31 -12 55 -12 39 0 43 -2 43 -25 0 -14 4 -25 9 -25 13 0 13
-117 0 -138 -11 -17 -8 -24 20 -49 l33 -29 -23 -23 c-19 -17 -39 -23 -88 -26
-80 -5 -97 6 -94 60 3 74 -27 117 -67 95 -10 -5 -26 -7 -34 -4 -10 4 -18 -1
-23 -12 -4 -10 -2 -19 3 -21 15 -5 4 -63 -12 -63 -20 0 -17 -28 4 -33 15 -4
15 -5 -2 -6 -10 0 -24 -8 -30 -16 -10 -12 -19 -12 -76 0 -83 18 -100 18 -100
1 0 -22 19 -30 36 -15 11 9 23 9 53 0 21 -6 56 -11 78 -11 33 0 42 4 51 25 7
14 12 43 12 64 0 27 7 44 24 60 21 20 24 20 30 6 3 -10 12 -15 21 -11 12 4 15
-3 15 -29 0 -19 -4 -35 -10 -35 -5 0 -10 -7 -10 -15 0 -8 4 -15 10 -15 5 0 9
-10 7 -22 -2 -22 1 -23 61 -19 42 2 68 -2 79 -11 12 -10 17 -10 20 -1 3 7 20
10 46 8 23 -2 34 -1 25 2 -22 6 -24 23 -3 23 23 0 18 40 -7 67 -20 21 -22 35
-23 128 l0 104 60 -6 c33 -3 64 -9 69 -14 5 -4 4 -21 -3 -40 -12 -36 -15 -140
-3 -138 22 4 33 -4 42 -27 7 -18 15 -24 26 -20 10 4 14 2 10 -6 -3 -7 -9 -21
-12 -30 -4 -10 -10 -18 -15 -18 -5 0 -9 -9 -9 -20 0 -24 -27 -82 -44 -92 -15
-10 -15 -169 1 -175 13 -5 37 -102 27 -112 -9 -9 -94 -4 -141 9 -56 16 -56 46
2 61 22 5 53 14 69 20 22 7 32 6 38 -3 6 -10 8 -10 8 0 0 22 -25 23 -97 3
-112 -31 -134 -48 -90 -69 12 -6 16 -11 10 -11 -18 -1 -16 -21 2 -21 8 0 15 4
15 9 0 5 21 3 47 -5 25 -8 69 -14 98 -14 51 0 52 -1 85 -51 37 -58 85 -96 183
-145 91 -47 158 -62 313 -74 113 -9 152 -7 282 10 157 21 294 55 365 92 100
50 288 200 267 213 -4 3 -34 -20 -65 -50 -182 -176 -409 -249 -770 -248 -201
1 -282 16 -392 71 -86 44 -193 146 -193 185 0 9 133 28 139 20 9 -12 31 -14
31 -3 0 6 -6 10 -12 10 -7 1 1 7 17 14 17 7 33 11 38 9 4 -2 7 1 7 6 0 6 -4
11 -9 11 -4 0 -6 11 -4 24 4 17 -1 27 -16 35 -21 12 -30 61 -11 61 15 0 12 27
-3 33 -9 3 -12 17 -9 40 3 30 8 36 31 39 21 2 25 8 23 27 -1 13 -13 37 -27 53
-33 39 -32 46 12 50 41 3 54 25 30 49 -19 19 -27 57 -13 62 10 3 6 15 -40 123
-3 6 5 14 16 17 26 7 21 32 -6 32 -29 0 -31 -57 -3 -101 14 -24 18 -38 11 -43
-6 -3 -13 -18 -17 -34 -5 -20 -3 -28 9 -33 15 -6 15 -8 -1 -21 -17 -13 -16
-13 4 -4 22 11 43 -2 23 -14 -6 -4 -8 -11 -5 -16 9 -13 -29 -11 -43 3 -18 18
-34 -3 -30 -38 2 -18 9 -29 18 -28 9 1 23 -10 33 -22 10 -13 13 -24 7 -24 -5
0 -10 -7 -10 -15 0 -9 -9 -15 -24 -15 -23 0 -24 -2 -23 -90 0 -82 2 -90 20
-90 12 0 17 -5 14 -14 -3 -7 0 -19 6 -25 8 -8 8 -14 -1 -23 -9 -9 -12 -9 -12
0 0 7 -7 12 -15 12 -8 0 -15 -8 -15 -19 0 -15 -10 -19 -57 -25 -32 -3 -67 -7
-77 -9 -16 -2 -22 8 -33 61 -7 34 -14 77 -16 95 -2 18 -7 38 -11 45 -4 7 -3
12 2 12 6 0 10 16 10 35 0 39 27 89 42 80 6 -4 10 -1 10 4 0 6 -6 11 -12 11
-8 1 -5 6 6 15 10 7 16 20 13 27 -2 7 2 28 10 47 15 37 7 51 -29 51 -11 0 -18
8 -18 20 0 11 -5 20 -11 20 -20 0 8 26 76 70 34 22 75 59 91 81 41 60 29 81
-86 151 -186 114 -239 202 -161 272 16 14 41 20 113 23 103 6 117 13 150 77
28 55 104 126 169 158 199 97 416 25 506 -167 25 -54 28 -71 28 -165 0 -94 -3
-111 -28 -165 -15 -32 -39 -74 -52 -91 -14 -18 -25 -42 -25 -53 0 -25 -36 -29
-66 -7 -18 14 -18 15 -1 21 27 11 22 39 -5 31 -13 -3 -33 -6 -45 -6 -14 0 -23
-6 -23 -15 0 -8 9 -15 20 -15 17 0 19 -3 8 -19 -9 -15 -9 -23 0 -34 10 -12 9
-29 -7 -85 -11 -39 -23 -96 -26 -126 -5 -38 -12 -56 -21 -56 -8 0 -14 -7 -14
-15 0 -13 22 -19 68 -18 15 1 16 -13 2 -22 -6 -4 -8 -11 -4 -16 3 -5 0 -16 -6
-24 -10 -12 -9 -16 6 -22 10 -4 19 -2 22 5 2 7 14 12 27 12 13 0 27 5 30 10 4
7 13 7 26 0 16 -9 21 -7 28 14 11 26 28 40 51 41 27 1 36 -13 32 -54 -3 -34
-8 -41 -25 -41 -28 0 -77 -48 -77 -77 0 -27 18 -30 60 -8 24 12 29 12 33 0 7
-17 -14 -36 -42 -38 -12 -1 -21 -3 -21 -5 0 -1 16 -17 35 -35 47 -43 36 -63
-25 -47 -48 13 -62 5 -53 -28 4 -17 11 -22 24 -19 17 5 36 -20 24 -31 -3 -3
-5 -1 -5 3 0 5 -6 1 -13 -8 -6 -10 -29 -20 -50 -24 -31 -5 -42 -1 -61 16 -17
16 -26 19 -31 11 -5 -8 -12 -4 -22 10 -13 19 -13 24 -2 31 8 5 22 9 33 9 11 0
16 5 13 14 -3 7 -2 17 3 22 14 14 -1 104 -16 104 -8 0 -14 9 -14 20 0 11 -7
20 -15 20 -8 0 -15 -9 -15 -20 0 -23 0 -23 -82 -40 -32 -6 -68 -20 -80 -30
-19 -15 -12 -14 51 7 46 15 86 23 103 19 18 -3 27 -2 23 4 -3 6 3 10 14 10 17
0 21 -6 21 -29 0 -17 -4 -32 -10 -36 -5 -3 -7 -12 -3 -20 4 -11 -4 -17 -27
-21 -30 -6 -31 -9 -26 -38 4 -17 16 -38 27 -47 32 -24 104 -40 133 -30 13 6
33 7 45 4 18 -5 21 -1 21 26 0 18 -7 43 -16 56 -19 29 -11 31 46 15 38 -11 50
-2 50 37 0 15 -7 23 -22 25 -33 4 -35 41 -4 62 34 22 34 46 0 46 -14 0 -34 -5
-45 -10 -15 -8 -23 -7 -34 4 -13 12 -13 16 0 26 12 10 18 10 31 0 13 -11 16
-10 21 8 3 14 13 22 27 22 18 0 27 -18 64 -123 24 -67 44 -130 43 -139 0 -10
10 -23 22 -30 21 -11 21 -11 2 -19 -20 -8 -20 -8 0 -8 11 0 34 16 50 36 17 19
41 46 53 59 27 26 22 44 -12 44 -22 0 -46 17 -46 32 0 4 9 8 20 8 11 0 20 4
20 9 0 5 -9 7 -20 4 -11 -3 -20 0 -20 6 0 6 7 11 16 11 11 0 15 6 11 20 -7 26
22 100 39 100 26 0 60 103 40 120 -16 12 -26 3 -26 -23 0 -32 -33 -79 -52 -73
-10 2 -18 0 -18 -5 0 -5 -8 -9 -17 -10 -15 0 -15 -2 2 -8 12 -5 23 -4 27 3 4
6 10 8 13 5 3 -4 -4 -28 -17 -55 -12 -27 -22 -56 -23 -65 -1 -8 -5 -32 -9 -52
-7 -36 -6 -37 24 -37 37 0 38 -14 5 -63 -28 -41 -40 -46 -49 -19 -4 9 -14 30
-22 46 -24 43 -84 224 -84 252 0 14 -4 33 -9 43 -14 26 -45 258 -43 326 1 33
6 61 12 63 18 6 11 32 -9 32 -11 0 -26 3 -35 6 -14 5 -13 10 5 35 11 16 29 54
40 83 70 201 -8 414 -184 501 -46 22 -74 28 -145 31 -52 2 -105 -1 -133 -9z
m408 -692 c-21 -15 -22 -31 -3 -38 12 -5 28 -75 51 -224 6 -41 6 -43 -19 -43
-15 0 -26 -6 -26 -13 0 -16 -108 -79 -128 -75 -9 2 -17 9 -20 17 -3 8 -1 11 4
8 5 -3 10 11 12 30 2 34 1 35 -29 31 -30 -5 -31 -4 -24 31 16 97 40 187 52
194 7 4 13 13 13 20 0 7 -4 6 -10 -3 -5 -8 -10 -10 -10 -5 0 17 14 32 38 39
17 6 22 3 22 -9 0 -31 35 -12 38 20 5 52 9 57 34 44 20 -11 20 -13 5 -24z
m-1171 -33 c-20 -38 -33 -47 -51 -32 -10 8 -15 7 -22 -5 -9 -15 -15 -14 -65 5
-61 23 -90 46 -67 55 13 4 210 12 217 8 2 0 -4 -15 -12 -31z"/>
<path d="M2280 1199 c0 -7 -16 -27 -36 -45 -19 -19 -30 -34 -23 -34 6 0 26 15
44 34 l32 35 39 -40 c21 -21 35 -41 33 -44 -3 -3 -43 -1 -90 4 -46 4 -87 6
-92 4 -4 -2 -4 -15 -1 -29 9 -37 -3 -74 -25 -74 -11 0 -21 -6 -23 -12 -3 -8
-19 -1 -45 20 -22 17 -43 28 -47 25 -4 -4 -20 8 -36 25 -50 56 -111 36 -101
-32 3 -18 -2 -18 -64 -12 -45 5 -65 3 -60 -4 3 -5 35 -10 71 -10 60 0 64 -1
64 -23 0 -15 9 -28 23 -34 13 -6 24 -19 24 -28 0 -9 -11 -21 -24 -26 -14 -5
-23 -17 -23 -29 0 -24 9 -25 55 -6 19 8 36 11 37 5 4 -28 1 -34 -22 -39 -14
-4 -24 -12 -22 -19 1 -6 -9 -16 -22 -21 -19 -7 -23 -15 -21 -42 2 -18 4 -35 5
-38 4 -8 7 -24 8 -42 2 -20 27 -24 38 -6 4 6 0 16 -8 22 -15 11 -16 20 -9 94
1 6 8 12 16 12 8 0 19 9 25 20 8 15 18 19 33 16 12 -3 16 -3 9 0 -10 5 -10 9
-1 20 6 7 8 21 5 30 -6 16 -39 16 -78 -1 -29 -12 -21 14 7 27 32 14 32 31 0
48 -13 7 -22 18 -18 23 3 6 -2 16 -12 24 -17 12 -15 13 21 15 90 4 110 2 129
-13 11 -9 32 -19 48 -23 24 -6 29 -2 44 28 10 21 21 32 29 29 8 -3 14 0 14 6
0 6 -7 11 -15 11 -14 0 -14 3 1 23 16 20 23 22 73 16 70 -8 117 -25 127 -47
17 -37 12 -82 -11 -100 -29 -23 -48 -60 -41 -79 3 -8 3 -13 -1 -11 -51 26 -96
41 -140 45 -62 7 -71 -4 -55 -67 8 -33 7 -40 -5 -40 -21 0 -12 -33 10 -36 15
-2 18 4 15 29 -2 19 3 37 12 45 8 8 10 11 4 8 -7 -3 -17 1 -24 9 -10 13 -9 15
9 15 12 0 21 6 21 15 0 12 7 14 28 9 40 -9 102 -37 150 -68 37 -23 41 -29 32
-46 -6 -12 -21 -20 -36 -20 -19 0 -28 -8 -40 -37 -9 -20 -13 -44 -11 -55 3
-10 1 -21 -4 -24 -5 -3 -5 -12 0 -22 4 -9 6 -23 3 -31 -3 -8 0 -11 6 -7 6 4
16 -2 22 -13 6 -13 7 -22 0 -26 -5 -3 -8 -26 -5 -50 4 -40 2 -47 -23 -62 -15
-9 -47 -29 -71 -45 -25 -15 -55 -28 -68 -28 -13 0 -21 -4 -18 -10 3 -6 -1 -7
-9 -4 -9 3 -16 1 -16 -5 0 -6 9 -11 20 -11 11 0 20 5 20 10 0 6 10 10 23 10
13 0 42 14 65 31 23 17 42 26 42 21 0 -5 9 -12 20 -15 43 -11 133 168 153 304
8 60 14 78 25 74 7 -3 22 -5 32 -5 13 0 17 -5 13 -21 -5 -17 -2 -20 13 -17 10
2 17 7 16 12 -2 5 3 13 12 18 9 5 16 18 16 28 0 11 5 20 10 20 24 0 7 28 -19
33 -18 4 -32 14 -36 27 -4 11 -10 18 -15 15 -4 -3 -13 2 -20 10 -10 12 -10 15
3 15 9 0 20 8 26 17 8 14 11 15 25 4 9 -8 19 -11 23 -7 10 10 -2 16 -40 23
-29 4 -37 2 -46 -16 -18 -32 10 -91 42 -91 18 0 27 -7 31 -26 10 -39 -4 -47
-56 -33 l-45 12 -6 62 c-12 129 -57 220 -166 338 -36 38 -51 46 -51 26z m-280
-139 l21 -30 -28 0 c-15 0 -38 -3 -50 -6 -20 -5 -23 -2 -23 20 0 19 5 26 20
26 11 0 20 5 20 10 0 19 19 10 40 -20z m479 -206 c6 -38 8 -70 6 -72 -5 -6
-92 45 -100 58 -3 6 -1 10 4 10 6 0 11 9 11 20 0 11 -5 20 -11 20 -6 0 4 17
22 38 34 38 34 38 46 16 7 -13 17 -53 22 -90z m5 -133 c-10 -74 -33 -159 -60
-214 -40 -85 -55 -108 -64 -102 -9 6 11 55 23 55 11 0 8 60 -5 97 -7 18 -14
33 -18 33 -3 0 -6 27 -8 60 -2 48 1 60 13 60 9 0 18 7 21 15 4 9 19 15 36 15
27 0 30 3 24 25 -6 23 -5 24 18 13 23 -10 25 -15 20 -57z"/>
<path d="M1384 1097 c-3 -9 -15 -17 -25 -17 -10 0 -26 -11 -35 -26 -11 -16
-20 -22 -27 -15 -12 12 -37 3 -37 -15 0 -10 -12 -12 -51 -7 -49 6 -51 5 -47
-18 3 -26 34 -34 32 -8 -1 13 7 15 46 11 43 -4 50 -1 83 32 35 34 60 45 71 28
7 -13 -35 -95 -60 -114 -31 -25 -57 -79 -45 -91 7 -7 15 -7 23 0 21 17 49 11
65 -14 8 -12 23 -23 32 -23 15 1 15 2 -1 13 -15 12 -15 14 0 24 14 9 15 13 5
24 -9 9 -16 10 -23 3 -13 -13 -67 -6 -73 10 -3 7 -1 19 4 27 6 10 9 10 9 2 0
-7 9 -13 20 -13 11 0 20 7 20 15 0 8 -5 15 -11 15 -8 0 -8 4 0 14 7 8 20 12
30 9 26 -7 35 12 15 32 -15 14 -15 18 -1 33 17 19 16 57 -1 74 -9 9 -13 7 -18
-5z"/>
<path d="M2584 1038 c-12 -19 -12 -50 -1 -75 12 -27 40 -31 35 -5 -2 9 -10 16
-16 15 -7 -2 -12 4 -12 12 0 11 11 15 42 15 49 0 116 -40 123 -74 12 -61 11
-82 -6 -129 -11 -30 -15 -55 -10 -60 18 -18 29 3 24 42 -5 37 -4 39 16 34 19
-5 21 -1 21 37 0 34 -3 41 -16 36 -12 -4 -15 0 -13 17 2 12 0 28 -5 36 -5 8
-4 16 4 21 7 4 9 13 6 19 -9 14 -36 14 -36 0 0 -6 -12 -1 -26 10 -17 13 -41
21 -65 21 -27 0 -39 4 -39 14 0 20 -17 29 -26 14z"/>
<path d="M2637 953 c-3 -5 -5 -20 -5 -35 0 -21 5 -28 20 -28 16 0 19 5 14 23
-3 12 -6 28 -6 35 0 13 -16 17 -23 5z"/>
<path d="M946 862 c-8 -13 11 -35 23 -28 16 10 14 36 -3 36 -8 0 -17 -4 -20
-8z"/>
<path d="M1335 820 c-9 -15 4 -31 23 -28 13 2 18 -6 20 -32 2 -24 0 -31 -7
-21 -6 9 -16 11 -27 6 -11 -4 -35 -8 -54 -9 -26 -1 -38 -7 -45 -23 -5 -13 -13
-23 -17 -23 -5 0 -8 -6 -8 -14 0 -9 17 -16 46 -21 71 -10 119 -75 49 -67 -22
3 -27 1 -22 -12 4 -9 2 -16 -4 -16 -5 0 -20 -9 -31 -20 -17 -16 -19 -23 -10
-32 9 -9 15 -9 24 0 17 17 55 15 65 -3 8 -13 11 -13 28 -1 16 12 18 17 8 27
-9 9 -16 10 -23 3 -12 -12 -70 -6 -70 7 0 5 8 9 19 9 10 0 24 7 32 16 7 8 21
13 31 11 20 -6 25 9 6 16 -10 3 -10 7 0 19 11 13 11 18 0 24 -7 5 -15 9 -18
10 -34 6 -68 20 -82 32 -22 19 -24 44 -3 36 8 -4 21 -2 28 4 7 6 31 7 62 2 28
-4 51 -7 51 -6 1 0 5 15 8 33 6 26 4 34 -13 43 -12 6 -21 17 -21 25 0 17 -35
20 -45 5z"/>
<path d="M2189 743 c-1 -5 0 -18 1 -30 1 -15 -4 -23 -14 -23 -21 0 -21 -26 0
-34 21 -8 23 -6 26 25 2 13 9 29 17 35 8 6 11 16 7 22 -8 13 -35 16 -37 5z"/>
<path d="M2176 624 c-8 -20 1 -34 20 -34 18 0 18 24 0 39 -11 9 -15 8 -20 -5z"/>
<path d="M2223 599 c-6 -6 -9 -17 -7 -24 6 -14 -42 -15 -64 -1 -22 13 -30 -6
-23 -54 5 -39 9 -45 31 -45 35 0 38 -35 6 -66 -30 -28 -35 -62 -8 -57 10 2 17
13 17 27 0 14 6 26 13 29 6 2 12 10 12 18 0 8 7 14 15 14 8 0 15 7 15 15 0 8
-7 15 -15 15 -22 0 -78 57 -70 71 5 8 25 9 62 5 l55 -6 -7 27 c-8 36 -18 46
-32 32z"/>
<path d="M1300 480 c-11 -7 -12 -14 -4 -27 19 -30 35 -27 32 6 -2 34 -5 36
-28 21z"/>
<path d="M1341 419 c-6 -16 -22 -29 -45 -36 -41 -13 -49 1 -11 19 14 6 25 15
25 20 0 14 -16 9 -35 -12 -10 -11 -25 -19 -34 -18 -10 2 -17 -6 -19 -19 -4
-27 0 -28 62 -7 33 11 51 13 58 6 19 -19 38 -2 32 27 -10 40 -22 47 -33 20z"/>
</g>
</svg>
