<?xml version="1.0" encoding="utf-8"?>
<!-- Generator: Adobe Illustrator 28.1.0, SVG Export Plug-In . SVG Version: 6.00 Build 0)  -->
<svg version="1.1" id="Layer_1" xmlns="http://www.w3.org/2000/svg" xmlns:xlink="http://www.w3.org/1999/xlink" x="0px" y="0px"
	 viewBox="0 0 1920 1080" style="enable-background:new 0 0 1920 1080;" xml:space="preserve">
<style type="text/css">
	.st0{opacity:0.9;}
	.st1{fill:#BFB3FF;}
	.st2{fill:none;stroke:#8B8332;stroke-width:3;stroke-miterlimit:10;}
	.st3{fill:#BFB3FF;stroke:#8B8332;stroke-width:5;stroke-miterlimit:10;}
	.st4{fill:none;stroke:#8B8332;stroke-width:3.0861;stroke-miterlimit:10;}
	.st5{fill:#8B8332;}
</style>
<path d="M842.28,830.54c0,0.01,0,0.01,0,0.02c0,0,0.01,0,0.01,0.01L842.28,830.54z"/>
<path d="M866.96,853.61c0.01,0.02,0.02,0.03,0.02,0.05c0.02-0.02,0.05-0.03,0.07-0.05C867.06,853.61,866.96,853.61,866.96,853.61z"
	/>
<path d="M807.39,882c0,0.04,0,0.07,0,0.11c0.01,0.01,0.01,0.02,0.02,0.03C807.4,882.13,807.39,882,807.39,882z"/>
<path d="M820.54,874.22c-0.03,0-0.05,0-0.08-0.01c0,0.02,0,0.04,0,0.07L820.54,874.22z"/>
<path d="M891.04,862.37c-0.03,0-0.05,0-0.08,0c0,0.02,0,0.04,0,0.07L891.04,862.37z"/>
<path d="M818.09,875.4c0.02,0.02,0.04,0.04,0.06,0.06c0.01,0,0.01,0,0.02,0L818.09,875.4z"/>
<path d="M889.23,867.09c-0.02,0.02-0.03,0.04-0.05,0.06c0,0.01,0,0.02,0,0.03L889.23,867.09z"/>
<path d="M713.3,877.17c0,0.02,0,0.03,0,0.05c0.01,0.01,0.01,0.02,0.02,0.03L713.3,877.17z"/>
<path d="M706.8,904.4c-0.02,0.03-0.04,0.05-0.07,0.08c0,0,0,0.01,0,0.01L706.8,904.4z"/>
<path d="M713.92,874.23c-0.02,0-0.05,0-0.07,0c0,0.02,0,0.05,0.01,0.07L713.92,874.23z"/>
<path d="M1363.74,943.56c-0.02-0.01-0.05-0.02-0.07-0.03c-0.01,0-0.02,0-0.02,0L1363.74,943.56z"/>
<path d="M1494.05,937.58c-0.02,0.01-0.04,0.02-0.06,0.03c0,0-0.01,0.01-0.01,0.01L1494.05,937.58z"/>
<path d="M1416.85,858.48c0.02-0.01,0.05-0.02,0.07-0.03c0-0.01-0.01-0.02-0.01-0.03C1416.9,858.41,1416.85,858.48,1416.85,858.48z"
	/>
<path d="M1446.37,944.74c0-0.01,0-0.03,0-0.04c-0.03,0-0.06,0-0.08,0L1446.37,944.74z"/>
<path d="M1357.15,948.83C1357.15,948.83,1357.15,948.83,1357.15,948.83c0.02,0.03,0.05,0.05,0.07,0.08L1357.15,948.83z"/>
<path d="M994.68,842.87c0-0.01,0-0.01,0-0.02c-0.02-0.01-0.04-0.02-0.05-0.03C994.62,842.82,994.68,842.87,994.68,842.87z"/>
<path d="M984.01,883.18c0-0.01,0-0.02,0-0.03c-0.02-0.02-0.04-0.04-0.06-0.06L984.01,883.18z"/>
<path d="M1005.94,947.71c0,0,0-0.01,0-0.01c-0.02-0.02-0.05-0.03-0.07-0.05L1005.94,947.71z"/>
<path d="M1036.57,832.53c0,0,0,0.01,0.01,0.01c0.06,0.01,0.13,0.01,0.19,0.02C1036.77,832.56,1036.57,832.53,1036.57,832.53z"/>
<path d="M1447.94,890.05c0.01-0.02,0.02-0.04,0.03-0.05l0,0L1447.94,890.05z"/>
<path d="M1378.46,958.9c0.02,0.02,0.05,0.05,0.07,0.07c0,0,0.01-0.01,0.01-0.01C1378.54,958.96,1378.46,958.9,1378.46,958.9z"/>
<path d="M1374.38,955.92c-0.02,0.02-0.04,0.03-0.06,0.05c0,0.01,0,0.02,0,0.04L1374.38,955.92z"/>
<path d="M1433.63,873.67c-0.01-0.01-0.02-0.02-0.03-0.03c-0.01-0.01-0.03-0.02-0.04-0.02L1433.63,873.67z"/>
<path d="M1385.42,956.95c0,0.01,0,0.01,0.01,0.02c0-0.01,0-0.01,0.01-0.02L1385.42,956.95z"/>
<g class="st0">
	<g>
		<path class="st1" d="M1860.1,963.75c-9.61-15.96-20.84-34.9-31.43-50.28c-10.37-15.06-22.74-29.63-32.56-45.73
			c-3.39-5.56-3.94-12.97-7.24-18.47c-23.11-38.55-49.76-77.33-84.85-100.98c-4.09-20.6,3.9-34.37,24.82-36.25
			c42.84,28.86,71.04,72.87,96.51,115.36c3.25,5.43,3.22,13.09,6.53,18.51c9.22,15.11,19.94,30.1,29.99,44.7
			c10.95,15.9,22.95,31.36,33.23,48.43C1892.55,961.13,1880.93,961.14,1860.1,963.75z"/>
		<path class="st2" d="M1860.1,963.75c-9.61-15.96-20.84-34.9-31.43-50.28c-10.37-15.06-22.74-29.63-32.56-45.73
			c-3.39-5.56-3.94-12.97-7.24-18.47c-23.11-38.55-49.76-77.33-84.85-100.98c-4.09-20.6,3.9-34.37,24.82-36.25
			c42.84,28.86,71.04,72.87,96.51,115.36c3.25,5.43,3.22,13.09,6.53,18.51c9.22,15.11,19.94,30.1,29.99,44.7
			c10.95,15.9,22.95,31.36,33.23,48.43C1892.55,961.13,1880.93,961.14,1860.1,963.75z"/>
	</g>
	<g>
		<path class="st1" d="M75.35,501.54c-3.49,0-7.52,3.52-10.94,2.95c-13.01-2.2-15.92-17.37-18.32-21.9
			c-0.07-0.12-4.75,3.24-4.83,3.1c-0.21-0.16,1.87-2.45,1.68-2.59c-4.32-3.27-11.97-10.42-12.97-22.98
			c-3.6-45.49,6.24-90.56,16-130.27c18.11-10.64,31.25-8.7,43.13,8.62c-8.94,36.39-22.39,75.67-20.73,112.46
			c1.59,1.26,3.78,4.06,5.51,6c1.25,1.4,3.88,5.47,4.75,6.82c10.56-1.42,23.58-11.61,32.11-18.66
			c10.35-8.57,21.63-23.09,21.89-35.31c0.15-7.35-1.31-18.62-6.58-28.33c-2.66-4.89-9.94-7.5-12.34-12.86
			c-1.67-2.78-1.19-6.85-2.97-9.51c-8.82-13.06-22.83-37.87-13.67-61.68c-12.24-21.24-54.01-4.95-43.29-27
			c11.14-22.93,25.48,9.86,50.45,4.72c10.14-2.09-1.33-13.6,8.94-12.33c11.67,1.44,1.91,8.9,9.85,17.57
			c3.31,3.61,6.07,0.18,10.93,0.78c15.74,1.94,31.94,2.95,45.48,10.23c4.83,0.36,8.08,0.78,13.27,0.44c4.4-0.29,8.82-1.42,13.1-1.64
			c16.59-0.85,31.7,0.12,45.75-4.2c28.66-8.81,58.06-21.42,92.29-42.81c15.77-9.86,18.13-14.27,20.34-17.53
			c-2.72-1.9-0.72-5.33-3.49-8.61c-14.26-16.87-42.73-23-67.89-15.1c-12.68,3.98-24.35,13.61-38.01,21.23
			c-16.72,9.33-35.14,17.15-54.37,22.16c-14.06-15.57-10.77-18.98-9.18-39.9c15.91-5.76,32.03-13.19,45.3-24.9
			c-2.66,0.41-7.16,2.01-9.93,2.95c-13.76,4.64-31.96,5.13-42.71,14.86c-5.96,5.39-7.37,15.93-13.14,23.27
			c-6.6,8.39-17.13,16.56-25.73,24.34c-17.73-11.26-14.35-15.96-25.26-33.91c5.96-5.39,11.19-9.85,16.96-17.19
			c6.6-8.39,13.46-16.48,22.07-24.26c16.73-15.13,35.62-23.91,53.38-29.89c24.7-8.33,55.49-6.33,72.83,15.76
			c1.8,2.3,2.37,3.86,5.28,3.59c38.35-8.44,79.4,1.63,102.72,28.82c0.53,0.41-1.78,5.21-1.05,5.7c5.15,3.5,19.01,6.73,21.35,19.15
			c6.42,34.07-27.85,59.51-44.28,69.78c-37.42,23.38-71.52,37.25-103.76,47.16c-9.81,3.02-20.98-0.98-30.71,0.11
			c0.98,0.65,4.4,6.46,6.42,7.22c7.45,2.81,14.68,8.05,21.64,18c15.14,21.65,11.56,44.39,7.03,64.75
			c-0.77,3.45,4.03,7.63,3.44,10.71c0.01,0.82-2.57,1.76-2.44,2.94c0.75,6.93-2.5,16.39-10.3,26.59
			c-8.53,11.16-19.09,20.81-35.02,19.75c-13.85-0.92-23.92-11.42-29.81-14.65c-10.99-6.05-23.87-9.58-33.3-18.62
			c-6.29,9.69-12.51,22.09-23.67,31.32C117.5,496.17,94.61,501.54,75.35,501.54z M151.56,349.27c5.2,8.86,13.27,16.1,17.81,24.91
			c6.42,12.46,7.38,27.16,14.6,37.85c6.18,9.15,21.4,11.64,31.76,17.35c4.98,2.74,7.89,6.9,11.22,7.33
			c-0.39-3.9,0.72-8.06,1.66-13.02c0.73-3.89,0.32-8.06,1.17-11.86c2.76-12.4,3.75-24.83,0.05-31.72c-1.31-0.67-0.84-4.97-2.6-5.63
			c-4.56-1.72-9.71-3.76-14.98-7.49c-5.17-3.66-9.2-9.06-14.25-12.8c-10.2-7.56-22.08-14.08-32.57-20.39
			c-6.53-0.99-13.95-0.58-19.88-2.5C147.52,337.65,149.38,344.04,151.56,349.27z M232.69,379.31c0,0,3.5-0.36,3.5-0.36
			C236.19,379.13,232.69,379.31,232.69,379.31z"/>
		<path class="st2" d="M75.35,501.54c-3.49,0-7.52,3.52-10.94,2.95c-13.01-2.2-15.92-17.37-18.32-21.9
			c-0.07-0.12-4.75,3.24-4.83,3.1c-0.21-0.16,1.87-2.45,1.68-2.59c-4.32-3.27-11.97-10.42-12.97-22.98
			c-3.6-45.49,6.24-90.56,16-130.27c18.11-10.64,31.25-8.7,43.13,8.62c-8.94,36.39-22.39,75.67-20.73,112.46
			c1.59,1.26,3.78,4.06,5.51,6c1.25,1.4,3.88,5.47,4.75,6.82c10.56-1.42,23.58-11.61,32.11-18.66
			c10.35-8.57,21.63-23.09,21.89-35.31c0.15-7.35-1.31-18.62-6.58-28.33c-2.66-4.89-9.94-7.5-12.34-12.86
			c-1.67-2.78-1.19-6.85-2.97-9.51c-8.82-13.06-22.83-37.87-13.67-61.68c-12.24-21.24-54.01-4.95-43.29-27
			c11.14-22.93,25.48,9.86,50.45,4.72c10.14-2.09-1.33-13.6,8.94-12.33c11.67,1.44,1.91,8.9,9.85,17.57
			c3.31,3.61,6.07,0.18,10.93,0.78c15.74,1.94,31.94,2.95,45.48,10.23c4.83,0.36,8.08,0.78,13.27,0.44c4.4-0.29,8.82-1.42,13.1-1.64
			c16.59-0.85,31.7,0.12,45.75-4.2c28.66-8.81,58.06-21.42,92.29-42.81c15.77-9.86,18.13-14.27,20.34-17.53
			c-2.72-1.9-0.72-5.33-3.49-8.61c-14.26-16.87-42.73-23-67.89-15.1c-12.68,3.98-24.35,13.61-38.01,21.23
			c-16.72,9.33-35.14,17.15-54.37,22.16c-14.06-15.57-10.77-18.98-9.18-39.9c15.91-5.76,32.03-13.19,45.3-24.9
			c-2.66,0.41-7.16,2.01-9.93,2.95c-13.76,4.64-31.96,5.13-42.71,14.86c-5.96,5.39-7.37,15.93-13.14,23.27
			c-6.6,8.39-17.13,16.56-25.73,24.34c-17.73-11.26-14.35-15.96-25.26-33.91c5.96-5.39,11.19-9.85,16.96-17.19
			c6.6-8.39,13.46-16.48,22.07-24.26c16.73-15.13,35.62-23.91,53.38-29.89c24.7-8.33,55.49-6.33,72.83,15.76
			c1.8,2.3,2.37,3.86,5.28,3.59c38.35-8.44,79.4,1.63,102.72,28.82c0.53,0.41-1.78,5.21-1.05,5.7c5.15,3.5,19.01,6.73,21.35,19.15
			c6.42,34.07-27.85,59.51-44.28,69.78c-37.42,23.38-71.52,37.25-103.76,47.16c-9.81,3.02-20.98-0.98-30.71,0.11
			c0.98,0.65,4.4,6.46,6.42,7.22c7.45,2.81,14.68,8.05,21.64,18c15.14,21.65,11.56,44.39,7.03,64.75
			c-0.77,3.45,4.03,7.63,3.44,10.71c0.01,0.82-2.57,1.76-2.44,2.94c0.75,6.93-2.5,16.39-10.3,26.59
			c-8.53,11.16-19.09,20.81-35.02,19.75c-13.85-0.92-23.92-11.42-29.81-14.65c-10.99-6.05-23.87-9.58-33.3-18.62
			c-6.29,9.69-12.51,22.09-23.67,31.32C117.5,496.17,94.61,501.54,75.35,501.54z M151.56,349.27c5.2,8.86,13.27,16.1,17.81,24.91
			c6.42,12.46,7.38,27.16,14.6,37.85c6.18,9.15,21.4,11.64,31.76,17.35c4.98,2.74,7.89,6.9,11.22,7.33
			c-0.39-3.9,0.72-8.06,1.66-13.02c0.73-3.89,0.32-8.06,1.17-11.86c2.76-12.4,3.75-24.83,0.05-31.72c-1.31-0.67-0.84-4.97-2.6-5.63
			c-4.56-1.72-9.71-3.76-14.98-7.49c-5.17-3.66-9.2-9.06-14.25-12.8c-10.2-7.56-22.08-14.08-32.57-20.39
			c-6.53-0.99-13.95-0.58-19.88-2.5C147.52,337.65,149.38,344.04,151.56,349.27z M232.69,379.31c0,0,3.5-0.36,3.5-0.36
			C236.19,379.13,232.69,379.31,232.69,379.31z"/>
	</g>
	<g>
		<path class="st1" d="M73.09,339.88c-4.67,0-9.3,0.01-14.14-0.7c-13.41,2.34-22.31-6.53-24.28-9.33
			c-5.68-8.03-4.86-20.35,0.98-28.7c2.05-2.94,4.07-5.71,5.61-7.09c0.17-0.15,2.39,1.86,2.54,1.72c3.67-3.82,8.06-6.98,11.86-11.07
			c15.64-16.85,29.89-36.23,50.96-48.97c28.51-17.23,62.11-25.08,93.48-19.04c7.27,1.4,10.31-1.72,15.45,3.62
			c5.14,5.34-1.92,8.84-0.8,16.16c3.32,21.7-7.72,38.88-19.49,49.16c-13.27,11.61-27.78,21.12-41.77,30.18
			c-7.18,4.65-14.53,8.48-21.14,13.14c-5.4-1.93-1.48-6.87-6.67-9.32c-4.81,3.97-10.31,6.87-16.34,9.94
			C98.37,335.16,86.27,339.88,73.09,339.88z M54.7,335.58c0.01,0,0.02-0.37,0.03-0.37C54.72,335.21,54.71,335.58,54.7,335.58z
			 M126.19,273.56c2.04,3.16,0.23,4.76,3.98,4.52c9.94-6.44,17.74-10.33,26.51-17.06c-10.4,2.11-18.22,6.32-27.56,11.96
			C127.96,273.68,127.33,272.81,126.19,273.56z"/>
		<path class="st2" d="M73.09,339.88c-4.67,0-9.3,0.01-14.14-0.7c-13.41,2.34-22.31-6.53-24.28-9.33
			c-5.68-8.03-4.86-20.35,0.98-28.7c2.05-2.94,4.07-5.71,5.61-7.09c0.17-0.15,2.39,1.86,2.54,1.72c3.67-3.82,8.06-6.98,11.86-11.07
			c15.64-16.85,29.89-36.23,50.96-48.97c28.51-17.23,62.11-25.08,93.48-19.04c7.27,1.4,10.31-1.72,15.45,3.62
			c5.14,5.34-1.92,8.84-0.8,16.16c3.32,21.7-7.72,38.88-19.49,49.16c-13.27,11.61-27.78,21.12-41.77,30.18
			c-7.18,4.65-14.53,8.48-21.14,13.14c-5.4-1.93-1.48-6.87-6.67-9.32c-4.81,3.97-10.31,6.87-16.34,9.94
			C98.37,335.16,86.27,339.88,73.09,339.88z M54.7,335.58c0.01,0,0.02-0.37,0.03-0.37C54.72,335.21,54.71,335.58,54.7,335.58z
			 M126.19,273.56c2.04,3.16,0.23,4.76,3.98,4.52c9.94-6.44,17.74-10.33,26.51-17.06c-10.4,2.11-18.22,6.32-27.56,11.96
			C127.96,273.68,127.33,272.81,126.19,273.56z"/>
	</g>
	<g>
		<path class="st1" d="M357.32,815.25c-0.17,0-0.32-0.88-0.49-0.88c-10.59-0.04-16.39-5.7-20.84-9.03
			c-0.74-0.55-2.91-0.02-3.33-0.28c-14.62-7.67-22.38-17.92-27.42-30.08c-14.41-34.75-18.43-65.11-10.48-93.53
			c6.77-24.19,16.01-50.07,35.24-68.83c10.11-9.86,21.4-18.57,31.91-26.93c10.14-8.06,21.29-13.57,29.88-21.95
			c4.39-4.28,11.14-6.5,15.7-11.33c15.5-16.41,31.84-37.61,55.94-46.98c16.74,12.68,12.63,18.98,12.61,39.98
			c-15.28,5.94-26.37,19.46-40.03,33.93c-4.66,4.93-11.98,7.46-16.98,12.34c-10.11,9.86-17.32,22.48-27.83,30.83
			c-10.14,8.06-19.84,15.33-28.43,23.71c-13.95,13.6-21.91,29.72-26.69,46.8c-5.36,19.13-3.19,40.21,7.52,66.05
			c1.15,2.77,1.78,8.34,7.34,11.25c3.17,1.66,5.23,3.77,7.28,5.31c0.22,0.16,1.78-0.34,2.02-0.16
			c32.64-1.22,65.55-24.88,102.18-68.73c12.12-14.51,23.46-30.18,34.9-45.02c18.2-23.59,38.44-47.99,59.51-70.59
			c20.86,2.43,25.07,9.38,29.59,29.88c-19.74,21.17-34.9,44.44-53.33,68.32c-11.69,15.15-27.07,28.15-39.71,43.28
			C447.18,787.89,404.06,815.25,357.32,815.25z"/>
		<path class="st2" d="M357.32,815.25c-0.17,0-0.32-0.88-0.49-0.88c-10.59-0.04-16.39-5.7-20.84-9.03
			c-0.74-0.55-2.91-0.02-3.33-0.28c-14.62-7.67-22.38-17.92-27.42-30.08c-14.41-34.75-18.43-65.11-10.48-93.53
			c6.77-24.19,16.01-50.07,35.24-68.83c10.11-9.86,21.4-18.57,31.91-26.93c10.14-8.06,21.29-13.57,29.88-21.95
			c4.39-4.28,11.14-6.5,15.7-11.33c15.5-16.41,31.84-37.61,55.94-46.98c16.74,12.68,12.63,18.98,12.61,39.98
			c-15.28,5.94-26.37,19.46-40.03,33.93c-4.66,4.93-11.98,7.46-16.98,12.34c-10.11,9.86-17.32,22.48-27.83,30.83
			c-10.14,8.06-19.84,15.33-28.43,23.71c-13.95,13.6-21.91,29.72-26.69,46.8c-5.36,19.13-3.19,40.21,7.52,66.05
			c1.15,2.77,1.78,8.34,7.34,11.25c3.17,1.66,5.23,3.77,7.28,5.31c0.22,0.16,1.78-0.34,2.02-0.16
			c32.64-1.22,65.55-24.88,102.18-68.73c12.12-14.51,23.46-30.18,34.9-45.02c18.2-23.59,38.44-47.99,59.51-70.59
			c20.86,2.43,25.07,9.38,29.59,29.88c-19.74,21.17-34.9,44.44-53.33,68.32c-11.69,15.15-27.07,28.15-39.71,43.28
			C447.18,787.89,404.06,815.25,357.32,815.25z"/>
	</g>
	<g>
		<path class="st1" d="M1524.61,883.21c-3.89,0-7.4-8.68-11.34-9.03c-32.1-2.9-52.93-24.2-67.13-42.07
			c-15.86-19.97-35.97-40.04-35.96-67.49c0.01-11.63,5.83-24.08,8-35.15c-6.24,3.93-14.12,9.51-20.28,12.95
			c-7.68,4.29-17.48,4.5-23.65,8.78c-11.12,7.71-21.45,18.95-32.03,30.12c-11.58,12.23-23.63,23.58-38.33,33.77
			c-21.16,14.67-47.91,31.46-78.92,25.54c-17.23-3.29-33.66-18.99-45.76-31.9c-13.48-14.39-13.93-33.79-12.95-51.81
			c1.43-26.25,20.46-39.67,35.65-56.37c5.06-5.56,7.21-13.8,11-18.87c4.85-6.5,6.9-15.68,11.82-23.24
			c14.91-22.89,34.26-42.2,62.04-55.56c13.45-6.47,24.26-11.01,35.88-10.33c6.48,0.38,11.11-9.44,15.22-10.52
			c24.27-6.4,50.67-4.43,75.05-14.23c12.2-4.9,22.66-13.92,35.35-18.56c-2.35-2.68-0.04-8.03-2.59-10.56
			c-10.16-10.1-23.58-19.4-37.04-28.31c-14.58-9.64-30.52-17.16-43.64-30.19c-10.01-9.95-12.37-21.53-15.38-31.81
			c-1.51-5.17-5.91-9.38-7.69-12.47c-15.07-26.28-37.22-62.21-26.3-96.65c7.89-24.88,34.2-38.38,51.55-52.98
			c5.74-4.83,5.93-14.75,10.67-19.36c0.93-1.17,4.7-1.78,5.84-4.26c4.11-8.97,12.34-21.76,26.94-26.98
			c42.29-15.13,79.34,22.22,103.06,47.51c0.93,1,1.97,0.02,2.9,1.02c28.14,29.96,47.56,59.65,64.13,86.39
			c0.69,1.12-0.81-1.2-0.13-0.09c0.61-2,11.43,2.13,12.12,0.16c1.91-5.46-10.47-15.86-8.95-22.52
			c3.59-15.64,10.67-34.45,22.78-49.08c21.9-26.45,55.58-37.8,84.12-53.31c7.45-4.05,12.47-11.4,19.36-15.4
			c0.54-0.89,2.15-0.78,2.65-1.68c3.95-7.12,11.01-23.45,26.73-24.44c14.43-0.89,18.78,17.62,22.85,23.82
			c2.97-0.19,10.46-4.99,13.83-5.53c9.57-1.53,19.66-0.78,31.12,2.27c15.52,4.12,22.48,15.26,26.46,23.42
			c0.64,1.3,6.36-1.28,6.97-0.15c0.6,0.34-3.16,4.21-2.61,4.51c6.12,3.35,23.89,10.22,25.04,25.36c2.21,29.13-9.89,58.49-20.6,81.93
			c-2.78,6.08-14.62,7.79-16.97,13.47c-17.62,42.6-40.91,82.12-75.3,116.9c27.78,5.05,59.84,15.24,86.25,37.44
			c1.15,0.89,3.07,3.86,5.75,4.97c9.79,4.06,27.21,11.45,32.51,27.27c5.76,17.19-3.06,35.32-9.24,46.31
			c-2.1,3.74-16.29,3.87-16.92,6.24c-1.52,5.72-0.85,13.87-1.8,21.08c-2.46,18.67,3.97,42.87-11.29,59.12
			c-16.14,17.19-42.43,12.79-62.17,17.23c-8.7,1.96-13.1,16.49-19.9,19.16c-1.37,0.67-1.86,4.1-4.06,5.94
			c-8.7,7.26-27.67,15.33-45.04,10.91c-6.01-1.53-4.98-0.53-8.91-4.05c-0.58,6.81-10.13,6.46-10.21,12.99
			c-0.04,3.22,10.05,7.33,11.18,12.33c2.92,12.9-1.47,29.44-11.33,45.18c-8.64,13.78-18.4,26.37-29.25,28.72
			c-3.12,0.68-9.24-5.21-10.66-4.41C1607.79,858.43,1567.78,883.21,1524.61,883.21z M1440.4,641.79c21-0.04,20.46,7.12,38.42,18.01
			c-3.15,12.67-7.44,20.45-11.31,32.53c-7.96,24.82-10.38,49.12-10.39,72.32c-0.01,13.93,6.23,29.74,17.94,44.49
			c14.72,18.53,29.62,25.63,41.66,26.72c35.41,3.2,72.63-11.43,108.9-32.6c7.09-4.14,13.63-5.69,20.39-7.15
			c2.3-0.5,8.62-2.43,10.75-3.09c-0.06-3.38-13.85-9.6-14.74-13.56c-1.59-7.01,2.51-16.92,2.6-25.07
			c0.15-13.19,8.59-25.82,9.86-38.51c1.5-14.96,6.71-31.98,6.22-45.63c-4.44-5.14-14.01-11.23-18.83-16.49
			c-12.45-13.59-27.62-25.21-37.79-41.6c-1.72-2.77,4.15-3.75,3.33-6.91c-0.82-3.16-5.78-1.12-5.63-4.38
			c0.44-9.22,0.63-25.13,9.05-28.74c12.9-5.51,28.99,11.54,35.8,17.46c1.07,0.93,4.02-2.47,5.1-1.54
			c15.57,13.47,28.76,32.37,34.17,57.48c0.83,3.83,1.72,9.1,2.21,12.92c4.16,5.32,10.45,9.97,14.07,15.8
			c3.76,6.05,5.32,12.48,7.45,18.53c0.66,1.88,4.53,3.61,5.42,5.88c0.61-0.5-1.92-6-1.39-6.44c5.17-4.31,15.37-3.14,22.71-6.03
			c9.81-3.86,18.15-13.4,28.04-15.63c15.19-3.42,29.15-2.56,36.47-10.36c6-6.39,9.15-17.68,10.94-31.27
			c1.08-8.2,0.89-17.06,3.1-25.39c2-7.53,4.68-15.3,8.01-21.23c1.24-2.2,5.77-3.92,6.95-6.44c-1.55-0.7-5.01,2.35-6.41,1.77
			c-6.03-2.5-5.94-15.48-11.86-20.46c-35.66-29.96-78.71-27.64-115.13-17.36c-18.57-8.95-27.66-24.94-19.43-43.84
			c52.27-40.55,94.15-83.38,115.95-136.09c2.64-6.39,1.81-14.36,4.62-20.51c8.2-17.95,17.5-34.42,18.49-50.62
			c-4.28-2.39-12.14-3.91-16.01-9.43c-2.65-3.77,3.18-12.01,1.49-15.48c-0.59-1.2-6.54-0.42-7.23-1.69
			c-3.19,0.02-8.14-1.83-12.17-1.19c-9.57,1.53-19.85,5.58-31.32,2.54c-3.35-0.89-5.35,3.98-7.77,2.21
			c-2.14,2.51-5.5-0.74-8.67,1.13c-8.18,4.81-14.31,13.69-22.48,18.13c-26.19,14.23-48.98,26.76-65.7,46.96
			c-5.76,6.96-17.03,13.82-19.82,25.99c-1.72,7.48-0.91,15.6-3.59,23.26c-9.85,28.16-0.36,56.77,3.11,89.84
			c0.1,0.97-3.22,4.89-4.17,5.07c-20.64,3.83-31.36,21.57-44.99,5.61c-11.65-68.04-60.16-126.23-95.76-164.14
			c-0.95-1.01,8.23-9.62,7.29-10.63c-16.43-17.53-46.97-41.96-63.18-38.89c-0.95,1.68,2.51,12.41,1.62,14.34
			c-2.81,6.13-14.38,7.1-20.55,13.13c-5.88,5.73-3.24,20.86-9.36,26.01c-14.25,11.99-23.95,21.25-28.16,34.53
			c-5.98,18.85,0.98,38.89,11.78,57.72c4.25,7.41,11.99,14.48,14.02,21.43c1.75,5.96-7.39,18.02-5.05,20.35
			c10.16,10.1,28.49,11.47,41.96,20.38c14.58,9.64,23.98,26.72,37.1,39.76c3.95,3.92,15.71-0.08,18.63,3.26
			c7.52,8.58,5.42,16.7,12.26,18.59c37.43,10.36,72.16-17.87,71.93,20.97c-0.23,38.84-35.94,5.21-73.49,15.12
			c-24.27,6.4-48.42,14.49-72.8,24.29c-24.5,9.84-48.09,23.57-74.87,30.64c-10.59,2.79-20.14-2.19-29.46-2.74
			c-7.13-0.42-17.62,1.62-21.26,3.38c-17.21,8.28-20.46,36-33.53,56.06c-5.07,7.78-11.04,15.95-16.7,23.53
			c-5,6.7-15.63,9.5-21.13,15.55c-11.5,12.64-29.62,22.96-30.23,34.29c-0.82,15.14,21.86,26.86,37.08,29.76
			c11.24,2.14,34.56,10.24,50.1-0.53c11.12-7.71,18.9-21.63,29.48-32.8c11.58-12.23,28.17-18.04,42.87-28.22
			c7.83-5.43,9.56-20.54,17.77-25.13c18.06-10.09,35.75-19.07,40.67-32.59c6.98-3.02,6.17,3.67,13.44,1.42
			C1432.67,659.83,1437.86,652.02,1440.4,641.79z M1618.69,621.99c0.01,0-0.96-5.95-0.96-5.95
			C1616.46,617.59,1618.69,622,1618.69,621.99z"/>
		<path class="st2" d="M1524.61,883.21c-3.89,0-7.4-8.68-11.34-9.03c-32.1-2.9-52.93-24.2-67.13-42.07
			c-15.86-19.97-35.97-40.04-35.96-67.49c0.01-11.63,5.83-24.08,8-35.15c-6.24,3.93-14.12,9.51-20.28,12.95
			c-7.68,4.29-17.48,4.5-23.65,8.78c-11.12,7.71-21.45,18.95-32.03,30.12c-11.58,12.23-23.63,23.58-38.33,33.77
			c-21.16,14.67-47.91,31.46-78.92,25.54c-17.23-3.29-33.66-18.99-45.76-31.9c-13.48-14.39-13.93-33.79-12.95-51.81
			c1.43-26.25,20.46-39.67,35.65-56.37c5.06-5.56,7.21-13.8,11-18.87c4.85-6.5,6.9-15.68,11.82-23.24
			c14.91-22.89,34.26-42.2,62.04-55.56c13.45-6.47,24.26-11.01,35.88-10.33c6.48,0.38,11.11-9.44,15.22-10.52
			c24.27-6.4,50.67-4.43,75.05-14.23c12.2-4.9,22.66-13.92,35.35-18.56c-2.35-2.68-0.04-8.03-2.59-10.56
			c-10.16-10.1-23.58-19.4-37.04-28.31c-14.58-9.64-30.52-17.16-43.64-30.19c-10.01-9.95-12.37-21.53-15.38-31.81
			c-1.51-5.17-5.91-9.38-7.69-12.47c-15.07-26.28-37.22-62.21-26.3-96.65c7.89-24.88,34.2-38.38,51.55-52.98
			c5.74-4.83,5.93-14.75,10.67-19.36c0.93-1.17,4.7-1.78,5.84-4.26c4.11-8.97,12.34-21.76,26.94-26.98
			c42.29-15.13,79.34,22.22,103.06,47.51c0.93,1,1.97,0.02,2.9,1.02c28.14,29.96,47.56,59.65,64.13,86.39
			c0.69,1.12-0.81-1.2-0.13-0.09c0.61-2,11.43,2.13,12.12,0.16c1.91-5.46-10.47-15.86-8.95-22.52
			c3.59-15.64,10.67-34.45,22.78-49.08c21.9-26.45,55.58-37.8,84.12-53.31c7.45-4.05,12.47-11.4,19.36-15.4
			c0.54-0.89,2.15-0.78,2.65-1.68c3.95-7.12,11.01-23.45,26.73-24.44c14.43-0.89,18.78,17.62,22.85,23.82
			c2.97-0.19,10.46-4.99,13.83-5.53c9.57-1.53,19.66-0.78,31.12,2.27c15.52,4.12,22.48,15.26,26.46,23.42
			c0.64,1.3,6.36-1.28,6.97-0.15c0.6,0.34-3.16,4.21-2.61,4.51c6.12,3.35,23.89,10.22,25.04,25.36c2.21,29.13-9.89,58.49-20.6,81.93
			c-2.78,6.08-14.62,7.79-16.97,13.47c-17.62,42.6-40.91,82.12-75.3,116.9c27.78,5.05,59.84,15.24,86.25,37.44
			c1.15,0.89,3.07,3.86,5.75,4.97c9.79,4.06,27.21,11.45,32.51,27.27c5.76,17.19-3.06,35.32-9.24,46.31
			c-2.1,3.74-16.29,3.87-16.92,6.24c-1.52,5.72-0.85,13.87-1.8,21.08c-2.46,18.67,3.97,42.87-11.29,59.12
			c-16.14,17.19-42.43,12.79-62.17,17.23c-8.7,1.96-13.1,16.49-19.9,19.16c-1.37,0.67-1.86,4.1-4.06,5.94
			c-8.7,7.26-27.67,15.33-45.04,10.91c-6.01-1.53-4.98-0.53-8.91-4.05c-0.58,6.81-10.13,6.46-10.21,12.99
			c-0.04,3.22,10.05,7.33,11.18,12.33c2.92,12.9-1.47,29.44-11.33,45.18c-8.64,13.78-18.4,26.37-29.25,28.72
			c-3.12,0.68-9.24-5.21-10.66-4.41C1607.79,858.43,1567.78,883.21,1524.61,883.21z M1440.4,641.79c21-0.04,20.46,7.12,38.42,18.01
			c-3.15,12.67-7.44,20.45-11.31,32.53c-7.96,24.82-10.38,49.12-10.39,72.32c-0.01,13.93,6.23,29.74,17.94,44.49
			c14.72,18.53,29.62,25.63,41.66,26.72c35.41,3.2,72.63-11.43,108.9-32.6c7.09-4.14,13.63-5.69,20.39-7.15
			c2.3-0.5,8.62-2.43,10.75-3.09c-0.06-3.38-13.85-9.6-14.74-13.56c-1.59-7.01,2.51-16.92,2.6-25.07
			c0.15-13.19,8.59-25.82,9.86-38.51c1.5-14.96,6.71-31.98,6.22-45.63c-4.44-5.14-14.01-11.23-18.83-16.49
			c-12.45-13.59-27.62-25.21-37.79-41.6c-1.72-2.77,4.15-3.75,3.33-6.91c-0.82-3.16-5.78-1.12-5.63-4.38
			c0.44-9.22,0.63-25.13,9.05-28.74c12.9-5.51,28.99,11.54,35.8,17.46c1.07,0.93,4.02-2.47,5.1-1.54
			c15.57,13.47,28.76,32.37,34.17,57.48c0.83,3.83,1.72,9.1,2.21,12.92c4.16,5.32,10.45,9.97,14.07,15.8
			c3.76,6.05,5.32,12.48,7.45,18.53c0.66,1.88,4.53,3.61,5.42,5.88c0.61-0.5-1.92-6-1.39-6.44c5.17-4.31,15.37-3.14,22.71-6.03
			c9.81-3.86,18.15-13.4,28.04-15.63c15.19-3.42,29.15-2.56,36.47-10.36c6-6.39,9.15-17.68,10.94-31.27
			c1.08-8.2,0.89-17.06,3.1-25.39c2-7.53,4.68-15.3,8.01-21.23c1.24-2.2,5.77-3.92,6.95-6.44c-1.55-0.7-5.01,2.35-6.41,1.77
			c-6.03-2.5-5.94-15.48-11.86-20.46c-35.66-29.96-78.71-27.64-115.13-17.36c-18.57-8.95-27.66-24.94-19.43-43.84
			c52.27-40.55,94.15-83.38,115.95-136.09c2.64-6.39,1.81-14.36,4.62-20.51c8.2-17.95,17.5-34.42,18.49-50.62
			c-4.28-2.39-12.14-3.91-16.01-9.43c-2.65-3.77,3.18-12.01,1.49-15.48c-0.59-1.2-6.54-0.42-7.23-1.69
			c-3.19,0.02-8.14-1.83-12.17-1.19c-9.57,1.53-19.85,5.58-31.32,2.54c-3.35-0.89-5.35,3.98-7.77,2.21
			c-2.14,2.51-5.5-0.74-8.67,1.13c-8.18,4.81-14.31,13.69-22.48,18.13c-26.19,14.23-48.98,26.76-65.7,46.96
			c-5.76,6.96-17.03,13.82-19.82,25.99c-1.72,7.48-0.91,15.6-3.59,23.26c-9.85,28.16-0.36,56.77,3.11,89.84
			c0.1,0.97-3.22,4.89-4.17,5.07c-20.64,3.83-31.36,21.57-44.99,5.61c-11.65-68.04-60.16-126.23-95.76-164.14
			c-0.95-1.01,8.23-9.62,7.29-10.63c-16.43-17.53-46.97-41.96-63.18-38.89c-0.95,1.68,2.51,12.41,1.62,14.34
			c-2.81,6.13-14.38,7.1-20.55,13.13c-5.88,5.73-3.24,20.86-9.36,26.01c-14.25,11.99-23.95,21.25-28.16,34.53
			c-5.98,18.85,0.98,38.89,11.78,57.72c4.25,7.41,11.99,14.48,14.02,21.43c1.75,5.96-7.39,18.02-5.05,20.35
			c10.16,10.1,28.49,11.47,41.96,20.38c14.58,9.64,23.98,26.72,37.1,39.76c3.95,3.92,15.71-0.08,18.63,3.26
			c7.52,8.58,5.42,16.7,12.26,18.59c37.43,10.36,72.16-17.87,71.93,20.97c-0.23,38.84-35.94,5.21-73.49,15.12
			c-24.27,6.4-48.42,14.49-72.8,24.29c-24.5,9.84-48.09,23.57-74.87,30.64c-10.59,2.79-20.14-2.19-29.46-2.74
			c-7.13-0.42-17.62,1.62-21.26,3.38c-17.21,8.28-20.46,36-33.53,56.06c-5.07,7.78-11.04,15.95-16.7,23.53
			c-5,6.7-15.63,9.5-21.13,15.55c-11.5,12.64-29.62,22.96-30.23,34.29c-0.82,15.14,21.86,26.86,37.08,29.76
			c11.24,2.14,34.56,10.24,50.1-0.53c11.12-7.71,18.9-21.63,29.48-32.8c11.58-12.23,28.17-18.04,42.87-28.22
			c7.83-5.43,9.56-20.54,17.77-25.13c18.06-10.09,35.75-19.07,40.67-32.59c6.98-3.02,6.17,3.67,13.44,1.42
			C1432.67,659.83,1437.86,652.02,1440.4,641.79z M1618.69,621.99c0.01,0-0.96-5.95-0.96-5.95
			C1616.46,617.59,1618.69,622,1618.69,621.99z"/>
	</g>
	<g>
		<path class="st1" d="M940.81,1038.42c-8.22-29.08-12.89-59.27-17.02-88.44c-6.58-46.49-11.34-90.19-32.26-127.87
			c5.51-20.26,16.32-28.76,35.87-21.1c24.7,44.48,28.89,95.17,35.71,143.4c4.11,29.07,12,56.52,19.45,82.86
			C976.34,1048.38,960.55,1045.58,940.81,1038.42z"/>
		<path class="st2" d="M940.81,1038.42c-8.22-29.08-12.89-59.27-17.02-88.44c-6.58-46.49-11.34-90.19-32.26-127.87
			c5.51-20.26,16.32-28.76,35.87-21.1c24.7,44.48,28.89,95.17,35.71,143.4c4.11,29.07,12,56.52,19.45,82.86
			C976.34,1048.38,960.55,1045.58,940.81,1038.42z"/>
	</g>
	<g>
		<path class="st1" d="M504.84,1038.18c-1.5-16.04,0.27-29.74-1.44-45.66c-8.52-79.77-22.76-162-5.22-242.38
			c7.81-35.8,22.02-69.51,38.37-100.44c3.01-5.7,8.3-5.14,11.26-10.88c19.91,6.67,22.35,1.72,39.27,14.15
			c-3.06,5.94-5.64,13.04-8.7,18.83c-15.72,29.75-32.91,57.02-39.5,87.22c-16.09,73.74-2.24,152.64,5.93,229.08
			c1.72,16.06,0.39,33.94,1.91,50.26C533.36,1054.16,525.06,1043.85,504.84,1038.18z"/>
		<path class="st2" d="M504.84,1038.18c-1.5-16.04,0.27-29.74-1.44-45.66c-8.52-79.77-22.76-162-5.22-242.38
			c7.81-35.8,22.02-69.51,38.37-100.44c3.01-5.7,8.3-5.14,11.26-10.88c19.91,6.67,22.35,1.72,39.27,14.15
			c-3.06,5.94-5.64,13.04-8.7,18.83c-15.72,29.75-32.91,57.02-39.5,87.22c-16.09,73.74-2.24,152.64,5.93,229.08
			c1.72,16.06,0.39,33.94,1.91,50.26C533.36,1054.16,525.06,1043.85,504.84,1038.18z"/>
	</g>
	<g>
		<path class="st1" d="M702.27,987.91c-5.33,0-12.49,14.74-18.07,13.2c-33.79-9.36-52.41-43.47-72.29-65.63
			c-1.34-1.49-4.27,1.13-5.62-0.36c-16.84-18.68-36.76-40.5-37.18-71.07c-0.27-19.08-0.69-38.6,6.54-53.28
			c4.27-8.67,13.79-4.75,15.47-12.1c20.98,1,24.93-13.41,43.23-3.1c-2.78,12.13-2.93,29.68-8.07,40.13
			c-5.64,11.45-16.49,18.79-16.37,27.78c0.21,14.78,9.65,32.77,23.03,47.62c1.37,1.53-2.61,5.09-1.24,6.62
			c15.83,17.64,42.09,30.17,65.44,36.63c5.94,1.65,14.99,0.74,24.42-1.36c7.41-1.65,15.24,1.57,23.44,1.05
			c37.19-2.32,79.96-30.37,95.97-66.08c21.82-48.68,5.54-110.47,5.33-167.06c-0.07-18.65,4.68-46.31,5.39-65.07
			c19.01-8.82,34.84-11.85,50.42,2.17c3.63,42,9.98,85.45,31.48,110.46c12.57,14.62,30.06,29.68,54.88,34.92
			c10.9,2.3,20.63,7.71,31.38,11.04c12.65,3.92,24.94,4.14,34.5,10.59c8.74,5.9,19.27,5.06,26.58,6.57
			c4.67,0.96,13.58,3.07,21.35-0.75c4.26-2.1,5.07-12.75,9.71-14.62c16.84-6.76,32.9-18.23,29.51-36.14
			c-2.34-12.38-15.3-21.14-28.5-33.41c-7.37-6.85-10.67-18.29-17.28-26.21c-6.58-7.88-14.17-15.45-16.03-23.14
			c-0.32-1.31-2.11-0.62-2.51-2.12c-0.46,0.07,3.97-7.08,3.57-7.02c-7.41,1.09-19.77,12.57-29.53,8.05
			c-10.6-4.9-16.59-16.6-25.52-21.24c-8.9-4.63-8.22-8.31-17.93-12.81c-0.34-20.52-9.79-20.46,4.2-35.47
			c28.14,0.21,51.05-0.4,79.72-3.05c19.73-1.82,39.69-6.92,60.46-7.84c4.92-0.22,9.62-7.29,14.63-7.48
			c41.38-1.54,84.63,1.12,113.91-20.21c0.09-1.26-0.29-3.22-0.25-4.37c0.23-5.75-3.23-14.49-0.32-21.46
			c3.29-7.89,9.08-16.67,13.66-20.43c0.12-0.1,5.73,4.82,5.85,4.71c-6.28-35.32-47.62-66.55-85.47-76.13
			c-39.7-10.06-83.13-10.95-114.45,0.08c-8.47,7.14-9.35,14.91-20.37,15.76c-10.57-17.55-15.8-15.33-18.82-35.6
			c5.73-3.28,9.86-11.35,16.03-13.96c1.43-1.92,0.48-2.21,2.14-5.55c12.08-24.24,28.15-55.53,19.76-79.46
			c-5.42-15.46-22.31-24.36-34.9-30.2c-30.8-14.29-69.19,11.45-107.32,32.78c-5.26,2.94-15.12,5.44-20.38,8.29
			c-12.5-16.88-5.92-20.86-13.34-40.51c5-2.71,9.48,1.47,14.85-1.53c42.9-23.99,95.51-64.56,145.78-41.25
			c22.94,10.64,41.67,33.77,50.85,59.96c9.41,26.85,8.67,60.65,0.31,89.63c3.46-0.41,3.97,0.82,7.51,0.58
			c25.96-1.79,52.57,4.35,79.88,11.26c28.8,7.29,57.01,15.79,77.51,33.22c25.44,21.62,40.36,47.73,42.09,76.32
			c0.91,15.06-16.45,17.08-22.48,22.04c-0.61,0.5-1.47,5.86-2.14,6.44c-0.1,1.31,14.46,5.8,14.41,7.05
			c-0.35,8.62-7.39,25.35-19.15,34.83c-40.16,32.35-95.91,35.32-143.32,37.08c-4.92,0.18-9.61,3.93-14.43,4.15
			c-14.52,0.64-25.28-3.18-39.63-1.91c9.23,8.33,10.78,17.09,12.89,25.82c0.67,2.78,4.7,3.06,5.46,4.54
			c4.87,5.78,9.56,11.47,16.15,17.6c16.76,15.58,28.48,38.48,33.39,64.41c6.79,35.87-14.74,72.06-52.97,87.41
			c-3.17,1.27-2.2,12.44-5.92,14.27c-13.15,6.48-33.07,6.16-51.87,2.27c-15.43-3.2-24.32-16.8-35.5-24.36
			c-7.84-5.3-20.3-0.92-27.01-3c-8.89-2.75-18.34-5.07-28.77-7.27c-29.14-6.15-56.68-20.53-78.52-45.93
			c-0.57-0.67-12.62,2.21-13.17,1.53c-2.49,35.67-2.31,71.3-17.15,104.42c-22.56,50.34-71.64,76.89-124.81,80.2
			c-4.92,0.31-9.82,11.43-15.91,12.78C722.11,996.6,712.27,987.91,702.27,987.91z M1127.08,704.3c0,0,0-15.57,0-15.57
			C1127.08,688.72,1127.08,704.3,1127.08,704.3z"/>
		<path class="st2" d="M702.27,987.91c-5.33,0-12.49,14.74-18.07,13.2c-33.79-9.36-52.41-43.47-72.29-65.63
			c-1.34-1.49-4.27,1.13-5.62-0.36c-16.84-18.68-36.76-40.5-37.18-71.07c-0.27-19.08-0.69-38.6,6.54-53.28
			c4.27-8.67,13.79-4.75,15.47-12.1c20.98,1,24.93-13.41,43.23-3.1c-2.78,12.13-2.93,29.68-8.07,40.13
			c-5.64,11.45-16.49,18.79-16.37,27.78c0.21,14.78,9.65,32.77,23.03,47.62c1.37,1.53-2.61,5.09-1.24,6.62
			c15.83,17.64,42.09,30.17,65.44,36.63c5.94,1.65,14.99,0.74,24.42-1.36c7.41-1.65,15.24,1.57,23.44,1.05
			c37.19-2.32,79.96-30.37,95.97-66.08c21.82-48.68,5.54-110.47,5.33-167.06c-0.07-18.65,4.68-46.31,5.39-65.07
			c19.01-8.82,34.84-11.85,50.42,2.17c3.63,42,9.98,85.45,31.48,110.46c12.57,14.62,30.06,29.68,54.88,34.92
			c10.9,2.3,20.63,7.71,31.38,11.04c12.65,3.92,24.94,4.14,34.5,10.59c8.74,5.9,19.27,5.06,26.58,6.57
			c4.67,0.96,13.58,3.07,21.35-0.75c4.26-2.1,5.07-12.75,9.71-14.62c16.84-6.76,32.9-18.23,29.51-36.14
			c-2.34-12.38-15.3-21.14-28.5-33.41c-7.37-6.85-10.67-18.29-17.28-26.21c-6.58-7.88-14.17-15.45-16.03-23.14
			c-0.32-1.31-2.11-0.62-2.51-2.12c-0.46,0.07,3.97-7.08,3.57-7.02c-7.41,1.09-19.77,12.57-29.53,8.05
			c-10.6-4.9-16.59-16.6-25.52-21.24c-8.9-4.63-8.22-8.31-17.93-12.81c-0.34-20.52-9.79-20.46,4.2-35.47
			c28.14,0.21,51.05-0.4,79.72-3.05c19.73-1.82,39.69-6.92,60.46-7.84c4.92-0.22,9.62-7.29,14.63-7.48
			c41.38-1.54,84.63,1.12,113.91-20.21c0.09-1.26-0.29-3.22-0.25-4.37c0.23-5.75-3.23-14.49-0.32-21.46
			c3.29-7.89,9.08-16.67,13.66-20.43c0.12-0.1,5.73,4.82,5.85,4.71c-6.28-35.32-47.62-66.55-85.47-76.13
			c-39.7-10.06-83.13-10.95-114.45,0.08c-8.47,7.14-9.35,14.91-20.37,15.76c-10.57-17.55-15.8-15.33-18.82-35.6
			c5.73-3.28,9.86-11.35,16.03-13.96c1.43-1.92,0.48-2.21,2.14-5.55c12.08-24.24,28.15-55.53,19.76-79.46
			c-5.42-15.46-22.31-24.36-34.9-30.2c-30.8-14.29-69.19,11.45-107.32,32.78c-5.26,2.94-15.12,5.44-20.38,8.29
			c-12.5-16.88-5.92-20.86-13.34-40.51c5-2.71,9.48,1.47,14.85-1.53c42.9-23.99,95.51-64.56,145.78-41.25
			c22.94,10.64,41.67,33.77,50.85,59.96c9.41,26.85,8.67,60.65,0.31,89.63c3.46-0.41,3.97,0.82,7.51,0.58
			c25.96-1.79,52.57,4.35,79.88,11.26c28.8,7.29,57.01,15.79,77.51,33.22c25.44,21.62,40.36,47.73,42.09,76.32
			c0.91,15.06-16.45,17.08-22.48,22.04c-0.61,0.5-1.47,5.86-2.14,6.44c-0.1,1.31,14.46,5.8,14.41,7.05
			c-0.35,8.62-7.39,25.35-19.15,34.83c-40.16,32.35-95.91,35.32-143.32,37.08c-4.92,0.18-9.61,3.93-14.43,4.15
			c-14.52,0.64-25.28-3.18-39.63-1.91c9.23,8.33,10.78,17.09,12.89,25.82c0.67,2.78,4.7,3.06,5.46,4.54
			c4.87,5.78,9.56,11.47,16.15,17.6c16.76,15.58,28.48,38.48,33.39,64.41c6.79,35.87-14.74,72.06-52.97,87.41
			c-3.17,1.27-2.2,12.44-5.92,14.27c-13.15,6.48-33.07,6.16-51.87,2.27c-15.43-3.2-24.32-16.8-35.5-24.36
			c-7.84-5.3-20.3-0.92-27.01-3c-8.89-2.75-18.34-5.07-28.77-7.27c-29.14-6.15-56.68-20.53-78.52-45.93
			c-0.57-0.67-12.62,2.21-13.17,1.53c-2.49,35.67-2.31,71.3-17.15,104.42c-22.56,50.34-71.64,76.89-124.81,80.2
			c-4.92,0.31-9.82,11.43-15.91,12.78C722.11,996.6,712.27,987.91,702.27,987.91z M1127.08,704.3c0,0,0-15.57,0-15.57
			C1127.08,688.72,1127.08,704.3,1127.08,704.3z"/>
	</g>
	<g>
		<path class="st1" d="M845.41,692.88c-12.63,0-26.76-2.13-39.3-8.79c-20.83-11.06-36.77-34.27-43.39-63.76
			c-6.62-29.5-0.68-59.23,13.42-78.14c20.82,2.71,21.67,10.28,34.79,26.69c-6.56,8.79-12.93,25.58-9.09,42.67
			c3.84,17.1,13.47,31.85,23.16,37c8.38,4.45,22.78,3.77,36.27,2.84c1.72-0.12,3.02-6.58,4.72-6.69
			c27.72-1.73,83.24-9.59,138.02-75.26c19.18-8.54,36.92,5.09,33.06,25.74c-48.07,57.62-108.61,93.4-168.1,97.11
			c-1.61,0.1-3.38-1.94-5.01-1.83C858.16,690.86,851.9,692.88,845.41,692.88z"/>
		<path class="st2" d="M845.41,692.88c-12.63,0-26.76-2.13-39.3-8.79c-20.83-11.06-36.77-34.27-43.39-63.76
			c-6.62-29.5-0.68-59.23,13.42-78.14c20.82,2.71,21.67,10.28,34.79,26.69c-6.56,8.79-12.93,25.58-9.09,42.67
			c3.84,17.1,13.47,31.85,23.16,37c8.38,4.45,22.78,3.77,36.27,2.84c1.72-0.12,3.02-6.58,4.72-6.69
			c27.72-1.73,83.24-9.59,138.02-75.26c19.18-8.54,36.92,5.09,33.06,25.74c-48.07,57.62-108.61,93.4-168.1,97.11
			c-1.61,0.1-3.38-1.94-5.01-1.83C858.16,690.86,851.9,692.88,845.41,692.88z"/>
	</g>
	<g>
		<path class="st1" d="M656.04,820.05c-2.68,0-5.67,8.22-7.9,7.82c-16.14-2.84-20.15-21.09-22.03-28.53
			c-0.01-0.04-1.31,2.87-1.32,2.83c-38.43-23.54-71.89-64.7-74.71-104.99c-1.1-15.78,22.85-27.44,27.75-39.98
			c3.28-8.39,1.57-19.64,1.78-25.8c-0.36-2.48-15.61-4.71-17.55-8.93c-5.42-11.82,3.26-29.26,6.84-43.82
			c-1.29,0.83-7.79,2.63-9.16,3.53c-12.12,8.03-31.88,24.11-51.58,18.98c-17.73-4.62-27.89-26.12-29.87-35.4
			c-1.95-0.71,6.11-9.16,4.09-10.21c-13.41-6.96-13.09-14.08-12.96-17.54c0.38-10.69,3.61-23.48,7.85-32.54
			c-10.34,1.15-25.49-1.22-36.25,0.31c-29.81,4.25-59.5,13.43-91.57,10.64c-15.02-1.3-21.15-13.27-28.37-20.65
			c-2.38-2.43-11.49,1.9-13.01,1.09c-1.24-0.58-2.01-12.67-4.74-13.19c-10.34-1.95-23.19,0.19-31.46-14.26
			c-19.23-33.59-23.5-81.67,10.34-129.27c21.99-30.93,61.37-60.26,106.5-68.23c30.9-5.46,59.86,5.88,86.42,14.79
			c8.92,2.99,17.38,7.58,25.65,9.82c0.78-0.36,4.43-1.16,5.11-1.48c7.54-3.58,19.92-14.61,33.05-5.64
			c20.24,13.83,12.81,38.7,13.44,58.18c0.27,8.31,6.23,17.15,8.11,22.36c1.56-40.01,32.01-76.13,50.31-99.29
			c3.62-4.59,4.66-11.42,8.23-16.06c21.21-27.5,47.63-51.22,78.75-70.63c20.48-12.77,47.27-17.74,74.22-4.98
			c1.2,0.13,2.24,5.7,3.83,5.73c8.53,0.16,26.82-5.62,36.12,6.21c8.05,10.24,11.25,24.3,13.65,34.85c1.32,5.81,3.37,9.12,5.35,12.24
			c1.44,0.92-2.09,10.51,0.13,11.51c9.38,4.21,29.75,5.43,34.12,20.88c5.75,20.33-18.6,32.16-27.76,44.04
			c-2.88,3.74,9.35,17.35,7.94,20.09c-1.97,3.82-10.04-3.2-12.06,0.25c17.01,0.54,32.65,1.44,49.21,2.78
			c25.15,2.03,48.62,20.02,72.54,19.25c2.65-0.08,9.07-10.6,13.53-12.64c10.82-4.97,25.64-21.54,40.86-18.26
			c15.62,3.37,22.26,25.32,30.43,34.54c3.16,3.57,8.95,4.77,11.67,6.86c1.28-0.02,2.68,8.9,3.94,8.83
			c4.14-0.23,9.61-17.43,14.41-16.81c13.59,1.76,27.06,14.63,29.49,19.29c2.41,4.62,2.73,22.01-4.1,33.71
			c-2.11,3.61-7.48,5.89-9.77,8.62c-0.39,0.46-12.6-2.01-13.04-1.47c0.11,6.71,13.17,14.02,13.97,21.66
			c2.17,20.74,3.43,45.8-6.9,67.52c-15.01,31.56-53.18,38.97-80.46,49.56c-1.16,0.45-2.47-2.93-3.63-2.48
			c-5.56,2.16-10.98,7.76-17.14,10.88c-15.19,7.69-29.71,22.69-49.77,22.69c-0.06,0-0.13,5.86-0.19,5.86
			c-13.38-0.03-21.7-19.54-32-24.07c-6.09-2.69-15.91-4.19-20.44-4.78c-1.42,0.78,1.68,16.19,0.12,17.22
			c-7.5,4.97-23.63,3.37-37.39,0.72c-16.3-3.14-20.32-19.58-28.76-29.18c-3.85-4.38-15.26-2.85-18.18-4.41
			c-9.37-5.03-18.78-14.32-30.49-16.82c-6.82-1.45-14.61,12.95-22.05,10.74c-0.55,2.91-10.44-2.41-9.88,0.8
			c2.05,11.85,15.56,22.35,19.94,35.24c6.89,20.31,19.98,41.39,20.09,64.33c0.25,52.12-30.18,99.37-49.81,129.41
			c-1.31,2-2.23,4.43-3.69,6.74c-6.06,9.62-19.52,14.83-28.28,23.65C674.56,817.87,666.04,820.05,656.04,820.05z M600.62,595.58
			c1.07,2.55,10.2,2.08,11.13,4.11c4.54,9.91,7.19,21.4,6.96,32.37c-0.28,13.67-2.41,27.47-6.72,38.49
			c-3.61,9.23-0.34,15.93,0.11,22.29c1.97,28.25,7.05,64.44,36.42,80.71c5.39,2.99,13.51,3.02,15.66,7.52
			c4.93-5.53,1.13-22,5.52-28.99c1.56-2.47,16.75,3.97,18.25,1.68c26.48-40.54,30.85-77.47,30.69-108.54
			c-0.08-16.12-10.36-30.7-16.44-48.62c-4.7-13.85-10.8-29.11-13.41-44.18c-0.58-3.36,7.01-13.15,6.91-16.22
			c-6.36,3.41-13.96,9.09-20.01,12.65c-4.28,2.52-10.83,7.5-15.83,13.07c-8.73,9.71-17.35,17.45-32.21,22.66
			c-8.17,2.86-14.1,7.21-21.34,7.12C606.16,591.71,600.76,595.58,600.62,595.58z M576.11,637.17c0,0,0-8.51,0-8.51
			C576.11,628.65,576.11,637.17,576.11,637.17z M546.58,538.94c10.32,14.56,11.01,13.24,22.11,27.23
			c4.52-7.36,9.31-11.3,18.47-13.57c6.78-1.68,13.75-4.61,19.72-4.53c3.08,0.04,4.49-5.84,6.02-6.27
			c4.61-1.62,20.27,7.47,25.88,1.21c6.59-7.34,9.2-18.6,19.07-24.42c10.5-6.19,15.06-23.55,25.58-29.11
			c9.13-4.82,27.03,3.92,35.62-1c1.97-1.78-5.66-10.43-3.36-11.77c1.53-0.89,0.09-2.48,1.75-3.11c13.09-7.8,21.6-14.91,31.95-24.99
			c-0.01-1.39,11.24,2.18,11.18,0.86c-0.19-3.87-3.36-10.57-2.85-15.2c-23.76-15.74-52.23-28.71-78.32-32.83
			c-30.55-4.83-63.02-1.66-86.09,11.52c-3.74,2.14-0.08,7.68-4.36,8.23c-4.27,0.56-2.5-4.45-6.66-5.56
			c-2.72-0.72-7.99,8.14-11.12,7.47c-15.11-3.23-28.09-15.26-38.56-36.16c-6.53-13.04-9-24.98-9.43-38.39
			c-0.12-3.85-9.41-2.53-10.23-8.29c-6.03,2.57-8.84-5.67-16.97-7.69c-11.19-2.78-21.72-7.75-32.43-11.34
			c-23.92-8.03-48.19-17.38-68.56-13.78c-30.1,5.32-56.69,35.85-74.03,60.25c-30.53,42.95-22.43,70.02-17.72,80.51
			c1.91,0.52,2.91,9.11,4.99,9.5c6.27,1.18,15.93-7.32,22.62-3.76c7.25,3.86,11.87,11.12,16.64,16c2.09,2.14,5.29,1.82,6.96,2.94
			c26.9,2.17,53.66,4.9,82,0.86c15.32-2.18,29.42-9.78,45.48-11.07c6.41-9.51,17.78-8.83,24.26-12.14
			c3.61-1.84,2.29-10.03,5.29-12.37c9.68-7.58,11.38-9.05,12.07-10.32c0,0,6.28-3.85,6.19-3.61c19.63,7.44,19.34,8.69,33.95,23.77
			c-6.68,19.06-13.17,34.56-25.82,49.55c-9.59,11.37-31.64,19.47-36.19,30.03c4.79,2.47,27.01,2.63,29.71,9.05
			c1.51,3.58-3.02,4.42-2.28,7.83c3.08-1.76-0.11-3.65,2.21-5.18C536.34,535.97,540.88,541.64,546.58,538.94z M874.56,536.09
			c0.03,0,0.06-8.51,0.09-8.51c13.38,0.03,25.29,7.56,35.59,12.09c6.84,3.02,13.68,3.08,18.26,3.09c0.02,0,0.03-6.46,0.06-6.46
			c10.04,0,25.48,12.3,37.55,6.2c6.79-3.44,11.05-11.69,18.52-14.6c1.17-0.45-3.62-12.79-2.45-13.24
			c21.4-8.31,55.11-5.85,62.96-22.34c5.26-11.05-4.72-29.42-6.47-46.13c-1.08-10.3-7.14-21.43-6.79-32.15
			c0.05-1.64,1.35,2.51,1.68,1.01c-2.12-0.53,4.33-11.39,2.26-12.45c-9.95-5.06-16.95-10.75-23.27-17.88
			c-3.1-3.5-10.5-12.39-12.97-13.27c-2.45,0.01-12.83,1.56-16.88,3.41c-8.56,3.93-15.48,12.61-26.61,12.96
			c-26.29,0.85-51.85-4.75-77.05-6.79c-33.65-2.72-68.58,3.52-100.12,7.54c-16.09-12.98-3.4-21.67-2.09-42.3
			c15.41-8.05,18.72-15.43,27.71-32.83c3.16-6.1-4.86-19.79-0.84-25c2-2.59,14.15,0.14,16.04-2.86c-0.94-0.44-2.13-3.8-2.94-4.16
			c-7.16-3.21-13.7-7.43-19.9-15.33c-8.05-10.24-9.98-20.4-12.38-30.95c-0.96-4.25-6.72-7.68-7.99-11.09
			c-0.64-0.02-0.73-8.2-1.27-8.21c-6.26-0.12-15.2,9.75-22.73,6.09c-13.81-6.7-25.66-9.4-33.77-4.34
			c-24.7,15.41-40.65,41.62-60.46,67.3c-3.65,4.73-12.63,5.55-16.4,10.33c-18.3,23.17-33.35,48.58-35.33,72.17
			c24.65-7.79,49.82-4.34,78.2,0.14c31.83,5.03,67.64,10.83,96.3,29.75c1.56-0.6-0.69-1.25,0.94-1.71
			c13.92-3.94,30.44,4.35,34.35,11.56c3.96,7.29-3.87,19.34-14.44,29.22c-2.43,2.27,1.11,10.46-1.35,12.11
			c0.03,0.85-12.53-1.06-12.5-0.33c0.44,9.03,16.74,28.37,6.56,38.87c-6.45,6.65-15.4,11.78-22.58,17.28
			c0.29,0.06-2.22-12.08-1.93-12.02c13.41,2.86,22.87,20.96,37.5,28.81c9.61,5.16,19.82,6.15,26.01,13.2
			c2.49,2.83,11.09-2.06,13.97,0.26c1.18-0.74,0.29,8.8,1.33,8.11C855.89,538.02,863.4,536.09,874.56,536.09z M841.63,550.19
			l2.95-5.57C844.58,547.4,841.63,550.19,841.63,550.19z"/>
		<path class="st2" d="M656.04,820.05c-2.68,0-5.67,8.22-7.9,7.82c-16.14-2.84-20.15-21.09-22.03-28.53
			c-0.01-0.04-1.31,2.87-1.32,2.83c-38.43-23.54-71.89-64.7-74.71-104.99c-1.1-15.78,22.85-27.44,27.75-39.98
			c3.28-8.39,1.57-19.64,1.78-25.8c-0.36-2.48-15.61-4.71-17.55-8.93c-5.42-11.82,3.26-29.26,6.84-43.82
			c-1.29,0.83-7.79,2.63-9.16,3.53c-12.12,8.03-31.88,24.11-51.58,18.98c-17.73-4.62-27.89-26.12-29.87-35.4
			c-1.95-0.71,6.11-9.16,4.09-10.21c-13.41-6.96-13.09-14.08-12.96-17.54c0.38-10.69,3.61-23.48,7.85-32.54
			c-10.34,1.15-25.49-1.22-36.25,0.31c-29.81,4.25-59.5,13.43-91.57,10.64c-15.02-1.3-21.15-13.27-28.37-20.65
			c-2.38-2.43-11.49,1.9-13.01,1.09c-1.24-0.58-2.01-12.67-4.74-13.19c-10.34-1.95-23.19,0.19-31.46-14.26
			c-19.23-33.59-23.5-81.67,10.34-129.27c21.99-30.93,61.37-60.26,106.5-68.23c30.9-5.46,59.86,5.88,86.42,14.79
			c8.92,2.99,17.38,7.58,25.65,9.82c0.78-0.36,4.43-1.16,5.11-1.48c7.54-3.58,19.92-14.61,33.05-5.64
			c20.24,13.83,12.81,38.7,13.44,58.18c0.27,8.31,6.23,17.15,8.11,22.36c1.56-40.01,32.01-76.13,50.31-99.29
			c3.62-4.59,4.66-11.42,8.23-16.06c21.21-27.5,47.63-51.22,78.75-70.63c20.48-12.77,47.27-17.74,74.22-4.98
			c1.2,0.13,2.24,5.7,3.83,5.73c8.53,0.16,26.82-5.62,36.12,6.21c8.05,10.24,11.25,24.3,13.65,34.85c1.32,5.81,3.37,9.12,5.35,12.24
			c1.44,0.92-2.09,10.51,0.13,11.51c9.38,4.21,29.75,5.43,34.12,20.88c5.75,20.33-18.6,32.16-27.76,44.04
			c-2.88,3.74,9.35,17.35,7.94,20.09c-1.97,3.82-10.04-3.2-12.06,0.25c17.01,0.54,32.65,1.44,49.21,2.78
			c25.15,2.03,48.62,20.02,72.54,19.25c2.65-0.08,9.07-10.6,13.53-12.64c10.82-4.97,25.64-21.54,40.86-18.26
			c15.62,3.37,22.26,25.32,30.43,34.54c3.16,3.57,8.95,4.77,11.67,6.86c1.28-0.02,2.68,8.9,3.94,8.83
			c4.14-0.23,9.61-17.43,14.41-16.81c13.59,1.76,27.06,14.63,29.49,19.29c2.41,4.62,2.73,22.01-4.1,33.71
			c-2.11,3.61-7.48,5.89-9.77,8.62c-0.39,0.46-12.6-2.01-13.04-1.47c0.11,6.71,13.17,14.02,13.97,21.66
			c2.17,20.74,3.43,45.8-6.9,67.52c-15.01,31.56-53.18,38.97-80.46,49.56c-1.16,0.45-2.47-2.93-3.63-2.48
			c-5.56,2.16-10.98,7.76-17.14,10.88c-15.19,7.69-29.71,22.69-49.77,22.69c-0.06,0-0.13,5.86-0.19,5.86
			c-13.38-0.03-21.7-19.54-32-24.07c-6.09-2.69-15.91-4.19-20.44-4.78c-1.42,0.78,1.68,16.19,0.12,17.22
			c-7.5,4.97-23.63,3.37-37.39,0.72c-16.3-3.14-20.32-19.58-28.76-29.18c-3.85-4.38-15.26-2.85-18.18-4.41
			c-9.37-5.03-18.78-14.32-30.49-16.82c-6.82-1.45-14.61,12.95-22.05,10.74c-0.55,2.91-10.44-2.41-9.88,0.8
			c2.05,11.85,15.56,22.35,19.94,35.24c6.89,20.31,19.98,41.39,20.09,64.33c0.25,52.12-30.18,99.37-49.81,129.41
			c-1.31,2-2.23,4.43-3.69,6.74c-6.06,9.62-19.52,14.83-28.28,23.65C674.56,817.87,666.04,820.05,656.04,820.05z M600.62,595.58
			c1.07,2.55,10.2,2.08,11.13,4.11c4.54,9.91,7.19,21.4,6.96,32.37c-0.28,13.67-2.41,27.47-6.72,38.49
			c-3.61,9.23-0.34,15.93,0.11,22.29c1.97,28.25,7.05,64.44,36.42,80.71c5.39,2.99,13.51,3.02,15.66,7.52
			c4.93-5.53,1.13-22,5.52-28.99c1.56-2.47,16.75,3.97,18.25,1.68c26.48-40.54,30.85-77.47,30.69-108.54
			c-0.08-16.12-10.36-30.7-16.44-48.62c-4.7-13.85-10.8-29.11-13.41-44.18c-0.58-3.36,7.01-13.15,6.91-16.22
			c-6.36,3.41-13.96,9.09-20.01,12.65c-4.28,2.52-10.83,7.5-15.83,13.07c-8.73,9.71-17.35,17.45-32.21,22.66
			c-8.17,2.86-14.1,7.21-21.34,7.12C606.16,591.71,600.76,595.58,600.62,595.58z M576.11,637.17c0,0,0-8.51,0-8.51
			C576.11,628.65,576.11,637.17,576.11,637.17z M546.58,538.94c10.32,14.56,11.01,13.24,22.11,27.23
			c4.52-7.36,9.31-11.3,18.47-13.57c6.78-1.68,13.75-4.61,19.72-4.53c3.08,0.04,4.49-5.84,6.02-6.27
			c4.61-1.62,20.27,7.47,25.88,1.21c6.59-7.34,9.2-18.6,19.07-24.42c10.5-6.19,15.06-23.55,25.58-29.11
			c9.13-4.82,27.03,3.92,35.62-1c1.97-1.78-5.66-10.43-3.36-11.77c1.53-0.89,0.09-2.48,1.75-3.11c13.09-7.8,21.6-14.91,31.95-24.99
			c-0.01-1.39,11.24,2.18,11.18,0.86c-0.19-3.87-3.36-10.57-2.85-15.2c-23.76-15.74-52.23-28.71-78.32-32.83
			c-30.55-4.83-63.02-1.66-86.09,11.52c-3.74,2.14-0.08,7.68-4.36,8.23c-4.27,0.56-2.5-4.45-6.66-5.56
			c-2.72-0.72-7.99,8.14-11.12,7.47c-15.11-3.23-28.09-15.26-38.56-36.16c-6.53-13.04-9-24.98-9.43-38.39
			c-0.12-3.85-9.41-2.53-10.23-8.29c-6.03,2.57-8.84-5.67-16.97-7.69c-11.19-2.78-21.72-7.75-32.43-11.34
			c-23.92-8.03-48.19-17.38-68.56-13.78c-30.1,5.32-56.69,35.85-74.03,60.25c-30.53,42.95-22.43,70.02-17.72,80.51
			c1.91,0.52,2.91,9.11,4.99,9.5c6.27,1.18,15.93-7.32,22.62-3.76c7.25,3.86,11.87,11.12,16.64,16c2.09,2.14,5.29,1.82,6.96,2.94
			c26.9,2.17,53.66,4.9,82,0.86c15.32-2.18,29.42-9.78,45.48-11.07c6.41-9.51,17.78-8.83,24.26-12.14
			c3.61-1.84,2.29-10.03,5.29-12.37c9.68-7.58,11.38-9.05,12.07-10.32c0,0,6.28-3.85,6.19-3.61c19.63,7.44,19.34,8.69,33.95,23.77
			c-6.68,19.06-13.17,34.56-25.82,49.55c-9.59,11.37-31.64,19.47-36.19,30.03c4.79,2.47,27.01,2.63,29.71,9.05
			c1.51,3.58-3.02,4.42-2.28,7.83c3.08-1.76-0.11-3.65,2.21-5.18C536.34,535.97,540.88,541.64,546.58,538.94z M874.56,536.09
			c0.03,0,0.06-8.51,0.09-8.51c13.38,0.03,25.29,7.56,35.59,12.09c6.84,3.02,13.68,3.08,18.26,3.09c0.02,0,0.03-6.46,0.06-6.46
			c10.04,0,25.48,12.3,37.55,6.2c6.79-3.44,11.05-11.69,18.52-14.6c1.17-0.45-3.62-12.79-2.45-13.24
			c21.4-8.31,55.11-5.85,62.96-22.34c5.26-11.05-4.72-29.42-6.47-46.13c-1.08-10.3-7.14-21.43-6.79-32.15
			c0.05-1.64,1.35,2.51,1.68,1.01c-2.12-0.53,4.33-11.39,2.26-12.45c-9.95-5.06-16.95-10.75-23.27-17.88
			c-3.1-3.5-10.5-12.39-12.97-13.27c-2.45,0.01-12.83,1.56-16.88,3.41c-8.56,3.93-15.48,12.61-26.61,12.96
			c-26.29,0.85-51.85-4.75-77.05-6.79c-33.65-2.72-68.58,3.52-100.12,7.54c-16.09-12.98-3.4-21.67-2.09-42.3
			c15.41-8.05,18.72-15.43,27.71-32.83c3.16-6.1-4.86-19.79-0.84-25c2-2.59,14.15,0.14,16.04-2.86c-0.94-0.44-2.13-3.8-2.94-4.16
			c-7.16-3.21-13.7-7.43-19.9-15.33c-8.05-10.24-9.98-20.4-12.38-30.95c-0.96-4.25-6.72-7.68-7.99-11.09
			c-0.64-0.02-0.73-8.2-1.27-8.21c-6.26-0.12-15.2,9.75-22.73,6.09c-13.81-6.7-25.66-9.4-33.77-4.34
			c-24.7,15.41-40.65,41.62-60.46,67.3c-3.65,4.73-12.63,5.55-16.4,10.33c-18.3,23.17-33.35,48.58-35.33,72.17
			c24.65-7.79,49.82-4.34,78.2,0.14c31.83,5.03,67.64,10.83,96.3,29.75c1.56-0.6-0.69-1.25,0.94-1.71
			c13.92-3.94,30.44,4.35,34.35,11.56c3.96,7.29-3.87,19.34-14.44,29.22c-2.43,2.27,1.11,10.46-1.35,12.11
			c0.03,0.85-12.53-1.06-12.5-0.33c0.44,9.03,16.74,28.37,6.56,38.87c-6.45,6.65-15.4,11.78-22.58,17.28
			c0.29,0.06-2.22-12.08-1.93-12.02c13.41,2.86,22.87,20.96,37.5,28.81c9.61,5.16,19.82,6.15,26.01,13.2
			c2.49,2.83,11.09-2.06,13.97,0.26c1.18-0.74,0.29,8.8,1.33,8.11C855.89,538.02,863.4,536.09,874.56,536.09z M841.63,550.19
			l2.95-5.57C844.58,547.4,841.63,550.19,841.63,550.19z"/>
	</g>
	<g>
		<path class="st1" d="M1499.68,672.66c-10.99,0-20.4-4.89-26.56-8.26c-0.83-0.45,0-4-0.81-4.43
			c-22.97-12.12-24.77-24.45-23.22-34.91c1.74-11.78,9.06-16.85,13.24-19.81c0.31-0.22,1.92-0.08,2.22-0.3
			c2.99-3.79,5.98-7.67,8.95-11.49c18.22-23.35,35.94-47.96,59.13-68.47c23.71-20.97,49.58-38.88,77.94-43.53
			c25.36-4.16,52.61,0.85,79.99,8.91c14.25,4.2,20.7,17.05,21.91,21.55c0.05,0.11-0.45,0.02-0.41,0.13
			c1.55,3.64,3.53,15.36-3.92,26.43c-24.95,37.11-61.53,65.37-103.88,86.69c-17.29,8.7-32.96,20.67-51.54,25.84
			c-12.2,9.32-29.05,21.44-49.12,23.45C1502.36,674.59,1500.87,672.66,1499.68,672.66z M1637.32,525.13
			c-6.63,0-12.98,0.65-19.32,1.69c-20.54,3.37-42.69,10.62-60.47,26.34c-19.71,17.43-36.53,41.52-53.81,63.66
			c28.04-3.72,58.48-11.83,83.92-24.64c31.23-15.73,59.96-37.97,80.18-63.83C1658.36,526.42,1646.36,525.13,1637.32,525.13z"/>
		<path class="st2" d="M1499.68,672.66c-10.99,0-20.4-4.89-26.56-8.26c-0.83-0.45,0-4-0.81-4.43
			c-22.97-12.12-24.77-24.45-23.22-34.91c1.74-11.78,9.06-16.85,13.24-19.81c0.31-0.22,1.92-0.08,2.22-0.3
			c2.99-3.79,5.98-7.67,8.95-11.49c18.22-23.35,35.94-47.96,59.13-68.47c23.71-20.97,49.58-38.88,77.94-43.53
			c25.36-4.16,52.61,0.85,79.99,8.91c14.25,4.2,20.7,17.05,21.91,21.55c0.05,0.11-0.45,0.02-0.41,0.13
			c1.55,3.64,3.53,15.36-3.92,26.43c-24.95,37.11-61.53,65.37-103.88,86.69c-17.29,8.7-32.96,20.67-51.54,25.84
			c-12.2,9.32-29.05,21.44-49.12,23.45C1502.36,674.59,1500.87,672.66,1499.68,672.66z M1637.32,525.13
			c-6.63,0-12.98,0.65-19.32,1.69c-20.54,3.37-42.69,10.62-60.47,26.34c-19.71,17.43-36.53,41.52-53.81,63.66
			c28.04-3.72,58.48-11.83,83.92-24.64c31.23-15.73,59.96-37.97,80.18-63.83C1658.36,526.42,1646.36,525.13,1637.32,525.13z"/>
	</g>
</g>
</svg>
