<?xml version="1.0" encoding="UTF-8"?>
<svg id="Layer_1" data-name="Layer 1" xmlns="http://www.w3.org/2000/svg" xmlns:xlink="http://www.w3.org/1999/xlink" viewBox="0 0 1920 1080">
  <defs>
    <style>
      .cls-1 {
        stroke-width: 3.61px;
      }

      .cls-1, .cls-2 {
        fill: none;
        stroke: #8b8332;
        stroke-miterlimit: 10;
      }

      .cls-2 {
        stroke-width: 4px;
      }

      .cls-3 {
        opacity: .9;
      }

      .cls-4 {
        fill: #d0dbdc;
      }

      .cls-4, .cls-5 {
        stroke-width: 0px;
      }

      .cls-5 {
        fill: #8b8332;
      }
    </style>
    <symbol id="Anchor_2" data-name="Anchor 2" viewBox="0 0 15 15">
      <g>
        <path class="cls-5" d="M7.5,13c-1.47,0-2.85-.57-3.89-1.61-1.04-1.04-1.61-2.42-1.61-3.89s.57-2.85,1.61-3.89c1.04-1.04,2.42-1.61,3.89-1.61s2.85.57,3.89,1.61c1.04,1.04,1.61,2.42,1.61,3.89s-.57,2.85-1.61,3.89c-1.04,1.04-2.42,1.61-3.89,1.61Z"/>
        <path class="cls-5" d="M7.5,4c.93,0,1.81.36,2.48,1.03s1.02,1.54,1.02,2.47-.36,1.81-1.03,2.47c-.66.66-1.54,1.02-2.47,1.02s-1.81-.36-2.47-1.02c-.66-.66-1.03-1.54-1.03-2.47s.36-1.81,1.03-2.48,1.54-1.02,2.47-1.02M7.5,0c-1.92,0-3.84.73-5.3,2.2-2.93,2.93-2.93,7.68,0,10.61,1.46,1.46,3.38,2.2,5.3,2.2s3.84-.73,5.3-2.2c2.93-2.93,2.93-7.68,0-10.61-1.46-1.46-3.38-2.2-5.3-2.2h0Z"/>
      </g>
    </symbol>
  </defs>
  <g>
    <path class="cls-5" d="M1327.17,65.47v-10.87c0-.32,0-.65.01-1,0-.34.02-.71.04-1.09-.54.53-1.16.98-1.86,1.36-.7.38-1.41.64-2.15.8l-.48-2.23c.34-.05.73-.16,1.18-.34.45-.18.91-.4,1.39-.67s.92-.56,1.32-.88c.4-.31.71-.62.94-.92h2.16v15.84h-2.54Z"/>
    <path class="cls-5" d="M1366.32,115.48v-1.87c1.52-1.09,2.8-2.05,3.83-2.88,1.03-.83,1.86-1.6,2.48-2.3s1.08-1.37,1.36-2c.28-.63.42-1.28.42-1.93,0-.85-.26-1.54-.79-2.06s-1.26-.79-2.21-.79c-.99,0-1.78.33-2.36,1s-.92,1.57-1,2.72l-2.23-1.03c.11-1.01.41-1.88.89-2.62.48-.74,1.13-1.3,1.96-1.7.82-.4,1.78-.6,2.87-.6.9,0,1.68.13,2.36.38.68.26,1.25.61,1.72,1.07s.82.99,1.07,1.6c.25.61.37,1.26.37,1.94,0,1.01-.25,1.98-.74,2.92-.5.94-1.28,1.89-2.35,2.87-1.07.98-2.48,2.02-4.22,3.14v.05c.19-.03.46-.05.79-.06.34,0,.67-.02,1.01-.02.34,0,.61-.01.82-.01h4.99v2.21h-11.02Z"/>
    <path class="cls-5" d="M1476.15,159.89c-1.49,0-2.78-.33-3.88-1-1.1-.66-1.84-1.6-2.24-2.8l2.5-1.18c.14.58.37,1.07.67,1.49.3.42.7.73,1.2.95s1.11.32,1.85.32c.62,0,1.15-.11,1.58-.34.43-.22.76-.54,1-.94.23-.4.35-.86.35-1.37s-.1-.97-.3-1.32c-.2-.35-.51-.61-.94-.77s-.96-.24-1.62-.24c-.19,0-.39,0-.59.01-.2,0-.41.03-.64.06v-2.16c.14.02.28.03.42.04.14,0,.27.01.4.01,1.04,0,1.78-.21,2.23-.62.45-.42.67-1.06.67-1.94,0-.75-.23-1.33-.68-1.73-.46-.4-1.11-.6-1.96-.6s-1.56.2-2.05.61c-.49.41-.86,1-1.12,1.76l-2.35-.98c.22-.74.6-1.38,1.13-1.92s1.18-.96,1.96-1.26c.78-.3,1.63-.44,2.56-.44,1.14,0,2.08.18,2.84.55.76.37,1.33.87,1.7,1.51.38.64.56,1.35.56,2.14,0,.61-.09,1.14-.26,1.6-.18.46-.41.85-.71,1.18-.3.33-.62.58-.96.76-.34.18-.69.3-1.04.36v.05c.46.02.89.11,1.28.28.39.17.74.4,1.06.7.31.3.56.65.73,1.07.18.42.26.87.26,1.37,0,.96-.24,1.8-.72,2.52-.48.72-1.14,1.28-1.98,1.68-.84.4-1.81.6-2.92.6Z"/>
    <path class="cls-5" d="M1290.53,211.69v-3.96h-7.73v-1.75c.03-.08.08-.18.16-.29.07-.11.16-.24.25-.38l6.6-9.46h3.14v9.89h2.69v1.99h-2.69v3.96h-2.42ZM1285.21,205.74h5.33v-5.59c0-.38.01-.78.04-1.19.02-.41.04-.81.06-1.21h-.05c-.18.38-.4.8-.68,1.26-.28.46-.54.85-.78,1.19l-3.74,5.33s-.06.06-.08.1-.05.07-.08.12Z"/>
    <path class="cls-5" d="M1453.79,76.11c-1.41,0-2.56-.3-3.47-.91-.9-.61-1.62-1.49-2.15-2.64l2.4-1.25c.24.77.6,1.4,1.09,1.88.49.49,1.21.73,2.17.73.67,0,1.24-.12,1.72-.37.47-.25.84-.6,1.09-1.06.26-.46.38-1,.38-1.64,0-.67-.12-1.23-.36-1.68-.24-.45-.58-.79-1.03-1.02-.45-.23-1.01-.35-1.68-.35-.46,0-.9.05-1.3.14s-.76.24-1.08.44c-.32.2-.6.46-.84.78l-2.11-.41.96-8.74h9.22v2.21h-7.18l-.58,4.46-.05.26h.05c.37-.4.84-.71,1.43-.94.58-.22,1.28-.34,2.08-.34,1.02,0,1.9.21,2.64.64.74.42,1.31,1.01,1.73,1.76s.62,1.62.62,2.62c0,.86-.14,1.63-.43,2.3-.29.67-.7,1.24-1.22,1.7-.53.46-1.14.81-1.84,1.04-.7.23-1.45.35-2.27.35Z"/>
    <path class="cls-5" d="M1389.38,213.12c.85,0,1.6.12,2.26.35s1.23.6,1.72,1.09c.49.5.89,1.14,1.21,1.94l-2.26,1.08c-.22-.69-.58-1.23-1.07-1.63-.49-.4-1.16-.6-2.03-.6-.62,0-1.18.15-1.66.46-.48.3-.89.73-1.22,1.28-.34.55-.59,1.2-.77,1.94-.18.74-.26,1.55-.26,2.41v.43l.1.05c.18-.64.49-1.16.95-1.55s.97-.68,1.55-.88c.58-.19,1.14-.29,1.7-.29,1.06,0,1.98.2,2.76.61.78.41,1.4.99,1.84,1.74.44.75.66,1.65.66,2.69s-.23,1.97-.7,2.75c-.46.78-1.11,1.38-1.93,1.8-.82.42-1.81.64-2.96.64-1.34,0-2.49-.34-3.43-1.01-.94-.67-1.66-1.62-2.16-2.83-.5-1.22-.74-2.64-.74-4.27,0-1.81.28-3.32.85-4.54.57-1.22,1.34-2.13,2.32-2.75.98-.62,2.07-.92,3.29-.92ZM1389.21,221.35c-.61,0-1.14.12-1.61.37-.46.25-.83.59-1.09,1.02-.26.43-.4.94-.4,1.51s.14,1.06.42,1.51c.28.45.65.8,1.12,1.07.46.26.98.4,1.56.4.98,0,1.74-.26,2.28-.79.54-.53.82-1.26.82-2.18,0-.59-.12-1.11-.36-1.55-.24-.44-.59-.78-1.04-1.01s-1.02-.35-1.69-.35Z"/>
    <path class="cls-5" d="M1419.18,231.37h12.07v2.14c-1.33,1.38-2.4,2.79-3.22,4.24s-1.4,2.95-1.76,4.51-.54,3.21-.54,4.96h-2.59c0-1.76.22-3.48.66-5.15.44-1.67,1.11-3.27,2.02-4.8.9-1.53,2.04-2.96,3.42-4.31l.48.65h-10.54v-2.23Z"/>
    <path class="cls-5" d="M1258.49,237.82c1.07,0,2,.17,2.8.52.79.34,1.4.83,1.84,1.45.43.62.65,1.38.65,2.26,0,.82-.2,1.53-.59,2.15s-.96,1.08-1.72,1.4v.02c.91.34,1.64.84,2.17,1.5s.8,1.48.8,2.46-.24,1.75-.73,2.42c-.49.67-1.18,1.19-2.06,1.56-.89.37-1.94.55-3.16.55s-2.27-.18-3.16-.55c-.89-.37-1.58-.89-2.08-1.56-.5-.67-.74-1.48-.74-2.42s.26-1.78.79-2.45c.53-.67,1.26-1.18,2.21-1.51v-.02c-.72-.3-1.29-.76-1.7-1.38-.42-.62-.62-1.34-.62-2.17,0-.88.22-1.63.65-2.26.43-.62,1.05-1.11,1.85-1.45.8-.34,1.74-.52,2.81-.52ZM1258.49,251.95c.7,0,1.3-.1,1.8-.31.5-.21.88-.51,1.15-.91.27-.4.41-.86.41-1.39,0-.56-.14-1.04-.42-1.43-.28-.39-.67-.69-1.16-.9s-1.09-.31-1.78-.31-1.26.1-1.78.31c-.51.21-.91.51-1.19.9-.28.39-.42.87-.42,1.43,0,.53.14.99.41,1.39s.66.7,1.18.91c.51.21,1.11.31,1.8.31ZM1258.49,239.98c-.85,0-1.52.21-2.03.62s-.76.98-.76,1.7.26,1.28.77,1.69,1.18.61,2.02.61,1.5-.2,2-.61c.5-.41.76-.97.76-1.69s-.25-1.29-.74-1.7c-.5-.42-1.17-.62-2.02-.62Z"/>
    <path class="cls-5" d="M1353.12,331.48c1.36,0,2.51.34,3.44,1.01.94.67,1.64,1.62,2.11,2.83.47,1.22.71,2.65.71,4.3,0,1.82-.25,3.34-.74,4.55-.5,1.21-1.21,2.12-2.14,2.72s-2.05.91-3.36.91-2.5-.3-3.46-.89c-.96-.59-1.68-1.48-2.16-2.66l2.42-1.13c.22.75.6,1.35,1.12,1.8.52.45,1.23.67,2.12.67.74,0,1.35-.14,1.85-.43.5-.29.89-.7,1.19-1.25.3-.54.51-1.2.64-1.97.13-.77.19-1.63.19-2.59v-.26h-.1c-.18.64-.49,1.16-.95,1.56-.46.4-.97.69-1.55.88-.58.18-1.15.28-1.73.28-1.02,0-1.93-.2-2.72-.61-.79-.41-1.41-.98-1.86-1.72-.45-.74-.67-1.61-.67-2.62,0-1.1.23-2.06.68-2.86.46-.8,1.1-1.42,1.94-1.86.84-.44,1.84-.66,3.01-.66ZM1353.15,333.74c-1.01,0-1.78.27-2.32.82-.54.54-.8,1.3-.8,2.28,0,.86.28,1.54.85,2.03.57.49,1.32.73,2.27.73.61,0,1.14-.12,1.61-.37s.83-.59,1.09-1.02c.26-.43.4-.94.4-1.51,0-.61-.13-1.13-.4-1.57-.26-.44-.63-.78-1.09-1.02-.46-.24-1-.36-1.61-.36Z"/>
    <g>
      <path class="cls-5" d="M1174.58,237.58v-10.87c0-.32,0-.65.01-1,0-.34.02-.71.04-1.09-.54.53-1.16.98-1.86,1.36-.7.38-1.41.64-2.15.8l-.48-2.23c.34-.05.73-.16,1.18-.34.45-.18.91-.4,1.39-.67.48-.27.92-.56,1.32-.88s.71-.62.94-.92h2.16v15.84h-2.54Z"/>
      <path class="cls-5" d="M1186.9,237.82c-1.9,0-3.4-.69-4.48-2.08-1.08-1.38-1.62-3.41-1.62-6.08s.54-4.7,1.62-6.08,2.57-2.08,4.48-2.08,3.42.69,4.5,2.08,1.62,3.41,1.62,6.08-.54,4.7-1.62,6.08c-1.08,1.38-2.58,2.08-4.5,2.08ZM1186.9,235.63c.77,0,1.41-.22,1.93-.66.52-.44.91-1.1,1.18-1.99.26-.89.4-2,.4-3.32s-.13-2.44-.4-3.32c-.26-.89-.66-1.55-1.18-1.99s-1.16-.66-1.93-.66-1.41.22-1.93.66c-.52.44-.91,1.1-1.16,1.99-.26.89-.38,2-.38,3.32s.13,2.44.38,3.32c.26.89.64,1.55,1.16,1.99.52.44,1.16.66,1.93.66Z"/>
    </g>
    <g>
      <path class="cls-5" d="M1190.09,285.94v-10.87c0-.32,0-.65.01-1,0-.34.02-.71.04-1.09-.54.53-1.16.98-1.86,1.36-.7.38-1.41.64-2.15.8l-.48-2.23c.34-.05.73-.16,1.18-.34.45-.18.91-.4,1.39-.67s.92-.56,1.32-.88c.4-.31.71-.62.94-.92h2.16v15.84h-2.54Z"/>
      <path class="cls-5" d="M1199.74,285.94v-10.87c0-.32,0-.65.01-1,0-.34.02-.71.04-1.09-.54.53-1.16.98-1.86,1.36-.7.38-1.41.64-2.15.8l-.48-2.23c.34-.05.73-.16,1.18-.34.45-.18.91-.4,1.39-.67s.92-.56,1.32-.88c.4-.31.71-.62.94-.92h2.16v15.84h-2.54Z"/>
    </g>
    <g>
      <path class="cls-5" d="M1491.34,326.24v-10.87c0-.32,0-.65.01-1,0-.34.02-.71.04-1.09-.54.53-1.16.98-1.86,1.36-.7.38-1.41.64-2.15.8l-.48-2.23c.34-.05.73-.16,1.18-.34.45-.18.91-.4,1.39-.67s.92-.56,1.32-.88c.4-.31.71-.62.94-.92h2.16v15.84h-2.54Z"/>
      <path class="cls-5" d="M1497.8,326.24v-1.87c1.52-1.09,2.8-2.05,3.83-2.88,1.03-.83,1.86-1.6,2.48-2.3.62-.7,1.08-1.37,1.36-2,.28-.63.42-1.28.42-1.93,0-.85-.26-1.54-.79-2.06-.53-.53-1.26-.79-2.21-.79-.99,0-1.78.33-2.36,1-.58.66-.92,1.57-1,2.72l-2.23-1.03c.11-1.01.41-1.88.89-2.62.48-.74,1.13-1.3,1.96-1.7.82-.4,1.78-.6,2.87-.6.9,0,1.68.13,2.36.38.68.26,1.25.61,1.72,1.07s.82.99,1.07,1.6c.25.61.37,1.26.37,1.94,0,1.01-.25,1.98-.74,2.92-.5.94-1.28,1.89-2.35,2.87-1.07.98-2.48,2.02-4.22,3.14v.05c.19-.03.46-.05.79-.06s.67-.02,1.01-.02c.34,0,.61-.01.82-.01h4.99v2.21h-11.02Z"/>
    </g>
    <g>
      <path class="cls-5" d="M1055.59,261.26v-10.87c0-.32,0-.65.01-1,0-.34.02-.71.04-1.09-.54.53-1.16.98-1.86,1.36-.7.38-1.41.64-2.15.8l-.48-2.23c.34-.05.73-.16,1.18-.34.45-.18.91-.4,1.39-.67.48-.27.92-.56,1.32-.88s.71-.62.94-.92h2.16v15.84h-2.54Z"/>
      <path class="cls-5" d="M1067.4,261.5c-1.49,0-2.78-.33-3.88-1-1.1-.66-1.84-1.6-2.24-2.8l2.5-1.18c.14.58.37,1.07.67,1.49.3.42.7.73,1.2.95s1.11.32,1.85.32c.62,0,1.15-.11,1.58-.34.43-.22.76-.54,1-.94.23-.4.35-.86.35-1.37s-.1-.97-.3-1.32c-.2-.35-.51-.61-.94-.77s-.96-.24-1.62-.24c-.19,0-.39,0-.59.01-.2,0-.41.03-.64.06v-2.16c.14.02.28.03.42.04.14,0,.27.01.4.01,1.04,0,1.78-.21,2.23-.62.45-.42.67-1.06.67-1.94,0-.75-.23-1.33-.68-1.73-.46-.4-1.11-.6-1.96-.6s-1.56.2-2.05.61c-.49.41-.86,1-1.12,1.76l-2.35-.98c.22-.74.6-1.38,1.13-1.92s1.18-.96,1.96-1.26c.78-.3,1.63-.44,2.56-.44,1.14,0,2.08.18,2.84.55.76.37,1.33.87,1.7,1.51.38.64.56,1.35.56,2.14,0,.61-.09,1.14-.26,1.6-.18.46-.41.85-.71,1.18-.3.33-.62.58-.96.76-.34.18-.69.3-1.04.36v.05c.46.02.89.11,1.28.28.39.17.74.4,1.06.7.31.3.56.65.73,1.07.18.42.26.87.26,1.37,0,.96-.24,1.8-.72,2.52-.48.72-1.14,1.28-1.98,1.68-.84.4-1.81.6-2.92.6Z"/>
    </g>
    <g>
      <path class="cls-5" d="M1068.78,178.55v-10.87c0-.32,0-.65.01-1,0-.34.02-.71.04-1.09-.54.53-1.16.98-1.86,1.36-.7.38-1.41.64-2.15.8l-.48-2.23c.34-.05.73-.16,1.18-.34.45-.18.91-.4,1.39-.67.48-.27.92-.56,1.32-.88s.71-.62.94-.92h2.16v15.84h-2.54Z"/>
      <path class="cls-5" d="M1082.34,178.55v-3.96h-7.73v-1.75c.03-.08.08-.18.16-.29.07-.11.16-.24.25-.38l6.6-9.46h3.14v9.89h2.69v1.99h-2.69v3.96h-2.42ZM1077.01,172.59h5.33v-5.59c0-.38.01-.78.04-1.19.02-.41.04-.81.06-1.21h-.05c-.18.38-.4.8-.68,1.26-.28.46-.54.85-.78,1.19l-3.74,5.33s-.06.06-.08.1-.05.07-.08.12Z"/>
    </g>
    <g>
      <path class="cls-5" d="M986.46,247.21v-10.87c0-.32,0-.65.01-1,0-.34.02-.71.04-1.09-.54.53-1.16.98-1.86,1.36-.7.38-1.41.64-2.15.8l-.48-2.23c.34-.05.73-.16,1.18-.34.45-.18.91-.4,1.39-.67.48-.27.92-.56,1.32-.88s.71-.62.94-.92h2.16v15.84h-2.54Z"/>
      <path class="cls-5" d="M998.12,247.45c-1.41,0-2.56-.3-3.47-.91s-1.62-1.49-2.15-2.64l2.4-1.25c.24.77.6,1.4,1.09,1.88s1.21.73,2.17.73c.67,0,1.24-.12,1.72-.37.47-.25.84-.6,1.09-1.06.26-.46.38-1,.38-1.64,0-.67-.12-1.23-.36-1.68-.24-.45-.58-.79-1.03-1.02s-1.01-.35-1.68-.35c-.46,0-.9.05-1.3.14-.4.1-.76.24-1.08.44-.32.2-.6.46-.84.78l-2.11-.41.96-8.74h9.22v2.21h-7.18l-.58,4.46-.05.26h.05c.37-.4.84-.71,1.43-.94.58-.22,1.28-.34,2.08-.34,1.02,0,1.9.21,2.64.64.74.42,1.31,1.01,1.73,1.76s.62,1.62.62,2.62c0,.86-.14,1.63-.43,2.3-.29.67-.7,1.24-1.22,1.7-.53.46-1.14.81-1.84,1.04-.7.23-1.45.35-2.27.35Z"/>
    </g>
    <g>
      <path class="cls-5" d="M1023,288.99v-10.87c0-.32,0-.65.01-1,0-.34.02-.71.04-1.09-.54.53-1.16.98-1.86,1.36-.7.38-1.41.64-2.15.8l-.48-2.23c.34-.05.73-.16,1.18-.34.45-.18.91-.4,1.39-.67.48-.27.92-.56,1.32-.88s.71-.62.94-.92h2.16v15.84h-2.54Z"/>
      <path class="cls-5" d="M1035.67,272.91c.85,0,1.6.12,2.26.35s1.23.6,1.72,1.09c.49.5.89,1.14,1.21,1.94l-2.26,1.08c-.22-.69-.58-1.23-1.07-1.63-.49-.4-1.16-.6-2.03-.6-.62,0-1.18.15-1.66.46-.48.3-.89.73-1.22,1.28-.34.55-.59,1.2-.77,1.94-.18.74-.26,1.55-.26,2.41v.43l.1.05c.18-.64.49-1.16.95-1.55s.97-.68,1.55-.88c.58-.19,1.14-.29,1.7-.29,1.06,0,1.98.2,2.76.61.78.41,1.4.99,1.84,1.74.44.75.66,1.65.66,2.69s-.23,1.97-.7,2.75c-.46.78-1.11,1.38-1.93,1.8-.82.42-1.81.64-2.96.64-1.34,0-2.49-.34-3.43-1.01-.94-.67-1.66-1.62-2.16-2.83-.5-1.22-.74-2.64-.74-4.27,0-1.81.28-3.32.85-4.54.57-1.22,1.34-2.13,2.32-2.75.98-.62,2.07-.92,3.29-.92ZM1035.5,281.14c-.61,0-1.14.12-1.61.37-.46.25-.83.59-1.09,1.02-.26.43-.4.94-.4,1.51s.14,1.06.42,1.51c.28.45.65.8,1.12,1.07.46.26.98.4,1.56.4.98,0,1.74-.26,2.28-.79.54-.53.82-1.26.82-2.18,0-.59-.12-1.11-.36-1.55-.24-.44-.59-.78-1.04-1.01s-1.02-.35-1.69-.35Z"/>
    </g>
    <g>
      <path class="cls-5" d="M1069.68,307.26v-10.87c0-.32,0-.65.01-1,0-.34.02-.71.04-1.09-.54.53-1.16.98-1.86,1.36-.7.38-1.41.64-2.15.8l-.48-2.23c.34-.05.73-.16,1.18-.34.45-.18.91-.4,1.39-.67.48-.27.92-.56,1.32-.88s.71-.62.94-.92h2.16v15.84h-2.54Z"/>
      <path class="cls-5" d="M1075.37,291.42h12.07v2.14c-1.33,1.38-2.4,2.79-3.22,4.24s-1.4,2.95-1.76,4.51-.54,3.21-.54,4.96h-2.59c0-1.76.22-3.48.66-5.15.44-1.67,1.11-3.27,2.02-4.8.9-1.53,2.04-2.96,3.42-4.31l.48.65h-10.54v-2.23Z"/>
    </g>
    <g>
      <path class="cls-5" d="M1098.12,275.1v-10.87c0-.32,0-.65.01-1,0-.34.02-.71.04-1.09-.54.53-1.16.98-1.86,1.36-.7.38-1.41.64-2.15.8l-.48-2.23c.34-.05.73-.16,1.18-.34.45-.18.91-.4,1.39-.67.48-.27.92-.56,1.32-.88.4-.31.71-.62.94-.92h2.16v15.84h-2.54Z"/>
      <path class="cls-5" d="M1110.33,259.04c1.07,0,2,.17,2.8.52.79.34,1.4.83,1.84,1.45.43.62.65,1.38.65,2.26,0,.82-.2,1.53-.59,2.15s-.96,1.08-1.72,1.4v.02c.91.34,1.64.84,2.17,1.5s.8,1.48.8,2.46-.24,1.75-.73,2.42c-.49.67-1.18,1.19-2.06,1.56-.89.37-1.94.55-3.16.55s-2.27-.18-3.16-.55c-.89-.37-1.58-.89-2.08-1.56-.5-.67-.74-1.48-.74-2.42s.26-1.78.79-2.45c.53-.67,1.26-1.18,2.21-1.51v-.02c-.72-.3-1.29-.76-1.7-1.38-.42-.62-.62-1.34-.62-2.17,0-.88.22-1.63.65-2.26.43-.62,1.05-1.11,1.85-1.45.8-.34,1.74-.52,2.81-.52ZM1110.33,273.18c.7,0,1.3-.1,1.8-.31.5-.21.88-.51,1.15-.91.27-.4.41-.86.41-1.39,0-.56-.14-1.04-.42-1.43-.28-.39-.67-.69-1.16-.9s-1.09-.31-1.78-.31-1.26.1-1.78.31c-.51.21-.91.51-1.19.9-.28.39-.42.87-.42,1.43,0,.53.14.99.41,1.39s.66.7,1.18.91c.51.21,1.11.31,1.8.31ZM1110.33,261.21c-.85,0-1.52.21-2.03.62s-.76.98-.76,1.7.26,1.28.77,1.69,1.18.61,2.02.61,1.5-.2,2-.61c.5-.41.76-.97.76-1.69s-.25-1.29-.74-1.7c-.5-.42-1.17-.62-2.02-.62Z"/>
    </g>
    <g>
      <path class="cls-5" d="M1355.2,191.88v-10.87c0-.32,0-.65.01-1,0-.34.02-.71.04-1.09-.54.53-1.16.98-1.86,1.36-.7.38-1.41.64-2.15.8l-.48-2.23c.34-.05.73-.16,1.18-.34.45-.18.91-.4,1.39-.67.48-.27.92-.56,1.32-.88s.71-.62.94-.92h2.16v15.84h-2.54Z"/>
      <path class="cls-5" d="M1367.08,175.8c1.36,0,2.51.34,3.44,1.01.94.67,1.64,1.62,2.11,2.83.47,1.22.71,2.65.71,4.3,0,1.82-.25,3.34-.74,4.55-.5,1.21-1.21,2.12-2.14,2.72s-2.05.91-3.36.91-2.5-.3-3.46-.89c-.96-.59-1.68-1.48-2.16-2.66l2.42-1.13c.22.75.6,1.35,1.12,1.8.52.45,1.23.67,2.12.67.74,0,1.35-.14,1.85-.43.5-.29.89-.7,1.19-1.25.3-.54.51-1.2.64-1.97.13-.77.19-1.63.19-2.59v-.26h-.1c-.18.64-.49,1.16-.95,1.56-.46.4-.97.69-1.55.88-.58.18-1.15.28-1.73.28-1.02,0-1.93-.2-2.72-.61-.79-.41-1.41-.98-1.86-1.72-.45-.74-.67-1.61-.67-2.62,0-1.1.23-2.06.68-2.86.46-.8,1.1-1.42,1.94-1.86.84-.44,1.84-.66,3.01-.66ZM1367.1,178.05c-1.01,0-1.78.27-2.32.82-.54.54-.8,1.3-.8,2.28,0,.86.28,1.54.85,2.03.57.49,1.32.73,2.27.73.61,0,1.14-.12,1.61-.37s.83-.59,1.09-1.02c.26-.43.4-.94.4-1.51,0-.61-.13-1.13-.4-1.57-.26-.44-.63-.78-1.09-1.02-.46-.24-1-.36-1.61-.36Z"/>
    </g>
    <g>
      <path class="cls-5" d="M1241.66,275.1v-1.87c1.52-1.09,2.8-2.05,3.83-2.88,1.03-.83,1.86-1.6,2.48-2.3.62-.7,1.08-1.37,1.36-2,.28-.63.42-1.28.42-1.93,0-.85-.26-1.54-.79-2.06-.53-.53-1.26-.79-2.21-.79-.99,0-1.78.33-2.36,1-.58.66-.92,1.57-1,2.72l-2.23-1.03c.11-1.01.41-1.88.89-2.62s1.13-1.3,1.96-1.7c.82-.4,1.78-.6,2.87-.6.9,0,1.68.13,2.36.38.68.26,1.25.61,1.72,1.07s.82.99,1.07,1.6c.25.61.37,1.26.37,1.94,0,1.01-.25,1.98-.74,2.92-.5.94-1.28,1.89-2.35,2.87-1.07.98-2.48,2.02-4.22,3.14v.05c.19-.03.46-.05.79-.06.34,0,.67-.02,1.01-.02.34,0,.61-.01.82-.01h4.99v2.21h-11.02Z"/>
      <path class="cls-5" d="M1261.6,275.34c-1.9,0-3.4-.69-4.48-2.08-1.08-1.38-1.62-3.41-1.62-6.08s.54-4.7,1.62-6.08,2.57-2.08,4.48-2.08,3.42.69,4.5,2.08,1.62,3.41,1.62,6.08-.54,4.7-1.62,6.08c-1.08,1.38-2.58,2.08-4.5,2.08ZM1261.6,273.16c.77,0,1.41-.22,1.93-.66.52-.44.91-1.1,1.18-1.99.26-.89.4-2,.4-3.32s-.13-2.44-.4-3.32c-.26-.89-.66-1.55-1.18-1.99s-1.16-.66-1.93-.66-1.41.22-1.93.66c-.52.44-.91,1.1-1.16,1.99-.26.89-.38,2-.38,3.32s.13,2.44.38,3.32c.26.89.64,1.55,1.16,1.99.52.44,1.16.66,1.93.66Z"/>
    </g>
    <g>
      <path class="cls-5" d="M1034.12,169.42v-1.87c1.52-1.09,2.8-2.05,3.83-2.88,1.03-.83,1.86-1.6,2.48-2.3.62-.7,1.08-1.37,1.36-2,.28-.63.42-1.28.42-1.93,0-.85-.26-1.54-.79-2.06-.53-.53-1.26-.79-2.21-.79-.99,0-1.78.33-2.36,1-.58.66-.92,1.57-1,2.72l-2.23-1.03c.11-1.01.41-1.88.89-2.62s1.13-1.3,1.96-1.7c.82-.4,1.78-.6,2.87-.6.9,0,1.68.13,2.36.38.68.26,1.25.61,1.72,1.07s.82.99,1.07,1.6c.25.61.37,1.26.37,1.94,0,1.01-.25,1.98-.74,2.92-.5.94-1.28,1.89-2.35,2.87-1.07.98-2.48,2.02-4.22,3.14v.05c.19-.03.46-.05.79-.06.34,0,.67-.02,1.01-.02.34,0,.61-.01.82-.01h4.99v2.21h-11.02Z"/>
      <path class="cls-5" d="M1051.4,169.42v-10.87c0-.32,0-.65.01-1,0-.34.02-.71.04-1.09-.54.53-1.16.98-1.86,1.36-.7.38-1.41.64-2.15.8l-.48-2.23c.34-.05.73-.16,1.18-.34.45-.18.91-.4,1.39-.67.48-.27.92-.56,1.32-.88s.71-.62.94-.92h2.16v15.84h-2.54Z"/>
    </g>
    <g>
      <path class="cls-5" d="M1169.66,166.32v-1.87c1.52-1.09,2.8-2.05,3.83-2.88,1.03-.83,1.86-1.6,2.48-2.3.62-.7,1.08-1.37,1.36-2,.28-.63.42-1.28.42-1.93,0-.85-.26-1.54-.79-2.06-.53-.53-1.26-.79-2.21-.79-.99,0-1.78.33-2.36,1-.58.66-.92,1.57-1,2.72l-2.23-1.03c.11-1.01.41-1.88.89-2.62s1.13-1.3,1.96-1.7c.82-.4,1.78-.6,2.87-.6.9,0,1.68.13,2.36.38.68.26,1.25.61,1.72,1.07s.82.99,1.07,1.6c.25.61.37,1.26.37,1.94,0,1.01-.25,1.98-.74,2.92-.5.94-1.28,1.89-2.35,2.87-1.07.98-2.48,2.02-4.22,3.14v.05c.19-.03.46-.05.79-.06.34,0,.67-.02,1.01-.02.34,0,.61-.01.82-.01h4.99v2.21h-11.02Z"/>
      <path class="cls-5" d="M1183.75,166.32v-1.87c1.52-1.09,2.8-2.05,3.83-2.88,1.03-.83,1.86-1.6,2.48-2.3.62-.7,1.08-1.37,1.36-2,.28-.63.42-1.28.42-1.93,0-.85-.26-1.54-.79-2.06-.53-.53-1.26-.79-2.21-.79-.99,0-1.78.33-2.36,1-.58.66-.92,1.57-1,2.72l-2.23-1.03c.11-1.01.41-1.88.89-2.62s1.13-1.3,1.96-1.7c.82-.4,1.78-.6,2.87-.6.9,0,1.68.13,2.36.38.68.26,1.25.61,1.72,1.07s.82.99,1.07,1.6c.25.61.37,1.26.37,1.94,0,1.01-.25,1.98-.74,2.92-.5.94-1.28,1.89-2.35,2.87-1.07.98-2.48,2.02-4.22,3.14v.05c.19-.03.46-.05.79-.06.34,0,.67-.02,1.01-.02.34,0,.61-.01.82-.01h4.99v2.21h-11.02Z"/>
    </g>
    <g>
      <path class="cls-5" d="M1225.03,205.03v-1.87c1.52-1.09,2.8-2.05,3.83-2.88,1.03-.83,1.86-1.6,2.48-2.3s1.08-1.37,1.36-2c.28-.63.42-1.28.42-1.93,0-.85-.26-1.54-.79-2.06s-1.26-.79-2.21-.79c-.99,0-1.78.33-2.36,1s-.92,1.57-1,2.72l-2.23-1.03c.11-1.01.41-1.88.89-2.62.48-.74,1.13-1.3,1.96-1.7.82-.4,1.78-.6,2.87-.6.9,0,1.68.13,2.36.38.68.26,1.25.61,1.72,1.07s.82.99,1.07,1.6c.25.61.37,1.26.37,1.94,0,1.01-.25,1.98-.74,2.92-.5.94-1.28,1.89-2.35,2.87-1.07.98-2.48,2.02-4.22,3.14v.05c.19-.03.46-.05.79-.06.34,0,.67-.02,1.01-.02.34,0,.61-.01.82-.01h4.99v2.21h-11.02Z"/>
      <path class="cls-5" d="M1244.47,205.27c-1.49,0-2.78-.33-3.88-1-1.1-.66-1.84-1.6-2.24-2.8l2.5-1.18c.14.58.37,1.07.67,1.49.3.42.7.73,1.2.95s1.11.32,1.85.32c.62,0,1.15-.11,1.58-.34.43-.22.76-.54,1-.94.23-.4.35-.86.35-1.37s-.1-.97-.3-1.32c-.2-.35-.51-.61-.94-.77s-.96-.24-1.62-.24c-.19,0-.39,0-.59.01-.2,0-.41.03-.64.06v-2.16c.14.02.28.03.42.04.14,0,.27.01.4.01,1.04,0,1.78-.21,2.23-.62.45-.42.67-1.06.67-1.94,0-.75-.23-1.33-.68-1.73-.46-.4-1.11-.6-1.96-.6s-1.56.2-2.05.61c-.49.41-.86,1-1.12,1.76l-2.35-.98c.22-.74.6-1.38,1.13-1.92s1.18-.96,1.96-1.26c.78-.3,1.63-.44,2.56-.44,1.14,0,2.08.18,2.84.55.76.37,1.33.87,1.7,1.51.38.64.56,1.35.56,2.14,0,.61-.09,1.14-.26,1.6-.18.46-.41.85-.71,1.18-.3.33-.62.58-.96.76-.34.18-.69.3-1.04.36v.05c.46.02.89.11,1.28.28.39.17.74.4,1.06.7.31.3.56.65.73,1.07s.26.87.26,1.37c0,.96-.24,1.8-.72,2.52-.48.72-1.14,1.28-1.98,1.68-.84.4-1.81.6-2.92.6Z"/>
    </g>
    <g>
      <path class="cls-5" d="M1236.82,135.07v-1.87c1.52-1.09,2.8-2.05,3.83-2.88,1.03-.83,1.86-1.6,2.48-2.3.62-.7,1.08-1.37,1.36-2,.28-.63.42-1.28.42-1.93,0-.85-.26-1.54-.79-2.06-.53-.53-1.26-.79-2.21-.79-.99,0-1.78.33-2.36,1-.58.66-.92,1.57-1,2.72l-2.23-1.03c.11-1.01.41-1.88.89-2.62s1.13-1.3,1.96-1.7c.82-.4,1.78-.6,2.87-.6.9,0,1.68.13,2.36.38.68.26,1.25.61,1.72,1.07s.82.99,1.07,1.6c.25.61.37,1.26.37,1.94,0,1.01-.25,1.98-.74,2.92-.5.94-1.28,1.89-2.35,2.87-1.07.98-2.48,2.02-4.22,3.14v.05c.19-.03.46-.05.79-.06.34,0,.67-.02,1.01-.02.34,0,.61-.01.82-.01h4.99v2.21h-11.02Z"/>
      <path class="cls-5" d="M1257.41,135.07v-3.96h-7.73v-1.75c.03-.08.08-.18.16-.29.07-.11.16-.24.25-.38l6.6-9.46h3.14v9.89h2.69v1.99h-2.69v3.96h-2.42ZM1252.08,129.12h5.33v-5.59c0-.38.01-.78.04-1.19.02-.41.04-.81.06-1.21h-.05c-.18.38-.4.8-.68,1.26-.28.46-.54.85-.78,1.19l-3.74,5.33s-.06.06-.08.1-.05.07-.08.12Z"/>
    </g>
    <g>
      <path class="cls-5" d="M1263.1,81.37v-1.87c1.52-1.09,2.8-2.05,3.83-2.88,1.03-.83,1.86-1.6,2.48-2.3.62-.7,1.08-1.37,1.36-2,.28-.63.42-1.28.42-1.93,0-.85-.26-1.54-.79-2.06-.53-.53-1.26-.79-2.21-.79-.99,0-1.78.33-2.36,1-.58.66-.92,1.57-1,2.72l-2.23-1.03c.11-1.01.41-1.88.89-2.62s1.13-1.3,1.96-1.7c.82-.4,1.78-.6,2.87-.6.9,0,1.68.13,2.36.38.68.26,1.25.61,1.72,1.07s.82.99,1.07,1.6c.25.61.37,1.26.37,1.94,0,1.01-.25,1.98-.74,2.92-.5.94-1.28,1.89-2.35,2.87-1.07.98-2.48,2.02-4.22,3.14v.05c.19-.03.46-.05.79-.06.34,0,.67-.02,1.01-.02.34,0,.61-.01.82-.01h4.99v2.21h-11.02Z"/>
      <path class="cls-5" d="M1282.39,81.61c-1.41,0-2.56-.3-3.47-.91s-1.62-1.49-2.15-2.64l2.4-1.25c.24.77.6,1.4,1.09,1.88s1.21.73,2.17.73c.67,0,1.24-.12,1.72-.37.47-.25.84-.6,1.09-1.06.26-.46.38-1,.38-1.64,0-.67-.12-1.23-.36-1.68-.24-.45-.58-.79-1.03-1.02s-1.01-.35-1.68-.35c-.46,0-.9.05-1.3.14-.4.1-.76.24-1.08.44-.32.2-.6.46-.84.78l-2.11-.41.96-8.74h9.22v2.21h-7.18l-.58,4.46-.05.26h.05c.37-.4.84-.71,1.43-.94.58-.22,1.28-.34,2.08-.34,1.02,0,1.9.21,2.64.64.74.42,1.31,1.01,1.73,1.76s.62,1.62.62,2.62c0,.86-.14,1.63-.43,2.3-.29.67-.7,1.24-1.22,1.7-.53.46-1.14.81-1.84,1.04-.7.23-1.45.35-2.27.35Z"/>
    </g>
    <g>
      <path class="cls-5" d="M1266.86,148.18v-1.87c1.52-1.09,2.8-2.05,3.83-2.88,1.03-.83,1.86-1.6,2.48-2.3.62-.7,1.08-1.37,1.36-2,.28-.63.42-1.28.42-1.93,0-.85-.26-1.54-.79-2.06-.53-.53-1.26-.79-2.21-.79-.99,0-1.78.33-2.36,1-.58.66-.92,1.57-1,2.72l-2.23-1.03c.11-1.01.41-1.88.89-2.62.48-.74,1.13-1.3,1.96-1.7.82-.4,1.78-.6,2.87-.6.9,0,1.68.13,2.36.38.68.26,1.25.61,1.72,1.07s.82.99,1.07,1.6c.25.61.37,1.26.37,1.94,0,1.01-.25,1.98-.74,2.92-.5.94-1.28,1.89-2.35,2.87-1.07.98-2.48,2.02-4.22,3.14v.05c.19-.03.46-.05.79-.06s.67-.02,1.01-.02c.34,0,.61-.01.82-.01h4.99v2.21h-11.02Z"/>
      <path class="cls-5" d="M1287.16,132.1c.85,0,1.6.12,2.26.35.66.23,1.23.6,1.72,1.09.49.5.89,1.14,1.21,1.94l-2.26,1.08c-.22-.69-.58-1.23-1.07-1.63-.49-.4-1.16-.6-2.03-.6-.62,0-1.18.15-1.66.46-.48.3-.89.73-1.22,1.28s-.59,1.2-.77,1.94c-.18.74-.26,1.55-.26,2.41v.43l.1.05c.18-.64.49-1.16.95-1.55.46-.39.97-.68,1.55-.88.58-.19,1.14-.29,1.7-.29,1.06,0,1.98.2,2.76.61.78.41,1.4.99,1.84,1.74.44.75.66,1.65.66,2.69s-.23,1.97-.7,2.75c-.46.78-1.11,1.38-1.93,1.8-.82.42-1.81.64-2.96.64-1.34,0-2.49-.34-3.43-1.01-.94-.67-1.66-1.62-2.16-2.83-.5-1.22-.74-2.64-.74-4.27,0-1.81.28-3.32.85-4.54.57-1.22,1.34-2.13,2.32-2.75s2.07-.92,3.29-.92ZM1286.99,140.33c-.61,0-1.14.12-1.61.37-.46.25-.83.59-1.09,1.02-.26.43-.4.94-.4,1.51s.14,1.06.42,1.51c.28.45.65.8,1.12,1.07.46.26.98.4,1.56.4.98,0,1.74-.26,2.28-.79.54-.53.82-1.26.82-2.18,0-.59-.12-1.11-.36-1.55-.24-.44-.59-.78-1.04-1.01-.46-.23-1.02-.35-1.69-.35Z"/>
    </g>
    <g>
      <path class="cls-5" d="M1122.85,240.54v-1.87c1.52-1.09,2.8-2.05,3.83-2.88,1.03-.83,1.86-1.6,2.48-2.3.62-.7,1.08-1.37,1.36-2,.28-.63.42-1.28.42-1.93,0-.85-.26-1.54-.79-2.06-.53-.53-1.26-.79-2.21-.79-.99,0-1.78.33-2.36,1-.58.66-.92,1.57-1,2.72l-2.23-1.03c.11-1.01.41-1.88.89-2.62.48-.74,1.13-1.3,1.96-1.7.82-.4,1.78-.6,2.87-.6.9,0,1.68.13,2.36.38.68.26,1.25.61,1.72,1.07s.82.99,1.07,1.6c.25.61.37,1.26.37,1.94,0,1.01-.25,1.98-.74,2.92-.5.94-1.28,1.89-2.35,2.87-1.07.98-2.48,2.02-4.22,3.14v.05c.19-.03.46-.05.79-.06s.67-.02,1.01-.02c.34,0,.61-.01.82-.01h4.99v2.21h-11.02Z"/>
      <path class="cls-5" d="M1135.71,224.7h12.07v2.14c-1.33,1.38-2.4,2.79-3.22,4.24s-1.4,2.95-1.76,4.51c-.36,1.56-.54,3.21-.54,4.96h-2.59c0-1.76.22-3.48.66-5.15.44-1.67,1.11-3.27,2.02-4.8.9-1.53,2.04-2.96,3.42-4.31l.48.65h-10.54v-2.23Z"/>
    </g>
  </g>
  <g>
    <use width="15" height="15" transform="translate(1128.88 199.36) rotate(8.87) scale(1.07)" xlink:href="#Anchor_2"/>
    <use width="15" height="15" transform="translate(1273.88 107) rotate(8.87) scale(1.07)" xlink:href="#Anchor_2"/>
    <use width="15" height="15" transform="translate(1269.78 40.19) rotate(8.87) scale(1.07)" xlink:href="#Anchor_2"/>
    <use width="15" height="15" transform="translate(1243.68 93.89) rotate(8.87) scale(1.07)" xlink:href="#Anchor_2"/>
    <use width="15" height="15" transform="translate(1231.76 163.84) rotate(8.87) scale(1.07)" xlink:href="#Anchor_2"/>
    <use width="15" height="15" transform="translate(1176.4 125.14) rotate(8.87) scale(1.07)" xlink:href="#Anchor_2"/>
    <use width="15" height="15" transform="translate(1038.64 128.24) rotate(8.87) scale(1.07)" xlink:href="#Anchor_2"/>
    <use width="15" height="15" transform="translate(1248.88 233.92) rotate(8.87) scale(1.07)" xlink:href="#Anchor_2"/>
    <use width="15" height="15" transform="translate(1356.88 150.7) rotate(8.87) scale(1.07)" xlink:href="#Anchor_2"/>
    <use width="15" height="15" transform="translate(1099.82 233.92) rotate(8.87) scale(1.07)" xlink:href="#Anchor_2"/>
    <use width="15" height="15" transform="translate(1070.52 266.08) rotate(8.87) scale(1.07)" xlink:href="#Anchor_2"/>
    <use width="15" height="15" transform="translate(1024.61 247.81) rotate(8.87) scale(1.07)" xlink:href="#Anchor_2"/>
    <use width="15" height="15" transform="translate(987.72 206.03) rotate(8.87) scale(1.07)" xlink:href="#Anchor_2"/>
    <use width="15" height="15" transform="translate(1070.52 137.37) rotate(8.87) scale(1.07)" xlink:href="#Anchor_2"/>
    <use width="15" height="15" transform="translate(1056.9 220.08) rotate(8.87) scale(1.07)" xlink:href="#Anchor_2"/>
    <use width="15" height="15" transform="translate(1492.67 285.05) rotate(8.87) scale(1.07)" xlink:href="#Anchor_2"/>
    <use width="15" height="15" transform="translate(1189.2 244.76) rotate(8.87) scale(1.07)" xlink:href="#Anchor_2"/>
    <use width="15" height="15" transform="translate(1176.4 196.4) rotate(8.87) scale(1.07)" xlink:href="#Anchor_2"/>
    <use width="15" height="15" transform="translate(1347.75 306.38) rotate(8.87) scale(1.07)" xlink:href="#Anchor_2"/>
    <use width="15" height="15" transform="translate(1252.81 212.69) rotate(8.87) scale(1.07)" xlink:href="#Anchor_2"/>
    <use width="15" height="15" transform="translate(1419.17 206.03) rotate(8.87) scale(1.07)" xlink:href="#Anchor_2"/>
    <use width="15" height="15" transform="translate(1383.14 188.02) rotate(8.87) scale(1.07)" xlink:href="#Anchor_2"/>
    <use width="15" height="15" transform="translate(1448.22 34.69) rotate(8.87) scale(1.07)" xlink:href="#Anchor_2"/>
    <use width="15" height="15" transform="translate(1283.54 170.51) rotate(8.87) scale(1.07)" xlink:href="#Anchor_2"/>
    <use width="15" height="15" transform="translate(1470.48 118.47) rotate(8.87) scale(1.07)" xlink:href="#Anchor_2"/>
    <use width="15" height="15" transform="translate(1366.02 74.3) rotate(8.87) scale(1.07)" xlink:href="#Anchor_2"/>
    <use width="15" height="15" transform="translate(1321.45 24.29) rotate(8.87) scale(1.07)" xlink:href="#Anchor_2"/>
  </g>
  <polyline class="cls-2" points="1280.55 116.13 1290.21 179.64 1373.82 83.43 1327.18 33.42 1276.44 49.32 1363.55 159.83 1454.88 43.82 1477.15 127.6 1389.81 197.15 1259.48 221.82 1354.42 315.51 1425.83 213.87 1499.33 294.19 1255.55 243.05 1195.86 253.89 1135.54 208.49 1106.49 243.05 1077.19 275.21 1063.57 229.21 1077.19 146.5 1045.3 137.37 994.39 215.16 1031.27 256.94 1183.07 134.27 1250.34 103.03 1238.42 170.62 1183.07 205.53"/>
  <g class="cls-3">
    <g>
      <path class="cls-4" d="M1359.28,350.34c-19.05-5.07-16.32-12.55-33.63-21.98.99-4.49-2.38-6.79-.7-11.31.79-2.12,9.16-3.36,9.49-4.64.03-.68.25-3.41.15-4.59-.32-3.6-3.15-7.71-1.98-13.12,1.09-5.04.29-10.2,1.19-14.83.17-.87.29-.85.46-1.73.37-1.89-3.33-4.48-3.13-7.1.21-2.78,6.74-5.23,7.28-8.63,1.29-8.08,1.51-15.33,4.56-18.93.23-.28,5.43,1.6,5.69,1.29.4-2.3-4.54-5.78-4.08-7.76.43-1.87.26-3.33.53-4.95-.14-.44-2.22.81-2.36.4-1.38-4.02-2.59-11.97-2-19.28.26-3.23,5.8-5.41,6.57-8.08.6-2.07,3.49-4.72,3.55-6.34-.08-.72-2.91-2.66-3.2-3.84-.8-3.19-.21-7.05-.39-11.57-.17-4.15-5.97-8.04-5.75-11.03.05-.65,6.8-2.02,6.84-2.68-1.06-2.92-2.9-8.27-4.04-10.13-.85-.34-4.5,1.07-5.47.73-2.9-1.02-5.98-5.16-9.56-7.09-2.19.99-4.97,7.11-8.19,7.99-1.64.45-5.81-4.6-7.31-4.38-.24.78-.7,4.44-1,5.26-1.71,4.71,1.22,9.06.45,10.9-.22.54-.33.96-.43,1.25-.21.96.61,4.23.08,8.07-.03.24.23.27.2.51-1.08,7.92-8.3,13.28-11.02,16.98-.8,1.09-5.06.56-5.38,1.21-2.43,4.84-2.85,10-5.54,13.95-.09.13-.72.39-.82.53-.02.27-1.67.7-1.69.94-.28,4.73-1.86,9.84-7.19,16.89-2.3,3.04,1.46,10.64-.64,12.98-1.51,1.69-8.95-1.63-10-.26-1.04,1.34,1.9,6.36.81,8.47-1.19,2.32-2.8,4.8-4.59,7.43-6.01,8.84-15.4,17.9-22.59,20.4-9.84,3.42-18.15-6.87-22.18-8.83-3.84-.2-8.21-2.08-11.9-2.34-4.43-.31-9.04,6.37-13.22,6.19-.48-.02-.84-1.28-1.28-1.28-.02,0-.04.13-.06.13-3.13,0-6.77-4.45-12.78-7.06-.34-.11-3.86,7.57-4.43,7.42-4.77-1.33-17.74-5.98-23.29-15.85-4.75-8.45-2.59-19.92-4.06-28.68-4.81-1-9.43-5.77-13.74-9.37-2.25,3.83-3.41,10.38-5.46,12.69-.64.72-5.45-.99-5.87-.44-.43,1.01,1.58,3.71,1.09,5.09-2.13,6.02-5.5,14.78-14.4,20.73-5.25,3.51-19.79,16.19-35.56,13.1,0,.05-.18-4.59-.19-4.55-1.65,9.6-1.35,22.46-7.53,31.39-2.15,3.1-10.63,11.48-19.81,14.49-4.17,1.37-16.43,2.12-25.09-7.18-6.69-.28-12.45-6.7-20.89-14.72-7.4-7.03-15.2-11.92-17.19-18.33-.59-1.89,2.09-4.84,1.59-6-3.4-7.89-9.8-15.15-11.01-25.56-.96-8.3,5.08-15.92,5.54-23.1.06-.91-4.65-1.08-4.65-1.99-.09-.58,1.38-1.52,1.19-2.34-.92-3.96-2.61-10.22-1.44-17.07.23-1.33-3.23-3.3-3.02-4.96.54-4.39,7.66-8.17,9.36-13.45,2-6.24,1.36-13.13,3.91-16.52.8-1.07,5.53.07,5.84-.51,3.25-6.01,2.75-14.41,5.93-17.36,1.03-.96,4.43.87,5.09.14.71-.78,2.21-1.38,3.15-2.63,3.12-4.11,9.88-5.61,16.93-9.66,7.03-4.04,12.21-3.35,17.21-3.46.43-.42,2.92-2.94,3.41-3.36,6.39-5.41,12.05-9.62,19.51-6.74,13.18,5.09,19.03,17.34,19.82,22.27.05.31-5.29,1.93-5.24,2.23.35.77-.52,2.99.04,4.02,2.32,4.3,11.28,8.24,11.87,15.94.11,1.36,1.74,2.71,2.03,4.57.65,4.27-2.68,10.17-3.04,15.92-.22,3.52-1.84,6.6-2.24,9.74-.33,2.58,5.35,5.5,5.2,7.71-.34,5.23-8.26,9.52-7.94,13.86.18,2.49,3.51,4.57,3.17,6.72.45.34.59.65,1.02,1.04.16.14.45.43.61.58.68-1.87,6.03-1.74,7.03-3.87,2.27-4.84.43-10.85,2.96-13.71.6-.68,3.99-.69,4.53-1.35.32-2.19.98-5.57,1.12-8.52.11-2.48-6.93-5.51-6.69-8.18.03-.81,3.92-3.02,3.57-4.69-.71-3.44,1.21-7.69,1.24-12.45.01-2.75-1.47-6.57-2.09-9.86-.5-2.65-3.12-5.02-3.38-7.81,18.89-5.93,20.7-.09,39.45-6.44-1.34-3.38-7.05-4.89-7.26-5.08.24.23,7.04-5.94,7.59-5.47,4.18,3.54,7.57,13.39,11.63,22.29.88,1.94-.49-.08-.09,1.8.49-2.46,6.72-.3,7.23-2.48.41-1.75-3.84-4.45-3.52-6.02.17-.84,3.36-2.32,3.43-3.95.17-3.67-4.84-9.28-3.47-14.23,1.7-6.17,13.53-17.66,25.32-29.21,8.41-8.24,15.52-18.59,26.12-20.39,7.49-1.27,14.87-.03,20.16,1.27,2.33.58,3.6,7.27,5.48,7.47,6.78.7,10.06-8.58,15.27-4.18s-3.94,9.33-2.12,15.9c.34,1.24,3.64,1.67,3.98,2.96.96,3.66,7.53,4.89,8.75,7.65,2.85,6.47,1.62,13.99,3.38,19.66,2.83,9.14,4.16,17.64,3.16,22.66-.17.88-4.54.96-4.66,1.71.03.51-2.32,1.86-2.24,2.57.52,4.39,5.74,11.87,2.43,19.68-2.94,6.94-11.39,8.67-14.83,12.57-.68.77.43,3.17-.23,3.95-5.57,6.66-9.41,14.2-13.76,15.92-1.05.42-4.97-5.4-5.49-5.11-.87.48.15,4.96-1.12,5.88-3.81,2.74-11.37.04-18.69,1.92-.6.38-2.21,3.23-2.96,3.76-2.96,2.12-3.11,10.5-8.16,12.32.24,1.1,1.74-3.17,2.04-2.13.93.28-1.4,4.58-.36,4.97.05,0,.57.07.61.07,1,0,2.06-2.34,3.15-2.29,4.71.2,9.11,4.34,13.6,4.65,4.43.31,8.62,1.94,12.8,2.12,3.39.15,6.46-1.87,8.9-.95.42-.73,2.34-2.52,2.85-3.53,1.69-3.29-.94-10.72,2.36-14.98,1.93-2.49,3.8-5.22,5.71-7.35.95-1.06,1.39-1.98,2.24-2.97,0-.13,6.37,3,6.37,2.88.28-4.66-2.18-12.22,2.32-18.92.68-1.02-.01-2.95.65-3.93,2.13-3.13,2.69-6.12,3.91-8.57,1.84-3.66,7.98-4.38,9.54-6.5.25-.34,2.74-.83,3-1.2,1.31-9.54-3.21-12.92-.66-19.08.67-1.61-1.29-4.75.12-8.64.35-.96,1.22-1.1,1.46-2.71.65-4.35,8.82-8.6,15.89-14.78,7.51-6.56,13.22-5.51,17.41-5.29.84.04,3.42,1.23,3.86,1.19,1.95-.55.85-7.08,2.25-7.92,12.87-7.67,22.81-2.78,33.52,4.14.67.41,4.41-2.53,5.88-2.02,3.1,1.09,5.03,6.98,8.83,9.2-.39-.45-1.04-1.58-1.4-1.99-2.54-2.88-8.35-6.21-10.8-11.54-3.22-6.98,4.68-15.33,4.74-19.86,0-.3-2.04-1.99-2.04-2.32-.41-.41-.43-2.42-.81-2.79-2.88-2.81-12.79-2.19-15.58-7.74-2.96-5.89-3.48-12.89-3.93-17.08-.03-.3,3.2-1.09,3.16-1.42-.29-.2.9-2.81.63-2.98-3.38-2.25-7.98-4.06-11.76-9.1-2.43-3.24-3.77-8.39-7.29-12.02-.68-.7-8.3-.07-7.63-.78,13.69-14.58,17.31-11.1,32.33-24.31.71-.62-3.1,2.83-2.44,3.51,3.94,4.06,10.32,5.9,14.14,10.9.54.42,3.9-1.85,4.69-1.32,2.34,1.56,5.5,2.67,8.44,5.56,3.13.15,5.69,2.34,8.74,3.93,5.9,3.08,10.51,8.76,14.47,13.59,2.02,2.46,5.69,2.89,7.59,4.64.32.3-2.93,5.05-2.74,5.21.23-.02,1.14.32,1.54.27,1.35-.19,2.29-2.23,3.53-2.26.62-.68,1.73-.64,2.35-1.31,1.54-1.67,3.38-3.04,4.83-4.68,5.6-6.32,13.34-7.01,17.92-8.42.57-1.29,1.57-4.48,1.96-5.5,1.68-4.37,1.81-9.51,5.74-13.44,5.9-5.91,3.36-12.47,11.68-13.22,8.32-.76,4.87,9.22,11.74,13.97,5.26,3.64,9.07,6.53,9.86,12.91,1.33,10.85-4.64,19.18-11.55,27.23-.16.41,2.65,2.59,2.5,2.99-1.43,3.89-3.7,10.01-8.77,15.19,2.01,2.44,3.54,3.09,4.76,5.03.32.51-.33,1.23,0,1.74,3.3,1.99,6.37,3.87,8.73,5.63,1.63,1.22,4.66.12,5.57.57,2.27,1.14,1.49,6.01,3.83,6.09,1.22.04,2.16,3.71,3.84,3.93,15.51,2.06,26.56-15.38,33.18-1.21,6.62,14.18-9.47,14.23-17.85,27.44-1.52,2.4-2.49,4.75-3.86,7.06-.91,1.53,1.07,4.42.05,6.1-.02.48-5.77-.85-5.78-.4-.17,4.78-2.34,9.63-6.62,16.62-3.56,5.81-6.08,9.38-9.54,11.94-.65.48,4.08,6.13,3.57,6.54-2.37,3.71-11.28,1.78-13.46,4.18-1.2,1.32-2.35,3.94-2.83,4.74-1.29,2.18,3.27,7.79,1.93,10.34-1.13,2.16-4.01,3.37-5.28,5.64-.05.56-2.59.27-2.63.84-.23,3.48,2.65,9.01.66,14.14-1.61,7.15.34,8.99-4.91,14.09-4.4,4.28-6.37.18-12.51.3-.52.43-1.14-.02-1.61.37-.76.62-1.2,1.89-1.69,2.35-1.77,2.8-3.13,5.63-4.88,8.07-1.39,1.95-7.49,1.04-8.62,2.78-.19.65,4.23,4.13,4.04,5.03-.87,3.95-4.79,7.99-8.14,13.37-3.81,6.11-4.3,15.23-7.83,17.59-.55.37-.76-1.01-1.26-.66-1.47,2.31-2.62,4.51-4.06,6.64-.89,1.32-4.29.72-5.11,1.97.01.24,3.11-.4,3.12-.19.27,5-7.63,11.05-12.5,18.85-4.59,7.37-6.86,14.27-11.39,16.46-.08.04,3.82.9,3.74.94-.48,1.31-1.65,2.3-2.06,3.5-1.68,4.96-8.21,12.35-10.97,16.78ZM1181.27,268.96s.02,7.74.04,7.75c-.01,0-.02-7.74-.04-7.75ZM1028.84,264.45l4.03,3.7c0-1.85-4.03-3.7-4.03-3.7ZM1030.9,263.58c.35.01-2.55,6.1-2.24,6.11,2.57.1,5.42-7.18,8.71-6.65.31-.9,4.99,1.25,5.19.42-.36-1.09-1.15-4.25-1.69-5.51-1.2-2.81-5.63-2.5-6.63-6.19,6.84-3.79,6.8-3.08,14.2-5.64-.51-.94-.69-2.28-1.06-3.3-3.58-9.77-4.27-19.47-2.49-24.67.18-.53,6.56-.12,6.72-.63-.35-6.24-4.95-12.06-4.57-17.88.22-3.42,6.13-6.02,6.52-9.08.34-2.64-4.91-5.7-4.77-7.96.09-1.44-.85-3.71-1.23-6.19-.33-2.14-2.82-4.12-3.06-6.65-.32-.71.51-.98,0-1.91-.15-.29,3.16-3.38,3-3.68-1.3.06-2.74-2.11-3.85-2.09-.48,0-1.46,2.52-1.97,2.53-.62.75-2.82.99-3.43,1.79-1.38,1.82,1.69,7.82-.26,9.95-1.76,1.92-8.32-1.28-9.82.11-1.05.98-3.39,2.84-3.83,3.42-1.71,3.13-1.05,7.17-2.62,9.26-.71.95-4.5,1.35-4.89,2-.47,1.7,4.18,5.75,3.87,8.3-.21,1.7-6.39,2.94-6.68,4.78.12.61,2.18,2.37,2.34,3.07.78,3.38,6.16,7.58,5.83,13-.08,1.22,0,1.22-.07,2.44-.38,5.9.52,10.5,1.07,15.23.75,6.46,1.85,10.01,3.67,14.22,1.35,3.12-.52,7.41.32,10.09.3.96,3.36.23,3.72,1.31ZM1024.73,261.69s0,7.73,0,7.73c0,0,0-7.73,0-7.73ZM1197.44,232.38s0,7.74.01,7.74c0,0,0-7.74-.01-7.74ZM1388.26,215.55c.17.53-7.06,3.19-6.89,3.69.52,1.53,8.24,1.19,8.76,3.28.02-.02.08,3.2.1,3.18,1.54-2.16,3.41-4.25,4.6-6.16,3.29-5.28,5.07-9.49,8.17-12.01.32-.26-.35-2.04,0-2.33.76-2.29,2.03-4.97,4.03-7.52.62-3.12-1.68-8.46.29-11.84,1.19-2.05,7.91-1.22,9.16-3.59,1.52-2.89-1.23-8.26.59-11.34,2.55-4.3,9.91-4.25,12.33-6.91,1.25-1.38-1.72-6.37-1.23-7.18,3.57-5.93,8.63-10.54,12.13-13.13.09-.06-3.08,1.72-2.99,1.65.09-2.72,1.51-4.74,2.38-8.52-2.59-1.6-.7-5.29-2.82-6.87-2.12-1.58-3.19-5.06-4.94-6.03-7.11-3.93-11.83-7.77-14.4-11.87-.22-.36.04-2.4-.23-2.81-.64-.14-3.31,5.39-3.92,5.27-.52-.1-.7-6.95-1.27-7.07-.11.19-2.93,1.71-3.05,1.9-1.46,2.47-.53,6.74-2.64,9.47-5.31,6.89-9.46,8.77-9.48,8.8-7.73,16.65-4.16,18.22-10.69,35.38,1.02,4.65-5.18,8.2-5.48,12.24-.16,2.17,1.47,4.87,1.54,6.72.05.56,4.82,1.79,5.12,3,.94,3.73,2.24,8.87,2.16,14.29-.1,6.99-.68,13.7-1.79,17.57-.03.12.46-1.39.42-1.26ZM1205.07,219.35s0,7.73-.01,7.74c0,0,0-7.73.01-7.74ZM1347.66,195.19l4.03,3.7c0-1.85-4.03-3.7-4.03-3.7ZM1212.07,130.21c-1.98.53-8.24-4.59-10.88-2-3.16,3.1-.43,13.2-2.08,19.16-.18.71-7.63,1.76-7.7,3.31-.14,2.96-.53,5.93-1.35,9.88-.43,2.06,1.44,4.48.99,6.39-.73,3.1.31,6.45-.05,9.01-.45,3.15-.81,6.71-1.08,10.23,1.74-.77,2.93-4.97,5-5.46.65-.35,4.71,4.31,5.74,3.57,1.97-1.42,1.74-7.31,4.71-8.95,2.79-1.54,7.6,2.49,9.63,1.69.47-.18-1.6-5.27-1.14-5.46.56-.65.48-1.41,1.05-2.05.99-1.12.01-3.18.81-4.22-.02-.22.37,2.56.35,2.36-.36-3.09,3.89-7.6,4.6-12.47.27-1.84,2.71-2.99,3-4.41.18-.91-1.91-2.91-1.82-3.59-1.27-4.02-1.54-9.09-3.65-13.89-1.1-2.5-7.39-2.16-8.15-4.53-.69-.16,2.52,1.51,2.04,1.43ZM1027.48,177.82s0,7.73,0,7.74c0,0,0-7.73,0-7.74ZM1342.66,174.02s2.11-5.04,2.11-5.04c-1.74.63-2.11,5.05-2.11,5.04ZM1040.58,161.69l4.03,3.7c0-1.85-4.03-3.7-4.03-3.7ZM1342.5,158.55l4.03,3.7c0-1.85-4.03-3.7-4.03-3.7ZM1210.88,122.8l4.03,3.7c0-1.85-4.03-3.7-4.03-3.7ZM1351.12,92.43l4.03,3.7c0-1.85-4.03-3.7-4.03-3.7ZM1336.69,62.22l4.03,3.7c0-1.85-4.03-3.7-4.03-3.7ZM1334.66,58.87l4.03,3.7c0-1.85-4.03-3.7-4.03-3.7ZM1422.22,48.53s-4.03-3.7-4.03-3.7c0,1.85,4.03,3.7,4.03,3.7Z"/>
      <path class="cls-1" d="M1359.28,350.34c-19.05-5.07-16.32-12.55-33.63-21.98.99-4.49-2.38-6.79-.7-11.31.79-2.12,9.16-3.36,9.49-4.64.03-.68.25-3.41.15-4.59-.32-3.6-3.15-7.71-1.98-13.12,1.09-5.04.29-10.2,1.19-14.83.17-.87.29-.85.46-1.73.37-1.89-3.33-4.48-3.13-7.1.21-2.78,6.74-5.23,7.28-8.63,1.29-8.08,1.51-15.33,4.56-18.93.23-.28,5.43,1.6,5.69,1.29.4-2.3-4.54-5.78-4.08-7.76.43-1.87.26-3.33.53-4.95-.14-.44-2.22.81-2.36.4-1.38-4.02-2.59-11.97-2-19.28.26-3.23,5.8-5.41,6.57-8.08.6-2.07,3.49-4.72,3.55-6.34-.08-.72-2.91-2.66-3.2-3.84-.8-3.19-.21-7.05-.39-11.57-.17-4.15-5.97-8.04-5.75-11.03.05-.65,6.8-2.02,6.84-2.68-1.06-2.92-2.9-8.27-4.04-10.13-.85-.34-4.5,1.07-5.47.73-2.9-1.02-5.98-5.16-9.56-7.09-2.19.99-4.97,7.11-8.19,7.99-1.64.45-5.81-4.6-7.31-4.38-.24.78-.7,4.44-1,5.26-1.71,4.71,1.22,9.06.45,10.9-.22.54-.33.96-.43,1.25-.21.96.61,4.23.08,8.07-.03.24.23.27.2.51-1.08,7.92-8.3,13.28-11.02,16.98-.8,1.09-5.06.56-5.38,1.21-2.43,4.84-2.85,10-5.54,13.95-.09.13-.72.39-.82.53-.02.27-1.67.7-1.69.94-.28,4.73-1.86,9.84-7.19,16.89-2.3,3.04,1.46,10.64-.64,12.98-1.51,1.69-8.95-1.63-10-.26-1.04,1.34,1.9,6.36.81,8.47-1.19,2.32-2.8,4.8-4.59,7.43-6.01,8.84-15.4,17.9-22.59,20.4-9.84,3.42-18.15-6.87-22.18-8.83-3.84-.2-8.21-2.08-11.9-2.34-4.43-.31-9.04,6.37-13.22,6.19-.48-.02-.84-1.28-1.28-1.28-.02,0-.04.13-.06.13-3.13,0-6.77-4.45-12.78-7.06-.34-.11-3.86,7.57-4.43,7.42-4.77-1.33-17.74-5.98-23.29-15.85-4.75-8.45-2.59-19.92-4.06-28.68-4.81-1-9.43-5.77-13.74-9.37-2.25,3.83-3.41,10.38-5.46,12.69-.64.72-5.45-.99-5.87-.44-.43,1.01,1.58,3.71,1.09,5.09-2.13,6.02-5.5,14.78-14.4,20.73-5.25,3.51-19.79,16.19-35.56,13.1,0,.05-.18-4.59-.19-4.55-1.65,9.6-1.35,22.46-7.53,31.39-2.15,3.1-10.63,11.48-19.81,14.49-4.17,1.37-16.43,2.12-25.09-7.18-6.69-.28-12.45-6.7-20.89-14.72-7.4-7.03-15.2-11.92-17.19-18.33-.59-1.89,2.09-4.84,1.59-6-3.4-7.89-9.8-15.15-11.01-25.56-.96-8.3,5.08-15.92,5.54-23.1.06-.91-4.65-1.08-4.65-1.99-.09-.58,1.38-1.52,1.19-2.34-.92-3.96-2.61-10.22-1.44-17.07.23-1.33-3.23-3.3-3.02-4.96.54-4.39,7.66-8.17,9.36-13.45,2-6.24,1.36-13.13,3.91-16.52.8-1.07,5.53.07,5.84-.51,3.25-6.01,2.75-14.41,5.93-17.36,1.03-.96,4.43.87,5.09.14.71-.78,2.21-1.38,3.15-2.63,3.12-4.11,9.88-5.61,16.93-9.66,7.03-4.04,12.21-3.35,17.21-3.46.43-.42,2.92-2.94,3.41-3.36,6.39-5.41,12.05-9.62,19.51-6.74,13.18,5.09,19.03,17.34,19.82,22.27.05.31-5.29,1.93-5.24,2.23.35.77-.52,2.99.04,4.02,2.32,4.3,11.28,8.24,11.87,15.94.11,1.36,1.74,2.71,2.03,4.57.65,4.27-2.68,10.17-3.04,15.92-.22,3.52-1.84,6.6-2.24,9.74-.33,2.58,5.35,5.5,5.2,7.71-.34,5.23-8.26,9.52-7.94,13.86.18,2.49,3.51,4.57,3.17,6.72.45.34.59.65,1.02,1.04.16.14.45.43.61.58.68-1.87,6.03-1.74,7.03-3.87,2.27-4.84.43-10.85,2.96-13.71.6-.68,3.99-.69,4.53-1.35.32-2.19.98-5.57,1.12-8.52.11-2.48-6.93-5.51-6.69-8.18.03-.81,3.92-3.02,3.57-4.69-.71-3.44,1.21-7.69,1.24-12.45.01-2.75-1.47-6.57-2.09-9.86-.5-2.65-3.12-5.02-3.38-7.81,18.89-5.93,20.7-.09,39.45-6.44-1.34-3.38-7.05-4.89-7.26-5.08.24.23,7.04-5.94,7.59-5.47,4.18,3.54,7.57,13.39,11.63,22.29.88,1.94-.49-.08-.09,1.8.49-2.46,6.72-.3,7.23-2.48.41-1.75-3.84-4.45-3.52-6.02.17-.84,3.36-2.32,3.43-3.95.17-3.67-4.84-9.28-3.47-14.23,1.7-6.17,13.53-17.66,25.32-29.21,8.41-8.24,15.52-18.59,26.12-20.39,7.49-1.27,14.87-.03,20.16,1.27,2.33.58,3.6,7.27,5.48,7.47,6.78.7,10.06-8.58,15.27-4.18s-3.94,9.33-2.12,15.9c.34,1.24,3.64,1.67,3.98,2.96.96,3.66,7.53,4.89,8.75,7.65,2.85,6.47,1.62,13.99,3.38,19.66,2.83,9.14,4.16,17.64,3.16,22.66-.17.88-4.54.96-4.66,1.71.03.51-2.32,1.86-2.24,2.57.52,4.39,5.74,11.87,2.43,19.68-2.94,6.94-11.39,8.67-14.83,12.57-.68.77.43,3.17-.23,3.95-5.57,6.66-9.41,14.2-13.76,15.92-1.05.42-4.97-5.4-5.49-5.11-.87.48.15,4.96-1.12,5.88-3.81,2.74-11.37.04-18.69,1.92-.6.38-2.21,3.23-2.96,3.76-2.96,2.12-3.11,10.5-8.16,12.32.24,1.1,1.74-3.17,2.04-2.13.93.28-1.4,4.58-.36,4.97.05,0,.57.07.61.07,1,0,2.06-2.34,3.15-2.29,4.71.2,9.11,4.34,13.6,4.65,4.43.31,8.62,1.94,12.8,2.12,3.39.15,6.46-1.87,8.9-.95.42-.73,2.34-2.52,2.85-3.53,1.69-3.29-.94-10.72,2.36-14.98,1.93-2.49,3.8-5.22,5.71-7.35.95-1.06,1.39-1.98,2.24-2.97,0-.13,6.37,3,6.37,2.88.28-4.66-2.18-12.22,2.32-18.92.68-1.02-.01-2.95.65-3.93,2.13-3.13,2.69-6.12,3.91-8.57,1.84-3.66,7.98-4.38,9.54-6.5.25-.34,2.74-.83,3-1.2,1.31-9.54-3.21-12.92-.66-19.08.67-1.61-1.29-4.75.12-8.64.35-.96,1.22-1.1,1.46-2.71.65-4.35,8.82-8.6,15.89-14.78,7.51-6.56,13.22-5.51,17.41-5.29.84.04,3.42,1.23,3.86,1.19,1.95-.55.85-7.08,2.25-7.92,12.87-7.67,22.81-2.78,33.52,4.14.67.41,4.41-2.53,5.88-2.02,3.1,1.09,5.03,6.98,8.83,9.2-.39-.45-1.04-1.58-1.4-1.99-2.54-2.88-8.35-6.21-10.8-11.54-3.22-6.98,4.68-15.33,4.74-19.86,0-.3-2.04-1.99-2.04-2.32-.41-.41-.43-2.42-.81-2.79-2.88-2.81-12.79-2.19-15.58-7.74-2.96-5.89-3.48-12.89-3.93-17.08-.03-.3,3.2-1.09,3.16-1.42-.29-.2.9-2.81.63-2.98-3.38-2.25-7.98-4.06-11.76-9.1-2.43-3.24-3.77-8.39-7.29-12.02-.68-.7-8.3-.07-7.63-.78,13.69-14.58,17.31-11.1,32.33-24.31.71-.62-3.1,2.83-2.44,3.51,3.94,4.06,10.32,5.9,14.14,10.9.54.42,3.9-1.85,4.69-1.32,2.34,1.56,5.5,2.67,8.44,5.56,3.13.15,5.69,2.34,8.74,3.93,5.9,3.08,10.51,8.76,14.47,13.59,2.02,2.46,5.69,2.89,7.59,4.64.32.3-2.93,5.05-2.74,5.21.23-.02,1.14.32,1.54.27,1.35-.19,2.29-2.23,3.53-2.26.62-.68,1.73-.64,2.35-1.31,1.54-1.67,3.38-3.04,4.83-4.68,5.6-6.32,13.34-7.01,17.92-8.42.57-1.29,1.57-4.48,1.96-5.5,1.68-4.37,1.81-9.51,5.74-13.44,5.9-5.91,3.36-12.47,11.68-13.22,8.32-.76,4.87,9.22,11.74,13.97,5.26,3.64,9.07,6.53,9.86,12.91,1.33,10.85-4.64,19.18-11.55,27.23-.16.41,2.65,2.59,2.5,2.99-1.43,3.89-3.7,10.01-8.77,15.19,2.01,2.44,3.54,3.09,4.76,5.03.32.51-.33,1.23,0,1.74,3.3,1.99,6.37,3.87,8.73,5.63,1.63,1.22,4.66.12,5.57.57,2.27,1.14,1.49,6.01,3.83,6.09,1.22.04,2.16,3.71,3.84,3.93,15.51,2.06,26.56-15.38,33.18-1.21,6.62,14.18-9.47,14.23-17.85,27.44-1.52,2.4-2.49,4.75-3.86,7.06-.91,1.53,1.07,4.42.05,6.1-.02.48-5.77-.85-5.78-.4-.17,4.78-2.34,9.63-6.62,16.62-3.56,5.81-6.08,9.38-9.54,11.94-.65.48,4.08,6.13,3.57,6.54-2.37,3.71-11.28,1.78-13.46,4.18-1.2,1.32-2.35,3.94-2.83,4.74-1.29,2.18,3.27,7.79,1.93,10.34-1.13,2.16-4.01,3.37-5.28,5.64-.05.56-2.59.27-2.63.84-.23,3.48,2.65,9.01.66,14.14-1.61,7.15.34,8.99-4.91,14.09-4.4,4.28-6.37.18-12.51.3-.52.43-1.14-.02-1.61.37-.76.62-1.2,1.89-1.69,2.35-1.77,2.8-3.13,5.63-4.88,8.07-1.39,1.95-7.49,1.04-8.62,2.78-.19.65,4.23,4.13,4.04,5.03-.87,3.95-4.79,7.99-8.14,13.37-3.81,6.11-4.3,15.23-7.83,17.59-.55.37-.76-1.01-1.26-.66-1.47,2.31-2.62,4.51-4.06,6.64-.89,1.32-4.29.72-5.11,1.97.01.24,3.11-.4,3.12-.19.27,5-7.63,11.05-12.5,18.85-4.59,7.37-6.86,14.27-11.39,16.46-.08.04,3.82.9,3.74.94-.48,1.31-1.65,2.3-2.06,3.5-1.68,4.96-8.21,12.35-10.97,16.78ZM1181.27,268.96s.02,7.74.04,7.75c-.01,0-.02-7.74-.04-7.75ZM1028.84,264.45l4.03,3.7c0-1.85-4.03-3.7-4.03-3.7ZM1030.9,263.58c.35.01-2.55,6.1-2.24,6.11,2.57.1,5.42-7.18,8.71-6.65.31-.9,4.99,1.25,5.19.42-.36-1.09-1.15-4.25-1.69-5.51-1.2-2.81-5.63-2.5-6.63-6.19,6.84-3.79,6.8-3.08,14.2-5.64-.51-.94-.69-2.28-1.06-3.3-3.58-9.77-4.27-19.47-2.49-24.67.18-.53,6.56-.12,6.72-.63-.35-6.24-4.95-12.06-4.57-17.88.22-3.42,6.13-6.02,6.52-9.08.34-2.64-4.91-5.7-4.77-7.96.09-1.44-.85-3.71-1.23-6.19-.33-2.14-2.82-4.12-3.06-6.65-.32-.71.51-.98,0-1.91-.15-.29,3.16-3.38,3-3.68-1.3.06-2.74-2.11-3.85-2.09-.48,0-1.46,2.52-1.97,2.53-.62.75-2.82.99-3.43,1.79-1.38,1.82,1.69,7.82-.26,9.95-1.76,1.92-8.32-1.28-9.82.11-1.05.98-3.39,2.84-3.83,3.42-1.71,3.13-1.05,7.17-2.62,9.26-.71.95-4.5,1.35-4.89,2-.47,1.7,4.18,5.75,3.87,8.3-.21,1.7-6.39,2.94-6.68,4.78.12.61,2.18,2.37,2.34,3.07.78,3.38,6.16,7.58,5.83,13-.08,1.22,0,1.22-.07,2.44-.38,5.9.52,10.5,1.07,15.23.75,6.46,1.85,10.01,3.67,14.22,1.35,3.12-.52,7.41.32,10.09.3.96,3.36.23,3.72,1.31ZM1024.73,261.69s0,7.73,0,7.73c0,0,0-7.73,0-7.73ZM1197.44,232.38s0,7.74.01,7.74c0,0,0-7.74-.01-7.74ZM1388.26,215.55c.17.53-7.06,3.19-6.89,3.69.52,1.53,8.24,1.19,8.76,3.28.02-.02.08,3.2.1,3.18,1.54-2.16,3.41-4.25,4.6-6.16,3.29-5.28,5.07-9.49,8.17-12.01.32-.26-.35-2.04,0-2.33.76-2.29,2.03-4.97,4.03-7.52.62-3.12-1.68-8.46.29-11.84,1.19-2.05,7.91-1.22,9.16-3.59,1.52-2.89-1.23-8.26.59-11.34,2.55-4.3,9.91-4.25,12.33-6.91,1.25-1.38-1.72-6.37-1.23-7.18,3.57-5.93,8.63-10.54,12.13-13.13.09-.06-3.08,1.72-2.99,1.65.09-2.72,1.51-4.74,2.38-8.52-2.59-1.6-.7-5.29-2.82-6.87-2.12-1.58-3.19-5.06-4.94-6.03-7.11-3.93-11.83-7.77-14.4-11.87-.22-.36.04-2.4-.23-2.81-.64-.14-3.31,5.39-3.92,5.27-.52-.1-.7-6.95-1.27-7.07-.11.19-2.93,1.71-3.05,1.9-1.46,2.47-.53,6.74-2.64,9.47-5.31,6.89-9.46,8.77-9.48,8.8-7.73,16.65-4.16,18.22-10.69,35.38,1.02,4.65-5.18,8.2-5.48,12.24-.16,2.17,1.47,4.87,1.54,6.72.05.56,4.82,1.79,5.12,3,.94,3.73,2.24,8.87,2.16,14.29-.1,6.99-.68,13.7-1.79,17.57-.03.12.46-1.39.42-1.26ZM1205.07,219.35s0,7.73-.01,7.74c0,0,0-7.73.01-7.74ZM1347.66,195.19l4.03,3.7c0-1.85-4.03-3.7-4.03-3.7ZM1212.07,130.21c-1.98.53-8.24-4.59-10.88-2-3.16,3.1-.43,13.2-2.08,19.16-.18.71-7.63,1.76-7.7,3.31-.14,2.96-.53,5.93-1.35,9.88-.43,2.06,1.44,4.48.99,6.39-.73,3.1.31,6.45-.05,9.01-.45,3.15-.81,6.71-1.08,10.23,1.74-.77,2.93-4.97,5-5.46.65-.35,4.71,4.31,5.74,3.57,1.97-1.42,1.74-7.31,4.71-8.95,2.79-1.54,7.6,2.49,9.63,1.69.47-.18-1.6-5.27-1.14-5.46.56-.65.48-1.41,1.05-2.05.99-1.12.01-3.18.81-4.22-.02-.22.37,2.56.35,2.36-.36-3.09,3.89-7.6,4.6-12.47.27-1.84,2.71-2.99,3-4.41.18-.91-1.91-2.91-1.82-3.59-1.27-4.02-1.54-9.09-3.65-13.89-1.1-2.5-7.39-2.16-8.15-4.53-.69-.16,2.52,1.51,2.04,1.43ZM1027.48,177.82s0,7.73,0,7.74c0,0,0-7.73,0-7.74ZM1342.66,174.02s2.11-5.04,2.11-5.04c-1.74.63-2.11,5.05-2.11,5.04ZM1040.58,161.69l4.03,3.7c0-1.85-4.03-3.7-4.03-3.7ZM1342.5,158.55l4.03,3.7c0-1.85-4.03-3.7-4.03-3.7ZM1210.88,122.8l4.03,3.7c0-1.85-4.03-3.7-4.03-3.7ZM1351.12,92.43l4.03,3.7c0-1.85-4.03-3.7-4.03-3.7ZM1336.69,62.22l4.03,3.7c0-1.85-4.03-3.7-4.03-3.7ZM1334.66,58.87l4.03,3.7c0-1.85-4.03-3.7-4.03-3.7ZM1422.22,48.53s-4.03-3.7-4.03-3.7c0,1.85,4.03,3.7,4.03,3.7Z"/>
    </g>
  </g>
</svg>