<?xml version="1.0" encoding="UTF-8"?>
<svg id="Layer_1" data-name="Layer 1" xmlns="http://www.w3.org/2000/svg" xmlns:xlink="http://www.w3.org/1999/xlink" viewBox="0 0 1920 1080">
  <defs>
    <style>
      .cls-1 {
        stroke-width: 3px;
      }

      .cls-1, .cls-2 {
        fill: none;
        stroke: #8b8332;
        stroke-miterlimit: 10;
      }

      .cls-2 {
        stroke-width: 2.98px;
      }

      .cls-3 {
        opacity: .9;
      }

      .cls-4, .cls-5, .cls-6 {
        stroke-width: 0px;
      }

      .cls-5 {
        fill: #d0dbdc;
      }

      .cls-6 {
        fill: #8b8332;
      }
    </style>
    <symbol id="Anchor_2" data-name="Anchor 2" viewBox="0 0 15 15">
      <g>
        <path class="cls-6" d="M7.5,13c-1.47,0-2.85-.57-3.89-1.61-1.04-1.04-1.61-2.42-1.61-3.89s.57-2.85,1.61-3.89c1.04-1.04,2.42-1.61,3.89-1.61s2.85.57,3.89,1.61c1.04,1.04,1.61,2.42,1.61,3.89s-.57,2.85-1.61,3.89c-1.04,1.04-2.42,1.61-3.89,1.61Z"/>
        <path class="cls-6" d="M7.5,4c.93,0,1.81.36,2.48,1.03s1.02,1.54,1.02,2.47-.36,1.81-1.03,2.47c-.66.66-1.54,1.02-2.47,1.02s-1.81-.36-2.47-1.02c-.66-.66-1.03-1.54-1.03-2.47s.36-1.81,1.03-2.48,1.54-1.02,2.47-1.02M7.5,0c-1.92,0-3.84.73-5.3,2.2-2.93,2.93-2.93,7.68,0,10.61,1.46,1.46,3.38,2.2,5.3,2.2s3.84-.73,5.3-2.2c2.93-2.93,2.93-7.68,0-10.61-1.46-1.46-3.38-2.2-5.3-2.2h0Z"/>
      </g>
    </symbol>
  </defs>
  <g>
    <use width="15" height="15" transform="translate(1166.63 161.86)" xlink:href="#Anchor_2"/>
    <use width="15" height="15" transform="translate(1141.68 157.06)" xlink:href="#Anchor_2"/>
    <use width="15" height="15" transform="translate(1280.4 39.52)" xlink:href="#Anchor_2"/>
    <use width="15" height="15" transform="translate(1280.4 50.4)" xlink:href="#Anchor_2"/>
    <use width="15" height="15" transform="translate(1217.89 79.57)" xlink:href="#Anchor_2"/>
    <use width="15" height="15" transform="translate(1292.87 122.43)" xlink:href="#Anchor_2"/>
    <use width="15" height="15" transform="translate(1242.72 171.2)" xlink:href="#Anchor_2"/>
    <use width="15" height="15" transform="translate(1196.82 141.96)" xlink:href="#Anchor_2"/>
    <use width="15" height="15" transform="translate(1169.72 96.11)" xlink:href="#Anchor_2"/>
    <use width="15" height="15" transform="translate(1197.64 54.52)" xlink:href="#Anchor_2"/>
    <use width="15" height="15" transform="translate(1231.63 42.31)" xlink:href="#Anchor_2"/>
    <use width="15" height="15" transform="translate(1126.16 124.07)" xlink:href="#Anchor_2"/>
    <use width="15" height="15" transform="translate(1141.68 122.51)" xlink:href="#Anchor_2"/>
    <use width="15" height="15" transform="translate(1110.84 126.96)" xlink:href="#Anchor_2"/>
    <use width="15" height="15" transform="translate(1098.4 118.65)" xlink:href="#Anchor_2"/>
    <use width="15" height="15" transform="translate(1079.85 103.61)" xlink:href="#Anchor_2"/>
    <use width="15" height="15" transform="translate(1055.78 113.62)" xlink:href="#Anchor_2"/>
    <use width="15" height="15" transform="translate(1060.45 121.95)" xlink:href="#Anchor_2"/>
    <use width="15" height="15" transform="translate(1058.24 122.7)" xlink:href="#Anchor_2"/>
    <use width="15" height="15" transform="translate(1036.62 151.99)" xlink:href="#Anchor_2"/>
    <use width="15" height="15" transform="translate(1062.13 159.48)" xlink:href="#Anchor_2"/>
    <use width="15" height="15" transform="translate(1093.41 178.7)" xlink:href="#Anchor_2"/>
    <use width="15" height="15" transform="translate(1121.4 188.5)" xlink:href="#Anchor_2"/>
    <use width="15" height="15" transform="translate(1095.48 197.5)" xlink:href="#Anchor_2"/>
    <use width="15" height="15" transform="translate(1242.72 228.94)" xlink:href="#Anchor_2"/>
    <use width="15" height="15" transform="translate(1204.32 197.5)" xlink:href="#Anchor_2"/>
    <use width="15" height="15" transform="translate(1166.63 196)" xlink:href="#Anchor_2"/>
    <use width="15" height="15" transform="translate(1260.13 294.25)" xlink:href="#Anchor_2"/>
    <use width="15" height="15" transform="translate(1336.82 212.5)" xlink:href="#Anchor_2"/>
    <use width="15" height="15" transform="translate(1277.87 231.73)" xlink:href="#Anchor_2"/>
    <use width="15" height="15" transform="translate(1415.93 267.31)" xlink:href="#Anchor_2"/>
    <use width="15" height="15" transform="translate(1380.47 161.71)" xlink:href="#Anchor_2"/>
    <use width="15" height="15" transform="translate(1419.93 117.72)" xlink:href="#Anchor_2"/>
    <use width="15" height="15" transform="translate(1390 58.1)" xlink:href="#Anchor_2"/>
    <use width="15" height="15" transform="translate(1366.21 30.08)" xlink:href="#Anchor_2"/>
    <use width="15" height="15" transform="translate(1312.51 15.66)" xlink:href="#Anchor_2"/>
    <use width="15" height="15" transform="translate(1102.98 158.85)" xlink:href="#Anchor_2"/>
    <use width="15" height="15" transform="translate(1107.84 157.06)" xlink:href="#Anchor_2"/>
    <use width="15" height="15" transform="translate(1104.69 162.58)" xlink:href="#Anchor_2"/>
  </g>
  <g>
    <path class="cls-4" d="M1378.46,978.9l.07.07s0,0,.01-.01c0,0-.09-.05-.09-.06Z"/>
    <path class="cls-4" d="M1374.38,975.92s-.04.03-.06.05c0,.01,0,.02,0,.04l.06-.08Z"/>
    <path class="cls-4" d="M1385.42,976.95s0,.01,0,.02c0,0,0-.01,0-.02h-.01Z"/>
  </g>
  <g>
    <path class="cls-6" d="M1110.74,202.63v-10.87c0-.32,0-.65.01-1,0-.34.02-.71.04-1.09-.54.53-1.16.98-1.86,1.36-.7.38-1.41.64-2.15.8l-.48-2.23c.34-.05.73-.16,1.18-.34.45-.18.91-.4,1.39-.67.48-.27.92-.56,1.32-.88.4-.31.71-.62.94-.92h2.16v15.84h-2.54Z"/>
    <path class="cls-6" d="M1108.47,197.1v-1.87c1.52-1.09,2.8-2.05,3.83-2.88,1.03-.83,1.86-1.6,2.48-2.3.62-.7,1.08-1.37,1.36-2,.28-.63.42-1.28.42-1.93,0-.85-.26-1.54-.79-2.06-.53-.53-1.26-.79-2.21-.79-.99,0-1.78.33-2.36,1-.58.66-.92,1.57-1,2.72l-2.23-1.03c.11-1.01.41-1.88.89-2.62.48-.74,1.13-1.3,1.96-1.7s1.78-.6,2.87-.6c.89,0,1.68.13,2.36.38s1.25.61,1.72,1.07.82.99,1.07,1.6c.25.61.37,1.26.37,1.94,0,1.01-.25,1.98-.74,2.92s-1.28,1.89-2.35,2.87c-1.07.98-2.48,2.02-4.22,3.14v.05c.19-.03.46-.05.79-.06.34,0,.67-.02,1.01-.02.34,0,.61-.01.82-.01h4.99v2.21h-11.02Z"/>
    <path class="cls-6" d="M1108.98,199.14c-1.49,0-2.78-.33-3.88-1-1.1-.66-1.84-1.6-2.24-2.8l2.5-1.18c.14.58.37,1.07.67,1.49.3.42.7.73,1.2.95s1.11.32,1.85.32c.62,0,1.15-.11,1.58-.34.43-.22.76-.54,1-.94.23-.4.35-.86.35-1.37s-.1-.97-.3-1.32c-.2-.35-.51-.61-.94-.77s-.96-.24-1.62-.24c-.19,0-.39,0-.59.01-.2,0-.41.03-.64.06v-2.16c.14.02.28.03.42.04.14,0,.27.01.4.01,1.04,0,1.78-.21,2.23-.62.45-.42.67-1.06.67-1.94,0-.75-.23-1.33-.68-1.73-.46-.4-1.11-.6-1.96-.6s-1.56.2-2.05.61c-.49.41-.86,1-1.12,1.76l-2.35-.98c.22-.74.6-1.38,1.13-1.92.53-.54,1.18-.96,1.96-1.26.78-.3,1.63-.44,2.56-.44,1.14,0,2.08.18,2.84.55s1.33.87,1.7,1.51c.38.64.56,1.35.56,2.14,0,.61-.09,1.14-.26,1.6s-.41.85-.71,1.18-.62.58-.96.76c-.34.18-.69.3-1.04.36v.05c.46.02.89.11,1.28.28.39.17.74.4,1.06.7.31.3.56.65.73,1.07.18.42.26.87.26,1.37,0,.96-.24,1.8-.72,2.52-.48.72-1.14,1.28-1.98,1.68-.84.4-1.81.6-2.92.6Z"/>
    <path class="cls-6" d="M1319.83,55.7v-3.96h-7.73v-1.75c.03-.08.08-.18.16-.29.07-.11.16-.24.25-.38l6.6-9.46h3.14v9.89h2.69v1.99h-2.69v3.96h-2.42ZM1314.5,49.75h5.33v-5.59c0-.38.01-.78.04-1.19.03-.41.04-.81.06-1.21h-.05c-.18.38-.4.8-.68,1.26-.28.46-.54.85-.78,1.19l-3.74,5.33s-.06.06-.08.1-.05.07-.08.12Z"/>
    <path class="cls-6" d="M1372.12,70.36c-1.41,0-2.56-.3-3.47-.91-.9-.61-1.62-1.49-2.15-2.64l2.4-1.25c.24.77.6,1.4,1.09,1.88s1.21.73,2.17.73c.67,0,1.24-.12,1.72-.37.47-.25.84-.6,1.09-1.06s.38-1,.38-1.64c0-.67-.12-1.23-.36-1.68-.24-.45-.58-.79-1.03-1.02-.45-.23-1.01-.35-1.68-.35-.46,0-.9.05-1.3.14s-.76.24-1.08.44-.6.46-.84.78l-2.11-.41.96-8.74h9.22v2.21h-7.18l-.58,4.46-.05.26h.05c.37-.4.84-.71,1.43-.94.58-.22,1.28-.34,2.08-.34,1.02,0,1.9.21,2.64.64.74.42,1.31,1.01,1.73,1.76s.62,1.62.62,2.62c0,.86-.14,1.63-.43,2.3s-.7,1.24-1.22,1.7c-.53.46-1.14.81-1.84,1.04-.7.23-1.45.35-2.27.35Z"/>
    <path class="cls-6" d="M1396.56,82.06c.85,0,1.6.12,2.26.35.66.23,1.23.6,1.72,1.09.49.5.89,1.14,1.21,1.94l-2.26,1.08c-.22-.69-.58-1.23-1.07-1.63-.49-.4-1.16-.6-2.03-.6-.62,0-1.18.15-1.66.46-.48.3-.89.73-1.22,1.28s-.59,1.2-.77,1.94c-.18.74-.26,1.55-.26,2.41v.43l.1.05c.18-.64.49-1.16.95-1.55.46-.39.97-.68,1.55-.88.58-.19,1.14-.29,1.7-.29,1.06,0,1.98.2,2.76.61.78.41,1.4.99,1.84,1.74.44.75.66,1.65.66,2.69s-.23,1.97-.7,2.75c-.46.78-1.11,1.38-1.93,1.8-.83.42-1.81.64-2.96.64-1.34,0-2.49-.34-3.43-1.01-.94-.67-1.66-1.62-2.16-2.83-.5-1.22-.74-2.64-.74-4.27,0-1.81.28-3.32.85-4.54s1.34-2.13,2.32-2.75,2.07-.92,3.29-.92ZM1396.39,90.29c-.61,0-1.14.12-1.61.37-.46.25-.83.59-1.09,1.02-.26.43-.4.94-.4,1.51s.14,1.06.42,1.51c.28.45.65.8,1.12,1.07.46.26.98.4,1.56.4.98,0,1.74-.26,2.28-.79.54-.53.82-1.26.82-2.18,0-.59-.12-1.11-.36-1.55-.24-.44-.59-.78-1.04-1.01-.46-.23-1.02-.35-1.69-.35Z"/>
    <path class="cls-6" d="M1420.27,141.93h12.07v2.14c-1.33,1.38-2.4,2.79-3.21,4.24-.82,1.45-1.4,2.95-1.76,4.51-.36,1.56-.54,3.21-.54,4.96h-2.59c0-1.76.22-3.48.66-5.15.44-1.67,1.11-3.27,2.02-4.8.9-1.53,2.04-2.96,3.42-4.31l.48.65h-10.54v-2.23Z"/>
    <path class="cls-6" d="M1386.49,185.7c1.07,0,2,.17,2.8.52.79.34,1.4.83,1.84,1.45s.65,1.38.65,2.26c0,.82-.2,1.53-.59,2.15s-.96,1.08-1.72,1.4v.02c.91.34,1.64.84,2.17,1.5s.8,1.48.8,2.46-.24,1.75-.73,2.42-1.18,1.19-2.06,1.56c-.89.37-1.94.55-3.16.55s-2.27-.18-3.16-.55c-.89-.37-1.58-.89-2.08-1.56-.5-.67-.74-1.48-.74-2.42s.26-1.78.79-2.45c.53-.67,1.26-1.18,2.21-1.51v-.02c-.72-.3-1.29-.76-1.7-1.38-.42-.62-.62-1.34-.62-2.17,0-.88.21-1.63.65-2.26.43-.62,1.05-1.11,1.85-1.45.8-.34,1.74-.52,2.81-.52ZM1386.49,199.84c.71,0,1.3-.1,1.8-.31s.88-.51,1.15-.91c.27-.4.41-.86.41-1.39,0-.56-.14-1.04-.42-1.43-.28-.39-.67-.69-1.16-.9s-1.09-.31-1.78-.31-1.26.1-1.78.31-.91.51-1.19.9c-.28.39-.42.87-.42,1.43,0,.53.13.99.41,1.39s.66.7,1.18.91c.51.21,1.11.31,1.8.31ZM1386.49,187.86c-.85,0-1.52.21-2.03.62s-.76.98-.76,1.7.26,1.28.77,1.69,1.18.61,2.02.61,1.5-.2,2-.61c.5-.41.76-.97.76-1.69s-.25-1.29-.74-1.7c-.5-.42-1.17-.62-2.02-.62Z"/>
    <path class="cls-6" d="M1421.63,291.27c1.36,0,2.51.34,3.44,1.01.94.67,1.64,1.62,2.11,2.83.47,1.22.71,2.65.71,4.3,0,1.82-.25,3.34-.74,4.55s-1.21,2.12-2.14,2.72c-.93.61-2.05.91-3.36.91s-2.5-.3-3.46-.89c-.96-.59-1.68-1.48-2.16-2.66l2.42-1.13c.22.75.6,1.35,1.12,1.8.52.45,1.23.67,2.12.67.74,0,1.35-.14,1.85-.43s.89-.7,1.19-1.25c.3-.54.51-1.2.64-1.97.13-.77.19-1.63.19-2.59v-.26h-.1c-.18.64-.49,1.16-.95,1.56-.46.4-.97.69-1.55.88-.58.18-1.15.28-1.73.28-1.02,0-1.93-.2-2.72-.61-.79-.41-1.41-.98-1.86-1.72-.45-.74-.67-1.61-.67-2.62,0-1.1.23-2.06.68-2.86s1.1-1.42,1.94-1.86c.84-.44,1.84-.66,3.01-.66ZM1421.65,293.53c-1.01,0-1.78.27-2.32.82s-.8,1.3-.8,2.28c0,.86.28,1.54.85,2.03.57.49,1.32.73,2.27.73.61,0,1.14-.12,1.61-.37s.83-.59,1.09-1.02c.26-.43.4-.94.4-1.51,0-.61-.13-1.13-.4-1.57-.26-.44-.63-.78-1.09-1.02s-1-.36-1.61-.36Z"/>
    <g>
      <path class="cls-6" d="M1276.38,271.77v-10.87c0-.32,0-.65.01-1,0-.34.02-.71.04-1.09-.54.53-1.16.98-1.86,1.36s-1.41.64-2.15.8l-.48-2.23c.34-.05.73-.16,1.18-.34.45-.18.91-.4,1.39-.67.48-.27.92-.56,1.32-.88s.71-.62.94-.92h2.16v15.84h-2.54Z"/>
      <path class="cls-6" d="M1288.7,272.02c-1.9,0-3.4-.69-4.48-2.08-1.08-1.38-1.62-3.41-1.62-6.08s.54-4.7,1.62-6.08,2.57-2.08,4.48-2.08,3.42.69,4.5,2.08,1.62,3.41,1.62,6.08-.54,4.7-1.62,6.08c-1.08,1.38-2.58,2.08-4.5,2.08ZM1288.7,269.83c.77,0,1.41-.22,1.93-.66.52-.44.91-1.1,1.18-1.99.26-.89.4-2,.4-3.32s-.13-2.44-.4-3.32c-.26-.89-.66-1.55-1.18-1.99s-1.16-.66-1.93-.66-1.41.22-1.93.66c-.52.44-.91,1.1-1.16,1.99-.26.89-.38,2-.38,3.32s.13,2.44.38,3.32c.26.89.64,1.55,1.16,1.99.52.44,1.16.66,1.93.66Z"/>
    </g>
    <g>
      <path class="cls-6" d="M1338.05,252.54v-10.87c0-.32,0-.65.01-1,0-.34.02-.71.04-1.09-.54.53-1.16.98-1.86,1.36-.7.38-1.41.64-2.15.8l-.48-2.23c.34-.05.73-.16,1.18-.34.45-.18.91-.4,1.39-.67.48-.27.92-.56,1.32-.88.4-.31.71-.62.94-.92h2.16v15.84h-2.54Z"/>
      <path class="cls-6" d="M1347.7,252.54v-10.87c0-.32,0-.65.01-1,0-.34.02-.71.04-1.09-.54.53-1.16.98-1.86,1.36-.7.38-1.41.64-2.15.8l-.48-2.23c.34-.05.73-.16,1.18-.34.45-.18.91-.4,1.39-.67.48-.27.92-.56,1.32-.88.4-.31.71-.62.94-.92h2.16v15.84h-2.54Z"/>
    </g>
    <g>
      <path class="cls-6" d="M1259.13,334.3v-10.87c0-.32,0-.65.01-1,0-.34.02-.71.04-1.09-.54.53-1.16.98-1.86,1.36s-1.41.64-2.15.8l-.48-2.23c.34-.05.73-.16,1.18-.34.45-.18.91-.4,1.39-.67.48-.27.92-.56,1.32-.88s.71-.62.94-.92h2.16v15.84h-2.54Z"/>
      <path class="cls-6" d="M1265.59,334.3v-1.87c1.52-1.09,2.79-2.05,3.83-2.88s1.86-1.6,2.48-2.3c.62-.7,1.08-1.37,1.36-2,.28-.63.42-1.28.42-1.93,0-.85-.26-1.54-.79-2.06-.53-.53-1.26-.79-2.21-.79-.99,0-1.78.33-2.37,1-.58.66-.92,1.57-1,2.72l-2.23-1.03c.11-1.01.41-1.88.89-2.62.48-.74,1.13-1.3,1.96-1.7.82-.4,1.78-.6,2.87-.6.9,0,1.68.13,2.36.38.68.26,1.25.61,1.72,1.07s.82.99,1.07,1.6c.25.61.37,1.26.37,1.94,0,1.01-.25,1.98-.74,2.92-.5.94-1.28,1.89-2.35,2.87-1.07.98-2.48,2.02-4.22,3.14v.05c.19-.03.46-.05.79-.06.34,0,.67-.02,1.01-.02.34,0,.61-.01.82-.01h4.99v2.21h-11.02Z"/>
    </g>
    <g>
      <path class="cls-6" d="M1165.64,236.04v-10.87c0-.32,0-.65.01-1,0-.34.02-.71.04-1.09-.54.53-1.16.98-1.86,1.36-.7.38-1.41.64-2.15.8l-.48-2.23c.34-.05.73-.16,1.18-.34.45-.18.91-.4,1.39-.67.48-.27.92-.56,1.32-.88s.71-.62.94-.92h2.16v15.84h-2.54Z"/>
      <path class="cls-6" d="M1177.45,236.28c-1.49,0-2.78-.33-3.88-1s-1.84-1.6-2.24-2.8l2.5-1.18c.14.58.37,1.07.67,1.49.3.42.7.73,1.2.95s1.11.32,1.85.32c.62,0,1.15-.11,1.58-.34.43-.22.76-.54,1-.94.23-.4.35-.86.35-1.37s-.1-.97-.3-1.32c-.2-.35-.51-.61-.94-.77s-.96-.24-1.62-.24c-.19,0-.39,0-.59.01-.2,0-.41.03-.63.06v-2.16c.14.02.28.03.42.04.13,0,.27.01.4.01,1.04,0,1.78-.21,2.23-.62.45-.42.67-1.06.67-1.94,0-.75-.23-1.33-.68-1.73-.46-.4-1.11-.6-1.96-.6s-1.56.2-2.05.61c-.49.41-.86,1-1.12,1.76l-2.35-.98c.22-.74.6-1.38,1.13-1.92s1.18-.96,1.96-1.26c.78-.3,1.63-.44,2.56-.44,1.14,0,2.08.18,2.84.55s1.33.87,1.71,1.51c.38.64.56,1.35.56,2.14,0,.61-.09,1.14-.26,1.6s-.41.85-.71,1.18c-.3.33-.62.58-.96.76-.34.18-.69.3-1.04.36v.05c.46.02.89.11,1.28.28s.74.4,1.06.7c.31.3.55.65.73,1.07.18.42.26.87.26,1.37,0,.96-.24,1.8-.72,2.52-.48.72-1.14,1.28-1.98,1.68-.84.4-1.81.6-2.92.6Z"/>
    </g>
    <g>
      <path class="cls-6" d="M1202.9,237.54v-10.87c0-.32,0-.65.01-1,0-.34.02-.71.04-1.09-.54.53-1.16.98-1.86,1.36s-1.41.64-2.15.8l-.48-2.23c.34-.05.73-.16,1.18-.34.45-.18.91-.4,1.39-.67.48-.27.92-.56,1.32-.88.4-.31.71-.62.94-.92h2.16v15.84h-2.54Z"/>
      <path class="cls-6" d="M1216.46,237.54v-3.96h-7.73v-1.75c.03-.08.08-.18.16-.29.07-.11.16-.24.25-.38l6.6-9.46h3.14v9.89h2.69v1.99h-2.69v3.96h-2.42ZM1211.13,231.59h5.33v-5.59c0-.38.01-.78.04-1.19.03-.41.04-.81.06-1.21h-.05c-.18.38-.4.8-.68,1.26-.28.46-.54.85-.78,1.19l-3.74,5.33s-.06.06-.08.1-.05.07-.08.12Z"/>
    </g>
    <g>
      <path class="cls-6" d="M1241.79,268.98v-10.87c0-.32,0-.65.01-1s.02-.71.04-1.09c-.54.53-1.16.98-1.86,1.36-.7.38-1.41.64-2.15.8l-.48-2.23c.34-.05.73-.16,1.18-.34s.91-.4,1.39-.67c.48-.27.92-.56,1.32-.88.4-.31.71-.62.94-.92h2.16v15.84h-2.54Z"/>
      <path class="cls-6" d="M1253.45,269.22c-1.41,0-2.56-.3-3.47-.91-.9-.61-1.62-1.49-2.15-2.64l2.4-1.25c.24.77.6,1.4,1.09,1.88.49.49,1.21.73,2.17.73.67,0,1.24-.12,1.72-.37.47-.25.84-.6,1.09-1.06s.38-1,.38-1.64-.12-1.23-.36-1.68c-.24-.45-.58-.79-1.03-1.02-.45-.23-1.01-.35-1.68-.35-.46,0-.9.05-1.3.14-.4.1-.76.24-1.08.44-.32.2-.6.46-.84.78l-2.11-.41.96-8.74h9.22v2.21h-7.18l-.58,4.46-.05.26h.05c.37-.4.84-.71,1.43-.94.58-.22,1.28-.34,2.08-.34,1.02,0,1.9.21,2.64.64s1.31,1.01,1.73,1.76.62,1.62.62,2.62c0,.86-.14,1.63-.43,2.3s-.7,1.24-1.22,1.7c-.53.46-1.14.81-1.84,1.04-.7.23-1.45.35-2.27.35Z"/>
    </g>
    <g>
      <path class="cls-6" d="M1094.2,237.54v-10.87c0-.32,0-.65.01-1,0-.34.02-.71.04-1.09-.54.53-1.16.98-1.86,1.36-.7.38-1.41.64-2.15.8l-.48-2.23c.34-.05.73-.16,1.18-.34.45-.18.91-.4,1.39-.67.48-.27.92-.56,1.32-.88.4-.31.71-.62.94-.92h2.16v15.84h-2.54Z"/>
      <path class="cls-6" d="M1106.87,221.46c.85,0,1.6.12,2.26.35s1.23.6,1.72,1.09c.49.5.89,1.14,1.21,1.94l-2.26,1.08c-.22-.69-.58-1.23-1.07-1.63-.49-.4-1.16-.6-2.03-.6-.62,0-1.18.15-1.66.46-.48.3-.89.73-1.22,1.28-.34.55-.59,1.2-.77,1.94s-.26,1.55-.26,2.41v.43l.1.05c.18-.64.49-1.16.95-1.55s.97-.68,1.55-.88c.58-.19,1.14-.29,1.7-.29,1.06,0,1.98.2,2.76.61.78.41,1.39.99,1.84,1.74.44.75.66,1.65.66,2.69s-.23,1.97-.7,2.75c-.46.78-1.11,1.38-1.93,1.8s-1.81.64-2.96.64c-1.34,0-2.49-.34-3.43-1.01s-1.67-1.62-2.16-2.83c-.5-1.22-.74-2.64-.74-4.27,0-1.81.28-3.32.85-4.54.57-1.22,1.34-2.13,2.32-2.75.98-.62,2.07-.92,3.29-.92ZM1106.71,229.69c-.61,0-1.14.12-1.61.37-.46.25-.83.59-1.09,1.02-.26.43-.4.94-.4,1.51s.14,1.06.42,1.51c.28.45.65.8,1.12,1.07.46.26.98.4,1.56.4.98,0,1.74-.26,2.28-.79.54-.53.82-1.26.82-2.18,0-.59-.12-1.11-.36-1.55-.24-.44-.59-.78-1.04-1.01-.46-.23-1.02-.35-1.69-.35Z"/>
    </g>
    <g>
      <path class="cls-6" d="M1120.88,228.54v-10.87c0-.32,0-.65.01-1,0-.34.02-.71.04-1.09-.54.53-1.16.98-1.86,1.36-.7.38-1.41.64-2.15.8l-.48-2.23c.34-.05.73-.16,1.18-.34.45-.18.91-.4,1.39-.67.48-.27.92-.56,1.32-.88.4-.31.71-.62.94-.92h2.16v15.84h-2.54Z"/>
      <path class="cls-6" d="M1126.57,212.7h12.07v2.14c-1.33,1.38-2.4,2.79-3.22,4.24-.82,1.45-1.4,2.95-1.76,4.51-.36,1.56-.54,3.21-.54,4.96h-2.59c0-1.76.22-3.48.66-5.15.44-1.67,1.11-3.27,2.02-4.8.9-1.53,2.04-2.96,3.42-4.31l.48.65h-10.54v-2.23Z"/>
    </g>
    <g>
      <path class="cls-6" d="M1092.03,218.74v-10.87c0-.32,0-.65.01-1s.02-.71.04-1.09c-.54.53-1.16.98-1.86,1.36-.7.38-1.41.64-2.15.8l-.48-2.23c.34-.05.73-.16,1.18-.34s.91-.4,1.39-.67c.48-.27.92-.56,1.32-.88.4-.31.71-.62.94-.92h2.16v15.84h-2.54Z"/>
      <path class="cls-6" d="M1104.24,202.68c1.07,0,2,.17,2.8.52.79.34,1.4.83,1.84,1.45s.65,1.38.65,2.26c0,.82-.2,1.53-.59,2.15-.39.62-.96,1.08-1.72,1.4v.02c.91.34,1.64.84,2.17,1.5s.8,1.48.8,2.46-.24,1.75-.73,2.42-1.18,1.19-2.06,1.56c-.89.37-1.94.55-3.16.55s-2.27-.18-3.16-.55c-.89-.37-1.58-.89-2.08-1.56-.5-.67-.74-1.48-.74-2.42s.26-1.78.79-2.45c.53-.67,1.26-1.18,2.21-1.51v-.02c-.72-.3-1.29-.76-1.7-1.38s-.62-1.34-.62-2.17c0-.88.21-1.63.65-2.26.43-.62,1.05-1.11,1.85-1.45s1.74-.52,2.81-.52ZM1104.24,216.82c.71,0,1.3-.1,1.8-.31s.88-.51,1.15-.91c.27-.4.41-.86.41-1.39,0-.56-.14-1.04-.42-1.43-.28-.39-.67-.69-1.16-.9s-1.09-.31-1.78-.31-1.26.1-1.78.31-.91.51-1.19.9c-.28.39-.42.87-.42,1.43,0,.53.13.99.41,1.39.27.4.66.7,1.18.91.51.21,1.11.31,1.8.31ZM1104.24,204.84c-.85,0-1.52.21-2.03.62s-.76.98-.76,1.7.26,1.28.77,1.69,1.18.61,2.02.61,1.5-.2,2-.61c.5-.41.76-.97.76-1.69s-.25-1.29-.74-1.7c-.5-.42-1.17-.62-2.02-.62Z"/>
    </g>
    <g>
      <path class="cls-6" d="M1060.78,199.53v-10.87c0-.32,0-.65.01-1,0-.34.02-.71.04-1.09-.54.53-1.16.98-1.86,1.36-.7.38-1.41.64-2.15.8l-.48-2.23c.34-.05.73-.16,1.18-.34.45-.18.91-.4,1.39-.67.48-.27.92-.56,1.32-.88.4-.31.71-.62.94-.92h2.16v15.84h-2.54Z"/>
      <path class="cls-6" d="M1072.66,183.45c1.36,0,2.51.34,3.44,1.01.94.67,1.64,1.62,2.11,2.83.47,1.22.71,2.65.71,4.3,0,1.82-.25,3.34-.74,4.55-.5,1.21-1.21,2.12-2.14,2.72s-2.05.91-3.36.91-2.5-.3-3.46-.89c-.96-.59-1.68-1.48-2.16-2.66l2.42-1.13c.22.75.6,1.35,1.12,1.8.52.45,1.23.67,2.12.67.74,0,1.35-.14,1.85-.43.5-.29.89-.7,1.19-1.25.29-.54.51-1.2.64-1.97.13-.77.19-1.63.19-2.59v-.26h-.1c-.18.64-.49,1.16-.95,1.56-.46.4-.97.69-1.55.88-.58.18-1.15.28-1.73.28-1.02,0-1.93-.2-2.72-.61-.79-.41-1.41-.98-1.86-1.72-.45-.74-.67-1.61-.67-2.62,0-1.1.23-2.06.68-2.86.46-.8,1.1-1.42,1.94-1.86.84-.44,1.84-.66,3.01-.66ZM1072.68,185.7c-1.01,0-1.78.27-2.32.82-.54.54-.8,1.3-.8,2.28,0,.86.29,1.54.85,2.03.57.49,1.32.73,2.27.73.61,0,1.14-.12,1.61-.37s.83-.59,1.09-1.02c.26-.43.4-.94.4-1.51,0-.61-.13-1.13-.4-1.57s-.63-.78-1.09-1.02c-.46-.24-1-.36-1.61-.36Z"/>
    </g>
    <g>
      <path class="cls-6" d="M1029.72,192.04v-1.87c1.52-1.09,2.8-2.05,3.83-2.88,1.03-.83,1.86-1.6,2.48-2.3.62-.7,1.08-1.37,1.36-2,.28-.63.42-1.28.42-1.93,0-.85-.26-1.54-.79-2.06-.53-.53-1.26-.79-2.21-.79-.99,0-1.78.33-2.36,1-.58.66-.92,1.57-1,2.72l-2.23-1.03c.11-1.01.41-1.88.89-2.62s1.13-1.3,1.96-1.7,1.78-.6,2.87-.6c.9,0,1.68.13,2.36.38.68.26,1.25.61,1.71,1.07.46.46.82.99,1.07,1.6.25.61.37,1.26.37,1.94,0,1.01-.25,1.98-.74,2.92-.5.94-1.28,1.89-2.35,2.87-1.07.98-2.48,2.02-4.22,3.14v.05c.19-.03.46-.05.79-.06.34,0,.67-.02,1.01-.02.34,0,.61-.01.82-.01h4.99v2.21h-11.02Z"/>
      <path class="cls-6" d="M1049.66,192.28c-1.9,0-3.4-.69-4.48-2.08-1.08-1.38-1.62-3.41-1.62-6.08s.54-4.7,1.62-6.08,2.57-2.08,4.48-2.08,3.42.69,4.5,2.08,1.62,3.41,1.62,6.08-.54,4.7-1.62,6.08c-1.08,1.38-2.58,2.08-4.5,2.08ZM1049.66,190.09c.77,0,1.41-.22,1.93-.66.52-.44.91-1.1,1.18-1.99.26-.89.4-2,.4-3.32s-.13-2.44-.4-3.32c-.26-.89-.66-1.55-1.18-1.99-.52-.44-1.16-.66-1.93-.66s-1.41.22-1.93.66-.91,1.1-1.16,1.99c-.26.89-.38,2-.38,3.32s.13,2.44.38,3.32c.26.89.64,1.55,1.16,1.99.52.44,1.16.66,1.93.66Z"/>
    </g>
    <g>
      <path class="cls-6" d="M1054.05,162.74v-1.87c1.52-1.09,2.8-2.05,3.83-2.88,1.03-.83,1.86-1.6,2.48-2.3.62-.7,1.08-1.37,1.36-2,.28-.63.42-1.28.42-1.93,0-.85-.26-1.54-.79-2.06-.53-.53-1.26-.79-2.21-.79-.99,0-1.78.33-2.36,1-.58.66-.92,1.57-1,2.72l-2.23-1.03c.11-1.01.41-1.88.89-2.62s1.13-1.3,1.96-1.7c.82-.4,1.78-.6,2.87-.6.9,0,1.68.13,2.36.38s1.25.61,1.72,1.07c.46.46.82.99,1.07,1.6.25.61.37,1.26.37,1.94,0,1.01-.25,1.98-.74,2.92s-1.28,1.89-2.35,2.87c-1.07.98-2.48,2.02-4.22,3.14v.05c.19-.03.46-.05.79-.06.34,0,.67-.02,1.01-.02.34,0,.61-.01.82-.01h4.99v2.21h-11.02Z"/>
      <path class="cls-6" d="M1071.33,162.74v-10.87c0-.32,0-.65.01-1,0-.34.02-.71.04-1.09-.54.53-1.16.98-1.86,1.36-.7.38-1.41.64-2.15.8l-.48-2.23c.34-.05.73-.16,1.18-.34.45-.18.91-.4,1.39-.67.48-.27.92-.56,1.32-.88s.71-.62.94-.92h2.16v15.84h-2.54Z"/>
    </g>
    <g>
      <path class="cls-6" d="M1054.04,161.99v-1.87c1.52-1.09,2.8-2.05,3.83-2.88,1.03-.83,1.86-1.6,2.48-2.3.62-.7,1.08-1.37,1.36-2,.28-.63.42-1.28.42-1.93,0-.85-.26-1.54-.79-2.06s-1.26-.79-2.21-.79c-.99,0-1.78.33-2.36,1s-.92,1.57-1,2.72l-2.23-1.03c.11-1.01.41-1.88.89-2.62.48-.74,1.13-1.3,1.96-1.7.82-.4,1.78-.6,2.87-.6.9,0,1.68.13,2.36.38.68.26,1.25.61,1.71,1.07.46.46.82.99,1.07,1.6.25.61.37,1.26.37,1.94,0,1.01-.25,1.98-.74,2.92-.5.94-1.28,1.89-2.35,2.87-1.07.98-2.48,2.02-4.22,3.14v.05c.19-.03.46-.05.79-.06.34,0,.67-.02,1.01-.02.34,0,.61-.01.82-.01h4.99v2.21h-11.02Z"/>
      <path class="cls-6" d="M1068.13,161.99v-1.87c1.52-1.09,2.8-2.05,3.83-2.88,1.03-.83,1.86-1.6,2.48-2.3.62-.7,1.08-1.37,1.36-2,.28-.63.42-1.28.42-1.93,0-.85-.26-1.54-.79-2.06s-1.26-.79-2.21-.79c-.99,0-1.78.33-2.36,1s-.92,1.57-1,2.72l-2.23-1.03c.11-1.01.41-1.88.89-2.62.48-.74,1.13-1.3,1.96-1.7.82-.4,1.78-.6,2.87-.6.9,0,1.68.13,2.36.38.68.26,1.25.61,1.71,1.07.46.46.82.99,1.07,1.6.25.61.37,1.26.37,1.94,0,1.01-.25,1.98-.74,2.92-.5.94-1.28,1.89-2.35,2.87-1.07.98-2.48,2.02-4.22,3.14v.05c.19-.03.46-.05.79-.06.34,0,.67-.02,1.01-.02.34,0,.61-.01.82-.01h4.99v2.21h-11.02Z"/>
    </g>
    <g>
      <path class="cls-6" d="M1049.38,153.66v-1.87c1.52-1.09,2.79-2.05,3.83-2.88s1.86-1.6,2.48-2.3c.62-.7,1.08-1.37,1.36-2,.28-.63.42-1.28.42-1.93,0-.85-.26-1.54-.79-2.06-.53-.53-1.26-.79-2.21-.79-.99,0-1.78.33-2.37,1-.58.66-.92,1.57-1,2.72l-2.23-1.03c.11-1.01.41-1.88.89-2.62.48-.74,1.13-1.3,1.96-1.7.82-.4,1.78-.6,2.87-.6.9,0,1.68.13,2.36.38.68.26,1.25.61,1.72,1.07s.82.99,1.07,1.6c.25.61.37,1.26.37,1.94,0,1.01-.25,1.98-.74,2.92-.5.94-1.28,1.89-2.35,2.87-1.07.98-2.48,2.02-4.22,3.14v.05c.19-.03.46-.05.79-.06.34,0,.67-.02,1.01-.02.34,0,.61-.01.82-.01h4.99v2.21h-11.02Z"/>
      <path class="cls-6" d="M1068.82,153.9c-1.49,0-2.78-.33-3.88-1-1.1-.66-1.84-1.6-2.24-2.8l2.5-1.18c.14.58.37,1.07.67,1.49.3.42.7.73,1.2.95s1.11.32,1.85.32c.62,0,1.15-.11,1.58-.34.43-.22.76-.54,1-.94.23-.4.35-.86.35-1.37s-.1-.97-.3-1.32c-.2-.35-.51-.61-.94-.77s-.96-.24-1.62-.24c-.19,0-.39,0-.59.01-.2,0-.41.03-.64.06v-2.16c.14.02.28.03.42.04.14,0,.27.01.4.01,1.04,0,1.78-.21,2.23-.62.45-.42.67-1.06.67-1.94,0-.75-.23-1.33-.68-1.73-.46-.4-1.11-.6-1.96-.6s-1.56.2-2.05.61c-.49.41-.86,1-1.12,1.76l-2.35-.98c.22-.74.6-1.38,1.13-1.92s1.18-.96,1.96-1.26c.78-.3,1.63-.44,2.56-.44,1.14,0,2.08.18,2.84.55.76.37,1.33.87,1.7,1.51.38.64.56,1.35.56,2.14,0,.61-.09,1.14-.26,1.6-.18.46-.41.85-.71,1.18-.3.33-.62.58-.96.76-.34.18-.69.3-1.04.36v.05c.46.02.89.11,1.29.28.39.17.74.4,1.05.7.31.3.56.65.73,1.07.18.42.26.87.26,1.37,0,.96-.24,1.8-.72,2.52-.48.72-1.14,1.28-1.98,1.68-.84.4-1.81.6-2.92.6Z"/>
    </g>
    <g>
      <path class="cls-6" d="M1073.32,143.65v-1.87c1.52-1.09,2.8-2.05,3.83-2.88,1.03-.83,1.86-1.6,2.48-2.3.62-.7,1.08-1.37,1.36-2,.28-.63.42-1.28.42-1.93,0-.85-.26-1.54-.79-2.06-.53-.53-1.26-.79-2.21-.79-.99,0-1.78.33-2.36,1-.58.66-.92,1.57-1,2.72l-2.23-1.03c.11-1.01.41-1.88.89-2.62s1.13-1.3,1.96-1.7c.82-.4,1.78-.6,2.87-.6.9,0,1.68.13,2.36.38s1.25.61,1.72,1.07c.46.46.82.99,1.07,1.6.25.61.37,1.26.37,1.94,0,1.01-.25,1.98-.74,2.92s-1.28,1.89-2.35,2.87c-1.07.98-2.48,2.02-4.22,3.14v.05c.19-.03.46-.05.79-.06.34,0,.67-.02,1.01-.02.34,0,.61-.01.82-.01h4.99v2.21h-11.02Z"/>
      <path class="cls-6" d="M1093.92,143.65v-3.96h-7.73v-1.75c.03-.08.08-.18.16-.29.07-.11.16-.24.25-.38l6.6-9.46h3.14v9.89h2.69v1.99h-2.69v3.96h-2.42ZM1088.59,137.7h5.33v-5.59c0-.38.01-.78.04-1.19.02-.41.04-.81.06-1.21h-.05c-.18.38-.4.8-.68,1.26-.28.46-.54.85-.78,1.19l-3.74,5.33s-.06.06-.08.1-.05.07-.08.12Z"/>
    </g>
    <g>
      <path class="cls-6" d="M1092.05,158.69v-1.87c1.52-1.09,2.79-2.05,3.83-2.88s1.86-1.6,2.48-2.3c.62-.7,1.08-1.37,1.36-2,.28-.63.42-1.28.42-1.93,0-.85-.26-1.54-.79-2.06-.53-.53-1.26-.79-2.21-.79-.99,0-1.78.33-2.37,1-.58.66-.92,1.57-1,2.72l-2.23-1.03c.11-1.01.41-1.88.89-2.62.48-.74,1.13-1.3,1.96-1.7.82-.4,1.78-.6,2.87-.6.9,0,1.68.13,2.36.38.68.26,1.25.61,1.72,1.07s.82.99,1.07,1.6c.25.61.37,1.26.37,1.94,0,1.01-.25,1.98-.74,2.92-.5.94-1.28,1.89-2.35,2.87-1.07.98-2.48,2.02-4.22,3.14v.05c.19-.03.46-.05.79-.06.34,0,.67-.02,1.01-.02.34,0,.61-.01.82-.01h4.99v2.21h-11.02Z"/>
      <path class="cls-6" d="M1111.34,158.93c-1.41,0-2.56-.3-3.47-.91s-1.62-1.49-2.15-2.64l2.4-1.25c.24.77.6,1.4,1.09,1.88.49.49,1.21.73,2.17.73.67,0,1.24-.12,1.71-.37.47-.25.84-.6,1.09-1.06.25-.46.38-1,.38-1.64,0-.67-.12-1.23-.36-1.68-.24-.45-.58-.79-1.03-1.02-.45-.23-1.01-.35-1.68-.35-.46,0-.9.05-1.3.14-.4.1-.76.24-1.08.44-.32.2-.6.46-.84.78l-2.11-.41.96-8.74h9.21v2.21h-7.18l-.58,4.46-.05.26h.05c.37-.4.84-.71,1.43-.94.58-.22,1.28-.34,2.08-.34,1.02,0,1.9.21,2.64.64.74.42,1.31,1.01,1.73,1.76s.62,1.62.62,2.62c0,.86-.14,1.63-.43,2.3-.29.67-.7,1.24-1.22,1.7s-1.14.81-1.84,1.04c-.7.23-1.45.35-2.27.35Z"/>
    </g>
    <g>
      <path class="cls-6" d="M1104.14,167.01v-1.87c1.52-1.09,2.79-2.05,3.83-2.88s1.86-1.6,2.48-2.3c.62-.7,1.08-1.37,1.36-2,.28-.63.42-1.28.42-1.93,0-.85-.26-1.54-.79-2.06s-1.26-.79-2.21-.79c-.99,0-1.78.33-2.37,1-.58.66-.92,1.57-1,2.72l-2.23-1.03c.11-1.01.41-1.88.89-2.62.48-.74,1.13-1.3,1.96-1.7.82-.4,1.78-.6,2.87-.6.9,0,1.68.13,2.36.38.68.26,1.25.61,1.72,1.07s.82.99,1.07,1.6c.25.61.37,1.26.37,1.94,0,1.01-.25,1.98-.74,2.92-.5.94-1.28,1.89-2.35,2.87-1.07.98-2.48,2.02-4.22,3.14v.05c.19-.03.46-.05.79-.06s.67-.02,1.01-.02.61-.01.82-.01h4.99v2.21h-11.02Z"/>
      <path class="cls-6" d="M1124.44,150.93c.85,0,1.6.12,2.26.35.66.23,1.23.6,1.72,1.09.49.5.89,1.14,1.21,1.94l-2.26,1.08c-.22-.69-.58-1.23-1.07-1.63-.49-.4-1.16-.6-2.03-.6-.62,0-1.18.15-1.66.46-.48.3-.89.73-1.22,1.28s-.59,1.2-.77,1.94c-.18.74-.26,1.55-.26,2.41v.43l.1.05c.18-.64.49-1.16.95-1.55.46-.39.97-.68,1.55-.88.58-.19,1.14-.29,1.7-.29,1.06,0,1.98.2,2.76.61.78.41,1.4.99,1.84,1.74.44.75.66,1.65.66,2.69s-.23,1.97-.7,2.75c-.46.78-1.11,1.38-1.93,1.8-.83.42-1.81.64-2.96.64-1.34,0-2.49-.34-3.43-1.01-.95-.67-1.67-1.62-2.16-2.83-.5-1.22-.74-2.64-.74-4.27,0-1.81.28-3.32.85-4.54s1.34-2.13,2.32-2.75c.98-.62,2.07-.92,3.29-.92ZM1124.28,159.16c-.61,0-1.14.12-1.61.37-.46.25-.83.59-1.09,1.02-.26.43-.4.94-.4,1.51s.14,1.06.42,1.51c.28.45.65.8,1.12,1.07s.98.4,1.56.4c.98,0,1.74-.26,2.28-.79.54-.53.82-1.26.82-2.18,0-.59-.12-1.11-.36-1.55-.24-.44-.59-.78-1.04-1.01-.46-.23-1.02-.35-1.69-.35Z"/>
    </g>
    <g>
      <path class="cls-6" d="M1135.98,162.56v-1.87c1.52-1.09,2.8-2.05,3.83-2.88,1.03-.83,1.86-1.6,2.48-2.3.62-.7,1.08-1.37,1.36-2,.28-.63.42-1.28.42-1.93,0-.85-.26-1.54-.79-2.06-.53-.53-1.26-.79-2.21-.79-.99,0-1.78.33-2.36,1-.58.66-.92,1.57-1,2.72l-2.23-1.03c.11-1.01.41-1.88.89-2.62.48-.74,1.13-1.3,1.96-1.7.82-.4,1.78-.6,2.87-.6.9,0,1.68.13,2.36.38.68.26,1.25.61,1.71,1.07.46.46.82.99,1.07,1.6.25.61.37,1.26.37,1.94,0,1.01-.25,1.98-.74,2.92-.5.94-1.28,1.89-2.35,2.87-1.07.98-2.48,2.02-4.22,3.14v.05c.19-.03.46-.05.79-.06s.67-.02,1.01-.02c.34,0,.61-.01.82-.01h4.99v2.21h-11.02Z"/>
      <path class="cls-6" d="M1148.84,146.72h12.07v2.14c-1.33,1.38-2.4,2.79-3.22,4.24s-1.4,2.95-1.76,4.51c-.36,1.56-.54,3.21-.54,4.96h-2.59c0-1.76.22-3.48.66-5.15.44-1.67,1.11-3.27,2.02-4.8.9-1.53,2.04-2.96,3.42-4.31l.48.65h-10.54v-2.23Z"/>
    </g>
    <g>
      <path class="cls-6" d="M1119.37,164.11v-1.87c1.52-1.09,2.8-2.05,3.83-2.88,1.03-.83,1.86-1.6,2.48-2.3.62-.7,1.08-1.37,1.36-2,.28-.63.42-1.28.42-1.93,0-.85-.26-1.54-.79-2.06-.53-.53-1.26-.79-2.21-.79-.99,0-1.78.33-2.36,1-.58.66-.92,1.57-1,2.72l-2.23-1.03c.11-1.01.41-1.88.89-2.62.48-.74,1.13-1.3,1.96-1.7.82-.4,1.78-.6,2.87-.6.89,0,1.68.13,2.36.38s1.25.61,1.72,1.07.82.99,1.07,1.6c.25.61.37,1.26.37,1.94,0,1.01-.25,1.98-.74,2.92-.5.94-1.28,1.89-2.35,2.87-1.07.98-2.48,2.02-4.22,3.14v.05c.19-.03.46-.05.79-.06s.67-.02,1.01-.02c.34,0,.61-.01.82-.01h4.99v2.21h-11.02Z"/>
      <path class="cls-6" d="M1139.22,148.05c1.07,0,2,.17,2.8.52.79.34,1.4.83,1.84,1.45s.65,1.38.65,2.26c0,.82-.2,1.53-.59,2.15-.39.62-.96,1.08-1.72,1.4v.02c.91.34,1.64.84,2.17,1.5s.8,1.48.8,2.46-.24,1.75-.73,2.42-1.18,1.19-2.06,1.56c-.89.37-1.94.55-3.16.55s-2.27-.18-3.16-.55c-.89-.37-1.58-.89-2.08-1.56-.5-.67-.74-1.48-.74-2.42s.26-1.78.79-2.45c.53-.67,1.26-1.18,2.21-1.51v-.02c-.72-.3-1.29-.76-1.7-1.38s-.62-1.34-.62-2.17c0-.88.21-1.63.65-2.26.43-.62,1.05-1.11,1.85-1.45s1.74-.52,2.81-.52ZM1139.22,162.19c.71,0,1.3-.1,1.8-.31s.88-.51,1.15-.91c.27-.4.41-.86.41-1.39,0-.56-.14-1.04-.42-1.43-.28-.39-.67-.69-1.16-.9s-1.09-.31-1.78-.31-1.26.1-1.78.31-.91.51-1.19.9c-.28.39-.42.87-.42,1.43,0,.53.13.99.41,1.39.27.4.66.7,1.18.91.51.21,1.11.31,1.8.31ZM1139.22,150.21c-.85,0-1.52.21-2.03.62s-.76.98-.76,1.7.26,1.28.77,1.69,1.18.61,2.02.61,1.5-.2,2-.61c.5-.41.76-.97.76-1.69s-.25-1.29-.74-1.7c-.5-.42-1.17-.62-2.02-.62Z"/>
    </g>
    <g>
      <path class="cls-6" d="M1224.87,82.36v-1.87c1.52-1.09,2.8-2.05,3.83-2.88,1.03-.83,1.86-1.6,2.48-2.3.62-.7,1.08-1.37,1.36-2,.28-.63.42-1.28.42-1.93,0-.85-.26-1.54-.79-2.06-.53-.53-1.26-.79-2.21-.79-.99,0-1.78.33-2.36,1-.58.66-.92,1.57-1,2.72l-2.23-1.03c.11-1.01.41-1.88.89-2.62.48-.74,1.13-1.3,1.96-1.7.82-.4,1.78-.6,2.87-.6.9,0,1.68.13,2.36.38.68.26,1.25.61,1.71,1.07.46.46.82.99,1.07,1.6.25.61.37,1.26.37,1.94,0,1.01-.25,1.98-.74,2.92-.5.94-1.28,1.89-2.35,2.87-1.07.98-2.48,2.02-4.22,3.14v.05c.19-.03.46-.05.79-.06s.67-.02,1.01-.02c.34,0,.61-.01.82-.01h4.99v2.21h-11.02Z"/>
      <path class="cls-6" d="M1244.38,66.28c1.36,0,2.51.34,3.44,1.01.94.67,1.64,1.62,2.11,2.83.47,1.22.71,2.65.71,4.3,0,1.82-.25,3.34-.74,4.55s-1.21,2.12-2.14,2.72c-.93.61-2.05.91-3.36.91s-2.5-.3-3.46-.89c-.96-.59-1.68-1.48-2.16-2.66l2.42-1.13c.22.75.6,1.35,1.12,1.8.52.45,1.23.67,2.12.67.74,0,1.35-.14,1.85-.43s.89-.7,1.19-1.25c.3-.54.51-1.2.64-1.97.13-.77.19-1.63.19-2.59v-.26h-.1c-.18.64-.49,1.16-.95,1.56-.46.4-.97.69-1.55.88s-1.15.28-1.73.28c-1.02,0-1.93-.2-2.72-.61-.79-.41-1.41-.98-1.86-1.72-.45-.74-.67-1.61-.67-2.62,0-1.1.23-2.06.68-2.86.46-.8,1.1-1.42,1.94-1.86.84-.44,1.84-.66,3.01-.66ZM1244.4,68.53c-1.01,0-1.78.27-2.32.82s-.8,1.3-.8,2.28c0,.86.28,1.54.85,2.03s1.32.73,2.27.73c.61,0,1.14-.12,1.61-.37s.83-.59,1.09-1.02c.26-.43.4-.94.4-1.51,0-.61-.13-1.13-.4-1.57-.26-.44-.63-.78-1.09-1.02-.46-.24-1-.36-1.61-.36Z"/>
    </g>
    <g>
      <path class="cls-6" d="M1196.1,94.81c-1.49,0-2.78-.33-3.88-1s-1.84-1.6-2.24-2.8l2.5-1.18c.14.58.37,1.07.67,1.49.3.42.7.73,1.2.95s1.11.32,1.85.32c.62,0,1.15-.11,1.58-.34.43-.22.76-.54,1-.94.23-.4.35-.86.35-1.37s-.1-.97-.3-1.32c-.2-.35-.51-.61-.94-.77s-.96-.24-1.62-.24c-.19,0-.39,0-.59.01-.2,0-.41.03-.63.06v-2.16c.14.02.28.03.42.04.13,0,.27.01.4.01,1.04,0,1.78-.21,2.23-.62.45-.42.67-1.06.67-1.94,0-.75-.23-1.33-.68-1.73-.46-.4-1.11-.6-1.96-.6s-1.56.2-2.05.61c-.49.41-.86,1-1.12,1.76l-2.35-.98c.22-.74.6-1.38,1.13-1.92s1.18-.96,1.96-1.26c.78-.3,1.63-.44,2.56-.44,1.14,0,2.08.18,2.84.55s1.33.87,1.71,1.51c.38.64.56,1.35.56,2.14,0,.61-.09,1.14-.26,1.6s-.41.85-.71,1.18c-.3.33-.62.58-.96.76-.34.18-.69.3-1.04.36v.05c.46.02.89.11,1.28.28s.74.4,1.06.7c.31.3.55.65.73,1.07.18.42.26.87.26,1.37,0,.96-.24,1.8-.72,2.52-.48.72-1.14,1.28-1.98,1.68-.84.4-1.81.6-2.92.6Z"/>
      <path class="cls-6" d="M1210.67,94.81c-1.9,0-3.4-.69-4.48-2.08-1.08-1.38-1.62-3.41-1.62-6.08s.54-4.7,1.62-6.08,2.57-2.08,4.48-2.08,3.42.69,4.5,2.08,1.62,3.41,1.62,6.08-.54,4.7-1.62,6.08c-1.08,1.38-2.58,2.08-4.5,2.08ZM1210.67,92.62c.77,0,1.41-.22,1.93-.66.52-.44.91-1.1,1.18-1.99.26-.89.4-2,.4-3.32s-.13-2.44-.4-3.32c-.26-.89-.66-1.55-1.18-1.99-.52-.44-1.16-.66-1.93-.66s-1.41.22-1.93.66-.91,1.1-1.16,1.99c-.26.89-.38,2-.38,3.32s.13,2.44.38,3.32c.26.89.64,1.55,1.16,1.99.52.44,1.16.66,1.93.66Z"/>
    </g>
    <g>
      <path class="cls-6" d="M1170.89,136.39c-1.49,0-2.78-.33-3.88-1s-1.84-1.6-2.24-2.8l2.5-1.18c.14.58.37,1.07.67,1.49.3.42.7.73,1.2.95s1.11.32,1.85.32c.62,0,1.15-.11,1.58-.34.43-.22.76-.54,1-.94.23-.4.35-.86.35-1.37s-.1-.97-.3-1.32c-.2-.35-.51-.61-.94-.77s-.96-.24-1.62-.24c-.19,0-.39,0-.59.01-.2,0-.41.03-.63.06v-2.16c.14.02.28.03.42.04.13,0,.27.01.4.01,1.04,0,1.78-.21,2.23-.62.45-.42.67-1.06.67-1.94,0-.75-.23-1.33-.68-1.73-.46-.4-1.11-.6-1.96-.6s-1.56.2-2.05.61c-.49.41-.86,1-1.12,1.76l-2.35-.98c.22-.74.6-1.38,1.13-1.92s1.18-.96,1.96-1.26c.78-.3,1.63-.44,2.56-.44,1.14,0,2.08.18,2.84.55s1.33.87,1.71,1.51c.38.64.56,1.35.56,2.14,0,.61-.09,1.14-.26,1.6s-.41.85-.71,1.18c-.3.33-.62.58-.96.76-.34.18-.69.3-1.04.36v.05c.46.02.89.11,1.28.28s.74.4,1.06.7c.31.3.55.65.73,1.07.18.42.26.87.26,1.37,0,.96-.24,1.8-.72,2.52-.48.72-1.14,1.28-1.98,1.68-.84.4-1.81.6-2.92.6Z"/>
      <path class="cls-6" d="M1182.8,136.15v-10.87c0-.32,0-.65.01-1,0-.34.02-.71.04-1.09-.54.53-1.16.98-1.86,1.36s-1.41.64-2.15.8l-.48-2.23c.34-.05.73-.16,1.18-.34.45-.18.91-.4,1.39-.67.48-.27.92-.56,1.32-.88s.71-.62.94-.92h2.16v15.84h-2.54Z"/>
    </g>
    <g>
      <path class="cls-6" d="M1195.77,182.25c-1.49,0-2.78-.33-3.88-1-1.1-.66-1.84-1.6-2.24-2.8l2.5-1.18c.14.58.37,1.07.67,1.49.3.42.7.73,1.2.95s1.11.32,1.85.32c.62,0,1.15-.11,1.58-.34.43-.22.76-.54,1-.94.23-.4.35-.86.35-1.37s-.1-.97-.3-1.32c-.2-.35-.51-.61-.94-.77s-.96-.24-1.62-.24c-.19,0-.39,0-.59.01-.2,0-.41.03-.64.06v-2.16c.14.02.28.03.42.04.14,0,.27.01.4.01,1.04,0,1.78-.21,2.23-.62.45-.42.67-1.06.67-1.94,0-.75-.23-1.33-.68-1.73-.46-.4-1.11-.6-1.96-.6s-1.56.2-2.05.61c-.49.41-.86,1-1.12,1.76l-2.35-.98c.22-.74.6-1.38,1.13-1.92s1.18-.96,1.96-1.26c.78-.3,1.63-.44,2.56-.44,1.14,0,2.08.18,2.84.55.76.37,1.33.87,1.7,1.51.38.64.56,1.35.56,2.14,0,.61-.09,1.14-.26,1.6-.18.46-.41.85-.71,1.18-.3.33-.62.58-.96.76-.34.18-.69.3-1.04.36v.05c.46.02.89.11,1.29.28.39.17.74.4,1.05.7.31.3.56.65.73,1.07.18.42.26.87.26,1.37,0,.96-.24,1.8-.72,2.52-.48.72-1.14,1.28-1.98,1.68-.84.4-1.81.6-2.92.6Z"/>
      <path class="cls-6" d="M1204.49,182.01v-1.87c1.52-1.09,2.8-2.05,3.83-2.88,1.03-.83,1.86-1.6,2.48-2.3.62-.7,1.08-1.37,1.36-2,.28-.63.42-1.28.42-1.93,0-.85-.26-1.54-.79-2.06-.53-.53-1.26-.79-2.21-.79-.99,0-1.78.33-2.36,1-.58.66-.92,1.57-1,2.72l-2.23-1.03c.11-1.01.41-1.88.89-2.62s1.13-1.3,1.96-1.7c.82-.4,1.78-.6,2.87-.6.9,0,1.68.13,2.36.38s1.25.61,1.72,1.07c.46.46.82.99,1.07,1.6.25.61.37,1.26.37,1.94,0,1.01-.25,1.98-.74,2.92s-1.28,1.89-2.35,2.87c-1.07.98-2.48,2.02-4.22,3.14v.05c.19-.03.46-.05.79-.06.34,0,.67-.02,1.01-.02.34,0,.61-.01.82-.01h4.99v2.21h-11.02Z"/>
    </g>
    <g>
      <path class="cls-6" d="M1241.69,211.48c-1.49,0-2.78-.33-3.88-1s-1.84-1.6-2.24-2.8l2.5-1.18c.14.58.37,1.07.67,1.49.3.42.7.73,1.2.95s1.11.32,1.85.32c.62,0,1.15-.11,1.58-.34.43-.22.76-.54,1-.94.23-.4.35-.86.35-1.37s-.1-.97-.3-1.32c-.2-.35-.51-.61-.94-.77s-.96-.24-1.62-.24c-.19,0-.39,0-.59.01-.2,0-.41.03-.63.06v-2.16c.14.02.28.03.42.04.13,0,.27.01.4.01,1.04,0,1.78-.21,2.23-.62.45-.42.67-1.06.67-1.94,0-.75-.23-1.33-.68-1.73-.46-.4-1.11-.6-1.96-.6s-1.56.2-2.05.61c-.49.41-.86,1-1.12,1.76l-2.35-.98c.22-.74.6-1.38,1.13-1.92s1.18-.96,1.96-1.26,1.63-.44,2.56-.44c1.14,0,2.08.18,2.84.55s1.33.87,1.71,1.51c.38.64.56,1.35.56,2.14,0,.61-.09,1.14-.26,1.6s-.41.85-.71,1.18c-.3.33-.62.58-.96.76s-.69.3-1.04.36v.05c.46.02.89.11,1.28.28s.74.4,1.06.7c.31.3.55.65.73,1.07.18.42.26.87.26,1.37,0,.96-.24,1.8-.72,2.52-.48.72-1.14,1.28-1.98,1.68-.84.4-1.81.6-2.92.6Z"/>
      <path class="cls-6" d="M1255.75,211.48c-1.49,0-2.78-.33-3.88-1-1.1-.66-1.84-1.6-2.24-2.8l2.5-1.18c.14.58.37,1.07.67,1.49.3.42.7.73,1.2.95s1.11.32,1.85.32c.62,0,1.15-.11,1.58-.34.43-.22.76-.54,1-.94.23-.4.35-.86.35-1.37s-.1-.97-.3-1.32c-.2-.35-.51-.61-.94-.77s-.96-.24-1.62-.24c-.19,0-.39,0-.59.01s-.41.03-.64.06v-2.16c.14.02.28.03.42.04s.27.01.4.01c1.04,0,1.78-.21,2.23-.62.45-.42.67-1.06.67-1.94,0-.75-.23-1.33-.68-1.73-.46-.4-1.11-.6-1.96-.6s-1.56.2-2.05.61c-.49.41-.86,1-1.12,1.76l-2.35-.98c.22-.74.6-1.38,1.13-1.92.53-.54,1.18-.96,1.96-1.26.78-.3,1.63-.44,2.56-.44,1.14,0,2.08.18,2.84.55s1.33.87,1.7,1.51.56,1.35.56,2.14c0,.61-.09,1.14-.26,1.6s-.41.85-.71,1.18-.62.58-.96.76-.69.3-1.04.36v.05c.46.02.89.11,1.28.28.39.17.74.4,1.06.7s.56.65.73,1.07c.18.42.26.87.26,1.37,0,.96-.24,1.8-.72,2.52s-1.14,1.28-1.98,1.68-1.81.6-2.92.6Z"/>
    </g>
    <g>
      <path class="cls-6" d="M1291.41,162.71c-1.49,0-2.78-.33-3.88-1s-1.84-1.6-2.24-2.8l2.5-1.18c.14.58.37,1.07.67,1.49.3.42.7.73,1.2.95s1.11.32,1.85.32c.62,0,1.15-.11,1.58-.34.43-.22.76-.54,1-.94.23-.4.35-.86.35-1.37s-.1-.97-.3-1.32c-.2-.35-.51-.61-.94-.77s-.96-.24-1.62-.24c-.19,0-.39,0-.59.01-.2,0-.41.03-.63.06v-2.16c.14.02.28.03.42.04.13,0,.27.01.4.01,1.04,0,1.78-.21,2.23-.62.45-.42.67-1.06.67-1.94,0-.75-.23-1.33-.68-1.73-.46-.4-1.11-.6-1.96-.6s-1.56.2-2.05.61c-.49.41-.86,1-1.12,1.76l-2.35-.98c.22-.74.6-1.38,1.13-1.92s1.18-.96,1.96-1.26c.78-.3,1.63-.44,2.56-.44,1.14,0,2.08.18,2.84.55s1.33.87,1.71,1.51c.38.64.56,1.35.56,2.14,0,.61-.09,1.14-.26,1.6s-.41.85-.71,1.18c-.3.33-.62.58-.96.76-.34.18-.69.3-1.04.36v.05c.46.02.89.11,1.28.28s.74.4,1.06.7c.31.3.55.65.73,1.07.18.42.26.87.26,1.37,0,.96-.24,1.8-.72,2.52-.48.72-1.14,1.28-1.98,1.68-.84.4-1.81.6-2.92.6Z"/>
      <path class="cls-6" d="M1307.22,162.47v-3.96h-7.73v-1.75c.03-.08.08-.18.16-.29.07-.11.16-.24.25-.38l6.6-9.46h3.14v9.89h2.69v1.99h-2.69v3.96h-2.42ZM1301.89,156.52h5.33v-5.59c0-.38.01-.78.04-1.19.02-.41.04-.81.06-1.21h-.05c-.18.38-.4.8-.68,1.26s-.54.85-.78,1.19l-3.74,5.33s-.06.06-.08.1c-.02.03-.05.07-.08.12Z"/>
    </g>
    <g>
      <path class="cls-6" d="M1216.91,119.85c-1.49,0-2.78-.33-3.88-1s-1.84-1.6-2.24-2.8l2.5-1.18c.14.58.37,1.07.67,1.49.3.42.7.73,1.2.95s1.11.32,1.85.32c.62,0,1.15-.11,1.58-.34.43-.22.76-.54,1-.94.23-.4.35-.86.35-1.37s-.1-.97-.3-1.32c-.2-.35-.51-.61-.94-.77s-.96-.24-1.62-.24c-.19,0-.39,0-.59.01-.2,0-.41.03-.64.06v-2.16c.14.02.28.03.42.04.14,0,.27.01.4.01,1.04,0,1.78-.21,2.23-.62.45-.42.67-1.06.67-1.94,0-.75-.23-1.33-.68-1.73s-1.11-.6-1.96-.6-1.56.2-2.05.61c-.49.41-.86,1-1.12,1.76l-2.35-.98c.22-.74.6-1.38,1.13-1.92.53-.54,1.18-.96,1.96-1.26.78-.3,1.63-.44,2.55-.44,1.14,0,2.08.18,2.84.55.76.37,1.33.87,1.7,1.51.38.64.56,1.35.56,2.14,0,.61-.09,1.14-.26,1.6-.18.46-.41.85-.71,1.18-.3.33-.62.58-.96.76-.34.18-.69.3-1.04.36v.05c.46.02.89.11,1.28.28.39.17.74.4,1.06.7.31.3.56.65.73,1.07.18.42.26.87.26,1.37,0,.96-.24,1.8-.72,2.52-.48.72-1.14,1.28-1.98,1.68-.84.4-1.81.6-2.92.6Z"/>
      <path class="cls-6" d="M1230.83,119.85c-1.41,0-2.56-.3-3.47-.91s-1.62-1.49-2.15-2.64l2.4-1.25c.24.77.6,1.4,1.09,1.88.49.49,1.21.73,2.17.73.67,0,1.24-.12,1.72-.37.47-.25.84-.6,1.09-1.06s.38-1,.38-1.64c0-.67-.12-1.23-.36-1.68s-.58-.79-1.03-1.02c-.45-.23-1.01-.35-1.68-.35-.46,0-.9.05-1.3.14-.4.1-.76.24-1.08.44-.32.2-.6.46-.84.78l-2.11-.41.96-8.74h9.22v2.21h-7.18l-.58,4.46-.05.26h.05c.37-.4.84-.71,1.43-.94s1.28-.34,2.08-.34c1.02,0,1.9.21,2.64.64.74.42,1.31,1.01,1.73,1.76s.62,1.62.62,2.62c0,.86-.14,1.63-.43,2.3s-.7,1.24-1.22,1.7c-.53.46-1.14.81-1.84,1.04-.7.23-1.45.35-2.27.35Z"/>
    </g>
    <g>
      <path class="cls-6" d="M1279.06,90.68c-1.49,0-2.78-.33-3.88-1-1.1-.66-1.84-1.6-2.24-2.8l2.5-1.18c.14.58.37,1.07.67,1.49.3.42.7.73,1.2.95s1.11.32,1.85.32c.62,0,1.15-.11,1.58-.34.43-.22.76-.54,1-.94.23-.4.35-.86.35-1.37s-.1-.97-.3-1.32c-.2-.35-.51-.61-.94-.77s-.96-.24-1.62-.24c-.19,0-.39,0-.59.01-.2,0-.41.03-.64.06v-2.16c.14.02.28.03.42.04.14,0,.27.01.4.01,1.04,0,1.78-.21,2.23-.62.45-.42.67-1.06.67-1.94,0-.75-.23-1.33-.68-1.73-.46-.4-1.11-.6-1.96-.6s-1.56.2-2.05.61c-.49.41-.86,1-1.12,1.76l-2.35-.98c.22-.74.6-1.38,1.13-1.92.53-.54,1.18-.96,1.96-1.26.78-.3,1.63-.44,2.56-.44,1.14,0,2.08.18,2.84.55s1.33.87,1.7,1.51c.38.64.56,1.35.56,2.14,0,.61-.09,1.14-.26,1.6s-.41.85-.71,1.18-.62.58-.96.76c-.34.18-.69.3-1.04.36v.05c.46.02.89.11,1.28.28.39.17.74.4,1.06.7.31.3.56.65.73,1.07.18.42.26.87.26,1.37,0,.96-.24,1.8-.72,2.52-.48.72-1.14,1.28-1.98,1.68-.84.4-1.81.6-2.92.6Z"/>
      <path class="cls-6" d="M1293.99,74.36c.85,0,1.6.12,2.26.35s1.23.6,1.72,1.09c.49.5.89,1.14,1.21,1.94l-2.26,1.08c-.22-.69-.58-1.23-1.07-1.63-.49-.4-1.16-.6-2.03-.6-.62,0-1.18.15-1.66.46-.48.3-.89.73-1.22,1.28-.34.55-.59,1.2-.77,1.94-.18.74-.26,1.55-.26,2.41v.43l.1.05c.18-.64.49-1.16.95-1.55.46-.39.97-.68,1.55-.88.58-.19,1.14-.29,1.7-.29,1.06,0,1.98.2,2.76.61.78.41,1.4.99,1.84,1.74.44.75.66,1.65.66,2.69s-.23,1.97-.7,2.75-1.11,1.38-1.93,1.8c-.83.42-1.81.64-2.96.64-1.34,0-2.49-.34-3.43-1.01-.95-.67-1.67-1.62-2.16-2.83-.5-1.22-.74-2.64-.74-4.27,0-1.81.28-3.32.85-4.54.57-1.22,1.34-2.13,2.32-2.75.98-.62,2.07-.92,3.29-.92ZM1293.82,82.59c-.61,0-1.14.12-1.61.37-.46.25-.83.59-1.09,1.02s-.4.94-.4,1.51.14,1.06.42,1.51c.28.45.65.8,1.12,1.07.46.26.98.4,1.56.4.98,0,1.74-.26,2.28-.79.54-.53.82-1.26.82-2.18,0-.59-.12-1.11-.36-1.55-.24-.44-.59-.78-1.04-1.01s-1.02-.35-1.69-.35Z"/>
    </g>
    <g>
      <path class="cls-6" d="M1280.26,79.81c-1.49,0-2.78-.33-3.88-1s-1.84-1.6-2.24-2.8l2.5-1.18c.14.58.37,1.07.67,1.49.3.42.7.73,1.2.95s1.11.32,1.85.32c.62,0,1.15-.11,1.58-.34.43-.22.76-.54,1-.94.23-.4.35-.86.35-1.37s-.1-.97-.3-1.32c-.2-.35-.51-.61-.94-.77s-.96-.24-1.62-.24c-.19,0-.39,0-.59.01-.2,0-.41.03-.63.06v-2.16c.14.02.28.03.42.04.13,0,.27.01.4.01,1.04,0,1.78-.21,2.23-.62.45-.42.67-1.06.67-1.94,0-.75-.23-1.33-.68-1.73-.46-.4-1.11-.6-1.96-.6s-1.56.2-2.05.61c-.49.41-.86,1-1.12,1.76l-2.35-.98c.22-.74.6-1.38,1.13-1.92s1.18-.96,1.96-1.26c.78-.3,1.63-.44,2.56-.44,1.14,0,2.08.18,2.84.55s1.33.87,1.71,1.51c.38.64.56,1.35.56,2.14,0,.61-.09,1.14-.26,1.6s-.41.85-.71,1.18c-.3.33-.62.58-.96.76-.34.18-.69.3-1.04.36v.05c.46.02.89.11,1.28.28s.74.4,1.06.7c.31.3.55.65.73,1.07.18.42.26.87.26,1.37,0,.96-.24,1.8-.72,2.52-.48.72-1.14,1.28-1.98,1.68-.84.4-1.81.6-2.92.6Z"/>
      <path class="cls-6" d="M1287.34,63.73h12.07v2.14c-1.33,1.38-2.4,2.79-3.21,4.24-.82,1.45-1.4,2.95-1.76,4.51s-.54,3.21-.54,4.96h-2.59c0-1.76.22-3.48.66-5.15.44-1.67,1.11-3.27,2.02-4.8.9-1.53,2.04-2.96,3.42-4.31l.48.65h-10.54v-2.23Z"/>
    </g>
    <g>
      <path class="cls-6" d="M1140.25,197.34c-1.49,0-2.78-.33-3.88-1-1.1-.66-1.84-1.6-2.24-2.8l2.5-1.18c.14.58.37,1.07.67,1.49.3.42.7.73,1.2.95s1.11.32,1.85.32c.62,0,1.15-.11,1.58-.34.43-.22.76-.54,1-.94.23-.4.35-.86.35-1.37s-.1-.97-.3-1.32c-.2-.35-.51-.61-.94-.77s-.96-.24-1.62-.24c-.19,0-.39,0-.59.01-.2,0-.41.03-.64.06v-2.16c.14.02.28.03.42.04.14,0,.27.01.4.01,1.04,0,1.78-.21,2.23-.62.45-.42.67-1.06.67-1.94,0-.75-.23-1.33-.68-1.73-.46-.4-1.11-.6-1.96-.6s-1.56.2-2.05.61c-.49.41-.86,1-1.12,1.76l-2.35-.98c.22-.74.6-1.38,1.13-1.92.53-.54,1.18-.96,1.96-1.26.78-.3,1.63-.44,2.56-.44,1.14,0,2.08.18,2.84.55s1.33.87,1.7,1.51c.38.64.56,1.35.56,2.14,0,.61-.09,1.14-.26,1.6s-.41.85-.71,1.18-.62.58-.96.76c-.34.18-.69.3-1.04.36v.05c.46.02.89.11,1.28.28.39.17.74.4,1.06.7.31.3.56.65.73,1.07.18.42.26.87.26,1.37,0,.96-.24,1.8-.72,2.52-.48.72-1.14,1.28-1.98,1.68-.84.4-1.81.6-2.92.6Z"/>
      <path class="cls-6" d="M1154.72,181.04c1.07,0,2,.17,2.79.52.79.34,1.4.83,1.84,1.45.43.62.65,1.38.65,2.26,0,.82-.2,1.53-.59,2.15-.39.62-.96,1.08-1.72,1.4v.02c.91.34,1.64.84,2.17,1.5s.8,1.48.8,2.46-.24,1.75-.73,2.42c-.49.67-1.18,1.19-2.06,1.56-.89.37-1.94.55-3.16.55s-2.27-.18-3.16-.55c-.89-.37-1.58-.89-2.08-1.56s-.74-1.48-.74-2.42.26-1.78.79-2.45c.53-.67,1.26-1.18,2.21-1.51v-.02c-.72-.3-1.29-.76-1.7-1.38-.42-.62-.62-1.34-.62-2.17,0-.88.22-1.63.65-2.26s1.05-1.11,1.85-1.45c.8-.34,1.74-.52,2.81-.52ZM1154.72,195.18c.7,0,1.3-.1,1.8-.31.5-.21.88-.51,1.15-.91.27-.4.41-.86.41-1.39,0-.56-.14-1.04-.42-1.43s-.67-.69-1.16-.9-1.09-.31-1.78-.31-1.26.1-1.78.31c-.51.21-.91.51-1.19.9-.28.39-.42.87-.42,1.43,0,.53.14.99.41,1.39.27.4.66.7,1.18.91s1.11.31,1.8.31ZM1154.72,183.2c-.85,0-1.52.21-2.03.62s-.76.98-.76,1.7.26,1.28.77,1.69,1.18.61,2.02.61,1.5-.2,2-.61.76-.97.76-1.69-.25-1.29-.74-1.7-1.17-.62-2.02-.62Z"/>
    </g>
    <g>
      <path class="cls-6" d="M1165.22,202.15c-1.49,0-2.78-.33-3.88-1s-1.84-1.6-2.24-2.8l2.5-1.18c.14.58.37,1.07.67,1.49.3.42.7.73,1.2.95s1.11.32,1.85.32c.62,0,1.15-.11,1.58-.34.43-.22.76-.54,1-.94.23-.4.35-.86.35-1.37s-.1-.97-.3-1.32c-.2-.35-.51-.61-.94-.77s-.96-.24-1.62-.24c-.19,0-.39,0-.59.01-.2,0-.41.03-.64.06v-2.16c.14.02.28.03.42.04.14,0,.27.01.4.01,1.04,0,1.78-.21,2.23-.62s.67-1.06.67-1.94c0-.75-.23-1.33-.68-1.73-.46-.4-1.11-.6-1.96-.6s-1.56.2-2.05.61-.86,1-1.12,1.76l-2.35-.98c.22-.74.6-1.38,1.13-1.92.53-.54,1.18-.96,1.96-1.26.78-.3,1.63-.44,2.55-.44,1.14,0,2.08.18,2.84.55.76.37,1.33.87,1.7,1.51.38.64.56,1.35.56,2.14,0,.61-.09,1.14-.26,1.6-.18.46-.41.85-.71,1.18-.3.33-.62.58-.96.76-.34.18-.69.3-1.04.36v.05c.46.02.89.11,1.28.28.39.17.74.4,1.06.7.31.3.56.65.73,1.07.18.42.26.87.26,1.37,0,.96-.24,1.8-.72,2.52-.48.72-1.14,1.28-1.98,1.68-.84.4-1.81.6-2.92.6Z"/>
      <path class="cls-6" d="M1179.36,185.83c1.36,0,2.51.34,3.44,1.01.94.67,1.64,1.62,2.11,2.83.47,1.22.71,2.65.71,4.3,0,1.82-.25,3.34-.74,4.55-.5,1.21-1.21,2.12-2.14,2.72-.93.61-2.05.91-3.36.91s-2.5-.3-3.46-.89-1.68-1.48-2.16-2.66l2.42-1.13c.22.75.6,1.35,1.12,1.8s1.23.67,2.12.67c.74,0,1.35-.14,1.85-.43s.89-.7,1.19-1.25.51-1.2.64-1.97c.13-.77.19-1.63.19-2.59v-.26h-.1c-.18.64-.49,1.16-.95,1.56-.46.4-.97.69-1.55.88-.58.18-1.15.28-1.73.28-1.03,0-1.93-.2-2.72-.61-.79-.41-1.41-.98-1.86-1.72-.45-.74-.67-1.61-.67-2.62,0-1.1.23-2.06.68-2.86.46-.8,1.1-1.42,1.94-1.86.84-.44,1.84-.66,3.01-.66ZM1179.38,188.08c-1.01,0-1.78.27-2.32.82-.54.54-.8,1.3-.8,2.28,0,.86.28,1.54.85,2.03.57.49,1.32.73,2.27.73.61,0,1.14-.12,1.61-.37.46-.25.83-.59,1.09-1.02.26-.43.4-.94.4-1.51,0-.61-.13-1.13-.4-1.57-.26-.44-.63-.78-1.09-1.02-.46-.24-1-.36-1.61-.36Z"/>
    </g>
  </g>
  <path class="cls-4" d="M1446.37,944.74s0-.03,0-.04c-.03,0-.06,0-.08,0l.08.04Z"/>
  <path class="cls-4" d="M1357.15,948.83h0s.05.05.07.08l-.07-.08Z"/>
  <path class="cls-4" d="M1005.94,947.71s0,0,0-.01c-.02-.02-.05-.03-.07-.05l.07.06Z"/>
  <path class="cls-4" d="M1378.46,958.9l.07.07s0,0,.01-.01c0,0-.09-.05-.09-.06Z"/>
  <path class="cls-4" d="M1374.38,955.92s-.04.03-.06.05c0,.01,0,.02,0,.04l.06-.08Z"/>
  <path class="cls-4" d="M1385.42,956.95s0,.01,0,.02c0,0,0-.01,0-.02h-.01Z"/>
  <polyline class="cls-1" points="1101.99 205 1127.9 195.99 1114.34 164.55 1109.49 166.35 1111.19 170.08 1099.91 186.19 1068.63 166.98 1043.12 159.49 1064.74 130.19 1066.95 129.44 1062.28 121.11 1086.35 111.1 1104.9 126.14 1117.34 134.46 1132.66 131.56 1148.1 130 1173.13 169.36 1148.18 164.55 1286.87 57.89 1238.13 49.81 1204.14 62.02 1176.22 103.6 1203.32 149.46 1224.51 87.23 1299.17 129.84 1173.14 203.5 1210.74 204.95 1249.22 178.7 1249.22 236.43 1266.63 301.75 1418.93 274.18 1284.37 239.23 1343.32 219.99 1386.97 169.21 1426.43 125.22 1401.84 78.08 1396.5 65.59 1372.71 37.57 1319.01 23.15 1286.9 47.02"/>
  <g class="cls-3">
    <g>
      <path class="cls-5" d="M1301.59,316.5c-16.87-5.92-13.24-13.47-29.42-21.08-2.46,3.87-1.61,7.82-1.61,7.86-.05-.44-1.54-1.5-1.73-2.33-1.25-5.48-3.49-15.13,2.44-23.63,3.02-4.33,8.08-5.74,10.78-7.82.39-.3-.99-2.5-.58-2.82.07-.3,2.23.46,2.29.19.27-1.14-1.14-1.95-.72-3.38-2.78-.73-5.21-.65-7.13-1.47-.55-.24-.65-.31-1.12-.5-6-.34-10.26-4.65-13-6.1-21.95.21-35.68,22.27-45.1,2.44-9.19-19.35,18.76-13.53,33.21-29.34.67-3.86,1.49-10.58,6.97-15.93,4.45-4.35,9.59-5.63,13.81-6.44.52-2.12-.02-5.19,1.19-7.57-2.67,1.49-5.28,1.06-8.38,1.06,0,0-.84-.01-.84-.01-2,3.02-4.26,6.45-8.58,8.84-.42.3-.06,2.78-.7,3.32-3.2,2.7-8.85,4.42-15.06,6.19-4.87,1.39-9.45,1.74-13.28,1.87-1.43.05-2.98-1.51-3.91-1.41-10.35,1.11-16.37-4-20.12-7.47,0,0-.99,2.05-.99,2.04-2.7-.54-4.64-2.15-6.48-2.88-4.43,2.15-11.59,3.13-20.26-.92-.39-.18-1.49-.68-2.3-.96-1.79-.62-4.49.03-6.81-1.09-3.4,6.35-9.24,14.48-20.15,15.37-10.6.85-19.64-5.24-24.33-8.53-.36-.25.04-1.8-.26-2-6.99-3.39-13.26-7.34-17.55-14.53-1.42-2.37-2.29-5.27-2.81-7.6-1.89-.02-4.8,1.85-6.07,1.69-.18-.02.12.26-.08.24-6.12,2.11-11.98,1.17-17,1.09-.59.29-2.08-.76-2.6-.49-5.81,3.02-16.41,11.22-27.44,4.73-8.02-4.72-15.32-16.01-19.55-24-4.85-9.16-5.79-18.52-4.22-24.86.27-1.1,1.35-2.25,1.48-3.04-.06-.91,1.26-2.33,1.07-3.61-.81-5.6-3.85-13.9-.88-21.8.26-.68.23-.69.49-1.37,2.32-6.22,6.1-13.97,10.95-20.27,5.55-7.21,14.83-8.09,20.21-9.73,1.05-.32,1.35-3.39,1.98-3.65,10.85-6.37,22.2-.77,26.56,1.13.47.21.75,1.82,1.15,1.98,6.13.62,9.63,1.19,13.75,3.67,4.19.3,13.31.92,19.39,9.16,5.13,6.96,5.46,14.59,5.42,19.09,0,.74-2.43,2.26-2.4,2.91.38.68,4.27.34,4.77,1.1,1.39,2.11,3.05,4.79,4.32,7.88-.09-1.14-.95-1.25-.96-1.28.28.87.19,3.83.9,5.29,2.91,6.04,5.45,11.33,4.68,18.18-.11,1.02-.81,1.7-1.03,2.74,1.66-5.45,5.73-9.44,7.97-12.09.07-2.81-.46-5.74.1-9.16-.06-.16,2.78-.62,2.73-.76-1.61-4.45-5.99-12.21-2.05-21.01,3.41-7.63,9.92-10.42,15.51-11.55.7-6.65,2.84-15.3,11.91-19.19,8.69-3.73,16.85.89,21.81,2.63.39.14,1.22-.04,1.64.1,1.03-.02,2.24.03,3.38-.01,7.56-.28,18.35-1.96,25.97,5.55.14.14-1.35,2.5-1.17,2.6.08.04-.57-1.35-.6-1.43-3.86-10.23,1.5-19.83,4.56-25.61-1.61-2.46-4.39-4.91-5.65-8.28-2.98-7.98-.52-16.24,4.63-22.41,5.81-6.96,13.17-9.64,18.18-11.33.69-.23,2.17.46,2.68.26.45-.35.2-2.64.82-3.18,2.44-2.14,5.72-5.57,10.41-8.01,2.44-1.27,5.58-2.52,9.09-4.09,1.48-.66,3.45-.42,5.04-1.15,6.94-3.18,13.4-.07,17.47.58.34.05,1.2-1.37,1.56-1.31,6.43-1.59,11.44,1.23,15.24,2.49.28-.17.79-2.77,1.03-2.92,4.68-2.89,11.73-5.71,20.65-3.2,5.17,1.46,10.17,3.81,12.62,8.64,4.03,7.99,1.57,15.72-.19,20.06-.29.73-.34.99-.69,1.97,2.27,3.64,5.99,9.87,6.02,17.3.02,4.7-3.21,8.51-4.02,11.71-.28,1.09,1.84,2.78,1.78,3.37-.03,3.08-4,5.94-4.12,8.59-.1,2.12.63,4.2.6,5.98-.09,5.32-1.1,9.68-1.72,12.72-.13.64-.9,1.69-.98,2.17-.01,6.16,2.99,10.23,2.87,12.9-.04.81.53,1.51.52,2.15-.01.38-2.37,2.43-2.4,2.79.77-.18,1.64-3.44,2.5-3.67,2.13-.56,5.15.61,8.24.18.28-.12.11-1.65.37-1.77,3.82-1.76,10.58-3.93,19.09-3.77,7.8.13,12.76,5.19,16.57,7.67.25.16,1.39-1.38,1.66-1.2,2.91.12,5.43,1.06,7.55,1.63,2.41-1.91,5.62-4.14,9.81-5.39.11-.09.79.61.89.53,2.86-2.39,7.46-4.96,14.41-6.1.46-.15,1.12-2.55,1.85-2.87,2.5-1.08,5.99-2.06,10.15-2.74,10.43-1.71,16.83,4.62,19.92,7.2.27.23.73.3.99.5-1.48-1.12-6.47-3.23-11.57-2.11,5.23,16.56,7.99,15.68,17.3,30.34,2.94-2.46,2.49-5.27,2.71-6.52-.05.26-.28,1.06-.33,1.6-.47,4.43-1.18,13.61-10.89,19.4-3.45,2.06-6.19,5.27-9.43,6.64-1.41.6-3.44-.37-4.55.15-1.18.55-1.27,3.85-2.73,4.62-2.72,1.42-7.1.2-10.45,1.54-8.53,3.4-15.71,2.03-20.55-.36-2.12,1.07-4.36,2.21-7.1,3.23-3.29,1.22-6.54,1.31-9.02,1.82-.26.05.62,1.24.33,1.3-2.02,3.09-5.49,8.7-11.19,11.56-.91.46-2.45.72-3.92,1.84-2,1.52-6.11.4-8.91,2.04-5.2,3.04-9.58,4.88-14.12,4.31-1.45,3.75-3.69,7.97-7.86,11.05-3.48,2.56-6.99,3.82-9.74,5.02-.36.16.62,1.22.22,1.4-1.43,3.61-5.07,8.21-10.19,12.63-5.43,4.68-11.43,5.75-16.6,5.6-.13.41-.31,1.11-.47,1.53,1.68-.21,3.47-.35,5.34-.17,2.47.24,5.29,1.04,8.09,1.33,1.32-.92,3.23-1.24,4.38-1.97,1.06-.67.71-4.14,1.18-4.58,6.75-6.31,16.29-3.17,21.25-3.29.08,0-.45-2.94-.36-2.94,1.84-1.3,3.65-2.09,4.98-2.86,1.32-.76,3.4-1.45,4.13-2.03,8.78,8.6,5.94,11.43,14.53,20.22.62.09,2.33-2.85,2.98-2.72,3.16-.96,6.91,1.5,10.91,2.26,4.45.84,8.61.55,11.52,1.87.71.32,1.62-.18,2.27.08.48-.04.59-.11,1.08-.16,3.51-.37,9.61-1.39,15.32.36,4.04,1.24,7.63,3.81,10.46,5.3,1.39.73,2.1,2.9,3.01,3.26,9,3.54,12.64,11.33,14.42,16.73,3.51,1,7.09,2.4,10.68,4.28.94.48,2.12,1.1,3.04,1.75-9.51,15.13-11.11,14.08-20.99,28.97.2.13,1.27.69,1.46.8.02,0,.22-.38.22-.38,0,0-.18.33-.18.33,1.79.99,2.86,2.86,2.88,2.86-.57-.07-2.01.32-3.09.33-4.09.03-9.83-.3-14.92-2.34-5.85-2.35-7.2-9.74-9.33-14.2-2.14.44-5.83,1.37-8.32,1.08-.35.08-.44,2.38-.77,2.46-3.89.96-9.53-1.11-16.28-3.02-7.95-2.26-12.27-6.78-14.82-11.32-2.35.46-5.28.01-8.07-.42-3.86-.59-7.65.53-10.24-.4-1.07-.38-1.89-4.03-2.42-4.12-4.41-.58-8.49-.79-11.29-2.53-1.04,2.98-2.76,6.48-5.44,9.45-4.09,4.52-7.73,7.84-11.38,9.22-.85,3.49-4.67,6.26-8.06,10.7-2.25,2.95-1.39,6.6-3.58,8.33,1.07,5.3-.57,13.6-5.05,20.64ZM1283.5,265.37s.72,1.29.72,1.29c0-.65-.72-1.29-.72-1.29ZM1119.61,211.92s.02,2.02.04,2.03c-.01,0-.02-2.02-.04-2.03ZM1254.15,207.66s-.02,2.02-.03,2.03c.01,0,.02-2.02.03-2.03ZM1094.45,188.6s0,2.02-.01,2.02c0,0,0-2.02.01-2.02ZM1282.37,181.52c.16,2.75-.86,5.31-1.97,8.06,5.56-3.62,11.81-3.86,16.66-3.48,1.53-3.13,3.19-7.69,6.88-10.65,3.56-2.86,6.95-4.59,9.8-5.84,1.12-5.24,4.55-11.52,12.05-16.5,2.07-1.37,3.28-2.05,5.34-2.62-7.36-.08-18.27-3.4-25.5-9.59-4.4-3.77-8.67-8.08-8.92-13.68-.43-9.62,1.73-16.81,3.53-20.17,0-.02-.3.81-.3.8.11-2.58,2.3-6.03,2.3-11.74,0-3.06-.76-6.07-.23-8.71.44-2.17,4.33-4.1,4.37-6.14.04-2.31-.54-4.65-.43-6.95.12-2.49.47-5.12.49-7.59.05-4.54-1.41-8.61-.62-11.7.1-.38,1.54-.57,1.64-.99-.06-.1.18-.77.13-.86-1.43-2.28-3.85-5.13-5.04-8.97-2.67-.48-5.2.7-6.87.11-4.94.92-9.34-2.19-12.5-2.69-.07-.01-.45.22-.53.21-.67.3-2.01-.87-2.66-.58-2.87,1.29-5.2,3.5-6.72,4.29-.85.44-.74,3.45-2.04,4.59-2.23,1.96-5.62,3.87-9.36,5.83-.33.17-2.24.26-2.56.42,1.01,2.32,1.69,4.73,2.08,7.57.62,4.53,1.17,8.25-.17,11.6.36.31.99.35,1.33.69.5.36,1.67.95,2.46,1.43,4.11,2.49,8.6,6.83,12.39,13.17,4.1,6.86,2.93,13.78,1.25,19.32,4.38,2.25,8.69,5.97,11.24,12.06,3.71,8.86,2.98,16.45.22,21.71.72.92.45.41,1.18,1.52,4.29-.57,6.46-4.9,8.35-1,2.28,4.68-5,3.54-6.58,8.5,1.07,3.36,4.31,8.02,3.33,12.34-1.97,8.71-8.43,13.83-14.02,16.26ZM1144.43,185.54l.72,1.29c0-.65-.72-1.29-.72-1.29ZM1133,183.7l.72,1.29c0-.65-.72-1.29-.72-1.29ZM1207.22,175.31c7.68.49,12.45,6.7,15.93,9.87.07,0,.64.25.7.25,1.18-.04,2.65-1.3,3.78-1.4.47-.38.72-.97,1.15-1.33,1.45-1.22,4.34-1.08,6.34-2.43.08-.15-1.79-1.96-1.72-2.1,1.36-2.61,5.31-5.16,8.94-8.56.67-.63-.36-2.27.29-2.81.35-2.92.83-6.78,3.1-9.69,1.67-2.14,3.27-3.41,5.26-4.71-.65-1.73.71-2.77.48-4.81-.45-3.94-.99-6.85.07-9.97-3.92-2.22-4.72-7.04-7.09-12.34-3.28-7.33-2.28-13.11-.26-18.53-.91-.61-2.29-2.87-3.23-3.61-.19-.05-1.53,2.03-1.7,1.99-2.57-.69-5.6-2.57-8.36-4.05,1.92,2.56,3.32,6.25,4.86,9.54,5.15,10.95-1.14,19.34-5.44,24.29,1.28,3.53,4.22,8.89,2.61,14.37-.1.35-2.59.49-2.73,1.17-.82,3.88-1.84,10.15-7.13,15.79-5.47,5.84-12.53,5.36-16.45,5.99-.62.51-1.58,2.41-2.27,2.92.2.08,1.7-.35,1.88-.27.43.17.59.3.98.45ZM1134.98,180.16c.43.21-.7,1.23-.2,1.47.59.28,1.96.55,2.5.87.87-1.44,1-3.37,2.29-4.7-2.43-2.6-4.65-5.96-5.47-10.35-.52-2.79-.07-6.77.36-9.14-.66,2.42.06,6.06-.9,8.29,1.05,2.37-.65,5.15-.58,8.28.05,1.98,2.22,3.64,2,5.28ZM1130.28,177.03s.72,1.29.72,1.29c0-.65-.72-1.29-.72-1.29ZM1207.5,175.44l.72,1.29c0-.65-.72-1.29-.72-1.29ZM1059.56,159.14c.47.55-.05,2.11.5,2.68,4.12-2.06,8.81-4.02,14.73-3.77,3.81.16,4.92-1.24,6.37-1.81,3.36-1.33,6.38-1.96,9.2-2.04,1.46-2.76,4.93-4.02,6.69-5.88-.46-1.29-3.27-2.5-3.64-3.88-2.3-3.51-3.32-9.45-4.41-16.07-.17-1.03-1.97-1.05-2.05-2-1.91-.61-4.38-.64-6.36-1.95-.11-.07-.09.02-.18-.04-.02,0,.92-1.79.9-1.79-4.17-.37-7.74-.28-10.33-1.36-1.94.75-4.32-2.05-5.99-1.54-.66.2-2.03,1.63-2.76,1.87-1.35,2.58-3.24,6.84-4.22,9.46-.1.27,2.18.91,2.15,1.2.04,1.06-1.03,3.04-.83,4.42.36,2.48.3,5.24.37,8.23.1,4.61-.4,8.68-1.32,12.4-.15.61,1.37,1.17,1.21,1.88ZM1341.65,149.49c2.62.3,4.25.68,6.25,1.22,1.73-1.31,4.03-2.87,6.4-4.29-.28.04-.95-.17-1.23-.14-.96.1-1.92.61-3.76,1.1-2.14.57-4.18,1.57-7.66,2.11ZM1179.67,146.31c.43,1.34-1.15,2.37-.05,3.25.74-.4,2.25-.58,3.08-.91.96-.38.59-1.52,3.31-3.85,2.6-2.23,5.14-3.72,7.71-4.6-.49-1.51.9-2.92.66-4.78-.78-5.91-1.49-11.14,1.07-15.29-1.31.04-2.33-.1-3.74-.11-.94,3.7-1.19,8.73-4.67,11.85-2.14,1.92-3.68,3.79-6,4.66,0,1.7.34,2.63-.1,4.49-.38,1.61-1.21,2.66-1.27,5.28ZM1263.6,140.22s.72,1.29.72,1.29c0-.65-.72-1.29-.72-1.29ZM1227.07,138.08l.72,1.29c0-.65-.72-1.29-.72-1.29ZM1128.97,132.75l.72,1.29c0-.65-.72-1.29-.72-1.29ZM1060.2,133.46s-1.88-.71-1.89-.7c0,0,1.88.71,1.89.7ZM1061.87,121.64l.72,1.29c0-.65-.72-1.29-.72-1.29ZM1122.95,120.44l.72,1.29c0-.65-.72-1.29-.72-1.29ZM1203.39,119.13l.72,1.29c0-.65-.72-1.29-.72-1.29ZM1177.93,116l.72,1.29c0-.65-.72-1.29-.72-1.29ZM1076.56,115.92s0,2.02-.01,2.02c0,0,0-2.02.01-2.02ZM1196.42,117.96s.43-1.4.44-1.39c-.46.46-.42,1.41-.44,1.39ZM1248.99,109.12l.72,1.29c0-.65-.72-1.29-.72-1.29ZM1349.42,109s-.73,1.29-.73,1.29c0,0,.73-1.29.73-1.29ZM1406.1,106.33s-.01,2.01-.02,2.02c0,0,.01-2.01.02-2.02ZM1417.77,99.31l.72,1.29c0-.65-.72-1.29-.72-1.29ZM1418.15,99.24s0,2.01,0,2.01c0,0,0-2.01,0-2.01ZM1057.18,86.39s1.29-.72,1.29-.72c-.65,0-1.29.72-1.29.72ZM1262.58,75.52s0,2.02,0,2.02c0,0,0-2.02,0-2.02ZM1340.55,65.78v2.02-2.02ZM1250.66,58.53l.72,1.29c0-.65-.72-1.29-.72-1.29ZM1307.32,50.78l.72,1.29c0-.65-.72-1.29-.72-1.29ZM1335.57,37.31s1.29-.72,1.29-.72c-.65,0-1.29.72-1.29.72ZM1287.27,6.69s-.01,2.02-.02,2.02c0,0,.01-2.02.02-2.02Z"/>
      <path class="cls-2" d="M1301.59,316.5c-16.87-5.92-13.24-13.47-29.42-21.08-2.46,3.87-1.61,7.82-1.61,7.86-.05-.44-1.54-1.5-1.73-2.33-1.25-5.48-3.49-15.13,2.44-23.63,3.02-4.33,8.08-5.74,10.78-7.82.39-.3-.99-2.5-.58-2.82.07-.3,2.23.46,2.29.19.27-1.14-1.14-1.95-.72-3.38-2.78-.73-5.21-.65-7.13-1.47-.55-.24-.65-.31-1.12-.5-6-.34-10.26-4.65-13-6.1-21.95.21-35.68,22.27-45.1,2.44-9.19-19.35,18.76-13.53,33.21-29.34.67-3.86,1.49-10.58,6.97-15.93,4.45-4.35,9.59-5.63,13.81-6.44.52-2.12-.02-5.19,1.19-7.57-2.67,1.49-5.28,1.06-8.38,1.06,0,0-.84-.01-.84-.01-2,3.02-4.26,6.45-8.58,8.84-.42.3-.06,2.78-.7,3.32-3.2,2.7-8.85,4.42-15.06,6.19-4.87,1.39-9.45,1.74-13.28,1.87-1.43.05-2.98-1.51-3.91-1.41-10.35,1.11-16.37-4-20.12-7.47,0,0-.99,2.05-.99,2.04-2.7-.54-4.64-2.15-6.48-2.88-4.43,2.15-11.59,3.13-20.26-.92-.39-.18-1.49-.68-2.3-.96-1.79-.62-4.49.03-6.81-1.09-3.4,6.35-9.24,14.48-20.15,15.37-10.6.85-19.64-5.24-24.33-8.53-.36-.25.04-1.8-.26-2-6.99-3.39-13.26-7.34-17.55-14.53-1.42-2.37-2.29-5.27-2.81-7.6-1.89-.02-4.8,1.85-6.07,1.69-.18-.02.12.26-.08.24-6.12,2.11-11.98,1.17-17,1.09-.59.29-2.08-.76-2.6-.49-5.81,3.02-16.41,11.22-27.44,4.73-8.02-4.72-15.32-16.01-19.55-24-4.85-9.16-5.79-18.52-4.22-24.86.27-1.1,1.35-2.25,1.48-3.04-.06-.91,1.26-2.33,1.07-3.61-.81-5.6-3.85-13.9-.88-21.8.26-.68.23-.69.49-1.37,2.32-6.22,6.1-13.97,10.95-20.27,5.55-7.21,14.83-8.09,20.21-9.73,1.05-.32,1.35-3.39,1.98-3.65,10.85-6.37,22.2-.77,26.56,1.13.47.21.75,1.82,1.15,1.98,6.13.62,9.63,1.19,13.75,3.67,4.19.3,13.31.92,19.39,9.16,5.13,6.96,5.46,14.59,5.42,19.09,0,.74-2.43,2.26-2.4,2.91.38.68,4.27.34,4.77,1.1,1.39,2.11,3.05,4.79,4.32,7.88-.09-1.14-.95-1.25-.96-1.28.28.87.19,3.83.9,5.29,2.91,6.04,5.45,11.33,4.68,18.18-.11,1.02-.81,1.7-1.03,2.74,1.66-5.45,5.73-9.44,7.97-12.09.07-2.81-.46-5.74.1-9.16-.06-.16,2.78-.62,2.73-.76-1.61-4.45-5.99-12.21-2.05-21.01,3.41-7.63,9.92-10.42,15.51-11.55.7-6.65,2.84-15.3,11.91-19.19,8.69-3.73,16.85.89,21.81,2.63.39.14,1.22-.04,1.64.1,1.03-.02,2.24.03,3.38-.01,7.56-.28,18.35-1.96,25.97,5.55.14.14-1.35,2.5-1.17,2.6.08.04-.57-1.35-.6-1.43-3.86-10.23,1.5-19.83,4.56-25.61-1.61-2.46-4.39-4.91-5.65-8.28-2.98-7.98-.52-16.24,4.63-22.41,5.81-6.96,13.17-9.64,18.18-11.33.69-.23,2.17.46,2.68.26.45-.35.2-2.64.82-3.18,2.44-2.14,5.72-5.57,10.41-8.01,2.44-1.27,5.58-2.52,9.09-4.09,1.48-.66,3.45-.42,5.04-1.15,6.94-3.18,13.4-.07,17.47.58.34.05,1.2-1.37,1.56-1.31,6.43-1.59,11.44,1.23,15.24,2.49.28-.17.79-2.77,1.03-2.92,4.68-2.89,11.73-5.71,20.65-3.2,5.17,1.46,10.17,3.81,12.62,8.64,4.03,7.99,1.57,15.72-.19,20.06-.29.73-.34.99-.69,1.97,2.27,3.64,5.99,9.87,6.02,17.3.02,4.7-3.21,8.51-4.02,11.71-.28,1.09,1.84,2.78,1.78,3.37-.03,3.08-4,5.94-4.12,8.59-.1,2.12.63,4.2.6,5.98-.09,5.32-1.1,9.68-1.72,12.72-.13.64-.9,1.69-.98,2.17-.01,6.16,2.99,10.23,2.87,12.9-.04.81.53,1.51.52,2.15-.01.38-2.37,2.43-2.4,2.79.77-.18,1.64-3.44,2.5-3.67,2.13-.56,5.15.61,8.24.18.28-.12.11-1.65.37-1.77,3.82-1.76,10.58-3.93,19.09-3.77,7.8.13,12.76,5.19,16.57,7.67.25.16,1.39-1.38,1.66-1.2,2.91.12,5.43,1.06,7.55,1.63,2.41-1.91,5.62-4.14,9.81-5.39.11-.09.79.61.89.53,2.86-2.39,7.46-4.96,14.41-6.1.46-.15,1.12-2.55,1.85-2.87,2.5-1.08,5.99-2.06,10.15-2.74,10.43-1.71,16.83,4.62,19.92,7.2.27.23.73.3.99.5-1.48-1.12-6.47-3.23-11.57-2.11,5.23,16.56,7.99,15.68,17.3,30.34,2.94-2.46,2.49-5.27,2.71-6.52-.05.26-.28,1.06-.33,1.6-.47,4.43-1.18,13.61-10.89,19.4-3.45,2.06-6.19,5.27-9.43,6.64-1.41.6-3.44-.37-4.55.15-1.18.55-1.27,3.85-2.73,4.62-2.72,1.42-7.1.2-10.45,1.54-8.53,3.4-15.71,2.03-20.55-.36-2.12,1.07-4.36,2.21-7.1,3.23-3.29,1.22-6.54,1.31-9.02,1.82-.26.05.62,1.24.33,1.3-2.02,3.09-5.49,8.7-11.19,11.56-.91.46-2.45.72-3.92,1.84-2,1.52-6.11.4-8.91,2.04-5.2,3.04-9.58,4.88-14.12,4.31-1.45,3.75-3.69,7.97-7.86,11.05-3.48,2.56-6.99,3.82-9.74,5.02-.36.16.62,1.22.22,1.4-1.43,3.61-5.07,8.21-10.19,12.63-5.43,4.68-11.43,5.75-16.6,5.6-.13.41-.31,1.11-.47,1.53,1.68-.21,3.47-.35,5.34-.17,2.47.24,5.29,1.04,8.09,1.33,1.32-.92,3.23-1.24,4.38-1.97,1.06-.67.71-4.14,1.18-4.58,6.75-6.31,16.29-3.17,21.25-3.29.08,0-.45-2.94-.36-2.94,1.84-1.3,3.65-2.09,4.98-2.86,1.32-.76,3.4-1.45,4.13-2.03,8.78,8.6,5.94,11.43,14.53,20.22.62.09,2.33-2.85,2.98-2.72,3.16-.96,6.91,1.5,10.91,2.26,4.45.84,8.61.55,11.52,1.87.71.32,1.62-.18,2.27.08.48-.04.59-.11,1.08-.16,3.51-.37,9.61-1.39,15.32.36,4.04,1.24,7.63,3.81,10.46,5.3,1.39.73,2.1,2.9,3.01,3.26,9,3.54,12.64,11.33,14.42,16.73,3.51,1,7.09,2.4,10.68,4.28.94.48,2.12,1.1,3.04,1.75-9.51,15.13-11.11,14.08-20.99,28.97.2.13,1.27.69,1.46.8.02,0,.22-.38.22-.38,0,0-.18.33-.18.33,1.79.99,2.86,2.86,2.88,2.86-.57-.07-2.01.32-3.09.33-4.09.03-9.83-.3-14.92-2.34-5.85-2.35-7.2-9.74-9.33-14.2-2.14.44-5.83,1.37-8.32,1.08-.35.08-.44,2.38-.77,2.46-3.89.96-9.53-1.11-16.28-3.02-7.95-2.26-12.27-6.78-14.82-11.32-2.35.46-5.28.01-8.07-.42-3.86-.59-7.65.53-10.24-.4-1.07-.38-1.89-4.03-2.42-4.12-4.41-.58-8.49-.79-11.29-2.53-1.04,2.98-2.76,6.48-5.44,9.45-4.09,4.52-7.73,7.84-11.38,9.22-.85,3.49-4.67,6.26-8.06,10.7-2.25,2.95-1.39,6.6-3.58,8.33,1.07,5.3-.57,13.6-5.05,20.64ZM1283.5,265.37s.72,1.29.72,1.29c0-.65-.72-1.29-.72-1.29ZM1119.61,211.92s.02,2.02.04,2.03c-.01,0-.02-2.02-.04-2.03ZM1254.15,207.66s-.02,2.02-.03,2.03c.01,0,.02-2.02.03-2.03ZM1094.45,188.6s0,2.02-.01,2.02c0,0,0-2.02.01-2.02ZM1282.37,181.52c.16,2.75-.86,5.31-1.97,8.06,5.56-3.62,11.81-3.86,16.66-3.48,1.53-3.13,3.19-7.69,6.88-10.65,3.56-2.86,6.95-4.59,9.8-5.84,1.12-5.24,4.55-11.52,12.05-16.5,2.07-1.37,3.28-2.05,5.34-2.62-7.36-.08-18.27-3.4-25.5-9.59-4.4-3.77-8.67-8.08-8.92-13.68-.43-9.62,1.73-16.81,3.53-20.17,0-.02-.3.81-.3.8.11-2.58,2.3-6.03,2.3-11.74,0-3.06-.76-6.07-.23-8.71.44-2.17,4.33-4.1,4.37-6.14.04-2.31-.54-4.65-.43-6.95.12-2.49.47-5.12.49-7.59.05-4.54-1.41-8.61-.62-11.7.1-.38,1.54-.57,1.64-.99-.06-.1.18-.77.13-.86-1.43-2.28-3.85-5.13-5.04-8.97-2.67-.48-5.2.7-6.87.11-4.94.92-9.34-2.19-12.5-2.69-.07-.01-.45.22-.53.21-.67.3-2.01-.87-2.66-.58-2.87,1.29-5.2,3.5-6.72,4.29-.85.44-.74,3.45-2.04,4.59-2.23,1.96-5.62,3.87-9.36,5.83-.33.17-2.24.26-2.56.42,1.01,2.32,1.69,4.73,2.08,7.57.62,4.53,1.17,8.25-.17,11.6.36.31.99.35,1.33.69.5.36,1.67.95,2.46,1.43,4.11,2.49,8.6,6.83,12.39,13.17,4.1,6.86,2.93,13.78,1.25,19.32,4.38,2.25,8.69,5.97,11.24,12.06,3.71,8.86,2.98,16.45.22,21.71.72.92.45.41,1.18,1.52,4.29-.57,6.46-4.9,8.35-1,2.28,4.68-5,3.54-6.58,8.5,1.07,3.36,4.31,8.02,3.33,12.34-1.97,8.71-8.43,13.83-14.02,16.26ZM1144.43,185.54l.72,1.29c0-.65-.72-1.29-.72-1.29ZM1133,183.7l.72,1.29c0-.65-.72-1.29-.72-1.29ZM1207.22,175.31c7.68.49,12.45,6.7,15.93,9.87.07,0,.64.25.7.25,1.18-.04,2.65-1.3,3.78-1.4.47-.38.72-.97,1.15-1.33,1.45-1.22,4.34-1.08,6.34-2.43.08-.15-1.79-1.96-1.72-2.1,1.36-2.61,5.31-5.16,8.94-8.56.67-.63-.36-2.27.29-2.81.35-2.92.83-6.78,3.1-9.69,1.67-2.14,3.27-3.41,5.26-4.71-.65-1.73.71-2.77.48-4.81-.45-3.94-.99-6.85.07-9.97-3.92-2.22-4.72-7.04-7.09-12.34-3.28-7.33-2.28-13.11-.26-18.53-.91-.61-2.29-2.87-3.23-3.61-.19-.05-1.53,2.03-1.7,1.99-2.57-.69-5.6-2.57-8.36-4.05,1.92,2.56,3.32,6.25,4.86,9.54,5.15,10.95-1.14,19.34-5.44,24.29,1.28,3.53,4.22,8.89,2.61,14.37-.1.35-2.59.49-2.73,1.17-.82,3.88-1.84,10.15-7.13,15.79-5.47,5.84-12.53,5.36-16.45,5.99-.62.51-1.58,2.41-2.27,2.92.2.08,1.7-.35,1.88-.27.43.17.59.3.98.45ZM1134.98,180.16c.43.21-.7,1.23-.2,1.47.59.28,1.96.55,2.5.87.87-1.44,1-3.37,2.29-4.7-2.43-2.6-4.65-5.96-5.47-10.35-.52-2.79-.07-6.77.36-9.14-.66,2.42.06,6.06-.9,8.29,1.05,2.37-.65,5.15-.58,8.28.05,1.98,2.22,3.64,2,5.28ZM1130.28,177.03s.72,1.29.72,1.29c0-.65-.72-1.29-.72-1.29ZM1207.5,175.44l.72,1.29c0-.65-.72-1.29-.72-1.29ZM1059.56,159.14c.47.55-.05,2.11.5,2.68,4.12-2.06,8.81-4.02,14.73-3.77,3.81.16,4.92-1.24,6.37-1.81,3.36-1.33,6.38-1.96,9.2-2.04,1.46-2.76,4.93-4.02,6.69-5.88-.46-1.29-3.27-2.5-3.64-3.88-2.3-3.51-3.32-9.45-4.41-16.07-.17-1.03-1.97-1.05-2.05-2-1.91-.61-4.38-.64-6.36-1.95-.11-.07-.09.02-.18-.04-.02,0,.92-1.79.9-1.79-4.17-.37-7.74-.28-10.33-1.36-1.94.75-4.32-2.05-5.99-1.54-.66.2-2.03,1.63-2.76,1.87-1.35,2.58-3.24,6.84-4.22,9.46-.1.27,2.18.91,2.15,1.2.04,1.06-1.03,3.04-.83,4.42.36,2.48.3,5.24.37,8.23.1,4.61-.4,8.68-1.32,12.4-.15.61,1.37,1.17,1.21,1.88ZM1341.65,149.49c2.62.3,4.25.68,6.25,1.22,1.73-1.31,4.03-2.87,6.4-4.29-.28.04-.95-.17-1.23-.14-.96.1-1.92.61-3.76,1.1-2.14.57-4.18,1.57-7.66,2.11ZM1179.67,146.31c.43,1.34-1.15,2.37-.05,3.25.74-.4,2.25-.58,3.08-.91.96-.38.59-1.52,3.31-3.85,2.6-2.23,5.14-3.72,7.71-4.6-.49-1.51.9-2.92.66-4.78-.78-5.91-1.49-11.14,1.07-15.29-1.31.04-2.33-.1-3.74-.11-.94,3.7-1.19,8.73-4.67,11.85-2.14,1.92-3.68,3.79-6,4.66,0,1.7.34,2.63-.1,4.49-.38,1.61-1.21,2.66-1.27,5.28ZM1263.6,140.22s.72,1.29.72,1.29c0-.65-.72-1.29-.72-1.29ZM1227.07,138.08l.72,1.29c0-.65-.72-1.29-.72-1.29ZM1128.97,132.75l.72,1.29c0-.65-.72-1.29-.72-1.29ZM1060.2,133.46s-1.88-.71-1.89-.7c0,0,1.88.71,1.89.7ZM1061.87,121.64l.72,1.29c0-.65-.72-1.29-.72-1.29ZM1122.95,120.44l.72,1.29c0-.65-.72-1.29-.72-1.29ZM1203.39,119.13l.72,1.29c0-.65-.72-1.29-.72-1.29ZM1177.93,116l.72,1.29c0-.65-.72-1.29-.72-1.29ZM1076.56,115.92s0,2.02-.01,2.02c0,0,0-2.02.01-2.02ZM1196.42,117.96s.43-1.4.44-1.39c-.46.46-.42,1.41-.44,1.39ZM1248.99,109.12l.72,1.29c0-.65-.72-1.29-.72-1.29ZM1349.42,109s-.73,1.29-.73,1.29c0,0,.73-1.29.73-1.29ZM1406.1,106.33s-.01,2.01-.02,2.02c0,0,.01-2.01.02-2.02ZM1417.77,99.31l.72,1.29c0-.65-.72-1.29-.72-1.29ZM1418.15,99.24s0,2.01,0,2.01c0,0,0-2.01,0-2.01ZM1057.18,86.39s1.29-.72,1.29-.72c-.65,0-1.29.72-1.29.72ZM1262.58,75.52s0,2.02,0,2.02c0,0,0-2.02,0-2.02ZM1340.55,65.78v2.02-2.02ZM1250.66,58.53l.72,1.29c0-.65-.72-1.29-.72-1.29ZM1307.32,50.78l.72,1.29c0-.65-.72-1.29-.72-1.29ZM1335.57,37.31s1.29-.72,1.29-.72c-.65,0-1.29.72-1.29.72ZM1287.27,6.69s-.01,2.02-.02,2.02c0,0,.01-2.02.02-2.02Z"/>
    </g>
  </g>
</svg>