<?xml version="1.0" encoding="UTF-8"?>
<svg id="Layer_1" data-name="Layer 1" xmlns="http://www.w3.org/2000/svg" xmlns:xlink="http://www.w3.org/1999/xlink" viewBox="0 0 1920 1080">
  <defs>
    <style>
      .cls-1 {
        stroke-width: 3px;
      }

      .cls-1, .cls-2 {
        fill: none;
        stroke: #8b8332;
        stroke-miterlimit: 10;
      }

      .cls-2 {
        stroke-width: 2.98px;
      }

      .cls-3 {
        opacity: .9;
      }

      .cls-4, .cls-5, .cls-6 {
        stroke-width: 0px;
      }

      .cls-5 {
        fill: #d0dbdc;
      }

      .cls-6 {
        fill: #8b8332;
      }
    </style>
    <symbol id="Anchor_2" data-name="Anchor 2" viewBox="0 0 15 15">
      <g>
        <path class="cls-6" d="M7.5,13c-1.47,0-2.85-.57-3.89-1.61-1.04-1.04-1.61-2.42-1.61-3.89s.57-2.85,1.61-3.89c1.04-1.04,2.42-1.61,3.89-1.61s2.85.57,3.89,1.61c1.04,1.04,1.61,2.42,1.61,3.89s-.57,2.85-1.61,3.89c-1.04,1.04-2.42,1.61-3.89,1.61Z"/>
        <path class="cls-6" d="M7.5,4c.93,0,1.81.36,2.48,1.03s1.02,1.54,1.02,2.47-.36,1.81-1.03,2.47c-.66.66-1.54,1.02-2.47,1.02s-1.81-.36-2.47-1.02c-.66-.66-1.03-1.54-1.03-2.47s.36-1.81,1.03-2.48,1.54-1.02,2.47-1.02M7.5,0c-1.92,0-3.84.73-5.3,2.2-2.93,2.93-2.93,7.68,0,10.61,1.46,1.46,3.38,2.2,5.3,2.2s3.84-.73,5.3-2.2c2.93-2.93,2.93-7.68,0-10.61-1.46-1.46-3.38-2.2-5.3-2.2h0Z"/>
      </g>
    </symbol>
  </defs>
  <g>
    <path class="cls-4" d="M1378.46,978.9l.07.07s0,0,.01-.01c0,0-.09-.05-.09-.06Z"/>
    <path class="cls-4" d="M1374.38,975.92s-.04.03-.06.05c0,.01,0,.02,0,.04l.06-.08Z"/>
    <path class="cls-4" d="M1385.42,976.95s0,.01,0,.02c0,0,0-.01,0-.02h-.01Z"/>
  </g>
  <g>
    <path class="cls-6" d="M1110.74,202.63v-10.87c0-.32,0-.65.01-1,0-.34.02-.71.04-1.09-.54.53-1.16.98-1.86,1.36-.7.38-1.41.64-2.15.8l-.48-2.23c.34-.05.73-.16,1.18-.34.45-.18.91-.4,1.39-.67.48-.27.92-.56,1.32-.88s.71-.62.94-.92h2.16v15.84h-2.54Z"/>
    <path class="cls-6" d="M1108.47,197.1v-1.87c1.52-1.09,2.8-2.05,3.83-2.88,1.03-.83,1.86-1.6,2.48-2.3.62-.7,1.08-1.37,1.36-2,.28-.63.42-1.28.42-1.93,0-.85-.26-1.54-.79-2.06-.53-.53-1.26-.79-2.21-.79-.99,0-1.78.33-2.36,1-.58.66-.92,1.57-1,2.72l-2.23-1.03c.11-1.01.41-1.88.89-2.62s1.13-1.3,1.96-1.7c.82-.4,1.78-.6,2.87-.6.9,0,1.68.13,2.36.38.68.26,1.25.61,1.72,1.07s.82.99,1.07,1.6c.25.61.37,1.26.37,1.94,0,1.01-.25,1.98-.74,2.92-.5.94-1.28,1.89-2.35,2.87-1.07.98-2.48,2.02-4.22,3.14v.05c.19-.03.46-.05.79-.06.34,0,.67-.02,1.01-.02.34,0,.61-.01.82-.01h4.99v2.21h-11.02Z"/>
    <path class="cls-6" d="M1108.98,199.14c-1.49,0-2.78-.33-3.88-1-1.1-.66-1.84-1.6-2.24-2.8l2.5-1.18c.14.58.37,1.07.67,1.49.3.42.7.73,1.2.95s1.11.32,1.85.32c.62,0,1.15-.11,1.58-.34.43-.22.76-.54,1-.94.23-.4.35-.86.35-1.37s-.1-.97-.3-1.32c-.2-.35-.51-.61-.94-.77s-.96-.24-1.62-.24c-.19,0-.39,0-.59.01-.2,0-.41.03-.64.06v-2.16c.14.02.28.03.42.04.14,0,.27.01.4.01,1.04,0,1.78-.21,2.23-.62.45-.42.67-1.06.67-1.94,0-.75-.23-1.33-.68-1.73-.46-.4-1.11-.6-1.96-.6s-1.56.2-2.05.61c-.49.41-.86,1-1.12,1.76l-2.35-.98c.22-.74.6-1.38,1.13-1.92s1.18-.96,1.96-1.26c.78-.3,1.63-.44,2.56-.44,1.14,0,2.08.18,2.84.55.76.37,1.33.87,1.7,1.51.38.64.56,1.35.56,2.14,0,.61-.09,1.14-.26,1.6-.18.46-.41.85-.71,1.18-.3.33-.62.58-.96.76-.34.18-.69.3-1.04.36v.05c.46.02.89.11,1.28.28.39.17.74.4,1.06.7.31.3.56.65.73,1.07.18.42.26.87.26,1.37,0,.96-.24,1.8-.72,2.52-.48.72-1.14,1.28-1.98,1.68-.84.4-1.81.6-2.92.6Z"/>
    <path class="cls-6" d="M1319.83,55.7v-3.96h-7.73v-1.75c.03-.08.08-.18.16-.29.07-.11.16-.24.25-.38l6.6-9.46h3.14v9.89h2.69v1.99h-2.69v3.96h-2.42ZM1314.5,49.75h5.33v-5.59c0-.38.01-.78.04-1.19.02-.41.04-.81.06-1.21h-.05c-.18.38-.4.8-.68,1.26-.28.46-.54.85-.78,1.19l-3.74,5.33s-.06.06-.08.1-.05.07-.08.12Z"/>
    <path class="cls-6" d="M1372.12,70.36c-1.41,0-2.56-.3-3.47-.91-.9-.61-1.62-1.49-2.15-2.64l2.4-1.25c.24.77.6,1.4,1.09,1.88.49.49,1.21.73,2.17.73.67,0,1.24-.12,1.72-.37.47-.25.84-.6,1.09-1.06.26-.46.38-1,.38-1.64,0-.67-.12-1.23-.36-1.68-.24-.45-.58-.79-1.03-1.02-.45-.23-1.01-.35-1.68-.35-.46,0-.9.05-1.3.14s-.76.24-1.08.44c-.32.2-.6.46-.84.78l-2.11-.41.96-8.74h9.22v2.21h-7.18l-.58,4.46-.05.26h.05c.37-.4.84-.71,1.43-.94.58-.22,1.28-.34,2.08-.34,1.02,0,1.9.21,2.64.64.74.42,1.31,1.01,1.73,1.76s.62,1.62.62,2.62c0,.86-.14,1.63-.43,2.3-.29.67-.7,1.24-1.22,1.7-.53.46-1.14.81-1.84,1.04-.7.23-1.45.35-2.27.35Z"/>
    <path class="cls-6" d="M1396.56,82.06c.85,0,1.6.12,2.26.35s1.23.6,1.72,1.09c.49.5.89,1.14,1.21,1.94l-2.26,1.08c-.22-.69-.58-1.23-1.07-1.63-.49-.4-1.16-.6-2.03-.6-.62,0-1.18.15-1.66.46-.48.3-.89.73-1.22,1.28-.34.55-.59,1.2-.77,1.94-.18.74-.26,1.55-.26,2.41v.43l.1.05c.18-.64.49-1.16.95-1.55s.97-.68,1.55-.88c.58-.19,1.14-.29,1.7-.29,1.06,0,1.98.2,2.76.61.78.41,1.4.99,1.84,1.74.44.75.66,1.65.66,2.69s-.23,1.97-.7,2.75c-.46.78-1.11,1.38-1.93,1.8-.82.42-1.81.64-2.96.64-1.34,0-2.49-.34-3.43-1.01-.94-.67-1.66-1.62-2.16-2.83-.5-1.22-.74-2.64-.74-4.27,0-1.81.28-3.32.85-4.54.57-1.22,1.34-2.13,2.32-2.75.98-.62,2.07-.92,3.29-.92ZM1396.39,90.29c-.61,0-1.14.12-1.61.37-.46.25-.83.59-1.09,1.02-.26.43-.4.94-.4,1.51s.14,1.06.42,1.51c.28.45.65.8,1.12,1.07.46.26.98.4,1.56.4.98,0,1.74-.26,2.28-.79.54-.53.82-1.26.82-2.18,0-.59-.12-1.11-.36-1.55-.24-.44-.59-.78-1.04-1.01s-1.02-.35-1.69-.35Z"/>
    <path class="cls-6" d="M1420.27,141.93h12.07v2.14c-1.33,1.38-2.4,2.79-3.22,4.24s-1.4,2.95-1.76,4.51-.54,3.21-.54,4.96h-2.59c0-1.76.22-3.48.66-5.15.44-1.67,1.11-3.27,2.02-4.8.9-1.53,2.04-2.96,3.42-4.31l.48.65h-10.54v-2.23Z"/>
    <path class="cls-6" d="M1386.49,185.7c1.07,0,2,.17,2.8.52.79.34,1.4.83,1.84,1.45.43.62.65,1.38.65,2.26,0,.82-.2,1.53-.59,2.15-.39.62-.96,1.08-1.72,1.4v.02c.91.34,1.64.84,2.17,1.5s.8,1.48.8,2.46-.24,1.75-.73,2.42c-.49.67-1.18,1.19-2.06,1.56-.89.37-1.94.55-3.16.55s-2.27-.18-3.16-.55c-.89-.37-1.58-.89-2.08-1.56-.5-.67-.74-1.48-.74-2.42s.26-1.78.79-2.45c.53-.67,1.26-1.18,2.21-1.51v-.02c-.72-.3-1.29-.76-1.7-1.38-.42-.62-.62-1.34-.62-2.17,0-.88.22-1.63.65-2.26.43-.62,1.05-1.11,1.85-1.45.8-.34,1.74-.52,2.81-.52ZM1386.49,199.84c.7,0,1.3-.1,1.8-.31.5-.21.88-.51,1.15-.91.27-.4.41-.86.41-1.39,0-.56-.14-1.04-.42-1.43s-.67-.69-1.16-.9-1.09-.31-1.78-.31-1.26.1-1.78.31c-.51.21-.91.51-1.19.9-.28.39-.42.87-.42,1.43,0,.53.14.99.41,1.39.27.4.66.7,1.18.91.51.21,1.11.31,1.8.31ZM1386.49,187.86c-.85,0-1.52.21-2.03.62s-.76.98-.76,1.7.26,1.28.77,1.69,1.18.61,2.02.61,1.5-.2,2-.61c.5-.41.76-.97.76-1.69s-.25-1.29-.74-1.7c-.5-.42-1.17-.62-2.02-.62Z"/>
    <path class="cls-6" d="M1421.63,291.27c1.36,0,2.51.34,3.44,1.01.94.67,1.64,1.62,2.11,2.83.47,1.22.71,2.65.71,4.3,0,1.82-.25,3.34-.74,4.55-.5,1.21-1.21,2.12-2.14,2.72s-2.05.91-3.36.91-2.5-.3-3.46-.89c-.96-.59-1.68-1.48-2.16-2.66l2.42-1.13c.22.75.6,1.35,1.12,1.8.52.45,1.23.67,2.12.67.74,0,1.35-.14,1.85-.43.5-.29.89-.7,1.19-1.25.3-.54.51-1.2.64-1.97.13-.77.19-1.63.19-2.59v-.26h-.1c-.18.64-.49,1.16-.95,1.56-.46.4-.97.69-1.55.88-.58.18-1.15.28-1.73.28-1.02,0-1.93-.2-2.72-.61-.79-.41-1.41-.98-1.86-1.72-.45-.74-.67-1.61-.67-2.62,0-1.1.23-2.06.68-2.86.46-.8,1.1-1.42,1.94-1.86.84-.44,1.84-.66,3.01-.66ZM1421.65,293.53c-1.01,0-1.78.27-2.32.82-.54.54-.8,1.3-.8,2.28,0,.86.28,1.54.85,2.03.57.49,1.32.73,2.27.73.61,0,1.14-.12,1.61-.37s.83-.59,1.09-1.02c.26-.43.4-.94.4-1.51,0-.61-.13-1.13-.4-1.57-.26-.44-.63-.78-1.09-1.02-.46-.24-1-.36-1.61-.36Z"/>
    <g>
      <path class="cls-6" d="M1276.38,271.77v-10.87c0-.32,0-.65.01-1,0-.34.02-.71.04-1.09-.54.53-1.16.98-1.86,1.36-.7.38-1.41.64-2.15.8l-.48-2.23c.34-.05.73-.16,1.18-.34.45-.18.91-.4,1.39-.67.48-.27.92-.56,1.32-.88s.71-.62.94-.92h2.16v15.84h-2.54Z"/>
      <path class="cls-6" d="M1288.7,272.02c-1.9,0-3.4-.69-4.48-2.08-1.08-1.38-1.62-3.41-1.62-6.08s.54-4.7,1.62-6.08,2.57-2.08,4.48-2.08,3.42.69,4.5,2.08,1.62,3.41,1.62,6.08-.54,4.7-1.62,6.08c-1.08,1.38-2.58,2.08-4.5,2.08ZM1288.7,269.83c.77,0,1.41-.22,1.93-.66.52-.44.91-1.1,1.18-1.99.26-.89.4-2,.4-3.32s-.13-2.44-.4-3.32c-.26-.89-.66-1.55-1.18-1.99s-1.16-.66-1.93-.66-1.41.22-1.93.66c-.52.44-.91,1.1-1.16,1.99-.26.89-.38,2-.38,3.32s.13,2.44.38,3.32c.26.89.64,1.55,1.16,1.99.52.44,1.16.66,1.93.66Z"/>
    </g>
    <g>
      <path class="cls-6" d="M1338.05,252.54v-10.87c0-.32,0-.65.01-1,0-.34.02-.71.04-1.09-.54.53-1.16.98-1.86,1.36-.7.38-1.41.64-2.15.8l-.48-2.23c.34-.05.73-.16,1.18-.34.45-.18.91-.4,1.39-.67.48-.27.92-.56,1.32-.88s.71-.62.94-.92h2.16v15.84h-2.54Z"/>
      <path class="cls-6" d="M1347.7,252.54v-10.87c0-.32,0-.65.01-1,0-.34.02-.71.04-1.09-.54.53-1.16.98-1.86,1.36-.7.38-1.41.64-2.15.8l-.48-2.23c.34-.05.73-.16,1.18-.34.45-.18.91-.4,1.39-.67.48-.27.92-.56,1.32-.88s.71-.62.94-.92h2.16v15.84h-2.54Z"/>
    </g>
    <g>
      <path class="cls-6" d="M1259.13,334.3v-10.87c0-.32,0-.65.01-1,0-.34.02-.71.04-1.09-.54.53-1.16.98-1.86,1.36-.7.38-1.41.64-2.15.8l-.48-2.23c.34-.05.73-.16,1.18-.34.45-.18.91-.4,1.39-.67.48-.27.92-.56,1.32-.88s.71-.62.94-.92h2.16v15.84h-2.54Z"/>
      <path class="cls-6" d="M1265.59,334.3v-1.87c1.52-1.09,2.8-2.05,3.83-2.88,1.03-.83,1.86-1.6,2.48-2.3.62-.7,1.08-1.37,1.36-2,.28-.63.42-1.28.42-1.93,0-.85-.26-1.54-.79-2.06-.53-.53-1.26-.79-2.21-.79-.99,0-1.78.33-2.36,1-.58.66-.92,1.57-1,2.72l-2.23-1.03c.11-1.01.41-1.88.89-2.62s1.13-1.3,1.96-1.7c.82-.4,1.78-.6,2.87-.6.9,0,1.68.13,2.36.38.68.26,1.25.61,1.72,1.07s.82.99,1.07,1.6c.25.61.37,1.26.37,1.94,0,1.01-.25,1.98-.74,2.92-.5.94-1.28,1.89-2.35,2.87-1.07.98-2.48,2.02-4.22,3.14v.05c.19-.03.46-.05.79-.06.34,0,.67-.02,1.01-.02.34,0,.61-.01.82-.01h4.99v2.21h-11.02Z"/>
    </g>
    <g>
      <path class="cls-6" d="M1165.64,236.04v-10.87c0-.32,0-.65.01-1,0-.34.02-.71.04-1.09-.54.53-1.16.98-1.86,1.36-.7.38-1.41.64-2.15.8l-.48-2.23c.34-.05.73-.16,1.18-.34.45-.18.91-.4,1.39-.67.48-.27.92-.56,1.32-.88s.71-.62.94-.92h2.16v15.84h-2.54Z"/>
      <path class="cls-6" d="M1177.45,236.28c-1.49,0-2.78-.33-3.88-1-1.1-.66-1.84-1.6-2.24-2.8l2.5-1.18c.14.58.37,1.07.67,1.49.3.42.7.73,1.2.95s1.11.32,1.85.32c.62,0,1.15-.11,1.58-.34.43-.22.76-.54,1-.94.23-.4.35-.86.35-1.37s-.1-.97-.3-1.32c-.2-.35-.51-.61-.94-.77s-.96-.24-1.62-.24c-.19,0-.39,0-.59.01-.2,0-.41.03-.64.06v-2.16c.14.02.28.03.42.04.14,0,.27.01.4.01,1.04,0,1.78-.21,2.23-.62.45-.42.67-1.06.67-1.94,0-.75-.23-1.33-.68-1.73-.46-.4-1.11-.6-1.96-.6s-1.56.2-2.05.61c-.49.41-.86,1-1.12,1.76l-2.35-.98c.22-.74.6-1.38,1.13-1.92s1.18-.96,1.96-1.26c.78-.3,1.63-.44,2.56-.44,1.14,0,2.08.18,2.84.55.76.37,1.33.87,1.7,1.51.38.64.56,1.35.56,2.14,0,.61-.09,1.14-.26,1.6-.18.46-.41.85-.71,1.18-.3.33-.62.58-.96.76-.34.18-.69.3-1.04.36v.05c.46.02.89.11,1.28.28.39.17.74.4,1.06.7.31.3.56.65.73,1.07.18.42.26.87.26,1.37,0,.96-.24,1.8-.72,2.52-.48.72-1.14,1.28-1.98,1.68-.84.4-1.81.6-2.92.6Z"/>
    </g>
    <g>
      <path class="cls-6" d="M1202.9,237.54v-10.87c0-.32,0-.65.01-1,0-.34.02-.71.04-1.09-.54.53-1.16.98-1.86,1.36-.7.38-1.41.64-2.15.8l-.48-2.23c.34-.05.73-.16,1.18-.34.45-.18.91-.4,1.39-.67.48-.27.92-.56,1.32-.88s.71-.62.94-.92h2.16v15.84h-2.54Z"/>
      <path class="cls-6" d="M1216.46,237.54v-3.96h-7.73v-1.75c.03-.08.08-.18.16-.29.07-.11.16-.24.25-.38l6.6-9.46h3.14v9.89h2.69v1.99h-2.69v3.96h-2.42ZM1211.13,231.59h5.33v-5.59c0-.38.01-.78.04-1.19.02-.41.04-.81.06-1.21h-.05c-.18.38-.4.8-.68,1.26-.28.46-.54.85-.78,1.19l-3.74,5.33s-.06.06-.08.1-.05.07-.08.12Z"/>
    </g>
    <g>
      <path class="cls-6" d="M1241.78,268.98v-10.87c0-.32,0-.65.01-1,0-.34.02-.71.04-1.09-.54.53-1.16.98-1.86,1.36-.7.38-1.41.64-2.15.8l-.48-2.23c.34-.05.73-.16,1.18-.34.45-.18.91-.4,1.39-.67.48-.27.92-.56,1.32-.88s.71-.62.94-.92h2.16v15.84h-2.54Z"/>
      <path class="cls-6" d="M1253.45,269.22c-1.41,0-2.56-.3-3.47-.91s-1.62-1.49-2.15-2.64l2.4-1.25c.24.77.6,1.4,1.09,1.88s1.21.73,2.17.73c.67,0,1.24-.12,1.72-.37.47-.25.84-.6,1.09-1.06.26-.46.38-1,.38-1.64,0-.67-.12-1.23-.36-1.68-.24-.45-.58-.79-1.03-1.02s-1.01-.35-1.68-.35c-.46,0-.9.05-1.3.14-.4.1-.76.24-1.08.44-.32.2-.6.46-.84.78l-2.11-.41.96-8.74h9.22v2.21h-7.18l-.58,4.46-.05.26h.05c.37-.4.84-.71,1.43-.94.58-.22,1.28-.34,2.08-.34,1.02,0,1.9.21,2.64.64.74.42,1.31,1.01,1.73,1.76s.62,1.62.62,2.62c0,.86-.14,1.63-.43,2.3-.29.67-.7,1.24-1.22,1.7-.53.46-1.14.81-1.84,1.04-.7.23-1.45.35-2.27.35Z"/>
    </g>
    <g>
      <path class="cls-6" d="M1094.2,237.54v-10.87c0-.32,0-.65.01-1,0-.34.02-.71.04-1.09-.54.53-1.16.98-1.86,1.36-.7.38-1.41.64-2.15.8l-.48-2.23c.34-.05.73-.16,1.18-.34.45-.18.91-.4,1.39-.67.48-.27.92-.56,1.32-.88s.71-.62.94-.92h2.16v15.84h-2.54Z"/>
      <path class="cls-6" d="M1106.87,221.46c.85,0,1.6.12,2.26.35s1.23.6,1.72,1.09c.49.5.89,1.14,1.21,1.94l-2.26,1.08c-.22-.69-.58-1.23-1.07-1.63-.49-.4-1.16-.6-2.03-.6-.62,0-1.18.15-1.66.46-.48.3-.89.73-1.22,1.28-.34.55-.59,1.2-.77,1.94-.18.74-.26,1.55-.26,2.41v.43l.1.05c.18-.64.49-1.16.95-1.55s.97-.68,1.55-.88c.58-.19,1.14-.29,1.7-.29,1.06,0,1.98.2,2.76.61.78.41,1.4.99,1.84,1.74.44.75.66,1.65.66,2.69s-.23,1.97-.7,2.75c-.46.78-1.11,1.38-1.93,1.8-.82.42-1.81.64-2.96.64-1.34,0-2.49-.34-3.43-1.01-.94-.67-1.66-1.62-2.16-2.83-.5-1.22-.74-2.64-.74-4.27,0-1.81.28-3.32.85-4.54.57-1.22,1.34-2.13,2.32-2.75.98-.62,2.07-.92,3.29-.92ZM1106.71,229.69c-.61,0-1.14.12-1.61.37-.46.25-.83.59-1.09,1.02-.26.43-.4.94-.4,1.51s.14,1.06.42,1.51c.28.45.65.8,1.12,1.07.46.26.98.4,1.56.4.98,0,1.74-.26,2.28-.79.54-.53.82-1.26.82-2.18,0-.59-.12-1.11-.36-1.55-.24-.44-.59-.78-1.04-1.01s-1.02-.35-1.69-.35Z"/>
    </g>
    <g>
      <path class="cls-6" d="M1120.88,228.54v-10.87c0-.32,0-.65.01-1,0-.34.02-.71.04-1.09-.54.53-1.16.98-1.86,1.36-.7.38-1.41.64-2.15.8l-.48-2.23c.34-.05.73-.16,1.18-.34.45-.18.91-.4,1.39-.67.48-.27.92-.56,1.32-.88s.71-.62.94-.92h2.16v15.84h-2.54Z"/>
      <path class="cls-6" d="M1126.57,212.7h12.07v2.14c-1.33,1.38-2.4,2.79-3.22,4.24s-1.4,2.95-1.76,4.51-.54,3.21-.54,4.96h-2.59c0-1.76.22-3.48.66-5.15.44-1.67,1.11-3.27,2.02-4.8.9-1.53,2.04-2.96,3.42-4.31l.48.65h-10.54v-2.23Z"/>
    </g>
    <g>
      <path class="cls-6" d="M1092.03,218.74v-10.87c0-.32,0-.65.01-1,0-.34.02-.71.04-1.09-.54.53-1.16.98-1.86,1.36-.7.38-1.41.64-2.15.8l-.48-2.23c.34-.05.73-.16,1.18-.34.45-.18.91-.4,1.39-.67.48-.27.92-.56,1.32-.88s.71-.62.94-.92h2.16v15.84h-2.54Z"/>
      <path class="cls-6" d="M1104.24,202.68c1.07,0,2,.17,2.8.52.79.34,1.4.83,1.84,1.45.43.62.65,1.38.65,2.26,0,.82-.2,1.53-.59,2.15-.39.62-.96,1.08-1.72,1.4v.02c.91.34,1.64.84,2.17,1.5s.8,1.48.8,2.46-.24,1.75-.73,2.42c-.49.67-1.18,1.19-2.06,1.56-.89.37-1.94.55-3.16.55s-2.27-.18-3.16-.55c-.89-.37-1.58-.89-2.08-1.56-.5-.67-.74-1.48-.74-2.42s.26-1.78.79-2.45c.53-.67,1.26-1.18,2.21-1.51v-.02c-.72-.3-1.29-.76-1.7-1.38-.42-.62-.62-1.34-.62-2.17,0-.88.22-1.63.65-2.26.43-.62,1.05-1.11,1.85-1.45.8-.34,1.74-.52,2.81-.52ZM1104.24,216.82c.7,0,1.3-.1,1.8-.31.5-.21.88-.51,1.15-.91.27-.4.41-.86.41-1.39,0-.56-.14-1.04-.42-1.43s-.67-.69-1.16-.9-1.09-.31-1.78-.31-1.26.1-1.78.31c-.51.21-.91.51-1.19.9-.28.39-.42.87-.42,1.43,0,.53.14.99.41,1.39.27.4.66.7,1.18.91.51.21,1.11.31,1.8.31ZM1104.24,204.84c-.85,0-1.52.21-2.03.62s-.76.98-.76,1.7.26,1.28.77,1.69,1.18.61,2.02.61,1.5-.2,2-.61c.5-.41.76-.97.76-1.69s-.25-1.29-.74-1.7c-.5-.42-1.17-.62-2.02-.62Z"/>
    </g>
    <g>
      <path class="cls-6" d="M1060.78,199.53v-10.87c0-.32,0-.65.01-1,0-.34.02-.71.04-1.09-.54.53-1.16.98-1.86,1.36-.7.38-1.41.64-2.15.8l-.48-2.23c.34-.05.73-.16,1.18-.34.45-.18.91-.4,1.39-.67.48-.27.92-.56,1.32-.88s.71-.62.94-.92h2.16v15.84h-2.54Z"/>
      <path class="cls-6" d="M1072.66,183.45c1.36,0,2.51.34,3.44,1.01.94.67,1.64,1.62,2.11,2.83.47,1.22.71,2.65.71,4.3,0,1.82-.25,3.34-.74,4.55-.5,1.21-1.21,2.12-2.14,2.72s-2.05.91-3.36.91-2.5-.3-3.46-.89c-.96-.59-1.68-1.48-2.16-2.66l2.42-1.13c.22.75.6,1.35,1.12,1.8.52.45,1.23.67,2.12.67.74,0,1.35-.14,1.85-.43.5-.29.89-.7,1.19-1.25.3-.54.51-1.2.64-1.97.13-.77.19-1.63.19-2.59v-.26h-.1c-.18.64-.49,1.16-.95,1.56-.46.4-.97.69-1.55.88-.58.18-1.15.28-1.73.28-1.02,0-1.93-.2-2.72-.61-.79-.41-1.41-.98-1.86-1.72-.45-.74-.67-1.61-.67-2.62,0-1.1.23-2.06.68-2.86.46-.8,1.1-1.42,1.94-1.86.84-.44,1.84-.66,3.01-.66ZM1072.68,185.7c-1.01,0-1.78.27-2.32.82-.54.54-.8,1.3-.8,2.28,0,.86.28,1.54.85,2.03.57.49,1.32.73,2.27.73.61,0,1.14-.12,1.61-.37s.83-.59,1.09-1.02c.26-.43.4-.94.4-1.51,0-.61-.13-1.13-.4-1.57-.26-.44-.63-.78-1.09-1.02-.46-.24-1-.36-1.61-.36Z"/>
    </g>
    <g>
      <path class="cls-6" d="M1029.72,192.04v-1.87c1.52-1.09,2.8-2.05,3.83-2.88,1.03-.83,1.86-1.6,2.48-2.3.62-.7,1.08-1.37,1.36-2,.28-.63.42-1.28.42-1.93,0-.85-.26-1.54-.79-2.06-.53-.53-1.26-.79-2.21-.79-.99,0-1.78.33-2.36,1-.58.66-.92,1.57-1,2.72l-2.23-1.03c.11-1.01.41-1.88.89-2.62s1.13-1.3,1.96-1.7c.82-.4,1.78-.6,2.87-.6.9,0,1.68.13,2.36.38.68.26,1.25.61,1.72,1.07s.82.99,1.07,1.6c.25.61.37,1.26.37,1.94,0,1.01-.25,1.98-.74,2.92-.5.94-1.28,1.89-2.35,2.87-1.07.98-2.48,2.02-4.22,3.14v.05c.19-.03.46-.05.79-.06.34,0,.67-.02,1.01-.02.34,0,.61-.01.82-.01h4.99v2.21h-11.02Z"/>
      <path class="cls-6" d="M1049.66,192.28c-1.9,0-3.4-.69-4.48-2.08-1.08-1.38-1.62-3.41-1.62-6.08s.54-4.7,1.62-6.08,2.57-2.08,4.48-2.08,3.42.69,4.5,2.08,1.62,3.41,1.62,6.08-.54,4.7-1.62,6.08c-1.08,1.38-2.58,2.08-4.5,2.08ZM1049.66,190.09c.77,0,1.41-.22,1.93-.66.52-.44.91-1.1,1.18-1.99.26-.89.4-2,.4-3.32s-.13-2.44-.4-3.32c-.26-.89-.66-1.55-1.18-1.99s-1.16-.66-1.93-.66-1.41.22-1.93.66c-.52.44-.91,1.1-1.16,1.99-.26.89-.38,2-.38,3.32s.13,2.44.38,3.32c.26.89.64,1.55,1.16,1.99.52.44,1.16.66,1.93.66Z"/>
    </g>
    <g>
      <path class="cls-6" d="M1054.05,162.74v-1.87c1.52-1.09,2.8-2.05,3.83-2.88,1.03-.83,1.86-1.6,2.48-2.3.62-.7,1.08-1.37,1.36-2,.28-.63.42-1.28.42-1.93,0-.85-.26-1.54-.79-2.06-.53-.53-1.26-.79-2.21-.79-.99,0-1.78.33-2.36,1-.58.66-.92,1.57-1,2.72l-2.23-1.03c.11-1.01.41-1.88.89-2.62s1.13-1.3,1.96-1.7c.82-.4,1.78-.6,2.87-.6.9,0,1.68.13,2.36.38.68.26,1.25.61,1.72,1.07s.82.99,1.07,1.6c.25.61.37,1.26.37,1.94,0,1.01-.25,1.98-.74,2.92-.5.94-1.28,1.89-2.35,2.87-1.07.98-2.48,2.02-4.22,3.14v.05c.19-.03.46-.05.79-.06.34,0,.67-.02,1.01-.02.34,0,.61-.01.82-.01h4.99v2.21h-11.02Z"/>
      <path class="cls-6" d="M1071.33,162.74v-10.87c0-.32,0-.65.01-1,0-.34.02-.71.04-1.09-.54.53-1.16.98-1.86,1.36-.7.38-1.41.64-2.15.8l-.48-2.23c.34-.05.73-.16,1.18-.34.45-.18.91-.4,1.39-.67.48-.27.92-.56,1.32-.88s.71-.62.94-.92h2.16v15.84h-2.54Z"/>
    </g>
    <g>
      <path class="cls-6" d="M1054.04,161.99v-1.87c1.52-1.09,2.8-2.05,3.83-2.88,1.03-.83,1.86-1.6,2.48-2.3.62-.7,1.08-1.37,1.36-2,.28-.63.42-1.28.42-1.93,0-.85-.26-1.54-.79-2.06-.53-.53-1.26-.79-2.21-.79-.99,0-1.78.33-2.36,1-.58.66-.92,1.57-1,2.72l-2.23-1.03c.11-1.01.41-1.88.89-2.62s1.13-1.3,1.96-1.7c.82-.4,1.78-.6,2.87-.6.9,0,1.68.13,2.36.38.68.26,1.25.61,1.72,1.07s.82.99,1.07,1.6c.25.61.37,1.26.37,1.94,0,1.01-.25,1.98-.74,2.92-.5.94-1.28,1.89-2.35,2.87-1.07.98-2.48,2.02-4.22,3.14v.05c.19-.03.46-.05.79-.06.34,0,.67-.02,1.01-.02.34,0,.61-.01.82-.01h4.99v2.21h-11.02Z"/>
      <path class="cls-6" d="M1068.13,161.99v-1.87c1.52-1.09,2.8-2.05,3.83-2.88,1.03-.83,1.86-1.6,2.48-2.3.62-.7,1.08-1.37,1.36-2,.28-.63.42-1.28.42-1.93,0-.85-.26-1.54-.79-2.06-.53-.53-1.26-.79-2.21-.79-.99,0-1.78.33-2.36,1-.58.66-.92,1.57-1,2.72l-2.23-1.03c.11-1.01.41-1.88.89-2.62s1.13-1.3,1.96-1.7c.82-.4,1.78-.6,2.87-.6.9,0,1.68.13,2.36.38.68.26,1.25.61,1.72,1.07s.82.99,1.07,1.6c.25.61.37,1.26.37,1.94,0,1.01-.25,1.98-.74,2.92-.5.94-1.28,1.89-2.35,2.87-1.07.98-2.48,2.02-4.22,3.14v.05c.19-.03.46-.05.79-.06.34,0,.67-.02,1.01-.02.34,0,.61-.01.82-.01h4.99v2.21h-11.02Z"/>
    </g>
    <g>
      <path class="cls-6" d="M1049.38,153.66v-1.87c1.52-1.09,2.8-2.05,3.83-2.88,1.03-.83,1.86-1.6,2.48-2.3.62-.7,1.08-1.37,1.36-2,.28-.63.42-1.28.42-1.93,0-.85-.26-1.54-.79-2.06-.53-.53-1.26-.79-2.21-.79-.99,0-1.78.33-2.36,1-.58.66-.92,1.57-1,2.72l-2.23-1.03c.11-1.01.41-1.88.89-2.62s1.13-1.3,1.96-1.7c.82-.4,1.78-.6,2.87-.6.9,0,1.68.13,2.36.38.68.26,1.25.61,1.72,1.07s.82.99,1.07,1.6c.25.61.37,1.26.37,1.94,0,1.01-.25,1.98-.74,2.92-.5.94-1.28,1.89-2.35,2.87-1.07.98-2.48,2.02-4.22,3.14v.05c.19-.03.46-.05.79-.06.34,0,.67-.02,1.01-.02.34,0,.61-.01.82-.01h4.99v2.21h-11.02Z"/>
      <path class="cls-6" d="M1068.82,153.9c-1.49,0-2.78-.33-3.88-1-1.1-.66-1.84-1.6-2.24-2.8l2.5-1.18c.14.58.37,1.07.67,1.49.3.42.7.73,1.2.95s1.11.32,1.85.32c.62,0,1.15-.11,1.58-.34.43-.22.76-.54,1-.94.23-.4.35-.86.35-1.37s-.1-.97-.3-1.32c-.2-.35-.51-.61-.94-.77s-.96-.24-1.62-.24c-.19,0-.39,0-.59.01-.2,0-.41.03-.64.06v-2.16c.14.02.28.03.42.04.14,0,.27.01.4.01,1.04,0,1.78-.21,2.23-.62.45-.42.67-1.06.67-1.94,0-.75-.23-1.33-.68-1.73-.46-.4-1.11-.6-1.96-.6s-1.56.2-2.05.61c-.49.41-.86,1-1.12,1.76l-2.35-.98c.22-.74.6-1.38,1.13-1.92s1.18-.96,1.96-1.26c.78-.3,1.63-.44,2.56-.44,1.14,0,2.08.18,2.84.55.76.37,1.33.87,1.7,1.51.38.64.56,1.35.56,2.14,0,.61-.09,1.14-.26,1.6-.18.46-.41.85-.71,1.18-.3.33-.62.58-.96.76-.34.18-.69.3-1.04.36v.05c.46.02.89.11,1.28.28.39.17.74.4,1.06.7.31.3.56.65.73,1.07.18.42.26.87.26,1.37,0,.96-.24,1.8-.72,2.52-.48.72-1.14,1.28-1.98,1.68-.84.4-1.81.6-2.92.6Z"/>
    </g>
    <g>
      <path class="cls-6" d="M1073.32,143.65v-1.87c1.52-1.09,2.8-2.05,3.83-2.88,1.03-.83,1.86-1.6,2.48-2.3.62-.7,1.08-1.37,1.36-2,.28-.63.42-1.28.42-1.93,0-.85-.26-1.54-.79-2.06-.53-.53-1.26-.79-2.21-.79-.99,0-1.78.33-2.36,1-.58.66-.92,1.57-1,2.72l-2.23-1.03c.11-1.01.41-1.88.89-2.62s1.13-1.3,1.96-1.7c.82-.4,1.78-.6,2.87-.6.9,0,1.68.13,2.36.38.68.26,1.25.61,1.72,1.07s.82.99,1.07,1.6c.25.61.37,1.26.37,1.94,0,1.01-.25,1.98-.74,2.92-.5.94-1.28,1.89-2.35,2.87-1.07.98-2.48,2.02-4.22,3.14v.05c.19-.03.46-.05.79-.06.34,0,.67-.02,1.01-.02.34,0,.61-.01.82-.01h4.99v2.21h-11.02Z"/>
      <path class="cls-6" d="M1093.92,143.65v-3.96h-7.73v-1.75c.03-.08.08-.18.16-.29.07-.11.16-.24.25-.38l6.6-9.46h3.14v9.89h2.69v1.99h-2.69v3.96h-2.42ZM1088.59,137.7h5.33v-5.59c0-.38.01-.78.04-1.19.02-.41.04-.81.06-1.21h-.05c-.18.38-.4.8-.68,1.26-.28.46-.54.85-.78,1.19l-3.74,5.33s-.06.06-.08.1-.05.07-.08.12Z"/>
    </g>
    <g>
      <path class="cls-6" d="M1092.05,158.69v-1.87c1.52-1.09,2.8-2.05,3.83-2.88,1.03-.83,1.86-1.6,2.48-2.3.62-.7,1.08-1.37,1.36-2,.28-.63.42-1.28.42-1.93,0-.85-.26-1.54-.79-2.06-.53-.53-1.26-.79-2.21-.79-.99,0-1.78.33-2.36,1-.58.66-.92,1.57-1,2.72l-2.23-1.03c.11-1.01.41-1.88.89-2.62s1.13-1.3,1.96-1.7c.82-.4,1.78-.6,2.87-.6.9,0,1.68.13,2.36.38.68.26,1.25.61,1.72,1.07s.82.99,1.07,1.6c.25.61.37,1.26.37,1.94,0,1.01-.25,1.98-.74,2.92-.5.94-1.28,1.89-2.35,2.87-1.07.98-2.48,2.02-4.22,3.14v.05c.19-.03.46-.05.79-.06.34,0,.67-.02,1.01-.02.34,0,.61-.01.82-.01h4.99v2.21h-11.02Z"/>
      <path class="cls-6" d="M1111.34,158.93c-1.41,0-2.56-.3-3.47-.91s-1.62-1.49-2.15-2.64l2.4-1.25c.24.77.6,1.4,1.09,1.88s1.21.73,2.17.73c.67,0,1.24-.12,1.72-.37.47-.25.84-.6,1.09-1.06.26-.46.38-1,.38-1.64,0-.67-.12-1.23-.36-1.68-.24-.45-.58-.79-1.03-1.02s-1.01-.35-1.68-.35c-.46,0-.9.05-1.3.14-.4.1-.76.24-1.08.44-.32.2-.6.46-.84.78l-2.11-.41.96-8.74h9.22v2.21h-7.18l-.58,4.46-.05.26h.05c.37-.4.84-.71,1.43-.94.58-.22,1.28-.34,2.08-.34,1.02,0,1.9.21,2.64.64.74.42,1.31,1.01,1.73,1.76s.62,1.62.62,2.62c0,.86-.14,1.63-.43,2.3-.29.67-.7,1.24-1.22,1.7-.53.46-1.14.81-1.84,1.04-.7.23-1.45.35-2.27.35Z"/>
    </g>
    <g>
      <path class="cls-6" d="M1104.14,167.01v-1.87c1.52-1.09,2.8-2.05,3.83-2.88,1.03-.83,1.86-1.6,2.48-2.3.62-.7,1.08-1.37,1.36-2,.28-.63.42-1.28.42-1.93,0-.85-.26-1.54-.79-2.06-.53-.53-1.26-.79-2.21-.79-.99,0-1.78.33-2.36,1-.58.66-.92,1.57-1,2.72l-2.23-1.03c.11-1.01.41-1.88.89-2.62s1.13-1.3,1.96-1.7c.82-.4,1.78-.6,2.87-.6.9,0,1.68.13,2.36.38.68.26,1.25.61,1.72,1.07s.82.99,1.07,1.6c.25.61.37,1.26.37,1.94,0,1.01-.25,1.98-.74,2.92-.5.94-1.28,1.89-2.35,2.87-1.07.98-2.48,2.02-4.22,3.14v.05c.19-.03.46-.05.79-.06.34,0,.67-.02,1.01-.02.34,0,.61-.01.82-.01h4.99v2.21h-11.02Z"/>
      <path class="cls-6" d="M1124.44,150.93c.85,0,1.6.12,2.26.35s1.23.6,1.72,1.09c.49.5.89,1.14,1.21,1.94l-2.26,1.08c-.22-.69-.58-1.23-1.07-1.63-.49-.4-1.16-.6-2.03-.6-.62,0-1.18.15-1.66.46-.48.3-.89.73-1.22,1.28-.34.55-.59,1.2-.77,1.94-.18.74-.26,1.55-.26,2.41v.43l.1.05c.18-.64.49-1.16.95-1.55s.97-.68,1.55-.88c.58-.19,1.14-.29,1.7-.29,1.06,0,1.98.2,2.76.61.78.41,1.4.99,1.84,1.74.44.75.66,1.65.66,2.69s-.23,1.97-.7,2.75c-.46.78-1.11,1.38-1.93,1.8-.82.42-1.81.64-2.96.64-1.34,0-2.49-.34-3.43-1.01-.94-.67-1.66-1.62-2.16-2.83-.5-1.22-.74-2.64-.74-4.27,0-1.81.28-3.32.85-4.54.57-1.22,1.34-2.13,2.32-2.75.98-.62,2.07-.92,3.29-.92ZM1124.28,159.16c-.61,0-1.14.12-1.61.37-.46.25-.83.59-1.09,1.02-.26.43-.4.94-.4,1.51s.14,1.06.42,1.51c.28.45.65.8,1.12,1.07.46.26.98.4,1.56.4.98,0,1.74-.26,2.28-.79.54-.53.82-1.26.82-2.18,0-.59-.12-1.11-.36-1.55-.24-.44-.59-.78-1.04-1.01s-1.02-.35-1.69-.35Z"/>
    </g>
    <g>
      <path class="cls-6" d="M1135.98,162.56v-1.87c1.52-1.09,2.8-2.05,3.83-2.88,1.03-.83,1.86-1.6,2.48-2.3.62-.7,1.08-1.37,1.36-2,.28-.63.42-1.28.42-1.93,0-.85-.26-1.54-.79-2.06-.53-.53-1.26-.79-2.21-.79-.99,0-1.78.33-2.36,1-.58.66-.92,1.57-1,2.72l-2.23-1.03c.11-1.01.41-1.88.89-2.62s1.13-1.3,1.96-1.7c.82-.4,1.78-.6,2.87-.6.9,0,1.68.13,2.36.38.68.26,1.25.61,1.72,1.07s.82.99,1.07,1.6c.25.61.37,1.26.37,1.94,0,1.01-.25,1.98-.74,2.92-.5.94-1.28,1.89-2.35,2.87-1.07.98-2.48,2.02-4.22,3.14v.05c.19-.03.46-.05.79-.06.34,0,.67-.02,1.01-.02.34,0,.61-.01.82-.01h4.99v2.21h-11.02Z"/>
      <path class="cls-6" d="M1148.84,146.72h12.07v2.14c-1.33,1.38-2.4,2.79-3.22,4.24s-1.4,2.95-1.76,4.51-.54,3.21-.54,4.96h-2.59c0-1.76.22-3.48.66-5.15.44-1.67,1.11-3.27,2.02-4.8.9-1.53,2.04-2.96,3.42-4.31l.48.65h-10.54v-2.23Z"/>
    </g>
    <g>
      <path class="cls-6" d="M1119.37,164.11v-1.87c1.52-1.09,2.8-2.05,3.83-2.88,1.03-.83,1.86-1.6,2.48-2.3.62-.7,1.08-1.37,1.36-2,.28-.63.42-1.28.42-1.93,0-.85-.26-1.54-.79-2.06-.53-.53-1.26-.79-2.21-.79-.99,0-1.78.33-2.36,1-.58.66-.92,1.57-1,2.72l-2.23-1.03c.11-1.01.41-1.88.89-2.62s1.13-1.3,1.96-1.7c.82-.4,1.78-.6,2.87-.6.9,0,1.68.13,2.36.38.68.26,1.25.61,1.72,1.07s.82.99,1.07,1.6c.25.61.37,1.26.37,1.94,0,1.01-.25,1.98-.74,2.92-.5.94-1.28,1.89-2.35,2.87-1.07.98-2.48,2.02-4.22,3.14v.05c.19-.03.46-.05.79-.06.34,0,.67-.02,1.01-.02.34,0,.61-.01.82-.01h4.99v2.21h-11.02Z"/>
      <path class="cls-6" d="M1139.22,148.05c1.07,0,2,.17,2.8.52.79.34,1.4.83,1.84,1.45.43.62.65,1.38.65,2.26,0,.82-.2,1.53-.59,2.15-.39.62-.96,1.08-1.72,1.4v.02c.91.34,1.64.84,2.17,1.5s.8,1.48.8,2.46-.24,1.75-.73,2.42c-.49.67-1.18,1.19-2.06,1.56-.89.37-1.94.55-3.16.55s-2.27-.18-3.16-.55c-.89-.37-1.58-.89-2.08-1.56-.5-.67-.74-1.48-.74-2.42s.26-1.78.79-2.45c.53-.67,1.26-1.18,2.21-1.51v-.02c-.72-.3-1.29-.76-1.7-1.38-.42-.62-.62-1.34-.62-2.17,0-.88.22-1.63.65-2.26.43-.62,1.05-1.11,1.85-1.45.8-.34,1.74-.52,2.81-.52ZM1139.22,162.19c.7,0,1.3-.1,1.8-.31.5-.21.88-.51,1.15-.91.27-.4.41-.86.41-1.39,0-.56-.14-1.04-.42-1.43s-.67-.69-1.16-.9-1.09-.31-1.78-.31-1.26.1-1.78.31c-.51.21-.91.51-1.19.9-.28.39-.42.87-.42,1.43,0,.53.14.99.41,1.39.27.4.66.7,1.18.91.51.21,1.11.31,1.8.31ZM1139.22,150.21c-.85,0-1.52.21-2.03.62s-.76.98-.76,1.7.26,1.28.77,1.69,1.18.61,2.02.61,1.5-.2,2-.61c.5-.41.76-.97.76-1.69s-.25-1.29-.74-1.7c-.5-.42-1.17-.62-2.02-.62Z"/>
    </g>
    <g>
      <path class="cls-6" d="M1224.87,82.36v-1.87c1.52-1.09,2.8-2.05,3.83-2.88,1.03-.83,1.86-1.6,2.48-2.3.62-.7,1.08-1.37,1.36-2,.28-.63.42-1.28.42-1.93,0-.85-.26-1.54-.79-2.06-.53-.53-1.26-.79-2.21-.79-.99,0-1.78.33-2.36,1-.58.66-.92,1.57-1,2.72l-2.23-1.03c.11-1.01.41-1.88.89-2.62s1.13-1.3,1.96-1.7c.82-.4,1.78-.6,2.87-.6.9,0,1.68.13,2.36.38.68.26,1.25.61,1.72,1.07s.82.99,1.07,1.6c.25.61.37,1.26.37,1.94,0,1.01-.25,1.98-.74,2.92-.5.94-1.28,1.89-2.35,2.87-1.07.98-2.48,2.02-4.22,3.14v.05c.19-.03.46-.05.79-.06.34,0,.67-.02,1.01-.02.34,0,.61-.01.82-.01h4.99v2.21h-11.02Z"/>
      <path class="cls-6" d="M1244.38,66.28c1.36,0,2.51.34,3.44,1.01.94.67,1.64,1.62,2.11,2.83.47,1.22.71,2.65.71,4.3,0,1.82-.25,3.34-.74,4.55-.5,1.21-1.21,2.12-2.14,2.72s-2.05.91-3.36.91-2.5-.3-3.46-.89c-.96-.59-1.68-1.48-2.16-2.66l2.42-1.13c.22.75.6,1.35,1.12,1.8.52.45,1.23.67,2.12.67.74,0,1.35-.14,1.85-.43.5-.29.89-.7,1.19-1.25.3-.54.51-1.2.64-1.97.13-.77.19-1.63.19-2.59v-.26h-.1c-.18.64-.49,1.16-.95,1.56-.46.4-.97.69-1.55.88-.58.18-1.15.28-1.73.28-1.02,0-1.93-.2-2.72-.61-.79-.41-1.41-.98-1.86-1.72-.45-.74-.67-1.61-.67-2.62,0-1.1.23-2.06.68-2.86.46-.8,1.1-1.42,1.94-1.86.84-.44,1.84-.66,3.01-.66ZM1244.4,68.53c-1.01,0-1.78.27-2.32.82-.54.54-.8,1.3-.8,2.28,0,.86.28,1.54.85,2.03.57.49,1.32.73,2.27.73.61,0,1.14-.12,1.61-.37s.83-.59,1.09-1.02c.26-.43.4-.94.4-1.51,0-.61-.13-1.13-.4-1.57-.26-.44-.63-.78-1.09-1.02-.46-.24-1-.36-1.61-.36Z"/>
    </g>
    <g>
      <path class="cls-6" d="M1196.1,94.81c-1.49,0-2.78-.33-3.88-1-1.1-.66-1.84-1.6-2.24-2.8l2.5-1.18c.14.58.37,1.07.67,1.49.3.42.7.73,1.2.95s1.11.32,1.85.32c.62,0,1.15-.11,1.58-.34.43-.22.76-.54,1-.94.23-.4.35-.86.35-1.37s-.1-.97-.3-1.32c-.2-.35-.51-.61-.94-.77s-.96-.24-1.62-.24c-.19,0-.39,0-.59.01-.2,0-.41.03-.64.06v-2.16c.14.02.28.03.42.04.14,0,.27.01.4.01,1.04,0,1.78-.21,2.23-.62.45-.42.67-1.06.67-1.94,0-.75-.23-1.33-.68-1.73-.46-.4-1.11-.6-1.96-.6s-1.56.2-2.05.61c-.49.41-.86,1-1.12,1.76l-2.35-.98c.22-.74.6-1.38,1.13-1.92s1.18-.96,1.96-1.26c.78-.3,1.63-.44,2.56-.44,1.14,0,2.08.18,2.84.55.76.37,1.33.87,1.7,1.51.38.64.56,1.35.56,2.14,0,.61-.09,1.14-.26,1.6-.18.46-.41.85-.71,1.18-.3.33-.62.58-.96.76-.34.18-.69.3-1.04.36v.05c.46.02.89.11,1.28.28.39.17.74.4,1.06.7.31.3.56.65.73,1.07.18.42.26.87.26,1.37,0,.96-.24,1.8-.72,2.52-.48.72-1.14,1.28-1.98,1.68-.84.4-1.81.6-2.92.6Z"/>
      <path class="cls-6" d="M1210.67,94.81c-1.9,0-3.4-.69-4.48-2.08-1.08-1.38-1.62-3.41-1.62-6.08s.54-4.7,1.62-6.08,2.57-2.08,4.48-2.08,3.42.69,4.5,2.08,1.62,3.41,1.62,6.08-.54,4.7-1.62,6.08c-1.08,1.38-2.58,2.08-4.5,2.08ZM1210.67,92.62c.77,0,1.41-.22,1.93-.66.52-.44.91-1.1,1.18-1.99.26-.89.4-2,.4-3.32s-.13-2.44-.4-3.32c-.26-.89-.66-1.55-1.18-1.99s-1.16-.66-1.93-.66-1.41.22-1.93.66c-.52.44-.91,1.1-1.16,1.99-.26.89-.38,2-.38,3.32s.13,2.44.38,3.32c.26.89.64,1.55,1.16,1.99.52.44,1.16.66,1.93.66Z"/>
    </g>
    <g>
      <path class="cls-6" d="M1170.89,136.39c-1.49,0-2.78-.33-3.88-1-1.1-.66-1.84-1.6-2.24-2.8l2.5-1.18c.14.58.37,1.07.67,1.49.3.42.7.73,1.2.95s1.11.32,1.85.32c.62,0,1.15-.11,1.58-.34.43-.22.76-.54,1-.94.23-.4.35-.86.35-1.37s-.1-.97-.3-1.32c-.2-.35-.51-.61-.94-.77s-.96-.24-1.62-.24c-.19,0-.39,0-.59.01-.2,0-.41.03-.64.06v-2.16c.14.02.28.03.42.04.14,0,.27.01.4.01,1.04,0,1.78-.21,2.23-.62.45-.42.67-1.06.67-1.94,0-.75-.23-1.33-.68-1.73-.46-.4-1.11-.6-1.96-.6s-1.56.2-2.05.61c-.49.41-.86,1-1.12,1.76l-2.35-.98c.22-.74.6-1.38,1.13-1.92s1.18-.96,1.96-1.26c.78-.3,1.63-.44,2.56-.44,1.14,0,2.08.18,2.84.55.76.37,1.33.87,1.7,1.51.38.64.56,1.35.56,2.14,0,.61-.09,1.14-.26,1.6-.18.46-.41.85-.71,1.18-.3.33-.62.58-.96.76-.34.18-.69.3-1.04.36v.05c.46.02.89.11,1.28.28.39.17.74.4,1.06.7.31.3.56.65.73,1.07.18.42.26.87.26,1.37,0,.96-.24,1.8-.72,2.52-.48.72-1.14,1.28-1.98,1.68-.84.4-1.81.6-2.92.6Z"/>
      <path class="cls-6" d="M1182.8,136.15v-10.87c0-.32,0-.65.01-1,0-.34.02-.71.04-1.09-.54.53-1.16.98-1.86,1.36-.7.38-1.41.64-2.15.8l-.48-2.23c.34-.05.73-.16,1.18-.34.45-.18.91-.4,1.39-.67.48-.27.92-.56,1.32-.88s.71-.62.94-.92h2.16v15.84h-2.54Z"/>
    </g>
    <g>
      <path class="cls-6" d="M1195.77,182.25c-1.49,0-2.78-.33-3.88-1-1.1-.66-1.84-1.6-2.24-2.8l2.5-1.18c.14.58.37,1.07.67,1.49.3.42.7.73,1.2.95s1.11.32,1.85.32c.62,0,1.15-.11,1.58-.34.43-.22.76-.54,1-.94.23-.4.35-.86.35-1.37s-.1-.97-.3-1.32c-.2-.35-.51-.61-.94-.77s-.96-.24-1.62-.24c-.19,0-.39,0-.59.01-.2,0-.41.03-.64.06v-2.16c.14.02.28.03.42.04.14,0,.27.01.4.01,1.04,0,1.78-.21,2.23-.62.45-.42.67-1.06.67-1.94,0-.75-.23-1.33-.68-1.73-.46-.4-1.11-.6-1.96-.6s-1.56.2-2.05.61c-.49.41-.86,1-1.12,1.76l-2.35-.98c.22-.74.6-1.38,1.13-1.92s1.18-.96,1.96-1.26c.78-.3,1.63-.44,2.56-.44,1.14,0,2.08.18,2.84.55.76.37,1.33.87,1.7,1.51.38.64.56,1.35.56,2.14,0,.61-.09,1.14-.26,1.6-.18.46-.41.85-.71,1.18-.3.33-.62.58-.96.76-.34.18-.69.3-1.04.36v.05c.46.02.89.11,1.28.28.39.17.74.4,1.06.7.31.3.56.65.73,1.07.18.42.26.87.26,1.37,0,.96-.24,1.8-.72,2.52-.48.72-1.14,1.28-1.98,1.68-.84.4-1.81.6-2.92.6Z"/>
      <path class="cls-6" d="M1204.49,182.01v-1.87c1.52-1.09,2.8-2.05,3.83-2.88,1.03-.83,1.86-1.6,2.48-2.3.62-.7,1.08-1.37,1.36-2,.28-.63.42-1.28.42-1.93,0-.85-.26-1.54-.79-2.06-.53-.53-1.26-.79-2.21-.79-.99,0-1.78.33-2.36,1-.58.66-.92,1.57-1,2.72l-2.23-1.03c.11-1.01.41-1.88.89-2.62s1.13-1.3,1.96-1.7c.82-.4,1.78-.6,2.87-.6.9,0,1.68.13,2.36.38.68.26,1.25.61,1.72,1.07s.82.99,1.07,1.6c.25.61.37,1.26.37,1.94,0,1.01-.25,1.98-.74,2.92-.5.94-1.28,1.89-2.35,2.87-1.07.98-2.48,2.02-4.22,3.14v.05c.19-.03.46-.05.79-.06.34,0,.67-.02,1.01-.02.34,0,.61-.01.82-.01h4.99v2.21h-11.02Z"/>
    </g>
    <g>
      <path class="cls-6" d="M1241.69,211.48c-1.49,0-2.78-.33-3.88-1-1.1-.66-1.84-1.6-2.24-2.8l2.5-1.18c.14.58.37,1.07.67,1.49.3.42.7.73,1.2.95s1.11.32,1.85.32c.62,0,1.15-.11,1.58-.34.43-.22.76-.54,1-.94.23-.4.35-.86.35-1.37s-.1-.97-.3-1.32c-.2-.35-.51-.61-.94-.77s-.96-.24-1.62-.24c-.19,0-.39,0-.59.01-.2,0-.41.03-.64.06v-2.16c.14.02.28.03.42.04.14,0,.27.01.4.01,1.04,0,1.78-.21,2.23-.62.45-.42.67-1.06.67-1.94,0-.75-.23-1.33-.68-1.73-.46-.4-1.11-.6-1.96-.6s-1.56.2-2.05.61c-.49.41-.86,1-1.12,1.76l-2.35-.98c.22-.74.6-1.38,1.13-1.92s1.18-.96,1.96-1.26c.78-.3,1.63-.44,2.56-.44,1.14,0,2.08.18,2.84.55.76.37,1.33.87,1.7,1.51.38.64.56,1.35.56,2.14,0,.61-.09,1.14-.26,1.6-.18.46-.41.85-.71,1.18-.3.33-.62.58-.96.76-.34.18-.69.3-1.04.36v.05c.46.02.89.11,1.28.28.39.17.74.4,1.06.7.31.3.56.65.73,1.07.18.42.26.87.26,1.37,0,.96-.24,1.8-.72,2.52-.48.72-1.14,1.28-1.98,1.68-.84.4-1.81.6-2.92.6Z"/>
      <path class="cls-6" d="M1255.75,211.48c-1.49,0-2.78-.33-3.88-1-1.1-.66-1.84-1.6-2.24-2.8l2.5-1.18c.14.58.37,1.07.67,1.49.3.42.7.73,1.2.95s1.11.32,1.85.32c.62,0,1.15-.11,1.58-.34.43-.22.76-.54,1-.94.23-.4.35-.86.35-1.37s-.1-.97-.3-1.32c-.2-.35-.51-.61-.94-.77s-.96-.24-1.62-.24c-.19,0-.39,0-.59.01-.2,0-.41.03-.64.06v-2.16c.14.02.28.03.42.04.14,0,.27.01.4.01,1.04,0,1.78-.21,2.23-.62.45-.42.67-1.06.67-1.94,0-.75-.23-1.33-.68-1.73-.46-.4-1.11-.6-1.96-.6s-1.56.2-2.05.61c-.49.41-.86,1-1.12,1.76l-2.35-.98c.22-.74.6-1.38,1.13-1.92s1.18-.96,1.96-1.26c.78-.3,1.63-.44,2.56-.44,1.14,0,2.08.18,2.84.55.76.37,1.33.87,1.7,1.51.38.64.56,1.35.56,2.14,0,.61-.09,1.14-.26,1.6-.18.46-.41.85-.71,1.18-.3.33-.62.58-.96.76-.34.18-.69.3-1.04.36v.05c.46.02.89.11,1.28.28.39.17.74.4,1.06.7.31.3.56.65.73,1.07.18.42.26.87.26,1.37,0,.96-.24,1.8-.72,2.52-.48.72-1.14,1.28-1.98,1.68-.84.4-1.81.6-2.92.6Z"/>
    </g>
    <g>
      <path class="cls-6" d="M1291.41,162.71c-1.49,0-2.78-.33-3.88-1-1.1-.66-1.84-1.6-2.24-2.8l2.5-1.18c.14.58.37,1.07.67,1.49.3.42.7.73,1.2.95s1.11.32,1.85.32c.62,0,1.15-.11,1.58-.34.43-.22.76-.54,1-.94.23-.4.35-.86.35-1.37s-.1-.97-.3-1.32c-.2-.35-.51-.61-.94-.77s-.96-.24-1.62-.24c-.19,0-.39,0-.59.01-.2,0-.41.03-.64.06v-2.16c.14.02.28.03.42.04.14,0,.27.01.4.01,1.04,0,1.78-.21,2.23-.62.45-.42.67-1.06.67-1.94,0-.75-.23-1.33-.68-1.73-.46-.4-1.11-.6-1.96-.6s-1.56.2-2.05.61c-.49.41-.86,1-1.12,1.76l-2.35-.98c.22-.74.6-1.38,1.13-1.92s1.18-.96,1.96-1.26c.78-.3,1.63-.44,2.56-.44,1.14,0,2.08.18,2.84.55.76.37,1.33.87,1.7,1.51.38.64.56,1.35.56,2.14,0,.61-.09,1.14-.26,1.6-.18.46-.41.85-.71,1.18-.3.33-.62.58-.96.76-.34.18-.69.3-1.04.36v.05c.46.02.89.11,1.28.28.39.17.74.4,1.06.7.31.3.56.65.73,1.07.18.42.26.87.26,1.37,0,.96-.24,1.8-.72,2.52-.48.72-1.14,1.28-1.98,1.68-.84.4-1.81.6-2.92.6Z"/>
      <path class="cls-6" d="M1307.22,162.47v-3.96h-7.73v-1.75c.03-.08.08-.18.16-.29.07-.11.16-.24.25-.38l6.6-9.46h3.14v9.89h2.69v1.99h-2.69v3.96h-2.42ZM1301.9,156.52h5.33v-5.59c0-.38.01-.78.04-1.19.02-.41.04-.81.06-1.21h-.05c-.18.38-.4.8-.68,1.26-.28.46-.54.85-.78,1.19l-3.74,5.33s-.06.06-.08.1-.05.07-.08.12Z"/>
    </g>
    <g>
      <path class="cls-6" d="M1216.91,119.85c-1.49,0-2.78-.33-3.88-1-1.1-.66-1.84-1.6-2.24-2.8l2.5-1.18c.14.58.37,1.07.67,1.49.3.42.7.73,1.2.95s1.11.32,1.85.32c.62,0,1.15-.11,1.58-.34.43-.22.76-.54,1-.94.23-.4.35-.86.35-1.37s-.1-.97-.3-1.32c-.2-.35-.51-.61-.94-.77s-.96-.24-1.62-.24c-.19,0-.39,0-.59.01-.2,0-.41.03-.64.06v-2.16c.14.02.28.03.42.04.14,0,.27.01.4.01,1.04,0,1.78-.21,2.23-.62.45-.42.67-1.06.67-1.94,0-.75-.23-1.33-.68-1.73-.46-.4-1.11-.6-1.96-.6s-1.56.2-2.05.61c-.49.41-.86,1-1.12,1.76l-2.35-.98c.22-.74.6-1.38,1.13-1.92s1.18-.96,1.96-1.26c.78-.3,1.63-.44,2.56-.44,1.14,0,2.08.18,2.84.55.76.37,1.33.87,1.7,1.51.38.64.56,1.35.56,2.14,0,.61-.09,1.14-.26,1.6-.18.46-.41.85-.71,1.18-.3.33-.62.58-.96.76-.34.18-.69.3-1.04.36v.05c.46.02.89.11,1.28.28.39.17.74.4,1.06.7.31.3.56.65.73,1.07.18.42.26.87.26,1.37,0,.96-.24,1.8-.72,2.52-.48.72-1.14,1.28-1.98,1.68-.84.4-1.81.6-2.92.6Z"/>
      <path class="cls-6" d="M1230.83,119.85c-1.41,0-2.56-.3-3.47-.91s-1.62-1.49-2.15-2.64l2.4-1.25c.24.77.6,1.4,1.09,1.88s1.21.73,2.17.73c.67,0,1.24-.12,1.72-.37.47-.25.84-.6,1.09-1.06.26-.46.38-1,.38-1.64,0-.67-.12-1.23-.36-1.68-.24-.45-.58-.79-1.03-1.02s-1.01-.35-1.68-.35c-.46,0-.9.05-1.3.14-.4.1-.76.24-1.08.44-.32.2-.6.46-.84.78l-2.11-.41.96-8.74h9.22v2.21h-7.18l-.58,4.46-.05.26h.05c.37-.4.84-.71,1.43-.94.58-.22,1.28-.34,2.08-.34,1.02,0,1.9.21,2.64.64.74.42,1.31,1.01,1.73,1.76s.62,1.62.62,2.62c0,.86-.14,1.63-.43,2.3-.29.67-.7,1.24-1.22,1.7-.53.46-1.14.81-1.84,1.04-.7.23-1.45.35-2.27.35Z"/>
    </g>
    <g>
      <path class="cls-6" d="M1279.06,90.68c-1.49,0-2.78-.33-3.88-1-1.1-.66-1.84-1.6-2.24-2.8l2.5-1.18c.14.58.37,1.07.67,1.49.3.42.7.73,1.2.95s1.11.32,1.85.32c.62,0,1.15-.11,1.58-.34.43-.22.76-.54,1-.94.23-.4.35-.86.35-1.37s-.1-.97-.3-1.32c-.2-.35-.51-.61-.94-.77s-.96-.24-1.62-.24c-.19,0-.39,0-.59.01-.2,0-.41.03-.64.06v-2.16c.14.02.28.03.42.04.14,0,.27.01.4.01,1.04,0,1.78-.21,2.23-.62.45-.42.67-1.06.67-1.94,0-.75-.23-1.33-.68-1.73-.46-.4-1.11-.6-1.96-.6s-1.56.2-2.05.61c-.49.41-.86,1-1.12,1.76l-2.35-.98c.22-.74.6-1.38,1.13-1.92s1.18-.96,1.96-1.26c.78-.3,1.63-.44,2.56-.44,1.14,0,2.08.18,2.84.55.76.37,1.33.87,1.7,1.51.38.64.56,1.35.56,2.14,0,.61-.09,1.14-.26,1.6-.18.46-.41.85-.71,1.18-.3.33-.62.58-.96.76-.34.18-.69.3-1.04.36v.05c.46.02.89.11,1.28.28.39.17.74.4,1.06.7.31.3.56.65.73,1.07.18.42.26.87.26,1.37,0,.96-.24,1.8-.72,2.52-.48.72-1.14,1.28-1.98,1.68-.84.4-1.81.6-2.92.6Z"/>
      <path class="cls-6" d="M1293.99,74.36c.85,0,1.6.12,2.26.35s1.23.6,1.72,1.09c.49.5.89,1.14,1.21,1.94l-2.26,1.08c-.22-.69-.58-1.23-1.07-1.63-.49-.4-1.16-.6-2.03-.6-.62,0-1.18.15-1.66.46-.48.3-.89.73-1.22,1.28-.34.55-.59,1.2-.77,1.94-.18.74-.26,1.55-.26,2.41v.43l.1.05c.18-.64.49-1.16.95-1.55s.97-.68,1.55-.88c.58-.19,1.14-.29,1.7-.29,1.06,0,1.98.2,2.76.61.78.41,1.4.99,1.84,1.74.44.75.66,1.65.66,2.69s-.23,1.97-.7,2.75c-.46.78-1.11,1.38-1.93,1.8-.82.42-1.81.64-2.96.64-1.34,0-2.49-.34-3.43-1.01-.94-.67-1.66-1.62-2.16-2.83-.5-1.22-.74-2.64-.74-4.27,0-1.81.28-3.32.85-4.54.57-1.22,1.34-2.13,2.32-2.75.98-.62,2.07-.92,3.29-.92ZM1293.82,82.59c-.61,0-1.14.12-1.61.37-.46.25-.83.59-1.09,1.02-.26.43-.4.94-.4,1.51s.14,1.06.42,1.51c.28.45.65.8,1.12,1.07.46.26.98.4,1.56.4.98,0,1.74-.26,2.28-.79.54-.53.82-1.26.82-2.18,0-.59-.12-1.11-.36-1.55-.24-.44-.59-.78-1.04-1.01s-1.02-.35-1.69-.35Z"/>
    </g>
    <g>
      <path class="cls-6" d="M1280.26,79.81c-1.49,0-2.78-.33-3.88-1-1.1-.66-1.84-1.6-2.24-2.8l2.5-1.18c.14.58.37,1.07.67,1.49.3.42.7.73,1.2.95s1.11.32,1.85.32c.62,0,1.15-.11,1.58-.34.43-.22.76-.54,1-.94.23-.4.35-.86.35-1.37s-.1-.97-.3-1.32c-.2-.35-.51-.61-.94-.77s-.96-.24-1.62-.24c-.19,0-.39,0-.59.01-.2,0-.41.03-.64.06v-2.16c.14.02.28.03.42.04.14,0,.27.01.4.01,1.04,0,1.78-.21,2.23-.62.45-.42.67-1.06.67-1.94,0-.75-.23-1.33-.68-1.73-.46-.4-1.11-.6-1.96-.6s-1.56.2-2.05.61c-.49.41-.86,1-1.12,1.76l-2.35-.98c.22-.74.6-1.38,1.13-1.92s1.18-.96,1.96-1.26c.78-.3,1.63-.44,2.56-.44,1.14,0,2.08.18,2.84.55.76.37,1.33.87,1.7,1.51.38.64.56,1.35.56,2.14,0,.61-.09,1.14-.26,1.6-.18.46-.41.85-.71,1.18-.3.33-.62.58-.96.76-.34.18-.69.3-1.04.36v.05c.46.02.89.11,1.28.28.39.17.74.4,1.06.7.31.3.56.65.73,1.07.18.42.26.87.26,1.37,0,.96-.24,1.8-.72,2.52-.48.72-1.14,1.28-1.98,1.68-.84.4-1.81.6-2.92.6Z"/>
      <path class="cls-6" d="M1287.34,63.73h12.07v2.14c-1.33,1.38-2.4,2.79-3.22,4.24s-1.4,2.95-1.76,4.51-.54,3.21-.54,4.96h-2.59c0-1.76.22-3.48.66-5.15.44-1.67,1.11-3.27,2.02-4.8.9-1.53,2.04-2.96,3.42-4.31l.48.65h-10.54v-2.23Z"/>
    </g>
    <g>
      <path class="cls-6" d="M1140.25,197.34c-1.49,0-2.78-.33-3.88-1-1.1-.66-1.84-1.6-2.24-2.8l2.5-1.18c.14.58.37,1.07.67,1.49.3.42.7.73,1.2.95s1.11.32,1.85.32c.62,0,1.15-.11,1.58-.34.43-.22.76-.54,1-.94.23-.4.35-.86.35-1.37s-.1-.97-.3-1.32c-.2-.35-.51-.61-.94-.77s-.96-.24-1.62-.24c-.19,0-.39,0-.59.01-.2,0-.41.03-.64.06v-2.16c.14.02.28.03.42.04.14,0,.27.01.4.01,1.04,0,1.78-.21,2.23-.62.45-.42.67-1.06.67-1.94,0-.75-.23-1.33-.68-1.73-.46-.4-1.11-.6-1.96-.6s-1.56.2-2.05.61c-.49.41-.86,1-1.12,1.76l-2.35-.98c.22-.74.6-1.38,1.13-1.92s1.18-.96,1.96-1.26c.78-.3,1.63-.44,2.56-.44,1.14,0,2.08.18,2.84.55.76.37,1.33.87,1.7,1.51.38.64.56,1.35.56,2.14,0,.61-.09,1.14-.26,1.6-.18.46-.41.85-.71,1.18-.3.33-.62.58-.96.76-.34.18-.69.3-1.04.36v.05c.46.02.89.11,1.28.28.39.17.74.4,1.06.7.31.3.56.65.73,1.07.18.42.26.87.26,1.37,0,.96-.24,1.8-.72,2.52-.48.72-1.14,1.28-1.98,1.68-.84.4-1.81.6-2.92.6Z"/>
      <path class="cls-6" d="M1154.72,181.04c1.07,0,2,.17,2.8.52.79.34,1.4.83,1.84,1.45.43.62.65,1.38.65,2.26,0,.82-.2,1.53-.59,2.15-.39.62-.96,1.08-1.72,1.4v.02c.91.34,1.64.84,2.17,1.5s.8,1.48.8,2.46-.24,1.75-.73,2.42c-.49.67-1.18,1.19-2.06,1.56-.89.37-1.94.55-3.16.55s-2.27-.18-3.16-.55c-.89-.37-1.58-.89-2.08-1.56-.5-.67-.74-1.48-.74-2.42s.26-1.78.79-2.45c.53-.67,1.26-1.18,2.21-1.51v-.02c-.72-.3-1.29-.76-1.7-1.38-.42-.62-.62-1.34-.62-2.17,0-.88.22-1.63.65-2.26.43-.62,1.05-1.11,1.85-1.45.8-.34,1.74-.52,2.81-.52ZM1154.72,195.18c.7,0,1.3-.1,1.8-.31.5-.21.88-.51,1.15-.91.27-.4.41-.86.41-1.39,0-.56-.14-1.04-.42-1.43s-.67-.69-1.16-.9-1.09-.31-1.78-.31-1.26.1-1.78.31c-.51.21-.91.51-1.19.9-.28.39-.42.87-.42,1.43,0,.53.14.99.41,1.39.27.4.66.7,1.18.91.51.21,1.11.31,1.8.31ZM1154.72,183.2c-.85,0-1.52.21-2.03.62s-.76.98-.76,1.7.26,1.28.77,1.69,1.18.61,2.02.61,1.5-.2,2-.61c.5-.41.76-.97.76-1.69s-.25-1.29-.74-1.7c-.5-.42-1.17-.62-2.02-.62Z"/>
    </g>
    <g>
      <path class="cls-6" d="M1165.22,202.15c-1.49,0-2.78-.33-3.88-1-1.1-.66-1.84-1.6-2.24-2.8l2.5-1.18c.14.58.37,1.07.67,1.49.3.42.7.73,1.2.95s1.11.32,1.85.32c.62,0,1.15-.11,1.58-.34.43-.22.76-.54,1-.94.23-.4.35-.86.35-1.37s-.1-.97-.3-1.32c-.2-.35-.51-.61-.94-.77s-.96-.24-1.62-.24c-.19,0-.39,0-.59.01-.2,0-.41.03-.64.06v-2.16c.14.02.28.03.42.04.14,0,.27.01.4.01,1.04,0,1.78-.21,2.23-.62.45-.42.67-1.06.67-1.94,0-.75-.23-1.33-.68-1.73-.46-.4-1.11-.6-1.96-.6s-1.56.2-2.05.61c-.49.41-.86,1-1.12,1.76l-2.35-.98c.22-.74.6-1.38,1.13-1.92s1.18-.96,1.96-1.26c.78-.3,1.63-.44,2.56-.44,1.14,0,2.08.18,2.84.55.76.37,1.33.87,1.7,1.51.38.64.56,1.35.56,2.14,0,.61-.09,1.14-.26,1.6-.18.46-.41.85-.71,1.18-.3.33-.62.58-.96.76-.34.18-.69.3-1.04.36v.05c.46.02.89.11,1.28.28.39.17.74.4,1.06.7.31.3.56.65.73,1.07.18.42.26.87.26,1.37,0,.96-.24,1.8-.72,2.52-.48.72-1.14,1.28-1.98,1.68-.84.4-1.81.6-2.92.6Z"/>
      <path class="cls-6" d="M1179.36,185.83c1.36,0,2.51.34,3.44,1.01.94.67,1.64,1.62,2.11,2.83.47,1.22.71,2.65.71,4.3,0,1.82-.25,3.34-.74,4.55-.5,1.21-1.21,2.12-2.14,2.72s-2.05.91-3.36.91-2.5-.3-3.46-.89c-.96-.59-1.68-1.48-2.16-2.66l2.42-1.13c.22.75.6,1.35,1.12,1.8.52.45,1.23.67,2.12.67.74,0,1.35-.14,1.85-.43.5-.29.89-.7,1.19-1.25.3-.54.51-1.2.64-1.97.13-.77.19-1.63.19-2.59v-.26h-.1c-.18.64-.49,1.16-.95,1.56-.46.4-.97.69-1.55.88-.58.18-1.15.28-1.73.28-1.02,0-1.93-.2-2.72-.61-.79-.41-1.41-.98-1.86-1.72-.45-.74-.67-1.61-.67-2.62,0-1.1.23-2.06.68-2.86.46-.8,1.1-1.42,1.94-1.86.84-.44,1.84-.66,3.01-.66ZM1179.38,188.08c-1.01,0-1.78.27-2.32.82-.54.54-.8,1.3-.8,2.28,0,.86.28,1.54.85,2.03.57.49,1.32.73,2.27.73.61,0,1.14-.12,1.61-.37s.83-.59,1.09-1.02c.26-.43.4-.94.4-1.51,0-.61-.13-1.13-.4-1.57-.26-.44-.63-.78-1.09-1.02-.46-.24-1-.36-1.61-.36Z"/>
    </g>
  </g>
  <path class="cls-4" d="M1446.37,944.74s0-.03,0-.04c-.03,0-.06,0-.08,0l.08.04Z"/>
  <path class="cls-4" d="M1357.15,948.83h0s.05.05.07.08l-.07-.08Z"/>
  <path class="cls-4" d="M1005.94,947.71s0,0,0-.01c-.02-.02-.05-.03-.07-.05l.07.06Z"/>
  <path class="cls-4" d="M1378.46,958.9l.07.07s0,0,.01-.01c0,0-.09-.05-.09-.06Z"/>
  <path class="cls-4" d="M1374.38,955.92s-.04.03-.06.05c0,.01,0,.02,0,.04l.06-.08Z"/>
  <path class="cls-4" d="M1385.42,956.95s0,.01,0,.02c0,0,0-.01,0-.02h-.01Z"/>
  <g>
    <g>
      <use width="15" height="15" transform="translate(1165.63 161.86)" xlink:href="#Anchor_2"/>
      <use width="15" height="15" transform="translate(1140.68 157.06)" xlink:href="#Anchor_2"/>
      <use width="15" height="15" transform="translate(1279.4 39.52)" xlink:href="#Anchor_2"/>
      <use width="15" height="15" transform="translate(1279.4 50.4)" xlink:href="#Anchor_2"/>
      <use width="15" height="15" transform="translate(1216.89 79.57)" xlink:href="#Anchor_2"/>
      <use width="15" height="15" transform="translate(1291.87 122.43)" xlink:href="#Anchor_2"/>
      <use width="15" height="15" transform="translate(1241.72 171.2)" xlink:href="#Anchor_2"/>
      <use width="15" height="15" transform="translate(1195.82 141.96)" xlink:href="#Anchor_2"/>
      <use width="15" height="15" transform="translate(1168.72 96.11)" xlink:href="#Anchor_2"/>
      <use width="15" height="15" transform="translate(1196.64 54.52)" xlink:href="#Anchor_2"/>
      <use width="15" height="15" transform="translate(1230.63 42.31)" xlink:href="#Anchor_2"/>
      <use width="15" height="15" transform="translate(1125.16 124.07)" xlink:href="#Anchor_2"/>
      <use width="15" height="15" transform="translate(1140.68 122.51)" xlink:href="#Anchor_2"/>
      <use width="15" height="15" transform="translate(1109.84 126.96)" xlink:href="#Anchor_2"/>
      <use width="15" height="15" transform="translate(1097.4 118.65)" xlink:href="#Anchor_2"/>
      <use width="15" height="15" transform="translate(1078.85 103.61)" xlink:href="#Anchor_2"/>
      <use width="15" height="15" transform="translate(1054.78 113.62)" xlink:href="#Anchor_2"/>
      <use width="15" height="15" transform="translate(1059.45 121.95)" xlink:href="#Anchor_2"/>
      <use width="15" height="15" transform="translate(1057.24 122.7)" xlink:href="#Anchor_2"/>
      <use width="15" height="15" transform="translate(1035.62 151.99)" xlink:href="#Anchor_2"/>
      <use width="15" height="15" transform="translate(1061.13 159.48)" xlink:href="#Anchor_2"/>
      <use width="15" height="15" transform="translate(1092.41 178.7)" xlink:href="#Anchor_2"/>
      <use width="15" height="15" transform="translate(1120.4 188.5)" xlink:href="#Anchor_2"/>
      <use width="15" height="15" transform="translate(1094.48 197.5)" xlink:href="#Anchor_2"/>
      <use width="15" height="15" transform="translate(1241.72 228.94)" xlink:href="#Anchor_2"/>
      <use width="15" height="15" transform="translate(1203.32 197.5)" xlink:href="#Anchor_2"/>
      <use width="15" height="15" transform="translate(1165.63 196)" xlink:href="#Anchor_2"/>
      <use width="15" height="15" transform="translate(1259.13 294.25)" xlink:href="#Anchor_2"/>
      <use width="15" height="15" transform="translate(1335.82 212.5)" xlink:href="#Anchor_2"/>
      <use width="15" height="15" transform="translate(1276.87 231.73)" xlink:href="#Anchor_2"/>
      <use width="15" height="15" transform="translate(1414.93 267.31)" xlink:href="#Anchor_2"/>
      <use width="15" height="15" transform="translate(1379.47 161.71)" xlink:href="#Anchor_2"/>
      <use width="15" height="15" transform="translate(1418.93 117.72)" xlink:href="#Anchor_2"/>
      <use width="15" height="15" transform="translate(1389 58.1)" xlink:href="#Anchor_2"/>
      <use width="15" height="15" transform="translate(1365.21 30.08)" xlink:href="#Anchor_2"/>
      <use width="15" height="15" transform="translate(1311.51 15.66)" xlink:href="#Anchor_2"/>
      <use width="15" height="15" transform="translate(1101.98 158.85)" xlink:href="#Anchor_2"/>
      <use width="15" height="15" transform="translate(1106.84 157.06)" xlink:href="#Anchor_2"/>
      <use width="15" height="15" transform="translate(1103.69 162.58)" xlink:href="#Anchor_2"/>
    </g>
    <polyline class="cls-1" points="1101.99 205 1127.9 195.99 1114.34 164.55 1109.49 166.35 1111.19 170.08 1099.91 186.19 1068.63 166.98 1043.12 159.49 1064.74 130.19 1066.95 129.44 1062.28 121.11 1086.35 111.1 1104.9 126.14 1117.34 134.46 1132.66 131.56 1148.1 130 1173.13 169.36 1148.18 164.55 1286.87 57.89 1238.13 49.81 1204.14 62.02 1176.22 103.6 1203.32 149.46 1224.51 87.23 1299.17 129.84 1173.14 203.5 1210.74 204.95 1249.22 178.7 1249.22 236.43 1266.63 301.75 1418.93 274.18 1284.37 239.23 1343.32 219.99 1386.97 169.21 1426.43 125.22 1401.84 78.08 1396.5 65.59 1372.71 37.57 1319.01 23.15 1286.9 47.02"/>
  </g>
  <g class="cls-3">
    <g>
      <path class="cls-5" d="M1263.43,325.84c-9.74-14.99-7.29-16.22-14.7-32.48-1.94.75-.35,2.01-.39,2.05.25-.26,1.05-1.09,1.5-1.67,2.24-2.85,4.76-7.48,10.29-10.41.5-.28.09-3.66,1.07-4.53,1.98-1.78,5.46-3.06,8.66-5.1,5.31-3.38,11.23-3.02,16.14-2.26.17-.65.88-2.28,1.09-2.93-2.82-.86-5.94-.76-8.02-1.63-1.67-.69-3.33-.83-4.33-1.08-5.88-1.48-9.12-6.59-11.97-8.7-.44-.33-1.3-1.22-1.71-1.51-5.31-1.67-10.07-1.52-12.8-4.46-3.96,1.38-8.53-.29-14.4-1.78-6.71-1.7-11.2-4.4-13.81-6.56-.35-.29-1.41.07-1.59-.06.04.03,1,1.23,2.46,1.69-.2-.13.7-2.64.52-2.75-.29-.19-.87.03-1.13-.12.45.27-.76,1.26.09,1.53.89-10.34,4.6-10.48,2.56-20.66-5.23-.76-9.19-4.65-12.09-6.14-1.21-.11-3.7.79-4.74.59-3.8,3.9-9.52,11.51-18.38,10.84-.52.06-1.18-.52-1.84-.41-3.83.65-9.24-1.25-15.4-3.11-8.94-2.71-15.41-7.12-18.01-11.42-.17-.29-.11-.04-.31-.36-6.15-4.98-8.47-12.4-9.64-17.29-.91.23-.12,1.31-.83,1.46-1.12.24-1.05.05-2.21.48-1.3,1.96-2.96,5.02-6.47,7.84-6.36,7.96-18.84,9.08-27.9,9.27-.86.02-17.31,1.3-27.9-7.4-.83.23-2.63-.85-3.38-.69-12.01,2.66-19.4-4.28-23.42-8.33-.3-.31-.53-1.7-.88-2.04-7.17-3.08-10.01-7.71-11.6-10.12-.13-.2-1.45.34-1.59.14-6.42-7.41-7.99-14.87-7.8-18-.54-2.53,2.08-5.75,2.01-7.75-5.35-4.49-16.69-11.81-13.74-24.01,2.74-11.32,14.76-14.81,21.35-17.19.02-6.62-.06-18.24,9.57-23.11,6.37-3.22,15.69-2.33,20.89-2.69.94-.07.91-.48,1.85-.55,7.45-.54,16.28.01,24.59,2.57,11.61,3.57,14.32,13.64,15.86,20.19,3.27,1.77,7.33,3.91,10.53,9.53-2.49,4.59-8.31.27-8.93,5.45-.51,4.25,5.42-.13,8.58,2.75-.98,3.88-3.01,6.95-4.75,9.35,2.16,4.31,4.79,10.37,3.05,17.3-.86,3.43-2.84,6.52-4.25,8.83,2.05-1.68,4.84-3.77,8.2-5.16,1.99-.82,1.85-1.34,3.3-1.8-1.25-3.71-.64-8.12.53-12.94,1.16-4.8,2.42-9.82,4.18-13.33.43-.85,3.18-.54,3.55-1.33,3.04-6.48,7.53-10.2,11.63-12.06.56-3.18-.05-7.76,2.03-11.84.15-.56,3.36-.65,3.52-1.52.65-3.46.47-8.31,3.13-13.12,3.04-5.52,7.62-8.56,12-10.36-1.18-5.57-1.88-12.63,2.54-19.03,2.52-3.65,4.7-7.47,7.23-10.19,1.24-1.33,1.91-2.89,2.82-3.99,6.01-7.22,16.18-5.61,21.17-6.39.31-.05,1.38-.38,1.74-.44,9.41-6.77,18.21-5.61,21.53-4.49.75.26,1.25.6,1.82.74,13.68,3.35,21.31,13.41,21.97,24.6.33,5.62-.35,10.07-1.34,13.21-.17.54,1.25,1.46,1.13,1.92.01,5.11-2,9.49-2.92,12.39-.2.64,1.35,1.52,1.23,1.99-.22,4.76-2.32,8.31-3.96,11.3,2.36,3.57,3.26,8.81,3.18,14.76,3.1-4.62,8.66-6.3,12.53-7.91-.06-2.08.71-5.26,1.24-8.02,1.12-5.82.1-10.38,2.09-12.95-1.04-3.12-.86-7.41.04-13.16.79-5.9,5.12-9.55,7.1-12.06.58-.74-.32-2.76-.12-3.2.21-.53,2.07.22,2.28-.31,1.4-3.63,3.81-6.81,5.99-10.88.04-.33.66-1.29.69-1.62.9-9.11,3.36-12.97,6.54-15.64.07-.14-2.17-2.05-2.11-2.18,1.98-4.41,6.6-9.96,13.21-14.62,8.4-5.93,17.27-4.06,23.64-2.05,3.65-4.32,8.94-10.57,17.31-10.57,0,0,.01,2.01.02,2.01,6.18,0,10.86,2.01,14.35,4.93,4.82-2.96,11.65-7.4,19.25-4.81,10.43,3.55,12.03,15.41,13.92,20.81,3.09,1.68,7.79,3.35,11.39,6.78,6.04,5.75,8.55,12.15,9.34,15.97.05.23-1.42,1.11-1.37,1.36.17.22,1.79-.3,2-.04,2.34,2.97,8.27,9.44,7.86,19.24-.24,5.76-2.82,11.91-8.2,19.5-.26.36.88,1.16.62,1.52-2.35,3.34-7.48,5.94-12.95,10.06-.46.34-1.14,1.39-1.89,2.07-.5.46.16.87-.42,1.39,2.08-.12,4.03,2.45,6.18,2.36.53-.09,1.09-4.03,2.01-4.3,2.92-.86,7.54,1.85,12.23,1.75,3.29-.08,7.64-.38,11.95-.15,2.88.16,5.94-1.09,7.49-1.09,7.82,0,9.17-4.46,15.05.69s1.49,7.1,2.53,14.85c2.05,15.34-7.73,23.23-13.44,28.22-1.02.89-1.95,1.78-2.91,2.68-8.05,7.53-17.71,4.56-23.78,3.39-.98.88-1.68,3.3-2.67,4.19-.63,5.05-3.32,11.68-10.25,17.63-2.45,2.1-3.88,5.01-6.21,6.75-1.64,1.22-4.17,1.21-5.52,2.31-6.2,5.1-12.22,6.74-16.97,6.83-1.68,2.22-2.66,6.64-5.84,9.23-.21.42-3.37-1.2-3.56-.81-1.81,3.73-2.38,12.03-9.11,15.8-4.06,2.27-8.81,2.26-12.5,2.85-1.06.17-2.37-.33-3.41-.13-2.31,2.81-5.3,7.68-10.75,10.38,2.68-.44,4.76.89,7.91,1.66,1.21.3,2.99-.72,4.06-.27,3.48-1.66,3.32-6.94,6.64-4.98,3.23,1.91-1.05,4.16-.62,7.89,1.85,1.44,1.9,4.26,3.17,5.7.67.14,2.7-2.63,3.35-2.48,4.02.94,6.66,5.53,9.16,7.49,3.95-1.21,9.84-4.34,16.38-2.81,1.88.44,3.48.05,5.03.81,3.01-.62,6.17,2.22,9.96,2.98,5.7,1.14,10.36,1.73,13.34,4.33,3.83-1.52,8.59-2,14.12-.87,8.62,1.76,13.03,8.56,16.28,13.54,1.11,1.45,2.47,2.51,3.23,3.64.39.58.25,1.92.45,2.18-.04-.05.38-1.2-.39-1.87.25.39,1.79-.26,1.92-.09-.86-1.14-3.01-1.87-7.15-2.71-5.33,17.06-2.65,17.61-9.48,34.12-7.44-1.3-10.55-6.73-13.62-11.1-3.91,1.39-8.78,1.64-14.19.46-.6-.13-2.8,3.14-4.09,3.09-3.07-.1-6.47-3.44-10.7-4.41-4.3-.98-8.6-.61-11.25-2.84-.52.06-.8-1.05-1.4-.96-3.41.52-7.73.24-13.1-.91-3.81-.82-7.27-1.2-9.83-2.99-1.36,2.26-2.78,5.09-5.2,7.01-4.48,3.53-10.49,3.56-14.84,3.78-.76,5.73-2.69,12.13-9.07,16.71-9.22,6.6-18.82,5.3-25.33,2.91-1.97,1.73-3.46,3.72-6.4,5.43-.3.37-.73.24-1.05.64-2.46,3.14-7.08,7.68-14.07,10.39ZM1363.54,283.1s0-1.97,0-1.97c0,0,0,1.97,0,1.97ZM1303.8,237.79l1.71-.26c0,.13-1.71.26-1.71.26ZM1294.68,234.18c1,.4,2.42-.69,3.13-.52.66.17,2.02,3.32,3.37,3.39,1.47.08,3.59.22,5.37.42,1.73-1.15,4.12-4.3,6.65-5.52-2.82.55-5.91,3.13-8.13,3.29-1.56.12-3.29-1.14-4.06-.93-2.08.56-4.41-.16-6.32-.14ZM1187.16,226.15s0-1.97,0-1.97c0,0,0,1.97,0,1.97ZM1216.36,218.32s-.04-1.97-.06-1.97c.02,0,.04,1.97.06,1.97ZM1155.47,212.6s0-1.97.01-1.97c0,0,0,1.97-.01,1.97ZM1302.15,199.26l1.71-.26c0,.13-1.71.26-1.71.26ZM1282.31,196.4c4.66,0,9.17-.67,11.89.16.22.07.17,3.16.41,3.23,2.93-.56,5.52-.64,7.78-.81.39-.03.85-.88,1.28-.92.05-.05-1.67-2.13-1.63-2.18,2.66-3.23,8.07-7.49,14.9-9.73,3.51-1.15,7.08-1.02,9.78-1.48,1.78-3.48,4.99-7.05,9.63-10.48.34-.4.08-2.15.53-2.74,1.86-2.46,4.13-6.3,7.98-9.28,6.56-5.07,14.51-3.09,18.96-3.14.02,0,1.07-.06,1.09-.06.96-.74-.21-4.28.73-4.98.66-.49,3.43.9,4.05.43.19-1.55-.55-4.04-.1-6-7.61.26-13.5-2.52-17.5-6.22-2.59,1.35-5.66.67-9.32,1.06-.47.19-1.62.42-2.17.68-3.15,1.44-6.8,5.66-12.33,5.98-2.49.15-4.63.35-6.75-.2-4.38,1.56-8.59-.31-11.24-.47-1.66-.1-3.44-1.94-5.28-1.67-1.52.4-1.77,2.45-3.55,2.48-2.92-17.52-4.27-17.29-6.85-34.86-1.04.27.8.55,0,.94.28,2.54-2.63,5.21-3.38,9.1-2.09,10.85-7.31,17.4-13.25,19.61-.09,1.79.65,2.72.16,5.27-.57,2.97-1.4,4.19-1.65,5.8-.26,1.71-.46,3.72-1.16,7.35-.09.47-.02.49-.11.96-.93,4.83-.62,5.46-1.12,9.42,0,2.45-4.16,4.03-5.17,6.34-1.46,3.35-3.77,9.03-12.81,10.6-.09.06-1.29-.63-1.46-.5-.94.69-1.29,2.64-2.44,3.57-.8.65-2.46.83-3.35,1.52-.02.39,1.16,3.52,1.14,3.93,1.61-.31,3.31-1.97,4.84-2.22,2.27-.38,3.96-2.62,5.88-3.09,6.5-1.6,12.23,2.92,15.99,3.82.39.09,1.1-2.79,1.5-2.7,1.37-.22,2.81,1.46,4.09,1.46ZM1051.68,198.56s.01-1.97.02-1.97c0,0-.01,1.97-.02,1.97ZM1177.43,191.65s1.71-.26,1.71-.26c0,.13-1.71.26-1.71.26ZM1178.12,185.15c1.92,1.79,4.99,2.57,6.19,4.4.08-.01-.2,1.92-.12,1.91,3.46-3.79,8.35-8.98,17.33-9.17,4.36-.09,7.79-.02,10.21.59.35.09.97-2.59,1.31-2.51,1.1-.07,1.46,1.72,2.44,1.83,1.36-4.49,4.65-8.54,9.65-11.78,1.66-1.07,3.97-1.71,5.76-3.16,1.43-1.15,2.1-3.36,3.73-4.55,1.06-.77,1.6-1.71,2.61-2.31.19-1.03,2.48-1.48,2.76-2.95.09-.47.38-.42.47-.89.58-2.98-2.7-4.98-2.45-6.59.24-1.56,3.41-2.84,3.99-5.87-.09.18-1.52.07-1.61.25-2.16,4.19-4.56,9.47-9.22,15.44-6.03,7.72-15.68,6.89-21.68,6.72-2.93,4.28-7.52,8.92-14.9,11.37-5.71,1.89-10.79,4.75-14.52,5.13-.46.05-.86.58-1.32.63-.22.08-.92-1.28-1.14-1.21.13.63-1.52,1.64-1.41,2.2.04.22,1.88.27,1.93.51ZM1331.16,184.13l1.71-.26c0,.13-1.71.26-1.71.26ZM1213.49,182.85s1.71-.26,1.71-.26c0,.13-1.71.26-1.71.26ZM1335.56,173.83l1.71-.26c0,.13-1.71.26-1.71.26ZM1335.99,173s.26-1.71.26-1.71c0,0-.26,1.71-.26,1.71ZM1065.81,165.89c2.48,1.3,5.25,1.14,7.02,2.76.18-1.03,1.23-.33,1.36-1.24.33-2.31.8-5.15,1.42-7.7-1.24-3.97-3.97-10.41-1.01-17.79,1.6-3.98,1.24-7.82,3.04-9.95-.7-1.66.35-2.13-.08-3.72-1.63.08-2.86-.44-4.09-.36-.22,3.96-2.02,7.71-5.23,11.76-1.74,2.19-2.66,4.6-4.73,6.02,1.63,3.19,3.09,7.01,2.6,11.41-.08.72-2.48,2.14-2.47,2.55l1.45,1.73s1.79-1.86,1.97-1.13c.44,1.89-1.32,4.2-1.25,5.68ZM1182.02,126.56c-.15.57,1.58,2.15,1.43,3.04-.57,3.45-4.28,7.22-6.88,11.99-.94,1.72-2.17,3.2-3.36,4.46.6-.07,2.63,1.22,3.25,1.16,1.55-.16,2.78-3.08,4.39-3.36.06-.12-.07,1.49-.01,1.39,1.1-2.18,3.33-4.77,6.22-7.45,6.33-5.87,14.14-5.31,19.72-5.1.73-1.06.94-3.13,1.41-3.94.09-.68-.35-1.74-.28-2.51.07-.75,2.16-2.23,2.25-3.08-3.02-4.06-7.95-11.25-7.14-19.59-4.44,7.29-11.07,13.05-16.37,14.48-.59,2.92-2.77,4.91-4.62,8.52ZM1341.98,144.84s0-1.97,0-1.97c0,0,0,1.97,0,1.97ZM1343.28,144.63l1.71-.26c0,.13-1.71.26-1.71.26ZM1182.05,127.33s0-1.97,0-1.97c0,0,0,1.97,0,1.97ZM1182.31,126.76l1.71-.26c0,.13-1.71.26-1.71.26ZM1112.65,119.03l1.71-.26c0,.13-1.71.26-1.71.26ZM1180.59,118.15l1.71-.26c0,.13-1.71.26-1.71.26ZM1292.79,112.44c.15.66-.61.25-.48,1.08,3.51-4.01,10.5-6.88,19.66-7.32,1.12-.05,2.42.06,3.46.16.93-.49,1.93-1.8,2.99-2.23.42-.26-.28-3.19.34-3.62,2.29-1.62,6.35-2.8,10.37-4.5,3.97-1.68,8.07-1.48,10.84-1.89.73-.11,2.07.62,2.62.51.51-.34.79-2.15,1.44-2.65,2.25-1.73,4.89-4.4,8.6-6.1,2.93-1.34,6.54-.24,8.79-1.03,1.44-.5,3.27-.86,4.11-1.25.46-.32-.57-4.1.18-4.79,1.24-1.13,4.67-.29,6.49-1.66.83-.62,1.09-2.4,2.34-4.16-.49-.69-1.85-1.16-2.38-2.01-2.42-3.92-1.62-8.6-2.21-11.41-.45-.25-1.39-1.37-1.8-1.6-1.6-.87-4.6.19-6.55-1.07-2.36-1.52-3.9-2.72-5.36-4.66-3.14,1.25-6.51.33-10.57-.2-3.47-.46-6.72-3.45-9.16-4.99-2.98,2.42-6.53,5.34-11.4,5.77-4.29.39-7.73,2.24-11.03,1.09-.92,1.8-1.36,2.35-2.83,4.17-.45,3.01-4,5.51-6.21,9.45-1.26,2.25,1.19,6.33-.02,9.46-.22.56-.04.63-.26,1.2-1.27,3.29-3.4,5.39-4.89,7.54,1.02,3.27,1.91,8.06.78,13.95-1.25,6.49-5.76,10.23-7.86,12.76ZM1186.54,112.14l1.71-.26c0,.13-1.71.26-1.71.26ZM1150.2,111.16s0-1.98,0-1.97c0,0,0,1.97,0,1.97ZM1150.47,110.57s0-1.97,0-1.97c0,0,0,1.97,0,1.97ZM1395.69,107.95s1.71-.26,1.71-.26c0,.13-1.71.26-1.71.26ZM1203.15,81.99c1.18,3.6,4.47,7.95,4.14,13.05.97-1.83,1.46-2.23,2.25-3.4.04-.06.41-.7.46-.77.42-3.33.49-6.14,1.18-8.33.2-.62-2.31-1.83-2.18-2.32,0-.79,1.99-.62,2.04-1.37-1.8.42-3.35-.14-4.79.09-.06.01-.85-.63-.92-.62-.62.67-.3,2.24-.91,2.89-.28.3-1,.48-1.27.77ZM1244.02,94.84s0-1.97,0-1.97c0,0,0,1.97,0,1.97ZM1364.64,82.36s1.71-.26,1.71-.26c0,.13-1.71.26-1.71.26ZM1211.13,81.48s0-1.97,0-1.97c0,0,0,1.97,0,1.97Z"/>
      <path class="cls-2" d="M1263.43,325.84c-9.74-14.99-7.29-16.22-14.7-32.48-1.94.75-.35,2.01-.39,2.05.25-.26,1.05-1.09,1.5-1.67,2.24-2.85,4.76-7.48,10.29-10.41.5-.28.09-3.66,1.07-4.53,1.98-1.78,5.46-3.06,8.66-5.1,5.31-3.38,11.23-3.02,16.14-2.26.17-.65.88-2.28,1.09-2.93-2.82-.86-5.94-.76-8.02-1.63-1.67-.69-3.33-.83-4.33-1.08-5.88-1.48-9.12-6.59-11.97-8.7-.44-.33-1.3-1.22-1.71-1.51-5.31-1.67-10.07-1.52-12.8-4.46-3.96,1.38-8.53-.29-14.4-1.78-6.71-1.7-11.2-4.4-13.81-6.56-.35-.29-1.41.07-1.59-.06.04.03,1,1.23,2.46,1.69-.2-.13.7-2.64.52-2.75-.29-.19-.87.03-1.13-.12.45.27-.76,1.26.09,1.53.89-10.34,4.6-10.48,2.56-20.66-5.23-.76-9.19-4.65-12.09-6.14-1.21-.11-3.7.79-4.74.59-3.8,3.9-9.52,11.51-18.38,10.84-.52.06-1.18-.52-1.84-.41-3.83.65-9.24-1.25-15.4-3.11-8.94-2.71-15.41-7.12-18.01-11.42-.17-.29-.11-.04-.31-.36-6.15-4.98-8.47-12.4-9.64-17.29-.91.23-.12,1.31-.83,1.46-1.12.24-1.05.05-2.21.48-1.3,1.96-2.96,5.02-6.47,7.84-6.36,7.96-18.84,9.08-27.9,9.27-.86.02-17.31,1.3-27.9-7.4-.83.23-2.63-.85-3.38-.69-12.01,2.66-19.4-4.28-23.42-8.33-.3-.31-.53-1.7-.88-2.04-7.17-3.08-10.01-7.71-11.6-10.12-.13-.2-1.45.34-1.59.14-6.42-7.41-7.99-14.87-7.8-18-.54-2.53,2.08-5.75,2.01-7.75-5.35-4.49-16.69-11.81-13.74-24.01,2.74-11.32,14.76-14.81,21.35-17.19.02-6.62-.06-18.24,9.57-23.11,6.37-3.22,15.69-2.33,20.89-2.69.94-.07.91-.48,1.85-.55,7.45-.54,16.28.01,24.59,2.57,11.61,3.57,14.32,13.64,15.86,20.19,3.27,1.77,7.33,3.91,10.53,9.53-2.49,4.59-8.31.27-8.93,5.45-.51,4.25,5.42-.13,8.58,2.75-.98,3.88-3.01,6.95-4.75,9.35,2.16,4.31,4.79,10.37,3.05,17.3-.86,3.43-2.84,6.52-4.25,8.83,2.05-1.68,4.84-3.77,8.2-5.16,1.99-.82,1.85-1.34,3.3-1.8-1.25-3.71-.64-8.12.53-12.94,1.16-4.8,2.42-9.82,4.18-13.33.43-.85,3.18-.54,3.55-1.33,3.04-6.48,7.53-10.2,11.63-12.06.56-3.18-.05-7.76,2.03-11.84.15-.56,3.36-.65,3.52-1.52.65-3.46.47-8.31,3.13-13.12,3.04-5.52,7.62-8.56,12-10.36-1.18-5.57-1.88-12.63,2.54-19.03,2.52-3.65,4.7-7.47,7.23-10.19,1.24-1.33,1.91-2.89,2.82-3.99,6.01-7.22,16.18-5.61,21.17-6.39.31-.05,1.38-.38,1.74-.44,9.41-6.77,18.21-5.61,21.53-4.49.75.26,1.25.6,1.82.74,13.68,3.35,21.31,13.41,21.97,24.6.33,5.62-.35,10.07-1.34,13.21-.17.54,1.25,1.46,1.13,1.92.01,5.11-2,9.49-2.92,12.39-.2.64,1.35,1.52,1.23,1.99-.22,4.76-2.32,8.31-3.96,11.3,2.36,3.57,3.26,8.81,3.18,14.76,3.1-4.62,8.66-6.3,12.53-7.91-.06-2.08.71-5.26,1.24-8.02,1.12-5.82.1-10.38,2.09-12.95-1.04-3.12-.86-7.41.04-13.16.79-5.9,5.12-9.55,7.1-12.06.58-.74-.32-2.76-.12-3.2.21-.53,2.07.22,2.28-.31,1.4-3.63,3.81-6.81,5.99-10.88.04-.33.66-1.29.69-1.62.9-9.11,3.36-12.97,6.54-15.64.07-.14-2.17-2.05-2.11-2.18,1.98-4.41,6.6-9.96,13.21-14.62,8.4-5.93,17.27-4.06,23.64-2.05,3.65-4.32,8.94-10.57,17.31-10.57,0,0,.01,2.01.02,2.01,6.18,0,10.86,2.01,14.35,4.93,4.82-2.96,11.65-7.4,19.25-4.81,10.43,3.55,12.03,15.41,13.92,20.81,3.09,1.68,7.79,3.35,11.39,6.78,6.04,5.75,8.55,12.15,9.34,15.97.05.23-1.42,1.11-1.37,1.36.17.22,1.79-.3,2-.04,2.34,2.97,8.27,9.44,7.86,19.24-.24,5.76-2.82,11.91-8.2,19.5-.26.36.88,1.16.62,1.52-2.35,3.34-7.48,5.94-12.95,10.06-.46.34-1.14,1.39-1.89,2.07-.5.46.16.87-.42,1.39,2.08-.12,4.03,2.45,6.18,2.36.53-.09,1.09-4.03,2.01-4.3,2.92-.86,7.54,1.85,12.23,1.75,3.29-.08,7.64-.38,11.95-.15,2.88.16,5.94-1.09,7.49-1.09,7.82,0,9.17-4.46,15.05.69s1.49,7.1,2.53,14.85c2.05,15.34-7.73,23.23-13.44,28.22-1.02.89-1.95,1.78-2.91,2.68-8.05,7.53-17.71,4.56-23.78,3.39-.98.88-1.68,3.3-2.67,4.19-.63,5.05-3.32,11.68-10.25,17.63-2.45,2.1-3.88,5.01-6.21,6.75-1.64,1.22-4.17,1.21-5.52,2.31-6.2,5.1-12.22,6.74-16.97,6.83-1.68,2.22-2.66,6.64-5.84,9.23-.21.42-3.37-1.2-3.56-.81-1.81,3.73-2.38,12.03-9.11,15.8-4.06,2.27-8.81,2.26-12.5,2.85-1.06.17-2.37-.33-3.41-.13-2.31,2.81-5.3,7.68-10.75,10.38,2.68-.44,4.76.89,7.91,1.66,1.21.3,2.99-.72,4.06-.27,3.48-1.66,3.32-6.94,6.64-4.98,3.23,1.91-1.05,4.16-.62,7.89,1.85,1.44,1.9,4.26,3.17,5.7.67.14,2.7-2.63,3.35-2.48,4.02.94,6.66,5.53,9.16,7.49,3.95-1.21,9.84-4.34,16.38-2.81,1.88.44,3.48.05,5.03.81,3.01-.62,6.17,2.22,9.96,2.98,5.7,1.14,10.36,1.73,13.34,4.33,3.83-1.52,8.59-2,14.12-.87,8.62,1.76,13.03,8.56,16.28,13.54,1.11,1.45,2.47,2.51,3.23,3.64.39.58.25,1.92.45,2.18-.04-.05.38-1.2-.39-1.87.25.39,1.79-.26,1.92-.09-.86-1.14-3.01-1.87-7.15-2.71-5.33,17.06-2.65,17.61-9.48,34.12-7.44-1.3-10.55-6.73-13.62-11.1-3.91,1.39-8.78,1.64-14.19.46-.6-.13-2.8,3.14-4.09,3.09-3.07-.1-6.47-3.44-10.7-4.41-4.3-.98-8.6-.61-11.25-2.84-.52.06-.8-1.05-1.4-.96-3.41.52-7.73.24-13.1-.91-3.81-.82-7.27-1.2-9.83-2.99-1.36,2.26-2.78,5.09-5.2,7.01-4.48,3.53-10.49,3.56-14.84,3.78-.76,5.73-2.69,12.13-9.07,16.71-9.22,6.6-18.82,5.3-25.33,2.91-1.97,1.73-3.46,3.72-6.4,5.43-.3.37-.73.24-1.05.64-2.46,3.14-7.08,7.68-14.07,10.39ZM1363.54,283.1s0-1.97,0-1.97c0,0,0,1.97,0,1.97ZM1303.8,237.79l1.71-.26c0,.13-1.71.26-1.71.26ZM1294.68,234.18c1,.4,2.42-.69,3.13-.52.66.17,2.02,3.32,3.37,3.39,1.47.08,3.59.22,5.37.42,1.73-1.15,4.12-4.3,6.65-5.52-2.82.55-5.91,3.13-8.13,3.29-1.56.12-3.29-1.14-4.06-.93-2.08.56-4.41-.16-6.32-.14ZM1187.16,226.15s0-1.97,0-1.97c0,0,0,1.97,0,1.97ZM1216.36,218.32s-.04-1.97-.06-1.97c.02,0,.04,1.97.06,1.97ZM1155.47,212.6s0-1.97.01-1.97c0,0,0,1.97-.01,1.97ZM1302.15,199.26l1.71-.26c0,.13-1.71.26-1.71.26ZM1282.31,196.4c4.66,0,9.17-.67,11.89.16.22.07.17,3.16.41,3.23,2.93-.56,5.52-.64,7.78-.81.39-.03.85-.88,1.28-.92.05-.05-1.67-2.13-1.63-2.18,2.66-3.23,8.07-7.49,14.9-9.73,3.51-1.15,7.08-1.02,9.78-1.48,1.78-3.48,4.99-7.05,9.63-10.48.34-.4.08-2.15.53-2.74,1.86-2.46,4.13-6.3,7.98-9.28,6.56-5.07,14.51-3.09,18.96-3.14.02,0,1.07-.06,1.09-.06.96-.74-.21-4.28.73-4.98.66-.49,3.43.9,4.05.43.19-1.55-.55-4.04-.1-6-7.61.26-13.5-2.52-17.5-6.22-2.59,1.35-5.66.67-9.32,1.06-.47.19-1.62.42-2.17.68-3.15,1.44-6.8,5.66-12.33,5.98-2.49.15-4.63.35-6.75-.2-4.38,1.56-8.59-.31-11.24-.47-1.66-.1-3.44-1.94-5.28-1.67-1.52.4-1.77,2.45-3.55,2.48-2.92-17.52-4.27-17.29-6.85-34.86-1.04.27.8.55,0,.94.28,2.54-2.63,5.21-3.38,9.1-2.09,10.85-7.31,17.4-13.25,19.61-.09,1.79.65,2.72.16,5.27-.57,2.97-1.4,4.19-1.65,5.8-.26,1.71-.46,3.72-1.16,7.35-.09.47-.02.49-.11.96-.93,4.83-.62,5.46-1.12,9.42,0,2.45-4.16,4.03-5.17,6.34-1.46,3.35-3.77,9.03-12.81,10.6-.09.06-1.29-.63-1.46-.5-.94.69-1.29,2.64-2.44,3.57-.8.65-2.46.83-3.35,1.52-.02.39,1.16,3.52,1.14,3.93,1.61-.31,3.31-1.97,4.84-2.22,2.27-.38,3.96-2.62,5.88-3.09,6.5-1.6,12.23,2.92,15.99,3.82.39.09,1.1-2.79,1.5-2.7,1.37-.22,2.81,1.46,4.09,1.46ZM1051.68,198.56s.01-1.97.02-1.97c0,0-.01,1.97-.02,1.97ZM1177.43,191.65s1.71-.26,1.71-.26c0,.13-1.71.26-1.71.26ZM1178.12,185.15c1.92,1.79,4.99,2.57,6.19,4.4.08-.01-.2,1.92-.12,1.91,3.46-3.79,8.35-8.98,17.33-9.17,4.36-.09,7.79-.02,10.21.59.35.09.97-2.59,1.31-2.51,1.1-.07,1.46,1.72,2.44,1.83,1.36-4.49,4.65-8.54,9.65-11.78,1.66-1.07,3.97-1.71,5.76-3.16,1.43-1.15,2.1-3.36,3.73-4.55,1.06-.77,1.6-1.71,2.61-2.31.19-1.03,2.48-1.48,2.76-2.95.09-.47.38-.42.47-.89.58-2.98-2.7-4.98-2.45-6.59.24-1.56,3.41-2.84,3.99-5.87-.09.18-1.52.07-1.61.25-2.16,4.19-4.56,9.47-9.22,15.44-6.03,7.72-15.68,6.89-21.68,6.72-2.93,4.28-7.52,8.92-14.9,11.37-5.71,1.89-10.79,4.75-14.52,5.13-.46.05-.86.58-1.32.63-.22.08-.92-1.28-1.14-1.21.13.63-1.52,1.64-1.41,2.2.04.22,1.88.27,1.93.51ZM1331.16,184.13l1.71-.26c0,.13-1.71.26-1.71.26ZM1213.49,182.85s1.71-.26,1.71-.26c0,.13-1.71.26-1.71.26ZM1335.56,173.83l1.71-.26c0,.13-1.71.26-1.71.26ZM1335.99,173s.26-1.71.26-1.71c0,0-.26,1.71-.26,1.71ZM1065.81,165.89c2.48,1.3,5.25,1.14,7.02,2.76.18-1.03,1.23-.33,1.36-1.24.33-2.31.8-5.15,1.42-7.7-1.24-3.97-3.97-10.41-1.01-17.79,1.6-3.98,1.24-7.82,3.04-9.95-.7-1.66.35-2.13-.08-3.72-1.63.08-2.86-.44-4.09-.36-.22,3.96-2.02,7.71-5.23,11.76-1.74,2.19-2.66,4.6-4.73,6.02,1.63,3.19,3.09,7.01,2.6,11.41-.08.72-2.48,2.14-2.47,2.55l1.45,1.73s1.79-1.86,1.97-1.13c.44,1.89-1.32,4.2-1.25,5.68ZM1182.02,126.56c-.15.57,1.58,2.15,1.43,3.04-.57,3.45-4.28,7.22-6.88,11.99-.94,1.72-2.17,3.2-3.36,4.46.6-.07,2.63,1.22,3.25,1.16,1.55-.16,2.78-3.08,4.39-3.36.06-.12-.07,1.49-.01,1.39,1.1-2.18,3.33-4.77,6.22-7.45,6.33-5.87,14.14-5.31,19.72-5.1.73-1.06.94-3.13,1.41-3.94.09-.68-.35-1.74-.28-2.51.07-.75,2.16-2.23,2.25-3.08-3.02-4.06-7.95-11.25-7.14-19.59-4.44,7.29-11.07,13.05-16.37,14.48-.59,2.92-2.77,4.91-4.62,8.52ZM1341.98,144.84s0-1.97,0-1.97c0,0,0,1.97,0,1.97ZM1343.28,144.63l1.71-.26c0,.13-1.71.26-1.71.26ZM1182.05,127.33s0-1.97,0-1.97c0,0,0,1.97,0,1.97ZM1182.31,126.76l1.71-.26c0,.13-1.71.26-1.71.26ZM1112.65,119.03l1.71-.26c0,.13-1.71.26-1.71.26ZM1180.59,118.15l1.71-.26c0,.13-1.71.26-1.71.26ZM1292.79,112.44c.15.66-.61.25-.48,1.08,3.51-4.01,10.5-6.88,19.66-7.32,1.12-.05,2.42.06,3.46.16.93-.49,1.93-1.8,2.99-2.23.42-.26-.28-3.19.34-3.62,2.29-1.62,6.35-2.8,10.37-4.5,3.97-1.68,8.07-1.48,10.84-1.89.73-.11,2.07.62,2.62.51.51-.34.79-2.15,1.44-2.65,2.25-1.73,4.89-4.4,8.6-6.1,2.93-1.34,6.54-.24,8.79-1.03,1.44-.5,3.27-.86,4.11-1.25.46-.32-.57-4.1.18-4.79,1.24-1.13,4.67-.29,6.49-1.66.83-.62,1.09-2.4,2.34-4.16-.49-.69-1.85-1.16-2.38-2.01-2.42-3.92-1.62-8.6-2.21-11.41-.45-.25-1.39-1.37-1.8-1.6-1.6-.87-4.6.19-6.55-1.07-2.36-1.52-3.9-2.72-5.36-4.66-3.14,1.25-6.51.33-10.57-.2-3.47-.46-6.72-3.45-9.16-4.99-2.98,2.42-6.53,5.34-11.4,5.77-4.29.39-7.73,2.24-11.03,1.09-.92,1.8-1.36,2.35-2.83,4.17-.45,3.01-4,5.51-6.21,9.45-1.26,2.25,1.19,6.33-.02,9.46-.22.56-.04.63-.26,1.2-1.27,3.29-3.4,5.39-4.89,7.54,1.02,3.27,1.91,8.06.78,13.95-1.25,6.49-5.76,10.23-7.86,12.76ZM1186.54,112.14l1.71-.26c0,.13-1.71.26-1.71.26ZM1150.2,111.16s0-1.98,0-1.97c0,0,0,1.97,0,1.97ZM1150.47,110.57s0-1.97,0-1.97c0,0,0,1.97,0,1.97ZM1395.69,107.95s1.71-.26,1.71-.26c0,.13-1.71.26-1.71.26ZM1203.15,81.99c1.18,3.6,4.47,7.95,4.14,13.05.97-1.83,1.46-2.23,2.25-3.4.04-.06.41-.7.46-.77.42-3.33.49-6.14,1.18-8.33.2-.62-2.31-1.83-2.18-2.32,0-.79,1.99-.62,2.04-1.37-1.8.42-3.35-.14-4.79.09-.06.01-.85-.63-.92-.62-.62.67-.3,2.24-.91,2.89-.28.3-1,.48-1.27.77ZM1244.02,94.84s0-1.97,0-1.97c0,0,0,1.97,0,1.97ZM1364.64,82.36s1.71-.26,1.71-.26c0,.13-1.71.26-1.71.26ZM1211.13,81.48s0-1.97,0-1.97c0,0,0,1.97,0,1.97Z"/>
    </g>
  </g>
</svg>