<?xml version="1.0" encoding="UTF-8"?>
<svg id="Layer_1" data-name="Layer 1" xmlns="http://www.w3.org/2000/svg" xmlns:xlink="http://www.w3.org/1999/xlink" viewBox="0 0 1920 1080">
  <defs>
    <style>
      .cls-1 {
        stroke-width: 3.61px;
      }

      .cls-1, .cls-2 {
        fill: none;
        stroke: #8b8332;
        stroke-miterlimit: 10;
      }

      .cls-2 {
        stroke-width: 4px;
      }

      .cls-3 {
        opacity: .9;
      }

      .cls-4, .cls-5, .cls-6 {
        stroke-width: 0px;
      }

      .cls-5 {
        fill: #d0dbdc;
      }

      .cls-6 {
        fill: #8b8332;
      }
    </style>
    <symbol id="Anchor_2" data-name="Anchor 2" viewBox="0 0 15 15">
      <g>
        <path class="cls-6" d="M7.5,13c-1.47,0-2.85-.57-3.89-1.61-1.04-1.04-1.61-2.42-1.61-3.89s.57-2.85,1.61-3.89c1.04-1.04,2.42-1.61,3.89-1.61s2.85.57,3.89,1.61c1.04,1.04,1.61,2.42,1.61,3.89s-.57,2.85-1.61,3.89c-1.04,1.04-2.42,1.61-3.89,1.61Z"/>
        <path class="cls-6" d="M7.5,4c.93,0,1.81.36,2.48,1.03s1.02,1.54,1.02,2.47-.36,1.81-1.03,2.47c-.66.66-1.54,1.02-2.47,1.02s-1.81-.36-2.47-1.02c-.66-.66-1.03-1.54-1.03-2.47s.36-1.81,1.03-2.48,1.54-1.02,2.47-1.02M7.5,0c-1.92,0-3.84.73-5.3,2.2-2.93,2.93-2.93,7.68,0,10.61,1.46,1.46,3.38,2.2,5.3,2.2s3.84-.73,5.3-2.2c2.93-2.93,2.93-7.68,0-10.61-1.46-1.46-3.38-2.2-5.3-2.2h0Z"/>
      </g>
    </symbol>
  </defs>
  <g>
    <path class="cls-6" d="M1327.17,65.47v-10.87c0-.32,0-.65.01-1,0-.34.02-.71.04-1.09-.54.53-1.16.98-1.86,1.36-.7.38-1.41.64-2.15.8l-.48-2.23c.34-.05.73-.16,1.18-.34.45-.18.91-.4,1.39-.67.48-.27.92-.56,1.32-.88s.71-.62.94-.92h2.16v15.84h-2.54Z"/>
    <path class="cls-6" d="M1366.32,115.48v-1.87c1.52-1.09,2.8-2.05,3.83-2.88,1.03-.83,1.86-1.6,2.48-2.3.62-.7,1.08-1.37,1.36-2,.28-.63.42-1.28.42-1.93,0-.85-.26-1.54-.79-2.06-.53-.53-1.26-.79-2.21-.79-.99,0-1.78.33-2.36,1-.58.66-.92,1.57-1,2.72l-2.23-1.03c.11-1.01.41-1.88.89-2.62s1.13-1.3,1.96-1.7c.82-.4,1.78-.6,2.87-.6.9,0,1.68.13,2.36.38.68.26,1.25.61,1.72,1.07s.82.99,1.07,1.6c.25.61.37,1.26.37,1.94,0,1.01-.25,1.98-.74,2.92-.5.94-1.28,1.89-2.35,2.87-1.07.98-2.48,2.02-4.22,3.14v.05c.19-.03.46-.05.79-.06.34,0,.67-.02,1.01-.02.34,0,.61-.01.82-.01h4.99v2.21h-11.02Z"/>
    <path class="cls-6" d="M1476.15,159.89c-1.49,0-2.78-.33-3.88-1-1.1-.66-1.84-1.6-2.24-2.8l2.5-1.18c.14.58.37,1.07.67,1.49.3.42.7.73,1.2.95s1.11.32,1.85.32c.62,0,1.15-.11,1.58-.34.43-.22.76-.54,1-.94.23-.4.35-.86.35-1.37s-.1-.97-.3-1.32c-.2-.35-.51-.61-.94-.77s-.96-.24-1.62-.24c-.19,0-.39,0-.59.01-.2,0-.41.03-.64.06v-2.16c.14.02.28.03.42.04.14,0,.27.01.4.01,1.04,0,1.78-.21,2.23-.62.45-.42.67-1.06.67-1.94,0-.75-.23-1.33-.68-1.73-.46-.4-1.11-.6-1.96-.6s-1.56.2-2.05.61c-.49.41-.86,1-1.12,1.76l-2.35-.98c.22-.74.6-1.38,1.13-1.92s1.18-.96,1.96-1.26c.78-.3,1.63-.44,2.56-.44,1.14,0,2.08.18,2.84.55.76.37,1.33.87,1.7,1.51.38.64.56,1.35.56,2.14,0,.61-.09,1.14-.26,1.6-.18.46-.41.85-.71,1.18-.3.33-.62.58-.96.76-.34.18-.69.3-1.04.36v.05c.46.02.89.11,1.28.28.39.17.74.4,1.06.7.31.3.56.65.73,1.07.18.42.26.87.26,1.37,0,.96-.24,1.8-.72,2.52-.48.72-1.14,1.28-1.98,1.68-.84.4-1.81.6-2.92.6Z"/>
    <path class="cls-6" d="M1290.53,211.69v-3.96h-7.73v-1.75c.03-.08.08-.18.16-.29.07-.11.16-.24.25-.38l6.6-9.46h3.14v9.89h2.69v1.99h-2.69v3.96h-2.42ZM1285.21,205.74h5.33v-5.59c0-.38.01-.78.04-1.19.02-.41.04-.81.06-1.21h-.05c-.18.38-.4.8-.68,1.26-.28.46-.54.85-.78,1.19l-3.74,5.33s-.06.06-.08.1-.05.07-.08.12Z"/>
    <path class="cls-6" d="M1453.79,76.11c-1.41,0-2.56-.3-3.47-.91s-1.62-1.49-2.15-2.64l2.4-1.25c.24.77.6,1.4,1.09,1.88s1.21.73,2.17.73c.67,0,1.24-.12,1.72-.37.47-.25.84-.6,1.09-1.06.26-.46.38-1,.38-1.64,0-.67-.12-1.23-.36-1.68-.24-.45-.58-.79-1.03-1.02s-1.01-.35-1.68-.35c-.46,0-.9.05-1.3.14-.4.1-.76.24-1.08.44-.32.2-.6.46-.84.78l-2.11-.41.96-8.74h9.22v2.21h-7.18l-.58,4.46-.05.26h.05c.37-.4.84-.71,1.43-.94.58-.22,1.28-.34,2.08-.34,1.02,0,1.9.21,2.64.64.74.42,1.31,1.01,1.73,1.76s.62,1.62.62,2.62c0,.86-.14,1.63-.43,2.3-.29.67-.7,1.24-1.22,1.7-.53.46-1.14.81-1.84,1.04-.7.23-1.45.35-2.27.35Z"/>
    <path class="cls-6" d="M1389.38,213.12c.85,0,1.6.12,2.26.35s1.23.6,1.72,1.09c.49.5.89,1.14,1.21,1.94l-2.26,1.08c-.22-.69-.58-1.23-1.07-1.63-.49-.4-1.16-.6-2.03-.6-.62,0-1.18.15-1.66.46-.48.3-.89.73-1.22,1.28-.34.55-.59,1.2-.77,1.94-.18.74-.26,1.55-.26,2.41v.43l.1.05c.18-.64.49-1.16.95-1.55s.97-.68,1.55-.88c.58-.19,1.14-.29,1.7-.29,1.06,0,1.98.2,2.76.61.78.41,1.4.99,1.84,1.74.44.75.66,1.65.66,2.69s-.23,1.97-.7,2.75c-.46.78-1.11,1.38-1.93,1.8-.82.42-1.81.64-2.96.64-1.34,0-2.49-.34-3.43-1.01-.94-.67-1.66-1.62-2.16-2.83-.5-1.22-.74-2.64-.74-4.27,0-1.81.28-3.32.85-4.54.57-1.22,1.34-2.13,2.32-2.75.98-.62,2.07-.92,3.29-.92ZM1389.21,221.35c-.61,0-1.14.12-1.61.37-.46.25-.83.59-1.09,1.02-.26.43-.4.94-.4,1.51s.14,1.06.42,1.51c.28.45.65.8,1.12,1.07.46.26.98.4,1.56.4.98,0,1.74-.26,2.28-.79.54-.53.82-1.26.82-2.18,0-.59-.12-1.11-.36-1.55-.24-.44-.59-.78-1.04-1.01s-1.02-.35-1.69-.35Z"/>
    <path class="cls-6" d="M1419.18,231.37h12.07v2.14c-1.33,1.38-2.4,2.79-3.22,4.24s-1.4,2.95-1.76,4.51-.54,3.21-.54,4.96h-2.59c0-1.76.22-3.48.66-5.15.44-1.67,1.11-3.27,2.02-4.8.9-1.53,2.04-2.96,3.42-4.31l.48.65h-10.54v-2.23Z"/>
    <path class="cls-6" d="M1258.49,237.82c1.07,0,2,.17,2.8.52.79.34,1.4.83,1.84,1.45.43.62.65,1.38.65,2.26,0,.82-.2,1.53-.59,2.15-.39.62-.96,1.08-1.72,1.4v.02c.91.34,1.64.84,2.17,1.5s.8,1.48.8,2.46-.24,1.75-.73,2.42c-.49.67-1.18,1.19-2.06,1.56-.89.37-1.94.55-3.16.55s-2.27-.18-3.16-.55c-.89-.37-1.58-.89-2.08-1.56-.5-.67-.74-1.48-.74-2.42s.26-1.78.79-2.45c.53-.67,1.26-1.18,2.21-1.51v-.02c-.72-.3-1.29-.76-1.7-1.38-.42-.62-.62-1.34-.62-2.17,0-.88.22-1.63.65-2.26.43-.62,1.05-1.11,1.85-1.45.8-.34,1.74-.52,2.81-.52ZM1258.49,251.95c.7,0,1.3-.1,1.8-.31.5-.21.88-.51,1.15-.91.27-.4.41-.86.41-1.39,0-.56-.14-1.04-.42-1.43s-.67-.69-1.16-.9-1.09-.31-1.78-.31-1.26.1-1.78.31c-.51.21-.91.51-1.19.9-.28.39-.42.87-.42,1.43,0,.53.14.99.41,1.39.27.4.66.7,1.18.91.51.21,1.11.31,1.8.31ZM1258.49,239.98c-.85,0-1.52.21-2.03.62s-.76.98-.76,1.7.26,1.28.77,1.69,1.18.61,2.02.61,1.5-.2,2-.61c.5-.41.76-.97.76-1.69s-.25-1.29-.74-1.7c-.5-.42-1.17-.62-2.02-.62Z"/>
    <path class="cls-6" d="M1353.12,331.48c1.36,0,2.51.34,3.44,1.01.94.67,1.64,1.62,2.11,2.83.47,1.22.71,2.65.71,4.3,0,1.82-.25,3.34-.74,4.55-.5,1.21-1.21,2.12-2.14,2.72s-2.05.91-3.36.91-2.5-.3-3.46-.89c-.96-.59-1.68-1.48-2.16-2.66l2.42-1.13c.22.75.6,1.35,1.12,1.8.52.45,1.23.67,2.12.67.74,0,1.35-.14,1.85-.43.5-.29.89-.7,1.19-1.25.3-.54.51-1.2.64-1.97.13-.77.19-1.63.19-2.59v-.26h-.1c-.18.64-.49,1.16-.95,1.56-.46.4-.97.69-1.55.88-.58.18-1.15.28-1.73.28-1.02,0-1.93-.2-2.72-.61-.79-.41-1.41-.98-1.86-1.72-.45-.74-.67-1.61-.67-2.62,0-1.1.23-2.06.68-2.86.46-.8,1.1-1.42,1.94-1.86.84-.44,1.84-.66,3.01-.66ZM1353.15,333.74c-1.01,0-1.78.27-2.32.82-.54.54-.8,1.3-.8,2.28,0,.86.28,1.54.85,2.03.57.49,1.32.73,2.27.73.61,0,1.14-.12,1.61-.37s.83-.59,1.09-1.02c.26-.43.4-.94.4-1.51,0-.61-.13-1.13-.4-1.57-.26-.44-.63-.78-1.09-1.02-.46-.24-1-.36-1.61-.36Z"/>
    <g>
      <path class="cls-6" d="M1174.58,237.58v-10.87c0-.32,0-.65.01-1,0-.34.02-.71.04-1.09-.54.53-1.16.98-1.86,1.36-.7.38-1.41.64-2.15.8l-.48-2.23c.34-.05.73-.16,1.18-.34.45-.18.91-.4,1.39-.67.48-.27.92-.56,1.32-.88s.71-.62.94-.92h2.16v15.84h-2.54Z"/>
      <path class="cls-6" d="M1186.9,237.82c-1.9,0-3.4-.69-4.48-2.08-1.08-1.38-1.62-3.41-1.62-6.08s.54-4.7,1.62-6.08,2.57-2.08,4.48-2.08,3.42.69,4.5,2.08,1.62,3.41,1.62,6.08-.54,4.7-1.62,6.08c-1.08,1.38-2.58,2.08-4.5,2.08ZM1186.9,235.63c.77,0,1.41-.22,1.93-.66.52-.44.91-1.1,1.18-1.99.26-.89.4-2,.4-3.32s-.13-2.44-.4-3.32c-.26-.89-.66-1.55-1.18-1.99s-1.16-.66-1.93-.66-1.41.22-1.93.66c-.52.44-.91,1.1-1.16,1.99-.26.89-.38,2-.38,3.32s.13,2.44.38,3.32c.26.89.64,1.55,1.16,1.99.52.44,1.16.66,1.93.66Z"/>
    </g>
    <g>
      <path class="cls-6" d="M1190.09,285.94v-10.87c0-.32,0-.65.01-1,0-.34.02-.71.04-1.09-.54.53-1.16.98-1.86,1.36-.7.38-1.41.64-2.15.8l-.48-2.23c.34-.05.73-.16,1.18-.34.45-.18.91-.4,1.39-.67.48-.27.92-.56,1.32-.88s.71-.62.94-.92h2.16v15.84h-2.54Z"/>
      <path class="cls-6" d="M1199.74,285.94v-10.87c0-.32,0-.65.01-1,0-.34.02-.71.04-1.09-.54.53-1.16.98-1.86,1.36-.7.38-1.41.64-2.15.8l-.48-2.23c.34-.05.73-.16,1.18-.34.45-.18.91-.4,1.39-.67.48-.27.92-.56,1.32-.88s.71-.62.94-.92h2.16v15.84h-2.54Z"/>
    </g>
    <g>
      <path class="cls-6" d="M1491.34,326.24v-10.87c0-.32,0-.65.01-1,0-.34.02-.71.04-1.09-.54.53-1.16.98-1.86,1.36-.7.38-1.41.64-2.15.8l-.48-2.23c.34-.05.73-.16,1.18-.34.45-.18.91-.4,1.39-.67.48-.27.92-.56,1.32-.88s.71-.62.94-.92h2.16v15.84h-2.54Z"/>
      <path class="cls-6" d="M1497.8,326.24v-1.87c1.52-1.09,2.8-2.05,3.83-2.88,1.03-.83,1.86-1.6,2.48-2.3.62-.7,1.08-1.37,1.36-2,.28-.63.42-1.28.42-1.93,0-.85-.26-1.54-.79-2.06-.53-.53-1.26-.79-2.21-.79-.99,0-1.78.33-2.36,1-.58.66-.92,1.57-1,2.72l-2.23-1.03c.11-1.01.41-1.88.89-2.62s1.13-1.3,1.96-1.7c.82-.4,1.78-.6,2.87-.6.9,0,1.68.13,2.36.38.68.26,1.25.61,1.72,1.07s.82.99,1.07,1.6c.25.61.37,1.26.37,1.94,0,1.01-.25,1.98-.74,2.92-.5.94-1.28,1.89-2.35,2.87-1.07.98-2.48,2.02-4.22,3.14v.05c.19-.03.46-.05.79-.06.34,0,.67-.02,1.01-.02.34,0,.61-.01.82-.01h4.99v2.21h-11.02Z"/>
    </g>
    <g>
      <path class="cls-6" d="M1055.59,261.26v-10.87c0-.32,0-.65.01-1,0-.34.02-.71.04-1.09-.54.53-1.16.98-1.86,1.36-.7.38-1.41.64-2.15.8l-.48-2.23c.34-.05.73-.16,1.18-.34.45-.18.91-.4,1.39-.67.48-.27.92-.56,1.32-.88s.71-.62.94-.92h2.16v15.84h-2.54Z"/>
      <path class="cls-6" d="M1067.4,261.5c-1.49,0-2.78-.33-3.88-1-1.1-.66-1.84-1.6-2.24-2.8l2.5-1.18c.14.58.37,1.07.67,1.49.3.42.7.73,1.2.95s1.11.32,1.85.32c.62,0,1.15-.11,1.58-.34.43-.22.76-.54,1-.94.23-.4.35-.86.35-1.37s-.1-.97-.3-1.32c-.2-.35-.51-.61-.94-.77s-.96-.24-1.62-.24c-.19,0-.39,0-.59.01-.2,0-.41.03-.64.06v-2.16c.14.02.28.03.42.04.14,0,.27.01.4.01,1.04,0,1.78-.21,2.23-.62.45-.42.67-1.06.67-1.94,0-.75-.23-1.33-.68-1.73-.46-.4-1.11-.6-1.96-.6s-1.56.2-2.05.61c-.49.41-.86,1-1.12,1.76l-2.35-.98c.22-.74.6-1.38,1.13-1.92s1.18-.96,1.96-1.26c.78-.3,1.63-.44,2.56-.44,1.14,0,2.08.18,2.84.55.76.37,1.33.87,1.7,1.51.38.64.56,1.35.56,2.14,0,.61-.09,1.14-.26,1.6-.18.46-.41.85-.71,1.18-.3.33-.62.58-.96.76-.34.18-.69.3-1.04.36v.05c.46.02.89.11,1.28.28.39.17.74.4,1.06.7.31.3.56.65.73,1.07.18.42.26.87.26,1.37,0,.96-.24,1.8-.72,2.52-.48.72-1.14,1.28-1.98,1.68-.84.4-1.81.6-2.92.6Z"/>
    </g>
    <g>
      <path class="cls-6" d="M1068.78,178.55v-10.87c0-.32,0-.65.01-1,0-.34.02-.71.04-1.09-.54.53-1.16.98-1.86,1.36-.7.38-1.41.64-2.15.8l-.48-2.23c.34-.05.73-.16,1.18-.34.45-.18.91-.4,1.39-.67.48-.27.92-.56,1.32-.88s.71-.62.94-.92h2.16v15.84h-2.54Z"/>
      <path class="cls-6" d="M1082.34,178.55v-3.96h-7.73v-1.75c.03-.08.08-.18.16-.29.07-.11.16-.24.25-.38l6.6-9.46h3.14v9.89h2.69v1.99h-2.69v3.96h-2.42ZM1077.01,172.59h5.33v-5.59c0-.38.01-.78.04-1.19.02-.41.04-.81.06-1.21h-.05c-.18.38-.4.8-.68,1.26-.28.46-.54.85-.78,1.19l-3.74,5.33s-.06.06-.08.1-.05.07-.08.12Z"/>
    </g>
    <g>
      <path class="cls-6" d="M986.46,247.21v-10.87c0-.32,0-.65.01-1,0-.34.02-.71.04-1.09-.54.53-1.16.98-1.86,1.36-.7.38-1.41.64-2.15.8l-.48-2.23c.34-.05.73-.16,1.18-.34.45-.18.91-.4,1.39-.67.48-.27.92-.56,1.32-.88s.71-.62.94-.92h2.16v15.84h-2.54Z"/>
      <path class="cls-6" d="M998.12,247.45c-1.41,0-2.56-.3-3.47-.91s-1.62-1.49-2.15-2.64l2.4-1.25c.24.77.6,1.4,1.09,1.88s1.21.73,2.17.73c.67,0,1.24-.12,1.72-.37.47-.25.84-.6,1.09-1.06.26-.46.38-1,.38-1.64,0-.67-.12-1.23-.36-1.68-.24-.45-.58-.79-1.03-1.02s-1.01-.35-1.68-.35c-.46,0-.9.05-1.3.14-.4.1-.76.24-1.08.44-.32.2-.6.46-.84.78l-2.11-.41.96-8.74h9.22v2.21h-7.18l-.58,4.46-.05.26h.05c.37-.4.84-.71,1.43-.94.58-.22,1.28-.34,2.08-.34,1.02,0,1.9.21,2.64.64.74.42,1.31,1.01,1.73,1.76s.62,1.62.62,2.62c0,.86-.14,1.63-.43,2.3-.29.67-.7,1.24-1.22,1.7-.53.46-1.14.81-1.84,1.04-.7.23-1.45.35-2.27.35Z"/>
    </g>
    <g>
      <path class="cls-6" d="M1023,288.99v-10.87c0-.32,0-.65.01-1,0-.34.02-.71.04-1.09-.54.53-1.16.98-1.86,1.36-.7.38-1.41.64-2.15.8l-.48-2.23c.34-.05.73-.16,1.18-.34.45-.18.91-.4,1.39-.67.48-.27.92-.56,1.32-.88s.71-.62.94-.92h2.16v15.84h-2.54Z"/>
      <path class="cls-6" d="M1035.67,272.91c.85,0,1.6.12,2.26.35s1.23.6,1.72,1.09c.49.5.89,1.14,1.21,1.94l-2.26,1.08c-.22-.69-.58-1.23-1.07-1.63-.49-.4-1.16-.6-2.03-.6-.62,0-1.18.15-1.66.46-.48.3-.89.73-1.22,1.28-.34.55-.59,1.2-.77,1.94-.18.74-.26,1.55-.26,2.41v.43l.1.05c.18-.64.49-1.16.95-1.55s.97-.68,1.55-.88c.58-.19,1.14-.29,1.7-.29,1.06,0,1.98.2,2.76.61.78.41,1.4.99,1.84,1.74.44.75.66,1.65.66,2.69s-.23,1.97-.7,2.75c-.46.78-1.11,1.38-1.93,1.8-.82.42-1.81.64-2.96.64-1.34,0-2.49-.34-3.43-1.01-.94-.67-1.66-1.62-2.16-2.83-.5-1.22-.74-2.64-.74-4.27,0-1.81.28-3.32.85-4.54.57-1.22,1.34-2.13,2.32-2.75.98-.62,2.07-.92,3.29-.92ZM1035.5,281.14c-.61,0-1.14.12-1.61.37-.46.25-.83.59-1.09,1.02-.26.43-.4.94-.4,1.51s.14,1.06.42,1.51c.28.45.65.8,1.12,1.07.46.26.98.4,1.56.4.98,0,1.74-.26,2.28-.79.54-.53.82-1.26.82-2.18,0-.59-.12-1.11-.36-1.55-.24-.44-.59-.78-1.04-1.01s-1.02-.35-1.69-.35Z"/>
    </g>
    <g>
      <path class="cls-6" d="M1069.68,307.26v-10.87c0-.32,0-.65.01-1,0-.34.02-.71.04-1.09-.54.53-1.16.98-1.86,1.36-.7.38-1.41.64-2.15.8l-.48-2.23c.34-.05.73-.16,1.18-.34.45-.18.91-.4,1.39-.67.48-.27.92-.56,1.32-.88s.71-.62.94-.92h2.16v15.84h-2.54Z"/>
      <path class="cls-6" d="M1075.37,291.42h12.07v2.14c-1.33,1.38-2.4,2.79-3.22,4.24s-1.4,2.95-1.76,4.51-.54,3.21-.54,4.96h-2.59c0-1.76.22-3.48.66-5.15.44-1.67,1.11-3.27,2.02-4.8.9-1.53,2.04-2.96,3.42-4.31l.48.65h-10.54v-2.23Z"/>
    </g>
    <g>
      <path class="cls-6" d="M1098.12,275.1v-10.87c0-.32,0-.65.01-1,0-.34.02-.71.04-1.09-.54.53-1.16.98-1.86,1.36-.7.38-1.41.64-2.15.8l-.48-2.23c.34-.05.73-.16,1.18-.34.45-.18.91-.4,1.39-.67.48-.27.92-.56,1.32-.88s.71-.62.94-.92h2.16v15.84h-2.54Z"/>
      <path class="cls-6" d="M1110.33,259.04c1.07,0,2,.17,2.8.52.79.34,1.4.83,1.84,1.45.43.62.65,1.38.65,2.26,0,.82-.2,1.53-.59,2.15-.39.62-.96,1.08-1.72,1.4v.02c.91.34,1.64.84,2.17,1.5s.8,1.48.8,2.46-.24,1.75-.73,2.42c-.49.67-1.18,1.19-2.06,1.56-.89.37-1.94.55-3.16.55s-2.27-.18-3.16-.55c-.89-.37-1.58-.89-2.08-1.56-.5-.67-.74-1.48-.74-2.42s.26-1.78.79-2.45c.53-.67,1.26-1.18,2.21-1.51v-.02c-.72-.3-1.29-.76-1.7-1.38-.42-.62-.62-1.34-.62-2.17,0-.88.22-1.63.65-2.26.43-.62,1.05-1.11,1.85-1.45.8-.34,1.74-.52,2.81-.52ZM1110.33,273.18c.7,0,1.3-.1,1.8-.31.5-.21.88-.51,1.15-.91.27-.4.41-.86.41-1.39,0-.56-.14-1.04-.42-1.43s-.67-.69-1.16-.9-1.09-.31-1.78-.31-1.26.1-1.78.31c-.51.21-.91.51-1.19.9-.28.39-.42.87-.42,1.43,0,.53.14.99.41,1.39.27.4.66.7,1.18.91.51.21,1.11.31,1.8.31ZM1110.33,261.2c-.85,0-1.52.21-2.03.62s-.76.98-.76,1.7.26,1.28.77,1.69,1.18.61,2.02.61,1.5-.2,2-.61c.5-.41.76-.97.76-1.69s-.25-1.29-.74-1.7c-.5-.42-1.17-.62-2.02-.62Z"/>
    </g>
    <g>
      <path class="cls-6" d="M1355.2,191.88v-10.87c0-.32,0-.65.01-1,0-.34.02-.71.04-1.09-.54.53-1.16.98-1.86,1.36-.7.38-1.41.64-2.15.8l-.48-2.23c.34-.05.73-.16,1.18-.34.45-.18.91-.4,1.39-.67.48-.27.92-.56,1.32-.88s.71-.62.94-.92h2.16v15.84h-2.54Z"/>
      <path class="cls-6" d="M1367.08,175.8c1.36,0,2.51.34,3.44,1.01.94.67,1.64,1.62,2.11,2.83.47,1.22.71,2.65.71,4.3,0,1.82-.25,3.34-.74,4.55-.5,1.21-1.21,2.12-2.14,2.72s-2.05.91-3.36.91-2.5-.3-3.46-.89c-.96-.59-1.68-1.48-2.16-2.66l2.42-1.13c.22.75.6,1.35,1.12,1.8.52.45,1.23.67,2.12.67.74,0,1.35-.14,1.85-.43.5-.29.89-.7,1.19-1.25.3-.54.51-1.2.64-1.97.13-.77.19-1.63.19-2.59v-.26h-.1c-.18.64-.49,1.16-.95,1.56-.46.4-.97.69-1.55.88-.58.18-1.15.28-1.73.28-1.02,0-1.93-.2-2.72-.61-.79-.41-1.41-.98-1.86-1.72-.45-.74-.67-1.61-.67-2.62,0-1.1.23-2.06.68-2.86.46-.8,1.1-1.42,1.94-1.86.84-.44,1.84-.66,3.01-.66ZM1367.1,178.05c-1.01,0-1.78.27-2.32.82-.54.54-.8,1.3-.8,2.28,0,.86.28,1.54.85,2.03.57.49,1.32.73,2.27.73.61,0,1.14-.12,1.61-.37s.83-.59,1.09-1.02c.26-.43.4-.94.4-1.51,0-.61-.13-1.13-.4-1.57-.26-.44-.63-.78-1.09-1.02-.46-.24-1-.36-1.61-.36Z"/>
    </g>
    <g>
      <path class="cls-6" d="M1241.66,275.1v-1.87c1.52-1.09,2.8-2.05,3.83-2.88,1.03-.83,1.86-1.6,2.48-2.3.62-.7,1.08-1.37,1.36-2,.28-.63.42-1.28.42-1.93,0-.85-.26-1.54-.79-2.06-.53-.53-1.26-.79-2.21-.79-.99,0-1.78.33-2.36,1-.58.66-.92,1.57-1,2.72l-2.23-1.03c.11-1.01.41-1.88.89-2.62s1.13-1.3,1.96-1.7c.82-.4,1.78-.6,2.87-.6.9,0,1.68.13,2.36.38.68.26,1.25.61,1.72,1.07s.82.99,1.07,1.6c.25.61.37,1.26.37,1.94,0,1.01-.25,1.98-.74,2.92-.5.94-1.28,1.89-2.35,2.87-1.07.98-2.48,2.02-4.22,3.14v.05c.19-.03.46-.05.79-.06.34,0,.67-.02,1.01-.02.34,0,.61-.01.82-.01h4.99v2.21h-11.02Z"/>
      <path class="cls-6" d="M1261.6,275.34c-1.9,0-3.4-.69-4.48-2.08-1.08-1.38-1.62-3.41-1.62-6.08s.54-4.7,1.62-6.08,2.57-2.08,4.48-2.08,3.42.69,4.5,2.08,1.62,3.41,1.62,6.08-.54,4.7-1.62,6.08c-1.08,1.38-2.58,2.08-4.5,2.08ZM1261.6,273.16c.77,0,1.41-.22,1.93-.66.52-.44.91-1.1,1.18-1.99.26-.89.4-2,.4-3.32s-.13-2.44-.4-3.32c-.26-.89-.66-1.55-1.18-1.99s-1.16-.66-1.93-.66-1.41.22-1.93.66c-.52.44-.91,1.1-1.16,1.99-.26.89-.38,2-.38,3.32s.13,2.44.38,3.32c.26.89.64,1.55,1.16,1.99.52.44,1.16.66,1.93.66Z"/>
    </g>
    <g>
      <path class="cls-6" d="M1034.12,169.42v-1.87c1.52-1.09,2.8-2.05,3.83-2.88,1.03-.83,1.86-1.6,2.48-2.3.62-.7,1.08-1.37,1.36-2,.28-.63.42-1.28.42-1.93,0-.85-.26-1.54-.79-2.06-.53-.53-1.26-.79-2.21-.79-.99,0-1.78.33-2.36,1-.58.66-.92,1.57-1,2.72l-2.23-1.03c.11-1.01.41-1.88.89-2.62s1.13-1.3,1.96-1.7c.82-.4,1.78-.6,2.87-.6.9,0,1.68.13,2.36.38.68.26,1.25.61,1.72,1.07s.82.99,1.07,1.6c.25.61.37,1.26.37,1.94,0,1.01-.25,1.98-.74,2.92-.5.94-1.28,1.89-2.35,2.87-1.07.98-2.48,2.02-4.22,3.14v.05c.19-.03.46-.05.79-.06.34,0,.67-.02,1.01-.02.34,0,.61-.01.82-.01h4.99v2.21h-11.02Z"/>
      <path class="cls-6" d="M1051.4,169.42v-10.87c0-.32,0-.65.01-1,0-.34.02-.71.04-1.09-.54.53-1.16.98-1.86,1.36-.7.38-1.41.64-2.15.8l-.48-2.23c.34-.05.73-.16,1.18-.34.45-.18.91-.4,1.39-.67.48-.27.92-.56,1.32-.88s.71-.62.94-.92h2.16v15.84h-2.54Z"/>
    </g>
    <g>
      <path class="cls-6" d="M1169.66,166.32v-1.87c1.52-1.09,2.8-2.05,3.83-2.88,1.03-.83,1.86-1.6,2.48-2.3.62-.7,1.08-1.37,1.36-2,.28-.63.42-1.28.42-1.93,0-.85-.26-1.54-.79-2.06-.53-.53-1.26-.79-2.21-.79-.99,0-1.78.33-2.36,1-.58.66-.92,1.57-1,2.72l-2.23-1.03c.11-1.01.41-1.88.89-2.62s1.13-1.3,1.96-1.7c.82-.4,1.78-.6,2.87-.6.9,0,1.68.13,2.36.38.68.26,1.25.61,1.72,1.07s.82.99,1.07,1.6c.25.61.37,1.26.37,1.94,0,1.01-.25,1.98-.74,2.92-.5.94-1.28,1.89-2.35,2.87-1.07.98-2.48,2.02-4.22,3.14v.05c.19-.03.46-.05.79-.06.34,0,.67-.02,1.01-.02.34,0,.61-.01.82-.01h4.99v2.21h-11.02Z"/>
      <path class="cls-6" d="M1183.75,166.32v-1.87c1.52-1.09,2.8-2.05,3.83-2.88,1.03-.83,1.86-1.6,2.48-2.3.62-.7,1.08-1.37,1.36-2,.28-.63.42-1.28.42-1.93,0-.85-.26-1.54-.79-2.06-.53-.53-1.26-.79-2.21-.79-.99,0-1.78.33-2.36,1-.58.66-.92,1.57-1,2.72l-2.23-1.03c.11-1.01.41-1.88.89-2.62s1.13-1.3,1.96-1.7c.82-.4,1.78-.6,2.87-.6.9,0,1.68.13,2.36.38.68.26,1.25.61,1.72,1.07s.82.99,1.07,1.6c.25.61.37,1.26.37,1.94,0,1.01-.25,1.98-.74,2.92-.5.94-1.28,1.89-2.35,2.87-1.07.98-2.48,2.02-4.22,3.14v.05c.19-.03.46-.05.79-.06.34,0,.67-.02,1.01-.02.34,0,.61-.01.82-.01h4.99v2.21h-11.02Z"/>
    </g>
    <g>
      <path class="cls-6" d="M1225.03,205.03v-1.87c1.52-1.09,2.8-2.05,3.83-2.88,1.03-.83,1.86-1.6,2.48-2.3.62-.7,1.08-1.37,1.36-2,.28-.63.42-1.28.42-1.93,0-.85-.26-1.54-.79-2.06-.53-.53-1.26-.79-2.21-.79-.99,0-1.78.33-2.36,1-.58.66-.92,1.57-1,2.72l-2.23-1.03c.11-1.01.41-1.88.89-2.62s1.13-1.3,1.96-1.7c.82-.4,1.78-.6,2.87-.6.9,0,1.68.13,2.36.38.68.26,1.25.61,1.72,1.07s.82.99,1.07,1.6c.25.61.37,1.26.37,1.94,0,1.01-.25,1.98-.74,2.92-.5.94-1.28,1.89-2.35,2.87-1.07.98-2.48,2.02-4.22,3.14v.05c.19-.03.46-.05.79-.06.34,0,.67-.02,1.01-.02.34,0,.61-.01.82-.01h4.99v2.21h-11.02Z"/>
      <path class="cls-6" d="M1244.47,205.27c-1.49,0-2.78-.33-3.88-1-1.1-.66-1.84-1.6-2.24-2.8l2.5-1.18c.14.58.37,1.07.67,1.49.3.42.7.73,1.2.95s1.11.32,1.85.32c.62,0,1.15-.11,1.58-.34.43-.22.76-.54,1-.94.23-.4.35-.86.35-1.37s-.1-.97-.3-1.32c-.2-.35-.51-.61-.94-.77s-.96-.24-1.62-.24c-.19,0-.39,0-.59.01-.2,0-.41.03-.64.06v-2.16c.14.02.28.03.42.04.14,0,.27.01.4.01,1.04,0,1.78-.21,2.23-.62.45-.42.67-1.06.67-1.94,0-.75-.23-1.33-.68-1.73-.46-.4-1.11-.6-1.96-.6s-1.56.2-2.05.61c-.49.41-.86,1-1.12,1.76l-2.35-.98c.22-.74.6-1.38,1.13-1.92s1.18-.96,1.96-1.26c.78-.3,1.63-.44,2.56-.44,1.14,0,2.08.18,2.84.55.76.37,1.33.87,1.7,1.51.38.64.56,1.35.56,2.14,0,.61-.09,1.14-.26,1.6-.18.46-.41.85-.71,1.18-.3.33-.62.58-.96.76-.34.18-.69.3-1.04.36v.05c.46.02.89.11,1.28.28.39.17.74.4,1.06.7.31.3.56.65.73,1.07.18.42.26.87.26,1.37,0,.96-.24,1.8-.72,2.52-.48.72-1.14,1.28-1.98,1.68-.84.4-1.81.6-2.92.6Z"/>
    </g>
    <g>
      <path class="cls-6" d="M1236.82,135.07v-1.87c1.52-1.09,2.8-2.05,3.83-2.88,1.03-.83,1.86-1.6,2.48-2.3.62-.7,1.08-1.37,1.36-2,.28-.63.42-1.28.42-1.93,0-.85-.26-1.54-.79-2.06-.53-.53-1.26-.79-2.21-.79-.99,0-1.78.33-2.36,1-.58.66-.92,1.57-1,2.72l-2.23-1.03c.11-1.01.41-1.88.89-2.62s1.13-1.3,1.96-1.7c.82-.4,1.78-.6,2.87-.6.9,0,1.68.13,2.36.38.68.26,1.25.61,1.72,1.07s.82.99,1.07,1.6c.25.61.37,1.26.37,1.94,0,1.01-.25,1.98-.74,2.92-.5.94-1.28,1.89-2.35,2.87-1.07.98-2.48,2.02-4.22,3.14v.05c.19-.03.46-.05.79-.06.34,0,.67-.02,1.01-.02.34,0,.61-.01.82-.01h4.99v2.21h-11.02Z"/>
      <path class="cls-6" d="M1257.41,135.07v-3.96h-7.73v-1.75c.03-.08.08-.18.16-.29.07-.11.16-.24.25-.38l6.6-9.46h3.14v9.89h2.69v1.99h-2.69v3.96h-2.42ZM1252.08,129.12h5.33v-5.59c0-.38.01-.78.04-1.19.02-.41.04-.81.06-1.21h-.05c-.18.38-.4.8-.68,1.26-.28.46-.54.85-.78,1.19l-3.74,5.33s-.06.06-.08.1-.05.07-.08.12Z"/>
    </g>
    <g>
      <path class="cls-6" d="M1263.1,81.37v-1.87c1.52-1.09,2.8-2.05,3.83-2.88,1.03-.83,1.86-1.6,2.48-2.3.62-.7,1.08-1.37,1.36-2,.28-.63.42-1.28.42-1.93,0-.85-.26-1.54-.79-2.06-.53-.53-1.26-.79-2.21-.79-.99,0-1.78.33-2.36,1-.58.66-.92,1.57-1,2.72l-2.23-1.03c.11-1.01.41-1.88.89-2.62s1.13-1.3,1.96-1.7c.82-.4,1.78-.6,2.87-.6.9,0,1.68.13,2.36.38.68.26,1.25.61,1.72,1.07s.82.99,1.07,1.6c.25.61.37,1.26.37,1.94,0,1.01-.25,1.98-.74,2.92-.5.94-1.28,1.89-2.35,2.87-1.07.98-2.48,2.02-4.22,3.14v.05c.19-.03.46-.05.79-.06.34,0,.67-.02,1.01-.02.34,0,.61-.01.82-.01h4.99v2.21h-11.02Z"/>
      <path class="cls-6" d="M1282.39,81.61c-1.41,0-2.56-.3-3.47-.91s-1.62-1.49-2.15-2.64l2.4-1.25c.24.77.6,1.4,1.09,1.88s1.21.73,2.17.73c.67,0,1.24-.12,1.72-.37.47-.25.84-.6,1.09-1.06.26-.46.38-1,.38-1.64,0-.67-.12-1.23-.36-1.68-.24-.45-.58-.79-1.03-1.02s-1.01-.35-1.68-.35c-.46,0-.9.05-1.3.14-.4.1-.76.24-1.08.44-.32.2-.6.46-.84.78l-2.11-.41.96-8.74h9.22v2.21h-7.18l-.58,4.46-.05.26h.05c.37-.4.84-.71,1.43-.94.58-.22,1.28-.34,2.08-.34,1.02,0,1.9.21,2.64.64.74.42,1.31,1.01,1.73,1.76s.62,1.62.62,2.62c0,.86-.14,1.63-.43,2.3-.29.67-.7,1.24-1.22,1.7-.53.46-1.14.81-1.84,1.04-.7.23-1.45.35-2.27.35Z"/>
    </g>
    <g>
      <path class="cls-6" d="M1266.86,148.18v-1.87c1.52-1.09,2.8-2.05,3.83-2.88,1.03-.83,1.86-1.6,2.48-2.3.62-.7,1.08-1.37,1.36-2,.28-.63.42-1.28.42-1.93,0-.85-.26-1.54-.79-2.06-.53-.53-1.26-.79-2.21-.79-.99,0-1.78.33-2.36,1-.58.66-.92,1.57-1,2.72l-2.23-1.03c.11-1.01.41-1.88.89-2.62s1.13-1.3,1.96-1.7c.82-.4,1.78-.6,2.87-.6.9,0,1.68.13,2.36.38.68.26,1.25.61,1.72,1.07s.82.99,1.07,1.6c.25.61.37,1.26.37,1.94,0,1.01-.25,1.98-.74,2.92-.5.94-1.28,1.89-2.35,2.87-1.07.98-2.48,2.02-4.22,3.14v.05c.19-.03.46-.05.79-.06.34,0,.67-.02,1.01-.02.34,0,.61-.01.82-.01h4.99v2.21h-11.02Z"/>
      <path class="cls-6" d="M1287.16,132.1c.85,0,1.6.12,2.26.35s1.23.6,1.72,1.09c.49.5.89,1.14,1.21,1.94l-2.26,1.08c-.22-.69-.58-1.23-1.07-1.63-.49-.4-1.16-.6-2.03-.6-.62,0-1.18.15-1.66.46-.48.3-.89.73-1.22,1.28-.34.55-.59,1.2-.77,1.94-.18.74-.26,1.55-.26,2.41v.43l.1.05c.18-.64.49-1.16.95-1.55s.97-.68,1.55-.88c.58-.19,1.14-.29,1.7-.29,1.06,0,1.98.2,2.76.61.78.41,1.4.99,1.84,1.74.44.75.66,1.65.66,2.69s-.23,1.97-.7,2.75c-.46.78-1.11,1.38-1.93,1.8-.82.42-1.81.64-2.96.64-1.34,0-2.49-.34-3.43-1.01-.94-.67-1.66-1.62-2.16-2.83-.5-1.22-.74-2.64-.74-4.27,0-1.81.28-3.32.85-4.54.57-1.22,1.34-2.13,2.32-2.75.98-.62,2.07-.92,3.29-.92ZM1286.99,140.33c-.61,0-1.14.12-1.61.37-.46.25-.83.59-1.09,1.02-.26.43-.4.94-.4,1.51s.14,1.06.42,1.51c.28.45.65.8,1.12,1.07.46.26.98.4,1.56.4.98,0,1.74-.26,2.28-.79.54-.53.82-1.26.82-2.18,0-.59-.12-1.11-.36-1.55-.24-.44-.59-.78-1.04-1.01s-1.02-.35-1.69-.35Z"/>
    </g>
    <g>
      <path class="cls-6" d="M1122.85,240.54v-1.87c1.52-1.09,2.8-2.05,3.83-2.88,1.03-.83,1.86-1.6,2.48-2.3.62-.7,1.08-1.37,1.36-2,.28-.63.42-1.28.42-1.93,0-.85-.26-1.54-.79-2.06-.53-.53-1.26-.79-2.21-.79-.99,0-1.78.33-2.36,1-.58.66-.92,1.57-1,2.72l-2.23-1.03c.11-1.01.41-1.88.89-2.62s1.13-1.3,1.96-1.7c.82-.4,1.78-.6,2.87-.6.9,0,1.68.13,2.36.38.68.26,1.25.61,1.72,1.07s.82.99,1.07,1.6c.25.61.37,1.26.37,1.94,0,1.01-.25,1.98-.74,2.92-.5.94-1.28,1.89-2.35,2.87-1.07.98-2.48,2.02-4.22,3.14v.05c.19-.03.46-.05.79-.06.34,0,.67-.02,1.01-.02.34,0,.61-.01.82-.01h4.99v2.21h-11.02Z"/>
      <path class="cls-6" d="M1135.71,224.7h12.07v2.14c-1.33,1.38-2.4,2.79-3.22,4.24s-1.4,2.95-1.76,4.51-.54,3.21-.54,4.96h-2.59c0-1.76.22-3.48.66-5.15.44-1.67,1.11-3.27,2.02-4.8.9-1.53,2.04-2.96,3.42-4.31l.48.65h-10.54v-2.23Z"/>
    </g>
  </g>
  <path class="cls-4" d="M1446.37,944.74s0-.03,0-.04c-.03,0-.06,0-.08,0l.08.04Z"/>
  <path class="cls-4" d="M1357.15,948.83h0s.05.05.07.08l-.07-.08Z"/>
  <path class="cls-4" d="M1005.94,947.71s0,0,0-.01c-.02-.02-.05-.03-.07-.05l.07.06Z"/>
  <path class="cls-4" d="M1378.46,958.9l.07.07s0,0,.01-.01c0,0-.09-.05-.09-.06Z"/>
  <path class="cls-4" d="M1374.38,955.92s-.04.03-.06.05c0,.01,0,.02,0,.04l.06-.08Z"/>
  <path class="cls-4" d="M1385.42,956.95s0,.01,0,.02c0,0,0-.01,0-.02h-.01Z"/>
  <g>
    <use width="15" height="15" transform="translate(1128.88 199.36) rotate(8.87) scale(1.07)" xlink:href="#Anchor_2"/>
    <use width="15" height="15" transform="translate(1273.88 107) rotate(8.87) scale(1.07)" xlink:href="#Anchor_2"/>
    <use width="15" height="15" transform="translate(1269.78 40.19) rotate(8.87) scale(1.07)" xlink:href="#Anchor_2"/>
    <use width="15" height="15" transform="translate(1243.68 93.89) rotate(8.87) scale(1.07)" xlink:href="#Anchor_2"/>
    <use width="15" height="15" transform="translate(1231.76 163.84) rotate(8.87) scale(1.07)" xlink:href="#Anchor_2"/>
    <use width="15" height="15" transform="translate(1176.4 125.14) rotate(8.87) scale(1.07)" xlink:href="#Anchor_2"/>
    <use width="15" height="15" transform="translate(1038.64 128.24) rotate(8.87) scale(1.07)" xlink:href="#Anchor_2"/>
    <use width="15" height="15" transform="translate(1248.88 233.92) rotate(8.87) scale(1.07)" xlink:href="#Anchor_2"/>
    <use width="15" height="15" transform="translate(1356.88 150.7) rotate(8.87) scale(1.07)" xlink:href="#Anchor_2"/>
    <use width="15" height="15" transform="translate(1099.82 233.92) rotate(8.87) scale(1.07)" xlink:href="#Anchor_2"/>
    <use width="15" height="15" transform="translate(1070.52 266.08) rotate(8.87) scale(1.07)" xlink:href="#Anchor_2"/>
    <use width="15" height="15" transform="translate(1024.61 247.81) rotate(8.87) scale(1.07)" xlink:href="#Anchor_2"/>
    <use width="15" height="15" transform="translate(987.72 206.03) rotate(8.87) scale(1.07)" xlink:href="#Anchor_2"/>
    <use width="15" height="15" transform="translate(1070.52 137.37) rotate(8.87) scale(1.07)" xlink:href="#Anchor_2"/>
    <use width="15" height="15" transform="translate(1056.9 220.08) rotate(8.87) scale(1.07)" xlink:href="#Anchor_2"/>
    <use width="15" height="15" transform="translate(1492.67 285.05) rotate(8.87) scale(1.07)" xlink:href="#Anchor_2"/>
    <use width="15" height="15" transform="translate(1189.2 244.76) rotate(8.87) scale(1.07)" xlink:href="#Anchor_2"/>
    <use width="15" height="15" transform="translate(1176.4 196.4) rotate(8.87) scale(1.07)" xlink:href="#Anchor_2"/>
    <use width="15" height="15" transform="translate(1347.75 306.38) rotate(8.87) scale(1.07)" xlink:href="#Anchor_2"/>
    <use width="15" height="15" transform="translate(1252.81 212.69) rotate(8.87) scale(1.07)" xlink:href="#Anchor_2"/>
    <use width="15" height="15" transform="translate(1419.17 206.03) rotate(8.87) scale(1.07)" xlink:href="#Anchor_2"/>
    <use width="15" height="15" transform="translate(1383.14 188.02) rotate(8.87) scale(1.07)" xlink:href="#Anchor_2"/>
    <use width="15" height="15" transform="translate(1448.22 34.69) rotate(8.87) scale(1.07)" xlink:href="#Anchor_2"/>
    <use width="15" height="15" transform="translate(1283.54 170.51) rotate(8.87) scale(1.07)" xlink:href="#Anchor_2"/>
    <use width="15" height="15" transform="translate(1470.48 118.47) rotate(8.87) scale(1.07)" xlink:href="#Anchor_2"/>
    <use width="15" height="15" transform="translate(1366.02 74.3) rotate(8.87) scale(1.07)" xlink:href="#Anchor_2"/>
    <use width="15" height="15" transform="translate(1321.45 24.29) rotate(8.87) scale(1.07)" xlink:href="#Anchor_2"/>
    <polyline class="cls-2" points="1280.55 116.13 1290.21 179.64 1373.82 83.43 1327.18 33.42 1276.44 49.32 1363.55 159.83 1454.88 43.82 1477.15 127.6 1389.81 197.15 1259.48 221.82 1354.42 315.51 1425.83 213.87 1499.33 294.19 1255.55 243.05 1195.86 253.89 1135.54 208.49 1106.49 243.05 1077.19 275.21 1063.57 229.21 1077.19 146.5 1045.3 137.37 994.39 215.16 1031.27 256.94 1183.07 134.27 1250.34 103.03 1238.42 170.62 1183.07 205.53"/>
  </g>
  <g class="cls-3">
    <g>
      <path class="cls-5" d="M1343.95,336.68c-19.69-4.19-3.01-24.92-8.01-44.41-1.82-7.08-5.53-16.49-1.74-22.32.54-.83,5.77-2.01,6.37-2.73-7.29-.98-13.92-2.37-20.04-3.56-7.31-1.42-15.53,3.35-21.99,1.47-4.37-1.27-8.08-4.7-12.19-6.05-1.42-.47-1.87-3.92-3.29-4.37-4.75-1.53-10.48-.99-15.4-2.07-2.74-.6-5.26-.84-7.64-1.07-1.88-.09-7.54.33-9.47.27.82,3.66,9.49,2.47,8.75,6.15-5.66,4.53-13.81,7.37-20.66,10.3-6.45,2.76-12.19,10.7-19.33,11.89-6.81,1.13-14.46-8.51-21.49-8.88-6.94-.36-14,2.9-20.67,1.1-.73-.2-1.8,1.94-2.53,1.72-.92.01-1.61-3.07-2.53-3.07-14.24.11-18.75-7.26-23.01-13.24-.16-.1-4.24,4.68-4.39,4.58-7.23-3.75-14.15-9.68-19.44-15.5-.54-.5-1.07-.69-1.61-1.2-4.56-4.29-6.23-11.78-10.34-16.74-1.42-1.72-9.58-6.35-10.05-14.16-.04-.45.91-.98.83-1.68-.03-.23,3.13-5.74,3.1-5.97-3.52-.34-7.84,4.38-11.56,3.98-.1,3.36,4.58,6.77,4.48,10.13-.17,5.75-.13,11.5-.3,17.25-.16,5.75-6.35,11.33-6.51,17.09-.15,5.75,5.64,11.65,5.49,17.41-.14,5.75-4.8,14-4.93,19.75-19.67,3.44-19.9-4.3-39.72-6.73-.54-6.2-3.86-7.05-4.16-13.31-.3-6.24,4.97-12.71,4.91-18.96-.06-6.26.6-12.45.78-18.68.17-5.99,1.03-12.33,1.42-18.31-.62-.1-4.79-4.69-5.41-4.8-7.16-1.26-15.28,2.2-22.31.31-7.03-1.9-15.86.66-22.68-1.85-.79-.29,1.72-3.47.93-3.77-1.96,1.93-1.7,4.8-3.46,6.68-3.68,3.92-11.25,4.06-14.19,7.93-3.12,4.1-.78,11.31-3.12,15.42-2.43,4.26-7.55.71-9.18,5.03-19.4-4.88-21.92,2.06-39.2-8.01,2.37-6.28,3.14-14.8,6.62-20.88,3.21-5.62,8.63-10.47,12.81-15.95,3.77-4.96,9.13-9.11,13.74-14.03,4.12-4.39,9.08-8.42,13.96-12.88,4.33-3.96,6.14-11.28,11.27-15.48,4.08-3.34,8.82-6.45,14.51-10.86,2.51-1.94,8.57.72,11.09-1.21,2.11-1.62,3.95-3.61,6.06-5.24,3.7-2.86,6-9.87,10.79-13.76,4.69-3.82,9.74-6.12,13.48-9.5,4.23-3.81,10.92-4.61,14.4-8.27,18.3-19.25,8.96-50.46,33.42-40.11,24.46,10.35,1.77,25.63.7,52.17-.23,5.75-2.37,11.42-2.59,17.17-.22,5.75,1.9,11.59,1.69,17.34-.21,5.75,1.75,11.58,1.55,17.33-.02.53-3.99-2.3-4-1.77,2.42.27.07,2.04,2.38,2.27.28-5.89,0-11.63,2.02-16.65,1.19-2.95,7.71-7.2,10.58-13.05,4.3-8.77,11.18-11.5,15.14-15.21,5.36-5.03,5.72-12.88,9.52-15.87,6.26-4.92,14.7-3.65,20.72-6.21,6.61-2.8,12.08-11.78,19.97-12.43,5.49-.45,12.05,3.72,19.26,4.23,7.74.54,16.16-.1,23.4,2.35,7.71,2.62,14.27,8.29,20.58,12.79,3.44,2.45,9.57,2.04,12.39,4.91-.18-.37-2.76,2.34-2.93,1.96-2.9-6.45-9.94-12.83-10.53-22.22-.31-4.98.08-10.94.08-17.91,0-11.03,13.57-17.21,18.91-23.71,1.31-1.59,1.4-3.96,2.64-5.39,1.59-1.83-1.02-7.81-.36-8.89,5.84-9.49,19.39-9.85,30.77-13.76,9.34-3.2,18.29-11.88,28.32-10.29,3.12.5,5.88-.52,9.61-.54,1.7-.01,3.42,6.67,5.25,6.71,7.02.15,14.36,1.6,23.98,7.13.83.17,4.44-6.3,5.31-6.16,7.5,1.24,23.54,4.43,29.56,16.22.45.78-4.36,6.49-3.31,8.14,8.18,12.79,14.88,17.68,15.35,24.77.27,4.02,2.7,4.72,2.76,5.02.05.13,1.09-.49,1.14-.36,1.68,4.38-4.35,10.27-3.74,19.6.52,7.83,2.5,16.5-3.31,28.34-.83,1.69-4.13,2.17-4.94,3.81-1.46,2.91-3.45,7.43-4.01,8.94-.82,2.83-.23,2.46-1.29,5.17,4.7-1.29,7-2.28,11.36-3.57,6.03-1.78,12.33-1.42,18.02-3.29,5.78-1.91,11.82-3.14,17.44-5.21,5.67-2.08,11.96-2.84,17.55-5.11,3.48-1.41,7.12-2.87,10.61-4.38,2.61-1.57,9.26-6.25,12.98-7.21,8.19,17.75,3.7,19.78,11.06,37.89,1.55-1.4-2.11-3.03-1.65-4.91-.02.06-.57.36-.68.99-.06.31,5.54,1.31,5.48,1.62-.83,4.73-1.23,16.39-9.02,24.86-2.56,2.78-11.51.7-23.76,8.47-4.51,2.86-9.39,6.84-15.45,10.48-4.93,2.96-8.58,8.99-14.21,12.27-5.16,3.01-14,.03-19.44,3.12-5.33,3.03-10.16,6.98-15.48,9.94-5.68,3.16-10.51,7.18-15.58,9.91-2.58,1.39-3.09,5.42-5.44,6.66,2.19.23,3.94-.28,6.13-.04.99.11,1.64.52,2.58.62,3.67-3.14,7.08-6.16,9.59-9.19,8.43,4.49,9.08,3.52,17.03,8.83,4.66.74,5.89,8.19,10.1,9.06,7.31,1.51,14.02,2.24,20.49,4.24,4.05,1.25,8.96-2.39,11.92-1.47,2.32.72,1.68,2.76,4,3.48,7.33,2.27,10.38-1.25,12.54-.94,1.85.26,3.49,10.2,7.68,10.35,1.53.06,3.6-8.83,5.56-8.75.96.04,1.73,5.15,2.68,5.19,4.43.05,13.01-.74,17.92-.27.85,19.98-5.71,19.96-9.37,39.62-4.18-.27-5.73-2.03-9.58-2.21-1.74-.01-3.48,2.23-5.12,2.3-6.58.32-10.05,6.32-13.82,7.25-2.15.53-6.31-6.94-8.51-6.32-4.13,1.16-6.88,9.18-11.81,10.09-8.02,1.48-16.75.22-25.43-.54-6.68-.58-12.58-8.56-20.62-10.52-4.19-1.02-8.98,1.23-12.42.81-2.74-.33-6.22-3.84-7.79-3.42-3.76,1.01-5.34,10.71-8.72,11.13-.32.39-6.61-4.58-6.92-4.19-4.01,24.48-1.46,41.73-21.15,37.54ZM1244.2,219.61c9.41,12.61-1.64,41.79,10.61,31.92,15.5-12.49-6.39-21.03-4.89-40.88,2.68-.04,9.86,3.43,12.65,3.67,3.71.18,7.32.71,11,.99,5.18.39,10.19-5.71,14.11-5.33,1.46.14,2.65,2.38,4.01,2.5,5.84.54,10.13,3.96,14.88,3.79,4.36-.15,8.87-2.9,14.42-3.9,4.44-.8,9.41-2.07,15.29-3.52.81-.31,5.84,2.21,14.59-2.27,4.5-2.3,7.27-9.94,13.2-13.14,1.99-1.07,5.12-.2,7.21-1.35-.12.03.73,4.69.61,4.72-3.15.79-8.72-8.23-11.78-7.45-7.34,1.86-11.78,7.53-16.77,8.9-6.39,1.77-13.65,4.81-18.81,6.5-10.16-17.14-8.29-18.54-12.77-37.96,6.33-3.35,10.73-2.89,13.88-4.81,3.33-2.03,2.29-9.22,7.43-13.4,2.48-2.02,5.68-4,9.28-6.99,1.84-1.53,1.71-1.68,3.55-3.21.8-.66,5.07.53,7-3.04,1.55-2.87-.88-7.49.14-11.09,1.16-4.07,4.5-8.68,7.99-15.64.77-1.54,8.26.18,9.04-1.42,2.59-5.29-.95-10.24-.47-11.58-.21-2.5-4.99-2.22-5.04-2.46-.05-.13-.14.3-.18.18-1.5-3.89,3.2-9.61,2.57-16.92-1.5-2.76-9.78-4.8-11.43-7.37-.4-.63,1.55-2,1.2-2.54-.24-.04,2.28-7.3,2.06-7.34-5.01-.83-12.76,5.46-18.04,2.14-1.47-.92-1.63-6.49-5.78-6.57-1.37-.03-2.85-.61-4.26-.6-4.57.03-9.54-.44-15.91-1.46-3.5-.55-9.49-.41-12.58.65-1.43.49-2.1,6.3-3.33,8.29-2.38,3.86-1.57,10.74-4.48,14.09-1.12,1.29-4.27.58-5.24,1.75-1.25,1.52.75,1.13.34,1.76,0,5.23-5.61,9.23-5.39,12.71.35,5.58,6.54,5.58,7.1,6.82.84,1.87-6,10.11-2.81,13.44,2.83,2.95,11.11,1.98,15.62,6.24,14.43,13.63,36.85,9.72,31.17,28.74-5.68,19.02-22.23,3.79-41.77,7.28-4.21.75-8.17-.14-11.46.29-2.23.29-4.26-.05-5.97.23-4.5.75-2.77,4.86-3.24,5.27-.79.69-5.01,2.94-7.41,7.86-19.32-1.34-18.32-8.45-37.03-13.43-.12-2.4.3-3.37-1.19-5.71-1.65-2.59-7.12-2.38-10.15-4.54-3.13-2.23-5.8-5.25-9.82-6.62-3.99-1.35-7.84-6.25-12.16-6.55-5.17-.36-9.71,2.31-13.17,2.6-3.67.3-5.47,4.25-8.16,5.4-2.68,1.14-6.15,1.09-9.56,3.77-2.75,2.16-4.21,6.55-8.46,10.52-.42.59.83,2.66-1.34,7.1-2.4,4.88-5.88,9.03-6.67,11-.42,1.04-.1-.42-.08,1.5.9.04-1.62-3.68-.74-3.65,6.17.26,11.98,4.79,17.72,4.81.19,0,.48,4.33.67,4.33,5.82-.19,11.57-6.06,17.05-6.28,7.64-.31,10.52,2.41,14.83,2.04,4,19.6,12.52,19.54,11.23,39.49-6.36.65-17.48,1.14-24.28,1.44-5.88.26-12,2.68-18.32,2.67-.2,0-.38-2.11-.58-2.1-3.22.1-5.94,4.46-9.17,4.57.19.25-.94-3.65-.75-3.41.04.05,3.88-3.96,3.93-3.9,2.56,2.24,4.54,4.38,7.21,6.25.79.56-2.93,8.17-2.12,8.69,1.42.76,3.36.23,4.52,1.04,1.73,1,6.32-3.26,8.07-2.42,1.78.86,1.51,9.81,3.32,10.5,2.75-.11,5.98-8.37,8.72-8.56,5.71-.41,11.16-1.94,16.83-2.72,5.67-.78,12.49,4.84,18.09,3.69,5.62-1.15,14.93-8.53,20.43-10.04ZM1331.53,209.08s4.35.01,4.33.02c.02,0-4.35-.01-4.33-.02ZM1057.9,162.85c.49.82-3.72,3.77-2.77,3.9.59.08-2.7-3.12-2.11-3.05.04-1.15,4.33-2.94,4.37-4.09-1.33,1.04,1.7,2.31.51,3.24ZM1400.1,136.2s-5.31.93-5.32.94c0,0,5.31-.93,5.32-.94ZM1284.19,74.43l.92,5.31c0-2.66-.92-5.31-.92-5.31ZM1366.64,72.63s.92,5.31.92,5.31c0-2.66-.92-5.31-.92-5.31ZM1406.3,71.55l.92,5.31c0-2.66-.92-5.31-.92-5.31ZM1386.11,43.23s3.63-2.48,3.64-2.45c-.01-.03-3.63,2.48-3.64,2.45Z"/>
      <path class="cls-1" d="M1343.95,336.68c-19.69-4.19-3.01-24.92-8.01-44.41-1.82-7.08-5.53-16.49-1.74-22.32.54-.83,5.77-2.01,6.37-2.73-7.29-.98-13.92-2.37-20.04-3.56-7.31-1.42-15.53,3.35-21.99,1.47-4.37-1.27-8.08-4.7-12.19-6.05-1.42-.47-1.87-3.92-3.29-4.37-4.75-1.53-10.48-.99-15.4-2.07-2.74-.6-5.26-.84-7.64-1.07-1.88-.09-7.54.33-9.47.27.82,3.66,9.49,2.47,8.75,6.15-5.66,4.53-13.81,7.37-20.66,10.3-6.45,2.76-12.19,10.7-19.33,11.89-6.81,1.13-14.46-8.51-21.49-8.88-6.94-.36-14,2.9-20.67,1.1-.73-.2-1.8,1.94-2.53,1.72-.92.01-1.61-3.07-2.53-3.07-14.24.11-18.75-7.26-23.01-13.24-.16-.1-4.24,4.68-4.39,4.58-7.23-3.75-14.15-9.68-19.44-15.5-.54-.5-1.07-.69-1.61-1.2-4.56-4.29-6.23-11.78-10.34-16.74-1.42-1.72-9.58-6.35-10.05-14.16-.04-.45.91-.98.83-1.68-.03-.23,3.13-5.74,3.1-5.97-3.52-.34-7.84,4.38-11.56,3.98-.1,3.36,4.58,6.77,4.48,10.13-.17,5.75-.13,11.5-.3,17.25-.16,5.75-6.35,11.33-6.51,17.09-.15,5.75,5.64,11.65,5.49,17.41-.14,5.75-4.8,14-4.93,19.75-19.67,3.44-19.9-4.3-39.72-6.73-.54-6.2-3.86-7.05-4.16-13.31-.3-6.24,4.97-12.71,4.91-18.96-.06-6.26.6-12.45.78-18.68.17-5.99,1.03-12.33,1.42-18.31-.62-.1-4.79-4.69-5.41-4.8-7.16-1.26-15.28,2.2-22.31.31-7.03-1.9-15.86.66-22.68-1.85-.79-.29,1.72-3.47.93-3.77-1.96,1.93-1.7,4.8-3.46,6.68-3.68,3.92-11.25,4.06-14.19,7.93-3.12,4.1-.78,11.31-3.12,15.42-2.43,4.26-7.55.71-9.18,5.03-19.4-4.88-21.92,2.06-39.2-8.01,2.37-6.28,3.14-14.8,6.62-20.88,3.21-5.62,8.63-10.47,12.81-15.95,3.77-4.96,9.13-9.11,13.74-14.03,4.12-4.39,9.08-8.42,13.96-12.88,4.33-3.96,6.14-11.28,11.27-15.48,4.08-3.34,8.82-6.45,14.51-10.86,2.51-1.94,8.57.72,11.09-1.21,2.11-1.62,3.95-3.61,6.06-5.24,3.7-2.86,6-9.87,10.79-13.76,4.69-3.82,9.74-6.12,13.48-9.5,4.23-3.81,10.92-4.61,14.4-8.27,18.3-19.25,8.96-50.46,33.42-40.11,24.46,10.35,1.77,25.63.7,52.17-.23,5.75-2.37,11.42-2.59,17.17-.22,5.75,1.9,11.59,1.69,17.34-.21,5.75,1.75,11.58,1.55,17.33-.02.53-3.99-2.3-4-1.77,2.42.27.07,2.04,2.38,2.27.28-5.89,0-11.63,2.02-16.65,1.19-2.95,7.71-7.2,10.58-13.05,4.3-8.77,11.18-11.5,15.14-15.21,5.36-5.03,5.72-12.88,9.52-15.87,6.26-4.92,14.7-3.65,20.72-6.21,6.61-2.8,12.08-11.78,19.97-12.43,5.49-.45,12.05,3.72,19.26,4.23,7.74.54,16.16-.1,23.4,2.35,7.71,2.62,14.27,8.29,20.58,12.79,3.44,2.45,9.57,2.04,12.39,4.91-.18-.37-2.76,2.34-2.93,1.96-2.9-6.45-9.94-12.83-10.53-22.22-.31-4.98.08-10.94.08-17.91,0-11.03,13.57-17.21,18.91-23.71,1.31-1.59,1.4-3.96,2.64-5.39,1.59-1.83-1.02-7.81-.36-8.89,5.84-9.49,19.39-9.85,30.77-13.76,9.34-3.2,18.29-11.88,28.32-10.29,3.12.5,5.88-.52,9.61-.54,1.7-.01,3.42,6.67,5.25,6.71,7.02.15,14.36,1.6,23.98,7.13.83.17,4.44-6.3,5.31-6.16,7.5,1.24,23.54,4.43,29.56,16.22.45.78-4.36,6.49-3.31,8.14,8.18,12.79,14.88,17.68,15.35,24.77.27,4.02,2.7,4.72,2.76,5.02.05.13,1.09-.49,1.14-.36,1.68,4.38-4.35,10.27-3.74,19.6.52,7.83,2.5,16.5-3.31,28.34-.83,1.69-4.13,2.17-4.94,3.81-1.46,2.91-3.45,7.43-4.01,8.94-.82,2.83-.23,2.46-1.29,5.17,4.7-1.29,7-2.28,11.36-3.57,6.03-1.78,12.33-1.42,18.02-3.29,5.78-1.91,11.82-3.14,17.44-5.21,5.67-2.08,11.96-2.84,17.55-5.11,3.48-1.41,7.12-2.87,10.61-4.38,2.61-1.57,9.26-6.25,12.98-7.21,8.19,17.75,3.7,19.78,11.06,37.89,1.55-1.4-2.11-3.03-1.65-4.91-.02.06-.57.36-.68.99-.06.31,5.54,1.31,5.48,1.62-.83,4.73-1.23,16.39-9.02,24.86-2.56,2.78-11.51.7-23.76,8.47-4.51,2.86-9.39,6.84-15.45,10.48-4.93,2.96-8.58,8.99-14.21,12.27-5.16,3.01-14,.03-19.44,3.12-5.33,3.03-10.16,6.98-15.48,9.94-5.68,3.16-10.51,7.18-15.58,9.91-2.58,1.39-3.09,5.42-5.44,6.66,2.19.23,3.94-.28,6.13-.04.99.11,1.64.52,2.58.62,3.67-3.14,7.08-6.16,9.59-9.19,8.43,4.49,9.08,3.52,17.03,8.83,4.66.74,5.89,8.19,10.1,9.06,7.31,1.51,14.02,2.24,20.49,4.24,4.05,1.25,8.96-2.39,11.92-1.47,2.32.72,1.68,2.76,4,3.48,7.33,2.27,10.38-1.25,12.54-.94,1.85.26,3.49,10.2,7.68,10.35,1.53.06,3.6-8.83,5.56-8.75.96.04,1.73,5.15,2.68,5.19,4.43.05,13.01-.74,17.92-.27.85,19.98-5.71,19.96-9.37,39.62-4.18-.27-5.73-2.03-9.58-2.21-1.74-.01-3.48,2.23-5.12,2.3-6.58.32-10.05,6.32-13.82,7.25-2.15.53-6.31-6.94-8.51-6.32-4.13,1.16-6.88,9.18-11.81,10.09-8.02,1.48-16.75.22-25.43-.54-6.68-.58-12.58-8.56-20.62-10.52-4.19-1.02-8.98,1.23-12.42.81-2.74-.33-6.22-3.84-7.79-3.42-3.76,1.01-5.34,10.71-8.72,11.13-.32.39-6.61-4.58-6.92-4.19-4.01,24.48-1.46,41.73-21.15,37.54ZM1244.2,219.61c9.41,12.61-1.64,41.79,10.61,31.92,15.5-12.49-6.39-21.03-4.89-40.88,2.68-.04,9.86,3.43,12.65,3.67,3.71.18,7.32.71,11,.99,5.18.39,10.19-5.71,14.11-5.33,1.46.14,2.65,2.38,4.01,2.5,5.84.54,10.13,3.96,14.88,3.79,4.36-.15,8.87-2.9,14.42-3.9,4.44-.8,9.41-2.07,15.29-3.52.81-.31,5.84,2.21,14.59-2.27,4.5-2.3,7.27-9.94,13.2-13.14,1.99-1.07,5.12-.2,7.21-1.35-.12.03.73,4.69.61,4.72-3.15.79-8.72-8.23-11.78-7.45-7.34,1.86-11.78,7.53-16.77,8.9-6.39,1.77-13.65,4.81-18.81,6.5-10.16-17.14-8.29-18.54-12.77-37.96,6.33-3.35,10.73-2.89,13.88-4.81,3.33-2.03,2.29-9.22,7.43-13.4,2.48-2.02,5.68-4,9.28-6.99,1.84-1.53,1.71-1.68,3.55-3.21.8-.66,5.07.53,7-3.04,1.55-2.87-.88-7.49.14-11.09,1.16-4.07,4.5-8.68,7.99-15.64.77-1.54,8.26.18,9.04-1.42,2.59-5.29-.95-10.24-.47-11.58-.21-2.5-4.99-2.22-5.04-2.46-.05-.13-.14.3-.18.18-1.5-3.89,3.2-9.61,2.57-16.92-1.5-2.76-9.78-4.8-11.43-7.37-.4-.63,1.55-2,1.2-2.54-.24-.04,2.28-7.3,2.06-7.34-5.01-.83-12.76,5.46-18.04,2.14-1.47-.92-1.63-6.49-5.78-6.57-1.37-.03-2.85-.61-4.26-.6-4.57.03-9.54-.44-15.91-1.46-3.5-.55-9.49-.41-12.58.65-1.43.49-2.1,6.3-3.33,8.29-2.38,3.86-1.57,10.74-4.48,14.09-1.12,1.29-4.27.58-5.24,1.75-1.25,1.52.75,1.13.34,1.76,0,5.23-5.61,9.23-5.39,12.71.35,5.58,6.54,5.58,7.1,6.82.84,1.87-6,10.11-2.81,13.44,2.83,2.95,11.11,1.98,15.62,6.24,14.43,13.63,36.85,9.72,31.17,28.74-5.68,19.02-22.23,3.79-41.77,7.28-4.21.75-8.17-.14-11.46.29-2.23.29-4.26-.05-5.97.23-4.5.75-2.77,4.86-3.24,5.27-.79.69-5.01,2.94-7.41,7.86-19.32-1.34-18.32-8.45-37.03-13.43-.12-2.4.3-3.37-1.19-5.71-1.65-2.59-7.12-2.38-10.15-4.54-3.13-2.23-5.8-5.25-9.82-6.62-3.99-1.35-7.84-6.25-12.16-6.55-5.17-.36-9.71,2.31-13.17,2.6-3.67.3-5.47,4.25-8.16,5.4-2.68,1.14-6.15,1.09-9.56,3.77-2.75,2.16-4.21,6.55-8.46,10.52-.42.59.83,2.66-1.34,7.1-2.4,4.88-5.88,9.03-6.67,11-.42,1.04-.1-.42-.08,1.5.9.04-1.62-3.68-.74-3.65,6.17.26,11.98,4.79,17.72,4.81.19,0,.48,4.33.67,4.33,5.82-.19,11.57-6.06,17.05-6.28,7.64-.31,10.52,2.41,14.83,2.04,4,19.6,12.52,19.54,11.23,39.49-6.36.65-17.48,1.14-24.28,1.44-5.88.26-12,2.68-18.32,2.67-.2,0-.38-2.11-.58-2.1-3.22.1-5.94,4.46-9.17,4.57.19.25-.94-3.65-.75-3.41.04.05,3.88-3.96,3.93-3.9,2.56,2.24,4.54,4.38,7.21,6.25.79.56-2.93,8.17-2.12,8.69,1.42.76,3.36.23,4.52,1.04,1.73,1,6.32-3.26,8.07-2.42,1.78.86,1.51,9.81,3.32,10.5,2.75-.11,5.98-8.37,8.72-8.56,5.71-.41,11.16-1.94,16.83-2.72,5.67-.78,12.49,4.84,18.09,3.69,5.62-1.15,14.93-8.53,20.43-10.04ZM1331.53,209.08s4.35.01,4.33.02c.02,0-4.35-.01-4.33-.02ZM1057.9,162.85c.49.82-3.72,3.77-2.77,3.9.59.08-2.7-3.12-2.11-3.05.04-1.15,4.33-2.94,4.37-4.09-1.33,1.04,1.7,2.31.51,3.24ZM1400.1,136.2s-5.31.93-5.32.94c0,0,5.31-.93,5.32-.94ZM1284.19,74.43l.92,5.31c0-2.66-.92-5.31-.92-5.31ZM1366.64,72.63s.92,5.31.92,5.31c0-2.66-.92-5.31-.92-5.31ZM1406.3,71.55l.92,5.31c0-2.66-.92-5.31-.92-5.31ZM1386.11,43.23s3.63-2.48,3.64-2.45c-.01-.03-3.63,2.48-3.64,2.45Z"/>
    </g>
  </g>
</svg>