<?xml version="1.0" encoding="UTF-8"?>
<svg id="Layer_1" data-name="Layer 1" xmlns="http://www.w3.org/2000/svg" xmlns:xlink="http://www.w3.org/1999/xlink" viewBox="0 0 1920 1080">
  <defs>
    <style>
      .cls-1 {
        stroke-width: 3.61px;
      }

      .cls-1, .cls-2 {
        fill: none;
        stroke: #8b8332;
        stroke-miterlimit: 10;
      }

      .cls-2 {
        stroke-width: 4px;
      }

      .cls-3 {
        opacity: .9;
      }

      .cls-4, .cls-5, .cls-6 {
        stroke-width: 0px;
      }

      .cls-5 {
        fill: #d0dbdc;
      }

      .cls-6 {
        fill: #8b8332;
      }
    </style>
    <symbol id="Anchor_2" data-name="Anchor 2" viewBox="0 0 15 15">
      <g>
        <path class="cls-6" d="M7.5,13c-1.47,0-2.85-.57-3.89-1.61-1.04-1.04-1.61-2.42-1.61-3.89s.57-2.85,1.61-3.89c1.04-1.04,2.42-1.61,3.89-1.61s2.85.57,3.89,1.61c1.04,1.04,1.61,2.42,1.61,3.89s-.57,2.85-1.61,3.89c-1.04,1.04-2.42,1.61-3.89,1.61Z"/>
        <path class="cls-6" d="M7.5,4c.93,0,1.81.36,2.48,1.03s1.02,1.54,1.02,2.47-.36,1.81-1.03,2.47c-.66.66-1.54,1.02-2.47,1.02s-1.81-.36-2.47-1.02c-.66-.66-1.03-1.54-1.03-2.47s.36-1.81,1.03-2.48,1.54-1.02,2.47-1.02M7.5,0c-1.92,0-3.84.73-5.3,2.2-2.93,2.93-2.93,7.68,0,10.61,1.46,1.46,3.38,2.2,5.3,2.2s3.84-.73,5.3-2.2c2.93-2.93,2.93-7.68,0-10.61-1.46-1.46-3.38-2.2-5.3-2.2h0Z"/>
      </g>
    </symbol>
  </defs>
  <g>
    <path class="cls-6" d="M1327.17,65.47v-10.87c0-.32,0-.65.01-1,0-.34.02-.71.04-1.09-.54.53-1.16.98-1.86,1.36-.7.38-1.41.64-2.15.8l-.48-2.23c.34-.05.73-.16,1.18-.34.45-.18.91-.4,1.39-.67.48-.27.92-.56,1.32-.88.4-.31.71-.62.94-.92h2.16v15.84h-2.54Z"/>
    <path class="cls-6" d="M1366.32,115.48v-1.87c1.52-1.09,2.8-2.05,3.83-2.88,1.03-.83,1.86-1.6,2.48-2.3.62-.7,1.08-1.37,1.36-2,.28-.63.42-1.28.42-1.93,0-.85-.26-1.54-.79-2.06-.53-.53-1.26-.79-2.21-.79-.99,0-1.78.33-2.36,1-.58.66-.92,1.57-1,2.72l-2.23-1.03c.11-1.01.41-1.88.89-2.62s1.13-1.3,1.96-1.7c.82-.4,1.78-.6,2.87-.6.9,0,1.68.13,2.36.38s1.25.61,1.72,1.07c.46.46.82.99,1.07,1.6.25.61.37,1.26.37,1.94,0,1.01-.25,1.98-.74,2.92s-1.28,1.89-2.35,2.87c-1.07.98-2.48,2.02-4.22,3.14v.05c.19-.03.46-.05.79-.06.34,0,.67-.02,1.01-.02.34,0,.61-.01.82-.01h4.99v2.21h-11.02Z"/>
    <path class="cls-6" d="M1476.15,159.89c-1.49,0-2.78-.33-3.88-1s-1.84-1.6-2.24-2.8l2.5-1.18c.14.58.37,1.07.67,1.49.3.42.7.73,1.2.95s1.11.32,1.85.32c.62,0,1.15-.11,1.58-.34.43-.22.76-.54,1-.94.23-.4.35-.86.35-1.37s-.1-.97-.3-1.32c-.2-.35-.51-.61-.94-.77s-.96-.24-1.62-.24c-.19,0-.39,0-.59.01-.2,0-.41.03-.64.06v-2.16c.14.02.28.03.42.04.14,0,.27.01.4.01,1.04,0,1.78-.21,2.23-.62.45-.42.67-1.06.67-1.94,0-.75-.23-1.33-.68-1.73s-1.11-.6-1.96-.6-1.56.2-2.05.61c-.49.41-.86,1-1.12,1.76l-2.35-.98c.22-.74.6-1.38,1.13-1.92.53-.54,1.18-.96,1.96-1.26.78-.3,1.63-.44,2.55-.44,1.14,0,2.08.18,2.84.55.76.37,1.33.87,1.7,1.51.38.64.56,1.35.56,2.14,0,.61-.09,1.14-.26,1.6-.18.46-.41.85-.71,1.18-.3.33-.62.58-.96.76-.34.18-.69.3-1.04.36v.05c.46.02.89.11,1.28.28.39.17.74.4,1.06.7.31.3.56.65.73,1.07.18.42.26.87.26,1.37,0,.96-.24,1.8-.72,2.52-.48.72-1.14,1.28-1.98,1.68-.84.4-1.81.6-2.92.6Z"/>
    <path class="cls-6" d="M1290.53,211.69v-3.96h-7.73v-1.75c.03-.08.08-.18.16-.29.07-.11.16-.24.25-.38l6.6-9.46h3.14v9.89h2.69v1.99h-2.69v3.96h-2.42ZM1285.21,205.74h5.33v-5.59c0-.38.01-.78.04-1.19.02-.41.04-.81.06-1.21h-.05c-.18.38-.4.8-.68,1.26s-.54.85-.78,1.19l-3.74,5.33s-.06.06-.08.1c-.02.03-.05.07-.08.12Z"/>
    <path class="cls-6" d="M1453.79,76.11c-1.41,0-2.56-.3-3.47-.91-.9-.61-1.62-1.49-2.15-2.64l2.4-1.25c.24.77.6,1.4,1.09,1.88.49.49,1.21.73,2.17.73.67,0,1.24-.12,1.71-.37.47-.25.84-.6,1.09-1.06.25-.46.38-1,.38-1.64,0-.67-.12-1.23-.36-1.68-.24-.45-.58-.79-1.03-1.02-.45-.23-1.01-.35-1.68-.35-.46,0-.9.05-1.3.14s-.76.24-1.08.44c-.32.2-.6.46-.84.78l-2.11-.41.96-8.74h9.21v2.21h-7.18l-.58,4.46-.05.26h.05c.37-.4.84-.71,1.43-.94.58-.22,1.28-.34,2.08-.34,1.02,0,1.9.21,2.64.64.74.42,1.31,1.01,1.73,1.76s.62,1.62.62,2.62c0,.86-.14,1.63-.43,2.3-.29.67-.7,1.24-1.22,1.7s-1.14.81-1.84,1.04c-.7.23-1.45.35-2.27.35Z"/>
    <path class="cls-6" d="M1389.38,213.12c.85,0,1.6.12,2.26.35s1.23.6,1.72,1.09c.49.5.89,1.14,1.21,1.94l-2.26,1.08c-.22-.69-.58-1.23-1.07-1.63-.49-.4-1.16-.6-2.03-.6-.62,0-1.18.15-1.66.46-.48.3-.89.73-1.22,1.28-.34.55-.59,1.2-.77,1.94s-.26,1.55-.26,2.41v.43l.1.05c.18-.64.49-1.16.95-1.55.46-.39.97-.68,1.55-.88.58-.19,1.14-.29,1.7-.29,1.06,0,1.98.2,2.76.61.78.41,1.4.99,1.84,1.74s.66,1.65.66,2.69-.23,1.97-.7,2.75c-.46.78-1.11,1.38-1.93,1.8s-1.81.64-2.96.64c-1.34,0-2.49-.34-3.43-1.01-.94-.67-1.66-1.62-2.16-2.83-.5-1.22-.74-2.64-.74-4.27,0-1.81.28-3.32.85-4.54.57-1.22,1.34-2.13,2.32-2.75.98-.62,2.07-.92,3.29-.92ZM1389.21,221.35c-.61,0-1.14.12-1.61.37-.46.25-.83.59-1.09,1.02-.26.43-.4.94-.4,1.51s.14,1.06.42,1.51c.28.45.65.8,1.12,1.07.46.26.98.4,1.56.4.97,0,1.74-.26,2.28-.79.54-.53.82-1.26.82-2.18,0-.59-.12-1.11-.36-1.55-.24-.44-.59-.78-1.04-1.01s-1.02-.35-1.69-.35Z"/>
    <path class="cls-6" d="M1419.18,231.37h12.07v2.14c-1.33,1.38-2.4,2.79-3.22,4.24s-1.4,2.95-1.76,4.51c-.36,1.56-.54,3.21-.54,4.96h-2.59c0-1.76.22-3.48.66-5.15.44-1.67,1.11-3.27,2.02-4.8.9-1.53,2.04-2.96,3.42-4.31l.48.65h-10.54v-2.23Z"/>
    <path class="cls-6" d="M1258.49,237.82c1.07,0,2,.17,2.8.52.79.34,1.4.83,1.84,1.45.43.62.65,1.38.65,2.26,0,.82-.2,1.53-.59,2.15-.39.62-.96,1.08-1.71,1.4v.02c.91.34,1.63.84,2.17,1.5.54.66.8,1.48.8,2.46s-.24,1.75-.73,2.42c-.49.67-1.18,1.19-2.06,1.56-.89.37-1.94.55-3.16.55s-2.27-.18-3.16-.55c-.89-.37-1.58-.89-2.08-1.56s-.74-1.48-.74-2.42.26-1.78.79-2.45c.53-.67,1.26-1.18,2.21-1.51v-.02c-.72-.3-1.29-.76-1.7-1.38-.42-.62-.62-1.34-.62-2.17,0-.88.22-1.63.65-2.26s1.05-1.11,1.85-1.45c.8-.34,1.74-.52,2.81-.52ZM1258.49,251.95c.7,0,1.3-.1,1.8-.31.5-.21.88-.51,1.15-.91.27-.4.41-.86.41-1.39,0-.56-.14-1.04-.42-1.43-.28-.39-.67-.69-1.16-.9s-1.09-.31-1.78-.31-1.26.1-1.78.31c-.51.21-.91.51-1.19.9s-.42.87-.42,1.43c0,.53.14.99.41,1.39.27.4.66.7,1.18.91.51.21,1.11.31,1.8.31ZM1258.49,239.98c-.85,0-1.52.21-2.03.62s-.76.98-.76,1.7.26,1.28.77,1.69c.51.41,1.18.61,2.02.61s1.5-.2,2-.61.76-.97.76-1.69-.25-1.29-.74-1.7-1.17-.62-2.02-.62Z"/>
    <path class="cls-6" d="M1353.12,331.48c1.36,0,2.51.34,3.44,1.01.94.67,1.64,1.62,2.11,2.83.47,1.22.71,2.65.71,4.3,0,1.82-.25,3.34-.74,4.55-.5,1.21-1.21,2.12-2.14,2.72s-2.05.91-3.36.91-2.5-.3-3.46-.89c-.96-.59-1.68-1.48-2.16-2.66l2.42-1.13c.22.75.6,1.35,1.12,1.8.52.45,1.23.67,2.12.67.74,0,1.35-.14,1.85-.43.5-.29.89-.7,1.19-1.25.29-.54.51-1.2.64-1.97.13-.77.19-1.63.19-2.59v-.26h-.1c-.18.64-.49,1.16-.95,1.56-.46.4-.97.69-1.55.88-.58.18-1.15.28-1.73.28-1.02,0-1.93-.2-2.72-.61-.79-.41-1.41-.98-1.86-1.72-.45-.74-.67-1.61-.67-2.62,0-1.1.23-2.06.68-2.86.46-.8,1.1-1.42,1.94-1.86.84-.44,1.84-.66,3.01-.66ZM1353.15,333.74c-1.01,0-1.78.27-2.32.82-.54.54-.8,1.3-.8,2.28,0,.86.29,1.54.85,2.03.57.49,1.32.73,2.27.73.61,0,1.14-.12,1.61-.37s.83-.59,1.09-1.02c.26-.43.4-.94.4-1.51,0-.61-.13-1.13-.4-1.57s-.63-.78-1.09-1.02c-.46-.24-1-.36-1.61-.36Z"/>
    <g>
      <path class="cls-6" d="M1174.58,237.58v-10.87c0-.32,0-.65.01-1,0-.34.02-.71.04-1.09-.54.53-1.16.98-1.86,1.36-.7.38-1.41.64-2.15.8l-.48-2.23c.34-.05.73-.16,1.18-.34.45-.18.91-.4,1.39-.67.48-.27.92-.56,1.32-.88.4-.31.71-.62.94-.92h2.16v15.84h-2.54Z"/>
      <path class="cls-6" d="M1186.9,237.82c-1.9,0-3.4-.69-4.48-2.08-1.08-1.38-1.62-3.41-1.62-6.08s.54-4.7,1.62-6.08,2.57-2.08,4.48-2.08,3.42.69,4.5,2.08,1.62,3.41,1.62,6.08-.54,4.7-1.62,6.08c-1.08,1.38-2.58,2.08-4.5,2.08ZM1186.9,235.63c.77,0,1.41-.22,1.93-.66.52-.44.91-1.1,1.18-1.99.26-.89.4-2,.4-3.32s-.13-2.44-.4-3.32c-.26-.89-.66-1.55-1.18-1.99-.52-.44-1.16-.66-1.93-.66s-1.41.22-1.93.66c-.52.44-.91,1.1-1.16,1.99-.26.89-.38,2-.38,3.32s.13,2.44.38,3.32c.26.89.64,1.55,1.16,1.99.52.44,1.16.66,1.93.66Z"/>
    </g>
    <g>
      <path class="cls-6" d="M1190.09,285.94v-10.87c0-.32,0-.65.01-1,0-.34.02-.71.04-1.09-.54.53-1.16.98-1.86,1.36s-1.41.64-2.15.8l-.48-2.23c.34-.05.73-.16,1.18-.34.45-.18.91-.4,1.39-.67.48-.27.92-.56,1.32-.88s.71-.62.94-.92h2.16v15.84h-2.54Z"/>
      <path class="cls-6" d="M1199.74,285.94v-10.87c0-.32,0-.65.01-1,0-.34.02-.71.04-1.09-.54.53-1.16.98-1.86,1.36-.7.38-1.41.64-2.15.8l-.48-2.23c.34-.05.73-.16,1.18-.34.45-.18.91-.4,1.39-.67.48-.27.92-.56,1.32-.88.4-.31.71-.62.94-.92h2.16v15.84h-2.54Z"/>
    </g>
    <g>
      <path class="cls-6" d="M1491.34,326.24v-10.87c0-.32,0-.65.01-1,0-.34.02-.71.04-1.09-.54.53-1.16.98-1.86,1.36s-1.41.64-2.15.8l-.48-2.23c.34-.05.73-.16,1.18-.34.45-.18.91-.4,1.39-.67.48-.27.92-.56,1.32-.88s.71-.62.94-.92h2.16v15.84h-2.54Z"/>
      <path class="cls-6" d="M1497.8,326.24v-1.87c1.52-1.09,2.79-2.05,3.83-2.88s1.86-1.6,2.48-2.3c.62-.7,1.08-1.37,1.36-2,.28-.63.42-1.28.42-1.93,0-.85-.26-1.54-.79-2.06-.53-.53-1.26-.79-2.21-.79-.99,0-1.78.33-2.37,1-.58.66-.92,1.57-1,2.72l-2.23-1.03c.11-1.01.41-1.88.89-2.62.48-.74,1.13-1.3,1.96-1.7.82-.4,1.78-.6,2.87-.6.9,0,1.68.13,2.36.38.68.26,1.25.61,1.72,1.07s.82.99,1.07,1.6c.25.61.37,1.26.37,1.94,0,1.01-.25,1.98-.74,2.92-.5.94-1.28,1.89-2.35,2.87-1.07.98-2.48,2.02-4.22,3.14v.05c.19-.03.46-.05.79-.06.34,0,.67-.02,1.01-.02.34,0,.61-.01.82-.01h4.99v2.21h-11.02Z"/>
    </g>
    <g>
      <path class="cls-6" d="M1055.59,261.26v-10.87c0-.32,0-.65.01-1,0-.34.02-.71.04-1.09-.54.53-1.16.98-1.86,1.36-.7.38-1.41.64-2.15.8l-.48-2.23c.34-.05.73-.16,1.18-.34.45-.18.91-.4,1.39-.67.48-.27.92-.56,1.32-.88.4-.31.71-.62.94-.92h2.16v15.84h-2.54Z"/>
      <path class="cls-6" d="M1067.4,261.5c-1.49,0-2.78-.33-3.88-1s-1.84-1.6-2.24-2.8l2.5-1.18c.14.58.37,1.07.67,1.49.3.42.7.73,1.2.95s1.11.32,1.85.32c.62,0,1.15-.11,1.58-.34.43-.22.76-.54,1-.94.23-.4.35-.86.35-1.37s-.1-.97-.3-1.32c-.2-.35-.51-.61-.94-.77s-.96-.24-1.62-.24c-.19,0-.39,0-.59.01-.2,0-.41.03-.64.06v-2.16c.14.02.28.03.42.04.14,0,.27.01.4.01,1.04,0,1.78-.21,2.23-.62.45-.42.67-1.06.67-1.94,0-.75-.23-1.33-.68-1.73s-1.11-.6-1.96-.6-1.56.2-2.05.61c-.49.41-.86,1-1.12,1.76l-2.35-.98c.22-.74.6-1.38,1.13-1.92.53-.54,1.18-.96,1.96-1.26.78-.3,1.63-.44,2.55-.44,1.14,0,2.08.18,2.84.55.76.37,1.33.87,1.7,1.51.38.64.56,1.35.56,2.14,0,.61-.09,1.14-.26,1.6-.18.46-.41.85-.71,1.18-.3.33-.62.58-.96.76-.34.18-.69.3-1.04.36v.05c.46.02.89.11,1.28.28.39.17.74.4,1.06.7.31.3.56.65.73,1.07.18.42.26.87.26,1.37,0,.96-.24,1.8-.72,2.52-.48.72-1.14,1.28-1.98,1.68-.84.4-1.81.6-2.92.6Z"/>
    </g>
    <g>
      <path class="cls-6" d="M1068.78,178.55v-10.87c0-.32,0-.65.01-1,0-.34.02-.71.04-1.09-.54.53-1.16.98-1.86,1.36-.7.38-1.41.64-2.15.8l-.48-2.23c.34-.05.73-.16,1.18-.34.45-.18.91-.4,1.39-.67.48-.27.92-.56,1.32-.88s.71-.62.94-.92h2.16v15.84h-2.54Z"/>
      <path class="cls-6" d="M1082.34,178.55v-3.96h-7.73v-1.75c.03-.08.08-.18.16-.29.07-.11.16-.24.25-.38l6.6-9.46h3.14v9.89h2.69v1.99h-2.69v3.96h-2.42ZM1077.01,172.59h5.33v-5.59c0-.38.01-.78.04-1.19.02-.41.04-.81.06-1.21h-.05c-.18.38-.4.8-.68,1.26-.28.46-.54.85-.78,1.19l-3.74,5.33s-.06.06-.08.1-.05.07-.08.12Z"/>
    </g>
    <g>
      <path class="cls-6" d="M986.46,247.21v-10.87c0-.32,0-.65.01-1,0-.34.02-.71.04-1.09-.54.53-1.16.98-1.86,1.36-.7.38-1.41.64-2.15.8l-.48-2.23c.34-.05.73-.16,1.18-.34.45-.18.91-.4,1.39-.67.48-.27.92-.56,1.32-.88.4-.31.71-.62.94-.92h2.16v15.84h-2.54Z"/>
      <path class="cls-6" d="M998.12,247.45c-1.41,0-2.56-.3-3.47-.91-.9-.61-1.62-1.49-2.15-2.64l2.4-1.25c.24.77.6,1.4,1.09,1.88.49.49,1.21.73,2.17.73.67,0,1.24-.12,1.72-.37.47-.25.84-.6,1.09-1.06s.38-1,.38-1.64c0-.67-.12-1.23-.36-1.68-.24-.45-.58-.79-1.03-1.02s-1.01-.35-1.68-.35c-.46,0-.9.05-1.3.14-.4.1-.76.24-1.08.44-.32.2-.6.46-.84.78l-2.11-.41.96-8.74h9.22v2.21h-7.18l-.58,4.46-.05.26h.05c.37-.4.84-.71,1.43-.94s1.28-.34,2.08-.34c1.02,0,1.9.21,2.64.64.74.42,1.31,1.01,1.73,1.76s.62,1.62.62,2.62c0,.86-.14,1.63-.43,2.3-.29.67-.7,1.24-1.22,1.7-.53.46-1.14.81-1.84,1.04-.7.23-1.45.35-2.27.35Z"/>
    </g>
    <g>
      <path class="cls-6" d="M1023,288.99v-10.87c0-.32,0-.65.01-1,0-.34.02-.71.04-1.09-.54.53-1.16.98-1.86,1.36-.7.38-1.41.64-2.15.8l-.48-2.23c.34-.05.73-.16,1.18-.34.45-.18.91-.4,1.39-.67.48-.27.92-.56,1.32-.88.4-.31.71-.62.94-.92h2.16v15.84h-2.54Z"/>
      <path class="cls-6" d="M1035.67,272.91c.85,0,1.6.12,2.26.35s1.23.6,1.72,1.09c.49.5.89,1.14,1.21,1.94l-2.26,1.08c-.22-.69-.58-1.23-1.07-1.63-.49-.4-1.16-.6-2.03-.6-.62,0-1.18.15-1.66.46-.48.3-.89.73-1.22,1.28-.34.55-.59,1.2-.77,1.94-.18.74-.26,1.55-.26,2.41v.43l.1.05c.18-.64.49-1.16.95-1.55s.97-.68,1.55-.88c.58-.19,1.14-.29,1.7-.29,1.06,0,1.98.2,2.76.61.78.41,1.4.99,1.84,1.74.44.75.66,1.65.66,2.69s-.23,1.97-.7,2.75c-.46.78-1.11,1.38-1.93,1.8-.83.42-1.81.64-2.96.64-1.34,0-2.49-.34-3.43-1.01-.94-.67-1.66-1.62-2.16-2.83-.5-1.22-.74-2.64-.74-4.27,0-1.81.28-3.32.85-4.54.57-1.22,1.34-2.13,2.32-2.75.98-.62,2.07-.92,3.29-.92ZM1035.5,281.14c-.61,0-1.14.12-1.61.37-.46.25-.83.59-1.09,1.02s-.4.94-.4,1.51.14,1.06.42,1.51c.28.45.65.8,1.12,1.07.46.26.98.4,1.56.4.98,0,1.74-.26,2.28-.79.54-.53.82-1.26.82-2.18,0-.59-.12-1.11-.36-1.55-.24-.44-.59-.78-1.04-1.01-.46-.23-1.02-.35-1.69-.35Z"/>
    </g>
    <g>
      <path class="cls-6" d="M1069.68,307.26v-10.87c0-.32,0-.65.01-1,0-.34.02-.71.04-1.09-.54.53-1.16.98-1.86,1.36-.7.38-1.41.64-2.15.8l-.48-2.23c.34-.05.73-.16,1.18-.34.45-.18.91-.4,1.39-.67.48-.27.92-.56,1.32-.88s.71-.62.94-.92h2.16v15.84h-2.54Z"/>
      <path class="cls-6" d="M1075.37,291.42h12.07v2.14c-1.33,1.38-2.4,2.79-3.22,4.24-.82,1.45-1.4,2.95-1.76,4.51s-.54,3.21-.54,4.96h-2.59c0-1.76.22-3.48.66-5.15.44-1.67,1.11-3.27,2.02-4.8.9-1.53,2.04-2.96,3.42-4.31l.48.65h-10.54v-2.23Z"/>
    </g>
    <g>
      <path class="cls-6" d="M1098.12,275.1v-10.87c0-.32,0-.65.01-1,0-.34.02-.71.04-1.09-.54.53-1.16.98-1.86,1.36-.7.38-1.41.64-2.15.8l-.48-2.23c.34-.05.73-.16,1.18-.34.45-.18.91-.4,1.39-.67.48-.27.92-.56,1.32-.88.4-.31.71-.62.94-.92h2.16v15.84h-2.54Z"/>
      <path class="cls-6" d="M1110.33,259.04c1.07,0,2,.17,2.8.52.79.34,1.4.83,1.84,1.45s.65,1.38.65,2.26c0,.82-.2,1.53-.59,2.15-.39.62-.96,1.08-1.72,1.4v.02c.91.34,1.64.84,2.17,1.5.54.66.8,1.48.8,2.46s-.24,1.75-.73,2.42-1.18,1.19-2.06,1.56-1.94.55-3.16.55-2.27-.18-3.16-.55c-.89-.37-1.58-.89-2.08-1.56-.5-.67-.74-1.48-.74-2.42s.26-1.78.79-2.45c.53-.67,1.26-1.18,2.21-1.51v-.02c-.72-.3-1.29-.76-1.71-1.38-.42-.62-.62-1.34-.62-2.17,0-.88.22-1.63.65-2.26.43-.62,1.05-1.11,1.85-1.45.8-.34,1.74-.52,2.81-.52ZM1110.33,273.18c.7,0,1.3-.1,1.8-.31s.88-.51,1.15-.91c.27-.4.41-.86.41-1.39,0-.56-.14-1.04-.42-1.43-.28-.39-.67-.69-1.16-.9s-1.09-.31-1.78-.31-1.26.1-1.78.31-.91.51-1.19.9c-.28.39-.42.87-.42,1.43,0,.53.14.99.41,1.39.27.4.66.7,1.18.91s1.11.31,1.8.31ZM1110.33,261.2c-.85,0-1.52.21-2.03.62s-.76.98-.76,1.7.26,1.28.77,1.69c.51.41,1.18.61,2.02.61s1.5-.2,2-.61c.5-.41.76-.97.76-1.69s-.25-1.29-.74-1.7c-.5-.42-1.17-.62-2.02-.62Z"/>
    </g>
    <g>
      <path class="cls-6" d="M1355.2,191.88v-10.87c0-.32,0-.65.01-1,0-.34.02-.71.04-1.09-.54.53-1.16.98-1.86,1.36-.7.38-1.41.64-2.15.8l-.48-2.23c.34-.05.73-.16,1.18-.34.45-.18.91-.4,1.39-.67.48-.27.92-.56,1.32-.88s.71-.62.94-.92h2.16v15.84h-2.54Z"/>
      <path class="cls-6" d="M1367.08,175.8c1.36,0,2.51.34,3.44,1.01.94.67,1.64,1.62,2.11,2.83.47,1.22.71,2.65.71,4.3,0,1.82-.25,3.34-.74,4.55-.5,1.21-1.21,2.12-2.14,2.72s-2.05.91-3.36.91-2.5-.3-3.46-.89c-.96-.59-1.68-1.48-2.16-2.66l2.42-1.13c.22.75.6,1.35,1.12,1.8.52.45,1.23.67,2.12.67.74,0,1.35-.14,1.85-.43s.89-.7,1.19-1.25.51-1.2.64-1.97c.13-.77.19-1.63.19-2.59v-.26h-.1c-.18.64-.49,1.16-.95,1.56-.46.4-.97.69-1.55.88-.58.18-1.15.28-1.73.28-1.03,0-1.93-.2-2.72-.61-.79-.41-1.41-.98-1.86-1.72-.45-.74-.67-1.61-.67-2.62,0-1.1.23-2.06.68-2.86.46-.8,1.1-1.42,1.94-1.86s1.84-.66,3.01-.66ZM1367.1,178.05c-1.01,0-1.78.27-2.32.82-.54.54-.8,1.3-.8,2.28,0,.86.28,1.54.85,2.03.57.49,1.32.73,2.27.73.61,0,1.14-.12,1.61-.37.46-.25.83-.59,1.09-1.02.26-.43.4-.94.4-1.51,0-.61-.13-1.13-.4-1.57s-.63-.78-1.09-1.02c-.46-.24-1-.36-1.61-.36Z"/>
    </g>
    <g>
      <path class="cls-6" d="M1241.66,275.1v-1.87c1.52-1.09,2.79-2.05,3.83-2.88s1.86-1.6,2.48-2.3c.62-.7,1.08-1.37,1.36-2,.28-.63.42-1.28.42-1.93,0-.85-.26-1.54-.79-2.06-.53-.53-1.26-.79-2.21-.79-.99,0-1.78.33-2.37,1-.58.66-.92,1.57-1,2.72l-2.23-1.03c.11-1.01.41-1.88.89-2.62.48-.74,1.13-1.3,1.96-1.7.82-.4,1.78-.6,2.87-.6.9,0,1.68.13,2.36.38.68.26,1.25.61,1.72,1.07s.82.99,1.07,1.6c.25.61.37,1.26.37,1.94,0,1.01-.25,1.98-.74,2.92-.5.94-1.28,1.89-2.35,2.87-1.07.98-2.48,2.02-4.22,3.14v.05c.19-.03.46-.05.79-.06.34,0,.67-.02,1.01-.02.34,0,.61-.01.82-.01h4.99v2.21h-11.02Z"/>
      <path class="cls-6" d="M1261.6,275.34c-1.9,0-3.4-.69-4.48-2.08-1.08-1.38-1.62-3.41-1.62-6.08s.54-4.7,1.62-6.08,2.57-2.08,4.48-2.08,3.42.69,4.5,2.08,1.62,3.41,1.62,6.08-.54,4.7-1.62,6.08c-1.08,1.38-2.58,2.08-4.5,2.08ZM1261.6,273.16c.77,0,1.41-.22,1.93-.66.52-.44.91-1.1,1.18-1.99.26-.89.4-2,.4-3.32s-.13-2.44-.4-3.32c-.26-.89-.66-1.55-1.18-1.99s-1.16-.66-1.93-.66-1.41.22-1.93.66c-.52.44-.91,1.1-1.16,1.99-.26.89-.38,2-.38,3.32s.13,2.44.38,3.32c.26.89.64,1.55,1.16,1.99.52.44,1.16.66,1.93.66Z"/>
    </g>
    <g>
      <path class="cls-6" d="M1034.12,169.42v-1.87c1.52-1.09,2.8-2.05,3.83-2.88,1.03-.83,1.86-1.6,2.48-2.3.62-.7,1.08-1.37,1.36-2,.28-.63.42-1.28.42-1.93,0-.85-.26-1.54-.79-2.06-.53-.53-1.26-.79-2.21-.79-.99,0-1.78.33-2.36,1-.58.66-.92,1.57-1,2.72l-2.23-1.03c.11-1.01.41-1.88.89-2.62.48-.74,1.13-1.3,1.96-1.7s1.78-.6,2.87-.6c.89,0,1.68.13,2.36.38s1.25.61,1.72,1.07.82.99,1.07,1.6c.25.61.37,1.26.37,1.94,0,1.01-.25,1.98-.74,2.92s-1.28,1.89-2.35,2.87c-1.07.98-2.48,2.02-4.22,3.14v.05c.19-.03.46-.05.79-.06.34,0,.67-.02,1.01-.02.34,0,.61-.01.82-.01h4.99v2.21h-11.02Z"/>
      <path class="cls-6" d="M1051.4,169.42v-10.87c0-.32,0-.65.01-1,0-.34.02-.71.04-1.09-.54.53-1.16.98-1.86,1.36-.7.38-1.41.64-2.15.8l-.48-2.23c.34-.05.73-.16,1.18-.34.45-.18.91-.4,1.39-.67.48-.27.92-.56,1.32-.88.4-.31.71-.62.94-.92h2.16v15.84h-2.54Z"/>
    </g>
    <g>
      <path class="cls-6" d="M1169.66,166.32v-1.87c1.52-1.09,2.8-2.05,3.83-2.88,1.03-.83,1.86-1.6,2.48-2.3.62-.7,1.08-1.37,1.36-2,.28-.63.42-1.28.42-1.93,0-.85-.26-1.54-.79-2.06-.53-.53-1.26-.79-2.21-.79-.99,0-1.78.33-2.36,1-.58.66-.92,1.57-1,2.72l-2.23-1.03c.11-1.01.41-1.88.89-2.62s1.13-1.3,1.96-1.7,1.78-.6,2.87-.6c.9,0,1.68.13,2.36.38.68.26,1.25.61,1.71,1.07.46.46.82.99,1.07,1.6.25.61.37,1.26.37,1.94,0,1.01-.25,1.98-.74,2.92-.5.94-1.28,1.89-2.35,2.87-1.07.98-2.48,2.02-4.22,3.14v.05c.19-.03.46-.05.79-.06.34,0,.67-.02,1.01-.02.34,0,.61-.01.82-.01h4.99v2.21h-11.02Z"/>
      <path class="cls-6" d="M1183.75,166.32v-1.87c1.52-1.09,2.8-2.05,3.83-2.88,1.03-.83,1.86-1.6,2.48-2.3.62-.7,1.08-1.37,1.36-2,.28-.63.42-1.28.42-1.93,0-.85-.26-1.54-.79-2.06-.53-.53-1.26-.79-2.21-.79-.99,0-1.78.33-2.36,1-.58.66-.92,1.57-1,2.72l-2.23-1.03c.11-1.01.41-1.88.89-2.62s1.13-1.3,1.96-1.7,1.78-.6,2.87-.6c.9,0,1.68.13,2.36.38.68.26,1.25.61,1.71,1.07.46.46.82.99,1.07,1.6.25.61.37,1.26.37,1.94,0,1.01-.25,1.98-.74,2.92-.5.94-1.28,1.89-2.35,2.87-1.07.98-2.48,2.02-4.22,3.14v.05c.19-.03.46-.05.79-.06.34,0,.67-.02,1.01-.02.34,0,.61-.01.82-.01h4.99v2.21h-11.02Z"/>
    </g>
    <g>
      <path class="cls-6" d="M1225.03,205.03v-1.87c1.52-1.09,2.8-2.05,3.83-2.88,1.03-.83,1.86-1.6,2.48-2.3.62-.7,1.08-1.37,1.36-2,.28-.63.42-1.28.42-1.93,0-.85-.26-1.54-.79-2.06-.53-.53-1.26-.79-2.21-.79-.99,0-1.78.33-2.36,1-.58.66-.92,1.57-1,2.72l-2.23-1.03c.11-1.01.41-1.88.89-2.62.48-.74,1.13-1.3,1.96-1.7s1.78-.6,2.87-.6c.89,0,1.68.13,2.36.38s1.25.61,1.72,1.07.82.99,1.07,1.6c.25.61.37,1.26.37,1.94,0,1.01-.25,1.98-.74,2.92s-1.28,1.89-2.35,2.87c-1.07.98-2.48,2.02-4.22,3.14v.05c.19-.03.46-.05.79-.06.34,0,.67-.02,1.01-.02.34,0,.61-.01.82-.01h4.99v2.21h-11.02Z"/>
      <path class="cls-6" d="M1244.47,205.27c-1.49,0-2.78-.33-3.88-1s-1.84-1.6-2.24-2.8l2.5-1.18c.14.58.37,1.07.67,1.49.3.42.7.73,1.2.95s1.11.32,1.85.32c.62,0,1.15-.11,1.58-.34.43-.22.76-.54,1-.94.23-.4.35-.86.35-1.37s-.1-.97-.3-1.32c-.2-.35-.51-.61-.94-.77s-.96-.24-1.62-.24c-.19,0-.39,0-.59.01-.2,0-.41.03-.63.06v-2.16c.14.02.28.03.42.04.13,0,.27.01.4.01,1.04,0,1.78-.21,2.23-.62.45-.42.67-1.06.67-1.94,0-.75-.23-1.33-.68-1.73-.46-.4-1.11-.6-1.96-.6s-1.56.2-2.05.61c-.49.41-.86,1-1.12,1.76l-2.35-.98c.22-.74.6-1.38,1.13-1.92s1.18-.96,1.96-1.26c.78-.3,1.63-.44,2.56-.44,1.14,0,2.08.18,2.84.55s1.33.87,1.71,1.51c.38.64.56,1.35.56,2.14,0,.61-.09,1.14-.26,1.6s-.41.85-.71,1.18c-.3.33-.62.58-.96.76-.34.18-.69.3-1.04.36v.05c.46.02.89.11,1.28.28s.74.4,1.06.7c.31.3.55.65.73,1.07.18.42.26.87.26,1.37,0,.96-.24,1.8-.72,2.52-.48.72-1.14,1.28-1.98,1.68-.84.4-1.81.6-2.92.6Z"/>
    </g>
    <g>
      <path class="cls-6" d="M1236.82,135.07v-1.87c1.52-1.09,2.79-2.05,3.83-2.88s1.86-1.6,2.48-2.3c.62-.7,1.08-1.37,1.36-2,.28-.63.42-1.28.42-1.93,0-.85-.26-1.54-.79-2.06-.53-.53-1.26-.79-2.21-.79-.99,0-1.78.33-2.37,1-.58.66-.92,1.57-1,2.72l-2.23-1.03c.11-1.01.41-1.88.89-2.62.48-.74,1.13-1.3,1.96-1.7.82-.4,1.78-.6,2.87-.6.9,0,1.68.13,2.36.38.68.26,1.25.61,1.72,1.07s.82.99,1.07,1.6c.25.61.37,1.26.37,1.94,0,1.01-.25,1.98-.74,2.92-.5.94-1.28,1.89-2.35,2.87-1.07.98-2.48,2.02-4.22,3.14v.05c.19-.03.46-.05.79-.06.34,0,.67-.02,1.01-.02.34,0,.61-.01.82-.01h4.99v2.21h-11.02Z"/>
      <path class="cls-6" d="M1257.41,135.07v-3.96h-7.73v-1.75c.03-.08.08-.18.16-.29.07-.11.16-.24.25-.38l6.6-9.46h3.14v9.89h2.69v1.99h-2.69v3.96h-2.42ZM1252.08,129.12h5.33v-5.59c0-.38.01-.78.04-1.19.02-.41.04-.81.06-1.21h-.05c-.18.38-.4.8-.68,1.26-.28.46-.54.85-.78,1.19l-3.74,5.33s-.06.06-.08.1c-.02.03-.05.07-.08.12Z"/>
    </g>
    <g>
      <path class="cls-6" d="M1263.1,81.37v-1.87c1.52-1.09,2.8-2.05,3.83-2.88,1.03-.83,1.86-1.6,2.48-2.3.62-.7,1.08-1.37,1.36-2,.28-.63.42-1.28.42-1.93,0-.85-.26-1.54-.79-2.06-.53-.53-1.26-.79-2.21-.79-.99,0-1.78.33-2.36,1-.58.66-.92,1.57-1,2.72l-2.23-1.03c.11-1.01.41-1.88.89-2.62.48-.74,1.13-1.3,1.96-1.7s1.78-.6,2.87-.6c.89,0,1.68.13,2.36.38s1.25.61,1.72,1.07.82.99,1.07,1.6c.25.61.37,1.26.37,1.94,0,1.01-.25,1.98-.74,2.92s-1.28,1.89-2.35,2.87c-1.07.98-2.48,2.02-4.22,3.14v.05c.19-.03.46-.05.79-.06.34,0,.67-.02,1.01-.02.34,0,.61-.01.82-.01h4.99v2.21h-11.02Z"/>
      <path class="cls-6" d="M1282.39,81.61c-1.41,0-2.56-.3-3.47-.91s-1.62-1.49-2.15-2.64l2.4-1.25c.24.77.6,1.4,1.09,1.88.49.49,1.21.73,2.17.73.67,0,1.24-.12,1.72-.37.47-.25.84-.6,1.09-1.06s.38-1,.38-1.64c0-.67-.12-1.23-.36-1.68s-.58-.79-1.03-1.02c-.45-.23-1.01-.35-1.68-.35-.46,0-.9.05-1.3.14-.4.1-.76.24-1.08.44-.32.2-.6.46-.84.78l-2.11-.41.96-8.74h9.22v2.21h-7.18l-.58,4.46-.05.26h.05c.37-.4.84-.71,1.43-.94s1.28-.34,2.08-.34c1.02,0,1.9.21,2.64.64.74.42,1.31,1.01,1.73,1.76s.62,1.62.62,2.62c0,.86-.14,1.63-.43,2.3s-.7,1.24-1.22,1.7c-.53.46-1.14.81-1.84,1.04-.7.23-1.45.35-2.27.35Z"/>
    </g>
    <g>
      <path class="cls-6" d="M1266.86,148.18v-1.87c1.52-1.09,2.79-2.05,3.83-2.88s1.86-1.6,2.48-2.3c.62-.7,1.08-1.37,1.36-2,.28-.63.42-1.28.42-1.93,0-.85-.26-1.54-.79-2.06-.53-.53-1.26-.79-2.21-.79-.99,0-1.78.33-2.37,1-.58.66-.92,1.57-1,2.72l-2.23-1.03c.11-1.01.41-1.88.89-2.62.48-.74,1.13-1.3,1.96-1.7.82-.4,1.78-.6,2.87-.6.9,0,1.68.13,2.36.38.68.26,1.25.61,1.72,1.07s.82.99,1.07,1.6c.25.61.37,1.26.37,1.94,0,1.01-.25,1.98-.74,2.92-.5.94-1.28,1.89-2.35,2.87-1.07.98-2.48,2.02-4.22,3.14v.05c.19-.03.46-.05.79-.06.34,0,.67-.02,1.01-.02.34,0,.61-.01.82-.01h4.99v2.21h-11.02Z"/>
      <path class="cls-6" d="M1287.16,132.1c.85,0,1.6.12,2.26.35s1.23.6,1.72,1.09c.49.5.89,1.14,1.21,1.94l-2.26,1.08c-.22-.69-.58-1.23-1.07-1.63-.49-.4-1.16-.6-2.03-.6-.62,0-1.18.15-1.66.46-.48.3-.89.73-1.22,1.28-.34.55-.59,1.2-.77,1.94-.18.74-.26,1.55-.26,2.41v.43l.1.05c.18-.64.49-1.16.95-1.55.46-.39.97-.68,1.55-.88.58-.19,1.14-.29,1.7-.29,1.06,0,1.98.2,2.76.61.78.41,1.4.99,1.84,1.74.44.75.66,1.65.66,2.69s-.23,1.97-.7,2.75-1.11,1.38-1.93,1.8c-.83.42-1.81.64-2.96.64-1.34,0-2.49-.34-3.43-1.01-.95-.67-1.67-1.62-2.16-2.83-.5-1.22-.74-2.64-.74-4.27,0-1.81.28-3.32.85-4.54.57-1.22,1.34-2.13,2.32-2.75.98-.62,2.07-.92,3.29-.92ZM1286.99,140.33c-.61,0-1.14.12-1.61.37-.46.25-.83.59-1.09,1.02s-.4.94-.4,1.51.14,1.06.42,1.51c.28.45.65.8,1.12,1.07.46.26.98.4,1.56.4.98,0,1.74-.26,2.28-.79.54-.53.82-1.26.82-2.18,0-.59-.12-1.11-.36-1.55-.24-.44-.59-.78-1.04-1.01s-1.02-.35-1.69-.35Z"/>
    </g>
    <g>
      <path class="cls-6" d="M1122.85,240.54v-1.87c1.52-1.09,2.8-2.05,3.83-2.88,1.03-.83,1.86-1.6,2.48-2.3.62-.7,1.08-1.37,1.36-2,.28-.63.42-1.28.42-1.93,0-.85-.26-1.54-.79-2.06-.53-.53-1.26-.79-2.21-.79-.99,0-1.78.33-2.36,1-.58.66-.92,1.57-1,2.72l-2.23-1.03c.11-1.01.41-1.88.89-2.62s1.13-1.3,1.96-1.7c.82-.4,1.78-.6,2.87-.6.9,0,1.68.13,2.36.38s1.25.61,1.72,1.07c.46.46.82.99,1.07,1.6.25.61.37,1.26.37,1.94,0,1.01-.25,1.98-.74,2.92s-1.28,1.89-2.35,2.87c-1.07.98-2.48,2.02-4.22,3.14v.05c.19-.03.46-.05.79-.06.34,0,.67-.02,1.01-.02.34,0,.61-.01.82-.01h4.99v2.21h-11.02Z"/>
      <path class="cls-6" d="M1135.71,224.7h12.07v2.14c-1.33,1.38-2.4,2.79-3.22,4.24s-1.4,2.95-1.76,4.51c-.36,1.56-.54,3.21-.54,4.96h-2.59c0-1.76.22-3.48.66-5.15s1.11-3.27,2.02-4.8c.9-1.53,2.04-2.96,3.42-4.31l.48.65h-10.54v-2.23Z"/>
    </g>
  </g>
  <path class="cls-4" d="M1446.37,944.74s0-.03,0-.04c-.03,0-.06,0-.08,0l.08.04Z"/>
  <path class="cls-4" d="M1357.15,948.83h0s.05.05.07.08l-.07-.08Z"/>
  <path class="cls-4" d="M1005.94,947.71s0,0,0-.01c-.02-.02-.05-.03-.07-.05l.07.06Z"/>
  <g>
    <use width="15" height="15" transform="translate(1128.88 199.36) rotate(8.87) scale(1.07)" xlink:href="#Anchor_2"/>
    <use width="15" height="15" transform="translate(1273.88 107) rotate(8.87) scale(1.07)" xlink:href="#Anchor_2"/>
    <use width="15" height="15" transform="translate(1269.78 40.19) rotate(8.87) scale(1.07)" xlink:href="#Anchor_2"/>
    <use width="15" height="15" transform="translate(1243.68 93.89) rotate(8.87) scale(1.07)" xlink:href="#Anchor_2"/>
    <use width="15" height="15" transform="translate(1231.76 163.84) rotate(8.87) scale(1.07)" xlink:href="#Anchor_2"/>
    <use width="15" height="15" transform="translate(1176.4 125.14) rotate(8.87) scale(1.07)" xlink:href="#Anchor_2"/>
    <use width="15" height="15" transform="translate(1038.64 128.24) rotate(8.87) scale(1.07)" xlink:href="#Anchor_2"/>
    <use width="15" height="15" transform="translate(1248.88 233.92) rotate(8.87) scale(1.07)" xlink:href="#Anchor_2"/>
    <use width="15" height="15" transform="translate(1356.88 150.7) rotate(8.87) scale(1.07)" xlink:href="#Anchor_2"/>
    <use width="15" height="15" transform="translate(1099.82 233.92) rotate(8.87) scale(1.07)" xlink:href="#Anchor_2"/>
    <use width="15" height="15" transform="translate(1070.52 266.08) rotate(8.87) scale(1.07)" xlink:href="#Anchor_2"/>
    <use width="15" height="15" transform="translate(1024.61 247.81) rotate(8.87) scale(1.07)" xlink:href="#Anchor_2"/>
    <use width="15" height="15" transform="translate(987.72 206.03) rotate(8.87) scale(1.07)" xlink:href="#Anchor_2"/>
    <use width="15" height="15" transform="translate(1070.52 137.37) rotate(8.87) scale(1.07)" xlink:href="#Anchor_2"/>
    <use width="15" height="15" transform="translate(1056.9 220.08) rotate(8.87) scale(1.07)" xlink:href="#Anchor_2"/>
    <use width="15" height="15" transform="translate(1492.67 285.05) rotate(8.87) scale(1.07)" xlink:href="#Anchor_2"/>
    <use width="15" height="15" transform="translate(1189.2 244.76) rotate(8.87) scale(1.07)" xlink:href="#Anchor_2"/>
    <use width="15" height="15" transform="translate(1176.4 196.4) rotate(8.87) scale(1.07)" xlink:href="#Anchor_2"/>
    <use width="15" height="15" transform="translate(1347.75 306.38) rotate(8.87) scale(1.07)" xlink:href="#Anchor_2"/>
    <use width="15" height="15" transform="translate(1252.81 212.69) rotate(8.87) scale(1.07)" xlink:href="#Anchor_2"/>
    <use width="15" height="15" transform="translate(1419.17 206.03) rotate(8.87) scale(1.07)" xlink:href="#Anchor_2"/>
    <use width="15" height="15" transform="translate(1383.14 188.02) rotate(8.87) scale(1.07)" xlink:href="#Anchor_2"/>
    <use width="15" height="15" transform="translate(1448.22 34.69) rotate(8.87) scale(1.07)" xlink:href="#Anchor_2"/>
    <use width="15" height="15" transform="translate(1283.54 170.51) rotate(8.87) scale(1.07)" xlink:href="#Anchor_2"/>
    <use width="15" height="15" transform="translate(1470.48 118.47) rotate(8.87) scale(1.07)" xlink:href="#Anchor_2"/>
    <use width="15" height="15" transform="translate(1366.02 74.3) rotate(8.87) scale(1.07)" xlink:href="#Anchor_2"/>
    <use width="15" height="15" transform="translate(1321.45 24.29) rotate(8.87) scale(1.07)" xlink:href="#Anchor_2"/>
    <polyline class="cls-2" points="1280.55 116.13 1290.21 179.64 1373.82 83.43 1327.18 33.42 1276.44 49.32 1363.55 159.83 1454.88 43.82 1477.15 127.6 1389.81 197.15 1259.48 221.82 1354.42 315.51 1425.83 213.87 1499.33 294.19 1255.55 243.05 1195.86 253.89 1135.54 208.49 1106.49 243.05 1077.19 275.21 1063.57 229.21 1077.19 146.5 1045.3 137.37 994.39 215.16 1031.27 256.94 1183.07 134.27 1250.34 103.03 1238.42 170.62 1183.07 205.53"/>
  </g>
  <g class="cls-3">
    <g>
      <path class="cls-5" d="M1372.51,326.07s.47,2.82.61,2.6c-16.54-11.24-19.43-8.04-34.49-21.2,2.87-4.28,8.36-10.44,11.4-13.12,1.74-1.54,3.77-2.56,4.82-3.85,1.19-1.47-1.29-6.02.1-7.98,2.06-2.9,11.92-.3,14.73-3.6.28-.33-6.29-2.1-5.99-2.5-.64-.16,1.31-.36.65-.53-3.06-.77-4.79-6.73-8.01-7.66-4.41-1.27-11.16,4.47-14.25,3.03-1.51-.7-.05-10.07-1.23-10.52-.64.07-2.34,5.58-3.03,5.68-4.25.58-11.06,1.47-17.97-.64-5.3-1.62-8.54-6.07-11.89-8.03-1.24-.73-3.44-1.09-4.08-1.33-5.61-1.8-9.68-4.98-12.93-7.04-1.04-.66-2.19-2.86-2.79-3.14-2.15-.75-5.02,2.85-6.86,2.39-.79-.2-2.67-3.89-3.52-4.13-4.62,5.37-9.36,8.5-13.64,10.55-1.25.6-4.32-.4-4.98.03-.39.32,1.01,4.36.35,5.01-3.76,3.65-10.36,9.06-20.07,10.92-6.08,1.17-11.27,6.81-15.73,7.06-2.04.11-4.75-9.42-6.29-9.25-9.07.98-16.34,8.11-22.8,7.78-9.47-.49-16.69-5.54-24.35-8.02-5.79-1.87-9.3-5.62-12.96-7.91-2.07-1.29-3.95-3.37-5.43-3.99-7.92-3.34-17.07-3-22.77-8.29-.17.17.37-.86.19-.66-3.13,7.67-9.33,16.4-15.22,22.08-5.16,4.98-17.44,12.53-33.61,10.2-13.72-1.98-22.91-9.72-26.41-23.92-5.13,2.32-14.85,5.2-23.84,1.85-.88-.13-2.37-3.36-3.42-3.48-7.98-.86-19.74,1.83-26.53-7.74-.49-.19-.71-2.54-1.19-2.71-2.46-.89-8.98,3.79-12.34,1.55-12.39-8.27-14.47-25.28-11.85-41.19,1.4-8.51,5.69-13.69,9.47-16.88.72-.61-2.16-1.79-1.45-2.44.21-4.82,3.55-12.72,8.65-19.88,4.25-5.97,13.09-4.49,16.81-6.62.43-.25-2.43-5.48-2-5.74,3.55-4.56,8.72-6.67,11.32-8.97.2-.18-.86-1.35-.63-1.55,4.96-8.43,14.8-15.71,32.74-17.52,7.16-.73,16.36-6.6,26.38-2.35.47.05-.63,7.5-.12,7.54,4.71.36,9.6,1.21,16.68,6.83,6.84,5.43,11.34,6.22,14.63,14.7-3.2,5.14,1.05,6.21-3.05,10.67-2.09,2.28-1.93-3.07-.11-.58-.96,5.62.8,9.51-.91,13.39-.72,1.64-4.62,3.2-4.8,4.1-.86,5.02-6.14,7.83-7.46,11.36-.81,2.18,6.27,6.76,6.04,8.12-.05.3-2.11.12-2.16.43-.11,3.56-2.2,7.65-3.51,12.46-.01.04-3.78-.31-3.79-.27-.2,1.5,8.56,3.89,8.3,5.45.13.76-6.42,2.39-6.18,3.38.6,2.55,1,5.53,1.31,9.01.06.32,4.1.13,4.29-.13,1.23-1.65,1.71-1.13,3.03-2.71,4.55-5.45,5.66-7.74,9.11-10.7.3-.26,2.94-1.16,3.29-1.45.64-9.7,1.45-19.32,4.55-22.65.28-.3,1.52,1.01,1.84.66.3-1.19,2.17-2.15,2.46-3.61,1.48-7.26,6.74-14.47,14.2-23.07,4.65-5.36,8.99-7.14,12.78-8.94.68-.33.34-3.87.9-4.17,2.81-3,2.58-8.99,5.13-11.07.79-.65,1.47-.64,2.18-1.25.04-.2,2.19,1.98,2.22,1.8.97-5.11,4.72-11.86,11.77-18.41,7.04-6.54,12.56-12.04,18.07-12.37,2.25-3.58,6.29-6.9,11.98-10.86,3.91-2.72,7.76-5.36,11.56-7.52,1.51-.86,6.09,3.51,7.62,2.61,8.9-5.27,17.51-8.37,31.34-6.24.7.11,2.04-1.6,2.96-1.43-.07-1.09,2.03-2.43,1.99-3.45-.43-10.34-5.55-17.77-4.3-22.39.03-.12.75.08.78-.04.21-.76,4.06-.95,4.19-2.34.42-4.51,3.76-10.07,9.3-17.43,4.73-6.28,9.97-9.14,14.97-12.09.97-.57.88-3,1.82-3.59,6.73-4.21,13.93-4.27,19.48-5.92.37-.11-1.59-6.73-1.21-6.84,10.31-3.06,18.59,7.05,23.09,8.49.63.2,2-.29,2.31-.22.45.1,2.48-.45,3.52-.42,3.28.1,6.38,2.19,11.41,3.88.69.23,2.98-4.44,3.65-4.25,4.15,1.22,12.36,1.17,18.71,6.64,5.7,4.91,7.37,12.78,9.73,16.97.87,1.54,2.94,2.02,3.64,2.99.47.66,2.04.81,3.02,1.84,3.77,3.98,7.79,12.05,9.86,21.68,1.76,8.19-1.14,15.17-2.19,19.79-.11.49,5.57,1.19,5.47,1.65.09.43-8.64,1.65-8.55,2.06.38,1.76,6.19,6.41,6.46,8.84,5.08-5.15,6.58-13.58,10.89-14.95,1.12-3.85,9.36-3.43,12.9-8.55,2.71-3.92,2.46-9.04,4.96-11.4,1.14-1.08,1.69-3.6,2.11-4.26,2.95-4.71,7.92-6.82,10.82-9.42.5-.45.81-1.53,1.35-2.04.06-.77,1.96-1.61,2-2.29.33-5.45-3.63-13.59-.15-20.13,2.25-4.24,4.71-2,8.57-4.85s3.8,1.2,8.51.3c12.22-2.34,19.38-2.38,23.89,1.85,4.64,4.35,6.29,9.8,8.05,13.94.89,2.08,5.63,1.84,6.76,3.79,4.02,6.91-.38,16.89.94,24.19.22,1.24-1.34,2.88-1.09,4.19,1.36,7.1,7.53,13.09,6.53,17.99-.27,1.32-.09,1.78-.26,2.88.2.4-6.17,2.33-5.99,2.69,2.63,5.21,12.73,12.99,10.82,23.61-1.65,9.16-6.76,17.54-10.37,21.51-.42.46.65-.04.26.41-2.52,7.16-13.39,9.52-16.02,14.37-.66,1.22,5.34,5.93,4.73,7.11-2.43,4.7-8.75,8.16-13.07,13.27-5.05,5.97-11.49,9.96-16.3,13.71-3.16,10.98.68,11.79-.72,23.13-1.18,9.58-2.29,15.12-5.26,18.73,3.24.74-.66,6.6,2.76,8.82,3.61,2.34,12.48-2.96,15.02-.69,1.67,1.5.13,6.38,1.28,7.12,1.02.66,4.17-1.35,6.11-.55,3,1.24,4.62,7.18,8.32,9.49,4.51,2.81,11.33,1.9,16.34,4.8,5.18,3,10,6.29,12.57,8.62.63.57-1.96,5.42-1.64,5.67-.05-.04-.06-1.8-1.91-2.47.1.06.92-1.53.98-1.5-.01,0-1.79.53-2.09.41-6.34,18.96-.68,21.28-9.22,39.36-4.88-1.5-10.78-4.87-13.82-6.9-1.26-.84-2.41-4.59-3.13-4.83-2.94-.84-5.93-1.09-8.69-2.05-2-.7-4.83,1.81-6.74,1.21-.4.09.76,3.78.4,3.87-4.72,1.14-11.99-6.23-20.04-8.47-4.29-1.19-8.5.02-11.69-1.46-2.08-.97-5.84,3.85-7.22,3.47-1.41-.39-2.4-4.35-4.68-4.65-3.47-.46-6.09-6.17-10.37-7.36-.15-.04-.32,5.2-.49,5.16-.69.98-6.4-1.52-7.15-.39-1.88,2.84-3.83,5.51-6.54,8.69-1.66,1.96,3.2,9.38,1.47,11.82-1.7,2.39-2.41,6-4.41,8.48-3.13,3.85-11.2,2.5-13.8,4.8-1.04.92-3.03,1.94-3.45,2.43ZM1028.24,260.58s0-3.98.01-3.98c0,0,0,3.98-.01,3.98ZM1287.49,250.4s0-3.99.01-3.98c0,0,0,3.99-.01,3.98ZM1090.59,250.34s2.02-1.96,2.02-1.96c0,.98-2.02,1.96-2.02,1.96ZM1082.47,247.12l2.02-1.96c0,.98-2.02,1.96-2.02,1.96ZM1355.46,230.53c1.63.69,4.83-2.23,6.26-1.56,2.13.99,4.3.27,5.75.69,2.58.74,4.4,4.43,7.27,5.16,2.86.72,5.67,2.04,8.71,2.9,2.05.58.19-1.32,1.9-.44,3.16-4.57,10.63-.35,12.96-5.39,1.31-2.84-5.48-8.2-4.06-10.68-.94.33,1.99,3.2.97,3.44-2.56.59-5.99-4.4-8.78-4.1-3.32.36-5.64,8.71-9.61,9.66-3.86.92-9.14-7.72-12.69-7.32-2.95.34-5,6.11-7.37,6.68-.09.02-1.21.96-1.3.98ZM1170.55,227.13c1.66.95,6.1-.43,7.45.41,1.99,1.24,4.09.78,5.2,1.14,3.71,1.2,8.19,4.58,13.66,4.86,5.36.28,10.66,1.06,16.8.39,2.6-.28,4.91-5.07,7.38-5.21,3.03-.17,7.42,9.08,10.22,8.68.47-.44-2.71-8.37-2.28-8.78,1.03-1,3.84,2.1,5.18.95-11.13-5.61-9.17-11.14-21.11-14.74-2.97,1.93-4.47,10.99-7.22,12.59-8.94,5.23-19.87-4.49-25.94-5.26-1.94-.25-5.09,4.89-6.1,5.05-1.7.14-3.43-.71-3.23-.08ZM1229.13,235.3l2.02-1.96c0,.98-2.02,1.96-2.02,1.96ZM1026.98,220.3c.84.1,3.18-3.32,3.84-3.24,2.47.27,4.4-1.09,6.75-.64,1.46-.72,3.27,1.62,5.24.92,1.53-.54,3.11-.4,4.34-.76.11-.03-3.67-2.56-3.55-2.6.8-1.45,10.04,1.09,10.56-.24.51-1.31-6.9-5.81-6.35-7.13.68-1.65,2.85-2.42,3.37-3.86.05-.44,5.35.06,5.4-.39.26-2.16-7.54-5.16-7.22-7.43.13-3.23,9.48-5.5,10.59-9.6.1-.65-5.24-3.53-5.23-4.79.04-3.55.08-8.64,1.5-13.85.42-1.56,3.1-3.16,3.71-4.52-1.21-.5-3.35-.72-6.39-.41-.24.02-1.07-.17-1.24-.15-.24.36-1.91.56-2.35,1.37-2.21,4.1-1.9,9.26-4.78,11.81-1.84,1.64-7.02.75-8.3,2.52-3.71,5.14-7.93,8.78-11.42,10.78-.23,4.59-2.66,9.68-6.67,15.77-1.34,2.04.51,5.69-.92,7.28,3.35,1.58,5.63,5.54,9.12,9.14ZM1229.74,195.07c-1.77,4.81-2.24,15-9.41,19.96-2.08,1.44-5.8-2.47-7.75-1.19,18.43-2.95,19.31,1.85,37.12-3.73.53-4.82,2.01-7.69,3.21-10.55.14-.34-4.1-2.2-4.06-2.32,0,0,9.43,1.25,9.49.61-.04-.11-8.46.77-8.49.66-1.21-3.6-.9-8.77-.66-15.14-1.03,1.47-2.88.26-4.25,1.7-5.38,5.66-10.66,8.71-15.19,10.01ZM1340.79,187.62c.71.04,2.29-.13,2.93-.09,1.36.09,2.31-1.32,3.08-1.37,4.61-1.08,9.51,1.49,13.25,1.07,2.49-.29,4.92.03,6.44-.33,6.45-1.54,11.5-6.77,15.56-7.2.42-.05,3.43,9.01,3.89,8.96.34-.31-3.76-7.82-3.46-8.1,3.36-3.1,9.78-6.5,16.61-8.84,3.03-1.04,7.29,3.42,9.8,2.82,2.53-.61,1.99-8.67,3.28-9.34,2.63-1.35,10.46,4.1,13.76,1.49.91-.72-1.58-5.77-.64-6.5.04-.03.01-.07.05-.1,4.03-3.13,9.07-4.26,11.77-7.44,1.42-1.68,2.33-5.07,4-8.3.73-1.41,1.9-2.6,2.69-4.05,2.42-4.45,5.64-8.12,7.18-12.76,1.97-5.94,1.46-11.05,4.31-14.22-2.23-4.42-.95-10.14-.72-17.61.07-2.38-2.64-5.8-2.34-7.81-2.61,3.43-7.21,4.6-9.4,6.66-.91.86.63,4.79.07,5.43-.26.68-1.38,1.71-1.68,2.72-1.2,4.12,1.47,12.87-2.63,18.16-4.74,6.12-18.79,3.17-23.6,4.85-.53,5.72,3.78,18.39-2.75,24.67-5.67,5.47-13.46,6.64-17.88,10.18-4.34,3.47-9.13,4.67-13.02,6.84-1.73.97-3.96,1.3-5.22,2.11-7.79,5.01-14.12,9.51-19.27,9.35-.02.03-.22-1.59-.25-1.56-3.06,3.6-8.25,7.42-15.82,10.34ZM1347.67,191.67l2.02-1.96c0,.98-2.02,1.96-2.02,1.96ZM1174.46,188.24c3.79,0,7.4-3.55,10.13-3.2.53.07-.67-1.13-.1-1.07,2.41-1.47,6.2-.23,8.9-2.05.08-.21.53.02.6-.17,1.57-4.38.93-14.52,7.06-19.65,5.39-4.51,16.13,1.92,20.1.79.28-.58-4.52-7.36-4.27-7.9,1.23-2.62,4.46-5.45,6.75-8.71,1.78-2.53,7.75-1.32,9.33-3.19,1.13-1.33-4.15-7.38-3.78-8.1.57-1.26,9.52,1.37,10.15.04,1.04-2.18-2.85-6.8-2.28-8.5-.06-.24.52.64.44.37-.97.03-1.94-1.92-2.17-1.86-1.62.95-2.87,2.57-4.47,3.48-2.83,1.61-5.88,2.79-8.15,4.3-.38.55-2.26,1-2.7,1.69-2.03,3.23-1.67,10.37-6.32,14.13-5.44,4.4-14.24,2.59-19.15,3.14-1.09,4.53-2.56,10.72-7.09,15.42-2.73,2.83-6.79,3.2-9.19,5.18-1.84,1.51-1.05,5.93-2.05,7.06-3.31,3.7-7.66,5.54-10.93,7.27-.59.49.28-4.53,1.04-4.65,2.57-.43,5.84,6.16,8.14,6.16ZM1382.72,187.06s2.02-1.96,2.02-1.96c0,.98-2.02,1.96-2.02,1.96ZM1293.34,114.8c2.41,3.65,10.05,9.66,9.09,20.06-.57,6.25-1.36,11.85-3.94,15.36,1.64-.47-.47-2.33.74-2.57,2.38-.48,2.53.07,3.63-.97,3.05-2.92,3.76-8.97,6.66-10.89,2.11-1.4,10.5,4.35,11.67,3.17.5-.64-5.28-7.66-4.58-8.97,1.9-3.55,6.04-7.55,9.84-11.67,1.81-1.97,7.76-1.12,9.6-3.7,1.8-2.52-2.66-10.18-.48-12.68,2.52-2.9,13.08-.25,15.57-1.86-.54-3.22-6.03-8.93-5.3-13.16.32-1.87.67-3.59,1-5.06.13-.57,2.46-1.32,2.58-1.93-.37-.4-1.65-.86-1.99-1.22-1.71-1.81-3.4-4.29-5.44-7.13-1.98-2.75-2.26-5.89-3.56-8.19-.79-1.39-5.07-.66-5.68-1.44-.52-.18.47-4.05-.22-4.25-.86-.25-2.13.3-3.18-.04-.49-.03-1.5-2.38-2.12-2.4-2.67-.08-6.51,3.72-10.74,2.76-1.99-.45-3.49-1.77-4.88-2.21-.35-.11.2,4.96-.18,4.84-3.45,1.02-10.33-6.79-12.29-5.57-1.25.78,1.35,7.87.07,8.63-.93.55-5.03-1.62-6.02-.99-.23,2.51-1.86,5.7-2.92,9.6-.03.12-.81-.09-.85.03-.87,3.21,3.77,5.9,3.94,10.07.15,3.47-1.35,7.3-.22,10.86,2.18,6.91.86,13.02.59,17.16-.04.67-2.52-1.39-2.53-.87-.89,1.06,1.8,4.65,2.11,5.23ZM1367.59,130.24s.02-.08.01-.07c.11-.07-1.97,3.2-1.87,3.14-.11.07,1.95-3.13,1.85-3.07ZM1378.95,127.81l2.02-1.96c0,.98-2.02,1.96-2.02,1.96ZM1348.06,106.39l2.02-1.96c0,.98-2.02,1.96-2.02,1.96ZM1402.37,96.55l2.02-1.96c0,.98-2.02,1.96-2.02,1.96ZM1349.29,83.49s2.02-1.96,2.02-1.96c0,.98-2.02,1.96-2.02,1.96ZM1432.1,56.4l2.02-1.96c0,.98-2.02,1.96-2.02,1.96Z"/>
      <path class="cls-1" d="M1372.51,326.07s.47,2.82.61,2.6c-16.54-11.24-19.43-8.04-34.49-21.2,2.87-4.28,8.36-10.44,11.4-13.12,1.74-1.54,3.77-2.56,4.82-3.85,1.19-1.47-1.29-6.02.1-7.98,2.06-2.9,11.92-.3,14.73-3.6.28-.33-6.29-2.1-5.99-2.5-.64-.16,1.31-.36.65-.53-3.06-.77-4.79-6.73-8.01-7.66-4.41-1.27-11.16,4.47-14.25,3.03-1.51-.7-.05-10.07-1.23-10.52-.64.07-2.34,5.58-3.03,5.68-4.25.58-11.06,1.47-17.97-.64-5.3-1.62-8.54-6.07-11.89-8.03-1.24-.73-3.44-1.09-4.08-1.33-5.61-1.8-9.68-4.98-12.93-7.04-1.04-.66-2.19-2.86-2.79-3.14-2.15-.75-5.02,2.85-6.86,2.39-.79-.2-2.67-3.89-3.52-4.13-4.62,5.37-9.36,8.5-13.64,10.55-1.25.6-4.32-.4-4.98.03-.39.32,1.01,4.36.35,5.01-3.76,3.65-10.36,9.06-20.07,10.92-6.08,1.17-11.27,6.81-15.73,7.06-2.04.11-4.75-9.42-6.29-9.25-9.07.98-16.34,8.11-22.8,7.78-9.47-.49-16.69-5.54-24.35-8.02-5.79-1.87-9.3-5.62-12.96-7.91-2.07-1.29-3.95-3.37-5.43-3.99-7.92-3.34-17.07-3-22.77-8.29-.17.17.37-.86.19-.66-3.13,7.67-9.33,16.4-15.22,22.08-5.16,4.98-17.44,12.53-33.61,10.2-13.72-1.98-22.91-9.72-26.41-23.92-5.13,2.32-14.85,5.2-23.84,1.85-.88-.13-2.37-3.36-3.42-3.48-7.98-.86-19.74,1.83-26.53-7.74-.49-.19-.71-2.54-1.19-2.71-2.46-.89-8.98,3.79-12.34,1.55-12.39-8.27-14.47-25.28-11.85-41.19,1.4-8.51,5.69-13.69,9.47-16.88.72-.61-2.16-1.79-1.45-2.44.21-4.82,3.55-12.72,8.65-19.88,4.25-5.97,13.09-4.49,16.81-6.62.43-.25-2.43-5.48-2-5.74,3.55-4.56,8.72-6.67,11.32-8.97.2-.18-.86-1.35-.63-1.55,4.96-8.43,14.8-15.71,32.74-17.52,7.16-.73,16.36-6.6,26.38-2.35.47.05-.63,7.5-.12,7.54,4.71.36,9.6,1.21,16.68,6.83,6.84,5.43,11.34,6.22,14.63,14.7-3.2,5.14,1.05,6.21-3.05,10.67-2.09,2.28-1.93-3.07-.11-.58-.96,5.62.8,9.51-.91,13.39-.72,1.64-4.62,3.2-4.8,4.1-.86,5.02-6.14,7.83-7.46,11.36-.81,2.18,6.27,6.76,6.04,8.12-.05.3-2.11.12-2.16.43-.11,3.56-2.2,7.65-3.51,12.46-.01.04-3.78-.31-3.79-.27-.2,1.5,8.56,3.89,8.3,5.45.13.76-6.42,2.39-6.18,3.38.6,2.55,1,5.53,1.31,9.01.06.32,4.1.13,4.29-.13,1.23-1.65,1.71-1.13,3.03-2.71,4.55-5.45,5.66-7.74,9.11-10.7.3-.26,2.94-1.16,3.29-1.45.64-9.7,1.45-19.32,4.55-22.65.28-.3,1.52,1.01,1.84.66.3-1.19,2.17-2.15,2.46-3.61,1.48-7.26,6.74-14.47,14.2-23.07,4.65-5.36,8.99-7.14,12.78-8.94.68-.33.34-3.87.9-4.17,2.81-3,2.58-8.99,5.13-11.07.79-.65,1.47-.64,2.18-1.25.04-.2,2.19,1.98,2.22,1.8.97-5.11,4.72-11.86,11.77-18.41,7.04-6.54,12.56-12.04,18.07-12.37,2.25-3.58,6.29-6.9,11.98-10.86,3.91-2.72,7.76-5.36,11.56-7.52,1.51-.86,6.09,3.51,7.62,2.61,8.9-5.27,17.51-8.37,31.34-6.24.7.11,2.04-1.6,2.96-1.43-.07-1.09,2.03-2.43,1.99-3.45-.43-10.34-5.55-17.77-4.3-22.39.03-.12.75.08.78-.04.21-.76,4.06-.95,4.19-2.34.42-4.51,3.76-10.07,9.3-17.43,4.73-6.28,9.97-9.14,14.97-12.09.97-.57.88-3,1.82-3.59,6.73-4.21,13.93-4.27,19.48-5.92.37-.11-1.59-6.73-1.21-6.84,10.31-3.06,18.59,7.05,23.09,8.49.63.2,2-.29,2.31-.22.45.1,2.48-.45,3.52-.42,3.28.1,6.38,2.19,11.41,3.88.69.23,2.98-4.44,3.65-4.25,4.15,1.22,12.36,1.17,18.71,6.64,5.7,4.91,7.37,12.78,9.73,16.97.87,1.54,2.94,2.02,3.64,2.99.47.66,2.04.81,3.02,1.84,3.77,3.98,7.79,12.05,9.86,21.68,1.76,8.19-1.14,15.17-2.19,19.79-.11.49,5.57,1.19,5.47,1.65.09.43-8.64,1.65-8.55,2.06.38,1.76,6.19,6.41,6.46,8.84,5.08-5.15,6.58-13.58,10.89-14.95,1.12-3.85,9.36-3.43,12.9-8.55,2.71-3.92,2.46-9.04,4.96-11.4,1.14-1.08,1.69-3.6,2.11-4.26,2.95-4.71,7.92-6.82,10.82-9.42.5-.45.81-1.53,1.35-2.04.06-.77,1.96-1.61,2-2.29.33-5.45-3.63-13.59-.15-20.13,2.25-4.24,4.71-2,8.57-4.85s3.8,1.2,8.51.3c12.22-2.34,19.38-2.38,23.89,1.85,4.64,4.35,6.29,9.8,8.05,13.94.89,2.08,5.63,1.84,6.76,3.79,4.02,6.91-.38,16.89.94,24.19.22,1.24-1.34,2.88-1.09,4.19,1.36,7.1,7.53,13.09,6.53,17.99-.27,1.32-.09,1.78-.26,2.88.2.4-6.17,2.33-5.99,2.69,2.63,5.21,12.73,12.99,10.82,23.61-1.65,9.16-6.76,17.54-10.37,21.51-.42.46.65-.04.26.41-2.52,7.16-13.39,9.52-16.02,14.37-.66,1.22,5.34,5.93,4.73,7.11-2.43,4.7-8.75,8.16-13.07,13.27-5.05,5.97-11.49,9.96-16.3,13.71-3.16,10.98.68,11.79-.72,23.13-1.18,9.58-2.29,15.12-5.26,18.73,3.24.74-.66,6.6,2.76,8.82,3.61,2.34,12.48-2.96,15.02-.69,1.67,1.5.13,6.38,1.28,7.12,1.02.66,4.17-1.35,6.11-.55,3,1.24,4.62,7.18,8.32,9.49,4.51,2.81,11.33,1.9,16.34,4.8,5.18,3,10,6.29,12.57,8.62.63.57-1.96,5.42-1.64,5.67-.05-.04-.06-1.8-1.91-2.47.1.06.92-1.53.98-1.5-.01,0-1.79.53-2.09.41-6.34,18.96-.68,21.28-9.22,39.36-4.88-1.5-10.78-4.87-13.82-6.9-1.26-.84-2.41-4.59-3.13-4.83-2.94-.84-5.93-1.09-8.69-2.05-2-.7-4.83,1.81-6.74,1.21-.4.09.76,3.78.4,3.87-4.72,1.14-11.99-6.23-20.04-8.47-4.29-1.19-8.5.02-11.69-1.46-2.08-.97-5.84,3.85-7.22,3.47-1.41-.39-2.4-4.35-4.68-4.65-3.47-.46-6.09-6.17-10.37-7.36-.15-.04-.32,5.2-.49,5.16-.69.98-6.4-1.52-7.15-.39-1.88,2.84-3.83,5.51-6.54,8.69-1.66,1.96,3.2,9.38,1.47,11.82-1.7,2.39-2.41,6-4.41,8.48-3.13,3.85-11.2,2.5-13.8,4.8-1.04.92-3.03,1.94-3.45,2.43ZM1028.24,260.58s0-3.98.01-3.98c0,0,0,3.98-.01,3.98ZM1287.49,250.4s0-3.99.01-3.98c0,0,0,3.99-.01,3.98ZM1090.59,250.34s2.02-1.96,2.02-1.96c0,.98-2.02,1.96-2.02,1.96ZM1082.47,247.12l2.02-1.96c0,.98-2.02,1.96-2.02,1.96ZM1355.46,230.53c1.63.69,4.83-2.23,6.26-1.56,2.13.99,4.3.27,5.75.69,2.58.74,4.4,4.43,7.27,5.16,2.86.72,5.67,2.04,8.71,2.9,2.05.58.19-1.32,1.9-.44,3.16-4.57,10.63-.35,12.96-5.39,1.31-2.84-5.48-8.2-4.06-10.68-.94.33,1.99,3.2.97,3.44-2.56.59-5.99-4.4-8.78-4.1-3.32.36-5.64,8.71-9.61,9.66-3.86.92-9.14-7.72-12.69-7.32-2.95.34-5,6.11-7.37,6.68-.09.02-1.21.96-1.3.98ZM1170.55,227.13c1.66.95,6.1-.43,7.45.41,1.99,1.24,4.09.78,5.2,1.14,3.71,1.2,8.19,4.58,13.66,4.86,5.36.28,10.66,1.06,16.8.39,2.6-.28,4.91-5.07,7.38-5.21,3.03-.17,7.42,9.08,10.22,8.68.47-.44-2.71-8.37-2.28-8.78,1.03-1,3.84,2.1,5.18.95-11.13-5.61-9.17-11.14-21.11-14.74-2.97,1.93-4.47,10.99-7.22,12.59-8.94,5.23-19.87-4.49-25.94-5.26-1.94-.25-5.09,4.89-6.1,5.05-1.7.14-3.43-.71-3.23-.08ZM1229.13,235.3l2.02-1.96c0,.98-2.02,1.96-2.02,1.96ZM1026.98,220.3c.84.1,3.18-3.32,3.84-3.24,2.47.27,4.4-1.09,6.75-.64,1.46-.72,3.27,1.62,5.24.92,1.53-.54,3.11-.4,4.34-.76.11-.03-3.67-2.56-3.55-2.6.8-1.45,10.04,1.09,10.56-.24.51-1.31-6.9-5.81-6.35-7.13.68-1.65,2.85-2.42,3.37-3.86.05-.44,5.35.06,5.4-.39.26-2.16-7.54-5.16-7.22-7.43.13-3.23,9.48-5.5,10.59-9.6.1-.65-5.24-3.53-5.23-4.79.04-3.55.08-8.64,1.5-13.85.42-1.56,3.1-3.16,3.71-4.52-1.21-.5-3.35-.72-6.39-.41-.24.02-1.07-.17-1.24-.15-.24.36-1.91.56-2.35,1.37-2.21,4.1-1.9,9.26-4.78,11.81-1.84,1.64-7.02.75-8.3,2.52-3.71,5.14-7.93,8.78-11.42,10.78-.23,4.59-2.66,9.68-6.67,15.77-1.34,2.04.51,5.69-.92,7.28,3.35,1.58,5.63,5.54,9.12,9.14ZM1229.74,195.07c-1.77,4.81-2.24,15-9.41,19.96-2.08,1.44-5.8-2.47-7.75-1.19,18.43-2.95,19.31,1.85,37.12-3.73.53-4.82,2.01-7.69,3.21-10.55.14-.34-4.1-2.2-4.06-2.32,0,0,9.43,1.25,9.49.61-.04-.11-8.46.77-8.49.66-1.21-3.6-.9-8.77-.66-15.14-1.03,1.47-2.88.26-4.25,1.7-5.38,5.66-10.66,8.71-15.19,10.01ZM1340.79,187.62c.71.04,2.29-.13,2.93-.09,1.36.09,2.31-1.32,3.08-1.37,4.61-1.08,9.51,1.49,13.25,1.07,2.49-.29,4.92.03,6.44-.33,6.45-1.54,11.5-6.77,15.56-7.2.42-.05,3.43,9.01,3.89,8.96.34-.31-3.76-7.82-3.46-8.1,3.36-3.1,9.78-6.5,16.61-8.84,3.03-1.04,7.29,3.42,9.8,2.82,2.53-.61,1.99-8.67,3.28-9.34,2.63-1.35,10.46,4.1,13.76,1.49.91-.72-1.58-5.77-.64-6.5.04-.03.01-.07.05-.1,4.03-3.13,9.07-4.26,11.77-7.44,1.42-1.68,2.33-5.07,4-8.3.73-1.41,1.9-2.6,2.69-4.05,2.42-4.45,5.64-8.12,7.18-12.76,1.97-5.94,1.46-11.05,4.31-14.22-2.23-4.42-.95-10.14-.72-17.61.07-2.38-2.64-5.8-2.34-7.81-2.61,3.43-7.21,4.6-9.4,6.66-.91.86.63,4.79.07,5.43-.26.68-1.38,1.71-1.68,2.72-1.2,4.12,1.47,12.87-2.63,18.16-4.74,6.12-18.79,3.17-23.6,4.85-.53,5.72,3.78,18.39-2.75,24.67-5.67,5.47-13.46,6.64-17.88,10.18-4.34,3.47-9.13,4.67-13.02,6.84-1.73.97-3.96,1.3-5.22,2.11-7.79,5.01-14.12,9.51-19.27,9.35-.02.03-.22-1.59-.25-1.56-3.06,3.6-8.25,7.42-15.82,10.34ZM1347.67,191.67l2.02-1.96c0,.98-2.02,1.96-2.02,1.96ZM1174.46,188.24c3.79,0,7.4-3.55,10.13-3.2.53.07-.67-1.13-.1-1.07,2.41-1.47,6.2-.23,8.9-2.05.08-.21.53.02.6-.17,1.57-4.38.93-14.52,7.06-19.65,5.39-4.51,16.13,1.92,20.1.79.28-.58-4.52-7.36-4.27-7.9,1.23-2.62,4.46-5.45,6.75-8.71,1.78-2.53,7.75-1.32,9.33-3.19,1.13-1.33-4.15-7.38-3.78-8.1.57-1.26,9.52,1.37,10.15.04,1.04-2.18-2.85-6.8-2.28-8.5-.06-.24.52.64.44.37-.97.03-1.94-1.92-2.17-1.86-1.62.95-2.87,2.57-4.47,3.48-2.83,1.61-5.88,2.79-8.15,4.3-.38.55-2.26,1-2.7,1.69-2.03,3.23-1.67,10.37-6.32,14.13-5.44,4.4-14.24,2.59-19.15,3.14-1.09,4.53-2.56,10.72-7.09,15.42-2.73,2.83-6.79,3.2-9.19,5.18-1.84,1.51-1.05,5.93-2.05,7.06-3.31,3.7-7.66,5.54-10.93,7.27-.59.49.28-4.53,1.04-4.65,2.57-.43,5.84,6.16,8.14,6.16ZM1382.72,187.06s2.02-1.96,2.02-1.96c0,.98-2.02,1.96-2.02,1.96ZM1293.34,114.8c2.41,3.65,10.05,9.66,9.09,20.06-.57,6.25-1.36,11.85-3.94,15.36,1.64-.47-.47-2.33.74-2.57,2.38-.48,2.53.07,3.63-.97,3.05-2.92,3.76-8.97,6.66-10.89,2.11-1.4,10.5,4.35,11.67,3.17.5-.64-5.28-7.66-4.58-8.97,1.9-3.55,6.04-7.55,9.84-11.67,1.81-1.97,7.76-1.12,9.6-3.7,1.8-2.52-2.66-10.18-.48-12.68,2.52-2.9,13.08-.25,15.57-1.86-.54-3.22-6.03-8.93-5.3-13.16.32-1.87.67-3.59,1-5.06.13-.57,2.46-1.32,2.58-1.93-.37-.4-1.65-.86-1.99-1.22-1.71-1.81-3.4-4.29-5.44-7.13-1.98-2.75-2.26-5.89-3.56-8.19-.79-1.39-5.07-.66-5.68-1.44-.52-.18.47-4.05-.22-4.25-.86-.25-2.13.3-3.18-.04-.49-.03-1.5-2.38-2.12-2.4-2.67-.08-6.51,3.72-10.74,2.76-1.99-.45-3.49-1.77-4.88-2.21-.35-.11.2,4.96-.18,4.84-3.45,1.02-10.33-6.79-12.29-5.57-1.25.78,1.35,7.87.07,8.63-.93.55-5.03-1.62-6.02-.99-.23,2.51-1.86,5.7-2.92,9.6-.03.12-.81-.09-.85.03-.87,3.21,3.77,5.9,3.94,10.07.15,3.47-1.35,7.3-.22,10.86,2.18,6.91.86,13.02.59,17.16-.04.67-2.52-1.39-2.53-.87-.89,1.06,1.8,4.65,2.11,5.23ZM1367.59,130.24s.02-.08.01-.07c.11-.07-1.97,3.2-1.87,3.14-.11.07,1.95-3.13,1.85-3.07ZM1378.95,127.81l2.02-1.96c0,.98-2.02,1.96-2.02,1.96ZM1348.06,106.39l2.02-1.96c0,.98-2.02,1.96-2.02,1.96ZM1402.37,96.55l2.02-1.96c0,.98-2.02,1.96-2.02,1.96ZM1349.29,83.49s2.02-1.96,2.02-1.96c0,.98-2.02,1.96-2.02,1.96ZM1432.1,56.4l2.02-1.96c0,.98-2.02,1.96-2.02,1.96Z"/>
    </g>
  </g>
</svg>